<?xml version="1.0" encoding="utf-8"?>
<!-- Generator: Adobe Illustrator 22.0.1, SVG Export Plug-In . SVG Version: 6.00 Build 0)  -->
<svg version="1.1" id="Layer_1" xmlns="http://www.w3.org/2000/svg" xmlns:xlink="http://www.w3.org/1999/xlink" x="0px" y="0px"
	 viewBox="0 0 1962.3 1308.2" style="enable-background:new 0 0 1962.3 1308.2;" xml:space="preserve">
<style type="text/css">
	.st0{fill:#FFFFFF;}
	.st1{fill:#58595B;}
	.st2{fill:#F4B8C2;}
	.st3{fill:#F4899E;}
	.st4{fill:#B70404;}
	.st5{fill:#FFC06C;}
	.st6{fill:#EFA245;}
	.st7{fill:url(#SVGID_1_);}
	.st8{fill:url(#SVGID_2_);}
	.st9{fill:url(#SVGID_3_);}
	.st10{fill:url(#SVGID_4_);}
	.st11{fill:url(#SVGID_5_);}
	.st12{fill:url(#SVGID_6_);}
	.st13{fill:url(#SVGID_7_);}
	.st14{fill:url(#SVGID_8_);}
	.st15{fill:url(#SVGID_9_);}
	.st16{fill:url(#SVGID_10_);}
	.st17{fill:url(#SVGID_11_);}
	.st18{fill:url(#SVGID_12_);}
	.st19{fill:url(#SVGID_13_);}
	.st20{fill:url(#SVGID_14_);}
	.st21{fill:url(#SVGID_15_);}
	.st22{fill:url(#SVGID_16_);}
	.st23{fill:url(#SVGID_17_);}
	.st24{fill:url(#SVGID_18_);}
	.st25{fill:url(#SVGID_19_);}
	.st26{fill:url(#SVGID_20_);}
	.st27{fill:url(#SVGID_21_);}
	.st28{fill:url(#SVGID_22_);}
	.st29{fill:url(#SVGID_23_);}
	.st30{fill:url(#SVGID_24_);}
	.st31{fill:url(#SVGID_25_);}
	.st32{fill:url(#SVGID_26_);}
	.st33{fill:url(#SVGID_27_);}
	.st34{fill:url(#SVGID_28_);}
	.st35{fill:url(#SVGID_29_);}
	.st36{fill:url(#SVGID_30_);}
	.st37{fill:url(#SVGID_31_);}
</style>
<g>
	<rect x="0" y="0" class="st0" width="1962.3" height="1308.2"/>
	<g>
		<rect x="0" y="0" class="st1" width="1962.3" height="265.2"/>
		<g>
			<g>
				<g>
					<path d="M1190.3,1144.4h10.7l17.9,47.8H1208l-3.6-10.6h-17.9l-3.8,10.6h-10.6L1190.3,1144.4z M1189.2,1173.7h12.4l-6-17.5
						L1189.2,1173.7z"/>
					<path d="M1222.1,1157.6h9.1v6.4c0.9-2.2,2.4-3.9,4.5-5.3c2.1-1.4,4.3-2,6.7-2c0.8,0,1.4,0.1,2,0.3v8.9
						c-0.3-0.1-0.8-0.2-1.5-0.2c-0.7-0.1-1.3-0.1-1.8-0.1c-3.3,0-5.7,1.1-7.3,3.3c-1.4,1.9-2.1,4.5-2.1,7.8v15.6h-9.5V1157.6z"/>
					<path d="M1260.1,1157.6h7v6.3h-7v17.1c0,1.6,0.3,2.7,0.8,3.2c0.5,0.5,1.6,0.8,3.2,0.8c0.6,0,1.1,0,1.4,0c0.3,0,0.8-0.1,1.5-0.3
						v7.5c-1.7,0.2-3.5,0.3-5.5,0.3c-3.4,0-5.9-0.5-7.6-1.5c-2.2-1.3-3.3-3.5-3.3-6.7v-20.4h-5.7v-6.3h5.7v-10.4h9.5V1157.6z"/>
					<path d="M1279.5,1177.2c0,3,0.7,5.2,2.2,6.6c1.5,1.5,3.6,2.2,6.3,2.2c1.8,0,3.4-0.5,4.9-1.4c1.4-0.9,2.3-2,2.7-3.2h8.3
						c-1.3,4-3.4,7-6.1,8.9c-2.6,1.8-6,2.7-10.1,2.7c-5.4,0-9.7-1.7-12.9-5c-3.2-3.3-4.8-7.7-4.8-13.1c0-5.3,1.6-9.6,4.9-13.1
						c3.3-3.4,7.5-5.2,12.7-5.2c5.5,0,9.8,2.1,12.8,6.2c2.7,3.7,4,8.5,4,14.3H1279.5z M1294.8,1171.2c-0.4-2.5-1.2-4.3-2.4-5.5
						c-1.2-1.2-2.9-1.8-5.1-1.8c-2.7,0-4.8,0.9-6.2,2.7c-1.1,1.4-1.7,3-1.7,4.7H1294.8z"/>
					<path d="M1310,1157.6h9.1v6.4c0.9-2.2,2.4-3.9,4.5-5.3c2.1-1.4,4.3-2,6.7-2c0.8,0,1.4,0.1,2,0.3v8.9c-0.3-0.1-0.8-0.2-1.5-0.2
						c-0.7-0.1-1.3-0.1-1.8-0.1c-3.3,0-5.7,1.1-7.3,3.3c-1.4,1.9-2.1,4.5-2.1,7.8v15.6h-9.5V1157.6z"/>
					<path d="M1353.1,1196.5c-1.1,2.8-2.5,4.9-4.3,6c-1.8,1.2-4.3,1.8-7.6,1.8c-1.9,0-3.8-0.1-5.8-0.3v-7.8c0.6,0,1.5,0,2.7,0.1
						c1.2,0.1,2.2,0.1,2.9,0.1c1.2-0.1,2.1-0.6,2.7-1.4c0.6-0.8,1-1.8,1-2.9c0-0.7-0.1-1.4-0.4-2.1l-12.2-32.4h10.1l7.9,23.6
						l7.6-23.6h9.8L1353.1,1196.5z"/>
					<path d="M1401.6,1144.4h10.3l19.9,32.1l0.1-32.1h9.9v47.8h-10.5l-19.9-31.9l-0.1,31.9h-9.8V1144.4z"/>
					<path d="M1449.7,1168.3c0-4.1,1.7-7.2,5.1-9.2c2.8-1.6,6.5-2.4,11.1-2.4c4.3,0,7.7,0.6,10.2,1.8c3.3,1.6,5,4.3,5,8.1v17.9
						c0,1.8,0.1,3.4,0.3,4.7c0.2,1.3,0.5,2.3,1,3h-9.7c-0.2-0.5-0.3-1-0.4-1.6c-0.1-0.6-0.2-1.2-0.2-1.8c-1.5,1.5-3.3,2.6-5.4,3.3
						c-1.9,0.6-4,0.9-6.3,0.9c-3.5,0-6.2-0.8-8.3-2.5c-2.3-1.8-3.4-4.4-3.4-7.8c0-3.5,1.2-6.2,3.7-7.9c1.8-1.3,4.5-2.1,8.1-2.6
						c5.1-0.7,7.7-1.1,7.8-1.1c2.3-0.6,3.4-1.7,3.4-3.5c0-1.8-0.6-3.1-1.8-3.9c-0.9-0.5-2.3-0.8-4.3-0.8c-1.8,0-3.3,0.4-4.4,1.3
						c-1.1,0.9-1.7,2.2-1.9,4H1449.7z M1471.6,1175.3c-0.7,0.6-1.9,1-3.7,1.3c-1.8,0.3-3.2,0.5-4.2,0.7c-1.8,0.4-3.1,0.8-3.9,1.4
						c-1.1,0.8-1.7,2-1.7,3.6c0,1.7,0.6,2.8,1.7,3.6c1,0.6,2.3,0.9,4.1,0.9c2.5,0,4.4-0.7,5.7-2c1.3-1.3,2-3.3,2-6V1175.3z"/>
					<path d="M1488.5,1157.6h9.1v6.4c0.9-2.2,2.4-3.9,4.5-5.3c2.1-1.4,4.3-2,6.7-2c0.8,0,1.4,0.1,2,0.3v8.9
						c-0.3-0.1-0.8-0.2-1.5-0.2c-0.7-0.1-1.3-0.1-1.8-0.1c-3.3,0-5.7,1.1-7.3,3.3c-1.4,1.9-2.1,4.5-2.1,7.8v15.6h-9.5V1157.6z"/>
					<path d="M1514.5,1157.6h9.1v6.4c0.9-2.2,2.4-3.9,4.5-5.3c2.1-1.4,4.3-2,6.7-2c0.8,0,1.4,0.1,2,0.3v8.9
						c-0.3-0.1-0.8-0.2-1.5-0.2c-0.7-0.1-1.3-0.1-1.8-0.1c-3.3,0-5.7,1.1-7.3,3.3c-1.4,1.9-2.1,4.5-2.1,7.8v15.6h-9.5V1157.6z"/>
					<path d="M1557.3,1156.7c5.4,0,9.8,1.7,13.1,5c3.3,3.3,4.9,7.8,4.9,13.3c0,5.5-1.6,9.9-4.9,13.2c-3.3,3.3-7.6,4.9-13.1,4.9
						c-5.4,0-9.7-1.6-13-4.9c-3.2-3.3-4.9-7.7-4.9-13.2c0-5.5,1.6-9.9,4.9-13.3C1547.6,1158.4,1551.9,1156.7,1557.3,1156.7z
						 M1557.3,1186c3,0,5.2-1.2,6.6-3.5c1.2-1.9,1.8-4.4,1.8-7.6c0-3.2-0.6-5.8-1.7-7.7c-1.4-2.3-3.6-3.5-6.7-3.5
						c-2.9,0-5.1,1.2-6.5,3.5c-1.2,1.9-1.8,4.5-1.8,7.7c0,3.2,0.6,5.7,1.7,7.6C1552.1,1184.8,1554.3,1186,1557.3,1186z"/>
					<path d="M1620.9,1192.2h-9.9l-6.1-23.2h-0.2l-5.8,23.2h-9.9l-10.9-34.5h10l6.4,23.4l5.8-23.4h9.3l5.8,23.4l6.5-23.4h9.7
						L1620.9,1192.2z"/>
					<path d="M1643.7,1177.2c0,3,0.7,5.2,2.2,6.6c1.5,1.5,3.6,2.2,6.3,2.2c1.8,0,3.4-0.5,4.9-1.4c1.4-0.9,2.3-2,2.7-3.2h8.3
						c-1.3,4-3.4,7-6.1,8.9c-2.6,1.8-6,2.7-10.1,2.7c-5.4,0-9.7-1.7-12.9-5c-3.2-3.3-4.8-7.7-4.8-13.1c0-5.3,1.6-9.6,4.9-13.1
						c3.3-3.4,7.5-5.2,12.7-5.2c5.5,0,9.8,2.1,12.8,6.2c2.7,3.7,4,8.5,4,14.3H1643.7z M1659.1,1171.2c-0.4-2.5-1.2-4.3-2.4-5.5
						c-1.2-1.2-2.9-1.8-5.1-1.8c-2.7,0-4.8,0.9-6.2,2.7c-1.1,1.4-1.7,3-1.7,4.7H1659.1z"/>
					<path d="M1698.9,1187.7c-1.1,1.8-2.6,3.2-4.4,4c-1.8,0.9-3.9,1.3-6.2,1.3c-4.9,0-8.8-1.9-11.6-5.6c-2.6-3.4-3.9-7.7-3.9-12.9
						c0-5,1.3-9.1,3.8-12.4c2.8-3.6,6.6-5.4,11.5-5.4c2.1,0,4.1,0.4,5.9,1.3c1.8,0.9,3.3,2.1,4.4,3.8h0.1v-17.4h9.4v47.8h-9V1187.7z
						 M1690.6,1163.8c-2.9,0-5.1,1.1-6.5,3.4c-1.2,1.9-1.8,4.5-1.8,7.7c0,3.1,0.6,5.6,1.9,7.6c1.5,2.3,3.6,3.5,6.4,3.5
						c2.9,0,5-1.2,6.4-3.5c1.2-1.9,1.8-4.5,1.8-7.8c0-3.2-0.6-5.7-1.8-7.6C1695.6,1165,1693.5,1163.8,1690.6,1163.8z"/>
				</g>
			</g>
			<g>
				<g>
					<g>
						<g>
							<rect x="1034.5" y="730.4" class="st2" width="811" height="343.6"/>
							<rect x="1034.5" y="765.3" class="st3" width="811" height="273.8"/>
							<rect x="1034.5" y="782.8" class="st4" width="811" height="238.8"/>
						</g>
						<path class="st5" d="M1034.5,1021.6v-35.7c0,0,96.7,33.5,141.7,17.8c45-15.6,109.3-35.3,155.1-17.8
							c45.8,17.5,97,28.4,116.4,2.2c19.4-26.2,23.8-72.1,64.3-59s28.2,70.5,68.8,45.1c40.5-25.4,37.9-119.3,83.7-93.1
							c45.8,26.2,59.1,126.7,81.1,120.1c22-6.6,39.5-45.9,56.3-32.8c16.8,13.1,43.6,26.2,43.6,26.2v26.9H1034.5z"/>
						<path class="st5" d="M1845.5,782.8v69.9c0,0-43.7,28.4-93.4,0c-49.7-28.4-89.4-59.5-129-28.7c-39.7,30.8-37,135.3-108.4,52.5
							c-71.4-82.8-73.2,54.8-119,50.4c-45.8-4.4-32.6-83-92.6-96.1c-59.9-13.1-55.5-37.1-104-13.1c-48.5,24-44.1,10.9-73.2-6.6
							c-29.1-17.5-91.4,17.5-91.4,17.5v-45.9H1845.5z"/>
						<path class="st6" d="M1845.5,778.5v42.9c0,0-49.3,42.9-76.4,0c-27.1-42.9-91.5-44.8-109.1-27.6c-17.6,17.2-44.7,16-100.7,15.7
							c-56-0.4-102.1,1-124.3,31c-22.2,30-37.1,36.1-68.4-12.9c-31.4-49.1-57.2-30.7-77.2-30.7s-69-18.4-90.9-6.1
							c-21.9,12.3-89.7,0-89.7,0s-74.4-9.2-74.4,3.1v-12.3L1845.5,778.5z"/>
						<path class="st6" d="M1845.5,1021.6v-18.5c0,0-33.3-13.6-42.7-4.9c-9.4,8.7-32.6,7.8-49.4,10.2c-16.8,2.4-57.1-6.3-68.5-37.4
							c-11.4-31.1-47.4,45.6-81.5,31.1c-34.1-14.6-58.8,33-72.5,1c-13.7-32-23.1-21.4-50.1-4.9c-27,16.5-92.1,26.2-110.1,14.6
							c-18-11.6-99.9-22.4-132-6.8c-32.1,15.6-129.3,12.6-146.5,4.9c-17.2-7.8-57.6-9.7-57.6-9.7v20.4H1845.5z"/>
					</g>
				</g>
				<radialGradient id="SVGID_1_" cx="1114.4305" cy="846.4244" r="29.8049" gradientUnits="userSpaceOnUse">
					<stop  offset="0" style="stop-color:#FFFF86"/>
					<stop  offset="0.4527" style="stop-color:#FFDD72"/>
					<stop  offset="0.9845" style="stop-color:#FFB95C"/>
				</radialGradient>
				<circle class="st7" cx="1114.4" cy="846.4" r="29.8"/>
				<radialGradient id="SVGID_2_" cx="1181.0411" cy="963.4165" r="29.8049" gradientUnits="userSpaceOnUse">
					<stop  offset="0" style="stop-color:#FFFF86"/>
					<stop  offset="0.4527" style="stop-color:#FFDD72"/>
					<stop  offset="0.9845" style="stop-color:#FFB95C"/>
				</radialGradient>
				<circle class="st8" cx="1181" cy="963.4" r="29.8"/>
				<radialGradient id="SVGID_3_" cx="1214.3984" cy="874.7877" r="24.645" gradientUnits="userSpaceOnUse">
					<stop  offset="0" style="stop-color:#FFFF86"/>
					<stop  offset="0.4527" style="stop-color:#FFDD72"/>
					<stop  offset="0.9845" style="stop-color:#FFB95C"/>
				</radialGradient>
				<circle class="st9" cx="1214.4" cy="874.8" r="24.6"/>
				<radialGradient id="SVGID_4_" cx="1084.6257" cy="936.4" r="29.8049" gradientUnits="userSpaceOnUse">
					<stop  offset="0" style="stop-color:#FFFF86"/>
					<stop  offset="0.4527" style="stop-color:#FFDD72"/>
					<stop  offset="0.9845" style="stop-color:#FFB95C"/>
				</radialGradient>
				<circle class="st10" cx="1084.6" cy="936.4" r="29.8"/>
				<radialGradient id="SVGID_5_" cx="1740.8308" cy="882.8478" r="29.8049" gradientUnits="userSpaceOnUse">
					<stop  offset="0" style="stop-color:#FFFF86"/>
					<stop  offset="0.4527" style="stop-color:#FFDD72"/>
					<stop  offset="0.9845" style="stop-color:#FFB95C"/>
				</radialGradient>
				<circle class="st11" cx="1740.8" cy="882.8" r="29.8"/>
				<radialGradient id="SVGID_6_" cx="1770.6356" cy="949.0698" r="21.4573" gradientUnits="userSpaceOnUse">
					<stop  offset="0" style="stop-color:#FFFF86"/>
					<stop  offset="0.4527" style="stop-color:#FFDD72"/>
					<stop  offset="0.9845" style="stop-color:#FFB95C"/>
				</radialGradient>
				<circle class="st12" cx="1770.6" cy="949.1" r="21.5"/>
				<radialGradient id="SVGID_7_" cx="1814.7272" cy="904.3052" r="21.4573" gradientUnits="userSpaceOnUse">
					<stop  offset="0" style="stop-color:#FFFF86"/>
					<stop  offset="0.4527" style="stop-color:#FFDD72"/>
					<stop  offset="0.9845" style="stop-color:#FFB95C"/>
				</radialGradient>
				<circle class="st13" cx="1814.7" cy="904.3" r="21.5"/>
				<radialGradient id="SVGID_8_" cx="1327.2087" cy="882.8478" r="21.4573" gradientUnits="userSpaceOnUse">
					<stop  offset="0" style="stop-color:#FFFF86"/>
					<stop  offset="0.4527" style="stop-color:#FFDD72"/>
					<stop  offset="0.9845" style="stop-color:#FFB95C"/>
				</radialGradient>
				<circle class="st14" cx="1327.2" cy="882.8" r="21.5"/>
				<radialGradient id="SVGID_9_" cx="1272.1" cy="936.652" r="21.4573" gradientUnits="userSpaceOnUse">
					<stop  offset="0" style="stop-color:#FFFF86"/>
					<stop  offset="0.4527" style="stop-color:#FFDD72"/>
					<stop  offset="0.9845" style="stop-color:#FFB95C"/>
				</radialGradient>
				<circle class="st15" cx="1272.1" cy="936.7" r="21.5"/>
				<radialGradient id="SVGID_10_" cx="1274.2968" cy="846.4244" r="16.1332" gradientUnits="userSpaceOnUse">
					<stop  offset="0" style="stop-color:#FFFF86"/>
					<stop  offset="0.4527" style="stop-color:#FFDD72"/>
					<stop  offset="0.9845" style="stop-color:#FFB95C"/>
				</radialGradient>
				<circle class="st16" cx="1274.3" cy="846.4" r="16.1"/>
				<radialGradient id="SVGID_11_" cx="1423.8668" cy="955.8712" r="16.1332" gradientUnits="userSpaceOnUse">
					<stop  offset="0" style="stop-color:#FFFF86"/>
					<stop  offset="0.4527" style="stop-color:#FFDD72"/>
					<stop  offset="0.9845" style="stop-color:#FFB95C"/>
				</radialGradient>
				<circle class="st17" cx="1423.9" cy="955.9" r="16.1"/>
				<radialGradient id="SVGID_12_" cx="1331.212" cy="958.1041" r="24.3265" gradientUnits="userSpaceOnUse">
					<stop  offset="0" style="stop-color:#FFFF86"/>
					<stop  offset="0.4527" style="stop-color:#FFDD72"/>
					<stop  offset="0.9845" style="stop-color:#FFB95C"/>
				</radialGradient>
				<circle class="st18" cx="1331.2" cy="958.1" r="24.3"/>
				<radialGradient id="SVGID_13_" cx="1474.6973" cy="882.8478" r="24.3265" gradientUnits="userSpaceOnUse">
					<stop  offset="0" style="stop-color:#FFFF86"/>
					<stop  offset="0.4527" style="stop-color:#FFDD72"/>
					<stop  offset="0.9845" style="stop-color:#FFB95C"/>
				</radialGradient>
				<circle class="st19" cx="1474.7" cy="882.8" r="24.3"/>
				<radialGradient id="SVGID_14_" cx="1141.9004" cy="914.5679" r="22.1499" gradientUnits="userSpaceOnUse">
					<stop  offset="0" style="stop-color:#ACFFE0"/>
					<stop  offset="0.5818" style="stop-color:#71CCE1"/>
					<stop  offset="0.9845" style="stop-color:#4DADE1"/>
				</radialGradient>
				<circle class="st20" cx="1141.9" cy="914.6" r="22.1"/>
				<radialGradient id="SVGID_15_" cx="1658.3082" cy="836.3798" r="22.1499" gradientUnits="userSpaceOnUse">
					<stop  offset="0" style="stop-color:#ACFFE0"/>
					<stop  offset="0.5818" style="stop-color:#71CCE1"/>
					<stop  offset="0.9845" style="stop-color:#4DADE1"/>
				</radialGradient>
				<circle class="st21" cx="1658.3" cy="836.4" r="22.1"/>
			</g>
			<g>
				<radialGradient id="SVGID_16_" cx="1439.9999" cy="405.7685" r="94.9774" gradientUnits="userSpaceOnUse">
					<stop  offset="0" style="stop-color:#FFFF86"/>
					<stop  offset="0.4527" style="stop-color:#FFDD72"/>
					<stop  offset="0.9845" style="stop-color:#FFB95C"/>
				</radialGradient>
				<circle class="st22" cx="1440" cy="405.8" r="95"/>
				<g>
					<path d="M1369.7,595c-5,6.7-8.6,15.6-8.6,28c0,12.2,3.8,21,8.6,27.8h-4.7c-4.3-5.7-9-14.5-9-27.8c0.1-13.5,4.7-22.3,9-28
						H1369.7z"/>
					<path d="M1390.8,597c2.6-0.5,6.7-1,10.9-1c6,0,9.8,1,12.7,3.4c2.4,1.8,3.8,4.5,3.8,8.2c0,4.5-2.9,8.4-7.8,10.1v0.1
						c4.4,1.1,9.5,4.7,9.5,11.6c0,4-1.6,7-3.9,9.3c-3.2,2.9-8.4,4.3-16,4.3c-4.1,0-7.3-0.3-9.3-0.5V597z M1396.8,615.9h5.4
						c6.3,0,10-3.3,10-7.7c0-5.4-4.1-7.5-10.1-7.5c-2.7,0-4.3,0.2-5.3,0.4V615.9z M1396.8,638.1c1.2,0.2,2.9,0.3,5,0.3
						c6.2,0,11.9-2.3,11.9-9c0-6.3-5.4-8.9-11.9-8.9h-4.9V638.1z"/>
					<path d="M1446.1,642.6l-0.5-4.2h-0.2c-1.9,2.6-5.4,4.9-10.1,4.9c-6.7,0-10.1-4.7-10.1-9.5c0-8,7.1-12.4,20-12.3v-0.7
						c0-2.7-0.8-7.7-7.5-7.7c-3.1,0-6.3,1-8.6,2.5l-1.4-4c2.7-1.8,6.7-2.9,10.9-2.9c10.1,0,12.6,6.9,12.6,13.6v12.4
						c0,2.9,0.1,5.7,0.5,8H1446.1z M1445.2,625.7c-6.6-0.1-14.1,1-14.1,7.5c0,3.9,2.6,5.8,5.7,5.8c4.3,0,7.1-2.7,8-5.6
						c0.2-0.6,0.3-1.3,0.3-1.9V625.7z"/>
					<path d="M1489.5,593.9V634c0,2.9,0.1,6.3,0.3,8.6h-5.4l-0.3-5.8h-0.1c-1.9,3.7-5.9,6.5-11.3,6.5c-8,0-14.2-6.8-14.2-16.9
						c-0.1-11,6.8-17.8,14.9-17.8c5.1,0,8.5,2.4,10,5.1h0.1v-19.8H1489.5z M1483.4,622.9c0-0.8-0.1-1.8-0.3-2.5
						c-0.9-3.8-4.2-7-8.7-7c-6.2,0-9.9,5.5-9.9,12.8c0,6.7,3.3,12.3,9.8,12.3c4,0,7.7-2.7,8.8-7.2c0.2-0.8,0.3-1.6,0.3-2.6V622.9z"
						/>
					<path d="M1510.4,650.9c4.9-6.8,8.6-15.7,8.6-28c0-12.3-3.7-21.1-8.6-27.8h4.7c4.4,5.6,9,14.4,9,27.9c0,13.4-4.6,22.1-9,28
						H1510.4z"/>
				</g>
				<g>
					<path d="M1186.9,571.1h-35.3v-58.9h5.6v54.1h29.7V571.1z"/>
					<path d="M1197.5,571.1v-58.9h22.6c5.7,0,10.4,1.3,14.2,4c3.8,2.7,6.5,6.2,8.2,10.7c1.7,4.5,2.5,9.3,2.5,14.4
						c0,9.4-2.2,16.8-6.6,22c-4.4,5.2-10.5,7.8-18.4,7.8H1197.5z M1203.1,517.1v49.1h13.9c3.4,0,6.3-0.3,8.7-0.8
						c2.4-0.6,4.7-1.8,6.9-3.9c2.2-2,3.9-4.7,5-8.1c1.1-3.4,1.7-7.6,1.7-12.4c0-15.9-7.4-23.8-22.3-23.8H1203.1z"/>
					<path d="M1292.2,571.1h-35.3v-58.9h5.6v54.1h29.7V571.1z"/>
					<path d="M1374.3,552.5c-3.9,13-12.1,19.5-24.5,19.5c-4.2,0-7.9-0.7-11.1-2c-3.2-1.3-6-3.3-8.3-5.9c-2.3-2.6-4.1-5.9-5.5-9.9
						c-1.4-4-2.1-8.2-2.1-12.6c0-9,2.5-16.3,7.4-22c4.9-5.7,11.5-8.6,19.7-8.6c5.5,0,10.3,1.4,14.3,4.2c4,2.8,7,7.1,9.2,13.1
						l-5.3,1.5c-3.3-9.4-9.2-14.1-17.7-14.1c-6.6,0-11.9,2.4-15.8,7.3c-3.9,4.9-5.8,11.1-5.8,18.7c0,8.5,2,14.9,5.9,19.2
						c3.9,4.3,8.9,6.5,14.9,6.5c9.9,0,16.4-5.4,19.6-16.3L1374.3,552.5z"/>
					<path d="M1417.6,571.1h-5.1v-26.5c0-4.6-0.9-7.9-2.7-9.8c-1.8-2-4.2-2.9-7.2-2.9c-1.6,0-3.2,0.3-4.6,0.8
						c-1.4,0.6-2.7,1.4-3.9,2.5c-1.2,1.1-2.2,2.4-2.9,3.8c-0.7,1.4-1.2,3-1.5,4.7c-0.3,1.7-0.4,4.7-0.4,9v18.5h-5v-58.9h5v22.6
						c3.8-4.8,8.4-7.3,13.7-7.3c9.7,0,14.5,5.3,14.5,15.8V571.1z"/>
					<path d="M1465.5,549.8c0,7-1.7,12.5-5,16.4c-3.3,3.9-8,5.8-14.1,5.8c-2.9,0-5.5-0.5-7.9-1.5c-2.3-1-4.3-2.5-6-4.6
						c-1.7-2-3-4.4-3.9-7c-0.9-2.7-1.3-5.6-1.3-8.9c0-3.4,0.4-6.4,1.1-9.1c0.7-2.7,1.9-5,3.4-6.9c1.5-2,3.4-3.5,5.7-4.7
						c2.3-1.2,5.2-1.8,8.9-1.8c5.8,0,10.4,1.9,13.9,5.7C1463.8,536.8,1465.5,542.4,1465.5,549.8z M1460.3,549.8
						c0-3.8-0.6-7.1-1.7-9.9c-1.1-2.7-2.7-4.8-4.7-6.3c-2-1.4-4.4-2.1-7.3-2.1c-4.4,0-7.9,1.6-10.3,4.9c-2.4,3.3-3.6,7.6-3.6,13.1
						c0,5.4,1.2,9.9,3.7,13.3c2.5,3.4,5.9,5.1,10.3,5.1c2,0,3.9-0.4,5.5-1.1c1.6-0.7,3-1.9,4.3-3.5c1.2-1.6,2.2-3.5,2.9-5.8
						C1460,555.3,1460.3,552.7,1460.3,549.8z"/>
					<path d="M1481.1,571.1h-5v-58.9h5V571.1z"/>
					<path d="M1529.8,550.4h-32.9c0.1,5.5,1.4,9.8,3.9,12.9c2.5,3.1,6,4.6,10.5,4.6c6.2,0,10.6-3.5,13-10.4l4.9,0.8
						c-1.7,4.9-4,8.4-7,10.5c-3,2.1-6.8,3.2-11.2,3.2c-6,0-10.8-2-14.2-6c-3.4-4-5.1-9.4-5.1-16.3c0-6.9,1.7-12.3,5.2-16.3
						c3.4-4,8.2-6,14.2-6C1523.4,527.4,1529.7,535.1,1529.8,550.4z M1524.3,546.2c-0.8-9.9-5.2-14.8-13.4-14.8
						c-3.7,0-6.8,1.3-9.3,3.8c-2.5,2.6-4,6.2-4.6,11H1524.3z"/>
					<path d="M1536.7,559.5l5.1-0.8c0.8,3.3,2.2,5.6,4.4,7.1c2.2,1.5,4.9,2.2,8.1,2.2c2.2,0,4.2-0.4,5.9-1.1c1.7-0.7,3-1.7,3.9-2.9
						c0.9-1.2,1.4-2.6,1.4-4.3c0-1.5-0.5-2.8-1.5-3.9c-1-1.1-2.4-1.9-4.1-2.5c-1.7-0.6-4.1-1.2-7.3-1.9c-9.7-2-14.6-6-14.6-12
						c0-3.7,1.4-6.6,4.3-8.8c2.9-2.1,6.5-3.2,10.8-3.2c8.6,0,13.9,3.8,15.8,11.3l-4.9,0.7c-0.9-3-2.2-5.1-3.7-6.2
						c-1.6-1.1-3.9-1.7-7.1-1.7c-2,0-3.8,0.3-5.4,0.9c-1.6,0.6-2.8,1.4-3.6,2.4c-0.8,1-1.2,2.2-1.2,3.6c0,1.4,0.4,2.6,1.1,3.5
						c0.7,1,2.1,1.8,4.2,2.6c2.1,0.8,4.7,1.5,7.9,2.3c6.1,1.4,10,3.1,11.8,5.1c1.8,2,2.8,4.3,2.8,7c0,2.7-0.7,5-2,7
						c-1.3,1.9-3.2,3.4-5.8,4.5c-2.5,1.1-5.5,1.6-8.9,1.6c-2.2,0-4.2-0.2-6-0.6c-1.8-0.4-3.4-1.1-4.9-1.9c-1.5-0.9-2.8-2.1-3.9-3.6
						C1538.3,564.4,1537.4,562.3,1536.7,559.5z"/>
					<path d="M1597,571.1c-2.2,0.4-4,0.7-5.3,0.7c-1.9,0-3.6-0.3-5-0.9c-1.4-0.6-2.4-1.6-3.1-2.9c-0.7-1.3-1-3.7-1-7.1v-28.6h-6
						v-3.8h6v-10.9l5.1-3.2v14.1h8v3.8h-8v28c0,2,0.1,3.5,0.4,4.5c0.3,1,0.8,1.7,1.5,2.2c0.7,0.5,1.7,0.7,2.9,0.7
						c0.9,0,2.2-0.2,4-0.5L1597,571.1z"/>
					<path d="M1639.6,550.4h-32.9c0.1,5.5,1.4,9.8,3.9,12.9c2.5,3.1,6,4.6,10.5,4.6c6.2,0,10.6-3.5,13-10.4l4.9,0.8
						c-1.7,4.9-4,8.4-7,10.5c-3,2.1-6.8,3.2-11.2,3.2c-6,0-10.8-2-14.2-6c-3.4-4-5.1-9.4-5.1-16.3c0-6.9,1.7-12.3,5.2-16.3
						c3.4-4,8.2-6,14.2-6C1633.3,527.4,1639.5,535.1,1639.6,550.4z M1634.2,546.2c-0.8-9.9-5.2-14.8-13.4-14.8
						c-3.7,0-6.8,1.3-9.3,3.8c-2.5,2.6-4,6.2-4.6,11H1634.2z"/>
					<path d="M1672.1,530l-1.9,4.3c-2.6-1.1-4.5-1.6-5.7-1.6c-1,0-1.9,0.2-2.7,0.5c-0.8,0.3-1.6,0.8-2.3,1.5
						c-0.7,0.7-1.4,1.5-1.9,2.4c-0.5,0.9-0.9,1.9-1.2,3.1c-0.3,1.1-0.5,2.8-0.7,4.9c-0.2,2.2-0.3,4.2-0.3,5.9v20.1h-5v-42.7h4.4v8.7
						c2.1-6.4,5.4-9.6,10-9.6C1666.8,527.4,1669.4,528.3,1672.1,530z"/>
					<path d="M1712.7,549.8c0,7-1.7,12.5-5,16.4c-3.3,3.9-8,5.8-14.1,5.8c-2.9,0-5.5-0.5-7.9-1.5c-2.3-1-4.3-2.5-6-4.6
						c-1.7-2-3-4.4-3.8-7c-0.9-2.7-1.3-5.6-1.3-8.9c0-3.4,0.4-6.4,1.1-9.1c0.7-2.7,1.9-5,3.4-6.9c1.5-2,3.4-3.5,5.7-4.7
						c2.3-1.2,5.2-1.8,8.9-1.8c5.8,0,10.4,1.9,13.9,5.7C1711,536.8,1712.7,542.4,1712.7,549.8z M1707.5,549.8c0-3.8-0.6-7.1-1.7-9.9
						c-1.1-2.7-2.7-4.8-4.7-6.3c-2-1.4-4.4-2.1-7.3-2.1c-4.4,0-7.9,1.6-10.3,4.9c-2.4,3.3-3.6,7.6-3.6,13.1c0,5.4,1.2,9.9,3.7,13.3
						c2.5,3.4,5.9,5.1,10.3,5.1c2,0,3.9-0.4,5.5-1.1c1.6-0.7,3-1.9,4.3-3.5c1.2-1.6,2.2-3.5,2.9-5.8
						C1707.2,555.3,1707.5,552.7,1707.5,549.8z"/>
					<path d="M1728.3,571.1h-5v-58.9h5V571.1z"/>
				</g>
			</g>
		</g>
		<g>
			<g>
				<g>
					<path d="M275.6,1144.4h10.3l19.9,32.1l0.1-32.1h9.9v47.8h-10.5l-19.9-31.9l-0.1,31.9h-9.8V1144.4z"/>
					<path d="M340.8,1156.7c5.4,0,9.8,1.7,13.1,5c3.3,3.3,4.9,7.8,4.9,13.3c0,5.5-1.6,9.9-4.9,13.2c-3.3,3.3-7.6,4.9-13.1,4.9
						c-5.4,0-9.7-1.6-13-4.9c-3.2-3.3-4.9-7.7-4.9-13.2c0-5.5,1.6-9.9,4.9-13.3C331.1,1158.4,335.4,1156.7,340.8,1156.7z
						 M340.8,1186c3,0,5.2-1.2,6.6-3.5c1.2-1.9,1.8-4.4,1.8-7.6c0-3.2-0.6-5.8-1.7-7.7c-1.4-2.3-3.6-3.5-6.7-3.5
						c-2.9,0-5.1,1.2-6.5,3.5c-1.2,1.9-1.8,4.5-1.8,7.7c0,3.2,0.6,5.7,1.7,7.6C335.6,1184.9,337.8,1186,340.8,1186z"/>
					<path d="M364.9,1157.6h9.1v6.4c0.9-2.2,2.4-3.9,4.5-5.3c2.1-1.4,4.3-2,6.7-2c0.8,0,1.4,0.1,2,0.3v8.9c-0.3-0.1-0.8-0.2-1.5-0.2
						c-0.7-0.1-1.3-0.1-1.8-0.1c-3.3,0-5.7,1.1-7.3,3.3c-1.4,1.9-2.1,4.5-2.1,7.8v15.6h-9.5V1157.6z"/>
					<path d="M391.1,1157.6h9.1v4.7c1.3-1.8,2.8-3.2,4.6-4.1c1.8-1,3.8-1.5,6-1.5c2.3,0,4.3,0.5,6.1,1.4c1.8,0.9,3.1,2.4,4,4.3
						c1.1-1.6,2.5-3,4.2-4c1.9-1.2,4-1.7,6.3-1.7c4,0,7,0.9,9.1,2.8c2.4,2.1,3.6,5.3,3.6,9.6v23.1h-9.5v-19.6c0-2.9-0.3-4.9-0.8-6
						c-0.8-1.7-2.5-2.5-4.9-2.5c-2.4,0-4.2,0.9-5.2,2.8c-0.8,1.4-1.2,3.4-1.2,6v19.3h-9.5v-19.4c0-3-0.2-4.9-0.6-5.9
						c-0.8-1.9-2.5-2.8-5.2-2.8c-1.4,0-2.7,0.5-3.9,1.4c-1.7,1.4-2.5,3.6-2.5,6.5v20.1h-9.6V1157.6z"/>
					<path d="M451.2,1168.3c0-4.1,1.7-7.2,5.1-9.2c2.8-1.6,6.5-2.4,11.1-2.4c4.3,0,7.7,0.6,10.2,1.8c3.3,1.6,5,4.3,5,8.1v17.9
						c0,1.8,0.1,3.4,0.3,4.7c0.2,1.3,0.5,2.3,1,3h-9.7c-0.2-0.5-0.3-1-0.4-1.6c-0.1-0.6-0.2-1.2-0.2-1.8c-1.5,1.5-3.3,2.6-5.4,3.3
						c-1.9,0.6-4,0.9-6.3,0.9c-3.5,0-6.2-0.8-8.3-2.5c-2.3-1.8-3.4-4.4-3.4-7.8c0-3.5,1.2-6.2,3.7-7.9c1.8-1.3,4.5-2.1,8.1-2.6
						c5.1-0.7,7.7-1.1,7.8-1.1c2.3-0.6,3.4-1.7,3.4-3.5c0-1.8-0.6-3.1-1.8-3.9c-0.9-0.5-2.3-0.8-4.3-0.8c-1.8,0-3.3,0.4-4.4,1.3
						c-1.1,0.9-1.7,2.2-1.9,4H451.2z M473.1,1175.3c-0.7,0.6-1.9,1-3.7,1.3c-1.8,0.3-3.2,0.5-4.2,0.7c-1.8,0.4-3.1,0.8-3.9,1.4
						c-1.1,0.8-1.7,2-1.7,3.6c0,1.6,0.6,2.8,1.7,3.6c1,0.6,2.3,0.9,4.1,0.9c2.5,0,4.4-0.7,5.7-2c1.3-1.3,2-3.3,2-6V1175.3z"/>
					<path d="M490.2,1144.4h9.6v47.8h-9.6V1144.4z"/>
					<path d="M550.9,1144.4h10.7l17.9,47.8h-10.9l-3.6-10.6h-17.9l-3.8,10.6h-10.6L550.9,1144.4z M549.9,1173.7h12.4l-6-17.5
						L549.9,1173.7z"/>
					<path d="M582.8,1157.6h9.1v6.4c0.9-2.2,2.4-3.9,4.5-5.3c2.1-1.4,4.3-2,6.7-2c0.8,0,1.4,0.1,2,0.3v8.9c-0.3-0.1-0.8-0.2-1.5-0.2
						c-0.7-0.1-1.3-0.1-1.8-0.1c-3.3,0-5.7,1.1-7.3,3.3c-1.4,1.9-2.1,4.5-2.1,7.8v15.6h-9.5V1157.6z"/>
					<path d="M620.8,1157.6h7v6.3h-7v17.1c0,1.6,0.3,2.7,0.8,3.2c0.5,0.5,1.6,0.8,3.2,0.8c0.6,0,1.1,0,1.4-0.1
						c0.3,0,0.8-0.1,1.5-0.3v7.5c-1.7,0.2-3.5,0.3-5.5,0.3c-3.4,0-5.9-0.5-7.6-1.5c-2.2-1.3-3.3-3.5-3.3-6.7v-20.4h-5.7v-6.3h5.7
						v-10.4h9.5V1157.6z"/>
					<path d="M640.1,1177.2c0,3,0.7,5.2,2.2,6.6c1.5,1.5,3.6,2.2,6.3,2.2c1.8,0,3.4-0.5,4.9-1.4c1.4-0.9,2.3-2,2.7-3.2h8.3
						c-1.3,4-3.4,7-6.1,8.9c-2.6,1.8-6,2.7-10.1,2.7c-5.4,0-9.7-1.7-12.9-5c-3.2-3.3-4.8-7.7-4.8-13.1c0-5.3,1.6-9.6,4.9-13.1
						c3.3-3.4,7.5-5.2,12.7-5.2c5.5,0,9.8,2.1,12.8,6.2c2.7,3.7,4,8.5,4,14.3H640.1z M655.5,1171.2c-0.4-2.5-1.2-4.3-2.4-5.5
						c-1.2-1.2-2.9-1.8-5.1-1.8c-2.7,0-4.8,0.9-6.2,2.7c-1.1,1.4-1.7,3-1.7,4.7H655.5z"/>
					<path d="M670.7,1157.6h9.1v6.4c0.9-2.2,2.4-3.9,4.5-5.3c2.1-1.4,4.3-2,6.7-2c0.8,0,1.4,0.1,2,0.3v8.9c-0.3-0.1-0.8-0.2-1.5-0.2
						c-0.7-0.1-1.3-0.1-1.8-0.1c-3.3,0-5.7,1.1-7.3,3.3c-1.4,1.9-2.1,4.5-2.1,7.8v15.6h-9.5V1157.6z"/>
					<path d="M713.8,1196.5c-1.1,2.8-2.5,4.9-4.3,6c-1.8,1.2-4.3,1.8-7.6,1.8c-1.9,0-3.8-0.1-5.8-0.3v-7.8c0.6,0,1.5,0.1,2.7,0.1
						c1.2,0.1,2.2,0.1,2.9,0.1c1.2-0.1,2.1-0.6,2.7-1.4c0.6-0.8,1-1.8,1-2.9c0-0.7-0.1-1.4-0.4-2.1l-12.2-32.4h10.1l7.9,23.6
						l7.6-23.6h9.8L713.8,1196.5z"/>
				</g>
			</g>
			<g>
				<g>
					<g>
						<rect x="96.4" y="730.4" class="st2" width="811" height="343.6"/>
						<rect x="96.4" y="765.3" class="st3" width="811" height="273.8"/>
						<rect x="96.4" y="782.8" class="st4" width="811" height="238.8"/>
					</g>
				</g>
				<radialGradient id="SVGID_17_" cx="679.6398" cy="819.9476" r="29.1925" gradientUnits="userSpaceOnUse">
					<stop  offset="0" style="stop-color:#FFFF86"/>
					<stop  offset="0.4527" style="stop-color:#FFDD72"/>
					<stop  offset="0.9845" style="stop-color:#FFB95C"/>
				</radialGradient>
				<circle class="st23" cx="679.6" cy="819.9" r="29.2"/>
				<radialGradient id="SVGID_18_" cx="281.0081" cy="992.6022" r="24.9174" gradientUnits="userSpaceOnUse">
					<stop  offset="0" style="stop-color:#FFFF86"/>
					<stop  offset="0.4527" style="stop-color:#FFDD72"/>
					<stop  offset="0.9845" style="stop-color:#FFB95C"/>
				</radialGradient>
				<circle class="st24" cx="281" cy="992.6" r="24.9"/>
				<radialGradient id="SVGID_19_" cx="386.3975" cy="832.3431" r="37.3128" gradientUnits="userSpaceOnUse">
					<stop  offset="0" style="stop-color:#FFFF86"/>
					<stop  offset="0.4527" style="stop-color:#FFDD72"/>
					<stop  offset="0.9845" style="stop-color:#FFB95C"/>
				</radialGradient>
				<circle class="st25" cx="386.4" cy="832.3" r="37.3"/>
				<radialGradient id="SVGID_20_" cx="160.1602" cy="981.4449" r="32.375" gradientUnits="userSpaceOnUse">
					<stop  offset="0" style="stop-color:#ACFFE0"/>
					<stop  offset="0.5818" style="stop-color:#71CCE1"/>
					<stop  offset="0.9845" style="stop-color:#4DADE1"/>
				</radialGradient>
				<circle class="st26" cx="160.2" cy="981.4" r="32.4"/>
				<radialGradient id="SVGID_21_" cx="288.4657" cy="821.072" r="32.375" gradientUnits="userSpaceOnUse">
					<stop  offset="0" style="stop-color:#ACFFE0"/>
					<stop  offset="0.5818" style="stop-color:#71CCE1"/>
					<stop  offset="0.9845" style="stop-color:#4DADE1"/>
				</radialGradient>
				<circle class="st27" cx="288.5" cy="821.1" r="32.4"/>
				<radialGradient id="SVGID_22_" cx="192.5352" cy="863.6862" r="43.7386" gradientUnits="userSpaceOnUse">
					<stop  offset="0" style="stop-color:#ACFFE0"/>
					<stop  offset="0.5818" style="stop-color:#71CCE1"/>
					<stop  offset="0.9845" style="stop-color:#4DADE1"/>
				</radialGradient>
				<circle class="st28" cx="192.5" cy="863.7" r="43.7"/>
				<radialGradient id="SVGID_23_" cx="502.3452" cy="819.9476" r="26.4768" gradientUnits="userSpaceOnUse">
					<stop  offset="0" style="stop-color:#ACFFE0"/>
					<stop  offset="0.5818" style="stop-color:#71CCE1"/>
					<stop  offset="0.9845" style="stop-color:#4DADE1"/>
				</radialGradient>
				<circle class="st29" cx="502.3" cy="819.9" r="26.5"/>
				<radialGradient id="SVGID_24_" cx="347.5252" cy="993.4075" r="26.4768" gradientUnits="userSpaceOnUse">
					<stop  offset="0" style="stop-color:#ACFFE0"/>
					<stop  offset="0.5818" style="stop-color:#71CCE1"/>
					<stop  offset="0.9845" style="stop-color:#4DADE1"/>
				</radialGradient>
				<circle class="st30" cx="347.5" cy="993.4" r="26.5"/>
				<radialGradient id="SVGID_25_" cx="581.4101" cy="876.5381" r="38.0298" gradientUnits="userSpaceOnUse">
					<stop  offset="0" style="stop-color:#ACFFE0"/>
					<stop  offset="0.5818" style="stop-color:#71CCE1"/>
					<stop  offset="0.9845" style="stop-color:#4DADE1"/>
				</radialGradient>
				<circle class="st31" cx="581.4" cy="876.5" r="38"/>
				<radialGradient id="SVGID_26_" cx="679.6398" cy="984.6743" r="35.6044" gradientUnits="userSpaceOnUse">
					<stop  offset="0" style="stop-color:#ACFFE0"/>
					<stop  offset="0.5818" style="stop-color:#71CCE1"/>
					<stop  offset="0.9845" style="stop-color:#4DADE1"/>
				</radialGradient>
				<circle class="st32" cx="679.6" cy="984.7" r="35.6"/>
				<radialGradient id="SVGID_27_" cx="596.808" cy="969.382" r="35.6044" gradientUnits="userSpaceOnUse">
					<stop  offset="0" style="stop-color:#ACFFE0"/>
					<stop  offset="0.5818" style="stop-color:#71CCE1"/>
					<stop  offset="0.9845" style="stop-color:#4DADE1"/>
				</radialGradient>
				<circle class="st33" cx="596.8" cy="969.4" r="35.6"/>
				<radialGradient id="SVGID_28_" cx="862.9335" cy="972.0043" r="35.6044" gradientUnits="userSpaceOnUse">
					<stop  offset="0" style="stop-color:#ACFFE0"/>
					<stop  offset="0.5818" style="stop-color:#71CCE1"/>
					<stop  offset="0.9845" style="stop-color:#4DADE1"/>
				</radialGradient>
				<circle class="st34" cx="862.9" cy="972" r="35.6"/>
				<radialGradient id="SVGID_29_" cx="489.9422" cy="949.0698" r="44.4285" gradientUnits="userSpaceOnUse">
					<stop  offset="0" style="stop-color:#ACFFE0"/>
					<stop  offset="0.5818" style="stop-color:#71CCE1"/>
					<stop  offset="0.9845" style="stop-color:#4DADE1"/>
				</radialGradient>
				<circle class="st35" cx="489.9" cy="949.1" r="44.4"/>
				<radialGradient id="SVGID_30_" cx="809.5012" cy="849.4037" r="44.4285" gradientUnits="userSpaceOnUse">
					<stop  offset="0" style="stop-color:#ACFFE0"/>
					<stop  offset="0.5818" style="stop-color:#71CCE1"/>
					<stop  offset="0.9845" style="stop-color:#4DADE1"/>
				</radialGradient>
				<circle class="st36" cx="809.5" cy="849.4" r="44.4"/>
			</g>
			<g>
				<g>
					<path d="M251.8,573.9h-5.4v-28.6h-34.2v28.6h-5.5V515h5.5v25.4h34.2V515h5.4V573.9z"/>
					<path d="M266.2,573.9V515h22.6c5.7,0,10.4,1.3,14.2,4c3.8,2.7,6.5,6.2,8.2,10.7c1.7,4.5,2.5,9.3,2.5,14.4
						c0,9.4-2.2,16.8-6.6,22c-4.4,5.2-10.5,7.8-18.4,7.8H266.2z M271.8,519.9V569h13.9c3.4,0,6.3-0.3,8.7-0.8
						c2.4-0.6,4.7-1.8,6.9-3.9c2.2-2,3.9-4.7,5-8.1c1.1-3.4,1.7-7.6,1.7-12.4c0-15.9-7.4-23.8-22.3-23.8H271.8z"/>
					<path d="M361,573.9h-35.3V515h5.6v54.1H361V573.9z"/>
					<path d="M443.1,555.4c-3.9,13-12.1,19.5-24.5,19.5c-4.2,0-7.9-0.7-11.1-2c-3.2-1.3-6-3.3-8.3-5.9c-2.3-2.6-4.1-5.9-5.5-9.9
						c-1.4-4-2.1-8.2-2.1-12.6c0-9,2.5-16.3,7.4-22c4.9-5.7,11.5-8.6,19.7-8.6c5.5,0,10.3,1.4,14.3,4.2c4,2.8,7,7.1,9.2,13.1
						l-5.3,1.5c-3.3-9.4-9.2-14.1-17.7-14.1c-6.6,0-11.9,2.5-15.8,7.3c-3.9,4.9-5.8,11.1-5.8,18.7c0,8.5,2,14.9,5.9,19.2
						c3.9,4.3,8.9,6.5,14.9,6.5c9.9,0,16.4-5.4,19.6-16.3L443.1,555.4z"/>
					<path d="M486.3,573.9h-5.1v-26.5c0-4.6-0.9-7.9-2.7-9.8c-1.8-2-4.2-2.9-7.2-2.9c-1.6,0-3.2,0.3-4.6,0.8
						c-1.4,0.6-2.7,1.4-3.9,2.5c-1.2,1.1-2.2,2.4-2.9,3.8c-0.7,1.4-1.2,3-1.5,4.7c-0.3,1.7-0.4,4.7-0.4,9v18.5h-5V515h5v22.6
						c3.8-4.8,8.4-7.3,13.7-7.3c9.7,0,14.5,5.3,14.5,15.8V573.9z"/>
					<path d="M534.3,552.7c0,7-1.7,12.5-5,16.4c-3.3,3.9-8,5.8-14.1,5.8c-2.9,0-5.5-0.5-7.9-1.5c-2.3-1-4.3-2.5-6-4.6
						c-1.7-2-3-4.4-3.9-7c-0.9-2.7-1.3-5.6-1.3-8.9c0-3.4,0.4-6.4,1.1-9.1c0.7-2.7,1.9-5,3.4-6.9c1.5-2,3.4-3.5,5.7-4.7
						c2.3-1.2,5.2-1.8,8.9-1.8c5.8,0,10.4,1.9,13.9,5.7C532.5,539.7,534.3,545.3,534.3,552.7z M529.1,552.7c0-3.8-0.6-7.1-1.7-9.9
						c-1.1-2.8-2.7-4.8-4.7-6.3c-2-1.4-4.4-2.1-7.3-2.1c-4.4,0-7.9,1.6-10.3,4.9c-2.4,3.3-3.6,7.6-3.6,13.1c0,5.4,1.2,9.9,3.7,13.3
						c2.5,3.4,5.9,5.1,10.3,5.1c2,0,3.9-0.4,5.5-1.1c1.6-0.7,3-1.9,4.3-3.5c1.2-1.6,2.2-3.5,2.9-5.8
						C528.7,558.2,529.1,555.6,529.1,552.7z"/>
					<path d="M549.9,573.9h-5V515h5V573.9z"/>
					<path d="M598.5,553.2h-32.9c0.1,5.5,1.4,9.8,3.9,12.9c2.5,3.1,6,4.6,10.5,4.6c6.2,0,10.6-3.5,13-10.4l4.9,0.8
						c-1.7,4.9-4,8.4-7,10.5c-3,2.1-6.8,3.2-11.2,3.2c-6,0-10.8-2-14.2-6c-3.4-4-5.1-9.4-5.1-16.3c0-6.9,1.7-12.3,5.2-16.3
						c3.4-4,8.2-6,14.2-6C592.2,530.3,598.4,537.9,598.5,553.2z M593.1,549.1c-0.8-9.9-5.2-14.8-13.4-14.8c-3.7,0-6.8,1.3-9.3,3.8
						c-2.5,2.6-4,6.2-4.6,11H593.1z"/>
					<path d="M605.5,562.4l5.1-0.8c0.8,3.3,2.2,5.6,4.4,7.1c2.2,1.5,4.9,2.2,8.1,2.2c2.2,0,4.2-0.4,5.9-1.1c1.7-0.7,3-1.7,3.9-2.9
						c0.9-1.2,1.4-2.6,1.4-4.3c0-1.5-0.5-2.8-1.5-3.9c-1-1.1-2.4-1.9-4.1-2.5c-1.7-0.6-4.1-1.2-7.3-1.9c-9.7-2-14.6-6-14.6-12
						c0-3.7,1.4-6.6,4.3-8.8c2.9-2.1,6.5-3.2,10.8-3.2c8.6,0,13.9,3.8,15.8,11.3l-4.9,0.7c-0.9-3-2.2-5.1-3.7-6.2
						c-1.6-1.1-3.9-1.7-7.1-1.7c-2,0-3.8,0.3-5.4,0.9c-1.6,0.6-2.8,1.4-3.6,2.4c-0.8,1-1.2,2.2-1.2,3.6c0,1.4,0.4,2.6,1.1,3.5
						c0.7,1,2.1,1.8,4.2,2.6c2.1,0.8,4.7,1.5,7.9,2.3c6.1,1.4,10,3.1,11.8,5.1c1.8,2,2.8,4.3,2.8,7c0,2.7-0.7,5-2,7
						c-1.3,1.9-3.2,3.4-5.8,4.5c-2.5,1.1-5.5,1.6-8.9,1.6c-2.2,0-4.2-0.2-6-0.6c-1.8-0.4-3.4-1.1-4.9-1.9c-1.5-0.9-2.8-2.1-3.9-3.6
						C607.1,567.3,606.2,565.2,605.5,562.4z"/>
					<path d="M665.8,573.9c-2.2,0.4-4,0.7-5.3,0.7c-1.9,0-3.6-0.3-5-1c-1.4-0.6-2.4-1.6-3.1-2.9c-0.7-1.3-1-3.7-1-7.1V535h-6v-3.8h6
						v-10.9l5.1-3.2v14.1h8v3.8h-8v28c0,2,0.1,3.5,0.4,4.5c0.3,1,0.8,1.7,1.5,2.2c0.7,0.5,1.7,0.7,2.9,0.7c0.9,0,2.2-0.2,4-0.5
						L665.8,573.9z"/>
					<path d="M708.4,553.2h-32.9c0.1,5.5,1.4,9.8,3.9,12.9c2.5,3.1,6,4.6,10.5,4.6c6.2,0,10.6-3.5,13-10.4l4.9,0.8
						c-1.7,4.9-4,8.4-7,10.5c-3,2.1-6.8,3.2-11.2,3.2c-6,0-10.8-2-14.2-6c-3.4-4-5.1-9.4-5.1-16.3c0-6.9,1.7-12.3,5.2-16.3
						c3.4-4,8.2-6,14.2-6C702.1,530.3,708.3,537.9,708.4,553.2z M703,549.1c-0.8-9.9-5.2-14.8-13.4-14.8c-3.7,0-6.8,1.3-9.3,3.8
						c-2.5,2.6-4,6.2-4.6,11H703z"/>
					<path d="M740.8,532.8l-1.9,4.3c-2.6-1.1-4.5-1.6-5.7-1.6c-1,0-1.9,0.2-2.7,0.5c-0.8,0.3-1.6,0.8-2.3,1.5
						c-0.7,0.7-1.4,1.5-1.9,2.4c-0.5,0.9-0.9,1.9-1.2,3.1c-0.3,1.1-0.5,2.8-0.7,4.9c-0.2,2.2-0.3,4.1-0.3,5.9v20.1h-5v-42.7h4.4v8.7
						c2.1-6.4,5.4-9.6,10-9.6C735.6,530.3,738.1,531.1,740.8,532.8z"/>
					<path d="M781.5,552.7c0,7-1.7,12.5-5,16.4c-3.3,3.9-8,5.8-14.1,5.8c-2.9,0-5.5-0.5-7.9-1.5c-2.3-1-4.3-2.5-6-4.6
						c-1.7-2-3-4.4-3.9-7c-0.9-2.7-1.3-5.6-1.3-8.9c0-3.4,0.4-6.4,1.1-9.1c0.7-2.7,1.9-5,3.4-6.9c1.5-2,3.4-3.5,5.7-4.7
						c2.3-1.2,5.2-1.8,8.9-1.8c5.8,0,10.4,1.9,13.9,5.7C779.8,539.7,781.5,545.3,781.5,552.7z M776.3,552.7c0-3.8-0.6-7.1-1.7-9.9
						c-1.1-2.8-2.7-4.8-4.7-6.3c-2-1.4-4.4-2.1-7.3-2.1c-4.4,0-7.9,1.6-10.3,4.9c-2.4,3.3-3.6,7.6-3.6,13.1c0,5.4,1.2,9.9,3.7,13.3
						c2.5,3.4,5.9,5.1,10.3,5.1c2,0,3.9-0.4,5.5-1.1c1.6-0.7,3-1.9,4.3-3.5c1.2-1.6,2.2-3.5,2.9-5.8
						C776,558.2,776.3,555.6,776.3,552.7z"/>
					<path d="M797.1,573.9h-5V515h5V573.9z"/>
				</g>
				<radialGradient id="SVGID_31_" cx="501.8701" cy="405.7685" r="94.9774" gradientUnits="userSpaceOnUse">
					<stop  offset="0" style="stop-color:#ACFFE0"/>
					<stop  offset="0.5818" style="stop-color:#71CCE1"/>
					<stop  offset="0.9845" style="stop-color:#4DADE1"/>
				</radialGradient>
				<circle class="st37" cx="501.9" cy="405.8" r="95"/>
				<g>
					<path d="M406.7,597.2c-5,6.7-8.6,15.6-8.6,28c0,12.2,3.8,21,8.6,27.8H402c-4.3-5.7-9-14.5-9-27.8c0.1-13.5,4.7-22.3,9-28H406.7
						z"/>
					<path d="M463,642.7c-2.7,1-8,2.5-14.2,2.5c-7,0-12.8-1.8-17.3-6.1c-4-3.8-6.4-10-6.4-17.2c0.1-13.8,9.5-23.9,25-23.9
						c5.3,0,9.5,1.2,11.5,2.1l-1.4,4.9c-2.5-1.1-5.6-2-10.2-2c-11.2,0-18.6,7-18.6,18.6c0,11.7,7.1,18.6,17.8,18.6
						c3.9,0,6.6-0.5,8-1.2v-13.8h-9.4v-4.8H463V642.7z"/>
					<path d="M502.3,627.9c0,12.3-8.5,17.6-16.5,17.6c-9,0-15.9-6.6-15.9-17.1c0-11.1,7.3-17.6,16.5-17.6
						C495.8,610.8,502.3,617.7,502.3,627.9z M475.9,628.2c0,7.3,4.2,12.8,10.1,12.8c5.8,0,10.1-5.4,10.1-12.9
						c0-5.6-2.8-12.8-9.9-12.8C479,615.3,475.9,621.9,475.9,628.2z"/>
					<path d="M539.9,627.9c0,12.3-8.5,17.6-16.5,17.6c-9,0-15.9-6.6-15.9-17.1c0-11.1,7.3-17.6,16.5-17.6
						C533.5,610.8,539.9,617.7,539.9,627.9z M513.6,628.2c0,7.3,4.2,12.8,10.1,12.8c5.8,0,10.1-5.4,10.1-12.9
						c0-5.6-2.8-12.8-9.9-12.8C516.7,615.3,513.6,621.9,513.6,628.2z"/>
					<path d="M576.2,596.1v40.1c0,2.9,0.1,6.3,0.3,8.6h-5.4l-0.3-5.8h-0.1c-1.9,3.7-5.9,6.5-11.3,6.5c-8,0-14.2-6.8-14.2-16.9
						c-0.1-11,6.8-17.8,14.9-17.8c5.1,0,8.5,2.4,10,5.1h0.1v-19.8H576.2z M570.2,625.1c0-0.8-0.1-1.8-0.3-2.5c-0.9-3.8-4.2-7-8.7-7
						c-6.2,0-9.9,5.5-9.9,12.8c0,6.7,3.3,12.3,9.8,12.3c4,0,7.7-2.7,8.8-7.2c0.2-0.8,0.3-1.6,0.3-2.6V625.1z"/>
					<path d="M597.1,653.1c4.9-6.8,8.6-15.7,8.6-28c0-12.3-3.7-21.1-8.6-27.8h4.7c4.4,5.6,9,14.4,9,27.9c0,13.4-4.6,22.1-9,28H597.1
						z"/>
				</g>
			</g>
		</g>
		<g>
			<path class="st0" d="M412.7,106.9l5.8,27.5h-4l-0.5-0.8c-2.1-4-3.6-6.7-4.6-8.3c-2-3.3-3.8-5.9-5.6-7.7c-2.6-2.7-5.5-4.7-8.9-6.1
				c-3.3-1.3-7-2-11.1-2c-4.5,0-8.6,1-12.1,2.9c-3.6,1.9-6.5,4.7-8.9,8.4c-2.2,3.4-3.7,7.2-4.6,11.3c-0.9,4.1-1.3,8.7-1.3,13.5
				c0,4.6,0.5,8.9,1.5,13c1,4,2.7,7.7,5.2,10.9c2.5,3.2,5.8,5.8,9.9,7.8c4.1,2,8.4,3,12.8,3c6,0,11.6-1.6,17-4.8
				c5.3-3.2,9.5-7.3,12.5-12.4l5.1,2.8c-3.9,6.5-9,11.5-15.2,15c-6.2,3.5-13.3,5.2-21.2,5.2c-12.3,0-22.4-3.8-30.1-11.5
				c-7.8-7.7-11.6-17.5-11.6-29.3c0-11.3,3.7-21,11.1-29c7.7-8.3,17.3-12.4,28.8-12.4c4.6,0,8.9,0.7,12.9,2c4,1.4,7.5,3.5,10.7,6.4
				l2.9-5.4H412.7z"/>
			<path class="st0" d="M494,144.3v24.9c0,3.7,0.5,6.4,1.5,8.1c1.3,2.2,3.6,3.3,7,3.3h1.5v3.5h-32.8v-3.5h1.6c3.8,0,6.4-0.9,7.8-2.8
				c1.1-1.6,1.7-4.5,1.7-8.6v-24.4v-1.3c0-1.9-0.1-3.5-0.3-4.8c-0.2-1.3-0.8-2.4-1.7-3.5c-0.9-1.1-2.1-1.9-3.6-2.5
				c-1.5-0.6-3-0.8-4.6-0.8c-3.4,0-7.2,0.9-11.4,2.8c-4.2,1.9-7.5,4.1-10.2,6.5v27.9c0,3.8,0.4,6.5,1.3,8.1c1.2,2.2,3.6,3.3,7.1,3.3
				h1.6v3.5h-32.9v-3.5h1.3c4,0,6.6-0.9,8-2.8c1.1-1.6,1.7-4.4,1.7-8.6v-47.5v-3.4c0-4.8-0.8-7.9-2.3-9.3c-1.5-1.4-3.8-2.1-6.9-2.1
				l-1.6-0.2v-3.4c4.7-0.6,8.3-1.2,10.7-1.8c2.4-0.6,4.8-1.2,7.1-2.1h4.8v36.3c3.6-3.1,7.4-5.6,11.3-7.3c4.4-1.9,8.8-2.8,13.4-2.8
				c2.5,0,5,0.4,7.4,1.1c2.4,0.7,4.6,1.7,6.4,3.1c2.2,1.6,3.7,3.7,4.3,6.5C493.8,137.8,494,140.5,494,144.3z"/>
			<path class="st0" d="M540.2,125.6c4.1,0,8,0.6,11.7,1.8c3.7,1.2,7,3.2,9.8,5.8c2.9,2.7,5.1,6,6.6,10c1.5,4,2.3,8.1,2.3,12.3
				c0,9-2.7,16.1-8.1,21.4c-5.4,5.3-12.7,8-22,8c-9,0-16.2-2.6-21.7-7.9c-5.5-5.3-8.2-12.3-8.2-21c0-9,2.6-16.3,7.7-21.8
				C523.7,128.5,531,125.6,540.2,125.6z M541.1,130.4c-6.4,0-11.1,2.9-14.1,8.6c-2.3,4.4-3.4,9.9-3.4,16.8c0,7,1.1,12.5,3.4,16.6
				c3,5.4,7.8,8,14.4,8c6,0,10.5-2.6,13.3-7.9c2.2-4.1,3.3-9.4,3.3-15.9c0-3.3-0.2-6.4-0.7-9.4c-0.4-2.9-1.3-5.7-2.6-8.1
				c-1.3-2.5-3.2-4.6-5.6-6.2C546.6,131.2,543.9,130.4,541.1,130.4z"/>
			<path class="st0" d="M599.9,99.5v69.7c0,3.8,0.4,6.5,1.3,8c1.3,2.3,3.6,3.4,7.1,3.4h1.5v3.5h-32.2v-3.5h1.1c3.8,0,6.3-1,7.6-3
				c1.1-1.6,1.6-4.4,1.6-8.4v-47.5V118c0-3.8-0.4-6.4-1.3-7.9c-1.3-2.2-3.9-3.2-7.9-3.2l-1.6-0.2v-3.4c3.8-0.5,6.8-0.9,9.1-1.4
				c3-0.6,6-1.4,8.8-2.4H599.9z"/>
			<path class="st0" d="M671.6,149.9H629l-0.2,6.1c0,2.6,0.4,5.4,1.3,8.3c0.9,3,2.1,5.7,3.6,8.1c1.8,2.3,4.1,4.1,6.9,5.4
				c2.8,1.3,5.8,1.9,8.9,1.9c4.1,0,7.6-0.9,10.6-2.8c3-1.9,5.5-4.6,7.4-8.2l4,2.1c-2.1,4.6-5.5,8.1-10.1,10.6
				c-4.4,2.4-9.3,3.5-14.8,3.5c-4.4,0-8.3-0.6-11.9-1.8c-3.6-1.2-6.8-3.2-9.7-5.9c-2.9-2.7-5.2-6.1-6.8-10c-1.6-4-2.4-8-2.4-12.1
				c0-8.7,2.7-15.8,8-21.3c5.4-5.5,12.5-8.3,21.4-8.3c7.4,0,13.6,2.2,18.6,6.7C669.1,136.8,671.6,142.7,671.6,149.9z M629.2,145.1
				h29.5c0-4.3-1.3-7.8-3.9-10.5c-2.6-2.7-6-4-10.1-4c-4.2,0-7.8,1.5-10.7,4.4C631.2,137.7,629.6,141.1,629.2,145.1z"/>
			<path class="st0" d="M726.6,127l3.8,18h-3.8c-1.7-4-4.6-7.4-8.8-10.2c-4.2-2.8-8.4-4.3-12.8-4.3c-3.3,0-6,0.6-8.3,1.9
				c-2.8,1.6-4.2,3.8-4.2,6.7c0,2.5,1.3,4.4,4,5.7c1.1,0.6,3.5,1.3,7.3,2.3l14,3.1c5.4,1.3,9.4,2.8,11.8,4.7
				c3.4,2.6,5.1,6.3,5.1,11.1c0,6.1-2.8,10.9-8.3,14.4c-4.8,3-10.5,4.6-17.2,4.6c-3.8,0-7.3-0.5-10.5-1.4c-3.2-0.9-6.2-2.4-9.1-4.5
				l-1.5,5h-3.8l-4.2-20.9h4.2c1.6,5.2,4.7,9.4,9.2,12.5c4.5,3.1,9.7,4.6,15.7,4.6c3.6,0,6.9-0.8,9.9-2.5c3.5-2,5.3-4.7,5.3-8.1
				c0-2.9-1.6-5.1-4.8-6.5c-1-0.5-2.8-1-5.4-1.7l-12.5-3.2c-6.4-1.4-10.8-2.9-13.3-4.4c-4.3-2.6-6.4-6.3-6.4-11.3
				c0-5.1,2.5-9.3,7.5-12.5c4.4-2.8,9.4-4.3,14.8-4.3c3.3,0,6.5,0.4,9.4,1.3c3,0.9,5.6,2.2,8,4.1l1.4-4H726.6z"/>
			<path class="st0" d="M780.7,127v3.7h-17.4v33.2c0,4.9,0.4,8.4,1.1,10.5c1.4,3.8,4.1,5.7,8.2,5.7c1.9,0,3.8-0.6,5.7-1.7
				c1.4-0.8,3-2.1,4.8-3.7l3,2.6c-1.8,2.5-4.3,4.4-7.4,5.7c-3.1,1.3-6.4,2-9.8,2c-2.3,0-4.5-0.2-6.5-0.7c-2.1-0.4-3.9-1.2-5.5-2.2
				c-2.2-1.4-3.8-3.2-4.6-5.5c-0.6-1.7-0.9-4.2-0.9-7.3v-38.6h-10.4V127c6.5,0,11.1-2.2,13.8-6.5c2.1-3.4,3.1-8.4,3.1-15.2h5.3V127
				H780.7z"/>
			<path class="st0" d="M845.4,149.9h-42.6l-0.2,6.1c0,2.6,0.4,5.4,1.3,8.3c0.9,3,2.1,5.7,3.6,8.1c1.8,2.3,4.1,4.1,6.9,5.4
				c2.8,1.3,5.8,1.9,8.9,1.9c4.1,0,7.6-0.9,10.6-2.8c3-1.9,5.5-4.6,7.4-8.2l4,2.1c-2.1,4.6-5.5,8.1-10.1,10.6
				c-4.4,2.4-9.3,3.5-14.8,3.5c-4.4,0-8.3-0.6-11.9-1.8c-3.6-1.2-6.8-3.2-9.7-5.9c-2.9-2.7-5.2-6.1-6.8-10c-1.6-4-2.4-8-2.4-12.1
				c0-8.7,2.7-15.8,8-21.3c5.4-5.5,12.5-8.3,21.4-8.3c7.4,0,13.6,2.2,18.6,6.7C842.9,136.8,845.4,142.7,845.4,149.9z M803,145.1
				h29.5c0-4.3-1.3-7.8-3.9-10.5c-2.6-2.7-6-4-10.1-4c-4.2,0-7.8,1.5-10.7,4.4C805,137.7,803.4,141.1,803,145.1z"/>
			<path class="st0" d="M874.1,140.9v28.3c0,3.9,0.5,6.6,1.5,8.3c1.4,2.1,3.9,3.1,7.5,3.1h2v3.5h-33.7v-3.5h1.3c3.8,0,6.4-1,7.8-3
				c1.1-1.6,1.6-4.4,1.6-8.4v-24.6c0-3.9-0.5-6.7-1.6-8.3c-1.3-2.2-3.8-3.2-7.3-3.2h-2v-3.5l18.8-2.4h4v8.9c3-3.1,6-5.6,9.1-7.2
				c3.8-2,7.6-3.1,11.5-3.1c2.2,0,4.2,0.5,6,1.4c2.1,1.2,3.1,2.8,3.1,4.8c0,2-0.6,3.6-1.9,4.7c-1.3,1.2-2.9,1.7-5,1.7
				c-2.1,0-4.2-0.6-6.3-1.9c-2.1-1.3-3.6-1.9-4.6-1.9c-1.8,0-3.9,0.7-6.4,2.2C877.3,137.9,875.5,139.4,874.1,140.9z"/>
			<path class="st0" d="M937,125.6c4.1,0,8,0.6,11.7,1.8c3.7,1.2,7,3.2,9.8,5.8c2.9,2.7,5.1,6,6.6,10c1.6,4,2.3,8.1,2.3,12.3
				c0,9-2.7,16.1-8.1,21.4c-5.4,5.3-12.7,8-22,8c-9,0-16.2-2.6-21.7-7.9c-5.5-5.3-8.2-12.3-8.2-21c0-9,2.6-16.3,7.7-21.8
				C920.5,128.5,927.8,125.6,937,125.6z M937.9,130.4c-6.4,0-11.1,2.9-14.1,8.6c-2.3,4.4-3.4,9.9-3.4,16.8c0,7,1.1,12.5,3.4,16.6
				c3,5.4,7.8,8,14.4,8c6,0,10.5-2.6,13.3-7.9c2.2-4.1,3.3-9.4,3.3-15.9c0-3.3-0.2-6.4-0.7-9.4c-0.4-2.9-1.3-5.7-2.6-8.1
				c-1.3-2.5-3.2-4.6-5.6-6.2C943.4,131.2,940.7,130.4,937.9,130.4z"/>
			<path class="st0" d="M996.7,99.5v69.7c0,3.8,0.4,6.5,1.3,8c1.3,2.3,3.6,3.4,7.1,3.4h1.5v3.5h-32.2v-3.5h1.1c3.8,0,6.3-1,7.6-3
				c1.1-1.6,1.6-4.4,1.6-8.4v-47.5V118c0-3.8-0.4-6.4-1.3-7.9c-1.3-2.2-3.9-3.2-7.9-3.2l-1.6-0.2v-3.4c3.8-0.5,6.8-0.9,9.1-1.4
				c3-0.6,6-1.4,8.8-2.4H996.7z"/>
			<path class="st0" d="M1098.8,150.6l-3.5,6.9h-32.1l3.5-6.9H1098.8z"/>
			<path class="st0" d="M1200.1,105.8l24.6,60.4c2.4,5.7,3.9,9,4.6,9.9c2.2,3,5.4,4.6,9.5,4.6v3.4h-33.4v-3.4
				c2.7-0.3,4.8-0.8,6.1-1.4c2.2-1,3.3-2.5,3.3-4.4c0-0.9-0.4-2.3-1.1-4c-0.3-0.7-0.7-1.5-1-2.3l-5.2-13.5h-30.7l-3.3,8.6
				c-0.8,2-1.3,3.6-1.6,4.6c-0.7,2.2-1.1,3.9-1.1,5c0,2.6,1,4.5,2.9,5.7c1.9,1.2,4.5,1.7,7.7,1.7v3.4h-31.9v-3.4l1.3-0.2
				c2.8-0.7,4.9-1.6,6.2-2.6c1.4-1,2.9-2.7,4.4-5.2c1-1.7,2.3-4.6,4-8.7c1.2-2.9,2.4-5.9,3.7-8.9l19.9-49.4H1200.1z M1178.7,149.8
				h26.8l-13.7-34L1178.7,149.8z"/>
			<path class="st0" d="M1260,140.9v28.3c0,3.9,0.5,6.6,1.6,8.3c1.4,2.1,3.9,3.1,7.5,3.1h2v3.5h-33.7v-3.5h1.3c3.8,0,6.4-1,7.8-3
				c1.1-1.6,1.6-4.4,1.6-8.4v-24.6c0-3.9-0.5-6.7-1.5-8.3c-1.3-2.2-3.8-3.2-7.3-3.2h-2v-3.5l18.8-2.4h4v8.9c3-3.1,6-5.6,9.1-7.2
				c3.8-2,7.6-3.1,11.5-3.1c2.2,0,4.2,0.5,6,1.4c2.1,1.2,3.1,2.8,3.1,4.8c0,2-0.6,3.6-1.9,4.7c-1.3,1.2-2.9,1.7-5,1.7
				c-2.1,0-4.2-0.6-6.3-1.9c-2.1-1.3-3.6-1.9-4.6-1.9c-1.8,0-3.9,0.7-6.4,2.2C1263.2,137.9,1261.4,139.4,1260,140.9z"/>
			<path class="st0" d="M1330.7,127v3.7h-17.4v33.2c0,4.9,0.4,8.4,1.1,10.5c1.4,3.8,4.1,5.7,8.2,5.7c1.9,0,3.8-0.6,5.7-1.7
				c1.4-0.8,3-2.1,4.8-3.7l3,2.6c-1.8,2.5-4.3,4.4-7.4,5.7c-3.1,1.3-6.4,2-9.8,2c-2.3,0-4.5-0.2-6.5-0.7c-2.1-0.4-3.9-1.2-5.5-2.2
				c-2.2-1.4-3.8-3.2-4.6-5.5c-0.6-1.7-0.9-4.2-0.9-7.3v-38.6h-10.4V127c6.5,0,11.1-2.2,13.8-6.5c2.1-3.4,3.1-8.4,3.1-15.2h5.3V127
				H1330.7z"/>
			<path class="st0" d="M1395.5,149.9h-42.6l-0.2,6.1c0,2.6,0.4,5.4,1.3,8.3c0.9,3,2.1,5.7,3.6,8.1c1.8,2.3,4.1,4.1,6.9,5.4
				c2.8,1.3,5.8,1.9,8.9,1.9c4.1,0,7.6-0.9,10.6-2.8c3-1.9,5.5-4.6,7.4-8.2l4,2.1c-2.1,4.6-5.5,8.1-10.1,10.6
				c-4.4,2.4-9.3,3.5-14.8,3.5c-4.4,0-8.3-0.6-11.9-1.8c-3.6-1.2-6.8-3.2-9.7-5.9c-2.9-2.7-5.2-6.1-6.8-10c-1.6-4-2.4-8-2.4-12.1
				c0-8.7,2.7-15.8,8-21.3c5.4-5.5,12.5-8.3,21.4-8.3c7.4,0,13.6,2.2,18.6,6.7C1393,136.8,1395.5,142.7,1395.5,149.9z M1353.1,145.1
				h29.4c0-4.3-1.3-7.8-3.9-10.5c-2.6-2.7-6-4-10.1-4c-4.2,0-7.7,1.5-10.7,4.4C1355.1,137.7,1353.5,141.1,1353.1,145.1z"/>
			<path class="st0" d="M1424.2,140.9v28.3c0,3.9,0.5,6.6,1.6,8.3c1.4,2.1,3.9,3.1,7.5,3.1h2v3.5h-33.7v-3.5h1.3c3.8,0,6.4-1,7.8-3
				c1.1-1.6,1.6-4.4,1.6-8.4v-24.6c0-3.9-0.5-6.7-1.5-8.3c-1.3-2.2-3.8-3.2-7.3-3.2h-2v-3.5l18.8-2.4h4v8.9c3-3.1,6-5.6,9.1-7.2
				c3.8-2,7.6-3.1,11.5-3.1c2.2,0,4.2,0.5,6,1.4c2.1,1.2,3.1,2.8,3.1,4.8c0,2-0.6,3.6-1.9,4.7c-1.3,1.2-2.9,1.7-5,1.7
				c-2.1,0-4.2-0.6-6.3-1.9c-2.1-1.3-3.6-1.9-4.6-1.9c-1.8,0-3.9,0.7-6.4,2.2C1427.4,137.9,1425.6,139.4,1424.2,140.9z"/>
			<path class="st0" d="M1478.2,127v42.1c0,3.8,0.5,6.5,1.5,8.1c1.3,2.2,3.7,3.3,7.3,3.3h1.3v3.5h-32.4v-3.5h1.1c3.8,0,6.3-1,7.6-3
				c1.1-1.6,1.6-4.4,1.6-8.4v-24.6c0-3.9-0.5-6.7-1.5-8.3c-1.3-2.2-3.8-3.2-7.3-3.2h-2v-3.5l18.8-2.4H1478.2z M1479.8,114.1
				c0,1.9-0.7,3.6-2.2,4.9c-1.5,1.3-3.3,2-5.3,2c-2.1,0-3.8-0.7-5.2-2.2c-1.4-1.4-2.1-3.2-2.1-5.2c0-1.8,0.7-3.4,2.2-4.8
				c1.5-1.4,3.2-2.1,5.2-2.1c2.1,0,3.9,0.7,5.3,2.2C1479.1,110.3,1479.8,112.1,1479.8,114.1z"/>
			<path class="st0" d="M1550,149.9h-42.6l-0.2,6.1c0,2.6,0.4,5.4,1.3,8.3c0.9,3,2.1,5.7,3.6,8.1c1.8,2.3,4.1,4.1,6.9,5.4
				c2.8,1.3,5.8,1.9,8.9,1.9c4.1,0,7.6-0.9,10.6-2.8c3-1.9,5.5-4.6,7.4-8.2l4,2.1c-2.1,4.6-5.5,8.1-10.1,10.6
				c-4.4,2.4-9.3,3.5-14.8,3.5c-4.4,0-8.3-0.6-11.9-1.8c-3.6-1.2-6.8-3.2-9.7-5.9c-2.9-2.7-5.2-6.1-6.8-10c-1.6-4-2.4-8-2.4-12.1
				c0-8.7,2.7-15.8,8-21.3c5.4-5.5,12.5-8.3,21.4-8.3c7.4,0,13.6,2.2,18.6,6.7C1547.4,136.8,1550,142.7,1550,149.9z M1507.5,145.1
				h29.4c0-4.3-1.3-7.8-3.9-10.5c-2.6-2.7-6-4-10.1-4c-4.2,0-7.7,1.5-10.7,4.4C1509.5,137.7,1508,141.1,1507.5,145.1z"/>
			<path class="st0" d="M1604.9,127l3.8,18h-3.8c-1.7-4-4.6-7.4-8.8-10.2c-4.2-2.8-8.4-4.3-12.8-4.3c-3.3,0-6,0.6-8.3,1.9
				c-2.8,1.6-4.2,3.8-4.2,6.7c0,2.5,1.3,4.4,4,5.7c1.1,0.6,3.5,1.3,7.3,2.3l14,3.1c5.4,1.3,9.4,2.8,11.8,4.7
				c3.4,2.6,5.1,6.3,5.1,11.1c0,6.1-2.8,10.9-8.3,14.4c-4.8,3-10.5,4.6-17.2,4.6c-3.8,0-7.3-0.5-10.5-1.4c-3.2-0.9-6.2-2.4-9.1-4.5
				l-1.5,5h-3.8l-4.2-20.9h4.2c1.6,5.2,4.7,9.4,9.2,12.5c4.5,3.1,9.7,4.6,15.7,4.6c3.6,0,6.9-0.8,9.9-2.5c3.5-2,5.3-4.7,5.3-8.1
				c0-2.9-1.6-5.1-4.8-6.5c-1-0.5-2.8-1-5.4-1.7l-12.5-3.2c-6.4-1.4-10.8-2.9-13.3-4.4c-4.3-2.6-6.4-6.3-6.4-11.3
				c0-5.1,2.5-9.3,7.5-12.5c4.4-2.8,9.4-4.3,14.8-4.3c3.3,0,6.5,0.4,9.4,1.3c3,0.9,5.6,2.2,8,4.1l1.4-4H1604.9z"/>
		</g>
	</g>
</g>
</svg>
