<svg id="Capa_1" enable-background="new 0 0 512 512" height="512" viewBox="0 0 512 512" width="512" xmlns="http://www.w3.org/2000/svg"><path d="m359.114 276.903-79.219-79.219c-5.859-5.859-15.352-5.859-21.211 0s-5.859 15.352 0 21.211l79.219 79.219c2.93 2.93 6.768 4.395 10.605 4.395s7.676-1.465 10.605-4.395c5.861-5.859 5.861-15.351.001-21.211z" fill="#ffe6b3"/><path d="m359.114 276.903-79.219-79.219c-5.859-5.859-15.352-5.859-21.211 0l100.43 100.43c5.86-5.859 5.86-15.351 0-21.211z" fill="#ffca80"/><path d="m266 323.5-26.1-45c-2.699-4.501-7.8-6.901-12.9-6.901s-10.201 2.401-12.9 6.901l-26.1 45c-3.9 6.899-6 14.7-6 22.5 0 24.899 20.099 45 45 45s45-20.101 45-45c0-7.8-2.1-15.601-6-22.5z" fill="#ff8e8e"/><path d="m354.5 114.699c-12.9 64.501-64.2 113.101-127.5 123.9-8.699 1.5-17.401 2.401-26.4 2.401h-185.6c-8.401 0-15-6.601-15-15v-150c0-8.401 6.599-15 15-15h137l30 15h90l30-15h8.401c13.499 0 26.1 6 34.799 16.5s12.001 23.999 9.3 37.199z" fill="#ffcebf"/><path d="m266 323.5c3.9 6.899 6 14.7 6 22.5 0 24.899-20.099 45-45 45v-119.401c5.099 0 10.201 2.401 12.9 6.901z" fill="#ff637b"/><path d="m354.5 114.699c-12.9 64.501-64.2 113.101-127.5 123.9v-162.599h45l30-15h8.401c13.499 0 26.1 6 34.799 16.5s12.001 23.999 9.3 37.199z" fill="#ffbfab"/><path d="m302 61v15c0 41.4-33.6 75-75 75h-60c-8.401 0-15-6.601-15-15v-75z" fill="#ff8e8e"/><path d="m302 61v15c0 41.4-33.6 75-75 75v-90z" fill="#ff637b"/><path d="m507.605 382.973-106.069-106.07c-17.549-17.551-46.084-17.549-63.633 0s-17.549 46.084 0 63.633l106.069 106.069c5.859 5.859 15.352 5.859 21.211 0l21.211-21.211 21.211-21.211c5.86-5.859 5.86-15.351 0-21.21z" fill="#76e2f8"/><path d="m507.605 382.973-106.069-106.07c-17.549-17.551-46.084-17.549-63.633 0l148.491 148.491 21.211-21.211c5.86-5.859 5.86-15.351 0-21.21z" fill="#4bb9ec"/></svg>