<svg id="Layer_1" data-name="Layer 1" xmlns="http://www.w3.org/2000/svg" xmlns:xlink="http://www.w3.org/1999/xlink" viewBox="0 0 3600 1884"><defs><style>.cls-1{fill:#81beda;}.cls-2{clip-path:url(#clip-path);}.cls-21,.cls-22,.cls-25,.cls-3{fill:none;}.cls-3{stroke:#f0f0f0;stroke-miterlimit:10;stroke-width:3px;}.cls-4{fill:#56b1da;}.cls-5{fill:#49e1e6;}.cls-6{fill:#3ac5c9;}.cls-7{fill:#d0f1f2;}.cls-8{fill:#ffa9a6;}.cls-9{fill:#fff;}.cls-10{fill:#3d7e9c;}.cls-11{fill:#2b596e;}.cls-12{fill:#e6e6e6;}.cls-13{fill:#458fb0;}.cls-14{fill:#ff6d69;}.cls-15{fill:#fe8482;}.cls-16{fill:#fe7270;}.cls-17{fill:#292b3b;}.cls-18{fill:#a8e1e3;}.cls-19{fill:#ff8b87;}.cls-20{fill:#8acccf;}.cls-21,.cls-22,.cls-25{stroke:#292b3b;stroke-linecap:round;stroke-linejoin:round;}.cls-21{stroke-width:7.92px;}.cls-22{stroke-width:6.49px;}.cls-23{fill:#1a1c2e;}.cls-24{fill:#3b3e54;}.cls-25{stroke-width:18px;}</style><clipPath id="clip-path"><rect class="cls-1" width="3600" height="1884"/></clipPath></defs><title>Image 48.A [Converted]</title><rect class="cls-1" width="3600" height="1884"/><g class="cls-2"><line class="cls-3" x1="1973.85" y1="-1929.64" x2="-1000.33" y2="1044.55"/><line class="cls-3" x1="1996.96" y1="-1906.53" x2="-977.23" y2="1067.66"/><line class="cls-3" x1="2020.06" y1="-1883.43" x2="-954.13" y2="1090.76"/><line class="cls-3" x1="2043.16" y1="-1860.33" x2="-931.02" y2="1113.86"/><line class="cls-3" x1="2066.27" y1="-1837.22" x2="-907.92" y2="1136.96"/><line class="cls-3" x1="2089.37" y1="-1814.12" x2="-884.82" y2="1160.07"/><line class="cls-3" x1="2112.47" y1="-1791.02" x2="-861.71" y2="1183.17"/><line class="cls-3" x1="2135.57" y1="-1767.91" x2="-838.61" y2="1206.27"/><line class="cls-3" x1="2158.68" y1="-1744.81" x2="-815.51" y2="1229.38"/><line class="cls-3" x1="2181.78" y1="-1721.71" x2="-792.41" y2="1252.48"/><line class="cls-3" x1="2204.88" y1="-1698.61" x2="-769.3" y2="1275.58"/><line class="cls-3" x1="2227.99" y1="-1675.5" x2="-746.2" y2="1298.68"/><line class="cls-3" x1="2251.09" y1="-1652.4" x2="-723.1" y2="1321.79"/><line class="cls-3" x1="2274.19" y1="-1629.3" x2="-699.99" y2="1344.89"/><line class="cls-3" x1="2297.3" y1="-1606.19" x2="-676.89" y2="1367.99"/><line class="cls-3" x1="2320.4" y1="-1583.09" x2="-653.79" y2="1391.1"/><line class="cls-3" x1="2343.5" y1="-1559.99" x2="-630.68" y2="1414.2"/><line class="cls-3" x1="2366.6" y1="-1536.88" x2="-607.58" y2="1437.3"/><line class="cls-3" x1="2389.71" y1="-1513.78" x2="-584.48" y2="1460.41"/><line class="cls-3" x1="2412.81" y1="-1490.68" x2="-561.38" y2="1483.51"/><line class="cls-3" x1="2435.91" y1="-1467.58" x2="-538.27" y2="1506.61"/><line class="cls-3" x1="2459.02" y1="-1444.47" x2="-515.17" y2="1529.72"/><line class="cls-3" x1="2482.12" y1="-1421.37" x2="-492.07" y2="1552.82"/><line class="cls-3" x1="2505.22" y1="-1398.27" x2="-468.96" y2="1575.92"/><line class="cls-3" x1="2528.33" y1="-1375.16" x2="-445.86" y2="1599.02"/><line class="cls-3" x1="2551.43" y1="-1352.06" x2="-422.76" y2="1622.13"/><line class="cls-3" x1="2574.53" y1="-1328.96" x2="-399.65" y2="1645.23"/><line class="cls-3" x1="2597.63" y1="-1305.85" x2="-376.55" y2="1668.33"/><line class="cls-3" x1="2620.74" y1="-1282.75" x2="-353.45" y2="1691.44"/><line class="cls-3" x1="2643.84" y1="-1259.65" x2="-330.35" y2="1714.54"/><line class="cls-3" x1="2666.94" y1="-1236.55" x2="-307.24" y2="1737.64"/><line class="cls-3" x1="2690.05" y1="-1213.44" x2="-284.14" y2="1760.75"/><line class="cls-3" x1="2713.15" y1="-1190.34" x2="-261.04" y2="1783.85"/><line class="cls-3" x1="2736.25" y1="-1167.24" x2="-237.93" y2="1806.95"/><line class="cls-3" x1="2759.36" y1="-1144.13" x2="-214.83" y2="1830.05"/><line class="cls-3" x1="2782.46" y1="-1121.03" x2="-191.73" y2="1853.16"/><line class="cls-3" x1="2805.56" y1="-1097.93" x2="-168.63" y2="1876.26"/><line class="cls-3" x1="2828.66" y1="-1074.82" x2="-145.52" y2="1899.36"/><line class="cls-3" x1="2851.77" y1="-1051.72" x2="-122.42" y2="1922.47"/><line class="cls-3" x1="2874.87" y1="-1028.62" x2="-99.32" y2="1945.57"/><line class="cls-3" x1="2897.97" y1="-1005.52" x2="-76.21" y2="1968.67"/><line class="cls-3" x1="2921.08" y1="-982.41" x2="-53.11" y2="1991.77"/><line class="cls-3" x1="2944.18" y1="-959.31" x2="-30.01" y2="2014.88"/><line class="cls-3" x1="2967.28" y1="-936.21" x2="-6.9" y2="2037.98"/><line class="cls-3" x1="2990.39" y1="-913.1" x2="16.2" y2="2061.08"/><line class="cls-3" x1="3013.49" y1="-890" x2="39.3" y2="2084.19"/><line class="cls-3" x1="3036.59" y1="-866.9" x2="62.4" y2="2107.29"/><line class="cls-3" x1="3059.69" y1="-843.79" x2="85.51" y2="2130.39"/><line class="cls-3" x1="3082.8" y1="-820.69" x2="108.61" y2="2153.5"/><line class="cls-3" x1="3105.9" y1="-797.59" x2="131.71" y2="2176.6"/><line class="cls-3" x1="3129" y1="-774.49" x2="154.82" y2="2199.7"/><line class="cls-3" x1="3152.11" y1="-751.38" x2="177.92" y2="2222.81"/><line class="cls-3" x1="3175.21" y1="-728.28" x2="201.02" y2="2245.91"/><line class="cls-3" x1="3198.31" y1="-705.18" x2="224.13" y2="2269.01"/><line class="cls-3" x1="3221.42" y1="-682.07" x2="247.23" y2="2292.11"/><line class="cls-3" x1="3244.52" y1="-658.97" x2="270.33" y2="2315.22"/><line class="cls-3" x1="3267.62" y1="-635.87" x2="293.43" y2="2338.32"/><line class="cls-3" x1="3290.72" y1="-612.76" x2="316.54" y2="2361.42"/><line class="cls-3" x1="3313.83" y1="-589.66" x2="339.64" y2="2384.53"/><line class="cls-3" x1="3336.93" y1="-566.56" x2="362.74" y2="2407.63"/><line class="cls-3" x1="3360.03" y1="-543.46" x2="385.85" y2="2430.73"/><line class="cls-3" x1="3383.14" y1="-520.35" x2="408.95" y2="2453.83"/><line class="cls-3" x1="3406.24" y1="-497.25" x2="432.05" y2="2476.94"/><line class="cls-3" x1="3429.34" y1="-474.15" x2="455.16" y2="2500.04"/><line class="cls-3" x1="3452.45" y1="-451.04" x2="478.26" y2="2523.14"/><line class="cls-3" x1="3475.55" y1="-427.94" x2="501.36" y2="2546.25"/><line class="cls-3" x1="3498.65" y1="-404.84" x2="524.46" y2="2569.35"/><line class="cls-3" x1="3521.75" y1="-381.73" x2="547.57" y2="2592.45"/><line class="cls-3" x1="3544.86" y1="-358.63" x2="570.67" y2="2615.56"/><line class="cls-3" x1="3567.96" y1="-335.53" x2="593.77" y2="2638.66"/><line class="cls-3" x1="3591.06" y1="-312.43" x2="616.88" y2="2661.76"/><line class="cls-3" x1="3614.17" y1="-289.32" x2="639.98" y2="2684.86"/><line class="cls-3" x1="3637.27" y1="-266.22" x2="663.08" y2="2707.97"/><line class="cls-3" x1="3660.37" y1="-243.12" x2="686.19" y2="2731.07"/><line class="cls-3" x1="3683.48" y1="-220.01" x2="709.29" y2="2754.17"/><line class="cls-3" x1="3706.58" y1="-196.91" x2="732.39" y2="2777.28"/><line class="cls-3" x1="3729.68" y1="-173.81" x2="755.49" y2="2800.38"/><line class="cls-3" x1="3752.78" y1="-150.7" x2="778.6" y2="2823.48"/><line class="cls-3" x1="3775.89" y1="-127.6" x2="801.7" y2="2846.59"/><line class="cls-3" x1="3798.99" y1="-104.5" x2="824.8" y2="2869.69"/><line class="cls-3" x1="3822.09" y1="-81.4" x2="847.91" y2="2892.79"/><line class="cls-3" x1="3845.2" y1="-58.29" x2="871.01" y2="2915.9"/><line class="cls-3" x1="3868.3" y1="-35.19" x2="894.11" y2="2939"/><line class="cls-3" x1="3891.4" y1="-12.09" x2="917.22" y2="2962.1"/><line class="cls-3" x1="3914.51" y1="11.02" x2="940.32" y2="2985.2"/><line class="cls-3" x1="3937.61" y1="34.12" x2="963.42" y2="3008.31"/><line class="cls-3" x1="3960.71" y1="57.22" x2="986.52" y2="3031.41"/><line class="cls-3" x1="3983.81" y1="80.33" x2="1009.63" y2="3054.51"/><line class="cls-3" x1="4006.92" y1="103.43" x2="1032.73" y2="3077.62"/><line class="cls-3" x1="4030.02" y1="126.53" x2="1055.83" y2="3100.72"/><line class="cls-3" x1="4053.12" y1="149.63" x2="1078.94" y2="3123.82"/><line class="cls-3" x1="4076.23" y1="172.74" x2="1102.04" y2="3146.93"/><line class="cls-3" x1="4099.33" y1="195.84" x2="1125.14" y2="3170.03"/><line class="cls-3" x1="4122.43" y1="218.94" x2="1148.25" y2="3193.13"/><line class="cls-3" x1="4145.54" y1="242.05" x2="1171.35" y2="3216.23"/><line class="cls-3" x1="4168.64" y1="265.15" x2="1194.45" y2="3239.34"/><line class="cls-3" x1="4191.74" y1="288.25" x2="1217.55" y2="3262.44"/><line class="cls-3" x1="4214.84" y1="311.36" x2="1240.66" y2="3285.54"/><line class="cls-3" x1="4237.95" y1="334.46" x2="1263.76" y2="3308.65"/><line class="cls-3" x1="4261.05" y1="357.56" x2="1286.86" y2="3331.75"/><line class="cls-3" x1="4284.15" y1="380.66" x2="1309.97" y2="3354.85"/><line class="cls-3" x1="4307.26" y1="403.77" x2="1333.07" y2="3377.96"/><line class="cls-3" x1="4330.36" y1="426.87" x2="1356.17" y2="3401.06"/><line class="cls-3" x1="4353.46" y1="449.97" x2="1379.28" y2="3424.16"/><line class="cls-3" x1="4376.57" y1="473.08" x2="1402.38" y2="3447.26"/><line class="cls-3" x1="4399.67" y1="496.18" x2="1425.48" y2="3470.37"/><line class="cls-3" x1="4422.77" y1="519.28" x2="1448.58" y2="3493.47"/><line class="cls-3" x1="4445.87" y1="542.39" x2="1471.69" y2="3516.57"/><line class="cls-3" x1="4468.98" y1="565.49" x2="1494.79" y2="3539.68"/><line class="cls-3" x1="4492.08" y1="588.59" x2="1517.89" y2="3562.78"/><line class="cls-3" x1="4515.18" y1="611.69" x2="1541" y2="3585.88"/><line class="cls-3" x1="4538.29" y1="634.8" x2="1564.1" y2="3608.99"/><line class="cls-3" x1="4561.39" y1="657.9" x2="1587.2" y2="3632.09"/><line class="cls-3" x1="4574.33" y1="691.03" x2="1600.14" y2="3665.22"/><line class="cls-3" x1="4587.27" y1="724.17" x2="1613.08" y2="3698.36"/><line class="cls-3" x1="4600.21" y1="757.3" x2="1626.02" y2="3731.49"/><line class="cls-3" x1="4613.15" y1="790.44" x2="1638.96" y2="3764.62"/><line class="cls-3" x1="4626.09" y1="823.57" x2="1651.9" y2="3797.76"/></g><path class="cls-4" d="M3295.59,1884a607.22,607.22,0,0,0,27.88-182.41c0-277.33-185.83-511.24-439.75-584a369.43,369.43,0,0,0,27.93-141.33c0-204.66-165.91-370.57-370.57-370.57a370.82,370.82,0,0,0-101.45,14.06c-137-220.43-381.33-367.22-660-367.22-360.32,0-663.29,245.43-751,578.22-417.6,12.88-752.19,355.41-752.19,776.13a774.63,774.63,0,0,0,51,277.17Z"/><path class="cls-5" d="M2401,801.79a54.11,54.11,0,0,1-69.38,6,53.66,53.66,0,0,1-13.17-13.17,54.1,54.1,0,0,1,75.38-75.38A53.67,53.67,0,0,1,2407,732.41,54.11,54.11,0,0,1,2401,801.79Z"/><path class="cls-6" d="M2407,732.41l-75.38,75.38a53.66,53.66,0,0,1-13.17-13.17l75.38-75.38A53.67,53.67,0,0,1,2407,732.41Z"/><path class="cls-7" d="M361.37,622A170.41,170.41,0,0,0,197.56,745.5H525.18A170.41,170.41,0,0,0,361.37,622Z"/><path class="cls-7" d="M808.27,622A170.41,170.41,0,0,0,644.46,745.5H972.07A170.41,170.41,0,0,0,808.27,622Z"/><path class="cls-7" d="M595.35,569.11c-111.17,0-204.92,74.56-234,176.4h468C800.27,643.66,706.52,569.11,595.35,569.11Z"/><path class="cls-7" d="M1850.75,318.08c-108.11,0-199.27,72.5-227.54,171.54h455.08C2050,390.58,1958.86,318.08,1850.75,318.08Z"/><path class="cls-7" d="M2471.51,318.08c-108.11,0-199.27,72.5-227.54,171.54h455.08C2670.79,390.58,2579.62,318.08,2471.51,318.08Z"/><path class="cls-7" d="M2175.77,244.59c-154.42,0-284.64,103.57-325,245h650C2460.41,348.16,2330.19,244.59,2175.77,244.59Z"/><path class="cls-8" d="M387.65,727.78a105.26,105.26,0,0,0-101.19,76.28H488.84A105.26,105.26,0,0,0,387.65,727.78Z"/><path class="cls-8" d="M663.71,727.78a105.26,105.26,0,0,0-101.19,76.28H764.9A105.26,105.26,0,0,0,663.71,727.78Z"/><path class="cls-8" d="M532.19,695.1a150.36,150.36,0,0,0-144.54,109H676.73A150.36,150.36,0,0,0,532.19,695.1Z"/><path class="cls-9" d="M2020.24,453.1a146.22,146.22,0,0,0-140.56,106H2160.8A146.22,146.22,0,0,0,2020.24,453.1Z"/><path class="cls-9" d="M2403.7,453.1a146.22,146.22,0,0,0-140.56,106h281.11A146.22,146.22,0,0,0,2403.7,453.1Z"/><path class="cls-9" d="M2221,407.71c-95.39,0-175.83,64-200.77,151.36h401.54C2396.84,471.69,2316.4,407.71,2221,407.71Z"/><path class="cls-10" d="M2655.48,744.83a194.62,194.62,0,0,0-187.08,141h374.16A194.62,194.62,0,0,0,2655.48,744.83Z"/><path class="cls-10" d="M3165.87,744.83a194.62,194.62,0,0,0-187.08,141H3353A194.62,194.62,0,0,0,3165.87,744.83Z"/><path class="cls-10" d="M2922.71,684.41c-127,0-234,85.15-267.23,201.46h534.45C3156.74,769.56,3049.67,684.41,2922.71,684.41Z"/><path class="cls-5" d="M1201.83,926v688.34H1014.88A44.33,44.33,0,0,1,970.55,1570V1103.89a116.65,116.65,0,0,1,116.68-116.68,12.7,12.7,0,0,0,12.69-12.7v-4.85h-5.49a8.88,8.88,0,0,1,0-17.77h5.49V926Z"/><path class="cls-6" d="M1316.43,987.21h0a12.69,12.69,0,0,1-12.69-12.69v-4.86h5.49a8.88,8.88,0,0,0,0-17.77h-5.49V926H1201.83v688.36h186.94a44.34,44.34,0,0,0,44.34-44.34V1103.89A116.68,116.68,0,0,0,1316.43,987.21Z"/><path class="cls-11" d="M1318.12,808.53V939.14H1085.54V808.53a16.39,16.39,0,0,1,16.4-16.38h199.78A16.39,16.39,0,0,1,1318.12,808.53Z"/><rect class="cls-10" x="1105.09" y="792.15" width="16.11" height="146.99"/><rect class="cls-10" x="1140.55" y="792.15" width="16.13" height="146.99"/><rect class="cls-10" x="1176.03" y="792.15" width="16.11" height="146.99"/><rect class="cls-10" x="1211.51" y="792.15" width="16.11" height="146.99"/><rect class="cls-10" x="1246.98" y="792.15" width="16.13" height="146.99"/><rect class="cls-10" x="1282.46" y="792.15" width="16.11" height="146.99"/><rect class="cls-9" x="970.55" y="1113.56" width="296.4" height="377.91"/><rect class="cls-12" x="1201.83" y="1113.56" width="65.12" height="377.91"/><rect class="cls-6" x="1010.34" y="1147.11" width="218.73" height="22.35"/><rect class="cls-6" x="1010.34" y="1189.45" width="218.73" height="22.35"/><rect class="cls-6" x="1010.34" y="1231.8" width="218.73" height="22.35"/><rect class="cls-6" x="1010.34" y="1274.14" width="218.73" height="22.35"/><rect class="cls-6" x="1010.34" y="1422.24" width="218.73" height="22.35"/><path class="cls-10" d="M1309.23,1354.76c-170.94,0-315.09,114.64-359.78,271.23H1669C1624.32,1469.4,1480.17,1354.76,1309.23,1354.76Z"/><path class="cls-10" d="M2290.77,1354.76c-170.94,0-315.09,114.64-359.78,271.23h719.56C2605.86,1469.4,2461.7,1354.76,2290.77,1354.76Z"/><path class="cls-10" d="M1823.14,1238.56c-244.16,0-450.07,163.76-513.91,387.43H2337C2273.21,1402.32,2067.3,1238.56,1823.14,1238.56Z"/><rect class="cls-9" x="2362.96" y="1048.65" width="229.26" height="318.83" transform="matrix(1, 0, 0, 1, -1.52, 3.13)"/><polygon class="cls-11" points="3600 1409.17 3598.1 1006.58 2517.26 1006.96 2519.18 1409.56 3600 1409.17"/><path class="cls-9" d="M2048.72,1439l198.81-.06,58.09,0c64.7,0,117.61-53,117.58-117.66l-.12-264a81.23,81.23,0,0,0-81-81l-293.5.12a81.28,81.28,0,0,0-81,81.06l.12,290V1358a81.3,81.3,0,0,0,70.14,80.21A74.48,74.48,0,0,0,2048.72,1439Z"/><path class="cls-9" d="M1856.77,1439.19l317-.12,61.07,0a30.67,30.67,0,0,0,7-.79,32.65,32.65,0,0,0,25.52-31.78l0-26.57a32.55,32.55,0,0,0-32.54-32.54l-63.09,0-315,.15a32.62,32.62,0,0,0-32.54,32.54l0,26.57A32.62,32.62,0,0,0,1856.77,1439.19Z"/><path class="cls-9" d="M1553.68,1013.21v30.56a37.52,37.52,0,0,0,37.42,37.4l434.69-.17a37.51,37.51,0,0,0,37.39-37.42V1013a37.52,37.52,0,0,0-37.42-37.4l-434.69.18a37.52,37.52,0,0,0-37.4,37.42"/><path class="cls-9" d="M1800,1136.88v30.56a37.52,37.52,0,0,0,37.42,37.4l487.8-.19a37.52,37.52,0,0,0,37.39-37.42v-30.57a37.51,37.51,0,0,0-37.42-37.4l-487.81.2a37.52,37.52,0,0,0-37.4,37.42"/><path class="cls-9" d="M1800,1262.42V1293a37.52,37.52,0,0,0,37.42,37.4l487.8-.19a37.52,37.52,0,0,0,37.39-37.42V1262.2a37.51,37.51,0,0,0-37.42-37.4l-487.8.19a37.52,37.52,0,0,0-37.4,37.42"/><path class="cls-9" d="M1937.11,747.52h0a67.85,67.85,0,0,1,93.35-13.13L2395,969.61c33,23.84,49.2,75.21,22,114.66-36.09,52.33-97.7,36.48-128.68,13.51L1950,847c-31.37-23.42-37.24-68.64-12.9-99.51"/><path class="cls-13" d="M2638.1,1713.72H961.9a56.09,56.09,0,0,1-56.09-56.09h0a56.09,56.09,0,0,1,56.09-56.09H2638.1a56.09,56.09,0,0,1,56.09,56.09h0A56.09,56.09,0,0,1,2638.1,1713.72Z"/><path class="cls-14" d="M1573.31,1120c0-18.46,33.42-67.42,33.42-67.42s33.42,49,33.42,67.42a33.42,33.42,0,0,1-66.85,0Z"/><rect class="cls-7" x="1581.74" y="785.14" width="49.99" height="169"/><path class="cls-6" d="M510.61,1510C606,1617.6,755.26,1641,755.26,1641l-345.32-389.5S415.26,1402.48,510.61,1510Z"/><path class="cls-5" d="M409.94,1251.47,755.26,1641s-5.32-151-100.67-258.57S409.94,1251.47,409.94,1251.47Z"/><path class="cls-6" d="M618.64,1368.35c28.1,141,145.23,236.43,145.23,236.43L662.1,1094.3S590.54,1227.39,618.64,1368.35Z"/><path class="cls-5" d="M662.1,1094.3l101.77,510.48s71.56-133.09,43.46-274.05S662.1,1094.3,662.1,1094.3Z"/><path class="cls-8" d="M667.6,1592.57A181.67,181.67,0,0,0,493,1724.23H842.23A181.67,181.67,0,0,0,667.6,1592.57Z"/><path class="cls-8" d="M1144,1592.57A181.67,181.67,0,0,0,969.4,1724.23h349.28A181.67,181.67,0,0,0,1144,1592.57Z"/><path class="cls-8" d="M917,1536.17c-118.52,0-218.46,79.49-249.45,188.06h498.9C1135.51,1615.66,1035.56,1536.17,917,1536.17Z"/><rect class="cls-7" x="1581.74" y="785.14" width="49.99" height="169"/><polygon class="cls-10" points="1631.73 1016.7 1606.73 1031.7 1581.73 1016.7 1581.73 932.2 1631.73 932.2 1631.73 1016.7"/><path class="cls-15" d="M1456.4,233.15a70.17,70.17,0,0,0-70.11,72.9l17.89,458.64a75.75,75.75,0,0,0,75.69,72.79h126.87V233.15Z"/><path class="cls-16" d="M1757.07,233.15H1606.73V837.49H1733.6a75.75,75.75,0,0,0,75.69-72.79l17.89-458.64A70.17,70.17,0,0,0,1757.07,233.15Z"/><rect class="cls-7" x="1470.22" y="327.96" width="273.03" height="240.32" rx="32.89" ry="32.89"/><rect class="cls-5" x="1631.73" y="635.46" width="111.52" height="68.22" rx="16.64" ry="16.64"/><polygon class="cls-10" points="1711.15 669.57 1671.14 652.56 1671.14 686.59 1711.15 669.57"/><rect class="cls-5" x="1470.22" y="635.46" width="111.52" height="68.22" rx="16.64" ry="16.64" transform="translate(3051.95 1339.15) rotate(180)"/><polygon class="cls-10" points="1502.31 669.57 1542.33 652.56 1542.33 686.59 1502.31 669.57"/><path class="cls-11" d="M1589,442.13c0,16.58-7.59,25.57-23.6,25.57-15.17,0-23-9-23-24.73v-2.53h14.61V444c0,7,3.09,9.69,8,9.69,5.48,0,8.57-2.67,8.57-12.08v-18c-2.67,5.62-7.45,8.71-14.33,8.71-11.38,0-17.14-8-17.14-22.48v-18c0-15.74,8.29-24.73,23.46-24.73s23.46,9,23.46,24.73Zm-15.46-33.58v-17.7c0-7-3.09-9.55-8-9.55s-8,2.53-8,9.55v17.7c0,7,3.09,9.69,8,9.69S1573.5,415.58,1573.5,408.55Z"/><path class="cls-11" d="M1614.11,451.69v14.89h-14.89V451.69Z"/><path class="cls-11" d="M1648,381.15c-4.92,0-8,2.67-8,9.69v10.54h-14.61v-9.55c0-15.74,7.87-24.73,23-24.73s23,9,23,24.73c0,30.91-30.77,42.43-30.77,58.59a10.64,10.64,0,0,0,.14,2.11H1670v14.05h-44.68V454.5c0-28.94,30.63-33.72,30.63-62.1C1656,383.54,1652.89,381.15,1648,381.15Z"/><polygon class="cls-17" points="2223.96 1654.59 1953.36 1654.83 1935.07 1673.15 2223.97 1672.89 2223.96 1654.59"/><rect class="cls-7" x="2573.72" y="1618.7" width="603.06" height="88.91"/><rect class="cls-18" x="3128.57" y="1618.45" width="48.2" height="88.91"/><rect class="cls-7" x="2369.89" y="1574.87" width="593.38" height="176.95"/><rect class="cls-19" x="2277.45" y="1633.37" width="92.44" height="60.56"/><path class="cls-20" d="M2288.49,1708.14h0A11.45,11.45,0,0,1,2277,1696.7l-.06-66a11.45,11.45,0,0,1,11.43-11.46h0a11.45,11.45,0,0,1,11.46,11.43l.06,66A11.45,11.45,0,0,1,2288.49,1708.14Z"/><path class="cls-20" d="M2288.92,1690.22l-65.05-4.64a12.92,12.92,0,0,1-12-12.88l0-17.91a12.92,12.92,0,0,1,12-12.9l65-4.76Z"/><rect class="cls-18" x="2922.78" y="1574.62" width="40.49" height="176.95"/><rect class="cls-20" x="2573.72" y="1623.64" width="375.41" height="79.24"/><rect class="cls-18" x="2573.72" y="1646.87" width="603.06" height="32.57"/><path class="cls-19" d="M2550.45,1751.92l-205.42.19a14.68,14.68,0,0,1-14.69-14.67l-.13-147.59a14.68,14.68,0,0,1,14.67-14.69l205.42-.19Z"/><path class="cls-7" d="M2949.25,1794.09h0a16.78,16.78,0,0,1-16.8-16.77l-.21-228.44a16.78,16.78,0,0,1,16.77-16.8h0a16.78,16.78,0,0,1,16.8,16.77l.21,228.44A16.78,16.78,0,0,1,2949.25,1794.09Z"/><path class="cls-7" d="M3176.84,1735.51h-2.38a30.55,30.55,0,0,1-30.58-30.52l-.08-84.15a30.55,30.55,0,0,1,30.52-30.58h2.38Z"/><path class="cls-18" d="M2583.38,1744.54h-.64a32.29,32.29,0,0,1-32.32-32.26l-.09-97.67a32.29,32.29,0,0,1,32.26-32.32h.64Z"/><line class="cls-21" x1="2378.66" y1="1623.98" x2="2378.73" y2="1703.22"/><line class="cls-22" x1="2409.49" y1="1637.03" x2="2409.53" y2="1690.11"/><line class="cls-22" x1="2440.3" y1="1637" x2="2440.35" y2="1690.09"/><line class="cls-22" x1="2471.11" y1="1636.98" x2="2471.16" y2="1690.06"/><line class="cls-22" x1="2501.93" y1="1636.95" x2="2501.97" y2="1690.03"/><line class="cls-21" x1="2532.73" y1="1623.84" x2="2532.8" y2="1703.08"/><line class="cls-22" x1="2563.55" y1="1636.89" x2="2563.6" y2="1689.97"/><line class="cls-22" x1="2594.37" y1="1636.87" x2="2594.42" y2="1689.95"/><line class="cls-22" x1="2625.18" y1="1636.84" x2="2625.23" y2="1689.92"/><line class="cls-22" x1="2656" y1="1636.81" x2="2656.04" y2="1689.89"/><line class="cls-21" x1="2686.8" y1="1623.7" x2="2686.87" y2="1702.94"/><line class="cls-22" x1="2717.62" y1="1636.75" x2="2717.67" y2="1689.84"/><line class="cls-22" x1="2748.44" y1="1636.73" x2="2748.49" y2="1689.81"/><line class="cls-22" x1="2779.25" y1="1636.7" x2="2779.3" y2="1689.78"/><path class="cls-9" d="M1181.73,1595.88a6.44,6.44,0,0,1,1.41-9.87l39.61-23.88a6.43,6.43,0,1,1,6.64,11L1189.78,1597A6.43,6.43,0,0,1,1181.73,1595.88Z"/><path class="cls-23" d="M1182.57,1584.17s-14.87,8.26-12.51,11.5,39.86,46.61,42,45.05c7.46-5.3-18.08-45.46-21.87-48.22S1184.69,1582.93,1182.57,1584.17Z"/><path class="cls-9" d="M1534.53,1081.33s14.3-29.92,22.44-31.8-2.26,28.12-19,39.2Z"/><path class="cls-12" d="M1532.78,1076.77c3.75,3.85,7.55,7.42,11.22,11.08-56.79,60.47-105.3,72.25-179.54,39.09-11.36-5.07-10.94-9.44-5.8-18.45-1-1.65-1.08-1.52,0,0,5.14-9,8.38-9.61,19.92-4.47C1454,1137.6,1467.36,1126.38,1532.78,1076.77Z"/><path class="cls-9" d="M1385.67,1662.69a6.44,6.44,0,0,1-6.31-7.72l9.23-45.32a6.43,6.43,0,1,1,12.6,2.57l-9.23,45.32A6.43,6.43,0,0,1,1385.67,1662.69Z"/><path class="cls-17" d="M1399.82,1636.33a168,168,0,0,1-20.48-1.89c20.38-108.94,35.81-255.15-18.69-357q24.82-12.17,49.85-23.9C1450.33,1342.29,1416.41,1542.62,1399.82,1636.33Z"/><path class="cls-24" d="M1208.15,1590.94c-4.09-5.92-8-11.91-11.61-18.16,132.07-79.6,173.78-155.63,149.27-312.59,18.4-3.27,36.87-6.41,55.42-8.72C1404.66,1427.78,1345.42,1497,1208.15,1590.94Z"/><path class="cls-23" d="M1377.63,1654.15s-4,16.54,0,17,61.29,2.2,61.63-.46c1.15-9.08-45.7-17.45-50.3-16.54S1378.15,1651.74,1377.63,1654.15Z"/><path class="cls-9" d="M1350.63,1370.1c8.87-3.51,19.11,6.73,41.47,5.77,15.19-.64,38.74-15.71,48.07-14.46-5.67-51.88-61.86-205.72-58.31-229.3a32.56,32.56,0,0,0-12.25-30.77l-3.67-2.83c-17.09-13.12-42.09-3.75-46.19,17.42a174.9,174.9,0,0,0-2.9,24.29C1314.59,1183.58,1337.17,1307.4,1350.63,1370.1Z"/><path class="cls-9" d="M1336.5,1062.35c7.33,18,25.83,27.52,36.84,23s10.37-21.25,3-39.27-20-23.56-31-19.08S1329.16,1044.33,1336.5,1062.35Z"/><path class="cls-9" d="M1330.9,1071.85c1.71,4.19,8.05,7.86,11.09,6.63s2.41-4.95.71-9.14-5.77-7.12-8.8-5.88S1329.2,1067.66,1330.9,1071.85Z"/><path class="cls-23" d="M1329.21,1051.94s-.89-13.09,6.44-20.94,25-14.21,35.29.23c0,0,6.35,10.93-7.48,17.47s-13.74-1.89-18.47,7.52-12.8,6.18-13.58,8.25Z"/><path class="cls-9" d="M1339.63,1063l20.34-2c.27,2.78,2.4,29.3,1.37,39.29-.75,3.08-5.82,4.49-11.33,3.15-5-1.2-8.54-4.21-8.68-7h0C1341.93,1090.41,1340.58,1072.72,1339.63,1063Z"/><path class="cls-23" d="M1345.2,1069.71c3.56-2.62,5.77.78,12.09,6.13s19.18,6.75,23.26-9.66c2.6-10.46,5.22,8,5.23,8-.47,8.89-3.82,13.68-10.36,16.34-9,3.67-21.67.47-31.7-8.48C1342.72,1077.42,1342.77,1071.49,1345.2,1069.71Z"/><path class="cls-23" d="M1381.2,1065.67l-.75.23c-3.85,1.22-21.38,7.05-24.25,13.29-3.22,7,9.06-1.21,13.08-5.32s7.68-2.75,11.26-3.1S1386.5,1066.49,1381.2,1065.67Z"/><path class="cls-9" d="M1468.16,1195s25.3-23.91,34-22.69-12.83,26.71-33.38,31.25Z"/><path class="cls-12" d="M1472.58,1188.07c2.51,4.84,5,9.63,7.57,13.92-79.37,42-149.21,43.39-155-61-.88-16,3-13.55,12.43-14.43,1.88-1.71,1.05-1.37,0,0,9.4-.88,15-.3,14.61,14.35C1349.93,1236.74,1406.06,1209.4,1472.58,1188.07Z"/><path class="cls-6" d="M1615.77,1313.8c37.83,33,103.08,20.07,103.08,20.07l-137-119.45S1577.94,1280.81,1615.77,1313.8Z"/><path class="cls-5" d="M1581.85,1214.41l137,119.45s3.91-66.4-33.92-99.39S1581.85,1214.41,1581.85,1214.41Z"/><line class="cls-25" x1="1720.5" y1="1330.38" x2="1720.5" y2="1663.87"/><path class="cls-19" d="M1756.66,1446.24c25.51,87.1,1,203.32-65.47,222.8s-149.8-65.18-175.31-152.29,16.45-143.67,82.94-163.14S1731.15,1359.14,1756.66,1446.24Z"/><path class="cls-19" d="M1686.2,1446.24c-25.51,87.1-1,203.32,65.47,222.8s149.8-65.18,175.31-152.29-16.45-143.67-82.94-163.14S1711.7,1359.14,1686.2,1446.24Z"/><path class="cls-5" d="M1789.65,1716a54.11,54.11,0,0,1-14.82-68,53.64,53.64,0,0,1,11.38-14.74,54.1,54.1,0,0,1,84.39,65.13,53.66,53.66,0,0,1-11.38,14.74A54.11,54.11,0,0,1,1789.65,1716Z"/><path class="cls-6" d="M1859.22,1713.09,1774.83,1648a53.64,53.64,0,0,1,11.38-14.74l84.39,65.13a53.66,53.66,0,0,1-11.38,14.74Z"/><path class="cls-5" d="M2606.83,1357.67a54.11,54.11,0,0,1,69-9.55,53.64,53.64,0,0,1,13.83,12.48,54.1,54.1,0,0,1-71.41,79.14,53.66,53.66,0,0,1-13.83-12.48A54.11,54.11,0,0,1,2606.83,1357.67Z"/><path class="cls-6" d="M2604.4,1427.27l71.41-79.14a53.64,53.64,0,0,1,13.83,12.48l-71.41,79.14a53.66,53.66,0,0,1-13.83-12.48Z"/><path class="cls-9" d="M2159.59,727.78a29.93,29.93,0,0,0,29.93-29.93,29.93,29.93,0,0,0,29.93,29.93,29.93,29.93,0,0,0-29.93,29.93A29.93,29.93,0,0,0,2159.59,727.78Z"/><path class="cls-9" d="M725.33,1050.48a29.93,29.93,0,0,0,29.93-29.93,29.93,29.93,0,0,0,29.93,29.93,29.93,29.93,0,0,0-29.93,29.93A29.93,29.93,0,0,0,725.33,1050.48Z"/><path class="cls-9" d="M1279.3,582.75a29.93,29.93,0,0,0,29.93-29.93,29.93,29.93,0,0,0,29.93,29.93,29.93,29.93,0,0,0-29.93,29.93A29.93,29.93,0,0,0,1279.3,582.75Z"/><path class="cls-9" d="M2877.07,1315.24a29.93,29.93,0,0,0,29.93-29.93,29.93,29.93,0,0,0,29.93,29.93,29.93,29.93,0,0,0-29.93,29.93A29.93,29.93,0,0,0,2877.07,1315.24Z"/><path class="cls-9" d="M1690.57,765.92A29.93,29.93,0,0,0,1720.5,736a29.93,29.93,0,0,0,29.93,29.93,29.93,29.93,0,0,0-29.93,29.93A29.93,29.93,0,0,0,1690.57,765.92Z"/><path class="cls-9" d="M2083.24,640.24a16.7,16.7,0,0,0,16.7-16.7,16.7,16.7,0,0,0,16.7,16.7,16.7,16.7,0,0,0-16.7,16.7A16.7,16.7,0,0,0,2083.24,640.24Z"/><path class="cls-9" d="M2978.79,1251.47a16.7,16.7,0,0,0,16.7-16.7,16.7,16.7,0,0,0,16.7,16.7,16.7,16.7,0,0,0-16.7,16.7A16.7,16.7,0,0,0,2978.79,1251.47Z"/><path class="cls-9" d="M1210.93,677.34a16.7,16.7,0,0,0,16.7-16.7,16.7,16.7,0,0,0,16.7,16.7,16.7,16.7,0,0,0-16.7,16.7A16.7,16.7,0,0,0,1210.93,677.34Z"/><path class="cls-9" d="M1783.3,869.64a16.7,16.7,0,0,0,16.7-16.7,16.7,16.7,0,0,0,16.7,16.7,16.7,16.7,0,0,0-16.7,16.7A16.7,16.7,0,0,0,1783.3,869.64Z"/></svg>