<?xml version="1.0" encoding="iso-8859-1"?>
<!-- Generator: Adobe Illustrator 19.0.0, SVG Export Plug-In . SVG Version: 6.00 Build 0)  -->
<svg version="1.1" id="Capa_1" xmlns="http://www.w3.org/2000/svg" xmlns:xlink="http://www.w3.org/1999/xlink" x="0px" y="0px"
	 viewBox="0 0 512 512" style="enable-background:new 0 0 512 512;" xml:space="preserve">
<path style="fill:#FC969F;" d="M448.339,110.251c81.92,84.992,77.312,226.475-8.789,305.323c-0.418,0.35-0.819,0.717-1.195,1.109
	l-15.787-2.56c-20.557-3.26-41.583-1.715-61.44,4.523l-25.941,8.192c-27.486,8.585-56.994,8.166-84.224-1.195
	c-30.012-10.487-62.788-9.916-92.416,1.621l-0.512,1.451c-1.024-0.427-2.048-0.768-3.072-1.109l-1.877-0.597
	c-19.132-5.308-39.518,2.219-50.603,18.688L56.147,512h-51.2v-68.267l33.024-49.408c29.781-44.356,84.659-64.589,136.107-50.176
	l22.272,6.4c36.079,5.521,70.383-17.502,78.933-52.992c6.059-23.433,1.4-48.35-12.715-68.011
	c-7.151-9.967-17.186-17.502-28.757-21.589c-52.326-19.686-94.319-59.921-116.224-111.36L81.747,0h85.333l23.381,60.245
	c15.164,35.934,46.763,62.319,84.821,70.827c29.705-52.053,95.983-70.17,148.036-40.465
	C432.578,95.889,441.009,102.511,448.339,110.251z"/>
<path style="fill:#168DE2;" d="M422.569,414.123l15.787,2.56c-2.389,2.048-4.864,4.096-7.253,6.059
	c-10.837,8.789-18.432,13.141-24.235,17.664c-26.197,20.309-125.44,54.613-188.587,28.928c-9.216-3.755-31.403-14.763-38.827-24.064
	c-5.495-7.373-12.902-13.099-21.419-16.555l0.512-1.451c29.628-11.537,62.404-12.109,92.416-1.621
	c27.23,9.361,56.738,9.779,84.224,1.195l25.941-8.192C380.977,412.407,402.012,410.863,422.569,414.123z"/>
<path style="fill:#CC2A59;" d="M481.363,264.713l-17.067-0.529c1.698-46.012-15.121-90.778-46.694-124.288l12.305-11.836
	C464.655,164.89,483.189,214.11,481.363,264.713z"/>
<g>
</g>
<g>
</g>
<g>
</g>
<g>
</g>
<g>
</g>
<g>
</g>
<g>
</g>
<g>
</g>
<g>
</g>
<g>
</g>
<g>
</g>
<g>
</g>
<g>
</g>
<g>
</g>
<g>
</g>
</svg>
