<?xml version="1.0" encoding="iso-8859-1"?>
<!-- Generator: Adobe Illustrator 19.0.0, SVG Export Plug-In . SVG Version: 6.00 Build 0)  -->
<svg version="1.1" id="Capa_1" xmlns="http://www.w3.org/2000/svg" xmlns:xlink="http://www.w3.org/1999/xlink" x="0px" y="0px"
	 viewBox="0 0 511.99 511.99" style="enable-background:new 0 0 511.99 511.99;" xml:space="preserve">
<path style="fill:#BA6746;" d="M113.951,270.594l-90.856-50.515c-13.021-7.24-14.902-25.262-3.624-35.028l69.642-60.299
	c8.972-7.768,22.542-6.793,30.312,2.179c7.768,8.972,6.792,22.543-2.179,30.311l-46.424,40.196l64.014,35.592
	c10.373,5.768,14.107,18.851,8.339,29.224C137.408,272.627,124.324,276.362,113.951,270.594z"/>
<path style="fill:#6EAA50;" d="M119.425,126.932c-7.77-8.973-21.34-9.947-30.312-2.179L51.14,157.631l27.831,32.753l38.276-33.14
	C126.217,149.475,127.193,135.904,119.425,126.932z"/>
<path style="fill:#BA6746;" d="M61.283,508.405c-11.846-7.127-15.671-22.507-8.544-34.352l53.535-88.984l7.264-88.167
	c1.136-13.778,13.228-24.033,27.001-22.892c13.778,1.135,24.026,13.224,22.892,27.001l-7.744,94
	c-0.315,3.837-1.513,7.55-3.497,10.849l-56.553,94C88.498,511.723,73.113,515.521,61.283,508.405z"/>
<path style="fill:#3C5A73;" d="M157.476,373.293l5.955-72.282c1.136-13.778-9.114-25.867-22.892-27.001
	c-13.774-1.143-25.866,9.114-27.001,22.892l-6.294,76.392H157.476z"/>
<path style="fill:#BA6746;" d="M247.781,414.345l-9.812-89.272l-91.47-35.452c-12.89-4.996-19.289-19.496-14.293-32.386
	c4.996-12.889,19.495-19.289,32.386-14.293l105.644,40.945c8.71,3.376,14.816,11.32,15.835,20.605l11.472,104.383
	c1.51,13.742-8.404,26.106-22.146,27.616C261.676,438.002,249.293,428.107,247.781,414.345z"/>
<path style="fill:#3C5064;" d="M270.235,283.888l-105.644-40.945c-12.891-4.996-27.39,1.404-32.386,14.293
	c-4.996,12.89,1.404,27.39,14.293,32.386L237.52,324.9L270.235,283.888z"/>
<path style="fill:#82BE50;" d="M180.092,302.641l-68.207,14.356l-33.86-160.865c-3.644-17.316,7.438-34.308,24.754-37.953
	l55.913-11.769c17.316-3.644,34.308,7.438,37.953,24.754l28.464,135.234L180.092,302.641z"/>
<g>
	<circle style="fill:#BA6746;" cx="125.486" cy="47.43" r="47.43"/>
	<path style="fill:#BA6746;" d="M316.716,208.913l-81.479,27.057c-6.83,2.267-14.34,0.967-20.01-3.466l-82.44-64.468
		c-9.349-7.311-11.001-20.816-3.69-30.165c7.306-9.354,20.816-11.001,30.165-3.69l73.364,57.371l70.545-23.426
		c11.264-3.74,23.426,2.358,27.166,13.622C334.073,192.996,327.989,205.171,316.716,208.913z"/>
</g>
<path style="fill:#6EAA50;" d="M197.979,164.458l-38.717-30.277c-9.349-7.311-22.861-5.664-30.165,3.69
	c-7.311,9.349-5.66,22.855,3.69,30.165l40.139,31.389L197.979,164.458z"/>
<path style="fill:#6C9BAA;" d="M423.857,287.078c-7.428,0-13.45,6.022-13.45,13.45v60.779H336.5c-7.428,0-13.45,6.022-13.45,13.45
	v61.447h-93.758c-7.428,0-13.45,6.022-13.45,13.45v48.833c0,7.382,5.985,13.367,13.367,13.367h257.36
	c7.382,0,13.367-5.985,13.367-13.367V300.445c0-7.382-5.985-13.367-13.367-13.367H423.857z"/>
<g>
</g>
<g>
</g>
<g>
</g>
<g>
</g>
<g>
</g>
<g>
</g>
<g>
</g>
<g>
</g>
<g>
</g>
<g>
</g>
<g>
</g>
<g>
</g>
<g>
</g>
<g>
</g>
<g>
</g>
</svg>
