<svg height="512pt" viewBox="0 0 512 512" width="512pt" xmlns="http://www.w3.org/2000/svg"><path d="m437 272c-33.089844 0-60-26.925781-60-60s26.910156-60 60-60 60 26.925781 60 60-26.910156 60-60 60zm0 0" fill="#faaaaa"/><path d="m437 272h-30c-57.890625 0-107-47.109375-107-105l-55.496094 107.726562c27.4375 41.25 69.726563 70.632813 117.40625 82l.089844 140.273438c0 8.289062 6.722656 15 15 15h120c8.289062 0 15-6.710938 15-15v-150c0-41.367188-33.648438-75-75-75zm0 0" fill="#ff637b"/><path d="m271 15v30c0 8.398438-6.597656 15-15 15s-15-6.601562-15-15v-30c0-8.402344 6.597656-15 15-15s15 6.597656 15 15zm0 0" fill="#efe2dd"/><path d="m316 91c-3.839844 0-7.675781-1.464844-10.605469-4.394531-5.859375-5.859375-5.859375-15.351563 0-21.210938l30-30c5.859375-5.859375 15.351563-5.859375 21.210938 0s5.859375 15.351563 0 21.210938l-30 30c-2.929688 2.929687-6.765625 4.394531-10.605469 4.394531zm0 0" fill="#cdbfba"/><path d="m196 91c-3.839844 0-7.675781-1.464844-10.605469-4.394531l-30-30c-5.859375-5.859375-5.859375-15.351563 0-21.210938s15.351563-5.859375 21.210938 0l30 30c5.859375 5.859375 5.859375 15.351563 0 21.210938-2.929688 2.929687-6.765625 4.394531-10.605469 4.394531zm0 0" fill="#efe2dd"/><path d="m75 272c-33.089844 0-60-26.925781-60-60s26.910156-60 60-60 60 26.925781 60 60-26.910156 60-60 60zm0 0" fill="#895d3c"/><path d="m256 121c-24.902344 0-45 20.097656-45 45 0 57.898438-48.101562 106-106 106h-30c-41.398438 0-75 33.601562-75 75v150c0 8.398438 6.597656 15 15 15h120c8.402344 0 15-6.601562 15-15v-140.101562c42.300781-10.199219 79.601562-34.300782 106-66.097657 28.199219-33.902343 45-77.699219 45-124.800781 0-24.902344-20.097656-45-45-45zm0 0" fill="#7ed8f6"/><path d="m301 166c0 47.101562-16.800781 90.898438-45 124.800781v-169.800781c24.902344 0 45 20.097656 45 45zm0 0" fill="#6aa9ff"/><path d="m256 60v-60c8.402344 0 15 6.597656 15 15v30c0 8.398438-6.597656 15-15 15zm0 0" fill="#cdbfba"/></svg>