<svg id="Ñëîé_1" data-name="Ñëîé 1" xmlns="http://www.w3.org/2000/svg" viewBox="0 0 1599.98 1104.5"><defs><style>.cls-1{fill:#89d2e6;}.cls-2{fill:#f9ab80;}.cls-3{fill:#e89475;}.cls-4{fill:#002963;}.cls-5{fill:#fcbfa0;}.cls-6{fill:#fff;}.cls-10,.cls-7{fill:#277291;}.cls-7{opacity:0.53;}.cls-8{fill:#d6f5fc;}.cls-9{fill:#002b69;}.cls-11{fill:#e6faff;}.cls-12{fill:#f3fdff;}.cls-13{fill:#f4f9f9;}.cls-14{fill:#f5fdff;}.cls-15{fill:#d64c4c;}</style></defs><title>Image 31.A [Converted]</title><rect class="cls-1" width="1599.98" height="1104.5"/><path class="cls-2" d="M709.41,517.82c-1.93-2.83-16.89-19.58-19.72-17.65l-36,48.1c-2.83,1.93,13.56,59,15.49,61.88l42.38,34.07a6.24,6.24,0,0,0,8.64,1.64l47.08-32.09a6.24,6.24,0,0,0,1.64-8.64Z"/><path class="cls-3" d="M689.7,500.17l-66.14,71.3c2.34,6.81,16.46,18.85,16.5,18.66L670.44,611l24-23.25,27.7-49.13S692.52,498.24,689.7,500.17Z"/><rect class="cls-4" x="570.09" y="507.84" width="260.9" height="24.96" transform="translate(-77.11 916.22) rotate(-63.58)"/><rect class="cls-2" x="661.57" y="484.04" width="25.04" height="44.83" rx="1.97" ry="1.97" transform="translate(-153.22 669.1) rotate(-48.04)"/><path class="cls-2" d="M685.14,532.24l-26.39-23.73a13,13,0,0,0-18,.71,12.11,12.11,0,0,0,.62,17.44l26.39,23.73a13,13,0,0,0,18-.71h0A12.11,12.11,0,0,0,685.14,532.24Z"/><path class="cls-2" d="M677.85,554.5l-36.49-27.88a10.78,10.78,0,0,0-15.07,2l-2.15,2.81c-3.59,4.7-1.72,12.89,3,16.48l35.53,26.47a10.78,10.78,0,0,0,15.07-2l2.15-2.81A10.78,10.78,0,0,0,677.85,554.5Z"/><rect class="cls-2" x="636.5" y="546.73" width="23.25" height="59.88" rx="1.83" ry="1.83" transform="translate(-203.59 741.6) rotate(-52.62)"/><path class="cls-2" d="M720.34,491.25s-12.87-6.38-19.94-11.3c-3.16-3.73-19.54-16.95-23-14.05l-1.12.95c-6.48,5.48-6.88,15.74-.9,22.81l29.43,34.74c-.67,3,7.86,57,7.86,57l46.75,24.34-2.66-71.83Z"/><path class="cls-5" d="M685.23,468a5.69,5.69,0,0,0,.54,8l6.85,6a4.5,4.5,0,0,0,6.33-.43L700.4,480l-13.56-12A1.15,1.15,0,0,0,685.23,468Z"/><polygon class="cls-6" points="700.54 658.89 717.17 677.34 787.31 622.09 772.91 600.97 700.54 658.89"/><path class="cls-4" d="M703.48,677.54,802,795.16c32.47-18.9,61.23-50.82,87.47-80.31l-94.9-105.28Z"/><rect class="cls-5" x="672.19" y="502.54" width="16.47" height="19.23" rx="1" ry="1" transform="translate(-139.63 741.91) rotate(-52.62)"/><rect class="cls-5" x="667.86" y="530.44" width="16.47" height="19.23" rx="1.2" ry="1.2" transform="translate(-150.45 796.13) rotate(-55.83)"/><rect class="cls-5" x="660.91" y="552.55" width="16.47" height="19.23" rx="1" ry="1" transform="translate(-183.8 752.61) rotate(-52.62)"/><rect class="cls-5" x="652.28" y="576.53" width="16.47" height="19.23" rx="1.14" ry="1.14" transform="translate(-216.97 685.41) rotate(-48.04)"/><rect class="cls-6" x="304.26" y="447.72" width="235.97" height="175.84" transform="translate(-256.05 464.14) rotate(-45.73)"/><rect class="cls-7" x="475.58" y="407.08" width="5.56" height="132.73" transform="translate(-194.57 485.54) rotate(-45.73)"/><rect class="cls-7" x="447.24" y="425.47" width="5.56" height="83.39" transform="translate(-198.63 463.35) rotate(-45.73)"/><rect class="cls-7" x="456.55" y="427.98" width="5.56" height="139.22" transform="translate(-217.61 479.21) rotate(-45.73)"/><rect class="cls-7" x="438.18" y="442.57" width="5.56" height="119.53" transform="translate(-226.55 467.48) rotate(-45.73)"/><rect class="cls-7" x="428.15" y="452.85" width="5.56" height="119.53" transform="translate(-236.94 463.41) rotate(-45.73)"/><rect class="cls-7" x="421.43" y="461.75" width="5.56" height="128.75" transform="translate(-248.64 462.68) rotate(-45.73)"/><rect class="cls-7" x="381.88" y="483.42" width="5.56" height="48.22" transform="translate(-247.27 428.74) rotate(-45.73)"/><rect class="cls-7" x="399.95" y="578.99" width="5.56" height="56.54" transform="translate(-313.24 471.8) rotate(-45.73)"/><rect class="cls-7" x="389.83" y="587.79" width="5.56" height="48.22" transform="translate(-319.61 465.95) rotate(-45.73)"/><rect class="cls-7" x="380.15" y="489.93" width="5.56" height="70.06" transform="translate(-260.28 432.76) rotate(-45.73)"/><rect class="cls-8" x="724.53" y="621.48" width="278.63" height="207.63" transform="translate(-203.02 1091.44) rotate(-58.96)"/><rect class="cls-9" x="892.3" y="567.09" width="6.56" height="156.73" transform="translate(-119.24 1079.96) rotate(-58.96)"/><rect class="cls-9" x="858.03" y="596.66" width="6.56" height="98.47" transform="translate(-136.22 1050.82) rotate(-58.96)"/><rect class="cls-9" x="876.95" y="596.16" width="6.56" height="164.39" transform="translate(-154.87 1082.75) rotate(-58.96)"/><rect class="cls-9" x="857.12" y="618.19" width="6.56" height="141.14" transform="translate(-173.39 1070.8) rotate(-58.96)"/><rect class="cls-9" x="848.37" y="632.72" width="6.56" height="141.14" transform="translate(-190.08 1070.34) rotate(-58.96)"/><rect class="cls-9" x="844.3" y="644.62" width="6.56" height="152.03" transform="translate(-206.91 1075.25) rotate(-58.96)"/><rect class="cls-9" x="838.35" y="766.14" width="6.56" height="96.71" transform="translate(-290.21 1115.62) rotate(-58.96)"/><rect class="cls-9" x="819.53" y="791.42" width="6.56" height="83.94" transform="translate(-315.51 1108.64) rotate(-58.96)"/><rect class="cls-9" x="814.83" y="786.76" width="6.56" height="57.38" transform="translate(-302.42 1095.92) rotate(-58.96)"/><polygon class="cls-8" points="562.13 983.98 564.93 1104.5 772.61 1104.5 769.7 979.15 562.13 983.98"/><rect class="cls-10" x="584.67" y="1018.84" width="156.73" height="6.56" transform="translate(-23.57 15.68) rotate(-1.33)"/><rect class="cls-10" x="585.1" y="1037.56" width="98.47" height="6.56" transform="translate(-24.02 15.03) rotate(-1.33)"/><rect class="cls-10" x="585.5" y="1054.85" width="164.39" height="6.56" transform="translate(-24.42 15.81) rotate(-1.33)"/><rect class="cls-10" x="585.95" y="1074.26" width="141.14" height="6.56" transform="translate(-24.87 15.55) rotate(-1.33)"/><rect class="cls-10" x="586.34" y="1091.21" width="141.14" height="6.56" transform="translate(-25.25 15.55) rotate(-1.33)"/><rect class="cls-11" x="301.65" y="709.39" width="278.63" height="207.63" transform="translate(-448.57 1067.15) rotate(-77.46)"/><rect class="cls-9" x="455.4" y="637.54" width="6.56" height="156.73" transform="translate(-339.71 1008.27) rotate(-77.46)"/><rect class="cls-9" x="423.05" y="677.97" width="6.56" height="98.47" transform="translate(-376.07 985.54) rotate(-77.46)"/><rect class="cls-9" x="451.29" y="669.78" width="6.56" height="164.39" transform="translate(-378.14 1032.5) rotate(-77.46)"/><rect class="cls-9" x="435.79" y="697.58" width="6.56" height="141.14" transform="translate(-406.06 1030.02) rotate(-77.46)"/><rect class="cls-9" x="432.11" y="714.13" width="6.56" height="141.14" transform="translate(-425.1 1039.39) rotate(-77.46)"/><rect class="cls-9" x="433.74" y="726.42" width="6.56" height="152.03" transform="translate(-441.14 1054.87) rotate(-77.46)"/><rect class="cls-9" x="457.9" y="844.98" width="6.56" height="96.71" transform="translate(-510.95 1149.62) rotate(-77.46)"/><rect class="cls-9" x="446.05" y="875.25" width="6.56" height="83.94" transform="translate(-543.55 1156.76) rotate(-77.46)"/><rect class="cls-9" x="435.89" y="873.01" width="6.56" height="57.38" transform="translate(-536.35 1134.69) rotate(-77.46)"/><polygon class="cls-11" points="437.33 848.65 380.45 1104.5 593.15 1104.5 640.01 893.72 437.33 848.65"/><rect class="cls-9" x="522.88" y="831.51" width="6.56" height="156.73" transform="translate(-476.22 1226.01) rotate(-77.46)"/><rect class="cls-9" x="490.53" y="871.94" width="6.56" height="98.47" transform="translate(-512.58 1203.27) rotate(-77.46)"/><rect class="cls-9" x="518.77" y="863.75" width="6.56" height="164.39" transform="translate(-514.65 1250.23) rotate(-77.46)"/><rect class="cls-9" x="503.27" y="891.54" width="6.56" height="141.14" transform="translate(-542.57 1247.76) rotate(-77.46)"/><rect class="cls-9" x="499.59" y="908.09" width="6.56" height="141.14" transform="translate(-561.61 1257.13) rotate(-77.46)"/><rect class="cls-9" x="501.22" y="920.39" width="6.56" height="152.03" transform="translate(-577.64 1272.61) rotate(-77.46)"/><rect class="cls-9" x="525.38" y="1038.94" width="6.56" height="96.71" transform="translate(-647.46 1367.36) rotate(-77.46)"/><polygon class="cls-9" points="475.3 1104.5 501.88 1104.5 476.55 1098.87 475.3 1104.5"/><polygon class="cls-9" points="479.36 1086.23 477.93 1092.64 531.28 1104.5 534.07 1104.5 535.37 1098.69 479.36 1086.23"/><rect class="cls-6" x="215.97" y="710.52" width="207.63" height="278.63" transform="translate(-381.23 272.72) rotate(-29.92)"/><rect class="cls-10" x="188.82" y="762.79" width="156.73" height="6.56" transform="translate(-346.46 235.33) rotate(-29.92)"/><rect class="cls-10" x="201.7" y="792.96" width="98.47" height="6.56" transform="translate(-363.68 231.24) rotate(-29.92)"/><rect class="cls-10" x="206.3" y="792.18" width="164.39" height="6.56" transform="translate(-358.28 249.87) rotate(-29.92)"/><rect class="cls-10" x="217.4" y="814.57" width="141.14" height="6.56" transform="translate(-369.51 252.59) rotate(-29.92)"/><rect class="cls-10" x="225.86" y="829.27" width="141.14" height="6.56" transform="translate(-375.71 258.76) rotate(-29.92)"/><rect class="cls-10" x="233.59" y="841.25" width="152.03" height="6.56" transform="translate(-379.95 266.95) rotate(-29.92)"/><rect class="cls-10" x="340.43" y="892.02" width="96.71" height="6.56" transform="translate(-394.71 313.19) rotate(-29.92)"/><rect class="cls-10" x="354.19" y="917.64" width="83.94" height="6.56" transform="translate(-406.5 320.28) rotate(-29.92)"/><rect class="cls-10" x="349.5" y="913.05" width="57.38" height="6.56" transform="translate(-406.61 310.71) rotate(-29.92)"/><polygon class="cls-6" points="245.85 824.84 65.89 928.39 167.23 1104.5 318.48 1104.5 384.81 1066.34 245.85 824.84"/><rect class="cls-9" x="94.39" y="910.32" width="156.73" height="6.56" transform="translate(-432.61 207.88) rotate(-29.91)"/><rect class="cls-9" x="107.28" y="940.5" width="98.47" height="6.56" transform="translate(-449.84 203.81) rotate(-29.92)"/><rect class="cls-9" x="111.88" y="939.71" width="164.39" height="6.56" transform="translate(-444.45 222.44) rotate(-29.92)"/><rect class="cls-9" x="122.97" y="962.1" width="141.14" height="6.56" transform="translate(-455.68 225.16) rotate(-29.92)"/><rect class="cls-9" x="131.43" y="976.8" width="141.14" height="6.56" transform="translate(-461.88 231.33) rotate(-29.92)"/><rect class="cls-9" x="139.16" y="988.79" width="152.03" height="6.56" transform="translate(-466.11 239.51) rotate(-29.92)"/><rect class="cls-9" x="147.7" y="1004.03" width="156.73" height="6.56" transform="translate(-472.26 246.97) rotate(-29.92)"/><rect class="cls-9" x="160.59" y="1034.21" width="98.47" height="6.56" transform="translate(-489.48 242.89) rotate(-29.92)"/><rect class="cls-9" x="165.19" y="1033.42" width="164.39" height="6.56" transform="translate(-484.07 261.51) rotate(-29.92)"/><rect class="cls-9" x="176.29" y="1055.82" width="141.14" height="6.56" transform="translate(-495.32 264.24) rotate(-29.92)"/><polygon class="cls-9" points="314.84 1035.76 195.36 1104.5 208.53 1104.5 318.12 1041.45 314.84 1035.76"/><polygon class="cls-9" points="332.74 1045.02 229.37 1104.5 242.53 1104.5 336.01 1050.71 332.74 1045.02"/><polygon class="cls-6" points="1255.48 906.53 1210.39 1104.5 1423.33 1104.5 1457.92 952.64 1255.48 906.53"/><rect class="cls-9" x="1340.71" y="889.85" width="6.56" height="156.73" transform="translate(101.48 2063.61) rotate(-77.17)"/><rect class="cls-9" x="1308.3" y="930.11" width="6.56" height="98.47" transform="translate(65.41 2040.67) rotate(-77.17)"/><rect class="cls-9" x="1336.41" y="922.07" width="6.56" height="164.39" transform="translate(62.98 2087.46) rotate(-77.17)"/><rect class="cls-9" x="1320.82" y="949.78" width="6.56" height="141.14" transform="translate(35.17 2084.78) rotate(-77.17)"/><rect class="cls-9" x="1317.06" y="966.31" width="6.56" height="141.14" transform="translate(16.12 2093.97) rotate(-77.17)"/><rect class="cls-9" x="1318.6" y="978.61" width="6.56" height="152.03" transform="translate(0.02 2109.28) rotate(-77.17)"/><rect class="cls-9" x="1316.25" y="994.85" width="6.56" height="156.73" transform="translate(-19.93 2121.45) rotate(-77.17)"/><rect class="cls-9" x="1283.84" y="1035.11" width="6.56" height="98.47" transform="translate(-56 2098.51) rotate(-77.17)"/><polygon class="cls-9" points="1234.37 1094.21 1279.55 1104.5 1309.11 1104.5 1235.82 1087.81 1234.37 1094.21"/><polygon class="cls-11" points="0 1047.85 0 1104.5 206.7 1104.5 165.23 988.69 0 1047.85"/><rect class="cls-9" x="-0.82" y="1059.8" width="156.73" height="6.56" transform="translate(-353.8 88.35) rotate(-19.7)"/><polygon class="cls-9" points="101.45 1070.21 8.75 1103.4 9.14 1104.5 25.15 1104.5 103.67 1076.39 101.45 1070.21"/><polygon class="cls-9" points="169.59 1065 59.23 1104.5 78.71 1104.5 171.8 1071.18 169.59 1065"/><polygon class="cls-9" points="154.15 1090.86 116.04 1104.5 135.51 1104.5 156.36 1097.04 154.15 1090.86"/><rect class="cls-12" x="812.99" y="775.25" width="207.63" height="278.63" transform="translate(-358.82 691.54) rotate(-35.01)"/><rect class="cls-9" x="778.61" y="832.52" width="156.73" height="6.56" transform="translate(-324.46 642.98) rotate(-35.01)"/><rect class="cls-9" x="794.24" y="864.02" width="98.47" height="6.56" transform="translate(-344.98 640.93) rotate(-35.01)"/><rect class="cls-9" x="798.62" y="859.9" width="164.39" height="6.56" transform="translate(-335.86 661.6) rotate(-35.01)"/><rect class="cls-9" x="811.71" y="882.25" width="141.14" height="6.56" transform="translate(-348.41 666.48) rotate(-35.01)"/><rect class="cls-9" x="821.44" y="896.14" width="141.14" height="6.56" transform="translate(-354.62 674.56) rotate(-35.01)"/><rect class="cls-9" x="830.19" y="906.91" width="152.03" height="6.56" transform="translate(-358.23 684.67) rotate(-35.01)"/><rect class="cls-9" x="941.22" y="950.44" width="96.71" height="6.56" transform="translate(-368.12 740.38) rotate(-35.01)"/><rect class="cls-9" x="957.23" y="975.31" width="83.94" height="6.56" transform="translate(-380.64 750.41) rotate(-35.01)"/><rect class="cls-9" x="952.21" y="972.32" width="57.38" height="6.56" transform="matrix(0.82, -0.57, 0.57, 0.82, -382.25, 739.36)"/><polygon class="cls-13" points="926.24 875.69 947.62 1104.5 1156.16 1104.5 1132.97 856.37 926.24 875.69"/><rect class="cls-9" x="951.21" y="903.41" width="156.73" height="6.56" transform="translate(-79.89 99.73) rotate(-5.34)"/><rect class="cls-9" x="953.02" y="924.09" width="98.47" height="6.56" transform="translate(-81.93 97.26) rotate(-5.34)"/><rect class="cls-9" x="954.54" y="939" width="164.39" height="6.56" transform="translate(-83.17 100.54) rotate(-5.34)"/><rect class="cls-9" x="956.37" y="959.14" width="141.14" height="6.56" transform="translate(-85.08 99.71) rotate(-5.34)"/><rect class="cls-9" x="957.95" y="976.03" width="141.14" height="6.56" transform="translate(-86.65 99.93) rotate(-5.34)"/><rect class="cls-9" x="959.5" y="992.41" width="152.03" height="6.56" transform="translate(-88.15 100.67) rotate(-5.34)"/><rect class="cls-9" x="1038.05" y="1071.5" width="96.71" height="6.56" transform="translate(-95.29 105.75) rotate(-5.34)"/><polygon class="cls-9" points="1123.94 1093.99 1040.36 1101.8 1040.62 1104.5 1081.94 1104.5 1124.55 1100.52 1123.94 1093.99"/><rect class="cls-9" x="1039.34" y="1086.22" width="57.38" height="6.56" transform="translate(-96.72 104.08) rotate(-5.34)"/><rect class="cls-6" x="947.92" y="603.85" width="207.63" height="278.63" transform="translate(-144.62 266.54) rotate(-13.52)"/><rect class="cls-10" x="939.96" y="660.72" width="156.73" height="6.56" transform="translate(-127.04 256.53) rotate(-13.52)"/><rect class="cls-10" x="944.98" y="685.09" width="98.47" height="6.56" transform="translate(-133.4 251.57) rotate(-13.52)"/><rect class="cls-10" x="948.28" y="694.94" width="164.39" height="6.56" transform="translate(-134.71 260.33) rotate(-13.52)"/><rect class="cls-10" x="953.08" y="716.27" width="141.14" height="6.56" transform="translate(-139.88 259.31) rotate(-13.52)"/><rect class="cls-10" x="957.04" y="732.76" width="141.14" height="6.56" transform="translate(-143.63 260.71) rotate(-13.52)"/><rect class="cls-10" x="960.86" y="747.97" width="152.03" height="6.56" transform="translate(-146.92 263.29) rotate(-13.52)"/><rect class="cls-10" x="1050.15" y="819.02" width="96.71" height="6.56" transform="translate(-161.84 279.7) rotate(-13.52)"/><rect class="cls-10" x="1056.38" y="845.68" width="83.94" height="6.56" transform="translate(-168.07 280.37) rotate(-13.52)"/><rect class="cls-10" x="1053.72" y="836.2" width="57.38" height="6.56" transform="translate(-166.28 276.36) rotate(-13.52)"/><polygon class="cls-6" points="1045.97 905.17 1064.59 1104.5 1273.12 1104.5 1252.69 885.86 1045.97 905.17"/><rect class="cls-10" x="1070.93" y="932.89" width="156.73" height="6.56" transform="translate(-82.13 111.02) rotate(-5.34)"/><rect class="cls-10" x="1072.74" y="953.58" width="98.47" height="6.56" transform="translate(-84.15 108.53) rotate(-5.34)"/><rect class="cls-10" x="1077.87" y="1008.45" width="98.47" height="6.56" transform="translate(-89.23 109.24) rotate(-5.34)"/><rect class="cls-10" x="1074.26" y="968.49" width="164.39" height="6.56" transform="translate(-85.42 111.84) rotate(-5.34)"/><rect class="cls-10" x="1076.09" y="988.63" width="141.14" height="6.56" transform="translate(-87.32 111) rotate(-5.34)"/><polygon class="cls-6" points="1599.98 1037.32 1517.72 867.59 1330.88 958.14 1401.82 1104.5 1599.98 1104.5 1599.98 1037.32"/><rect class="cls-9" x="1361.61" y="950.39" width="156.73" height="7.1" transform="translate(-271.87 723.48) rotate(-25.86)"/><rect class="cls-9" x="1373.04" y="980.67" width="98.47" height="7.1" transform="translate(-286.86 718.84) rotate(-25.86)"/><rect class="cls-10" x="1378.25" y="983.88" width="164.39" height="7.1" transform="translate(-284.43 735.77) rotate(-25.86)"/><rect class="cls-10" x="1388.45" y="1007.6" width="141.14" height="7.1" transform="translate(-294.91 737.52) rotate(-25.86)"/><rect class="cls-10" x="1396.45" y="1024.11" width="141.14" height="7.1" transform="translate(-301.32 742.67) rotate(-25.86)"/><rect class="cls-10" x="1403.91" y="1038.24" width="152.03" height="7.1" transform="translate(-306.19 749.74) rotate(-25.86)"/><polygon class="cls-10" points="1599.98 1080.05 1549.52 1104.5 1565.8 1104.5 1599.98 1087.94 1599.98 1080.05"/><rect class="cls-9" x="1401.6" y="750.37" width="6.56" height="156.73" transform="translate(255.13 1985.69) rotate(-75.72)"/><rect class="cls-9" x="1368.92" y="789.81" width="6.56" height="98.47" transform="translate(220.52 1961.78) rotate(-75.72)"/><rect class="cls-9" x="1396.39" y="782.47" width="6.56" height="164.39" transform="translate(216.38 2007.71) rotate(-75.72)"/><rect class="cls-9" x="1380.4" y="809.78" width="6.56" height="141.14" transform="translate(189.14 2004.03) rotate(-75.72)"/><rect class="cls-9" x="1376.22" y="826.21" width="6.56" height="141.14" transform="translate(170.06 2012.35) rotate(-75.72)"/><rect class="cls-9" x="1377.31" y="838.55" width="6.56" height="152.03" transform="translate(153.66 2026.8) rotate(-75.72)"/><rect class="cls-11" x="1188.1" y="410.74" width="174.35" height="248.25" transform="translate(650.13 1768.4) rotate(-85.88)"/><rect class="cls-9" x="1164.52" y="538.36" width="131.6" height="5.85" transform="translate(602.01 1729.52) rotate(-85.88)"/><rect class="cls-9" x="1203.27" y="563.91" width="82.68" height="5.85" transform="translate(589.8 1767.49) rotate(-85.88)"/><rect class="cls-9" x="1193.62" y="537.48" width="138.03" height="5.85" transform="matrix(0.07, -1, 1, 0.07, 632.88, 1760.93)"/><rect class="cls-9" x="1219.7" y="548.44" width="118.51" height="5.85" transform="translate(637.09 1787.38) rotate(-85.88)"/><rect class="cls-9" x="1234.77" y="549.53" width="118.51" height="5.85" transform="matrix(0.07, -1, 1, 0.07, 649.99, 1803.42)"/><rect class="cls-9" x="1245.59" y="546.05" width="127.66" height="5.85" transform="translate(667.75 1815.55) rotate(-85.88)"/><rect class="cls-8" x="1271.46" y="794.51" width="278.63" height="207.63" transform="translate(176.81 2027.31) rotate(-74.94)"/><rect class="cls-9" x="1429.48" y="723.53" width="6.56" height="156.73" transform="translate(286.21 1977.16) rotate(-74.94)"/><rect class="cls-9" x="1396.66" y="762.53" width="6.56" height="98.47" transform="translate(252.39 1952.77) rotate(-74.94)"/><rect class="cls-9" x="1423.79" y="755.56" width="6.56" height="164.39" transform="translate(247.37 1998.21) rotate(-74.94)"/><rect class="cls-9" x="1407.59" y="782.65" width="6.56" height="141.14" transform="translate(220.44 1994.01) rotate(-74.94)"/><rect class="cls-9" x="1403.18" y="799.03" width="6.56" height="141.14" transform="translate(201.36 2001.88) rotate(-74.94)"/><rect class="cls-9" x="1404.04" y="811.37" width="6.56" height="152.03" transform="translate(184.81 2015.88) rotate(-74.94)"/><rect class="cls-9" x="1424.17" y="930.9" width="6.56" height="96.71" transform="translate(111 2103.33) rotate(-74.94)"/><rect class="cls-9" x="1411.28" y="960.63" width="6.56" height="83.94" transform="translate(78.91 2108.16) rotate(-74.94)"/><rect class="cls-9" x="1401.82" y="957.96" width="6.56" height="57.38" transform="translate(87.31 2087.21) rotate(-74.94)"/><rect class="cls-11" x="566.05" y="685.83" width="199" height="256.43" transform="translate(-226.98 258.15) rotate(-18.82)"/><rect class="cls-9" x="557.65" y="726.1" width="150.21" height="6.04" transform="translate(-201.35 243.05) rotate(-18.82)"/><rect class="cls-9" x="564.5" y="750.83" width="94.37" height="6.04" transform="translate(-210.44 237.56) rotate(-18.82)"/><rect class="cls-9" x="568.15" y="756.38" width="157.55" height="6.04" transform="translate(-210.34 249.21) rotate(-18.81)"/><rect class="cls-9" x="574.43" y="776.65" width="135.27" height="6.04" transform="translate(-217.14 248.73) rotate(-18.81)"/><rect class="cls-9" x="579.47" y="791.42" width="135.27" height="6.04" transform="translate(-221.64 251.15) rotate(-18.82)"/><rect class="cls-9" x="584.22" y="804.51" width="145.71" height="6.04" transform="translate(-225.32 255.05) rotate(-18.81)"/><rect class="cls-9" x="674.8" y="863.86" width="92.69" height="6.04" transform="translate(-241.05 278.91) rotate(-18.82)"/><rect class="cls-9" x="682.81" y="888.39" width="80.45" height="6.04" transform="translate(-248.84 280.81) rotate(-18.81)"/><rect class="cls-9" x="679.65" y="881.21" width="54.99" height="6.04" transform="translate(-247.38 275.3) rotate(-18.81)"/><polygon class="cls-6" points="462.05 680.38 426.5 902.35 618.85 933.05 665.76 665.36 521.02 635.15 462.05 680.38"/><polygon class="cls-11" points="512.2 686.04 521.02 635.15 462.05 680.38 512.2 686.04"/><polygon class="cls-10" points="456.22 821.42 620.12 847.08 620.39 845.42 620.49 841.83 457.03 816 456.22 821.42"/><polygon class="cls-10" points="460.13 795.29 594.51 816.13 594.74 814.59 594.83 811.24 460.88 790.28 460.13 795.29"/><polygon class="cls-10" points="462.22 781.37 613.81 805.46 614.07 803.71 614.2 799.92 463.07 775.67 462.22 781.37"/><polygon class="cls-10" points="470.7 724.69 614.44 746.14 614.68 744.19 614.76 739.97 471.65 718.37 470.7 724.69"/><polygon class="cls-10" points="453.93 836.72 585.27 856.72 585.5 855.22 585.62 851.97 454.66 831.85 453.93 836.72"/><polygon class="cls-10" points="458.17 808.4 558.72 824.51 558.97 822.83 559.2 819.21 458.98 803.01 458.17 808.4"/><polygon class="cls-10" points="464.11 768.74 560.74 781.42 560.94 779.45 561.1 775.2 465.05 762.43 464.11 768.74"/><polygon class="cls-10" points="466.32 753.92 575.05 768.63 575.21 767.1 575.24 763.81 467.06 749.03 466.32 753.92"/><polygon class="cls-10" points="468.32 740.58 569.21 754.59 569.41 752.64 569.55 748.47 469.25 734.37 468.32 740.58"/><polygon class="cls-6" points="246.72 894.97 254.73 1104.5 478.35 1104.5 466.82 885.6 246.72 894.97"/><polygon class="cls-9" points="274.47 1000.73 274.8 1007.03 461.06 1000.09 461.45 995.77 461.38 993.76 274.47 1000.73"/><polygon class="cls-9" points="276.06 1031 276.37 1036.77 427.16 1032.52 427.49 1028.57 427.44 1026.73 276.06 1031"/><polygon class="cls-9" points="276.91 1047.03 277.25 1053.57 447.93 1048.76 448.3 1044.29 448.24 1042.19 276.91 1047.03"/><polygon class="cls-9" points="273.53 982.9 273.83 988.59 421.95 983.06 422.25 979.18 422.18 977.36 273.53 982.9"/><polygon class="cls-9" points="275.26 1015.84 275.59 1022.08 387.62 1017.9 387.81 1013.64 387.73 1011.64 275.26 1015.84"/><polygon class="cls-9" points="278.05 1068.72 384.35 1069.16 384.69 1064.25 384.7 1061.95 277.67 1061.5 278.05 1068.72"/><polygon class="cls-9" points="278.86 1083.99 398.8 1084.49 399.18 1080.7 399.19 1078.92 278.56 1078.43 278.86 1083.99"/><polygon class="cls-9" points="279.73 1100.63 390.52 1101.09 390.88 1096.31 390.89 1094.06 279.36 1093.6 279.73 1100.63"/><polygon class="cls-14" points="235 814.87 96.98 731.6 20.11 758.17 0 796.37 0 1030.71 90.72 1079.64 235 814.87"/><polygon class="cls-8" points="69.65 781.97 96.98 731.6 20.11 758.17 69.65 781.97"/><polygon class="cls-9" points="122.72 973.04 0 906.02 0 912.95 119.89 978.42 122.72 973.04"/><polygon class="cls-9" points="6.96 879.94 6.09 881.5 133.49 952.59 136.08 947.66 9.17 876.84 6.96 879.94"/><polygon class="cls-9" points="143.63 933.32 0 853.17 0 860.39 140.69 938.9 143.63 933.32"/><polygon class="cls-9" points="37.71 803 36.59 804.88 169.7 883.78 172.91 877.7 40.48 799.21 37.71 803"/><polygon class="cls-9" points="114.43 988.79 0 926.29 0 932.54 111.88 993.64 114.43 988.79"/><polygon class="cls-9" points="32.44 911.87 31.52 913.55 126.67 965.53 129.48 960.2 34.69 908.43 32.44 911.87"/><polygon class="cls-9" points="59.97 871.51 58.83 873.41 147.2 926.54 150.44 920.38 62.67 867.61 59.97 871.51"/><polygon class="cls-9" points="56.09 850.75 55.21 852.22 154.8 912.1 157.3 907.35 58.27 847.81 56.09 850.75"/><polygon class="cls-9" points="70.65 841.92 69.53 843.78 161.62 899.14 164.78 893.14 73.31 838.14 70.65 841.92"/><polygon class="cls-11" points="1599.98 807.96 1567.72 789.27 1416.33 844.63 1498.61 1104.5 1595.81 1104.5 1599.98 1103.2 1599.98 807.96"/><polygon class="cls-8" points="1584.92 843.93 1599.98 840 1599.98 807.96 1567.72 789.27 1584.92 843.93"/><polygon class="cls-9" points="1498.07 1027.17 1599.98 994.79 1599.98 988.41 1496.31 1021.34 1498.07 1027.17"/><polygon class="cls-9" points="1489.65 999.21 1599.98 963.05 1599.98 957.19 1488.05 993.87 1489.65 999.21"/><polygon class="cls-9" points="1485.2 984.4 1599.98 946.78 1599.98 940.14 1483.38 978.35 1485.2 984.4"/><polygon class="cls-9" points="1467.25 924.75 1599.98 877.38 1599.98 870.09 1465.27 918.17 1467.25 924.75"/><polygon class="cls-9" points="1503.02 1043.64 1599.98 1012.83 1599.98 1007.08 1501.44 1038.38 1503.02 1043.64"/><polygon class="cls-9" points="1595.07 974.74 1492.13 1007.44 1493.87 1013.21 1597.2 980.38 1596.62 978.55 1595.07 974.74"/><polygon class="cls-9" points="1575.4 929.33 1479.17 964.35 1481.17 971.02 1578.07 935.76 1577.31 933.67 1575.4 929.33"/><polygon class="cls-9" points="1583.51 910.73 1474.92 950.25 1476.47 955.39 1585.67 915.65 1585.09 914.04 1583.51 910.73"/><polygon class="cls-9" points="1570.6 898.37 1470.3 934.87 1472.25 941.37 1573.22 904.63 1572.48 902.59 1570.6 898.37"/><polygon class="cls-6" points="612.56 878.21 633.6 1104.5 842.12 1104.5 819.29 858.99 612.56 878.21"/><rect class="cls-9" x="637.51" y="905.98" width="156.73" height="6.56" transform="translate(-81.11 70.19) rotate(-5.31)"/><rect class="cls-9" x="639.31" y="926.65" width="98.47" height="6.56" transform="translate(-83.14 67.75) rotate(-5.31)"/><rect class="cls-9" x="640.82" y="941.57" width="164.39" height="6.56" transform="translate(-84.38 71) rotate(-5.31)"/><rect class="cls-9" x="642.64" y="961.71" width="141.14" height="6.56" transform="translate(-86.28 70.18) rotate(-5.31)"/><rect class="cls-9" x="644.22" y="978.6" width="141.14" height="6.56" transform="translate(-87.84 70.4) rotate(-5.31)"/><rect class="cls-9" x="645.76" y="994.98" width="152.03" height="6.56" transform="translate(-89.33 71.12) rotate(-5.31)"/><rect class="cls-9" x="724.27" y="1074.1" width="96.71" height="6.56" transform="translate(-96.44 76.17) rotate(-5.31)"/><polygon class="cls-9" points="810.15 1096.6 726.57 1104.37 726.59 1104.5 796.06 1104.5 810.76 1103.14 810.15 1096.6"/><rect class="cls-9" x="725.56" y="1088.81" width="57.38" height="6.56" transform="translate(-97.86 74.51) rotate(-5.31)"/><polygon class="cls-6" points="1202.76 682.8 1110.14 884.9 1281.3 965.44 1396.76 722.77 1269.87 655.4 1202.76 682.8"/><polygon class="cls-8" points="1248.01 701.56 1269.87 655.4 1202.76 682.8 1248.01 701.56"/><polygon class="cls-10" points="1158.1 803.23 1157.36 804.8 1302.31 873.94 1304.57 869.01 1160.12 800.11 1158.1 803.23"/><polygon class="cls-10" points="1197 791.81 1196.31 793.24 1313.15 850.28 1315.22 845.77 1198.82 788.94 1197 791.81"/><polygon class="cls-10" points="1187.43 771.57 1186.64 773.18 1318.89 837.75 1321.24 832.64 1189.49 768.32 1187.43 771.57"/><polygon class="cls-10" points="1220.61 721.83 1219.71 723.57 1342.02 787.29 1344.58 781.72 1222.9 718.33 1220.61 721.83"/><polygon class="cls-10" points="1181.31 831.48 1180.64 832.88 1295.92 887.87 1297.96 883.43 1183.09 828.63 1181.31 831.48"/><polygon class="cls-10" points="1221.24 818.98 1220.5 820.53 1307.72 862.13 1309.96 857.25 1223.08 815.81 1221.24 818.98"/><polygon class="cls-10" points="1243.77 781.72 1242.85 783.47 1324.08 826.44 1326.66 820.79 1245.98 778.12 1243.77 781.72"/><polygon class="cls-10" points="1239.3 763.44 1238.59 764.79 1330.14 813.21 1332.13 808.86 1241.09 760.71 1239.3 763.44"/><polygon class="cls-10" points="1251.83 754.87 1250.92 756.58 1335.58 801.35 1338.1 795.85 1254.01 751.38 1251.83 754.87"/><polygon class="cls-6" points="845.41 916.96 772.2 1104.5 995.09 1104.5 1038.82 992.46 845.41 916.96"/><rect class="cls-7" x="920.56" y="912.67" width="6.56" height="156.73" transform="translate(-335.29 1491.24) rotate(-68.68)"/><rect class="cls-7" x="886.86" y="948.02" width="6.56" height="98.47" transform="translate(-362.54 1463.81) rotate(-68.68)"/><rect class="cls-7" x="910.98" y="943.86" width="6.56" height="164.39" transform="translate(-374.01 1504.61) rotate(-68.68)"/><rect class="cls-7" x="893.19" y="969.09" width="6.56" height="141.14" transform="translate(-398.01 1496.69) rotate(-68.68)"/><rect class="cls-7" x="887.03" y="984.89" width="6.56" height="141.14" transform="translate(-416.65 1501) rotate(-68.68)"/><rect class="cls-7" x="885.93" y="997.22" width="6.56" height="152.03" transform="translate(-433.9 1511.29) rotate(-68.68)"/><polygon class="cls-7" points="811.46 1063.38 916.8 1104.5 934.86 1104.5 813.85 1057.27 811.46 1063.38"/><polygon class="cls-7" points="805.29 1079.18 870.17 1104.5 888.22 1104.5 807.68 1073.06 805.29 1079.18"/><polygon class="cls-7" points="799.13 1094.98 823.53 1104.5 841.59 1104.5 801.51 1088.86 799.13 1094.98"/><rect class="cls-6" x="671.54" y="69.74" width="272.35" height="469.65" transform="translate(175.61 892.44) rotate(-63.58)"/><polygon class="cls-15" points="711.44 230.35 700.7 224.99 725.35 175.65 689.47 157.73 620.56 295.71 656.44 313.63 685.38 255.67 696.12 261.04 667.18 318.99 703.06 336.91 771.96 198.93 736.08 181.01 711.44 230.35"/><polygon class="cls-15" points="717.46 344.1 779.67 375.17 793.47 347.56 767.13 334.41 782.28 304.07 804.7 315.26 817.8 289.01 795.39 277.82 808.46 251.65 832.41 263.61 846.2 236 786.37 206.12 717.46 344.1"/><polygon class="cls-15" points="858.89 242.34 789.99 380.32 847.68 409.14 861.48 381.52 839.66 370.63 894.77 260.26 858.89 242.34"/><path class="cls-15" d="M982.81,307.1q-6.73-6.24-21.39-13.56l-36.14-18-68.91,138,35.88,17.92L920,375.83l9.63,4.81q11.76,5.87,20.67,6.27T965,382.62q5.75-4.69,12.35-17.9l6-12q6.47-13,8.15-19.84a25.51,25.51,0,0,0-.11-13.21Q989.55,313.34,982.81,307.1Zm-27.68,27-5.66,11.33q-3.83,7.67-7,9.14t-8.07-1q-1.11-.55-2.6-1.4L949.38,317q7,3.49,8.14,6.73T955.14,334.06Z"/></svg>