<svg height="511pt" viewBox="1 -16 511.99988 511" width="511pt" xmlns="http://www.w3.org/2000/svg"><path d="m411.207031 229.828125c-5.859375-5.859375-15.359375-5.859375-21.214843 0l-128.53125 128.53125c-5.859376 5.855469-5.859376 15.355469 0 21.214844l96.398437 96.398437c5.859375 5.859375 15.355469 5.859375 21.214844 0 0 0 128.53125-128.535156 128.53125-128.535156 5.859375-5.855469 5.859375-15.351562 0-21.210938zm0 0" fill="#e8afa3"/><path d="m507.605469 326.226562-96.398438-96.398437c-5.859375-5.859375-15.359375-5.859375-21.214843 0l-64.265626 64.265625 117.613282 117.613281c32.132812-32.132812 64.265625-64.269531 64.265625-64.269531 5.859375-5.855469 5.859375-15.351562 0-21.210938zm0 0" fill="#d19188"/><path d="m197.1875 58.242188 32.132812 32.132812c4.566407 4.5625 11.542969 5.695312 17.316407 2.808594l64.265625-32.132813c9.78125-4.867187 10.664062-17.265625 3.90625-24.023437l-32.136719-32.132813c-4.5625-4.566406-11.542969-5.695312-17.3125-2.8125l-64.269531 32.132813c-8.902344 4.453125-11.328125 16.601562-3.902344 24.027344zm0 0" fill="#d19188"/><path d="m132.925781 475.972656c5.859375 5.859375 15.359375 5.855469 21.214844 0l92.007813-92.007812h25.921874c24.726563 0 47.972657-9.628906 65.457032-27.113282l101.804687-101.804687c16.910157-16.910156 16.917969-44.417969.023438-61.335937-.019531-.023438-.039063-.039063-.058594-.058594-4.179687-4.175782-9.0625-7.394532-14.378906-9.546875 4.609375-11.660157 5.585937-31.382813-9.683594-46.652344-.042969-.039063-.082031-.078125-.121094-.121094-4.160156-4.132812-9.015625-7.320312-14.292969-9.457031 4.605469-11.65625 5.582032-31.375-9.679687-46.644531-.007813-.011719-.015625-.019531-.023437-.027344-4.1875-4.183594-9.074219-7.410156-14.398438-9.5625 4.609375-11.660156 5.582031-31.382813-9.683594-46.652344-.003906-.003906-.007812-.007812-.007812-.007812-.003906-.003907-.007813-.007813-.011719-.011719-16.917969-16.917969-44.445313-16.917969-61.363281 0l-301.257813 301.257812c-5.859375 5.859376-5.859375 15.355469 0 21.210938zm0 0" fill="#ffece3"/><g fill="#e8afa3"><path d="m270.542969 134.636719c12.558593-12.558594 12.558593-32.914063 0-45.472657l-64.109375-64.109374c-12.554688-12.554688-32.914063-12.554688-45.46875 0-12.554688 12.558593-12.554688 32.914062 0 45.472656l64.109375 64.109375c12.554687 12.554687 32.914062 12.554687 45.46875 0zm0 0"/><path d="m225.074219 180.105469c12.554687-12.554688 12.554687-32.914063 0-45.46875l-56.074219-56.078125c-12.558594-12.554688-32.914062-12.554688-45.472656 0-12.554688 12.558594-12.554688 32.914062 0 45.472656l56.078125 56.074219c12.554687 12.554687 32.914062 12.554687 45.46875 0zm0 0"/><path d="m179.605469 225.574219c12.554687-12.554688 12.554687-32.914063 0-45.46875l-40.011719-40.011719c-12.554688-12.554688-32.914062-12.554688-45.46875 0-12.554688 12.558594-12.554688 32.914062 0 45.472656l40.007812 40.007813c12.558594 12.558593 32.914063 12.558593 45.472657 0zm0 0"/><path d="m134.132812 271.046875c12.558594-12.558594 12.558594-32.914063 0-45.472656l-23.941406-23.941407c-12.554687-12.554687-32.914062-12.554687-45.46875 0-12.558594 12.554688-12.558594 32.914063 0 45.46875l23.941406 23.945313c12.554688 12.554687 32.914063 12.554687 45.46875 0zm0 0"/></g><path d="m439.355469 193.710938c-.019531-.023438-.039063-.039063-.058594-.058594-4.179687-4.175782-9.0625-7.394532-14.378906-9.546875 4.609375-11.660157 5.585937-31.382813-9.683594-46.652344-.042969-.039063-.082031-.082031-.121094-.121094-4.160156-4.132812-9.015625-7.324219-14.292969-9.460937 4.191407-10.601563 5.371094-27.867188-5.929687-42.394532l-326.230469 326.230469 64.265625 64.265625c5.859375 5.859375 15.359375 5.859375 21.214844 0l92.007813-92.007812h25.921874c24.722657 0 47.972657-9.628906 65.457032-27.113282l101.804687-101.804687c16.910157-16.910156 16.914063-44.417969.023438-61.335937zm0 0" fill="#ffdccd"/></svg>