<svg id="color" enable-background="new 0 0 24 24" height="512" viewBox="0 0 24 24" width="512" xmlns="http://www.w3.org/2000/svg"><circle cx="19" cy="15" fill="#2196f3" r="3"/><path d="m14.04 15.052-.751-2.745c1.73-1.334 2.711-3.23 2.711-5.274 0-3.878-3.589-7.033-8-7.033s-8 3.155-8 7.033 3.589 7.033 8 7.033c.397 0 .799-.026 1.196-.08l3.779 1.932c.108.055.225.082.341.082.169 0 .337-.057.474-.168.231-.187.328-.493.25-.78z" fill="#ffc107"/><path d="m21.25 19h-4.5c-1.517 0-2.75 1.233-2.75 2.75v1.5c0 .414.336.75.75.75h8.5c.414 0 .75-.336.75-.75v-1.5c0-1.517-1.233-2.75-2.75-2.75z" fill="#2196f3"/></svg>