<svg id="Layer_1" data-name="Layer 1" xmlns="http://www.w3.org/2000/svg" viewBox="0 0 3000 3000"><defs><style>.cls-1{fill:blue;fill-rule:evenodd;}</style></defs><title>Image 36.C [Converted]</title><path class="cls-1" d="M1576.77,837.11c109.19-2.43,197.81-91.17,200-200.37,2.35-114.63-90.51-208.89-204.67-208.89-112.67,0-204.64,91.93-204.64,204.64C1367.51,746.76,1462,839.66,1576.77,837.11Z"/><path class="cls-1" d="M2053.39,2444.26l-62.83-461.36c-2.39-17.74-10.62-32.21-24.64-43.24-99.79-79-203-174.79-299.45-257.35-15.68-13.39-23.87-31.21-23.87-51.83V1464.89a21.41,21.41,0,0,1,34.37-17l224.65,170.82c36,27.34,87.76,20.33,115.1-15.61s20.33-87.8-15.61-115.14l-301.59-229.3a144.19,144.19,0,0,1-56.92-114.78V1033.05c0-146.53-193.83-230.31-266.28-171.69l-293.84,216.92c-14.94,11-23.83,25.64-26.86,43.9l-72,441.41c-7.27,44.56,29,85.25,73.89,89.53s82.3-29.4,89.61-74l61-374c3.1-18.74,12.55-33.87,28.11-44.79l29.82-20.95a7.14,7.14,0,0,1,11.24,5.84v392.77c0,65,3,83.85,30,114.45a52.58,52.58,0,0,1,6.94,59.27L958.38,2387.33c-28.74,54.27-7.49,122.08,46.89,150.63s122.08,7.45,150.59-46.85L1500,1832.71l-.54-.51c98.26,84.11,202.85,167.07,253.42,208.46a66.12,66.12,0,0,1,24.35,43.24l55.56,393c8.56,60.76,66,103,126.65,94S2061.66,2505,2053.39,2444.26Z"/></svg>