<?xml version="1.0" encoding="utf-8"?>
<!-- Generator: Adobe Illustrator 21.1.0, SVG Export Plug-In . SVG Version: 6.00 Build 0)  -->
<svg version="1.1" id="Salad" xmlns="http://www.w3.org/2000/svg" xmlns:xlink="http://www.w3.org/1999/xlink" x="0px" y="0px"
	 viewBox="0 0 800 800" style="enable-background:new 0 0 800 800;" xml:space="preserve">
<style type="text/css">
	.st0{fill:#81AF32;}
	.st1{fill:#658F20;}
	.st2{fill:#EA4A20;}
	.st3{fill:#B3D266;}
	.st4{fill:#658F20;stroke:#658F20;stroke-width:2;stroke-miterlimit:10;}
	.st5{fill:#933D6F;}
	.st6{fill:#F9E1F1;}
	.st7{fill:#FF7415;}
	.st8{fill:#FF8735;}
	.st9{fill:#FF9550;}
	.st10{fill:#FF7248;}
	.st11{fill:#7FAA28;}
	.st12{fill:#699228;}
	.st13{fill:#D4B3C6;}
	.st14{opacity:0.1;}
	.st15{opacity:0.1;fill:#FFFFFF;}
</style>
<g id="greens">
	<path class="st0" d="M365.5,286.5c-11.5,3.5-20.4,1.1-21.7-2.7c-1.1-3.4,3.3-8.9,10.1-13.2c-12.7,4.8-21.1-0.8-19.8-6.5
		c0.8-3.4,1.8-6,6-9.9c2.5-5.7,6.6-10.6,11.1-10.5c6.3,0.1,9.4,7.4,7.9,19.6c5.4-4.6,11.6-7.2,15.1-5.2c4.4,2.5,5.5,13.1-1.2,24.7
		L365.5,286.5z"/>
	<path class="st1" d="M371.5,294.4c0,0-12.6-31.6-31.4-40.2c0,0,2-0.5,9.9,4.3c11.6,7.1,18.1,17.2,22.3,24.3c2,3.4,3.4,6.3,4.3,8.2
		C374.9,292.2,373.2,293.3,371.5,294.4z"/>
</g>
<path id="pepper_2_" class="st2" d="M306.5,313.1l-5.7-9.3c0,0,0.2-0.1,0.3-0.2c0.3-0.2,0.5-0.3,0.8-0.5c7.7-5,11.7-10.3,11.8-15.8
	c0.1-3.9-1.6-6.9-2-7.5l-6.3-8.3l8.7-6.5c0,0,4.3-3.3,6.8-8.3c2.8-5.4,2.4-10.2-1.3-15.6c-2.4-3.5-5.1-5.6-8.4-6.5l3.9-10.3
	c4.7,1.5,9.5,4.7,13.5,10.6c14.9,21.6-7.9,38.8-7.9,38.8s14.7,20.9-12.9,38.6C307.3,312.6,306.5,313.1,306.5,313.1z"/>
<g id="greens_1_">
	<path class="st0" d="M311.6,375.2c-30.1,5.2-52-3.4-54.1-13.5c-1.8-8.8,11-21.5,29.5-30.2c-33.7,8.3-50-10.4-52.9-24.8
		c-2.1-10.6,9.8-11.6,23.2-20.8c8.2-13.6,20-24.7,31.2-23.2c15.9,2.1,21.5,21.7,13.9,52.1c15-10,31.5-14.7,39.7-8.5
		c10.3,7.8,9.8,34.8-10.8,62.1L311.6,375.2z"/>
	<path class="st1" d="M324.3,397.1c0,0-21.9-83.8-67-111.2c0,0,5.3-0.5,23.7,14c27.2,21.5,40.4,49.1,48.8,68.4
		c4,9.2,6.7,17,8.3,22.1C333.5,392.6,328.9,394.9,324.3,397.1z"/>
</g>
<g id="cucumber_2_">
	<circle class="st1" cx="413.9" cy="279.6" r="43.7"/>
	<path class="st3" d="M413.9,312.3c-18.1,0-32.8-14.7-32.8-32.8c0-18.1,14.7-32.8,32.8-32.8c18.1,0,32.8,14.7,32.8,32.8
		C446.7,297.6,432,312.3,413.9,312.3z"/>
	<path class="st4" d="M418.3,264.3c0,3.6-4.4,6.6-4.4,6.6s-4.4-2.9-4.4-6.6s4.4-6.6,4.4-6.6S418.3,260.7,418.3,264.3z"/>
	<path class="st4" d="M402.9,268.2c3.1,1.8,3.5,7.1,3.5,7.1s-4.7,2.3-7.9,0.5c-3.1-1.8-3.5-7.1-3.5-7.1S399.8,266.3,402.9,268.2z"/>
	<path class="st4" d="M398.6,283.4c3.1-1.8,7.9,0.5,7.9,0.5s-0.4,5.3-3.5,7.1c-3.1,1.8-7.9-0.5-7.9-0.5S395.4,285.2,398.6,283.4z"/>
	<path class="st4" d="M409.6,294.8c0-3.6,4.4-6.6,4.4-6.6s4.4,2.9,4.4,6.6c0,3.6-4.4,6.6-4.4,6.6S409.6,298.4,409.6,294.8z"/>
	<path class="st4" d="M424.9,291c-3.1-1.8-3.5-7.1-3.5-7.1s4.7-2.3,7.9-0.5c3.1,1.8,3.5,7.1,3.5,7.1S428.1,292.8,424.9,291z"/>
	<path class="st4" d="M429.3,275.7c-3.1,1.8-7.9-0.5-7.9-0.5s0.4-5.3,3.5-7.1c3.1-1.8,7.9,0.5,7.9,0.5S432.4,273.9,429.3,275.7z"/>
</g>
<g id="onion_1_">
	<path class="st5" d="M308.6,302.6c18.5-20.5,49.8-22.4,70.6-3.7l3.3-3.7c-22.3-20.1-57.3-18.5-77.7,4c-20.3,22.6-18.3,57.6,4,77.7
		l3.3-3.7C291.4,354.5,290.1,323.2,308.6,302.6z"/>
	<path class="st6" d="M308.6,302.6c-18.5,20.5-17.1,51.9,3.7,70.6l6.7-7.4c-16.3-14.7-17.7-40.1-2.9-56.5
		c14.8-16.4,40.2-17.7,56.5-2.9l6.7-7.4C358.4,280.2,327.1,282.1,308.6,302.6z"/>
	<path class="st5" d="M319.7,312.7c12.9-14.4,35.3-15.3,49.4-2.6l3.3-3.7c-16.3-14.7-41.7-13.5-56.5,2.9
		c-14.8,16.4-13.4,41.8,2.9,56.5l3.3-3.7C308.2,349.4,306.8,327,319.7,312.7z"/>
	<path class="st6" d="M319.7,312.7c-12.9,14.4-11.6,36.7,2.6,49.4l6.7-7.4c-10.4-9.4-11.1-25.1-1.8-35.3s24.9-11.2,35.3-1.8l6.7-7.4
		C355.1,297.4,332.7,298.3,319.7,312.7z"/>
	<path class="st5" d="M330.9,322.7c7.4-8.2,20.1-8.8,28.2-1.5l3.3-3.7c-10.4-9.4-26.1-8.4-35.3,1.8s-8.6,25.9,1.8,35.3l3.3-3.7
		C324.2,343.6,323.5,330.9,330.9,322.7z"/>
	<path class="st6" d="M330.9,322.7c-7.4,8.2-6.7,20.9,1.5,28.2l5-5.6c-5.2-4.7-5.5-12.5-0.9-17.7c4.6-5.1,12.5-5.6,17.7-0.9l5-5.6
		C350.9,313.9,338.3,314.5,330.9,322.7z"/>
	<path class="st5" d="M340.2,331.1c2.8-3.1,7.6-3.2,10.6-0.5l3.3-3.7c-5.2-4.7-13-4.2-17.7,0.9c-4.6,5.1-4.3,13,0.9,17.7l3.3-3.7
		C337.7,339,337.4,334.2,340.2,331.1z"/>
	<path class="st6" d="M340.2,331.1c-2.8,3.1-2.4,7.9,0.5,10.6l10-11.1C347.8,327.9,342.9,328,340.2,331.1z"/>
</g>
<path id="greens_2_" class="st0" d="M394.3,290c0,0,0.1,42-40.2,52.4C354.1,342.3,353.8,296.9,394.3,290z"/>
<path id="greens_3_" class="st0" d="M444.2,287.7c0,0-6.2-41.5,32.3-57.6C476.4,230.2,483.2,275,444.2,287.7z"/>
<g id="asparagus_1_">
	<path class="st1" d="M437.1,516.6l-19.7-6.1l100.8-325.8c1.7-5.4,7.4-8.5,12.9-6.8l0,0c5.4,1.7,8.5,7.4,6.8,12.9L437.1,516.6z"/>
	<path class="st3" d="M489.1,300.4c0,0-18.7,16.3-6.2,20.2C496.3,324.7,489.1,300.4,489.1,300.4z"/>
	<path class="st0" d="M508.5,264.9c0,0-18.7,16.3-6.2,20.2C515.6,289.2,508.5,264.9,508.5,264.9z"/>
	<path class="st0" d="M536.2,161.7c0,0-21.4,18.3-7,22.8C543.5,188.9,536.2,161.7,536.2,161.7z"/>
	<path class="st3" d="M528,164.6c0,0-21.4,18.3-7,22.8C536.2,192.1,528,164.6,528,164.6z"/>
	<path class="st3" d="M540.4,168.4c0,0-20.4,18.6-7,22.8C548.7,195.9,540.4,168.4,540.4,168.4z"/>
	<path class="st0" d="M545.9,195.2c0,0-27.6,4.6-18,15.7C538.1,222.5,545.9,195.2,545.9,195.2z"/>
	<path class="st0" d="M508.5,186.2c0,0,20.1,19.4,6,23.1C499.4,213.2,508.5,186.2,508.5,186.2z"/>
	<path class="st3" d="M527.3,190.7c0,0-21.4,18.3-7,22.8C533.6,217.6,527.3,190.7,527.3,190.7z"/>
	<path class="st3" d="M540.1,218.9c0,0-27.8,3-18.8,14.6C530.7,245.7,540.1,218.9,540.1,218.9z"/>
	<path class="st3" d="M500.9,206.8c0,0,21.3,18.2,7.3,22.7C493.5,234.2,500.9,206.8,500.9,206.8z"/>
	<path class="st0" d="M518.5,219.1c0,0-21.4,18.3-7,22.8C524.8,246,518.5,219.1,518.5,219.1z"/>
</g>
<path id="greens_4_" class="st0" d="M541.3,317.8c0,0-24.9-33.8,1.6-66C542.9,251.8,569.9,288.3,541.3,317.8z"/>
<g id="cucumber_1_">
	<circle class="st1" cx="350" cy="373" r="43.7"/>
	<path class="st3" d="M350,405.7c-18.1,0-32.8-14.7-32.8-32.8c0-18.1,14.7-32.8,32.8-32.8c18.1,0,32.8,14.7,32.8,32.8
		C382.8,391,368.1,405.7,350,405.7z"/>
	<path class="st4" d="M354.4,357.7c0,3.6-4.4,6.6-4.4,6.6s-4.4-2.9-4.4-6.6c0-3.6,4.4-6.6,4.4-6.6S354.4,354.1,354.4,357.7z"/>
	<path class="st4" d="M339,361.6c3.1,1.8,3.5,7.1,3.5,7.1s-4.7,2.3-7.9,0.5c-3.1-1.8-3.5-7.1-3.5-7.1S335.9,359.7,339,361.6z"/>
	<path class="st4" d="M334.6,376.8c3.1-1.8,7.9,0.5,7.9,0.5s-0.4,5.3-3.5,7.1c-3.1,1.8-7.9-0.5-7.9-0.5S331.5,378.6,334.6,376.8z"/>
	<path class="st4" d="M345.6,388.2c0-3.6,4.4-6.6,4.4-6.6s4.4,2.9,4.4,6.6s-4.4,6.6-4.4,6.6S345.6,391.8,345.6,388.2z"/>
	<path class="st4" d="M361,384.4c-3.1-1.8-3.5-7.1-3.5-7.1s4.7-2.3,7.9-0.5c3.1,1.8,3.5,7.1,3.5,7.1S364.2,386.2,361,384.4z"/>
	<path class="st4" d="M365.4,369.1c-3.1,1.8-7.9-0.5-7.9-0.5s0.4-5.3,3.5-7.1c3.1-1.8,7.9,0.5,7.9,0.5S368.5,367.3,365.4,369.1z"/>
</g>
<g id="onion">
	<circle class="st5" cx="490.3" cy="307.9" r="55"/>
	<circle class="st6" cx="490.3" cy="307.9" r="50"/>
	<circle class="st5" cx="490.3" cy="307.9" r="40"/>
	<circle class="st6" cx="490.3" cy="307.9" r="35"/>
	<circle class="st5" cx="490.3" cy="307.9" r="25"/>
	<circle class="st6" cx="490.3" cy="307.9" r="20"/>
	<circle class="st5" cx="490.3" cy="307.9" r="12.5"/>
	<circle class="st6" cx="490.3" cy="307.9" r="7.5"/>
</g>
<g id="carrot_1_">
	<circle class="st7" cx="198.5" cy="326.3" r="43.7"/>
	<circle class="st8" cx="198.5" cy="326.3" r="27.3"/>
	<circle class="st9" cx="198.5" cy="326.3" r="14.2"/>
</g>
<g id="tomato">
	<g>
		<circle class="st2" cx="580.1" cy="329.2" r="60.1"/>
		<circle class="st10" cx="580.1" cy="329.2" r="49.2"/>
	</g>
	<g>
		<path class="st2" d="M590.5,303c0,9.2-10.2,16.6-10.2,16.6s-10.2-7.4-10.2-16.6s4.6-13.1,10.2-13.1
			C585.9,289.9,590.5,293.9,590.5,303z"/>
		<path class="st2" d="M558.3,311.4c8.7,2.8,12.7,14.7,12.7,14.7s-10.2,7.4-18.9,4.7c-8.7-2.8-11.1-8.3-9.4-13.7
			C544.5,311.8,549.6,308.6,558.3,311.4z"/>
		<path class="st2" d="M556.5,344.6c5.3-7.5,17.9-7.6,17.9-7.6s4,11.9-1.3,19.4c-5.3,7.5-11.3,8-15.9,4.8
			C552.7,357.9,551.2,352,556.5,344.6z"/>
		<path class="st2" d="M587.6,356.4c-5.5-7.3-1.8-19.4-1.8-19.4s12.6-0.2,18.1,7.1c5.5,7.3,4.2,13.2-0.3,16.6
			C599.1,364.1,593.1,363.7,587.6,356.4z"/>
		<path class="st2" d="M608.3,330.4c-8.6,3-19-4.2-19-4.2s3.7-12.1,12.3-15.1c8.6-3,13.9,0,15.7,5.3
			C619.1,321.8,616.9,327.3,608.3,330.4z"/>
	</g>
</g>
<path id="greens_5_" class="st0" d="M174.1,315.6c0,0,24.8,33.9-1.7,66C172.4,381.6,145.4,345,174.1,315.6z"/>
<g id="greens_6_">
	<path class="st1" d="M194.6,420.7c-29,14.4-53.9,12.3-59.1,2.7c-4.5-8.4,4.6-25.2,20.8-39.6c-31.7,18.6-56.4,7.3-55.6-8.3
		c0.5-9.5,2.1-16.8,11.5-29.1c4.2-16.2,12.8-31.2,24.7-33c16.8-2.7,28.4,15.5,29.9,48.7c12.2-14.7,27.6-24.5,37.7-20.7
		c12.8,4.8,20.5,32.4,7.9,66.4L194.6,420.7z"/>
	<path class="st11" d="M214.2,439.1c0,0-47.7-78.5-101.8-92.7c0,0,5.2-2.1,28.4,7.1c34.1,13.6,55.9,37.6,70.3,54.6
		c6.8,8.1,11.9,15.2,15.2,20C222.2,431.7,218.2,435.4,214.2,439.1z"/>
</g>
<g id="greens_7_">
	<path class="st1" d="M610.2,423.7c37,0.2,61.5-14.5,62-27c0.4-10.9-17.4-23.6-41.3-30.2c41.9,3.2,61.6-20.9,52.9-36.5
		c-5.3-9.5-10.6-16.2-26.5-24c-12.5-14.6-28.8-25.6-41.9-21.5c-18.6,5.7-21.4,30.2-6.2,65c-19.9-8.9-40.6-11.2-49.1-2.3
		c-10.7,11.3-4.8,43.5,25.3,72.1L610.2,423.7z"/>
	<path class="st11" d="M599.4,452.5c0,0,9.5-104.6,57.9-146.4c0,0-6.4,0.4-25.6,21.5c-28.2,31.1-38.5,66.8-44.7,91.5
		c-2.9,11.8-4.6,21.6-5.5,28.1C587.5,449,593.4,450.7,599.4,452.5z"/>
</g>
<g id="tomato_1_">
	<g>
		<circle class="st2" cx="426.6" cy="355.7" r="60.1"/>
		<circle class="st10" cx="426.6" cy="355.7" r="49.2"/>
	</g>
	<g>
		<path class="st2" d="M436.9,329.5c0,9.2-10.2,16.6-10.2,16.6s-10.2-7.4-10.2-16.6c0-9.2,4.6-13.1,10.2-13.1
			C432.3,316.4,436.9,320.4,436.9,329.5z"/>
		<path class="st2" d="M404.8,337.9c8.7,2.8,12.7,14.7,12.7,14.7s-10.2,7.4-18.9,4.7c-8.7-2.8-11.1-8.3-9.4-13.7
			C390.9,338.3,396,335.1,404.8,337.9z"/>
		<path class="st2" d="M403,371.1c5.3-7.5,17.9-7.6,17.9-7.6s4,11.9-1.3,19.4c-5.3,7.5-11.3,8-15.9,4.8
			C399.1,384.4,397.7,378.5,403,371.1z"/>
		<path class="st2" d="M434,382.9c-5.5-7.3-1.8-19.4-1.8-19.4s12.6-0.2,18.1,7.1c5.5,7.3,4.2,13.2-0.3,16.6
			C445.5,390.6,439.5,390.2,434,382.9z"/>
		<path class="st2" d="M454.7,356.9c-8.6,3-19-4.2-19-4.2s3.7-12.1,12.3-15.1c8.6-3,13.9,0,15.7,5.3
			C465.6,348.2,463.4,353.8,454.7,356.9z"/>
	</g>
</g>
<g id="tomato_2_">
	<g>
		<circle class="st2" cx="260.6" cy="381.7" r="60.1"/>
		<circle class="st10" cx="260.6" cy="381.7" r="49.2"/>
	</g>
	<g>
		<path class="st2" d="M270.9,355.5c0,9.2-10.2,16.6-10.2,16.6s-10.2-7.4-10.2-16.6s4.6-13.1,10.2-13.1
			C266.3,342.4,270.9,346.3,270.9,355.5z"/>
		<path class="st2" d="M238.8,363.8c8.7,2.8,12.7,14.7,12.7,14.7s-10.2,7.4-18.9,4.7c-8.7-2.8-11.1-8.3-9.4-13.7
			C224.9,364.2,230,361.1,238.8,363.8z"/>
		<path class="st2" d="M237,397c5.3-7.5,17.9-7.6,17.9-7.6s4,11.9-1.3,19.4c-5.3,7.5-11.3,8-15.9,4.8
			C233.1,410.3,231.7,404.5,237,397z"/>
		<path class="st2" d="M268,408.8c-5.5-7.3-1.8-19.4-1.8-19.4s12.6-0.2,18.1,7.1c5.5,7.3,4.2,13.2-0.3,16.6
			C279.5,416.5,273.5,416.1,268,408.8z"/>
		<path class="st2" d="M288.7,382.8c-8.6,3-19-4.2-19-4.2s3.7-12.1,12.3-15.1c8.6-3,13.9,0,15.7,5.3
			C299.6,374.2,297.3,379.8,288.7,382.8z"/>
	</g>
</g>
<path id="pepper_1_" class="st2" d="M666.2,360.7c0,0,20.3-15.5,39.1,11.4c0.3,0.5,0.9,1.3,0.9,1.3l-9.1,6.1c0,0-0.1-0.1-0.2-0.3
	c-0.2-0.3-0.3-0.5-0.5-0.8c-5.2-7.5-10.7-11.3-16.3-11.2c-3.9,0-6.9,1.9-7.4,2.2l-8,6.6l-6.9-8.4c0,0-3.5-4.1-8.6-6.5
	c-5.5-2.6-10.3-2-15.5,1.9c-5.3,4-7.3,8.5-6.4,14.7c0.8,5.6,3.6,10.1,3.6,10.1l5.1,7.9l-7,6.3c-0.2,0.1-11.9,11.8-4.1,23.6
	c0.3,0.5,0.9,1.3,1,1.3l-9.1,6.1c0,0-0.6-0.8-1-1.3c-13.3-20,5.9-37.8,5.9-37.8s-15.6-23.8,5.5-39.5
	C648.1,338.5,666.2,360.7,666.2,360.7z"/>
<path id="pepper" class="st2" d="M155.4,390.3c0,0,22.5,12,6,40.3c-0.3,0.5-0.8,1.4-0.8,1.4l-9.3-5.7c0,0,0.1-0.1,0.2-0.3
	c0.2-0.3,0.3-0.5,0.5-0.8c4.6-7.9,5.8-14.4,3.4-19.5c-1.7-3.5-4.6-5.5-5.1-5.8l-9.4-4.5l4.8-9.8c0,0,2.3-4.9,2.3-10.5
	c0.1-6.1-2.5-10.2-8.2-13.3c-5.8-3.2-10.8-3.1-16,0.3c-4.8,3-7.7,7.5-7.7,7.5l-5,7.9l-8.6-3.7c-0.2-0.1-15.7-5.9-23.1,6.1
	c-0.3,0.5-0.8,1.4-0.7,1.4l-9.3-5.8c0,0,0.5-0.9,0.8-1.4c12.6-20.5,36.8-10.5,36.8-10.5s15.1-24.1,38.2-11.6
	C168,364.7,155.4,390.3,155.4,390.3z"/>
<path id="greens_8_" class="st0" d="M286.4,422.7c0,0-0.4-42,39.8-52.6C326.2,370.1,326.8,415.5,286.4,422.7z"/>
<g id="cucumber">
	<circle class="st1" cx="500.5" cy="385.3" r="43.7"/>
	<path class="st3" d="M500.5,418.1c-18.1,0-32.8-14.7-32.8-32.8c0-18.1,14.7-32.8,32.8-32.8c18.1,0,32.8,14.7,32.8,32.8
		C533.3,403.4,518.6,418.1,500.5,418.1z"/>
	<path class="st4" d="M504.9,370.1c0,3.6-4.4,6.6-4.4,6.6s-4.4-2.9-4.4-6.6s4.4-6.6,4.4-6.6S504.9,366.4,504.9,370.1z"/>
	<path class="st4" d="M489.5,373.9c3.1,1.8,3.5,7.1,3.5,7.1s-4.7,2.3-7.9,0.5c-3.1-1.8-3.5-7.1-3.5-7.1S486.4,372.1,489.5,373.9z"/>
	<path class="st4" d="M485.1,389.1c3.1-1.8,7.9,0.5,7.9,0.5s-0.4,5.3-3.5,7.1c-3.1,1.8-7.9-0.5-7.9-0.5S482,390.9,485.1,389.1z"/>
	<path class="st4" d="M496.2,400.5c0-3.6,4.4-6.6,4.4-6.6s4.4,2.9,4.4,6.6s-4.4,6.6-4.4,6.6S496.2,404.1,496.2,400.5z"/>
	<path class="st4" d="M511.5,396.7c-3.1-1.8-3.5-7.1-3.5-7.1s4.7-2.3,7.9-0.5c3.1,1.8,3.5,7.1,3.5,7.1S514.7,398.5,511.5,396.7z"/>
	<path class="st4" d="M515.9,381.5c-3.1,1.8-7.9-0.5-7.9-0.5s0.4-5.3,3.5-7.1c3.1-1.8,7.9,0.5,7.9,0.5S519,379.7,515.9,381.5z"/>
</g>
<g id="asparagus">
	<path class="st1" d="M305.8,523.7l-19.9,5.3l-81.2-302.3c-1.5-5.5,1.8-11.1,7.3-12.6l0,0c5.5-1.5,11.1,1.8,12.6,7.3L305.8,523.7z"
		/>
	<path class="st3" d="M242.8,328.4c0,0-7.1,23.7,5.5,20.4C261.8,345.1,242.8,328.4,242.8,328.4z"/>
	<path class="st0" d="M208.7,197.4c0,0-8.3,26.9,6.2,23C229.3,216.5,208.7,197.4,208.7,197.4z"/>
	<path class="st3" d="M203.2,204.2c0,0-8.3,26.9,6.2,23C224.9,223,203.2,204.2,203.2,204.2z"/>
	<path class="st3" d="M215.8,200.8c0,0-7.3,26.6,6.2,23C237.4,219.7,215.8,200.8,215.8,200.8z"/>
	<path class="st0" d="M234.7,220.5c0,0-20.9,18.6-6.8,22.8C242.7,247.8,234.7,220.5,234.7,220.5z"/>
	<path class="st0" d="M198.2,232.9c0,0,27.4,5.7,17.3,16.3C205,260.5,198.2,232.9,198.2,232.9z"/>
	<path class="st3" d="M216.5,226.6c0,0-8.3,26.9,6.2,23C236.2,246,216.5,226.6,216.5,226.6z"/>
	<path class="st3" d="M242.4,243.7c0,0-21.9,17.4-8.2,22.4C248.8,271.4,242.4,243.7,242.4,243.7z"/>
	<path class="st3" d="M202.8,254.3c0,0,27.7,4.1,18.3,15.3C211.1,281.5,202.8,254.3,202.8,254.3z"/>
	<path class="st0" d="M224.2,255.3c0,0-8.3,26.9,6.2,23C243.9,274.7,224.2,255.3,224.2,255.3z"/>
</g>
<g id="basil_2_">
	<path class="st11" d="M474.6,403.6c-33.9-44.7-55.7-15.3-58-12.3l0,0c0,0,0-0.1,0,0c-0.1,0.1,0,0,0,0l0,0
		C417.5,395.1,425.6,430.8,474.6,403.6L474.6,403.6C474.5,403.6,474.6,403.6,474.6,403.6z"/>
	<path class="st11" d="M358.8,379.2c33.9,44.7,55.7,15.3,58,12.3l0,0c0,0,0,0.1,0,0c0.1-0.1,0,0,0,0l0,0
		C415.9,387.6,407.8,352,358.8,379.2L358.8,379.2C358.9,379.2,358.8,379.2,358.8,379.2z"/>
	<path class="st12" d="M423.1,362.2c-22.6,16.9-7.7,27.8-6.1,29l0,0c0,0-0.1,0,0,0c0.1,0,0,0,0,0l0,0
		C418.9,390.8,437,386.8,423.1,362.2L423.1,362.2C423.1,362.3,423.1,362.2,423.1,362.2z"/>
	<path class="st12" d="M410.9,420.1c22.6-16.9,7.7-27.8,6.1-29l0,0c0,0,0.1,0,0,0c-0.1,0,0,0,0,0l0,0
		C415.1,391.6,397,395.5,410.9,420.1L410.9,420.1C410.9,420.1,410.9,420.1,410.9,420.1z"/>
</g>
<g>
	<path class="st5" d="M561.1,354.1c9.4-26,37.6-39.6,64-30.1l1.7-4.7c-28.2-10.2-60.1,4.5-70.4,33.1c-10.3,28.6,4.9,60.2,33.1,70.4
		l1.7-4.7C564.9,408.6,551.8,380.1,561.1,354.1z"/>
	<path class="st6" d="M561.1,354.1c-9.4,26,3.8,54.5,30.1,64l3.4-9.4c-20.7-7.5-31.6-30.4-24.1-51.2c7.5-20.8,30.5-31.5,51.2-24.1
		l3.4-9.4C598.8,314.5,570.5,328.1,561.1,354.1z"/>
</g>
<g>
	<path class="st5" d="M213.9,398.7c-13.5,24.1-43.7,32.8-68.1,19l-2.5,4.4c26.1,14.7,60,5.5,74.9-20.9c14.9-26.5,5.2-60.2-20.9-74.9
		l-2.5,4.4C219.3,344.4,227.5,374.7,213.9,398.7z"/>
	<path class="st6" d="M213.9,398.7c13.5-24.1,5.4-54.4-19-68.1l-4.9,8.7c19.2,10.8,26.1,35.2,15.2,54.5
		c-10.8,19.2-35.3,26-54.5,15.2l-4.9,8.7C170.2,431.5,200.4,422.8,213.9,398.7z"/>
</g>
<g id="carrot">
	<circle class="st7" cx="548.3" cy="385" r="43.7"/>
	<circle class="st8" cx="548.3" cy="385" r="27.3"/>
	<circle class="st9" cx="548.3" cy="385" r="14.2"/>
</g>
<g id="bowl">
	<path class="st5" d="M671.1,402.4c0.2-1.8-1.6-3.3-3.8-3.3H399.7h-3.9H128.4c-2.3,0-4,1.5-3.8,3.3c3.1,29.9,34.2,234.5,271.3,235.9
		v0c1.9,0,1.5,0,1.9,0c0.4,0,0,0,1.9,0v0C636.8,636.9,667.9,432.3,671.1,402.4z"/>
	<path class="st13" d="M666.7,429c-1.5,7-3.6,15-6.2,24H135.2c-2.6-9-4.7-17-6.2-24H666.7z"/>
	<path class="st14" d="M671.1,402.3c-3.1,29.9-34.2,234.6-271.2,236.1C574.2,602.3,566.1,399,566.1,399h89.3h11.8
		C669.5,399,671.2,400.5,671.1,402.3z"/>
	<path class="st15" d="M161.2,428.7h54.5c1.1,0,2.2,0.7,2.6,1.7c7.3,16.2,65.9,143.3,134.9,188.1c2.8,1.8,0.7,6.2-2.5,5.2
		c-53.4-16.7-163.5-65.8-192.4-191.5C158,430.4,159.4,428.7,161.2,428.7z"/>
</g>
</svg>
