<svg id="Layer_1" data-name="Layer 1" xmlns="http://www.w3.org/2000/svg" viewBox="0 0 500 400"><defs><style>.cls-1{fill:#1a2e45;}.cls-1,.cls-2{fill-rule:evenodd;}.cls-2{fill:#26b2fc;}</style></defs><title>Image 36.E [Converted]</title><g id="_Group_" data-name="&lt;Group&gt;"><path id="_Compound_Path_" data-name="&lt;Compound Path&gt;" class="cls-1" d="M353,218.94A108.5,108.5,0,1,1,228.64,96.57v17.19a18.69,18.69,0,0,0,.23,2.92A88.68,88.68,0,0,0,157,198.79h9.06v9.93H157a88.65,88.65,0,0,0,83.55,83.55v-9.06h9.92v9.06a88.68,88.68,0,0,0,82-71.2,18.61,18.61,0,0,0,4,.43,49,49,0,0,0,16.5-2.55ZM266.15,97.22a108.59,108.59,0,0,1,86.51,89.2A49.43,49.43,0,0,0,336.49,184a18.56,18.56,0,0,0-4.39.52,88.77,88.77,0,0,0-66.32-67.07,18.73,18.73,0,0,0,.37-3.67Z"/><path id="_Compound_Path_2" data-name="&lt;Compound Path&gt;" class="cls-2" d="M336.16,213.29a1.52,1.52,0,0,1,0-3c5.33,0,12.2-.74,16.91-3.62a1.52,1.52,0,0,1,1.58,2.6c-5.25,3.21-12.57,4.07-18.49,4.07ZM261.81,97.19v16.57a14.47,14.47,0,0,1-10.38,13.84V134a6.23,6.23,0,0,1,2.21,4.76V185A15.46,15.46,0,0,1,265,196.49H311.4a6.24,6.24,0,0,1,4.76,2.21h6.49a14.47,14.47,0,0,1,13.84-10.38c35.27,0,35.27,28.83,0,28.83a14.47,14.47,0,0,1-13.84-10.38h-6.49A6.24,6.24,0,0,1,311.4,209H262.55a15.43,15.43,0,1,1-21.4-21.63V138.73a6.24,6.24,0,0,1,2.21-4.76V127.6A14.47,14.47,0,0,1,233,113.76V90.34c0-3.46,5.24-3.45,5.24,0V110a1.31,1.31,0,0,0,2.62,0V90.34c0-3.46,5.24-3.45,5.24,0V110a1.31,1.31,0,0,0,2.62,0V90.34c0-3.46,5.24-3.45,5.24,0V110a1.31,1.31,0,0,0,2.62,0V90.34c0-3.46,5.24-3.45,5.24,0Z"/></g></svg>