<svg height="472pt" viewBox="0 -4 472.47604 472" width="472pt" xmlns="http://www.w3.org/2000/svg"><path d="m296.472656 249.308594c-123.601562 82.128906-259.753906 29.746094-296.472656-114.023438 123.601562-82.109375 259.753906-29.75 296.472656 114.023438zm0 0" fill="#5f9548"/><path d="m291.542969 238.839844-95.582031-36.761719-32.921876-74.0625-14.625 6.496094 26.425782 59.445312-25.28125-9.726562-27.207032-61.207031-14.625 6.496093 20.714844 46.589844-25.273437-9.71875-18.640625-41.945313-14.625 6.503907 12.136718 27.3125-37.648437-14.480469-5.75 14.945312 37.648437 14.472657-27.3125 12.144531 6.503907 14.621094 41.933593-18.640625 25.273438 9.722656-46.582031 20.703125 6.503906 14.632812 61.207031-27.207031 25.273438 9.71875-59.441406 26.414063 6.503906 14.625 74.054687-32.917969 95.585938 36.757813zm0 0" fill="#68a34f"/><path d="m279.457031 290.503906c-145.457031-29.335937-204.703125-162.632812-129.007812-290.265625 145.460937 29.335938 204.703125 162.640625 129.007812 290.265625zm0 0" fill="#7eb457"/><path d="m241.785156 186.039062 29.09375-75.640624-14.933594-5.753907-23.351562 60.707031-11-24.746093 24.046875-62.519531-14.9375-5.742188-18.304687 47.574219-10.992188-24.734375 16.472656-42.832032-14.933594-5.753906-10.730468 27.894532-16.382813-36.855469-14.625 6.496093 16.386719 36.863282-27.90625-10.726563-5.742188 14.9375 42.839844 16.480469 11 24.742188-47.59375-18.3125-5.75 14.945312 62.535156 24.054688 10.992188 24.730468-60.703125-23.34375-5.753906 14.933594 75.648437 29.097656 41.59375 93.574219 14.621094-6.496094zm0 0" fill="#88c25e"/><path d="m342.070312 5.839844-5.597656-5.601563-5.601562 5.558594c-12.820313 12.4375-27.84375 22.378906-44.304688 29.3125-50.375 22.191406-86.09375 76.898437-86.09375 141.128906 0 83.945313 60.886719 152 136 152 75.113282 0 136-68.054687 136-152 0-64.230469-35.71875-118.9375-86.136718-141.128906-16.441407-6.925781-31.453126-16.851563-44.265626-29.269531zm0 0" fill="#95573a"/><path d="m438.671875 76.324219c-43.96875 117.976562-140.648437 171.914062-207.648437 195.851562 24.070312 34.578125 63.320312 55.445313 105.449218 56.0625 75.113282 0 136-68.054687 136-152 .253906-36.152343-11.648437-71.339843-33.800781-99.914062zm0 0" fill="#8f4d2e"/><path d="m224.472656 200.238281c-7.351562.011719-14.691406.5-21.976562 1.464844 10.894531 71.800781 66.648437 126.535156 133.976562 126.535156 13.3125-.015625 26.539063-2.199219 39.152344-6.464843-8.082031-68.304688-72.640625-121.535157-151.152344-121.535157zm0 0" fill="#8f4d2e"/><g fill="#7a3b1d"><path d="m328.472656 40.238281h16v112h-16zm0 0"/><path d="m328.472656 168.238281h16v32h-16zm0 0"/><path d="m328.472656 216.238281h16v80h-16zm0 0"/><path d="m296.753906 54.117188c-21.570312 79.984374-21.570312 164.257812 0 244.242187l15.4375-4.242187c-20.832031-77.207032-20.832031-158.554688 0-235.757813zm0 0"/><path d="m232.152344 176.070312 16 .335938c.800781-37.695312 12-69.03125 22.71875-83.367188l-12.800782-9.601562c-14.992187 20-25.160156 56.351562-25.917968 92.632812zm0 0"/><path d="m360.753906 58.359375c20.828125 77.203125 20.828125 158.550781 0 235.757813l15.4375 4.242187c21.570313-79.984375 21.570313-164.257813 0-244.242187zm0 0"/><path d="m435.382812 134.34375-15.542968 3.789062c9.832031 41.578126 3.261718 85.34375-18.34375 122.203126l13.953125 7.804687c23.609375-40.371094 30.75-88.292969 19.933593-133.796875zm0 0"/><path d="m430.464844 117.628906c-4-11.523437-9.023438-22.667968-15.015625-33.292968l-13.953125 7.804687c5.515625 9.804687 10.148437 20.082031 13.839844 30.707031zm0 0"/></g><path d="m6.070312 322.679688-5.597656 5.558593 5.558594 5.601563c12.4375 12.816406 22.378906 27.84375 29.3125 44.300781 22.191406 50.378906 76.894531 86.097656 141.128906 86.097656 83.941406 0 152-60.886719 152-136s-68.058594-136-152-136c-64.234375 0-118.9375 35.71875-141.128906 86.136719-6.921875 16.457031-16.847656 31.480469-29.273438 44.304688zm0 0" fill="#a36548"/><path d="m300.214844 249.453125c-53.679688 96.730469-176.261719 131.65625-256 145.242187 29.265625 44.304688 79.171875 70.546876 132.257812 69.542969 83.941406 0 152-60.886719 152-136-.152344-28.714843-10.121094-56.515625-28.257812-78.785156zm0 0" fill="#95573a"/><path d="m264.472656 328.238281c8.917969-.011719 17.230469-4.523437 22.097656-12 4.863282-7.476562 5.625-16.90625 2.023438-25.0625-17.257812-39.097656-61.007812-66.9375-112.121094-66.9375-49.25 0-94.191406 26.9375-111.832031 67.015625l-.167969.425782-.152344.351562c-3.351562 8.113281-2.414062 17.367188 2.492188 24.644531 4.90625 7.28125 13.128906 11.621094 21.90625 11.5625zm0 0" fill="#ffb531"/><path d="m266.785156 328.238281c8.914063.019531 17.214844 4.539063 22.074219 12.011719 4.855469 7.476562 5.613281 16.898438 2.011719 25.050781-17.230469 39.097657-60.976563 66.9375-112.09375 66.9375-49.25 0-94.191406-26.9375-111.832032-67.015625l-.191406-.425781-.152344-.351563c-3.355468-8.117187-2.414062-17.378906 2.5-24.660156 4.910157-7.28125 13.144532-11.617187 21.929688-11.546875zm0 0" fill="#ffa912"/><path d="m260.59375 297.382812-20-12c-8.0625-4.804687-17.378906-7.074218-26.746094-6.511718-.152344 0-.273437-.105469-.421875-.113282l-9.601562-.535156c-6.703125-.074218-12.796875-3.902344-15.777344-9.90625-2.777344-5.152344-2.363281-11.441406 1.066406-16.191406 5.191407-7.152344 11.871094-10.207031 30.589844-4.710938 4.199219 1.132813 8.53125-1.292968 9.761719-5.460937 1.226562-4.171875-1.097656-8.558594-5.242188-9.882813-15.582031-4.59375-33.054687-7.03125-45.976562 8.054688-2.125-3.472656-5.011719-6.425781-8.4375-8.632812-9.546875-5.019532-20.765625-5.785157-30.90625-2.109376-4.15625 1.492188-6.320313 6.074219-4.828125 10.234376 1.496093 4.160156 6.078125 6.320312 10.238281 4.828124 5.558594-2.023437 11.691406-1.789062 17.078125.648438 4.222656 3.386719 6.671875 8.515625 6.648437 13.929688.664063 3.523437.117188 7.167968-1.550781 10.34375-4.230469 6.503906-14.398437 7.527343-24.191406 8.527343-2.800781.28125-5.511719.558594-8 .945313-7.730469.335937-15.257813 2.582031-21.90625 6.542968l-20 12c-3.789063 2.273438-5.015625 7.191407-2.738281 10.980469 2.273437 3.789063 7.191406 5.015625 10.980468 2.738281l20-12c9.773438-5.871093 21.988282-5.871093 31.757813 0 14.84375 8.921876 33.398437 8.921876 48.242187 0 9.773438-5.871093 21.988282-5.871093 31.757813 0l20 12c3.789063 2.277344 8.707031 1.050782 10.980469-2.738281 2.277344-3.789062 1.050781-8.707031-2.738282-10.980469zm-92.800781-8.863281c3.671875-1.761719 6.941406-4.261719 9.597656-7.34375 2.195313 2.828125 4.820313 5.296875 7.777344 7.308594-5.660157 1.679687-11.683594 1.691406-17.351563.035156zm0 0" fill="#f79900"/><path d="m265.640625 348.117188c-1.09375-1.820313-2.863281-3.132813-4.921875-3.648438-2.0625-.515625-4.242188-.1875-6.0625.90625l-20 12c-9.773438 5.871094-21.988281 5.871094-31.761719 0-14.839843-8.921875-33.394531-8.921875-48.238281 0-9.773438 5.871094-21.988281 5.871094-31.761719 0l-20-12c-3.789062-2.277344-8.703125-1.050781-10.980469 2.738281-2.273437 3.789063-1.046874 8.707031 2.742188 10.980469l20 12c6.65625 3.964844 14.1875 6.210938 21.929688 6.542969 2.519531.386719 5.222656.664062 8 .945312 9.8125 1 20 2.023438 24.191406 8.527344 1.667968 3.175781 2.214844 6.820313 1.550781 10.34375.023437 5.414063-2.425781 10.542969-6.648437 13.929687-5.371094 2.433594-11.484376 2.671876-17.03125.664063-4.15625-1.503906-8.742188.644531-10.25 4.800781-1.503907 4.152344.644531 8.742188 4.800781 10.246094 4.550781 1.5625 9.324219 2.371094 14.136719 2.398438 5.894531.117187 11.703124-1.429688 16.761718-4.460938 3.4375-2.214844 6.328125-5.179688 8.453125-8.671875 6.277344 7.597656 15.703125 11.878906 25.554688 11.605469 6.933593-.199219 13.804687-1.386719 20.40625-3.519532 2.800781-.757812 4.972656-2.96875 5.675781-5.785156.703125-2.8125-.171875-5.789062-2.289062-7.773437-2.117188-1.984375-5.144532-2.667969-7.90625-1.785157-18.710938 5.480469-25.390626 2.402344-30.59375-4.71875-3.425782-4.746093-3.839844-11.03125-1.0625-16.183593 3.082031-6.113281 9.359374-9.957031 16.207031-9.921875l9.160156-.519532c.152344 0 .273437-.097656.425781-.113281 9.367188.566407 18.683594-1.703125 26.742188-6.511719l20-12c1.835937-1.085937 3.160156-2.863281 3.679687-4.929687.519531-2.070313.191407-4.257813-.910156-6.085937zm-95.519531 19.839843c5.6875-1.675781 11.742187-1.675781 17.429687 0-2.96875 2.003907-5.601562 4.46875-7.796875 7.296875-2.679687-3.066406-5.957031-5.546875-9.632812-7.296875zm0 0" fill="#f59416"/><path d="m266.785156 336.238281h-186.3125c-4.417968 0-8-3.582031-8-8s3.582032-8 8-8h186.3125c4.417969 0 8 3.582031 8 8s-3.582031 8-8 8zm0 0" fill="#f79900"/></svg>