<?xml version="1.0" encoding="iso-8859-1"?>
<!-- Generator: Adobe Illustrator 19.0.0, SVG Export Plug-In . SVG Version: 6.00 Build 0)  -->
<svg version="1.1" id="Capa_1" xmlns="http://www.w3.org/2000/svg" xmlns:xlink="http://www.w3.org/1999/xlink" x="0px" y="0px"
	 viewBox="0 0 423.253 423.253" style="enable-background:new 0 0 423.253 423.253;" xml:space="preserve">
<polyline style="fill:#FFFFFF;" points="348.16,267.578 348.16,293.547 75.093,293.547 75.093,116.053 348.16,116.053 
	348.16,235.117 "/>
<path style="fill:#602F75;" d="M348.16,300.373H75.093c-3.773,0-6.827-3.057-6.827-6.827V116.053c0-3.77,3.053-6.827,6.827-6.827
	H348.16c3.773,0,6.827,3.057,6.827,6.827v119.064c0,3.77-3.053,6.827-6.827,6.827s-6.827-3.057-6.827-6.827V122.88H81.92v163.84
	h259.413v-19.14c0-3.77,3.053-6.827,6.827-6.827s6.827,3.057,6.827,6.827v25.967C354.987,297.317,351.933,300.373,348.16,300.373z"
	/>
<rect x="259.413" y="122.88" style="fill:#00E7FF;" width="54.613" height="163.84"/>
<rect x="204.8" y="293.547" style="fill:#FFE600;" width="20.48" height="40.96"/>
<path style="fill:#602F75;" d="M225.28,341.333H204.8c-3.773,0-6.827-3.057-6.827-6.827v-40.96c0-3.77,3.053-6.827,6.827-6.827
	h20.48c3.773,0,6.827,3.057,6.827,6.827v40.96C232.107,338.277,229.053,341.333,225.28,341.333z M211.627,327.68h6.827v-27.307
	h-6.827V327.68z"/>
<g>
	<path style="fill:#EA3457;" d="M211.627,423.253C94.933,423.253,0,328.317,0,211.627S94.933,0,211.627,0
		s211.627,94.937,211.627,211.627S328.32,423.253,211.627,423.253z M211.627,13.653c-109.16,0-197.973,88.81-197.973,197.973
		S102.467,409.6,211.627,409.6S409.6,320.79,409.6,211.627S320.787,13.653,211.627,13.653z"/>
	<path style="fill:#EA3457;" d="M64.853,358.4c-1.746,0-3.494-0.667-4.826-2c-2.666-2.666-2.666-6.987,0-9.653l286.72-286.72
		c2.666-2.666,6.987-2.666,9.653,0c2.666,2.666,2.666,6.987,0,9.653L69.68,356.4C68.347,357.733,66.599,358.4,64.853,358.4z"/>
</g>
<path style="fill:#602F75;" d="M245.76,341.333h-61.44c-3.773,0-6.827-3.057-6.827-6.827s3.053-6.827,6.827-6.827h61.44
	c3.773,0,6.827,3.057,6.827,6.827S249.533,341.333,245.76,341.333z"/>
<g>
</g>
<g>
</g>
<g>
</g>
<g>
</g>
<g>
</g>
<g>
</g>
<g>
</g>
<g>
</g>
<g>
</g>
<g>
</g>
<g>
</g>
<g>
</g>
<g>
</g>
<g>
</g>
<g>
</g>
</svg>
