<svg id="Layer_1" data-name="Layer 1" xmlns="http://www.w3.org/2000/svg" viewBox="0 0 500 366"><defs><style>.cls-1{fill:#9e0b0f;}.cls-1,.cls-2,.cls-3,.cls-4,.cls-5,.cls-6{fill-rule:evenodd;}.cls-2{fill:#f48580;}.cls-3{fill:#cd8d2a;}.cls-4{fill:#ffcd5b;}.cls-5{fill:#ed1c24;}.cls-6{fill:#c4161c;}</style></defs><title>Image 24.B [Converted]</title><path class="cls-1" d="M0,11.08c68.57,8.69,119.67,36.5,163.26,67.22,58.53,41.24,104.28,89.11,159.11,109.79,37.9,14.28,64.07,15.7,87.72,9.82,37.16-9.24,68.56-39.78,89.91-73.8V314.55c-21.77,14.36-48.2,25.73-79.64,32-80.44,16-145.63-5.74-191.45-40.38C164.24,257.27,114.32,180.42,0,165.39V11.08Z"/><path class="cls-2" d="M0,15.46C156.54,36.06,225.25,156.61,320.72,192.6c58.18,21.94,100.47,12.8,132.53-10.37,18.67-13.49,33.88-31.74,46.75-51.37V310c-21.38,14.78-47.39,26.63-78.92,32.89-80.46,16-145.38-7-191.21-41.6C165,252.22,115,176.17,0,161.9V15.46Z"/><path class="cls-3" d="M406.17,332.2c-8.31,1.16-16.42,1.93-23.62,2.23-63.91,2.63-111.56-19.86-150.1-49-20.76-15.69-40.61-33.93-61.06-51.8,38.12,21.35,82.46,9.7,128,23.45,43.27,13,69.34,63.91,106.73,75.12Z"/><path class="cls-4" d="M206.07,264c.71-2.66,2.35-4.95,5.85-5.1,2.94-.13,10.07-1.32,13.32-.76,11.46,2,10.07,20.21,3.62,24.53-7.69-5.94-15.25-12.21-22.79-18.67Z"/><path class="cls-4" d="M238.42,276.17c1.71-.07,5.88-.78,7.77-.45,7.54,1.3,5.55,14.66.54,14.85-17.37.64-12.63-14.22-8.32-14.4Z"/><path class="cls-4" d="M241.11,261.34c5.41,4.31,5.66,7.25,4.24,9.09-9.62,12.4-13.41-16.4-4.24-9.09Z"/><path class="cls-4" d="M209.61,245.89c.42,1.83,1.61,5.47,1.58,7.29-.08,5.3-6.58,7-10.89,5.88l-3.73-3.26c-1.2-6.42.28-10,2.62-11.83,3.44.76,6.91,1.39,10.42,1.92Z"/><path class="cls-4" d="M229.44,253.6c-9.32,5.22-13.68,3.86-15.48.75-2.07-3.6-2.52-6.25-1.92-8.12,6.78.92,13.69,1.5,20.68,2,.69,1.71-.09,3.6-3.29,5.39Z"/><path class="cls-4" d="M234.07,252.29c-2.63.73-4.33,2.9-3.79,4.84s3.11,2.93,5.74,2.2,4.33-2.9,3.8-4.84-3.11-2.92-5.75-2.19Z"/><path class="cls-4" d="M239.95,248.68a15.65,15.65,0,0,0,2.38,6.08c3,4.61,7.53,6.46,10.08,4.15,2-1.8,2.21-5.61.79-9.37-4.45-.32-8.87-.59-13.25-.86Z"/><path class="cls-4" d="M252.25,263.37s6.83-7.2,10.67-2.23c1.3,1.69,5,5.43,6,7.6,4.08,8.6-10.95,16.15-14.72,11.18-3.08-4-8-16.3-2-16.55Z"/><path class="cls-4" d="M261.94,287.28c1,1.36,4,4.36,4.84,6.1,2.32,4.9-3.06,9.36-7.46,10.14-2-1.21-4.07-2.44-6.08-3.7-6.94-11.85,6.25-15.73,8.71-12.54Z"/><path class="cls-4" d="M275.61,281c-.4,6.89-2.67,8.8-5,8.69-15.67-.74,5.7-20.41,5-8.69Z"/><path class="cls-4" d="M266.31,250.7a8.61,8.61,0,0,1-1.24,1.07c-3.09,2.11-6.56.56-8.88-2,3.36.27,6.73.57,10.12.93Z"/><path class="cls-4" d="M275.23,266.95c-9.64-4.61-11-9-9.52-12.23a18.18,18.18,0,0,1,2.31-3.83c3.51.4,7,.87,10.58,1.45,4.82,6.76,6.17,19.19-3.37,14.61Z"/><path class="cls-4" d="M279,270c-2.11-1.73-4.86-1.87-6.14-.32s-.6,4.23,1.52,6,4.86,1.88,6.13.32.61-4.23-1.5-6Z"/><path class="cls-4" d="M308.76,260.57a32.31,32.31,0,0,1,.63,7.26c-1.4,13-24.47,11.09-25.33,2.54a40.08,40.08,0,0,1,2.56-16.53c4.25.89,8.53,2,12.81,3.25a79.42,79.42,0,0,1,9.32,3.49Z"/><path class="cls-4" d="M292.26,282.11c.19,1.71,1.16,5.82.94,7.74-.81,7.6-14.28,6.46-14.77,1.48-1.75-17.29,13.38-13.51,13.84-9.22Z"/><path class="cls-4" d="M307.24,283.86c-4,5.67-6.88,6.11-8.81,4.81-13-8.81,15.52-14.42,8.81-4.81Z"/><path class="cls-4" d="M315.56,271.69c-2.74-4.23-3.94-7.45-4.14-9.89a106.74,106.74,0,0,1,13.36,7.85c-1.86,5-5.45,7.87-9.22,2Z"/><path class="cls-4" d="M315.82,276.26c-.9-2.58-3.17-4.14-5.07-3.47s-2.72,3.29-1.83,5.87,3.17,4.14,5.07,3.48,2.72-3.29,1.83-5.87Z"/><path class="cls-4" d="M322.84,293.36c4.41-3.3,6-7.93,3.5-10.33s-8.05-1.67-12.46,1.63-6,7.92-3.5,10.33,8.05,1.67,12.46-1.63Z"/><path class="cls-4" d="M305.92,295.11s7.62,6.35,2.89,10.5c-1.6,1.41-5.1,5.33-7.2,6.49-8.32,4.62-16.8-9.9-12.08-14,3.84-3.32,15.74-9,16.39-3Z"/><path class="cls-4" d="M282.67,306.29c-1.29,1.14-4.09,4.29-5.78,5.22a5.7,5.7,0,0,1-1.67.62q-3.63-1.79-7.16-3.69c-2-2.85-2.77-6.54-.89-8.17,13.14-11.37,18.75,3.17,15.5,6Z"/><path class="cls-4" d="M280.85,314.81c0-14.32,18.47,2.64,10.61,4.55q-5.4-2.16-10.61-4.55Z"/><path class="cls-4" d="M325.77,308.34c-1.35-.08-4.85.15-6.17-.27-5.27-1.68,1.81-12.44,5.74-12.18,13.64.9,3.83,12.65.43,12.45Z"/><path class="cls-4" d="M303.8,318.27c4-9.91,8.25-11.58,11.6-10.28,15.71,6.12.71,16.81-7.63,17.13-1.34-.41-2.66-.85-4-1.28-.92-1.07-1.06-2.86,0-5.57Z"/><path class="cls-4" d="M301,322.19c1.6-2.22,1.56-5-.07-6.15s-4.27-.33-5.86,1.88a6.27,6.27,0,0,0-1.07,2.43q3.23,1.24,6.55,2.4c.16-.18.31-.37.45-.56Z"/><path class="cls-4" d="M367.17,334.26c-.42-1.67-2-5.59-2-7.51-.3-7.64,13.18-8.47,14.4-3.62,1.44,5.73.6,9.33-1.19,11.43q-5.61.14-11.05,0l-.12-.32Z"/><path class="cls-4" d="M352.58,333.79c2.9-5.35,5.56-6.08,7.53-5.13,3.89,1.88,4.63,4,3.78,5.82-3.83-.14-7.6-.37-11.31-.69Z"/><path class="cls-4" d="M335.29,327.57a14.11,14.11,0,0,0-2.63,3.58q6.95,1.24,14.2,2.06c2.61-3.51,2.93-7.33.53-9.07-2.81-2-8.21-.48-12.09,3.42Z"/><path class="cls-4" d="M326.31,329.91a5.44,5.44,0,0,0-.4-4.56c-1.26-2.43-3.73-3.64-5.52-2.71s-2.16,3.33-1.16,5.65c2.33.58,4.69,1.11,7.07,1.62Z"/><path class="cls-4" d="M351.78,323.39s-8.46-5.18-4.4-10c1.38-1.62,4.27-6,6.18-7.46,7.56-5.79,18.07,7.35,14,12.07-3.32,3.86-14.28,11.19-15.77,5.37Z"/><path class="cls-4" d="M380.67,318.24c-4.56.47-7.57-3.53-8-6.6,2.66,2.31,5.34,4.52,8,6.6Z"/><path class="cls-4" d="M330.76,309.94c1.25,1,4.48,2.87,5.7,4.25,4.79,5.49-2.17,14.87-5.79,12.05-12.56-9.78-3-18.71.09-16.3Z"/><path class="cls-4" d="M350.5,300.16c-2.51,10.38-6.48,12.65-10,11.86-23.64-5.42,14.27-29.47,10-11.86Z"/><path class="cls-4" d="M352.69,295.88c-1.25,2.42-.82,5.15,1,6.07s4.24-.29,5.5-2.69l-5.28-5a6.28,6.28,0,0,0-1.19,1.63Z"/><path class="cls-4" d="M329.62,285.76s-4.55-8.9-.71-13.17a249.16,249.16,0,0,1,21.73,18.6c-7.48,1.81-23.3,2-21-5.43Z"/><path class="cls-4" d="M399.67,329.81c-5.31,4-8.74,3.54-10.84,1.49-4.2-4.12-4.74-7.27-3.33-9.52a81.38,81.38,0,0,0,14.17,8Z"/><path class="cls-4" d="M178.78,240.12l2.12-1.87a103,103,0,0,0,12.9,4.38c.61,2.14.43,4.21-.91,5.25a24.28,24.28,0,0,1-3,2l-11.08-9.78Z"/><path class="cls-1" d="M500,292.44c-18.62,14.13-40.05,26.5-60.78,33.53-57.52,19.47-84.72-57.68-139.51-74.2C248.58,236.37,199,252.9,158,219c-36.6-30.34-94.47-61.11-150-68.76q-4-.54-8.07-1.05V32.85c110.24,13.63,175.39,77.25,237.69,126.4,32.5,23.84,42.44,52.83,65.17,72.4,18.77,16.16,75.26-8,100.73-12.3,38.62-6.49,72.83-31.51,96.4-63.2V292.44Z"/><path class="cls-5" d="M53.42,111.52c9.5-3.14,18.35-2.2,19.77,2.1s-5.14,10.33-14.64,13.47S40.21,129.27,38.79,125s5.14-10.32,14.64-13.46Z"/><path class="cls-5" d="M71.21,80.15c7.06.74,12.52,3.93,12.19,7.13S77.07,92.47,70,91.74s-12.53-3.93-12.2-7.12,6.34-5.2,13.41-4.47Z"/><path class="cls-5" d="M46.73,54.18c5.83,9.13,7.18,18.66,3.07,21.28s-12.21-2.64-18-11.76S24.61,45,28.75,42.42s12.19,2.65,18,11.77Z"/><path class="cls-6" d="M44.56,55.58c4,6.3,5.28,12.66,2.86,14.21s-7.67-2.29-11.69-8.6S30.45,48.52,32.87,47s7.67,2.31,11.68,8.6Z"/><path class="cls-5" d="M23.44,85.29c10.67-1.39,19.82,1.4,20.45,6.21s-7.5,9.87-18.17,11.26S5.91,101.38,5.28,96.54s7.51-9.86,18.17-11.25Z"/><path class="cls-6" d="M23.78,87.85c7.36-1,13.63.57,14,3.41s-5.3,5.94-12.66,6.89-13.63-.57-14-3.41,5.29-5.94,12.66-6.9Z"/><path class="cls-6" d="M54.18,113.8c6.56-2.17,12.55-1.86,13.39.67S63.77,120.81,57.2,123s-12.55,1.86-13.39-.68,3.81-6.34,10.36-8.5Z"/><path class="cls-6" d="M71,81.86c4.89.5,8.69,2.45,8.49,4.33s-4.31,3-9.2,2.49-8.68-2.45-8.48-4.34,4.31-3,9.19-2.49Z"/><path class="cls-5" d="M24,89.59c5.21-.68,9.6,0,9.8,1.63S30,94.62,24.75,95.3s-9.59-.05-9.8-1.62,3.84-3.41,9.05-4.09Z"/><path class="cls-5" d="M43.06,56.53c2.85,4.46,4,8.77,2.69,9.62S41,64.1,38.18,59.64s-4-8.77-2.69-9.64,4.74,2.06,7.58,6.52Z"/><path class="cls-5" d="M70.9,83c3.45.36,6.17,1.5,6.06,2.54s-3,1.61-6.46,1.25-6.16-1.5-6.06-2.55,3-1.61,6.45-1.24Z"/><path class="cls-5" d="M54.69,115.35c4.64-1.53,8.78-1.63,9.24-.23s-2.92,3.79-7.56,5.32-8.78,1.63-9.25.22,2.92-3.79,7.56-5.31Z"/><path class="cls-5" d="M123.35,156.65c9.57,2.93,16.24,8.81,14.92,13.14s-10.17,5.45-19.73,2.52-16.24-8.82-14.91-13.14,10.17-5.46,19.72-2.52Z"/><path class="cls-5" d="M156,141.34c5.34,4.68,8,10.45,5.83,12.87s-8.17.57-13.52-4.12-8-10.45-5.83-12.86,8.17-.58,13.52,4.11Z"/><path class="cls-5" d="M148.58,116c-.52,10.82-4.92,19.37-9.8,19.14s-8.43-9.21-7.88-20,4.92-19.37,9.82-19.13,8.41,9.21,7.87,20Z"/><path class="cls-6" d="M146,115.84c-.37,7.46-3,13.39-5.89,13.25s-4.93-6.31-4.56-13.78,3-13.38,5.89-13.24,4.92,6.32,4.56,13.77Z"/><path class="cls-5" d="M90.95,133.06c4.15,7.16,4.88,14.5,1.64,16.38S83.35,147,79.2,139.87s-4.89-14.5-1.65-16.38,9.24,2.4,13.4,9.57Z"/><path class="cls-5" d="M118.94,80.43c7.54,3.41,12.41,8.94,10.87,12.36s-8.92,3.42-16.46,0-12.42-8.93-10.87-12.35,8.91-3.43,16.47,0Z"/><path class="cls-6" d="M118.1,82.25c5.23,2.35,8.71,5.89,7.81,7.9s-5.88,1.75-11.1-.62-8.7-5.89-7.78-7.9,5.87-1.74,11.08.62Z"/><path class="cls-5" d="M114.05,117.91c9.5,5,15.37,12.6,13.09,16.9s-11.83,3.71-21.33-1.32-15.36-12.59-13.09-16.9,11.82-3.71,21.33,1.32Z"/><path class="cls-5" d="M117.55,83.48c3.69,1.67,6.27,3.92,5.76,5s-3.9.68-7.59-1-6.26-3.91-5.76-5,3.9-.68,7.58,1Z"/><path class="cls-6" d="M112.84,120.19c6.56,3.47,10.8,8.34,9.45,10.88s-7.75,1.78-14.31-1.7S97.19,121,98.53,118.49s7.75-1.78,14.31,1.7Z"/><path class="cls-6" d="M89.22,134.06c2.87,4.95,3.64,9.85,1.73,11s-5.79-2-8.65-7-3.64-9.85-1.73-11,5.79,2,8.65,7Z"/><path class="cls-6" d="M122.64,158.94c6.6,2,11.32,5.74,10.54,8.29s-6.77,3-13.38,1-11.31-5.74-10.53-8.29,6.77-3,13.37-.95Z"/><path class="cls-6" d="M154.86,142.62c3.69,3.24,5.67,7,4.42,8.44s-5.27,0-9-3.29-5.67-7-4.41-8.44,5.26,0,8.94,3.29Z"/><path class="cls-5" d="M112,121.74c4.65,2.46,7.8,5.58,7.06,7s-5.11.56-9.75-1.9-7.8-5.59-7.06-7,5.1-.56,9.75,1.9Z"/><path class="cls-5" d="M88,134.74c2,3.5,2.82,6.84,1.76,7.45s-3.57-1.72-5.59-5.22-2.81-6.83-1.75-7.46S86,131.23,88,134.74Z"/><path class="cls-5" d="M144.23,115.75c-.26,5.28-1.77,9.49-3.37,9.41s-2.69-4.42-2.42-9.7,1.77-9.48,3.38-9.41,2.68,4.42,2.41,9.7Z"/><path class="cls-5" d="M154.1,143.49c2.61,2.29,4.17,4.79,3.47,5.58s-3.37-.42-6-2.72-4.16-4.78-3.46-5.58,3.37.43,6,2.72Z"/><path class="cls-5" d="M122.16,160.5c4.67,1.43,8.11,3.74,7.67,5.15s-4.57,1.41-9.24,0-8.1-3.75-7.67-5.17,4.57-1.4,9.24,0Z"/><path class="cls-5" d="M162.85,182.64c-.53,10.82-4.93,19.37-9.81,19.14s-8.44-9.21-7.89-20,4.92-19.37,9.82-19.13,8.41,9.21,7.88,20Z"/><path class="cls-6" d="M160.25,182.51c-.37,7.47-3,13.39-5.89,13.25s-4.93-6.31-4.56-13.78,3-13.38,5.89-13.24,4.92,6.32,4.56,13.76Z"/><path class="cls-5" d="M158.49,182.43c-.26,5.28-1.77,9.5-3.37,9.41s-2.69-4.42-2.42-9.7,1.77-9.49,3.38-9.42,2.68,4.42,2.41,9.7Z"/><path class="cls-5" d="M190.44,163.73c1.46,8.17-.37,15.32-4.06,16s-7.87-5.44-9.32-13.61.37-15.32,4.06-16,7.87,5.44,9.32,13.61Z"/><path class="cls-5" d="M214.08,182c-1.44,5.71-4.71,9.82-7.29,9.16s-3.51-5.82-2.07-11.54,4.71-9.82,7.29-9.17,3.51,5.82,2.08,11.54Z"/><path class="cls-6" d="M188.48,164.07c1,5.64,0,10.53-2.14,10.91s-4.76-3.87-5.75-9.51,0-10.52,2.13-10.91,4.76,3.87,5.76,9.5Z"/><path class="cls-6" d="M212.71,181.68c-1,4-3,6.84-4.56,6.45s-2-3.89-1-7.84,3-6.84,4.56-6.45,2,3.89,1,7.84Z"/><path class="cls-5" d="M211.77,181.45c-.7,2.79-2,4.88-2.8,4.67s-1-2.65-.26-5.44,2-4.88,2.81-4.67,1,2.65.25,5.44Z"/><path class="cls-5" d="M187.14,164.31c.71,4,.3,7.4-.9,7.61s-2.77-2.84-3.47-6.83-.3-7.39.91-7.62,2.77,2.85,3.46,6.84Z"/><path class="cls-5" d="M186.19,202.71c-8.19,3.7-16.16,3.69-17.83,0S172,193,180.15,189.32s16.15-3.69,17.83,0-3.61,9.69-11.79,13.38Z"/><path class="cls-6" d="M185.3,200.75c-5.65,2.55-11,2.83-12,.66s2.79-6,8.44-8.57,11-2.83,12-.66-2.81,6-8.44,8.57Z"/><path class="cls-5" d="M184.7,199.42c-4,1.8-7.68,2.28-8.22,1.07s2.25-3.66,6.25-5.46,7.67-2.28,8.22-1.07-2.25,3.65-6.25,5.45Z"/><path class="cls-5" d="M260.89,215.22c6.21-.33,11.37,1.7,11.51,4.51s-4.78,5.35-11,5.67-11.37-1.69-11.52-4.5,4.77-5.35,11-5.68Z"/><path class="cls-5" d="M245.47,191.53c6.28,7.1,8.74,15.14,5.54,18s-10.91-.62-17.16-7.72-8.75-15.14-5.52-18,10.89.63,17.14,7.72Z"/><path class="cls-6" d="M243.77,193c4.32,4.9,6.29,10.23,4.4,11.89s-6.94-.94-11.27-5.84-6.28-10.23-4.39-11.89,6.94,1,11.26,5.84Z"/><path class="cls-6" d="M261,216.73c4.29-.23,7.84.93,7.92,2.58s-3.32,3.19-7.61,3.41-7.84-.93-7.92-2.6,3.32-3.18,7.61-3.4Z"/><path class="cls-5" d="M242.61,194.05c3.06,3.46,4.69,7,3.63,7.95s-4.38-1.13-7.44-4.6-4.69-7-3.63-8,4.38,1.13,7.44,4.61Z"/><path class="cls-5" d="M261,217.74c3-.16,5.52.46,5.58,1.37s-2.37,1.79-5.41,2-5.52-.46-5.58-1.38,2.37-1.79,5.41-1.94Z"/><path class="cls-5" d="M462.26,254.48c-7,1.09-12.3,4.56-11.81,7.74s6.59,4.87,13.61,3.77,12.32-4.56,11.82-7.74-6.6-4.87-13.62-3.77Z"/><path class="cls-6" d="M462.53,256.17c-4.86.76-8.55,2.89-8.26,4.76s4.47,2.79,9.32,2,8.54-2.88,8.24-4.76-4.46-2.78-9.3-2Z"/><path class="cls-5" d="M462.71,257.32c-3.43.53-6.09,1.81-5.92,2.85s3.07,1.46,6.5.92,6.07-1.81,5.92-2.86-3.07-1.45-6.5-.9Z"/><path class="cls-5" d="M403.88,290.12c4.92,7.51,11.67,11.77,15.05,9.55s2.16-10.13-2.77-17.62-11.66-11.78-15.07-9.55-2.14,10.12,2.78,17.61Z"/><path class="cls-6" d="M405.67,288.94c3.4,5.18,7.79,8.3,9.79,7s.87-6.58-2.53-11.76-7.79-8.29-9.78-7-.86,6.59,2.53,11.75Z"/><path class="cls-5" d="M406.91,288.14c2.4,3.66,5.25,6,6.36,5.3s.06-4.29-2.35-7.95-5.25-6-6.37-5.31-.06,4.29,2.36,8Z"/><path class="cls-5" d="M342.62,247c-5.06-3.59-10.5-4.66-12.13-2.36s1.16,7.07,6.23,10.68,10.5,4.65,12.12,2.36-1.16-7.08-6.23-10.68Z"/><path class="cls-5" d="M377.73,238.14c-9.11,2.63-15.5,8.1-14.32,12.2S373,255.67,382,253s15.5-8.09,14.3-12.22-9.53-5.3-18.61-2.67Z"/><path class="cls-6" d="M378.35,240.32c-6.27,1.83-10.78,5.27-10.09,7.69s6.37,2.92,12.64,1.11,10.79-5.27,10.08-7.69-6.37-2.92-12.64-1.11Z"/><path class="cls-6" d="M341.75,248.19c-3.5-2.49-7.12-3.41-8.08-2.06s1.1,4.47,4.61,7,7.11,3.41,8.07,2.06-1.09-4.47-4.6-6.95Z"/><path class="cls-5" d="M378.79,241.8c-4.45,1.29-7.73,3.42-7.33,4.76s4.3,1.4,8.74.11,7.71-3.42,7.33-4.78-4.3-1.39-8.74-.09Z"/><path class="cls-5" d="M341.17,249c-2.48-1.76-4.92-2.58-5.45-1.83s1,2.78,3.51,4.54,4.91,2.57,5.45,1.82-1-2.78-3.52-4.53Z"/><path class="cls-5" d="M458.16,215.49c-8.18-1.17-15.26.89-15.79,4.61s5.7,7.66,13.89,8.83,15.27-.89,15.8-4.6-5.69-7.67-13.9-8.84Z"/><path class="cls-6" d="M457.89,217.47c-5.66-.81-10.5.31-10.82,2.49s4,4.63,9.7,5.42,10.5-.31,10.81-2.5-4-4.62-9.69-5.42Z"/><path class="cls-5" d="M457.7,218.8c-4-.56-7.4,0-7.56,1.17s2.93,2.66,6.94,3.23,7.38,0,7.57-1.17-2.94-2.66-6.94-3.22Z"/><path class="cls-3" d="M380.49,220.19c-18.67-.15-39.19-3.72-61.36-11.68-17.25-6.19-33.53-15-49.53-25.36,14.13,17.08,24,33.66,35.21,42.83,14,11.5,45.7,3,75.67-5.79Z"/><path class="cls-4" d="M357.19,224.69c-1.47-1.14-5.41-3.51-6.74-5.1a5.73,5.73,0,0,1-1.29-2.69,175,175,0,0,0,18.44,2.65c-.86,1.87-7.06,7.74-10.42,5.14Z"/><path class="cls-4" d="M345.37,222.28c5.75,1.2,8.73,2.93,10,4.79-4.81,1.16-9.53,2.16-14.05,2.92-2.51-4.46-2.48-9.09,4-7.71Z"/><path class="cls-4" d="M341.52,220.5c2.19,1,4.59.6,5.38-.93a3,3,0,0,0-.7-3.28c-2-.44-4.11-.92-6.19-1.43a2.49,2.49,0,0,0-1,1c-.79,1.53.33,3.6,2.51,4.63Z"/><path class="cls-4" d="M316.38,230.86a14,14,0,0,1-.75-2.73c-1.42-11,18.94-13.85,21.4-7a32,32,0,0,1,1.47,9.27c-8.25,1.21-15.8,1.54-22.12.42Z"/><path class="cls-4" d="M327.56,213.07c-.18-.48-.5-1.2-.85-2q4.73,1.52,9.37,2.76c-3.08,2.08-7.81,1.17-8.52-.77Z"/><path class="cls-4" d="M314.25,214.51c1.78-4.21,3.64-5.71,5.28-5.86l3.51,1.23c7.84,5-12.39,13.23-8.79,4.63Z"/><path class="cls-4" d="M309.51,226.14a29.53,29.53,0,0,1,3.74,4,22.66,22.66,0,0,1-8.43-4.18l-1.06-.89c1.29-1.28,3.2-1.29,5.75,1.05Z"/><path class="cls-4" d="M308.35,222.42c1.3,2,3.58,2.8,5.1,1.89s1.69-3.23.38-5.19-3.57-2.8-5.09-1.89-1.7,3.24-.4,5.19Z"/><path class="cls-4" d="M298.83,209.68c-3.15,3.58-3.56,7.69-.93,9.18s7.3-.17,10.45-3.73,3.56-7.68.94-9.19-7.31.18-10.45,3.74Z"/><path class="cls-4" d="M293.26,197.91c.29,0,.7-.14,1.16-.24q3.21,1.66,6.46,3.2c-.41,3.08-2.66,6.9-4.74,7.22-12,1.88-5.87-9.68-2.88-10.18Z"/><path class="cls-4" d="M274.42,189.13a9.41,9.41,0,0,0,2.74-1.23q-3.78-2.31-7.55-4.75c1.66,2,3.26,4,4.81,6Z"/><path class="cls-4" d="M288.62,197.55c-1.27-.55-4.46-1.49-5.79-2.41a5.86,5.86,0,0,1-2.48-5.31q5.68,3.38,11.44,6.45c-.94,1.13-2.2,1.68-3.17,1.26Z"/><path class="cls-4" d="M281,197.75c7.19.36,7.92,4.2,6,8.07l-6-8.07Z"/><path class="cls-5" d="M14.19,123.6c6-5.64,13-8,15.59-5.27s-.28,9.54-6.33,15.2-13,8-15.59,5.28.27-9.54,6.33-15.21Z"/><path class="cls-6" d="M15.55,125.07c4.18-3.92,8.79-5.77,10.29-4.16s-.65,6.1-4.85,10-8.78,5.76-10.29,4.14.65-6.09,4.84-10Z"/><path class="cls-5" d="M16.47,126.05c3-2.76,6-4.28,6.86-3.38s-.87,3.86-3.83,6.62-6,4.27-6.87,3.37.88-3.86,3.84-6.62Z"/><path class="cls-5" d="M11,64c5.23-2.65,10.46-2.89,11.66-.51s-2.07,6.45-7.31,9.11S4.9,75.47,3.7,73.1,5.77,66.65,11,64Z"/><path class="cls-6" d="M11.65,65.26c3.62-1.84,7.13-2.2,7.83-.8s-1.64,4-5.27,5.85-7.13,2.2-7.83.79,1.65-4,5.27-5.85Z"/><path class="cls-5" d="M12.08,66.11c2.56-1.29,5-1.73,5.35-1s-1.36,2.46-3.92,3.76-4.94,1.72-5.35.94,1.36-2.46,3.92-3.75Z"/><path class="cls-4" d="M379.76,220.18l.32.13c-3.63,1.06-7.27,2.12-10.91,3.14a4.66,4.66,0,0,1,.17-3.75q5.3.42,10.43.48Z"/></svg>