<svg id="Ebene_1" data-name="Ebene 1" xmlns="http://www.w3.org/2000/svg" viewBox="0 0 1800 600"><defs><style>.cls-1{fill:none;}.cls-2{fill:#d0d8dd;}.cls-3{fill:#a3bc6a;}.cls-4{fill:#498966;}.cls-5{fill:#327561;}.cls-6{fill:#decfaf;}.cls-7{fill:#e7dcc6;}.cls-8{fill:#f3eee3;}.cls-9{fill:#d9c8a4;}.cls-10{fill:#d0bb8d;}.cls-11{fill:#00983a;}.cls-12{fill:#ed6e19;}.cls-13{fill:#f1853b;}.cls-14{fill:#f9bb8c;}.cls-15{fill:#f49d5e;}.cls-16{fill:#3d7f46;}.cls-17{fill:#eaedb2;}.cls-18{fill:#dae49b;}.cls-19{fill:#f7f4e5;}.cls-20{fill:#e4ead3;}.cls-21{fill:#fff;}.cls-22{fill:#76b82a;}.cls-23{fill:#669d24;}.cls-24{fill:#89be3f;}.cls-25{fill:#439747;}.cls-26{fill:#e63721;}.cls-27{fill:#ec6b4f;}.cls-28{fill:#42240d;}.cls-29{fill:#196534;}.cls-30{fill:#cae2c3;}.cls-31{fill:#e31f13;}.cls-32{fill:#e74529;}.cls-33{fill:#f9b039;}.cls-34{fill:#2fa53b;}.cls-35{fill:#4ba334;}.cls-36{fill:#fffdee;}.cls-37{fill:#d6df7c;}.cls-38{fill:#eb620d;}.cls-39{fill:#fffdea;}.cls-40{fill:#f18c06;}.cls-41{fill:#f1d4a6;}</style></defs><title>Image 42.A [Converted]</title><rect class="cls-1" width="1800" height="600"/><path class="cls-2" d="M1683.64,241.15l-5.27-5.27.94,107.35a5,5,0,0,1-10,0l-3-112.22a1.49,1.49,0,0,0-1.49-1.45h-1.08a1.49,1.49,0,0,0-1.49,1.48l-1,112.19a5,5,0,0,1-10,0l-1-112.19a1.49,1.49,0,0,0-1.49-1.48h-1.08a1.49,1.49,0,0,0-1.49,1.45l-3,112.22a5,5,0,0,1-10,0l1-112.17a1.49,1.49,0,0,0-1.49-1.5h0a1.48,1.48,0,0,0-1.45,1.13c-7.3,30.47-15.05,90.9-15.05,121.53,0,44.84,6.71,51.21,17,67.63a49.74,49.74,0,0,1,7.53,26.37V600h31V446.23a49.74,49.74,0,0,1,7.53-26.37c10.27-16.42,17-22.8,17-67.63C1696.31,324.29,1690,272.61,1683.64,241.15Z"/><path class="cls-2" d="M878.57,361.5a1.49,1.49,0,0,0-1.49-1.48H876a1.49,1.49,0,0,0-1.49,1.45l-.37,14,4.5-4.5Z"/><path class="cls-2" d="M909.59,361.15a1.48,1.48,0,0,0-1.45-1.13h-.08a1.49,1.49,0,0,0-1.49,1.5l1,112.17a5,5,0,1,1-10,0l-3-112.22a1.49,1.49,0,0,0-1.49-1.45H892a1.49,1.49,0,0,0-1.49,1.48l-1,112.19a5,5,0,1,1-10,0l-.46-52h-6.17l-1.37,52a5,5,0,1,1-10,0l.46-52.35H849.41c-2.89,22.92-4.86,45.92-4.86,61.35,0,44.84,6.71,51.21,17,67.63,4.94,7.9,7.53,40.36,7.53,49.68h31c0-9.32,2.59-41.78,7.53-49.68,10.27-16.42,17-22.79,17-67.63C924.56,451.37,916.61,390.21,909.59,361.15Z"/><path class="cls-2" d="M862.54,361.52a1.49,1.49,0,0,0-2.93-.37c-2.29,9.55-4.62,22-6.74,35.62l9.45-9.45Z"/><path class="cls-2" d="M1368.63,229.56h-.09a1.49,1.49,0,0,0-1.49,1.5l1,112.17a5,5,0,0,1-10,0l-3-112.22a1.49,1.49,0,0,0-1.49-1.45h-1.08A1.49,1.49,0,0,0,1351,231l-1,112.19a5,5,0,0,1-10,0l-1-112.19a1.49,1.49,0,0,0-1.49-1.48h-1.08A1.49,1.49,0,0,0,1335,231l-3,112.22a5,5,0,0,1-10,0l1-112.17a1.49,1.49,0,0,0-1.49-1.5h0a1.48,1.48,0,0,0-1.45,1.13c-7.3,30.47-15.05,90.9-15.05,121.53,0,44.84,6.71,51.21,17,67.63a49.74,49.74,0,0,1,7.53,26.37V600h31V446.23a49.74,49.74,0,0,1,7.53-26.37c10.27-16.42,17-22.8,17-67.63,0-31.31-7.95-92.47-15-121.54A1.48,1.48,0,0,0,1368.63,229.56Z"/><path class="cls-2" d="M612.57,375.4l.86,98.29a5,5,0,1,1-10,0l-2.81-106.59Q598.56,366,596.4,365l-1,108.67a5,5,0,1,1-10,0l-1-112.19A1.49,1.49,0,0,0,583,360h-1.08a1.49,1.49,0,0,0-1.49,1.45l-3,112.22a5,5,0,1,1-10,0l1-112.17a1.49,1.49,0,0,0-2.93-.37c-7.3,30.47-15.05,90.9-15.05,121.53,0,44.84,6.71,51.21,17,67.63,4.94,7.9,7.53,40.36,7.53,49.68h31c0-9.32,2.59-41.78,7.53-49.68,10.27-16.42,17-22.79,17-67.63,0-24.87-5-68.55-10.59-100A75.12,75.12,0,0,0,612.57,375.4Z"/><path class="cls-2" d="M763.12,229.56H763a1.49,1.49,0,0,0-1.49,1.5l1,112.17a5,5,0,1,1-10,0l-3-112.22a1.49,1.49,0,0,0-1.49-1.45H747a1.49,1.49,0,0,0-1.49,1.48l-1,112.19a5,5,0,1,1-10,0l-1-112.19a1.49,1.49,0,0,0-1.49-1.48H731A1.49,1.49,0,0,0,729.5,231l-3,112.22a5,5,0,1,1-10,0l1-112.17a1.49,1.49,0,0,0-1.49-1.5h0a1.48,1.48,0,0,0-1.45,1.13c-7.3,30.47-15.05,90.9-15.05,121.53,0,44.84,6.71,51.21,17,67.63A49.74,49.74,0,0,1,724,446.23V600h31V446.23a49.74,49.74,0,0,1,7.53-26.37c10.27-16.42,17-22.8,17-67.63,0-31.31-7.95-92.47-15-121.54A1.48,1.48,0,0,0,763.12,229.56Z"/><path class="cls-2" d="M268.66,361.52a1.49,1.49,0,0,0-2.93-.37c-2.78,11.62-5.63,27.59-8.09,44.6q5.37-.38,10.65-1.21Z"/><path class="cls-2" d="M300.71,361.47a1.49,1.49,0,0,0-1.49-1.45h-1.08a1.49,1.49,0,0,0-1.49,1.48l-.31,35.38q2.64-1,5.24-2.14Z"/><path class="cls-2" d="M284.68,361.5a1.49,1.49,0,0,0-1.49-1.48h-1.08a1.49,1.49,0,0,0-1.49,1.45l-1.08,40.77q2.75-.69,5.47-1.5Z"/><path class="cls-2" d="M315.7,361.15a1.48,1.48,0,0,0-1.45-1.13h-.08a1.49,1.49,0,0,0-1.49,1.5l.24,27.81q3.84-2,7.58-4.21C318.93,376,317.29,367.73,315.7,361.15Z"/><path class="cls-2" d="M1216.2,380.5h-6.85l.82,93.19a5,5,0,1,1-10,0l-3-112.22a1.49,1.49,0,0,0-1.49-1.45h-1.08a1.49,1.49,0,0,0-1.49,1.48l-1,112.19a5,5,0,1,1-10,0l-1-112.19a1.49,1.49,0,0,0-1.49-1.48h-1.08a1.49,1.49,0,0,0-1.49,1.45l-3,112.22a5,5,0,1,1-10,0l.53-60.81h-11.57c-3.48,25.59-6,52.47-6,69.81,0,44.84,6.71,51.21,17,67.63,4.94,7.9,7.53,40.36,7.53,49.68h31c0-9.32,2.59-41.78,7.53-49.68,10.27-16.42,17-22.79,17-67.63C1227.18,457.25,1221.93,412.12,1216.2,380.5Z"/><path class="cls-2" d="M1477.91,393.75l9.05-9.05-.78,89a5,5,0,1,0,10,0l2.66-100.87,4.41-4.41.93,105.28a5,5,0,1,0,10,0l1-112.19a1.49,1.49,0,0,1,1.49-1.48h1.08a1.49,1.49,0,0,1,1.49,1.45l3,112.22a5,5,0,1,0,10,0l-1-112.17a1.49,1.49,0,0,1,2.94-.37c7.3,30.47,15.05,90.9,15.05,121.53,0,44.84-6.71,51.21-17,67.63-4.94,7.9-7.53,40.36-7.53,49.68h-31c0-9.32-2.59-41.78-7.53-49.68-10.27-16.42-17-22.79-17-67.63C1469.18,460.63,1473.12,423.77,1477.91,393.75Z"/><path class="cls-2" d="M1060.72,343.23a5,5,0,0,1-10,0l-2.81-106.33-4.27.9-.93,105.44a5,5,0,0,1-10,0l-.9-102.67-4.42,1.13-2.68,101.53a5,5,0,1,1-10,0l.86-98.27q-3.11.9-6.21,1.83c-6.12,32.38-11.66,79.55-11.66,105.44,0,44.84,6.71,51.21,17,67.63a49.74,49.74,0,0,1,7.53,26.37V600h31V446.23a49.74,49.74,0,0,1,7.53-26.37c10.27-16.42,17-22.8,17-67.63,0-30.14-7.36-87.92-14.18-118.13l-3.78.6Z"/><path class="cls-2" d="M421.74,231.06a1.49,1.49,0,0,0-2.93-.37c-.91,3.79-1.82,8-2.73,12.64h5.55Z"/><path class="cls-2" d="M468.79,230.69a1.48,1.48,0,0,0-1.45-1.13h-.08a1.49,1.49,0,0,0-1.49,1.5l1,112.17a5,5,0,1,1-10,0l-3-112.22a1.49,1.49,0,0,0-1.49-1.45h-1.08a1.49,1.49,0,0,0-1.49,1.48l-1,112.19a5,5,0,1,1-10,0L438,261.67h-5.13l-2.15,81.56a5,5,0,1,1-10,0l.63-71.4H411.23c-4.25,28.51-7.47,60.64-7.47,80.4,0,44.84,6.71,51.21,17,67.63a49.74,49.74,0,0,1,7.53,26.37V600h31V446.23a49.74,49.74,0,0,1,7.53-26.37c10.27-16.42,17-22.8,17-67.63C483.75,320.92,475.81,259.76,468.79,230.69Z"/><path class="cls-2" d="M437.77,231a1.49,1.49,0,0,0-1.49-1.48H435.2a1.49,1.49,0,0,0-1.49,1.45l-.33,12.32h4.48Z"/><path class="cls-2" d="M167.78,230.69a1.48,1.48,0,0,0-1.45-1.13h-.09a1.49,1.49,0,0,0-1.49,1.5l1,112.17a5,5,0,1,1-10,0l-3-112.22a1.49,1.49,0,0,0-1.49-1.45h-1.08a1.49,1.49,0,0,0-1.49,1.48l-1,112.19a5,5,0,1,1-10,0l-1-112.19a1.49,1.49,0,0,0-1.49-1.48H134.2a1.49,1.49,0,0,0-1.49,1.45l-3,112.22a5,5,0,1,1-10,0l.91-103.46-6.07,6.07c-6.19,32.4-11.84,80.24-11.84,106.39,0,44.84,6.71,51.21,17,67.63a49.74,49.74,0,0,1,7.53,26.37V600h31V446.23a49.74,49.74,0,0,1,7.53-26.37c10.27-16.42,17-22.8,17-67.63C182.75,320.92,174.8,259.76,167.78,230.69Z"/><g id="broccoli"><path class="cls-3" d="M1677.52,186.52l-8.57,1.11a2.88,2.88,0,0,0-2.49,3.23l2.83,21.81,0,0-14-18.66a2.88,2.88,0,0,0-4-.58l-6.15,4.61a2.87,2.87,0,0,0-.58,4l15.13,20.21-.26.26L1636,221.43a2.88,2.88,0,0,0-3,2.74l-.58,12a2.88,2.88,0,0,0,2.74,3l32.16,1.55,28.43,30.42a5.76,5.76,0,0,0,8.15,0l12.89-12.91a5.76,5.76,0,0,0,0-8.15l-31.92-29.83L1680.75,189A2.88,2.88,0,0,0,1677.52,186.52Z"/><path class="cls-4" d="M1699,183.87a5.43,5.43,0,0,0-.5-.41,4.21,4.21,0,0,0-1.06-4.14,4.13,4.13,0,0,0-1.07-.75,3.94,3.94,0,0,0,1.54-5.23,3.64,3.64,0,0,0-.89-3.66,3.52,3.52,0,0,0-.79-.58l.11-.1a6.9,6.9,0,0,0-3.7-11.69,9.78,9.78,0,0,0-13-10.16,5.74,5.74,0,0,0-8.75-7.24,9.11,9.11,0,0,0-17,.74,18.41,18.41,0,0,0-3.18-1.06,5.5,5.5,0,0,0-1.18-1.76,5.57,5.57,0,0,0-9.26,2.2,18.84,18.84,0,0,0-2.47,1,4.88,4.88,0,0,0-5.59.93,4,4,0,0,0-6.25.69,11.7,11.7,0,0,0-5.2-2.93,8.92,8.92,0,0,1-7.88-1.14,3.6,3.6,0,0,0-3.56,4.3,11.74,11.74,0,0,0-3.18,6.15,5,5,0,0,0-3.7,8.35,9.43,9.43,0,0,0-3.21,2.11,9.53,9.53,0,0,0-.87,1l0,0a2.8,2.8,0,0,0-4.78,2.21,9.49,9.49,0,0,0-10.77,13.41c0,.09,0,.18,0,.27a5.45,5.45,0,0,0-6.2,7.53,14.39,14.39,0,0,0-2.07,16.24,3.44,3.44,0,0,0,.68,3.89l0,0a4.14,4.14,0,1,0,5,6.6,12,12,0,0,0-2.12,6,3.44,3.44,0,0,0,.24,4.59,3.66,3.66,0,0,0,.41.34,12,12,0,0,0,.68,1.6,5.17,5.17,0,0,0,7.46,7.16l0,.05a3.22,3.22,0,0,0,.3.24,3.48,3.48,0,0,0,5.26,2.67,11.54,11.54,0,0,0,.65,3.41,4.55,4.55,0,0,0-.66.54,4.6,4.6,0,0,0,1.47,7.5,4,4,0,0,0,3.53,3.28,12.65,12.65,0,0,0,15.31,12.73,3.82,3.82,0,0,0,6.3-3.42h0a12.54,12.54,0,0,0,2.47-3.53,16.33,16.33,0,0,0,5.6,1.3,3.83,3.83,0,0,0,7.44-1.34,16.33,16.33,0,0,0,9.71-13l0,0a4.58,4.58,0,0,0-.68-7.07,16.3,16.3,0,0,0-2.46-4.75,13,13,0,0,0,5.92-17.88,10.89,10.89,0,0,0,5.67-12.81,11.14,11.14,0,0,0,3.63,1.39,4,4,0,1,0,7.9.47,10.65,10.65,0,0,0,9.25-1.81,15.76,15.76,0,0,0,19.83-6.6,4.88,4.88,0,0,0,5.69-7.8Z"/><circle class="cls-3" cx="1588.27" cy="213.63" r="2" transform="translate(314.13 1185.65) rotate(-45)"/><circle class="cls-3" cx="1586.15" cy="198.78" r="2" transform="translate(323.99 1179.77) rotate(-45)"/><circle class="cls-3" cx="1601.23" cy="199.72" r="2" transform="translate(327.76 1190.74) rotate(-45)"/><circle class="cls-3" cx="1591.8" cy="181.34" r="2" transform="translate(338.51 1179.33) rotate(-45.03)"/><circle class="cls-3" cx="1578.84" cy="190.53" r="2" transform="translate(327.7 1172.21) rotate(-45)"/><circle class="cls-3" cx="1590.39" cy="223.77" r="2" transform="translate(307.11 1189.48) rotate(-44.97)"/><circle class="cls-3" cx="1609.95" cy="223.53" r="2" transform="translate(313.48 1203.88) rotate(-45)"/><circle class="cls-3" cx="1603.12" cy="213.4" r="2" transform="translate(318.66 1196.1) rotate(-45)"/><circle class="cls-3" cx="1605.47" cy="239.79" r="2" transform="translate(301.17 1206.14) rotate(-45.03)"/><circle class="cls-3" cx="1605.95" cy="251.11" r="2" transform="translate(292.79 1209.1) rotate(-45)"/><circle class="cls-3" cx="1616.08" cy="246.16" r="2" transform="translate(299.28 1214.84) rotate(-45)"/><circle class="cls-3" cx="1603.59" cy="169.56" r="2" transform="translate(349.79 1183.57) rotate(-45)"/><circle class="cls-5" cx="1683.02" cy="187.7" r="2" transform="translate(359.69 1244.4) rotate(-44.97)"/><circle class="cls-5" cx="1687.97" cy="179.46" r="2" transform="translate(367.5 1246.14) rotate(-45)"/><circle class="cls-5" cx="1685.38" cy="164.14" r="2" transform="translate(377.59 1239.84) rotate(-45)"/><circle class="cls-5" cx="1673.59" cy="187.23" r="2" transform="translate(358.31 1238.9) rotate(-45.03)"/><circle class="cls-5" cx="1662.04" cy="188.41" r="2" transform="translate(353.55 1230.4) rotate(-45)"/><circle class="cls-5" cx="1674.77" cy="156.83" r="2" transform="translate(379.63 1230.18) rotate(-45)"/><circle class="cls-5" cx="1674.06" cy="172.62" r="2" transform="translate(368.26 1234.3) rotate(-45)"/><circle class="cls-5" cx="1659.21" cy="151.17" r="2" transform="translate(379.1 1217.54) rotate(-45)"/><circle class="cls-5" cx="1662.28" cy="175.45" r="2" transform="translate(362.83 1226.82) rotate(-45)"/><circle class="cls-5" cx="1646.72" cy="200.43" r="2" transform="translate(340.6 1223.14) rotate(-45)"/><circle class="cls-5" cx="1642.24" cy="212.92" r="2" transform="translate(330.92 1224.23) rotate(-45.03)"/><circle class="cls-3" cx="1617.73" cy="198.31" r="2" transform="translate(333.61 1202.02) rotate(-45)"/><circle class="cls-3" cx="1607.12" cy="182.05" r="2" transform="translate(341.99 1189.73) rotate(-45)"/></g><g id="mushroom"><path class="cls-6" d="M899.32,361.75a10.89,10.89,0,0,0-7.93-7.31l-5.21-.93a9.2,9.2,0,0,1-4.8-2.67l-44.8,44.8,13.83,13.93a9.6,9.6,0,0,0,13.58,0l37.34-40.94a7.1,7.1,0,0,1-.61-1.56Z"/><path class="cls-7" d="M878.81,346.08l-.89-5.22a10.89,10.89,0,0,0-7.26-8l-5.35-1.44a8.18,8.18,0,0,1-1.18-.41l-41.29,37.14a9.61,9.61,0,0,0,0,13.58l13.79,13.89,44.8-44.8A9.19,9.19,0,0,1,878.81,346.08Z"/><path class="cls-7" d="M905.39,368.69l2.53-3.83-1.76-1.46c-6-5.08-12.48-11.33-19.21-18.11l-5.55,5.55a9.2,9.2,0,0,0,4.8,2.67l5.21.93a10.89,10.89,0,0,1,7.93,7.31l1.41,5.36a7.1,7.1,0,0,0,.61,1.56C902.38,370.65,904,370.77,905.39,368.69Z"/><path class="cls-8" d="M869.31,326.37c-.58-.7-1.16-1.39-1.71-2.08l-3.84,2.49c-2.23,1.44-2,3.21.37,4.25a8.18,8.18,0,0,0,1.18.41l5.35,1.44a10.89,10.89,0,0,1,7.26,8l.89,5.22a9.19,9.19,0,0,0,2.58,4.75l5.55-5.55C880.36,338.66,874.28,332.31,869.31,326.37Z"/><path class="cls-9" d="M860,293.9c-7.17,7.12-2.53,17.74,7.64,30.39.55.69,1.12,1.38,1.71,2.08,5,5.94,11,12.3,17.62,18.92L938.22,294C916.56,272.51,870.8,283.14,860,293.9Z"/><path class="cls-10" d="M938.4,294.18l-.18-.17-51.28,51.28c6.73,6.78,13.19,13,19.21,18.11l1.76,1.46c12.52,10.2,23.07,14.85,30.22,7.75C949,361.82,960,315.91,938.4,294.18Z"/><path class="cls-8" d="M882.08,296.49a47.3,47.3,0,0,1-15.88,1.76,45.57,45.57,0,0,1,30.18-8.9A47.3,47.3,0,0,1,882.08,296.49Z"/><path class="cls-8" d="M877.89,310.89a15.32,15.32,0,0,1-8.73.44,13.64,13.64,0,0,1,15.4-6.08A15.31,15.31,0,0,1,877.89,310.89Z"/></g><g id="carrot"><path class="cls-11" d="M195.9,176.63a2.41,2.41,0,0,0,.3,3,2.13,2.13,0,0,0,.26.23,2.48,2.48,0,0,0,3.19-.35l.25-.25,24.84-37a2.39,2.39,0,0,0-.9-3.44l0,0a2.37,2.37,0,0,0-3,.8Z"/><path class="cls-11" d="M231.36,144.5a2.38,2.38,0,0,0-3.39,0L196.2,176.26a2.4,2.4,0,0,0,3.39,3.39l31.77-31.77a2.38,2.38,0,0,0,0-3.34Z"/><path class="cls-11" d="M196.57,176a2.4,2.4,0,0,0-.65,3.35,2.5,2.5,0,0,0,.28.34,2.4,2.4,0,0,0,3,.3h0l36.91-24.67a2.39,2.39,0,0,0,.79-3.08l0,0a2.38,2.38,0,0,0-3.43-.86Z"/><path class="cls-12" d="M80.81,294.5c5.71,5.71,32.6-10.74,61.56-31.67L134,254.46a2.4,2.4,0,0,1,3.39-3.39l8.9,8.9c15.29-11.2,30.92-23.4,44.1-34.07L177.54,213a2.4,2.4,0,0,1,3.39-3.39l13.21,13.21c14.36-11.71,25.26-21.13,28.65-24.52,12.65-12.66,4.16-24.68-8.49-37.33Z"/><path class="cls-13" d="M214.3,161c-12.65-12.65-24.68-21.15-37.33-8.49-1.2,1.2-3.14,3.33-5.67,6.21l17,17a2.4,2.4,0,1,1-3.39,3.39l-16.74-16.74c-8.16,9.49-20.31,24.24-33,40.52l14.55,14.55a2.4,2.4,0,0,1-3.39,3.39L132.16,206.7c-13.8,17.83-27.92,37.11-38,53.14l5.37,5.37a2.4,2.4,0,0,1-3.39,3.39L91.52,264C82.24,279.28,77.27,291,80.81,294.5Z"/><path class="cls-14" d="M188.29,179.1a2.4,2.4,0,0,0,0-3.39l-17-17c-1,1.1-2,2.33-3.15,3.64L184.9,179.1A2.4,2.4,0,0,0,188.29,179.1Z"/><path class="cls-15" d="M177.54,209.65a2.4,2.4,0,0,0,0,3.39L190.4,225.9l3.75-3-13.21-13.21A2.4,2.4,0,0,0,177.54,209.65Z"/><path class="cls-14" d="M149.68,220.82a2.4,2.4,0,0,0,0-3.39l-14.55-14.55-3,3.82,14.13,14.13A2.4,2.4,0,0,0,149.68,220.82Z"/><path class="cls-15" d="M134,251.07a2.4,2.4,0,0,0,0,3.39l8.36,8.36,3.93-2.86-8.9-8.9A2.4,2.4,0,0,0,134,251.07Z"/><path class="cls-14" d="M99.49,268.61a2.4,2.4,0,0,0,0-3.4l-5.37-5.37c-.9,1.42-1.77,2.82-2.6,4.19l4.58,4.58A2.4,2.4,0,0,0,99.49,268.61Z"/></g><g id="cucumber_slice" data-name="cucumber slice"><path class="cls-16" d="M571.18,398.41l-23.58-9.76a10,10,0,0,1-3.25-2.17l-18-18a10,10,0,0,1-2.17-3.25l-9.76-23.58a10,10,0,0,1-.76-3.83V312.27a10,10,0,0,1,.76-3.83l9.76-23.58a10,10,0,0,1,2.17-3.25l18-18a10,10,0,0,1,3.24-2.17l23.58-9.77a10,10,0,0,1,3.83-.76h25.52a10,10,0,0,1,3.83.76l23.58,9.76a10,10,0,0,1,3.24,2.17l18,18a10,10,0,0,1,2.17,3.24l9.77,23.58a10,10,0,0,1,.76,3.83v25.52a10,10,0,0,1-.76,3.83l-9.77,23.58a10,10,0,0,1-2.17,3.24l-18,18a10,10,0,0,1-3.24,2.17l-23.58,9.76a10,10,0,0,1-3.83.76H575A10,10,0,0,1,571.18,398.41Z"/><path class="cls-17" d="M587.75,393a68,68,0,1,1,63.71-44.37A67.71,67.71,0,0,1,587.75,393Z"/><path class="cls-18" d="M574.9,306.85a5.1,5.1,0,0,1-5.1,5.1h0a5.1,5.1,0,0,1-5.1-5.1V294.18a5.1,5.1,0,0,1,5.1-5.1h0a5.09,5.09,0,0,1,5.1,5.09Zm12.2-20.67a5.1,5.1,0,0,0-5.1-5.1h0a5.1,5.1,0,0,0-5.1,5.1v16.67a5.09,5.09,0,0,0,5.1,5.09h0a5.09,5.09,0,0,0,5.1-5.09Zm12.2,0a5.09,5.09,0,0,0-5.1-5.1h0a5.1,5.1,0,0,0-5.1,5.1v16.67a5.1,5.1,0,0,0,5.1,5.09h0a5.09,5.09,0,0,0,5.1-5.09Zm12.2,8a5.09,5.09,0,0,0-5.1-5.1h0a5.1,5.1,0,0,0-5.1,5.1v12.67a5.1,5.1,0,0,0,5.1,5.1h0a5.09,5.09,0,0,0,5.1-5.1Zm-43.37,57.45a5.1,5.1,0,0,0-1.87,7h0a5.1,5.1,0,0,0,7,1.86l11-6.33a5.1,5.1,0,0,0,1.87-7h0a5.1,5.1,0,0,0-7-1.87Zm-13-6.56a5.1,5.1,0,0,0-1.87,7h0a5.1,5.1,0,0,0,7,1.87l14.44-8.34a5.09,5.09,0,0,0,1.86-7h0a5.09,5.09,0,0,0-7-1.87ZM549,334.5a5.1,5.1,0,0,0-1.87,7h0a5.1,5.1,0,0,0,7,1.87L568.53,335a5.1,5.1,0,0,0,1.86-7h0a5.1,5.1,0,0,0-7-1.87Zm.83-14.56a5.1,5.1,0,0,0-1.86,7h0a5.1,5.1,0,0,0,7,1.87l11-6.34a5.1,5.1,0,0,0,1.87-7h0a5.1,5.1,0,0,0-7-1.87Zm71.44,8.83a5.1,5.1,0,0,0,7-1.87h0a5.1,5.1,0,0,0-1.87-7l-11-6.33a5.1,5.1,0,0,0-7,1.87h0a5.1,5.1,0,0,0,1.87,7Zm.83,14.57a5.1,5.1,0,0,0,7-1.86h0a5.1,5.1,0,0,0-1.87-7l-14.44-8.34a5.09,5.09,0,0,0-7,1.87h0a5.09,5.09,0,0,0,1.86,7ZM616,353.9a5.1,5.1,0,0,0,7-1.87h0a5.1,5.1,0,0,0-1.87-7l-14.44-8.34a5.1,5.1,0,0,0-7,1.87h0a5.1,5.1,0,0,0,1.86,7Zm-13,6.56a5.1,5.1,0,0,0,7-1.87h0a5.1,5.1,0,0,0-1.87-7l-11-6.33a5.1,5.1,0,0,0-7,1.87h0a5.09,5.09,0,0,0,1.86,7Z"/></g><g id="cauliflower"><path class="cls-18" d="M458,244.72l.06-9.37a4,4,0,0,0-4.7-3.14l-14.58-.06,8.39-12.56a4,4,0,0,0-1.1-5.55l-4.94-2.73a4,4,0,0,0-5.55,1.1l-11.09,12.32,6.07-21a4,4,0,0,0-2.16-5.23l-9.25-2.76a4,4,0,0,0-5.23,2.17l-16.7,40.48L373,259.78a4,4,0,0,0,0,5.66l17,17a4,4,0,0,0,5.66,0l23.25-26.09,36-6.9A4,4,0,0,0,458,244.72Z"/><path class="cls-19" d="M492.7,257a8.13,8.13,0,0,0,9-9.07,8.17,8.17,0,0,0,9.87-8.83,8.12,8.12,0,0,0,5-10.3,5.79,5.79,0,0,0,1.17-9.17,5.8,5.8,0,0,0-2.28-1.39,6.15,6.15,0,0,0,.14-.82,5.75,5.75,0,0,0,2.51-1.46,5.85,5.85,0,0,0-5.17-9.9,5.7,5.7,0,0,0-.35-.93,5.69,5.69,0,0,0,1-.81,5.86,5.86,0,0,0-6.33-9.57,8.14,8.14,0,0,0-1.32-2.73,5.85,5.85,0,1,0-2.27-11.24,5.73,5.73,0,0,0-3.81-4.59,8.19,8.19,0,0,0-13.05-7.77,8.2,8.2,0,0,0-10.61-11.75,5.81,5.81,0,0,0-7.33-5.47,7,7,0,0,0-1.19-1.64,7.1,7.1,0,0,0-6.78-1.84,8.14,8.14,0,0,0-2.29-4.54,8.23,8.23,0,0,0-13.46,2.75,6.94,6.94,0,0,0-9.32.34,7.92,7.92,0,0,0-1.17-1.52,8.19,8.19,0,0,0-13.8,3.88,7.91,7.91,0,0,0-5.08,3.7c-.06-.06-.1-.13-.16-.19a8.22,8.22,0,0,0-12.89,10,5.84,5.84,0,0,0-7,9.24c.09.09.19.15.27.22a5.9,5.9,0,0,0-1.46,1,5.84,5.84,0,0,0-.6,7.55,5.83,5.83,0,0,0,3.56,9.28,5.82,5.82,0,0,0,.09,2.05,5.83,5.83,0,0,0,4.7,10.6,8.12,8.12,0,0,0,2.11,3.76,8.23,8.23,0,0,0,11.65,0,8.14,8.14,0,0,0,1.95-3.19c.15,0,.29-.09.43-.15a4.78,4.78,0,0,0,.39.47,5.84,5.84,0,0,0,6.47,1.22,7.77,7.77,0,0,0,.61.75,8.22,8.22,0,0,0,1.26,1,8,8,0,0,0,8.44,5.64,8,8,0,0,0,5.94,6.56,5.76,5.76,0,0,0,4,4.47,8,8,0,0,0,5.65,6.68,5.8,5.8,0,0,0-1.1,9.13,5.82,5.82,0,0,0,4.75,1.66,8.21,8.21,0,0,0,.93,2.33,5.82,5.82,0,0,0,7.21,8.86,5.71,5.71,0,0,0,4.24,4.94,8.22,8.22,0,0,0,12.86,10.05,8.13,8.13,0,0,0,1.2-1.57c.13.15.23.31.37.45a6.95,6.95,0,0,0,11-8.19Z"/><circle class="cls-20" cx="463.57" cy="247.39" r="2" transform="translate(-39.16 400.24) rotate(-45)"/><circle class="cls-20" cx="461.6" cy="210.99" r="2" transform="translate(-13.91 388.43) rotate(-45.03)"/><circle class="cls-20" cx="459.4" cy="227.54" r="2" transform="translate(-26.34 391.49) rotate(-45)"/><circle class="cls-20" cx="485.9" cy="256.13" r="2" transform="translate(-38.79 418.6) rotate(-45)"/><circle class="cls-20" cx="480.58" cy="219.09" r="2" transform="translate(-14.16 404) rotate(-45)"/><circle class="cls-20" cx="1405.52" cy="223.17" r="2" transform="translate(254.29 1059.81) rotate(-45.03)"/><circle class="cls-21" cx="407.9" cy="196.41" r="2" transform="translate(-19.48 345.77) rotate(-44.97)"/><circle class="cls-21" cx="402.12" cy="174.65" r="2" transform="translate(-5.72 335.5) rotate(-45)"/><circle class="cls-21" cx="417.39" cy="174.89" r="2" transform="translate(-1.41 346.36) rotate(-45)"/><circle class="cls-21" cx="430.47" cy="187.91" r="2" transform="translate(-6.79 359.42) rotate(-45)"/><circle class="cls-21" cx="409.06" cy="155.44" r="2" transform="translate(9.89 334.77) rotate(-45)"/><circle class="cls-21" cx="429.31" cy="159.26" r="2" transform="translate(13.13 350.22) rotate(-45)"/><circle class="cls-21" cx="447.95" cy="182.06" r="2" transform="translate(2.46 370.07) rotate(-45)"/><circle class="cls-21" cx="469.93" cy="178.13" r="2" transform="translate(11.69 384.47) rotate(-45)"/><circle class="cls-21" cx="1390.8" cy="190.74" r="2" transform="translate(272.48 1039.31) rotate(-45)"/><circle class="cls-21" cx="484.52" cy="166.09" r="2" transform="translate(24.58 391.48) rotate(-45.03)"/><circle class="cls-21" cx="438.57" cy="149.31" r="2" transform="translate(22.97 354.03) rotate(-45.03)"/><circle class="cls-21" cx="450.49" cy="160.3" r="2" transform="translate(18.59 365.5) rotate(-45)"/><circle class="cls-21" cx="466.58" cy="156.95" r="2" transform="translate(25.79 376.11) rotate(-45.03)"/><circle class="cls-20" cx="495.74" cy="224.3" r="2" transform="translate(-13.31 416.49) rotate(-45.03)"/><circle class="cls-20" cx="496.55" cy="244.55" r="2" transform="translate(-27.49 422.74) rotate(-45)"/><circle class="cls-20" cx="476.07" cy="240.97" r="2" transform="translate(-30.87 407.46) rotate(-45.03)"/></g><path class="cls-22" d="M825.31,173.47l-172.2,64.22a6.59,6.59,0,0,0-3.57,8.62l5.05,12.19,175.78-72.81Z"/><path class="cls-23" d="M835.44,197.92l-5.06-12.23L654.6,258.5l5.05,12.2a6.6,6.6,0,0,0,8.62,3.57Z"/><path class="cls-22" d="M835.44,197.92a54.18,54.18,0,0,0,14-3.74c11.35-4.7,20.74-17.26,25-23.74l-3.6-1.49h0l-40.44,16.75Z"/><path class="cls-24" d="M870.82,168.94l1.49-3.6c-7.61-1.56-23.13-3.8-34.48.9a54,54,0,0,0-12.52,7.23l5.06,12.23Z"/><path class="cls-25" d="M721.87,253.39,719.55,248c-1.44-3.34-4.37-3.69-6.55-.77l-7.44,10,12.37,1.45C721.55,259.11,723.31,256.74,721.87,253.39Z"/><path class="cls-24" d="M740.88,206.2l-1.51-3.5c-1.44-3.34-4.38-3.69-6.55-.76l-6.21,8.34,10.33,1.22C740.56,211.92,742.33,209.54,740.88,206.2Z"/><path class="cls-25" d="M796.56,217l-.76-1.76c-1.44-3.35-4.38-3.69-6.56-.77l-5.09,6.84,8.46,1C796.23,222.76,798,220.39,796.56,217Z"/><path class="cls-24" d="M803.39,181l0,0c-1.44-3.35-4.38-3.69-6.56-.77l-4,5.32,6.58.77C803.07,186.76,804.84,184.39,803.39,181Z"/><path class="cls-26" d="M1342.07,176.58a53.84,53.84,0,0,1-41.32,0l-30.6,73.87a133.79,133.79,0,0,0,175-72.49l-73.87-30.6A53.84,53.84,0,0,1,1342.07,176.58Z"/><path class="cls-27" d="M1371.27,147.35,1326,128.61a5,5,0,0,0-6.53,2.71l-18.74,45.25a53.92,53.92,0,0,0,70.52-29.21Z"/><path class="cls-28" d="M1323.29,189a10,10,0,0,1-19.83-2.61c.52-3.95,7.09-10.44,10.31-13.41a2,2,0,0,1,3,.4C1319.14,177.08,1323.81,185.05,1323.29,189Z"/><path class="cls-28" d="M1354.19,179.71a10,10,0,0,1-18.47,7.65c-1.52-3.68.92-12.58,2.22-16.76a2,2,0,0,1,2.83-1.17C1344.64,171.46,1352.67,176,1354.19,179.71Z"/><path class="cls-28" d="M1376.3,156.21a10,10,0,0,1-12.17,15.86c-3.16-2.42-5.5-11.36-6.46-15.63a2,2,0,0,1,1.87-2.43C1363.91,153.84,1373.15,153.79,1376.3,156.21Z"/><path class="cls-29" d="M1375.74,257.88a141.55,141.55,0,0,1-108.65-.06l-1.14,2.75a5,5,0,0,0,2.85,6.6,150,150,0,0,0,189.13-78.34,5,5,0,0,0-2.65-6.68l-2.75-1.14A141.56,141.56,0,0,1,1375.74,257.88Z"/><path class="cls-30" d="M1372.68,250.49a133.58,133.58,0,0,1-102.53-.06l-3.06,7.39A141.78,141.78,0,0,0,1452.53,181l-7.39-3.06A133.58,133.58,0,0,1,1372.68,250.49Z"/><path class="cls-31" d="M333.13,313.09c21.48,21.48,26.85,49.73,7.08,69.49s-78.94,45.32-100.42,23.85Z"/><path class="cls-32" d="M239.79,406.43c-21.48-21.48,2.88-81.86,22.64-101.63s49.21-13.19,70.7,8.29Z"/><path class="cls-33" d="M300.62,347.85c1.56,1.56,1.08,3.23-1.07,3.73l-2.32.54c-2.14.5-3.49-.85-3-3l.54-2.32c.5-2.14,2.17-2.62,3.73-1.07Z"/><path class="cls-33" d="M282.95,318.86c1.56,1.56,1.08,3.23-1.07,3.73l-2.32.53c-2.14.5-3.49-.85-3-3l.54-2.32c.49-2.14,2.17-2.63,3.73-1.07Z"/><path class="cls-33" d="M329.62,365.53c1.56,1.56,1.08,3.23-1.07,3.73l-2.32.54c-2.14.5-3.49-.85-3-3l.54-2.32c.5-2.14,2.17-2.63,3.73-1.07Z"/><path class="cls-33" d="M300.27,382.85c1.56,1.56,1.07,3.23-1.07,3.73l-2.32.54c-2.14.49-3.49-.86-3-3l.54-2.32c.49-2.14,2.17-2.62,3.73-1.07Z"/><path class="cls-33" d="M265.62,348.2c1.56,1.56,1.07,3.23-1.07,3.73l-2.32.54c-2.14.49-3.49-.85-3-3l.54-2.32c.49-2.14,2.17-2.62,3.73-1.07Z"/><path class="cls-33" d="M265.27,383.2c1.56,1.56,1.07,3.23-1.07,3.73l-2.32.54c-2.14.49-3.49-.85-3-3l.54-2.32c.49-2.14,2.17-2.62,3.73-1.07Z"/><path class="cls-34" d="M353.58,347.89a1,1,0,0,0,1.56-1.18c-3.54-7.57-11.61-23.73-20-32.94l0,0,20.27-20.27a14,14,0,0,1,19.8,0,2,2,0,0,0,3.07-.29,2,2,0,0,0-.32-2.61,18,18,0,0,0-25.38.07l-20.27,20.27,0,0c-9.27-8.46-25.51-16.58-33.09-20.13a1,1,0,0,0-1.18,1.56l13.48,15.71a1,1,0,0,1-.16,1.45L303,315.79a1,1,0,0,0,.25,1.74l18,6.61a1,1,0,0,1,.59.59l6.61,18a1,1,0,0,0,1.74.25l6.24-8.37a1,1,0,0,1,1.45-.16Z"/><path class="cls-35" d="M1569.23,295.81a3.51,3.51,0,0,1,4.63,2c17.72,47.35-4.28,94.19-47.64,112.15s-91.65,1.45-113-45.61a3.51,3.51,0,0,1,1.85-4.69Z"/><path class="cls-36" d="M1568.83,296l.76,1.85a83,83,0,1,1-153.36,63.52h0l-.77-1.85Z"/><path class="cls-37" d="M1568,305a78.77,78.77,0,0,1,2.93,37.17,3.73,3.73,0,0,1-4.63,3l-63-15.14c-2.15-.52-2.24-1.62-.19-2.46l59.87-24.8A3.73,3.73,0,0,1,1568,305Z"/><path class="cls-37" d="M1568.09,353.81a79.32,79.32,0,0,1-19.49,31.75,3.73,3.73,0,0,1-5.5-.29L1501,336c-1.44-1.68-.86-2.62,1.29-2.11l63,15.14A3.73,3.73,0,0,1,1568.09,353.81Z"/><path class="cls-37" d="M1446.68,393.59a79.39,79.39,0,0,1-24.23-28.32,3.73,3.73,0,0,1,2-5.14l59.87-24.8c2-.85,2.76,0,1.61,1.88l-33.84,55.24A3.73,3.73,0,0,1,1446.68,393.59Z"/><path class="cls-37" d="M1500.79,404.16l-5.09-64.6c-.17-2.2.85-2.63,2.28-.95l42.07,49.26a3.74,3.74,0,0,1-.57,5.49,78.46,78.46,0,0,1-34.42,14.27A3.74,3.74,0,0,1,1500.79,404.16Z"/><path class="cls-37" d="M1493.12,408.58a78.42,78.42,0,0,1-36.23-8.71,3.74,3.74,0,0,1-1.42-5.33l33.85-55.24c1.15-1.88,2.23-1.63,2.4.58l5.09,64.61A3.73,3.73,0,0,1,1493.12,408.58Z"/><circle class="cls-38" cx="1037.9" cy="202.51" r="83.4"/><path class="cls-39" d="M1037.9,281.91a79.4,79.4,0,1,1,79.4-79.4,79.49,79.49,0,0,1-79.4,79.4Z"/><path class="cls-40" d="M968.07,180.07a73.05,73.05,0,0,0,0,44.88,3.71,3.71,0,0,0,5,2.24L1029,204c2-.85,2-2.21,0-3.06L973.1,177.83A3.72,3.72,0,0,0,968.07,180.07Zm64.6,15-23.16-55.91a3.72,3.72,0,0,0-5.14-2A73.09,73.09,0,0,0,972.66,169a3.72,3.72,0,0,0,2,5.14l55.88,23.15C1032.55,198.12,1033.52,197.15,1032.67,195.11Zm-60,40.92a73.1,73.1,0,0,0,31.76,31.72,3.72,3.72,0,0,0,5.14-2l23.15-55.88c.85-2-.12-3-2.17-2.16l-55.91,23.16A3.72,3.72,0,0,0,972.63,236Zm40.58-98.36,23.16,55.9c.85,2,2.22,2,3.06,0l23.14-55.88a3.71,3.71,0,0,0-2.24-5,73,73,0,0,0-44.88,0A3.72,3.72,0,0,0,1013.21,137.67Zm49.38,129.67-23.16-55.92c-.84-2-2.21-2-3.06,0l-23.15,55.88a3.71,3.71,0,0,0,2.24,5,73.07,73.07,0,0,0,44.88,0A3.72,3.72,0,0,0,1062.59,267.34Zm45.14-42.4a73.06,73.06,0,0,0,0-44.89,3.72,3.72,0,0,0-5-2.24L1046.82,201c-2,.84-2,2.22,0,3.06l55.89,23.15A3.71,3.71,0,0,0,1107.73,224.94Zm-4.56-56a73.07,73.07,0,0,0-31.76-31.72,3.72,3.72,0,0,0-5.14,2l-23.15,55.89c-.85,2,.13,3,2.16,2.16l55.91-23.16A3.71,3.71,0,0,0,1103.17,169Zm-31.74,98.8A73.05,73.05,0,0,0,1103.14,236a3.72,3.72,0,0,0-2-5.14l-55.88-23.15c-2-.85-3,.12-2.16,2.16l23.16,55.91A3.72,3.72,0,0,0,1071.43,267.78Z"/><path class="cls-41" d="M993.35,173a7,7,0,0,1,8.18-11.36c2.39,1.72,4.29,8.55,5,11.27a1,1,0,0,1-.89,1.23C1002.82,174.4,995.74,174.76,993.35,173Z"/><path class="cls-41" d="M1048.27,255.67a7,7,0,0,1-14,.87c-.18-2.94,3.89-8.74,5.57-11a1,1,0,0,1,1.52-.09C1043.33,247.48,1048.09,252.73,1048.27,255.67Z"/><path class="cls-22" d="M1144.63,357.66a27.65,27.65,0,0,0,8.93,3.54,11.22,11.22,0,0,1,8.71,13.73c-2.79,12.47-7.08,25.9-14.36,36.23a2.8,2.8,0,0,0,2,4.38c26.94,2.51,54.66-6.21,72-27.57a11.38,11.38,0,0,1,13.44-3.44,21.86,21.86,0,0,0,9.27,2.3c16.08-.16,28.2-12.29,29.29-26.18a28,28,0,0,0-9.78-23.69,5.58,5.58,0,0,1-1-7.29c5.38-8.26,5.06-19.48-2.52-28.5a17.12,17.12,0,0,0-9.15-5.24,5.53,5.53,0,0,1-4.06-5.88c.07-.74.11-1.5.11-2.26a28.26,28.26,0,0,0-28.23-28.21h-4c-9.28,0-17.94,5.66-20.77,14.5a5.58,5.58,0,0,1-7.46,3.4,11.53,11.53,0,0,0-7.1-1c-13,3-20.29,13.08-20,23.75a5.47,5.47,0,0,1-4.63,5.57,28.76,28.76,0,0,0-8,2.52,28.15,28.15,0,0,0-2.68,49.31Z"/><path class="cls-18" d="M1193.63,368a5.63,5.63,0,0,0,.51-2.44c-.29-9.62-5.95-18.4-15.79-22.76-2.71-1.2-5.72-1.34-8.67-1.65a2.8,2.8,0,0,1,.39-5.58,30.73,30.73,0,0,1,28.1,21.07c3.24-8.92,6.22-18.91,9.43-30.05l.31-4.2a18.07,18.07,0,0,0-2.28-10.68,18.65,18.65,0,0,0-10.92-8.36,2.8,2.8,0,0,1,1.54-5.39,24.4,24.4,0,0,1,17.16,18.51,24.42,24.42,0,0,1,24.35-6.64,2.8,2.8,0,1,1-1.54,5.39,18.64,18.64,0,0,0-14.36,1.68,18.9,18.9,0,0,0-7.59,8.52l-1.29,2.7c-2.91,10.12-5.68,19.37-8.64,27.82a30,30,0,0,1,32.22-1.37,2.8,2.8,0,0,1-2.79,4.86c-11.31-6.49-25.1-3.11-33.43,8a15.64,15.64,0,0,0-1.71,3c-6.5,14.48-15.18,24.94-27.91,33-1.42.56-1.95-.43-1.2-1.2C1180.5,393.3,1187.52,381.67,1193.63,368Z"/><path class="cls-11" d="M1186.81,418.56l8.47,8.47a2,2,0,0,0,1.59.57,2,2,0,0,0,1.47-.84,2.2,2.2,0,0,0-.4-2.73l-8.3-8.3a4,4,0,0,1-.78-4.57l8.24-17.1a8,8,0,0,0-.52-7.87l-.74-1.13a97.74,97.74,0,0,0-22.37-24l-17.94-13.71a97.92,97.92,0,0,0-24.43-13.64L1101,322.18a6,6,0,0,0-7.75,7.75L1104.79,360a98,98,0,0,0,13.64,24.43l13.71,17.94a97.75,97.75,0,0,0,24,22.37l1.13.74a8,8,0,0,0,7.87.52l17.1-8.24A4,4,0,0,1,1186.81,418.56Z"/><path class="cls-22" d="M1143.26,377.38a12.57,12.57,0,0,1-2.47.81,13.19,13.19,0,0,1-3,.3,16.7,16.7,0,0,1-3.2-.47,21.26,21.26,0,0,1-3.16-1.08,26.69,26.69,0,0,1-3-1.52,41.28,41.28,0,0,1-5.29-3.76c-1.6-1.3-3-2.61-4.15-3.76s-2.09-2.14-2.73-2.84c-.3-.33-.19-.39.12-.12.72.62,1.74,1.5,3,2.49s2.79,2.13,4.48,3.2a39.65,39.65,0,0,0,5.46,3,24.5,24.5,0,0,0,2.9,1.08,9.84,9.84,0,0,0,1.44.37,9.48,9.48,0,0,0,1.41.25,13.81,13.81,0,0,0,2.62.08,9.92,9.92,0,0,0,2.18-.48,9.12,9.12,0,0,0,1.65-.76c.4-.33.71-.5,1-.78h0c-8.49-8.88-16.82-17.52-23.13-24.27-5-5.25-10.24-11-10.45-11.31s-.15-.35.13-.13,6.06,5.5,11.31,10.45c7.51,7,17.38,16.55,27.29,26,4.95,4.74,10,9.39,14.58,13.9.85.85,1.67,1.69,2.49,2.53.25-.36.5-.74.83-1.18a13.8,13.8,0,0,0,1.1-2.54,14.92,14.92,0,0,0,.65-3.28q0-.92,0-1.88c0-.64-.14-1.31-.21-2a14.06,14.06,0,0,0-.4-2,14.55,14.55,0,0,0-.58-2.09,35.66,35.66,0,0,0-1.63-4.17c-.65-1.36-1.34-2.72-2.1-4s-1.51-2.57-2.35-3.74-1.59-2.34-2.4-3.38-1.54-2.07-2.29-2.94c-1.45-1.8-2.7-3.27-3.63-4.26-.32-.34-.24-.46.12-.12,1,.93,2.38,2.27,4,4,.83.82,1.66,1.77,2.54,2.77s1.8,2.08,2.71,3.22,1.8,2.37,2.7,3.62,1.71,2.61,2.5,4a37.86,37.86,0,0,1,2.08,4.27,29.94,29.94,0,0,1,1.44,4.44c.14.76.34,1.49.42,2.24l.17,2.2a18.2,18.2,0,0,1-.46,4.1,17.22,17.22,0,0,1-1.15,3.36c-.5.86-1,1.67-1.36,2.25,2.5,2.62,4.84,5.15,6.91,7.45,5.74,6.35,10.5,12.56,10.63,12.77s0,.25-.12.12-6.43-4.89-12.77-10.63c-3.83-3.44-8.21-7.54-12.76-12.08s-9.15-9.63-13.9-14.58l-.23-.24-.16.12C1144.66,376.6,1144,377,1143.26,377.38Z"/><path class="cls-2" d="M120.74,231.06a1.49,1.49,0,0,0-2.93-.37c-1.07,4.46-2.15,9.58-3.21,15.14l6.07-6.07Z"/><path class="cls-2" d="M1499.14,361.47a1.49,1.49,0,0,1,1.49-1.45h1.08a1.49,1.49,0,0,1,1.49,1.48l.06,6.91-4.41,4.41Z"/><path class="cls-2" d="M1484.15,361.15a1.48,1.48,0,0,1,1.45-1.13h.09a1.49,1.49,0,0,1,1.49,1.5l-.2,23.17-9.05,9.05C1479.92,381.15,1482.07,369.74,1484.15,361.15Z"/><path class="cls-2" d="M416.08,243.33c-1.68,8.55-3.33,18.29-4.86,28.5h10.16l.25-28.5Z"/><polygon class="cls-2" points="433.39 243.33 432.91 261.67 438.04 261.67 437.88 243.33 433.39 243.33"/><path class="cls-2" d="M1165,381.17h-6.88c-1.76,9.74-3.46,20.6-5,31.71h11.57Z"/><path class="cls-2" d="M1212.21,361.15a1.48,1.48,0,0,0-1.45-1.13h-.08a1.49,1.49,0,0,0-1.49,1.5l.17,19h6.85C1214.88,373.19,1213.53,366.61,1212.21,361.15Z"/><path class="cls-2" d="M1165.16,361.52a1.49,1.49,0,0,0-2.93-.37c-1.38,5.74-2.77,12.55-4.12,20H1165Z"/><path class="cls-2" d="M1015.71,231.06a1.49,1.49,0,0,0-2.94-.37c-1.13,4.72-2.27,10.16-3.39,16.1q3.1-.94,6.21-1.83Z"/><path class="cls-2" d="M1031.73,231a1.49,1.49,0,0,0-1.49-1.48h-1.08a1.49,1.49,0,0,0-1.49,1.45l-.28,10.68,4.42-1.13Z"/><path class="cls-2" d="M1047.76,231a1.49,1.49,0,0,0-1.49-1.45h-1.08a1.49,1.49,0,0,0-1.49,1.48l-.06,6.75,4.27-.9Z"/><path class="cls-2" d="M1061.31,229.56h-.08a1.49,1.49,0,0,0-1.49,1.5l0,3.64,3.78-.6c-.27-1.17-.53-2.32-.79-3.41A1.48,1.48,0,0,0,1061.31,229.56Z"/><path class="cls-2" d="M312.93,389.33l.74,84.36a5,5,0,1,1-10,0l-2.08-79q-2.6,1.12-5.24,2.14l-.68,76.81a5,5,0,1,1-10,0L285,400.74q-2.72.8-5.47,1.5l-1.89,71.45a5,5,0,1,1-10,0l.61-69.14q-5.28.84-10.65,1.21c-4,27.61-7,58-7,76.93,0,44.84,6.71,51.21,17,67.63,4.94,7.9,7.53,40.36,7.53,49.68h31c0-9.32,2.59-41.78,7.53-49.68,10.27-16.42,17-22.79,17-67.63,0-24.22-4.75-66.3-10.16-97.56Q316.77,387.32,312.93,389.33Z"/><path class="cls-2" d="M600.48,361.47A1.49,1.49,0,0,0,599,360h-1.08a1.49,1.49,0,0,0-1.49,1.48l0,3.52q2.16,1,4.23,2.07Z"/><path class="cls-2" d="M619.85,382.65c-1.45-8.16-2.93-15.52-4.38-21.5A1.48,1.48,0,0,0,614,360h-.08a1.49,1.49,0,0,0-1.49,1.5l.12,13.88A75.12,75.12,0,0,1,619.85,382.65Z"/><path class="cls-2" d="M862.32,387.32l-9.45,9.45c-1.24,7.93-2.41,16.24-3.46,24.56H862Z"/><polygon class="cls-2" points="878.65 370.99 874.15 375.49 872.93 421.67 879.1 421.67 878.65 370.99"/><path class="cls-2" d="M1681.34,230.69a1.48,1.48,0,0,0-1.45-1.13h-.09a1.49,1.49,0,0,0-1.49,1.5l0,4.82,5.27,5.27C1682.87,237.35,1682.1,233.82,1681.34,230.69Z"/></svg>