<?xml version="1.0" encoding="iso-8859-1"?>
<!-- Generator: Adobe Illustrator 19.0.0, SVG Export Plug-In . SVG Version: 6.00 Build 0)  -->
<svg version="1.1" id="Capa_1" xmlns="http://www.w3.org/2000/svg" xmlns:xlink="http://www.w3.org/1999/xlink" x="0px" y="0px"
	 viewBox="0 0 512 512" style="enable-background:new 0 0 512 512;" xml:space="preserve">
<path style="fill:#799EE5;" d="M381.754,488.477H130.246c-7.575,0-13.716-6.141-13.716-13.716v-21.85h278.94v21.85
	C395.47,482.336,389.329,488.477,381.754,488.477z"/>
<g>
	<rect x="248.5" y="452.91" style="fill:#6E8FD1;" width="15" height="35.565"/>
	<rect x="170.43" y="452.91" style="fill:#6E8FD1;" width="15" height="35.565"/>
	<rect x="326.57" y="452.91" style="fill:#6E8FD1;" width="15" height="35.565"/>
</g>
<path style="fill:#D1E9FA;" d="M466.747,95.052H45.253L85.948,439.09c0.932,7.883,7.615,13.821,15.552,13.821h309
	c7.937,0,14.62-5.938,15.552-13.821L466.747,95.052z"/>
<path style="fill:#BADDF7;" d="M85.948,439.091c0.932,7.883,7.615,13.821,15.552,13.821h182.142
	C160.214,380.848,155.93,212.118,159.581,145.115c0.52-9.538,8.423-16.992,17.976-16.992h285.279l3.912-33.071H45.253
	L85.948,439.091z"/>
<path style="fill:#E87684;" d="M442.401,300.873c-114.88,83.885-279.858,40.905-368.541,36.024l12.088,102.194
	c0.932,7.883,7.615,13.821,15.552,13.821h309c7.937,0,14.62-5.938,15.552-13.821L442.401,300.873z"/>
<path style="fill:#D46170;" d="M192.611,349.214c-45.493-3.944-87.01-10.571-118.751-12.318L85.948,439.09
	c0.932,7.883,7.615,13.821,15.552,13.821h182.142C240.084,427.48,211.379,390.005,192.611,349.214z"/>
<path style="fill:#EFA8B8;" d="M449.614,239.895c-117.948,93.479-293.685,44.197-382.352,41.229l6.597,55.773l0,0
	c88.684,4.881,253.662,47.861,368.541-36.024l0,0L449.614,239.895L449.614,239.895z"/>
<path style="fill:#EB8EA3;" d="M172.573,291.817c-40.732-4.218-77.352-9.757-105.31-10.693l6.597,55.773
	c31.741,1.747,73.256,8.373,118.749,12.317C183.996,330.498,177.467,311.088,172.573,291.817z"/>
<path style="fill:#B59385;" d="M340.412,197.442c-2.14,0-4.264-0.91-5.747-2.677c-19.58-23.315-48.252-36.687-78.665-36.687
	s-59.085,13.372-78.665,36.687c-2.664,3.172-7.394,3.585-10.566,0.92c-3.172-2.663-3.584-7.395-0.921-10.566
	c22.437-26.717,55.296-42.04,90.152-42.04s67.715,15.323,90.152,42.04c2.664,3.172,2.251,7.903-0.92,10.566
	C343.826,196.866,342.114,197.442,340.412,197.442z"/>
<path style="fill:#F4E08F;" d="M388.057,388.668h-33.92c-4.142,0-7.5-3.358-7.5-7.5s3.358-7.5,7.5-7.5h33.92
	c4.142,0,7.5,3.358,7.5,7.5S392.199,388.668,388.057,388.668z"/>
<path style="fill:#FFFFFF;" d="M388.057,422.218H326.68c-4.142,0-7.5-3.358-7.5-7.5s3.358-7.5,7.5-7.5h61.376
	c4.142,0,7.5,3.358,7.5,7.5S392.199,422.218,388.057,422.218z"/>
<g>
	<path style="fill:#E87684;" d="M116.254,179.401L116.254,179.401c-12.054,0-21.826-9.772-21.826-21.826V95.052h43.651v62.523
		C138.079,169.63,128.308,179.401,116.254,179.401z"/>
	<circle style="fill:#E87684;" cx="256" cy="260.75" r="56.952"/>
</g>
<path style="fill:#F8E8B9;" d="M243.181,384.792l-46.151-99.981c-2.396-5.192,1.396-11.119,7.114-11.119h103.713
	c5.718,0,9.51,5.927,7.114,11.119l-46.151,99.981C263.771,395.727,248.229,395.727,243.181,384.792z"/>
<path style="fill:#E87684;" d="M280.908,298.609c-4.142,0-7.5-3.358-7.5-7.5v-25.128c0-4.142,3.358-7.5,7.5-7.5s7.5,3.358,7.5,7.5
	v25.128C288.408,295.251,285.05,298.609,280.908,298.609z"/>
<path style="fill:#799EE5;" d="M495.106,95.052H16.894C7.564,95.052,0,87.489,0,78.158V54.545c0-17.133,13.889-31.022,31.022-31.022
	h449.956c17.133,0,31.022,13.889,31.022,31.022v23.613C512,87.489,504.436,95.052,495.106,95.052z"/>
<path style="fill:#6E8FD1;" d="M233.835,23.523H31.022C13.889,23.523,0,37.412,0,54.545v23.613c0,9.331,7.564,16.894,16.894,16.894
	h242.961C222.757,81.928,219.328,38.775,233.835,23.523z"/>
<g>
	<path style="fill:#F0DBA5;" d="M239.638,313.349c-1.919,0-3.838-0.732-5.303-2.196c-2.929-2.929-2.929-7.678-0.001-10.607
		l4.967-4.968c2.929-2.929,7.677-2.929,10.607-0.001c2.929,2.929,2.929,7.678,0,10.607l-4.967,4.968
		C243.477,312.616,241.558,313.349,239.638,313.349z"/>
	<path style="fill:#F0DBA5;" d="M252.89,351.599c-1.919,0-3.839-0.732-5.303-2.197c-2.929-2.929-2.929-7.678,0-10.606l16.701-16.701
		c2.929-2.929,7.678-2.929,10.606,0c2.929,2.929,2.929,7.678,0,10.607l-16.701,16.701
		C256.728,350.866,254.809,351.599,252.89,351.599z"/>
</g>
<g>
</g>
<g>
</g>
<g>
</g>
<g>
</g>
<g>
</g>
<g>
</g>
<g>
</g>
<g>
</g>
<g>
</g>
<g>
</g>
<g>
</g>
<g>
</g>
<g>
</g>
<g>
</g>
<g>
</g>
</svg>
