<svg height="472pt" viewBox="0 -3 472 471" width="472pt" xmlns="http://www.w3.org/2000/svg"><path d="m288 336.5h176v32h-176zm0 0" fill="#f49d5d"/><path d="m288 432.5c0 17.679688-14.320312 32-32 32h-224c-17.679688 0-32-14.320312-32-32v-160c0-17.679688 14.320312-32 32-32h224c17.679688 0 32 14.320312 32 32zm0 0" fill="#99b6d1"/><path d="m288 368.5v16c-8.800781 0-16.800781-3.601562-22.640625-9.359375-5.757813-5.839844-9.359375-13.839844-9.359375-22.640625 0-17.679688 14.320312-32 32-32zm0 0" fill="#e3e1db"/><path d="m256 168.5c0 26.480469-10.71875 32-24 32s-24-5.519531-24-32 24-64 24-64 24 37.519531 24 64zm0 0" fill="#ef6060"/><path d="m211.839844 328.5c2.71875 7.519531 4.160156 15.601562 4.160156 24s-1.441406 16.480469-4.160156 24h-67.839844v-48zm0 0" fill="#ffcf54"/><path d="m211.839844 328.5h-67.839844v-48c31.359375 0 58 20 67.839844 48zm0 0" fill="#ffcf54"/><path d="m144 376.5h67.839844c-3.601563 10.238281-9.441406 19.441406-16.960938 26.878906-12.957031 13.042969-31.039062 21.121094-50.878906 21.121094zm0 0" fill="#ffcf54"/><path d="m144 376.5v48h-144v-144h144zm0 0" fill="#e3e1db"/><g fill="#3b668f"><path d="m144 432.5h-144v-16h144c17.136719 0 33.183594-6.664062 45.199219-18.761719 6.730469-6.652343 11.929687-14.902343 15.089843-23.894531 2.472657-6.832031 3.710938-13.984375 3.710938-21.34375s-1.238281-14.511719-3.679688-21.28125c-8.992187-25.574219-33.222656-42.71875-60.320312-42.71875h-144v-16h144c33.878906 0 64.175781 21.441406 75.382812 53.34375 3.058594 8.457031 4.617188 17.441406 4.617188 26.65625s-1.558594 18.199219-4.640625 26.71875c-3.933594 11.191406-10.464844 21.539062-18.855469 29.847656-15 15.097656-35.078125 23.433594-56.503906 23.433594zm0 0"/><path d="m136 280.5h16v144h-16zm0 0"/><path d="m144 320.5h67.839844v16h-67.839844zm0 0"/><path d="m144 368.5h67.839844v16h-67.839844zm0 0"/><path d="m64 312.5h16v16h-16zm0 0"/><path d="m64 344.5h16v16h-16zm0 0"/><path d="m64 376.5h16v16h-16zm0 0"/></g><path d="m336 104.5c-4.398438 0-8.398438-1.761719-11.28125-4.71875-2.957031-2.882812-4.71875-6.882812-4.71875-11.28125 0-8.800781 7.199219-16 16-16h-96c-4.398438 0-8.398438-1.761719-11.28125-4.71875-2.957031-2.882812-4.71875-6.882812-4.71875-11.28125 0-8.800781 7.199219-16 16-16h144c-22.078125 0-40-17.921875-40-40h88l16 16h24v152h-136c-8.800781 0-16-7.199219-16-16 0-4.398438 1.761719-8.398438 4.71875-11.28125 2.882812-2.957031 6.882812-4.71875 11.28125-4.71875-4.398438 0-8.398438-1.761719-11.28125-4.71875-2.957031-2.882812-4.71875-6.882812-4.71875-11.28125 0-8.800781 7.199219-16 16-16zm0 0" fill="#f49d5d"/></svg>