<svg enable-background="new 0 0 100 100" height="512" viewBox="0 0 100 100" width="512" xmlns="http://www.w3.org/2000/svg"><path d="m91.104599 82.6996307c-4.4808044 1.8239288-13.2842331 1.613121-22.2985458.8012848-6.1360703-.5377121-12.3775482-1.3600998-17.4066086-2.0243149-11.0491142-1.4549484-20.3165092.158165-31.6819019.1054001-1.4233513-.0105515-2.8782368-.0422134-4.3753977-.1054001-8.3711967-.3795395-10.5852146-3.6057816-10.3216381-9.1303329.1581073-3.352623 1.2229671-7.5381927 2.3827434-12.4619751 2.6041064-11.1017532-.1265116-35.2453995-.9804974-42.1194992v-.0105534c-.1476188-1.1912441-.2425346-1.8555908-.2425346-1.8555908h33.400425s-1.6236076 19.7471428-1.6236076 28.3082352c0 3.8586693.8434296 6.8002243 1.7817802 8.8771782 1.0121574 2.2352524 2.9731522 3.8693504 5.3031921 4.6495285 12.6938286 4.3015251 18.3133011 10.5114021 25.9042587 13.3581123 8.1498337 3.0468292 10.7961502 3.0468292 16.9005661 3.0468292 6.1149592.0000019 10.7960886 5.5035801 3.2577662 8.5610981z" fill="#e7a14e"/><path d="m11.1460257 57.0588226c-1.0437536 5.4297028-3.3843474 10.4482117-6.1255188 15.2874451.1581073-3.352623 1.2229671-7.5381927 2.3827434-12.4619751 2.6041064-11.1017532-.1265116-35.2453995-.9804974-42.1194992v-.0105534l-.2425346-1.8555908c2.8783011 9.1935234 5.007956 18.8826675 5.53511 28.5084915.2214269 4.2277813.2214269 8.4872227-.5693026 12.6516819z" fill="#d59247"/><path d="m68.8060532 83.5009155c-6.1360703-.5377121-12.3775482-1.3600998-17.4066086-2.0243149-11.0491142-1.4549484-20.3165092.158165-31.6819019.1054001 9.1302662-3.4370499 19.2832432-3.911438 28.993433-2.6674271 6.821331.8857117 13.4951095 2.5725785 20.0950775 4.5863419z" fill="#d59247"/><path d="m63.4957619 21.7806416s-10.3542023 18.7967892-10.3542023 24.515295c0 5.7183762 4.6357574 10.3541336 10.3542023 10.3541336s10.3541298-4.6357574 10.3541298-10.3541336c0-5.7185059-10.3541298-24.515295-10.3541298-24.515295z" fill="#4da0dc"/><g fill="#ededed"><path d="m59.3626366 40.4727974c1.0157585-2.7535248 2.436409-5.9186325 3.8456039-8.8546562h-2.0331955c-1.4099007 2.9360237-2.8308716 6.1011314-3.8468285 8.8546562z"/><path d="m56.7267418 42.2068939c-.4619026 1.4335861-.7672424 2.6930389-.8393784 3.6611176h2.0347366c.0721359-.9682083.3774109-2.2276611.8391876-3.6611176z"/></g></svg>