<svg enable-background="new 0 0 100 100" height="512" viewBox="0 0 100 100" width="512" xmlns="http://www.w3.org/2000/svg"><path d="m53.2624245 19.6879826s1.1176872-3.3561745 1.6158676-5.3412161c.4981766-1.9850416 2.4410744-2.6824913 3.6367035-1.8355875s1.0461769 2.5407114.4483604 3.6865234c-.5978127 1.1458111-.946537 4.9319687-.946537 4.9319687s.6072884-3.0887089 1.3996353-4.2843361c.7923508-1.1956301 2.3004112-1.5808039 3.6130104-.2537365 1.0515747 1.0631657 1.164772 1.1504574.9156799 3.7409878-.2490883 2.5905285-1.6308632 5.6853046-1.8432617 6.1275978-1.0148468 2.1133099.3985443 4.284338 1.3949013 2.4410763s-.1992722-2.9890728.2490883-4.7326984c.4483643-1.7436256 2.3414383-2.4908943 3.5868912-1.6439896 1.2454453.8469028 2.6901627 1.7934437 1.8432617 5.7290554-.8469086 3.9356117-1.2952652 4.9817886-.4483643 7.2734108s-4.0850677 21.2722321-4.0850677 21.2722321-2.7399826 8.235527-3.088707 14.9609375-1.3862038 16.2409058-11.2588387 16.6889877c-10.1896514.462471-10.760662-12.7035599-10.760662-12.7035599l-.7472687-14.3133011s-2.9601517-20.7242393-3.3731575-24.2613068c-.263588-2.2574654-.1310349-7.1232662-.0006294-10.3484097.0616226-1.5240536.2904358-3.0284882.5937004-4.5233345.2977028-1.4674339.4837646-4.2001038-.4465561-8.6919975-1.5505333-7.4864902 9.6908493-12.0088854 10.8537521-5.4191093.7344933 4.1621351.0772552 6.7263565-.5066719 8.050787-.565136 1.2818127-.8823509 2.6619053-.8823509 4.0627728 0 1.3567181.22612 2.4873161 1.1306 1.5828381 1.8089561-1.8089581 1.9381676-1.1629009 1.9381676-5.4268742s-.3876343-9.6908474 4.3931847-8.2695236 1.8873329 5.2976627 1.3312988 8.398735c-.5560303 3.1010704-.5560303 3.1010704-.5560303 3.1010704" fill="#feda6f"/><path d="m83.7976379 77.8023987-.8226929-16.5660591c-.0513-1.0326195-.4524841-2.0172806-1.1376648-2.791851l-7.2457352-8.1909294c-1.0482712-1.1847763-2.6363068-1.7409821-4.1948395-1.4689293l-3.9558792.6907501-1.2661591 5.0990105-7.127964-4.0460205c-1.5498848-.6421509-3.3319283.0322571-4.0681419 1.5398064-.58321 1.1941109-.36092 2.625267.5569992 3.5861588l8.1863136 6.8132553 2.5809669 10.4223328 6.6415787 9.760231 3.0177461 12.3498457 12.6390915-9.0278931z" fill="#e7a14e"/><path d="m72.4776001 55.5885468-2.1400452-2.0807305-5.1628875 1.0665741 9.1457748 6.2453766z" fill="#d59247"/><path d="m59.3206902 52.6715775-2.0416832-1.5898857c-.2733269-.2130623-.6674576-.1640396-.8803596.1092873l-1.7698936 2.2725716c-.2129021.2735405-.1638794.6676178.1094475.8804626l2.0416832 1.5900993c.2733307.2128487.6674576.1638298.8803596-.1095009l1.7699471-2.2725677c.2128485-.2733308.1638296-.6676179-.109501-.8804665z" fill="#ededed"/><path d="m16.2023621 62.0105553.822691-16.5660591c.051302-1.0326233.452486-2.0172806 1.1376648-2.791851l7.2457409-8.1909332c1.0482712-1.1847763 2.636301-1.7409821 4.1948338-1.4689255l5.6587353.2285309.412838 5.2129211 6.2784309-3.6977119c1.5498848-.6421509 3.3319283.0322571 4.0681419 1.5398064.58321 1.1941109.36092 2.6252632-.5569992 3.5861549l-8.1863136 6.8132553-2.5809669 10.4223328-6.6415768 9.760231-3.0177498 12.3498459-12.6390915-9.0278854z" fill="#e7a14e"/><path d="m27.5224018 39.7967033 2.1400433-2.0807304 5.1628875 1.0665741-9.1457748 6.2453766z" fill="#d59247"/><path d="m40.6793098 36.879734 2.0416832-1.5898857c.2733269-.2130623.6674576-.1640396.8803596.1092873l1.7698936 2.2725716c.2129021.2735405.1638794.667614-.1094475.8804626l-2.0416832 1.5900993c-.2733307.2128487-.6674576.163826-.8803596-.1095009l-1.7699471-2.2725716c-.2128485-.2733268-.1638296-.6676139.109501-.8804626z" fill="#ededed"/><g fill="#fed35b"><path d="m58.0168343 21.1296844-1.5386391 6.8491173s1.8791847-4.1767425 1.5386391-6.8491173z"/><path d="m53.2546997 19.5600414-1.5386391 6.8491192s1.8791848-4.1767425 1.5386391-6.8491192z"/><path d="m48.8462906 29.2365494s4.3460159 13.038044-5.0703468 22.3095398c0 0 7.3882217-7.2245941 5.0703468-22.3095398z"/><path d="m54.4963188 36.1279831s1.1986504 6.4120331 10.6783485 11.718544c.0000001 0-10.2736701-1.4371796-10.6783485-11.718544z"/></g></svg>