<svg height="512pt" viewBox="0 -31 512 512" width="512pt" xmlns="http://www.w3.org/2000/svg"><path d="m462.199219 140.058594-160.867188 14.902344-263.988281-14.902344c0-40.457032 73.144531-65.359375 138.503906-65.359375 65.367188 0 216.324219-6.800781 216.324219-74.699219 0 0 70.027344 43.570312 70.027344 140.058594zm0 0" fill="#e5e5e5"/><path d="m257.753906 98.628906c-70.363281 0-105.660156 23.121094-122.574218 41.429688h-97.835938c0-40.457032 73.144531-65.359375 138.503906-65.359375 65.367188 0 216.324219-6.800781 216.324219-74.699219 12.640625 49.613281-17.992187 98.628906-134.417969 98.628906zm0 0" fill="#cbcbcb"/><path d="m20.226562 140.0625h460.644532v92.511719h-460.644532zm0 0" fill="#4297d0"/><g fill="#1876a9"><path d="m20.226562 205.535156h460.644532v27.039063h-460.644532zm0 0"/><path d="m20.226562 140.0625h102.726563v74.699219h-102.726563zm0 0"/><path d="m487.890625 196.140625c-.121094 0-.242187 0-.367187-.007813l-474.664063-21.789062c-4.324219-.195312-7.667969-3.863281-7.472656-8.1875.199219-4.324219 3.875-7.671875 8.191406-7.46875l474.664063 21.789062c4.324218.199219 7.667968 3.863282 7.46875 8.1875-.191407 4.199219-3.660157 7.476563-7.820313 7.476563zm0 0"/><path d="m512 214.757812v155.523438c0 43.9375-35.621094 79.546875-79.558594 79.546875h-352.894531c-43.9375 0-79.546875-35.609375-79.546875-79.546875v-155.523438zm0 0"/></g><path d="m512 214.757812v155.523438c0 43.9375-35.621094 79.546875-79.558594 79.546875h-262.925781c-43.941406 0-79.550781-35.609375-79.550781-79.546875v-155.523438zm0 0" fill="#4297d0"/><path d="m75.207031 269.519531h361.578125v113.441407h-361.578125zm0 0" fill="#e5e5e5"/><path d="m75.207031 269.519531h14.757813v113.441407h-14.757813zm0 0" fill="#cbcbcb"/><path d="m279.546875 312.757812h-168.847656c-4.332031 0-7.839844-3.507812-7.839844-7.835937s3.507813-7.835937 7.839844-7.835937h168.847656c4.328125 0 7.835937 3.507812 7.835937 7.835937s-3.507812 7.835937-7.835937 7.835937zm0 0" fill="#5c5e71"/><path d="m317.671875 348.160156h-206.972656c-4.332031 0-7.839844-3.507812-7.839844-7.835937s3.507813-7.835938 7.839844-7.835938h206.972656c4.328125 0 7.835937 3.507813 7.835937 7.835938s-3.507812 7.835937-7.835937 7.835937zm0 0" fill="#5c5e71"/></svg>