<?xml version="1.0" encoding="iso-8859-1"?>
<!-- Generator: Adobe Illustrator 19.0.0, SVG Export Plug-In . SVG Version: 6.00 Build 0)  -->
<svg version="1.1" id="Capa_1" xmlns="http://www.w3.org/2000/svg" xmlns:xlink="http://www.w3.org/1999/xlink" x="0px" y="0px"
	 viewBox="0 0 511.99 511.99" style="enable-background:new 0 0 511.99 511.99;" xml:space="preserve">
<path style="fill:#F7CF9C;" d="M268.897,342.866c0,26.863,0,96.152,0,123.224c0,8.679,7.227,15.67,15.992,15.284
	c8.258-0.364,14.608-7.499,14.608-15.764c0-27.722,0-95.683,0-122.744L268.897,342.866L268.897,342.866z"/>
<path style="fill:#EAB883;" d="M284.197,466.09c0-27.072,0-96.361,0-123.224h-15.3c0,26.863,0,96.152,0,123.224
	c0,8.679,7.227,15.67,15.992,15.284c2.526-0.111,4.87-0.862,6.912-2.079C287.259,476.643,284.197,471.731,284.197,466.09z"/>
<path style="fill:#F7CF9C;" d="M169.188,168.136c0,11.137,0,85.75,0,94.18c0,8.45,6.85,15.3,15.3,15.3s15.3-6.85,15.3-15.3
	c0-8.361,0-83.029,0-94.18H169.188z"/>
<g>
	<path style="fill:#EAB883;" d="M184.488,262.317c0-8.43,0-83.043,0-94.18h-15.3c0,11.137,0,85.75,0,94.18
		c0,8.45,6.85,15.3,15.3,15.3c2.79,0,5.398-0.759,7.65-2.064C187.57,272.907,184.488,267.977,184.488,262.317z"/>
	<path style="fill:#EAB883;" d="M278.105,122.201c1.367-4.288,3.77-7.97,6.843-10.868h-6.774c-3.799,0-6.879-3.08-6.879-6.879
		v-15.99c-3.597,1.239-7.389,2.053-11.32,2.384c-0.008,0.001-0.016,0.001-0.024,0.002c-0.613,0.051-1.227,0.098-1.847,0.126
		c-0.69,0.033-1.384,0.052-2.082,0.053c-0.016,0-0.033,0.001-0.049,0.001c-0.016,0-0.031-0.001-0.047-0.001
		c-0.698-0.001-1.392-0.02-2.082-0.053c-0.604-0.027-1.203-0.073-1.802-0.122c-0.022-0.002-0.044-0.003-0.066-0.005
		c-3.917-0.33-7.696-1.139-11.281-2.369v15.916c0,3.832-3.106,6.938-6.938,6.938h-6.191c3.797,11.096,14.849,20.435,27.095,20.974
		c8.085,0.356,17.523-3.643,22.985-8.665L278.105,122.201z"/>
</g>
<path style="fill:#E0A773;" d="M256.257,91.023c-0.079,0-0.156,0.006-0.235,0.006c-0.017,0-0.033,0.001-0.049,0.001
	c-0.016,0-0.031-0.001-0.048-0.001c-0.698-0.001-1.392-0.02-2.082-0.053c-0.604-0.027-1.203-0.073-1.802-0.122
	c-0.022-0.002-0.044-0.003-0.066-0.005c-3.917-0.33-7.696-1.139-11.281-2.369v15.915c0,3.832-3.106,6.938-6.938,6.938h-6.191
	c2.216,6.474,6.911,12.335,12.863,16.214l0,0c8.742,0,15.828-7.087,15.828-15.828L256.257,91.023L256.257,91.023z"/>
<path style="fill:#666666;" d="M255.973,310.415v24.907c0,5.873,4.761,10.634,10.634,10.634h34.887
	c5.9,0,10.682-4.783,10.682-10.682c-0.002-3.578,0.009,18.905-0.043-87.198h-87.667v62.338
	C235.686,310.415,245.01,310.415,255.973,310.415z"/>
<path style="fill:#ED5A5A;" d="M277.649,121.882c-1.282,0.806-8.851,10.018-22.989,9.396c-13.891-0.612-24.931-11.216-27.257-24.551
	c-0.328-1.884-1.971-3.255-3.884-3.255c-13.814,0-9.855,0-23.731,0v0.001c-16.902,0.013-30.6,13.718-30.6,30.623v37.131h30.624
	c0,10.134,0,74.881,0,85.104c5.41,0,41.502,0,46.259,0l-1.38,4.623h31.934l1.38-4.623h34.127v-77.405L277.649,121.882z"/>
<g>
	<path style="fill:#E04B4B;" d="M215.101,103.473v-0.001c-4.597,0-5.475,0-15.312,0v0.001c-16.902,0.013-30.6,13.718-30.6,30.623
		v37.131h15.312v-37.131C184.5,117.191,198.198,103.486,215.101,103.473z"/>
	<path style="fill:#E04B4B;" d="M199.812,171.227v85.104h27.791v-62.812c0-12.311-9.98-22.292-22.292-22.292H199.812z"/>
</g>
<path style="fill:#5A5B5B;" d="M248.247,280.338c-4.267,0-7.726,3.459-7.726,7.726v22.351h15.452v-22.351
	C255.973,283.796,252.514,280.338,248.247,280.338z"/>
<circle style="fill:#F7CF9C;" cx="255.975" cy="47.06" r="47.06"/>
<path style="fill:#EAB883;" d="M239.304,56.683c-10.575-18.316-7.436-40.785,6.228-55.523c-4.486,1.022-8.897,2.722-13.09,5.143
	c-22.51,12.996-30.222,41.778-17.227,64.287c12.996,22.509,41.778,30.221,64.288,17.225c4.193-2.421,7.871-5.391,10.999-8.764
	C270.907,83.515,249.879,74.999,239.304,56.683z"/>
<path style="fill:#F7CF9C;" d="M271.861,169.628c-32.051,107.735-26.753,89.926-27.352,91.939
	c-2.417,8.097,2.187,16.62,10.285,19.037c8.097,2.417,16.62-2.188,19.037-10.285c0.592-1.991-4.687,15.753,27.556-92.625
	L271.861,169.628z"/>
<g>
	<path style="fill:#EAB883;" d="M244.562,261.39c0,0,0.001-0.001,0.001-0.002C244.562,261.388,244.562,261.389,244.562,261.39z"/>
	<path style="fill:#EAB883;" d="M244.509,261.566c0.002-0.007,0.006-0.018,0.009-0.031
		C244.515,261.546,244.513,261.554,244.509,261.566z"/>
	<path style="fill:#EAB883;" d="M244.546,261.441c0.003-0.01,0.005-0.017,0.007-0.024
		C244.551,261.424,244.549,261.432,244.546,261.441z"/>
	<path style="fill:#EAB883;" d="M244.509,261.566L244.509,261.566C244.506,261.577,244.506,261.578,244.509,261.566z"/>
	<path style="fill:#EAB883;" d="M259.327,262.989l0.001-0.002L259.327,262.989z"/>
	<path style="fill:#EAB883;" d="M259.287,263.123c-0.005,0.018-0.01,0.033-0.013,0.042l0,0
		C259.277,263.158,259.281,263.144,259.287,263.123z"/>
	<path style="fill:#EAB883;" d="M244.526,261.509c-0.003,0.01-0.005,0.018-0.008,0.027c0.002-0.008,0.005-0.016,0.007-0.024
		C244.525,261.512,244.526,261.51,244.526,261.509z"/>
	<path style="fill:#EAB883;" d="M259.289,263.118c0.006-0.019,0.013-0.044,0.022-0.075
		C259.304,263.066,259.296,263.093,259.289,263.118z"/>
	<path style="fill:#EAB883;" d="M259.275,263.166C259.271,263.177,259.272,263.176,259.275,263.166
		c0.034-0.115,0.049-0.164,0.053-0.176l0,0l0.001-0.002c0.434-1.459,3.937-13.234,26.629-89.509l-14.096-3.851
		c-23.299,78.316-26.86,90.287-27.298,91.76c0,0,0.001-0.002-0.001,0.002l0,0v0.001c-0.001,0.004-0.004,0.013-0.008,0.027
		c0.001-0.003,0.002-0.007,0.003-0.01c-0.006,0.019-0.011,0.036-0.015,0.051c0.002-0.006,0.003-0.011,0.005-0.017
		c-0.004,0.014-0.009,0.031-0.016,0.052c-0.002,0.006-0.003,0.011-0.005,0.016c0-0.001,0.001-0.001,0.001-0.001l-0.001,0.004
		c-0.008,0.028-0.014,0.046-0.016,0.055c-2.417,8.097,2.187,16.62,10.285,19.037c3.544,1.058,7.169,0.77,10.328-0.566
		C259.899,276.354,257.345,269.629,259.275,263.166z"/>
</g>
<path style="fill:#F7CF9C;" d="M218.251,241.474h-6.1c-6.811,0-12.332,5.521-12.332,12.332c0,0.161,0,5.804,0,5.696
	c0,1.468,0,6.485,0,6.301c0,0.325,0,2.98,0,2.859c0,0.266,0,2.711,0,2.605c0,0.343,0,3.199,0,3.09c0,1.468,0,6.485,0,6.301
	c0,21.283,0,65.241,0,85.383c0,8.679,7.226,15.67,15.991,15.284c8.258-0.363,14.609-7.498,14.609-15.764c0-0.784,0-17.346,0-16.602
	c0-27.196,0-80.598,0-95.318C230.419,246.922,224.972,241.474,218.251,241.474z"/>
<path style="fill:#EAB883;" d="M215.119,366.043c0-20.142,0-64.1,0-85.383c0,0.184,0-4.833,0-6.301c0,0.109,0-2.748,0-3.09
	c0,0.106,0-2.339,0-2.605c0,0.12,0-2.534,0-2.859c0,0.184,0-4.833,0-6.301c0,0.109,0-5.534,0-5.696
	c0-5.178,3.195-9.603,7.718-11.431c-1.416-0.577-2.962-0.901-4.586-0.901h-6.1c-6.811,0-12.332,5.521-12.332,12.332
	c0,0.161,0,5.804,0,5.696c0,1.468,0,6.485,0,6.301c0,0.325,0,2.98,0,2.859c0,0.266,0,2.711,0,2.605c0,0.343,0,3.199,0,3.09
	c0,1.468,0,6.485,0,6.301c0,21.283,0,65.241,0,85.383c0,8.679,7.226,15.67,15.991,15.284c2.527-0.111,4.871-0.862,6.913-2.079
	C218.181,376.595,215.119,371.683,215.119,366.043z"/>
<path style="fill:#ED5A5A;" d="M308.81,105.563c-13.648-4.557-28.574,3.498-32.946,17.206l-12.847,40.284
	c-1.275,3.997,0.932,8.271,4.929,9.546l35.687,11.381c3.453,1.101,7.145-0.805,8.246-4.258l13.343-41.838
	C329.499,124.472,322.123,110.008,308.81,105.563z"/>
<path style="fill:#E04B4B;" d="M286.355,172.145l14.162-44.407c2.628-8.24,8.718-14.619,16.149-17.91
	c-2.292-1.827-4.931-3.289-7.857-4.266c-13.648-4.557-28.574,3.498-32.946,17.206l-12.847,40.284
	c-1.275,3.997,0.932,8.271,4.929,9.546l19.024,6.067C285.927,176.735,285.635,174.402,286.355,172.145z"/>
<path style="fill:#ED5A5A;" d="M478.265,481.39c-50.719,0-379.528,0-444.54,0c-8.45,0-15.3,6.85-15.3,15.301
	c0,8.45,6.85,15.299,15.3,15.299c23.679,0,80.861,0,103.017,0c41.708,0,307.552,0,341.523,0c8.45,0,15.3-6.85,15.3-15.299
	C493.565,488.24,486.715,481.39,478.265,481.39z"/>
<path style="fill:#E04B4B;" d="M129.683,496.691c0-8.451,6.85-15.301,15.3-15.301c-50.62,0-92.235,0-111.258,0
	c-8.45,0-15.3,6.85-15.3,15.301c0,8.449,6.85,15.299,15.3,15.299c23.679,0,80.861,0,103.017,0c2.163,0,4.937,0,8.241,0
	C136.533,511.99,129.683,505.14,129.683,496.691z"/>
<g>
</g>
<g>
</g>
<g>
</g>
<g>
</g>
<g>
</g>
<g>
</g>
<g>
</g>
<g>
</g>
<g>
</g>
<g>
</g>
<g>
</g>
<g>
</g>
<g>
</g>
<g>
</g>
<g>
</g>
</svg>
