<?xml version="1.0" encoding="utf-8"?>
<!-- Generator: Adobe Illustrator 22.0.1, SVG Export Plug-In . SVG Version: 6.00 Build 0)  -->
<svg version="1.1" id="Ñëîé_1" xmlns="http://www.w3.org/2000/svg" xmlns:xlink="http://www.w3.org/1999/xlink" x="0px" y="0px"
	 viewBox="0 0 1000 1000" style="enable-background:new 0 0 1000 1000;" xml:space="preserve">
<style type="text/css">
	.st0{fill:#E74C3C;}
	.st1{fill:#F7CA9F;}
	.st2{opacity:0.3;fill:#AFAFAF;}
</style>
<rect x="89.6" y="104.7" class="st0" width="800" height="800"/>
<path class="st1" d="M560.3,104.7c0,0,31.7,169.3,1.2,317.4c0,0-9.7,42.4,25.8,74.9c32.5,29.9,39.1,61.1-9.6,96.5
	c0,0-48,24.3-68.9,105.4c0,0-3.6,60.7-53.5,67.1c0,0-16.9,0.8-22.9,6.4c0,0-39.1,28.4-61.9-0.8c0,0-15.8-14.7,20.1-24.9
	c0,0,38.1-12.3,42.2-71.1c0,0,19.8-178.8,21.3-197.4c1.8-22.1-0.7-105.6-23.6-178c-22.9-72.3-47.9-176.7-41.4-195.6H560.3z"/>
<rect x="89.6" y="104.7" class="st2" width="400" height="800"/>
</svg>
