<?xml version="1.0" encoding="iso-8859-1"?>
<!-- Generator: Adobe Illustrator 19.0.0, SVG Export Plug-In . SVG Version: 6.00 Build 0)  -->
<svg version="1.1" id="Layer_1" xmlns="http://www.w3.org/2000/svg" xmlns:xlink="http://www.w3.org/1999/xlink" x="0px" y="0px"
	 viewBox="0 0 512 512" style="enable-background:new 0 0 512 512;" xml:space="preserve">
<path style="fill:#949493;" d="M374.474,329.838l-8.884,2.221L84.852,183.694c-17.191-9.16-32.942-20.798-46.73-34.559
	L2.585,113.599c-3.447-3.465-3.447-9.062,0-12.527l14.126-14.126c3.465-3.447,9.062-3.447,12.527,0l42.999,42.999
	c8.822,8.849,18.914,16.338,29.939,22.21L405.391,312.07l10.572,5.775L374.474,329.838z"/>
<g>
	<polygon style="fill:#314A59;" points="449.811,336.501 449.811,400.911 414.275,400.911 414.275,345.385 	"/>
	<path style="fill:#314A59;" d="M449.811,276.533v38.557l-35.536,9.506v-48.063c0-4.904,3.98-8.884,8.884-8.884h17.768
		C445.831,267.649,449.811,271.62,449.811,276.533z"/>
</g>
<path style="fill:#4C4C4F;" d="M476.464,392.027L512,383.142l-17.768,44.421H64.241c-4.904,0.64-9.399-2.825-10.039-7.729
	c-0.64-4.904,2.825-9.399,7.729-10.039l299.039-79.957l45.931-12.349l7.374-1.955l35.536-9.506l36.336-9.772
	c4.549-1.226,9.266,1.306,10.75,5.775L512,347.606l-35.536-8.884l-213.219,53.305L476.464,392.027L476.464,392.027z"/>
<g>
</g>
<g>
</g>
<g>
</g>
<g>
</g>
<g>
</g>
<g>
</g>
<g>
</g>
<g>
</g>
<g>
</g>
<g>
</g>
<g>
</g>
<g>
</g>
<g>
</g>
<g>
</g>
<g>
</g>
</svg>
