<?xml version="1.0" encoding="utf-8"?>
<!-- Generator: Adobe Illustrator 21.1.0, SVG Export Plug-In . SVG Version: 6.00 Build 0)  -->
<svg version="1.1" id="Layer_1" xmlns="http://www.w3.org/2000/svg" xmlns:xlink="http://www.w3.org/1999/xlink" x="0px" y="0px"
	 viewBox="0 0 999 957.4" style="enable-background:new 0 0 999 957.4;" xml:space="preserve">
<style type="text/css">
	.st0{fill:#262626;}
</style>
<g>
	<polygon class="st0" points="949.7,322 732.1,539.6 732.1,666.9 507.8,666.9 507.8,794.2 283.5,794.2 283.5,921.5 59.2,921.5 
		59.2,957.4 319.4,957.4 319.4,830.1 543.7,830.1 543.7,702.8 768,702.8 768,554.8 975.3,347.6 	"/>
	<polygon class="st0" points="999,300.1 905.2,325.3 973.9,394 	"/>
	<g>
		<path class="st0" d="M551.5,362.1c-0.3-16.2-12.6-29.7-28.8-31.5L416,319.1c0,0-95.7-154.5-186-154.5c-15.2,0-31.5,2-46.3,9.2l0,0
			C145.6,186.1,56,255.1,35.8,270.9c-2.7,2.1-4.5,5-5.2,8.3L0.8,415c-4,18.3,8.3,36.1,26.8,38.9v0c16.9,2.5,32.8-8.6,36.3-25.3
			l19.4-92.1c1.5-7,5.5-13.3,11.2-17.5c8.8-6.5,23.1-17,39-28.4c0,157.6,0.9,63.4,0.9,209.8l31.8,160.5c0.7,3.7,0.9,7.5,0.4,11.2
			l-24.8,206.5c0,0,0,0.1,0,0.1c-3.2,18.4,5.2,36.5,23.8,41.8c4,1.1,8.6,2,13.7,2.6c27.1,3.1,44.2-16,47.8-33.8
			c0.1-0.4,23.4-187.7,27.8-219.3c0.5-3.4,0.4-6.8-0.1-10.2l-23.1-143.3L354,591.8c9.9,6.1,16,16.8,16.3,28.5l3.2,145.3
			c0.6,18,11.2,32.4,38.1,32.4c27.2,0,41.3-14.8,41.3-33.1c0-0.4-1.9-165.2-2.3-199.2c0-3.1-1.6-6-4.1-7.8l-136.9-96.4l0-156.9
			c0,0,55.7,65.3,70.6,82.6c2.3,2.7,5.6,4.3,9.1,4.5l128.3,7c18.7,1,34.4-14.1,34.1-32.9L551.5,362.1z"/>
		<path class="st0" d="M227.5,151.4c43.8,1.4,79.5-34.4,78.1-78.1C304.4,33.6,272.1,1.3,232.5,0c-43.8-1.4-79.5,34.4-78.1,78.1
			C155.6,117.8,187.9,150.1,227.5,151.4z"/>
	</g>
</g>
</svg>
