<?xml version="1.0" encoding="utf-8"?>
<!-- Generator: Adobe Illustrator 21.1.0, SVG Export Plug-In . SVG Version: 6.00 Build 0)  -->
<svg version="1.1" id="Layer_1" xmlns="http://www.w3.org/2000/svg" xmlns:xlink="http://www.w3.org/1999/xlink" x="0px" y="0px"
	 viewBox="0 0 909.2 1838.5" style="enable-background:new 0 0 909.2 1838.5;" xml:space="preserve">
<style type="text/css">
	.st0{fill:#FFFFFF;}
	.st1{fill:#1A1A1A;}
</style>
<g>
	<path class="st1" d="M728.1,1838.5H181.1c-100,0-181.1-81.1-181.1-181.1V181.1C0,81.1,81.1,0,181.1,0h546.9
		c100,0,181.1,81.1,181.1,181.1v1476.2C909.2,1757.4,828.1,1838.5,728.1,1838.5z"/>
	<rect x="53.5" y="191.4" class="st0" width="802.3" height="1489.2"/>
	<path class="st0" d="M520.2,1788.8H389c-19,0-34.5-15.4-34.5-34.5v0c0-19,15.4-34.5,34.5-34.5h131.2c19,0,34.5,15.4,34.5,34.5v0
		C554.7,1773.4,539.3,1788.8,520.2,1788.8z"/>
	<path class="st0" d="M540.3,108.4H369c-8.1,0-14.6-6.5-14.6-14.6l0,0c0-8.1,6.5-14.6,14.6-14.6h171.3c8.1,0,14.6,6.5,14.6,14.6l0,0
		C554.9,101.8,548.4,108.4,540.3,108.4z"/>
</g>
</svg>
