<?xml version="1.0" encoding="utf-8"?>
<!-- Generator: Adobe Illustrator 21.1.0, SVG Export Plug-In . SVG Version: 6.00 Build 0)  -->
<svg version="1.1" xmlns="http://www.w3.org/2000/svg" xmlns:xlink="http://www.w3.org/1999/xlink" x="0px" y="0px"
	 viewBox="0 0 3401.6 3401.6" style="enable-background:new 0 0 3401.6 3401.6;" xml:space="preserve">
<style type="text/css">
	.Arched_x0020_Green{fill:url(#SVGID_1_);stroke:#FFFFFF;stroke-width:0.25;stroke-miterlimit:1;}
	.st0{fill:#F6EEF2;}
	.st1{fill:#C2CCEA;}
	.st2{fill:#6E8F9A;}
	.st3{fill:#83A4B3;}
	.st4{fill:#CCCFD1;}
	.st5{fill:#64838C;}
	.st6{fill:#2C2438;}
	.st7{fill:#29404C;}
	.st8{fill:#44615D;}
	.st9{fill:#FF7D36;}
	.st10{fill:#B35543;}
</style>
<linearGradient id="SVGID_1_" gradientUnits="userSpaceOnUse" x1="1488.1879" y1="1913.3864" x2="1488.8949" y2="1912.6792">
	<stop  offset="0" style="stop-color:#1EAB4B"/>
	<stop  offset="0.9831" style="stop-color:#19361A"/>
</linearGradient>
<g id="perspective">
	<g>
		<rect x="0" y="0" class="st0" width="3401.6" height="3401.6"/>
	</g>
	<path class="st1" d="M3401.6,3276.5H0V2110.9l20.5-14.1c67.6-46.3,144.9-76.5,226.1-88.3l0,0l104.4,53.7
		c163.7,84.2,346.9,123.2,530.7,112.8l93.1-5.3l389.8,112.5c112.1,32.4,231,33.3,343.6,2.7l42.1-11.4
		c174.7-47.5,360.7-29.5,523,50.5l32.2,15.9c118.8,58.6,257.3,62.4,379.2,10.5h0c47.1-20.1,97.3-32,148.4-35.4l445.6-29.2
		l122.9,431.7V3276.5z"/>
	<path class="st2" d="M274.1,2340.8h609.4c28.2,0,50.8-24.6,46.9-52.5c-0.2-1.2-0.4-2.3-0.6-3.5l-2.8-13.4
		c-3.2-15.5-15.7-27.9-31.4-29.8c-15.2-1.8-29.4,6-36.4,19l-15.8,29.7c-12.1,22.7-42.8,26.8-60.4,8.1l-52.2-55.5
		c-6.5-6.9-16.7-8.5-25-4.1c-27.1,14.4-58.6,18.2-88.3,10.6c-24.2-6.2-49.4,5.8-59.8,28.6c-5.8,12.7-23.5,13.5-30.5,1.4v0
		c-16.3-28.3-46.1-46.2-78.8-47.1h-3.8c-21.8,0-42.5,8.2-59.3,22.1c-25.1,20.7-60.8,25.9-92.2,10.4c-20.3-10-44.8-1.6-53.8,19.1
		l-0.9,2.1C227,2311.9,245.9,2340.8,274.1,2340.8z"/>
	<path class="st3" d="M3116.6,2387.9l285-94.6v1108.3H0V2293.3c136.8-43.3,282.9-48.4,422.4-14.6l66.8,16.2
		c104.3,25.3,214,15.5,312.2-27.8l387,84.9c106.2,23.3,215.8,26.9,323.3,10.6l0,0c29.4-4.5,59-7.4,88.5-8.9l5.5-1
		c202.1-38.9,409.6-40.7,612.4-5.2l430,75.1C2804.6,2449.9,2965.6,2438,3116.6,2387.9L3116.6,2387.9z"/>
	<path class="st4" d="M1320.4,2470.3l-85.2,19c-13.8,3.1-19.8,14-20.9,23.1c-1.1,9.2,2.3,21.2,15,27.3l55.8,26.9l-5,10.3l-55.8-26.9
		c-14.9-7.2-23.3-22.5-21.4-38.9c1.9-16.5,13.6-29.4,29.7-33l85.2-19c5.4-1.2,5.1-6.1,4.9-7.1c-0.1-1-1.3-5.8-6.6-5.5
		c-63.2,3-139.3,4.4-225.5-8c-12.6-1.8-17.9-12.2-17.4-21.1c0.5-8.9,6.8-18.6,19.5-19l189.9-6.3c7.4-0.3,10.5-5.7,10.9-10.3
		c0.4-4.6-1.7-10.6-8.9-12.1l-21.3-4.6c12.9,1.7,25.8,3.1,38.8,4.2c2.2,3.9,3.3,8.5,2.9,13.5c-1,11.8-10.1,20.4-21.9,20.8
		l-189.9,6.3c-5.9,0.2-8.2,4.5-8.4,8.2c-0.2,3.7,1.7,8.3,7.6,9.2c85.2,12.2,160.7,10.9,223.3,7.9c9.9-0.5,17.2,5.9,18.5,15.4
		C1335.3,2458.6,1330.9,2467.9,1320.4,2470.3z"/>
	<path class="st2" d="M0,3401.6V2397.4l287,95.3c344.2,114.3,714.7,122.9,1063.9,24.7l134.4-37.8c121.3-34.1,248.5-42,373-23.1h0
		c107.4,16.3,216.9,12.7,323.1-10.6l386.6-84.9c98.1,43.3,207.7,53,311.9,27.8l66.7-16.2c139.4-33.8,285.3-28.7,422,14.6l0,0v1014.2
		H0z"/>
	<path class="st4" d="M1611.8,2741.8l-22.4-4.6l6.2-30.2c4.4-21.7-1.1-43.9-15.1-61.1c-14-17.1-34.7-27-56.8-27h-126
		c-22,0-41.3-12.4-50.5-32.4c-9.2-20-6-42.7,8.3-59.4l12.4-14.4l39.8-11.2l-34.7,40.5c-8.5,10-10.4,23-4.9,34.9
		c5.5,11.9,16.6,19,29.7,19h126c29,0,56.2,12.9,74.6,35.4c18.4,22.5,25.6,51.7,19.8,80.2L1611.8,2741.8z"/>
	<path class="st5" d="M1954.8,2597.4L1954.8,2597.4c-91.2,42.2-189.2,68.3-289.5,75.5c-179.3,12.8-359.8,1.1-536.5-35.1l-463.3-94.9
		h0c-151.6,103.3-346.5,118.6-512.4,40.3L0,2511v890.6h3135.4L3010,2471l-376.5,98.4c-128.4,33.6-264.8,16.4-380.9-48v0
		C2149.5,2528.3,2048.6,2554,1954.8,2597.4z"/>
	<path class="st4" d="M1449.6,3295.5l-663.3-355.7c-39.6-21.2-58.6-64.7-47.5-108.1c11-43.2,48.2-72,92.7-72c0.3,0,0.6,0,0.9,0
		l568,5.1c0.1,0,0.3,0,0.4,0c22.8,0,33.9-15.8,36.6-30.6c2.8-14.9-2-33.7-23.7-41.8l-58.2-21.7c37.4,3.2,74.8,5.3,112.3,6.4
		c14.7,19.5,18.7,44,14.7,65.4c-6.3,34-33.9,68.1-81.7,68.1c-0.3,0-0.6,0-0.9,0l-568-5.1c-0.2,0-0.4,0-0.6,0
		c-28.5,0-43.6,19.4-48.3,37.6c-4.7,18.3-0.6,42.8,24.8,56.4l672.8,360.8L1449.6,3295.5z"/>
	<path class="st6" d="M2273.5,2728.3L2273.5,2728.3c27.3-40.3,72.7-64.5,121.4-64.7l48.3-0.2c146.3-0.6,288.2-50.7,402.4-142.1
		l180.8-144.7c25.5-20.4,60.3-24.7,90-11.2v0c45.3,20.6,98.9,4.7,125.5-37.4l159.5-251.6v1325.3H1056.1l750.4-298.2
		C1996.3,3028,2159,2897.3,2273.5,2728.3z"/>
	<path class="st7" d="M1086.7,2877L1086.7,2877c58.5,53.4,99.1,123.5,116.4,200.8l72.3,323.8H984.7l43.5-501.8
		C1030.7,2870.9,1065.3,2857.4,1086.7,2877z"/>
	<path class="st6" d="M741.5,3018.5L741.5,3018.5c27.5,0,50.8,20.2,54.7,47.5l47.7,335.6H646.6l40.1-334.4
		C690,3039.4,713.6,3018.5,741.5,3018.5z"/>
	<path class="st8" d="M692.1,3401.6H433l23.9-654c1.8-50.3,68.5-67.2,93.7-23.6c61.9,107,104.4,222.6,116.7,374.4L692.1,3401.6z"/>
	<path class="st7" d="M361.6,3000.7c16.5-42,75.4-43.3,93.6-2c41.6,94.5,80.5,194.1,111.8,333.3l15.7,69.7H278.8l3.1-46.9
		C292,3203.7,327.6,3087.4,361.6,3000.7z"/>
	<path class="st8" d="M100.8,2829.1L100.8,2829.1c27.2,0,51.3,17.3,59.9,43.1c39.9,118.6,88.4,269.4,88.4,485.8v43.6H0v-203
		c0-88.3,9.1-176.3,27.1-262.7l11.8-56.4C45,2850.1,70.9,2829.1,100.8,2829.1z"/>
	<path class="st7" d="M2980.4,2161.8l-130.8,600.3c-4.1,18.9,10.3,36.8,29.6,36.8h261.7c19.3,0,33.7-17.9,29.6-36.8l-130.8-600.3
		C3032.7,2130,2987.3,2130,2980.4,2161.8z"/>
	<path class="st5" d="M2985.6,2930.5h259l-23.9-654c-1.8-50.3-68.5-67.2-93.7-23.6c-61.9,106.9-104.4,222.6-116.7,374.4
		L2985.6,2930.5z"/>
	<path class="st7" d="M3332.9,2644.8c-13.4-34.2-61.4-35.2-76.1-1.6c-33.8,76.9-65.5,157.9-91,271.1l-12.7,56.7h247.2l-2.6-38.1
		C3389.5,2809.9,3360.5,2715.3,3332.9,2644.8z"/>
	<path class="st8" d="M3401.6,3401.6v-445.3l-370-150.6c-85.4-34.8-154.9-100-195-183h-391.5l-4.4,191.3
		c-104.2-52.1-222-70.5-337.1-52.6l-223.5,34.8l-8.9,289.2l-106.8-48.9l-156.3,124.6c-74.4,59.3-120.2,146.6-127.3,240.7H3401.6z"/>
	<path class="st0" d="M1871.2,3085.3l8.9-289.2l0,0l170.9,278.7c23.8,38.9-17.1,85-58.6,66.1L1871.2,3085.3z"/>
	<path class="st0" d="M2595.2,2891.2l-154.6-77.3l4.4-191.3l0,0l178.3,234.7C2637.9,2876.3,2616.6,2901.9,2595.2,2891.2z"/>
</g>
<g id="person">
	<g>
		<path class="st6" d="M2227.4,2727c1.7-18.9-12.2-35.6-31.1-37.4c-18.9-1.6-35.6,12.2-37.4,31.1l-6.3,67.6
			c-0.9,10.1-7.5,18.9-16.9,22.6l-12.8,5.1c-9.9,4-22.3,5-35.4,3.1c-20.9-3.1-39.4,0.5-51.6,9.3c-9,6.4-9.1,19.7-0.2,26.2
			c21.7,15.9,57.6,31,75.2,36.6l62.3,19.8c19.2,6.1,39-7.2,40.7-27.3L2227.4,2727z"/>
		<path class="st6" d="M2437.3,2337.7l-200.9,17.1c-38.4,3.3-68.9,33.8-72.3,72.2l-25.1,291.3c-2.3,27,15,52.5,41.4,58.6
			c4.3,1,8.3,1.4,12.4,1.4c27.7,0,51.3-21.2,53.7-49.4l17.1-198.2l3.5-40.8c1.4-16.4,15.4-28.9,31.9-28.5l218.3,5.3
			c38.8,0.9,72.1,28.1,80.8,65.9l89.9,389c3.9,26.9,27,46.3,53.4,46.3c6.6,0,13.5-1.2,20.2-3.9c23.5-9.4,36.6-34.7,33-59.8
			l-78.2-543.3c-0.4-2.5-0.9-4.8-1.6-7.1c-0.1-2.2-0.3-4.4-0.6-6.6l-8.5-61.3c-4.7-33.4-35.6-56.7-69-51.9l-143.5,20.6
			c-33.3,4.8-53.6,35.3-45.2,67.8l0,0C2450,2329.8,2444.8,2337,2437.3,2337.7z"/>
		<path class="st9" d="M2434.4,2343l0.6-131.8c-3.8-30.9-9.5-61.5-17.2-91.7l-31.4-126c-9.1-36.7,8.3-74.8,41.9-92l26.8-13.6
			c44-22.4,94.6-28.5,142.6-17.1l16.6,3.9c33.9,8,59.7,35.5,65.6,69.8l56.7,332.5c3.8,22.1-12.2,42.6-34.5,44.4L2434.4,2343z"/>
		<g>
			<path class="st6" d="M2552.5,1827.1l11.1-6.8c45-27.7,68.5-80,59.2-132l0,0c-3.4-19.1-20-32.9-39.3-32.9h-26.9L2552.5,1827.1z"/>
			<path class="st10" d="M2491.6,1851.6c48.7,0,88.3-39.5,88.3-88.3v-108h-171.1v32.7c0,6.4,1.4,12.7,4.2,18.4
				c4,8.4,5.4,17.7,3,26.7l0,0.2c-2.3,8.9-3.4,18.1-3.1,27.3l1.8,69.7c0.3,11.8,10,21.3,21.8,21.3L2491.6,1851.6z"/>
			<path class="st6" d="M2486.4,1676.2v0.3l-77.8-0.3v3c8.8,2.7,12.6,8.4,14.3,14.4c2.3,8.1,6.6,15.6,13.7,20.1
				c6.4,4.1,10.7,11.4,10.7,19.6l0,13.5c0,4.8,3.9,8.7,8.7,8.7c4.8,0,8.7-3.9,8.7-8.7v-2.7l0-0.4c0.1-13.3,13.8-20.6,24.4-16v36.2
				c0,30.6,21.8,56.2,50.7,62.1c2.6,0.7,5.3,1.3,8.2,1.3h4.5c26.7-23,42-56.5,42-91.7v-59.3H2486.4z"/>
			<path class="st6" d="M2428,1618.9l99.1-6.6c38.8-2.6,73,25.2,78.3,63.7l0,0l-9.5,61.3h-4.1c-27.8,0-55.3-7.9-78.1-23.9
				c-19.5-13.8-46.7-26.8-84.1-26.8l0,0c-1.6,0-3.1-0.1-4.6-0.2C2384.7,1682.1,2387.6,1621.6,2428,1618.9z"/>
			<path class="st10" d="M2477.1,1774.5L2477.1,1774.5c-9,0-16.1-7.5-14.9-16.1c1.1-7.7,1.2-15.5,0-23.3c-1.2-8.5,5.8-16,14.9-16
				l0,0c7.2,0,13.5,4.8,14.8,11.4c2.1,10.5,2.2,21.4,0,32.5C2490.5,1769.7,2484.2,1774.5,2477.1,1774.5z"/>
			<path class="st10" d="M2433.6,1786.3l-24.1-9.7c-4.6-1.8-6.9-6.1-5.7-10.2l14.5-47.2l15.3,15.5V1786.3z"/>
		</g>
		<path class="st9" d="M2449.5,1934.1h240.4v-114.7c0-47.2-45.9-80.7-90.8-66.4l-66.3,21.2c-49.6,15.8-83.3,62-83.3,114V1934.1z"/>
		<path class="st9" d="M2523.5,1872.3l73.6-1.7c0.2,0,0.4,0.1,0.6,0.1l16.6,3.9c33.9,8,59.7,35.5,65.6,69.8l53.4,313.1
			c5.4,31.9-18.7,61.2-51,61.9l-150.5,3.7l-63.3-381.9C2462.6,1905.8,2488.6,1873.2,2523.5,1872.3z"/>
		<path class="st6" d="M2427.6,2179.5l-0.6-2.3c36.3,39.1,84.7,64.9,137.8,72.8l37.2,5.5l-1.1,7.7c-2.4,16-17.3,27.1-33.3,24.7
			l-8.2-1.2c-43.5-6.4-84.2-23.2-119.3-48.4C2436.7,2218.6,2432.5,2199,2427.6,2179.5z"/>
		<g>
			<path class="st6" d="M2720.8,2210.8l98.7-1c24.6-0.3,41.5-20.6,37.6-45.5l-10.5-67c-3.9-24.9-27-44.8-51.6-44.6l-54.2,0.6
				c-24.6,0.3-41.5,20.6-37.6,45.5L2720.8,2210.8z"/>
			<path class="st6" d="M2529,1866.6l142-3.2c53.5-1.2,99.9,37,108.9,89.8l40.2,235.1c8.5,49.8-29.2,95.5-79.7,96.6l-165,3.7
				c-11,0.2-20.5-7.6-22.3-18.4l-61.3-358.5C2487.9,1888.5,2505.4,1867.1,2529,1866.6z"/>
			<path class="st6" d="M2646.8,2214.4l-99-1c-24.7-0.3-47.5-20.6-50.8-45.5l-8.9-67c-3.3-24.9,14-44.8,38.7-44.6l54.4,0.6
				c24.7,0.3,47.5,20.6,50.8,45.5L2646.8,2214.4z"/>
			<g>
				<g>
					<path class="st7" d="M2642.7,2047.9c-28.1,0.7-52.9-19.8-57.6-47.5l-23-134.5l109-2.4c53.5-1.2,99.9,37,108.9,89.8l15.6,91.3
						L2642.7,2047.9z"/>
				</g>
				<polygon class="st7" points="2801,2186.7 2770.7,2186.7 2742.6,2022.4 2772.9,2022.4 				"/>
				<polygon class="st7" points="2682.7,2190.5 2652.5,2190.5 2624.4,2026.2 2654.6,2026.2 				"/>
			</g>
			<g>
				<path class="st1" d="M2788,2112.4h-30.3l-5.7-33.1h29.2c6.7,0,12.3,4.8,13.5,11.4l2,11.5
					C2797.5,2107.5,2793.4,2112.4,2788,2112.4z"/>
				<path class="st1" d="M2669.7,2116.2h-30.3l-5.7-33.1h29.2c6.7,0,12.3,4.8,13.5,11.4l2,11.5
					C2679.3,2111.3,2675.2,2116.2,2669.7,2116.2z"/>
			</g>
		</g>
		<path class="st6" d="M2551.3,1936.7c3.8,14.3-12.3,25.4-24.4,16.9c-29.6-20.8-63.8-34.6-100.3-40l-13.5-2
			c4.6-3.8,9.6-7.3,15.2-10.1l20.2-10.3C2485.8,1899.1,2520.7,1914.7,2551.3,1936.7L2551.3,1936.7z"/>
		<path class="st6" d="M2761.1,2939.8l-34.9,5c-8.1,1.2-13.7,8.7-12.5,16.8l2.9,20.2c2,14.2-5.9,28-19.3,33.3l-0.6,0.2
			c-9.9,4-22.3,5-35.4,3.1c-14-2.1-26.9-1.1-37.6,2.4c-15.5,5-16.3,26.6-1.4,33.1l127.2,55.4c26.7,11.6,55.7-10.8,51.1-39.5
			l-18.1-114.1C2780.9,2945.4,2771.3,2938.3,2761.1,2939.8z"/>
		<g>
			<path class="st10" d="M2364.5,2283.4l-99,31.3c-29.4,9.3-56.7,24.3-80.4,44.2l-2.4,2c-12.2,10.2-19.3,25.3-19.4,41.2l-0.3,31.9
				c1.9,0.7,3.9,1.2,5.8,1.5c16.9,3,33.9-6.5,39.9-23.2c2.5-6.9,9.5-12.5,18.1-14.7l0.2,0c11-2.9,20.2-10.4,25.3-20.6l5-10
				l176.9-23.8v0c19-69.5,28.7-141.2,28.9-213.3l0.1-54.8c0-19-15.3-34.4-34.3-34.4h-0.1c-18.9,0-34.3,15.3-34.4,34.3l-9.6,182
				C2384.3,2269.1,2376.2,2279.7,2364.5,2283.4z"/>
			<path class="st1" d="M2393.4,1982.6c0.1-22.8,21.5-41.3,47.9-41.3c0,0,0.1,0,0.1,0c26.5,0.1,47.8,18.6,47.8,41.5l-0.3,104.4
				l-95.8,7.7L2393.4,1982.6z"/>
		</g>
	</g>
</g>
</svg>
