<?xml version="1.0" encoding="utf-8"?>
<!-- Generator: Adobe Illustrator 21.1.0, SVG Export Plug-In . SVG Version: 6.00 Build 0)  -->
<svg version="1.1" id="Layer_1" xmlns="http://www.w3.org/2000/svg" xmlns:xlink="http://www.w3.org/1999/xlink" x="0px" y="0px"
	 viewBox="0 0 600 600" style="enable-background:new 0 0 600 600;" xml:space="preserve">
<style type="text/css">
	.st0{fill:#ECF0F0;}
	.st1{fill:#89C0C7;}
	.st2{fill:#FFFFFF;}
	.st3{fill:#D6001E;}
	.st4{fill:#F35237;}
	.st5{opacity:0.25;}
	.st6{fill:#D3D0DB;}
	.st7{fill:#A5A2AB;}
	.st8{fill:#E6642C;}
	.st9{fill:#B85023;}
</style>
<rect class="st0" width="600" height="600"/>
<path class="st1" d="M308.6,576c-151.6,0-275-123.4-275-275S157,26,308.6,26c151.6,0,275,123.4,275,275S460.2,576,308.6,576z"/>
<g>
	<path class="st2" d="M308.6,480.9c-99.2,0-179.9-80.7-179.9-179.9s80.7-179.9,179.9-179.9c99.2,0,179.9,80.7,179.9,179.9
		S407.8,480.9,308.6,480.9z"/>
	<path class="st3" d="M308.6,449.4c-81.8,0-148.4-66.6-148.4-148.4c0-81.8,66.6-148.4,148.4-148.4c81.8,0,148.4,66.6,148.4,148.4
		C457,382.8,390.4,449.4,308.6,449.4z"/>
	<path class="st4" d="M425.6,301c0,64.6-52.4,117-117,117c-64.6,0-117-52.4-117-117s52.4-117,117-117
		C373.2,184,425.6,236.4,425.6,301z"/>
	<path class="st3" d="M390.4,301c0,45.2-36.6,81.8-81.8,81.8c-45.2,0-81.8-36.6-81.8-81.8c0-45.2,36.6-81.8,81.8-81.8
		C353.8,219.2,390.4,255.8,390.4,301z"/>
	<ellipse class="st2" cx="308.6" cy="301" rx="52.3" ry="52.3"/>
	<circle class="st3" cx="308.6" cy="301" r="20.4"/>
	<polygon class="st5" points="581.6,302.3 539.2,264.6 539.2,264.6 568.5,215.1 481.9,228.1 461,263.4 303.5,287.1 317.4,315.8 
		466.9,290.3 495,315.3 	"/>
	<g>
		<path class="st6" d="M507.9,172.3L301.1,286.9c0.7,7.1,1.9,12.2,4,16.5l210.2-117.6L507.9,172.3z"/>
		<path class="st7" d="M515.3,185.8L305.1,303.4c2.5,5,6.2,8.7,12,12.5l206.8-114.6L515.3,185.8z"/>
	</g>
	<g>
		<polygon class="st8" points="513.7,188.1 519.5,123.6 442.9,166 437.1,230.5 513.7,188.1 		"/>
		<polygon class="st9" points="513.7,188.1 437.1,230.5 494.3,258.8 570.9,216.4 		"/>
	</g>
</g>
</svg>
