<svg height="512pt" viewBox="-59 0 512 512" width="512pt" xmlns="http://www.w3.org/2000/svg"><path d="m203.554688 55.589844h-187.613282v-47.199219c0-4.632813 3.757813-8.390625 8.390625-8.390625h170.828125c4.636719 0 8.390625 3.757812 8.390625 8.390625v47.199219zm0 0" fill="#42a5f5"/><path d="m195.164062 0h-31.59375v8.96875c0 14.707031-11.921874 26.628906-26.628906 26.628906h-121v19.992188h187.613282v-47.199219c0-4.632813-3.757813-8.390625-8.390626-8.390625zm0 0" fill="#1976d2"/><path d="m156.613281 108.5625h-93.730469c-3.839843 0-6.953124-3.113281-6.953124-6.953125v-46.019531h107.632812v46.019531c0 3.839844-3.109375 6.953125-6.949219 6.953125zm0 0" fill="#42a5f5"/><path d="m123.582031 55.589844v8.996094c0 13.246093-10.738281 23.984374-23.984375 23.984374h-43.667968v13.039063c0 3.839844 3.113281 6.953125 6.953124 6.953125h93.726563c3.839844 0 6.953125-3.113281 6.953125-6.953125v-46.019531zm0 0" fill="#1e88e5"/><path d="m55.929688 87.472656h-39.988282c-8.804687 0-15.941406-7.140625-15.941406-15.941406 0-8.804688 7.136719-15.941406 15.941406-15.941406h39.988282zm147.625-31.882812h-39.992188v31.882812h39.992188c8.800781 0 15.9375-7.140625 15.9375-15.941406 0-8.804688-7.136719-15.941406-15.9375-15.941406zm0 0" fill="#64b5f6"/><path d="m163.5625 87.472656v14.136719c0 3.839844-3.109375 6.953125-6.949219 6.953125h-93.730469c-3.839843 0-6.953124-3.113281-6.953124-6.953125v-14.136719h-33.421876v405.726563c0 10.382812 8.417969 18.800781 18.800782 18.800781h136.878906c10.382812 0 18.796875-8.417969 18.796875-18.800781v-405.726563zm0 0" fill="#42a5f5"/><path d="m22.898438 88.570312h33.03125v-1.097656h-33.421876v1.078125c.132813.007813.261719.019531.390626.019531zm0 0" fill="#42a5f5"/><path d="m163.5625 87.472656v14.136719c0 3.707031-2.902344 6.730469-6.558594 6.933594v323.15625c0 33.308593-27 60.308593-60.308594 60.308593h-74.1875v1.191407c0 10.382812 8.417969 18.800781 18.800782 18.800781h136.878906c10.382812 0 18.796875-8.417969 18.796875-18.800781v-405.726563zm0 0" fill="#1976d2"/><path d="m157.203125 458.945312h-94.914063c-3.511718 0-6.359374-2.847656-6.359374-6.359374v-298.203126c0-3.511718 2.847656-6.363281 6.359374-6.363281h94.914063c3.511719 0 6.363281 2.847657 6.363281 6.363281v298.203126c-.003906 3.511718-2.851562 6.359374-6.363281 6.359374zm0 0" fill="#eceff1"/><path d="m123.582031 148.019531v258.441407c0 17.945312-14.546875 32.492187-32.492187 32.492187h-35.160156v13.632813c0 3.511718 2.847656 6.359374 6.359374 6.359374h94.914063c3.511719 0 6.363281-2.847656 6.363281-6.359374v-298.203126c0-3.511718-2.847656-6.363281-6.363281-6.363281zm0 0" fill="#b0bec5"/><path d="m98.152344 458.945312h-35.863282c-3.511718 0-6.359374-2.847656-6.359374-6.359374v-298.203126c0-3.511718 2.847656-6.363281 6.359374-6.363281h35.863282zm0 0" fill="#66bb6a"/><path d="m78.160156 148.019531v273.011719c0 9.898438-8.023437 17.921875-17.917968 17.921875h-4.3125v13.628906c0 3.511719 2.847656 6.363281 6.363281 6.363281h35.859375v-310.925781zm0 0" fill="#388e3c"/><path d="m258.992188 314.441406c16.695312 0 40.03125 48.839844 40.03125 71.417969 0 5.164063-.9375 10.101563-2.648438 14.652344-22.050781-16.703125-52.714844-16.703125-74.765625 0-1.710937-4.550781-2.648437-9.488281-2.648437-14.652344 0-22.578125 23.335937-71.417969 40.03125-71.417969zm0 0" fill="#66bb6a"/><path d="m302.835938 406.148438c-2.050782-2.054688-4.210938-3.933594-6.460938-5.636719 1.710938-4.550781 2.648438-9.488281 2.648438-14.652344 0-10.707031-5.25-27.320313-12.546876-41.828125 29.15625-19.992188 87.007813-38.03125 101.757813-23.28125 16.773437 16.773438-8.847656 89.269531-31.527344 111.949219-10.027343 10.023437-22.730469 15.695312-35.707031 16.976562-.082031-15.761719-6.136719-31.5-18.164062-43.527343zm0 0" fill="#66bb6a"/><path d="m258.992188 314.441406c-4.695313 0-9.914063 3.863282-14.992188 9.914063 12.980469 15.476562 25.035156 45.273437 25.035156 61.503906 0 .984375-.042968 1.957031-.113281 2.925781 9.753906 1.574219 19.207031 5.480469 27.453125 11.726563 1.710938-4.550781 2.648438-9.488281 2.648438-14.652344 0-22.578125-23.335938-71.417969-40.03125-71.417969zm0 0" fill="#388e3c"/><path d="m388.234375 320.75c-7.03125-7.03125-23.859375-6.609375-42.703125-2.078125 1.019531.605469 1.933594 1.292969 2.71875 2.078125 16.433594 16.433594-7.832031 86.363281-30.152344 110.507812 1.890625 5.984376 2.867188 12.195313 2.898438 18.417969 12.976562-1.285156 25.683594-6.953125 35.710937-16.980469 22.679688-22.675781 48.296875-95.175781 31.527344-111.945312zm0 0" fill="#388e3c"/><path d="m131.074219 426.460938c-4.140625 0-7.496094-3.355469-7.496094-7.5v-111.617188c0-4.140625 3.355469-7.496094 7.496094-7.496094s7.496093 3.355469 7.496093 7.496094v111.617188c0 4.140624-3.355468 7.5-7.496093 7.5zm0 0" fill="#546e7a"/><path d="m302.835938 413.644531c-1.917969 0-3.835938-.734375-5.300782-2.195312-2.925781-2.929688-2.925781-7.675781 0-10.605469l41.460938-41.457031c2.929687-2.925781 7.675781-2.925781 10.601562 0 2.929688 2.929687 2.929688 7.671875 0 10.601562l-41.460937 41.460938c-1.460938 1.460937-3.382813 2.195312-5.300781 2.195312zm0 0" fill="#388e3c"/><path d="m258.992188 395.667969c-4.140626 0-7.496094-3.355469-7.496094-7.496094v-35.765625c0-4.140625 3.355468-7.496094 7.496094-7.496094 4.140624 0 7.496093 3.355469 7.496093 7.496094v35.765625c0 4.140625-3.355469 7.496094-7.496093 7.496094zm0 0" fill="#388e3c"/><path d="m321 449.992188c0 34.246093-27.761719 62.007812-62.007812 62.007812-34.246094 0-62.007813-27.761719-62.007813-62.007812 0-34.246094 27.761719-62.007813 62.007813-62.007813 34.246093 0 62.007812 27.761719 62.007812 62.007813zm0 0" fill="#ffe0b2"/><path d="m264.871094 388.269531c10.03125 11.015625 16.144531 25.660157 16.144531 41.730469 0 34.246094-27.761719 62.007812-62.007813 62.007812-1.984374 0-3.941406-.101562-5.878906-.285156 11.34375 12.457032 27.6875 20.277344 45.863282 20.277344 34.246093 0 62.007812-27.761719 62.007812-62.007812 0-32.261719-24.640625-58.757813-56.128906-61.722657zm0 0" fill="#ffb74d"/><g fill="#1b5e20"><path d="m257.050781 345.171875c3.980469 8.089844 7.308594 16.753906 9.4375 24.648437v-17.414062c0-4.140625-3.355469-7.496094-7.496093-7.496094-.671876 0-1.320313.097656-1.941407.261719zm0 0"/><path d="m349.597656 369.988281c2.410156-2.410156 2.832032-6.042969 1.277344-8.890625-.75 3.359375-1.640625 6.796875-2.648438 10.265625zm0 0"/></g></svg>