<svg height="512pt" viewBox="-31 0 512 512" width="512pt" xmlns="http://www.w3.org/2000/svg"><path d="m436.257812 512h-422.921874c-7.363282 0-13.335938-5.96875-13.335938-13.335938v-485.328124c0-7.367188 5.96875-13.335938 13.335938-13.335938h422.925781c7.363281 0 13.332031 5.96875 13.332031 13.335938v485.328124c0 7.367188-5.96875 13.335938-13.335938 13.335938zm0 0" fill="#cfd8dc"/><path d="m436.257812 0h-26.664062v334.421875c0 87.027344-70.550781 157.578125-157.578125 157.578125h-252.015625v6.664062c0 7.367188 5.96875 13.335938 13.335938 13.335938h422.921874c7.363282 0 13.335938-5.96875 13.335938-13.335938v-485.328124c0-7.367188-5.96875-13.335938-13.335938-13.335938zm0 0" fill="#90a4ae"/><path d="m169.597656 61.992188h-109.167968c-12.582032 0-22.78125 10.199218-22.78125 22.78125v342.453124c0 12.582032 10.199218 22.78125 22.78125 22.78125h328.734374c12.582032 0 22.78125-10.199218 22.78125-22.78125v-122.882812c0-64.273438-25.53125-125.917969-70.980468-171.367188-45.449219-45.449218-107.09375-70.984374-171.367188-70.984374zm0 0" fill="#ffccbc"/><path d="m340.964844 132.976562c-23.984375-23.984374-52.480469-42.414062-83.492188-54.480468 15.644532 9.71875 30.257813 21.246094 43.492188 34.480468 45.449218 45.449219 70.980468 107.09375 70.980468 171.367188v30.296875c0 63.714844-51.648437 115.367187-115.363281 115.367187h-218.761719c1.375 11.265626 10.96875 20 22.609376 20h328.734374c12.582032 0 22.78125-10.199218 22.78125-22.78125v-122.882812c0-64.273438-25.53125-125.917969-70.980468-171.367188zm0 0" fill="#ff8a65"/><path d="m169.597656 61.992188c64.273438 0 125.917969 25.535156 171.367188 70.984374 45.449218 45.449219 70.980468 107.09375 70.980468 171.367188 0-55.441406-44.941406-100.382812-100.382812-100.382812h-18.800781c-12.582031 0-22.78125-10.199219-22.78125-22.78125v-18.800782c0-55.441406-44.945313-100.386718-100.382813-100.386718zm0 0" fill="#ff7043"/><path d="m340.964844 132.976562c-23.984375-23.984374-52.480469-42.414062-83.488282-54.480468 15.640626 9.71875 30.253907 21.246094 43.488282 34.480468 29.421875 29.421876 50.480468 65.632813 61.6875 104.949219 29.507812 17.480469 49.292968 49.632813 49.292968 86.417969 0-64.277344-25.53125-125.917969-70.980468-171.367188zm0 0" fill="#e64a19"/><path d="m311.5625 203.960938h-18.800781c-12.582031 0-22.78125-10.199219-22.78125-22.78125v-18.800782c0-3.390625-.171875-6.742187-.5-10.046875h-121.453125c-14.160156 0-25.640625 11.480469-25.640625 25.644531v156.046876c0 14.160156 11.480469 25.640624 25.640625 25.640624h153.539062c14.160156 0 25.640625-11.480468 25.640625-25.640624v-128.847657c-5.097656-.796875-10.324219-1.214843-15.644531-1.214843zm0 0" fill="#fbe9e7"/><path d="m311.5625 203.960938h-18.800781c-1.914063 0-3.777344-.242188-5.554688-.6875v110.75c0 14.160156-11.480469 25.640624-25.640625 25.640624h-138.550781c2.574219 11.449219 12.792969 20 25.011719 20h153.539062c14.160156 0 25.640625-11.480468 25.640625-25.640624v-128.847657c-5.097656-.796875-10.324219-1.214843-15.644531-1.214843zm0 0" fill="#ffab91"/></svg>