<svg height="511pt" viewBox="1 -43 511.999 511" width="511pt" xmlns="http://www.w3.org/2000/svg"><path d="m503.3125 9.574219h-208.925781v406.78125h208.925781c4.796875 0 8.6875-3.886719 8.6875-8.6875v-389.40625c0-4.796875-3.890625-8.6875-8.6875-8.6875zm0 0" fill="#cfd8dc"/><path d="m503.3125 9.574219h-31.3125v346.515625c0 22.238281-18.027344 40.265625-40.265625 40.265625h-137.347656v20h208.925781c4.796875 0 8.6875-3.886719 8.6875-8.6875v-389.40625c0-4.796875-3.890625-8.6875-8.6875-8.6875zm0 0" fill="#90a4ae"/><path d="m452.039062 102.832031h-61.839843c-4.804688 0-8.703125-3.898437-8.703125-8.707031v-40.828125c0-4.804687 3.898437-8.703125 8.703125-8.703125h61.839843c4.808594 0 8.707032 3.898438 8.707032 8.703125v40.828125c0 4.808594-3.898438 8.707031-8.707032 8.707031zm8.707032 84.128907v-40.828126c0-4.804687-3.898438-8.703124-8.707032-8.703124h-61.839843c-4.808594 0-8.707031 3.898437-8.707031 8.703124v40.828126c0 4.808593 3.898437 8.703124 8.707031 8.703124h61.839843c4.808594 0 8.707032-3.894531 8.707032-8.703124zm-123.757813 43.304687h-42.601562v58.234375h42.601562c4.808594 0 8.707031-3.894531 8.707031-8.703125v-40.828125c-.003906-4.804688-3.898437-8.703125-8.707031-8.703125zm123.757813 49.53125v-40.828125c0-4.804688-3.898438-8.703125-8.707032-8.703125h-61.839843c-4.808594 0-8.707031 3.898437-8.707031 8.703125v40.828125c0 4.808594 3.898437 8.703125 8.707031 8.703125h61.839843c4.808594 0 8.707032-3.894531 8.707032-8.703125zm0 92.835937v-40.828124c0-4.804688-3.898438-8.703126-8.707032-8.703126h-61.839843c-4.808594 0-8.707031 3.898438-8.707031 8.703126v40.828124c0 4.808594 3.898437 8.703126 8.707031 8.703126h61.839843c4.808594 0 8.707032-3.894532 8.707032-8.703126zm-123.757813-328.039062h-42.601562v58.238281h42.601562c4.808594 0 8.707031-3.898437 8.707031-8.707031v-40.828125c-.003906-4.804687-3.898437-8.703125-8.707031-8.703125zm0 92.835938h-42.601562v58.234374h42.601562c4.808594 0 8.707031-3.894531 8.707031-8.703124v-40.828126c-.003906-4.804687-3.898437-8.703124-8.707031-8.703124zm0 185.671874h-42.601562v58.234376h42.601562c4.808594 0 8.707031-3.894532 8.707031-8.703126v-40.828124c-.003906-4.804688-3.898437-8.703126-8.707031-8.703126zm0 0" fill="#eceff1"/><path d="m345.691406 53.300781v40.824219c0 4.808594-3.894531 8.707031-8.703125 8.707031h-42.601562v-20h12.601562c4.808594 0 8.703125-3.898437 8.703125-8.707031v-29.53125h21.296875c4.808594 0 8.703125 3.898438 8.703125 8.707031zm-8.703125 84.128907h-21.292969v29.53125c0 4.808593-3.898437 8.703124-8.707031 8.703124h-12.601562v20h42.601562c4.808594 0 8.707031-3.894531 8.707031-8.703124v-40.828126c-.003906-4.804687-3.898437-8.703124-8.707031-8.703124zm0 92.835937h-21.292969v29.53125c0 4.804687-3.898437 8.703125-8.707031 8.703125h-12.601562v20h42.601562c4.808594 0 8.707031-3.898438 8.707031-8.703125v-40.828125c-.003906-4.804688-3.898437-8.703125-8.707031-8.703125zm0 92.835937h-21.292969v29.53125c0 4.808594-3.898437 8.703126-8.707031 8.703126h-12.601562v20h42.601562c4.808594 0 8.707031-3.894532 8.707031-8.703126v-40.828124c-.003906-4.804688-3.898437-8.703126-8.707031-8.703126zm115.050781-185.671874h-21.292968v29.53125c0 4.808593-3.898438 8.707031-8.707032 8.707031h-40.542968v11.292969c0 4.808593 3.898437 8.707031 8.707031 8.707031h61.835937c4.808594 0 8.707032-3.898438 8.707032-8.707031v-40.828126c0-4.804687-3.898438-8.703124-8.707032-8.703124zm0-92.835938h-21.292968v29.53125c0 4.808594-3.898438 8.707031-8.707032 8.707031h-40.542968v11.292969c0 4.808594 3.898437 8.707031 8.707031 8.707031h61.835937c4.808594 0 8.707032-3.898437 8.707032-8.707031v-40.824219c0-4.808593-3.898438-8.707031-8.707032-8.707031zm0 185.671875h-21.292968v29.53125c0 4.808594-3.898438 8.703125-8.707032 8.703125h-40.542968v11.296875c0 4.808594 3.898437 8.703125 8.707031 8.703125h61.835937c4.808594 0 8.707032-3.894531 8.707032-8.703125v-40.828125c0-4.804688-3.898438-8.703125-8.707032-8.703125zm0 92.835937h-21.292968v29.53125c0 4.808594-3.898438 8.703126-8.707032 8.703126h-40.542968v11.296874c0 4.808594 3.898437 8.703126 8.707031 8.703126h61.835937c4.808594 0 8.707032-3.894532 8.707032-8.703126v-40.828124c0-4.804688-3.898438-8.703126-8.707032-8.703126zm0 0" fill="#b0bec5"/><path d="m290.644531 425.429688h-286.902343c-2.066407 0-3.742188-1.671876-3.742188-3.738282v-417.449218c0-2.066407 1.675781-3.742188 3.742188-3.742188h286.902343c2.066407 0 3.742188 1.675781 3.742188 3.742188v417.449218c0 2.066406-1.675781 3.738282-3.742188 3.738282zm0 0" fill="#42a5f5"/><path d="m182.785156 208.003906c-9.789062-9.292968-31.242187-29.675781-31.242187-29.675781-11.898438-12.484375-32.214844-9.800781-40.683594 4.605469-.769531 1.3125-2.679687 1.3125-3.453125 0-8.453125-14.378906-28.761719-17.117188-40.683594-4.605469 0 0-21.453125 20.382813-31.242187 29.675781-2.585938 2.453125-2.585938 6.578125 0 9.035156 16.359375 15.535157 15.363281 14.648438 17.421875 16.457032 27.511718 24.148437 65.882812 27.335937 96.226562 11.21875 12.96875-6.894532 19.078125-13.832032 33.65625-27.675782 2.582032-2.457031 2.585938-6.582031 0-9.035156zm0 0" fill="#ef9a9a"/><path d="m184.703125 212.953125h-53.199219c-6.367187 0-12.664062 1.945313-17.628906 5.929687-1.304688 1.042969-2.953125 1.667969-4.753906 1.667969-1.800782 0-3.449219-.625-4.753906-1.667969-4.964844-3.984374-11.261719-5.929687-17.628907-5.929687h-53.175781c.105469 1.496094.738281 2.964844 1.917969 4.082031 16.359375 15.535156 15.367187 14.652344 17.421875 16.460938 27.511718 24.144531 65.882812 27.335937 96.226562 11.214844 12.96875-6.894532 19.078125-13.828126 33.65625-27.675782 1.179688-1.117187 1.8125-2.585937 1.917969-4.082031zm0 0" fill="#ef5350"/><path d="m290.644531.5h-36.257812v276.898438c0 21.003906-17.03125 38.03125-38.035157 38.03125h-216.351562v106.261718c0 2.066406 1.675781 3.738282 3.742188 3.738282h286.902343c2.066407 0 3.742188-1.671876 3.742188-3.738282v-417.449218c0-2.066407-1.675781-3.742188-3.742188-3.742188zm0 0" fill="#1976d2"/><path d="m0 337.679688v84.011718c0 2.0625 1.675781 3.738282 3.742188 3.738282h286.902343c2.066407 0 3.742188-1.675782 3.742188-3.738282v-84.011718zm0 0" fill="#1e88e5"/><path d="m254.386719 337.679688v43.433593c0 13.429688-10.890625 24.316407-24.320313 24.316407h-230.066406v16.261718c0 2.066406 1.675781 3.738282 3.742188 3.738282h286.902343c2.066407 0 3.742188-1.671876 3.742188-3.738282v-84.011718zm0 0" fill="#1565c0"/><path d="m212.535156 160.304688c-20.378906-.136719-38.101562 11.308593-46.96875 28.144531-6.0625 11.5-17.457031 19.238281-30.339844 21.003906l-.640624.089844c-1.613282.21875-2.929688 1.496093-3.070313 3.117187-.160156 1.847656 1.15625 3.464844 2.960937 3.714844l.78125.105469c13.046876 1.789062 24.292969 9.84375 30.539063 21.433593 8.890625 16.5 26.328125 27.714844 46.386719 27.714844 28.859375 0 52.296875-23.214844 52.660156-51.988281.363281-29.09375-23.214844-53.144531-52.308594-53.335937zm0 0" fill="#eceff1"/><path d="m224.554688 161.792969c6.585937 8.921875 10.4375 19.960937 10.289062 31.847656-.363281 28.773437-23.800781 51.988281-52.660156 51.988281-4.285156 0-8.449219-.515625-12.4375-1.480468 9.589844 13.027343 25.023437 21.480468 42.4375 21.480468 28.859375 0 52.296875-23.214844 52.660156-51.988281.3125-24.957031-16.996094-46.1875-40.289062-51.847656zm0 0" fill="#b0bec5"/><path d="m172.589844 78.363281h-50.792969c-18.492187 0-33.484375-14.992187-33.484375-33.484375v-44.378906h117.757812v44.378906c0 18.492188-14.992187 33.484375-33.480468 33.484375zm0 0" fill="#cfd8dc"/><path d="m166.070312.5v24.378906c0 18.492188-14.992187 33.484375-33.484374 33.484375h-41.4375c5.1875 11.773438 16.957031 20 30.648437 20h50.792969c18.492187 0 33.480468-14.992187 33.480468-33.484375v-44.378906zm0 0" fill="#90a4ae"/></svg>