<svg id="Layer_1" data-name="Layer 1" xmlns="http://www.w3.org/2000/svg" xmlns:xlink="http://www.w3.org/1999/xlink" viewBox="0 0 4740.71 2465.87"><defs><style>.cls-1{fill:#58595b;}.cls-2{fill:url(#linear-gradient);}.cls-3{fill:#b9c4cd;}.cls-4{fill:#bacdea;}.cls-4,.cls-5{fill-rule:evenodd;}.cls-24,.cls-5{fill:#fff;}.cls-6{fill:#9cd3ac;}.cls-7{fill:#b1d577;}.cls-8{fill:#d4aea8;}.cls-9{fill:#66a279;}.cls-10{fill:#a2866c;}.cls-11{fill:#d1d3d4;}.cls-12{fill:#a7a9ac;}.cls-13{fill:#e9ad98;}.cls-14{fill:#868d93;}.cls-15{fill:#a7afb9;stroke:#a7afb9;stroke-width:8.57px;}.cls-15,.cls-36{stroke-miterlimit:10;}.cls-16{fill:#ee4097;}.cls-17{fill:#808285;}.cls-18{fill:#3a89c9;}.cls-19{fill:#7da7d9;}.cls-20{fill:#c9b560;}.cls-21{fill:#fbc8b4;}.cls-22{fill:#e0cd5e;}.cls-23{fill:#8a7048;}.cls-25{fill:#231f20;}.cls-26{fill:#f69679;}.cls-27{fill:#675332;}.cls-28{fill:#9d794e;}.cls-29{fill:#fff200;}.cls-30{fill:#ea2d2e;}.cls-31{fill:#f26649;}.cls-32{fill:#d35640;}.cls-33{fill:#f3bd9f;}.cls-34{fill:#8a6439;}.cls-35{fill:#807756;}.cls-36{fill:none;stroke:#231f20;stroke-width:2.14px;}.cls-37{fill:#71552f;}.cls-38{fill:#5b3d1e;}</style><linearGradient id="linear-gradient" x1="2369.89" y1="1688.8" x2="2369.89" gradientUnits="userSpaceOnUse"><stop offset="0" stop-color="#fff"/><stop offset="0.43" stop-color="#fdfefe"/><stop offset="0.58" stop-color="#f6f9fc"/><stop offset="0.69" stop-color="#ebf1f9"/><stop offset="0.78" stop-color="#dae6f4"/><stop offset="0.85" stop-color="#c4d7ee"/><stop offset="0.92" stop-color="#a8c4e6"/><stop offset="0.98" stop-color="#89afdc"/><stop offset="1" stop-color="#7da7d9"/></linearGradient></defs><title>Image 26.A</title><rect class="cls-1" x="0.28" y="1909.36" width="4739.22" height="556.51"/><rect class="cls-2" x="0.28" width="4739.22" height="1688.8"/><rect class="cls-3" x="64.95" y="829.88" width="657.42" height="854.77"/><rect class="cls-3" x="536.96" y="640.37" width="657.42" height="854.77"/><rect class="cls-3" x="2640.63" y="788.39" width="657.41" height="1033.1"/><rect class="cls-3" x="1727.65" y="585.73" width="657.42" height="1227.65"/><rect class="cls-3" x="4010.25" y="821.59" width="657.41" height="854.76"/><rect class="cls-3" x="3501.42" y="591.03" width="657.43" height="1055.58"/><path class="cls-4" d="M4338.78,294.61c19.57-33.7-161.51-62.48-222.1-22-12.37-26.34-136.72-53.37-170.44-24.19,42.54-41.71-190.18-53.87-200.76-4.15-70.06-10.93-136.87,11.93-129.08,40.69-68.11-29.08-156.88,20.44-103.8,42.3-135.36-91-275.63,104.78-38.6,35.05.34,40.05,112.33,26.83,153.14,4.27,2.37,2.87-.59,7.15,1.09,10.39,30.28-4,55.93-1.53,83.77-11.42-16.13,35.25,133.93,65.24,158,24.9,69.09,28.32,146.48-1.86,141.69-32.17,50.5,13.85,86.58,0,86-20.95-12.1,29.61,112.91,44.8,144.92,16.81,44.51,21.09,130.76,15.26,94.51-12.25,140.68,38.51,195.51-86.89,1.66-51.46Z"/><path class="cls-5" d="M4430.79,270c18-30.16-148.85-55.91-204.68-19.68-11.4-23.57-126-47.77-157.06-21.65,39.2-37.33-175.26-48.21-185-3.71-64.57-9.78-126.13,10.68-119,36.42-62.77-26-144.58,18.29-95.66,37.86-124.74-81.41-254,93.78-35.56,31.37.3,35.85,103.51,24,141.12,3.82,2.19,2.57-.54,6.4,1,9.3,27.91-3.55,51.55-1.37,77.21-10.22-14.88,31.54,123.4,58.39,145.61,22.28,63.68,25.35,135-1.66,130.58-28.79,46.54,12.39,79.78,0,79.22-18.75-11.14,26.5,104,40.09,133.55,15,41,18.87,120.49,13.65,87.09-11,129.64,34.46,180.18-77.77,1.54-46.06Z"/><path class="cls-4" d="M2959.47,375.22c11.39-19.62-94-36.38-129.32-12.8-7.21-15.34-79.61-31.08-99.23-14.09C2755.68,324,2620.18,317,2614,345.91c-40.79-6.36-79.7,6.95-75.16,23.69-39.66-16.93-91.35,11.9-60.44,24.63-78.82-53-160.49,61-22.47,20.41.19,23.32,65.4,15.62,89.16,2.49,1.38,1.67-.34,4.16.64,6.05,17.63-2.31,32.57-.9,48.77-6.65-9.39,20.52,78,38,92,14.49,40.23,16.49,85.3-1.08,82.5-18.73,29.4,8.07,50.42,0,50-12.19-7,17.24,65.74,26.08,84.38,9.79,25.91,12.28,76.13,8.88,55-7.13,81.9,22.42,113.84-50.59,1-30Z"/><path class="cls-5" d="M3013,360.91c10.51-17.56-86.66-32.55-119.17-11.46-6.63-13.72-73.35-27.81-91.45-12.6,22.83-21.74-102-28.07-107.71-2.16-37.6-5.69-73.45,6.22-69.27,21.2-36.54-15.15-84.17,10.65-55.69,22-72.63-47.4-147.9,54.6-20.71,18.26.18,20.87,60.27,14,82.17,2.23,1.27,1.5-.32,3.73.58,5.42,16.26-2.07,30-.79,45-6-8.66,18.36,71.85,34,84.78,13,37.08,14.76,78.6-1,76-16.76,27.09,7.22,46.45,0,46.12-10.92-6.49,15.43,60.58,23.35,77.76,8.76,23.87,11,70.15,7.95,50.71-6.38,75.48,20.07,104.9-45.28.89-26.82Z"/><path class="cls-4" d="M2126.1,194.08c19.57-33.7-161.51-62.47-222.1-22-12.37-26.33-136.72-53.37-170.44-24.19,42.54-41.71-190.18-53.87-200.76-4.15-70.06-10.93-136.88,11.93-129.08,40.69-68.11-29.08-156.89,20.44-103.8,42.3-135.36-91-275.63,104.79-38.6,35.05.34,40.06,112.33,26.83,153.14,4.27,2.37,2.87-.59,7.15,1.09,10.4,30.29-4,55.94-1.54,83.78-11.42-16.14,35.24,133.92,65.24,158,24.89,69.1,28.32,146.49-1.85,141.7-32.16,50.5,13.85,86.58,0,86-20.95-12.09,29.61,112.91,44.79,144.92,16.81,44.51,21.09,130.76,15.25,94.52-12.25,140.67,38.51,195.52-86.89,1.66-51.46Z"/><path class="cls-5" d="M2218.12,169.51c18-30.16-148.85-55.91-204.69-19.68-11.39-23.56-126-47.76-157.06-21.64,39.21-37.34-175.26-48.21-185-3.72-64.57-9.78-126.14,10.68-119,36.42-62.77-26-144.58,18.29-95.66,37.86-124.74-81.41-254,93.78-35.57,31.37.31,35.85,103.51,24,141.13,3.82,2.18,2.57-.54,6.4,1,9.31,27.91-3.55,51.54-1.37,77.2-10.23-14.87,31.55,123.41,58.39,145.62,22.28,63.68,25.35,135-1.66,130.58-28.79,46.54,12.4,79.78,0,79.21-18.75-11.14,26.5,104,40.09,133.55,15,41,18.88,120.49,13.66,87.1-11,129.64,34.47,180.17-77.76,1.54-46.06Z"/><path class="cls-4" d="M711.29,456c11.88-18.63-98.06-34.54-134.85-12.16-7.5-14.56-83-29.51-103.47-13.37,25.83-23.06-115.46-29.78-121.88-2.29-42.53-6-83.11,6.6-78.37,22.5-41.35-16.07-95.25,11.3-63,23.39C127.51,423.82,42.34,532,186.24,493.49c.22,22.14,68.21,14.83,93,2.36,1.44,1.59-.36,4,.66,5.75,18.39-2.19,34-.84,50.86-6.31C321,514.76,412.07,531.35,426.7,509c41.94,15.66,88.94-1,86-17.78,30.66,7.65,52.55,0,52.18-11.59-7.34,16.37,68.56,24.77,88,9.3,27,11.66,79.38,8.44,57.38-6.77,85.41,21.29,118.71-48,1-28.45Z"/><path class="cls-5" d="M767.15,442.46c11-16.68-90.36-30.91-124.27-10.88-6.92-13-76.49-26.41-95.35-12C571.33,399,441.13,393,435.2,417.56c-39.19-5.41-76.57,5.91-72.21,20.13-38.11-14.39-87.79,10.11-58.08,20.93-75.73-45-154.22,51.85-21.59,17.35.19,19.82,62.84,13.27,85.69,2.11,1.32,1.42-.34,3.54.61,5.14,16.94-2,31.3-.76,46.88-5.66-9,17.44,74.92,32.28,88.4,12.32,38.66,14,82-.92,79.28-15.92,28.25,6.85,48.44,0,48.09-10.36-6.77,14.65,63.17,22.17,81.08,8.32,24.9,10.43,73.16,7.55,52.88-6.06,78.71,19.05,109.4-43,.93-25.46Z"/><path class="cls-6" d="M4739.5,1483.49c-11-.6,5.65,9.37,0,.44,3.19-35.08-10.92-141.46-123.15-109-.3-4.73-1.62-11.91-.69-16.29-42-8.25-152.07,41.82-162.6,62.78-34.09-15.5-91.92-41-118.55-9.3-.37-3.14-1.54-15-1.25-16.28-1.87-2.6-10.65,4.51-11.56,3.52,14.14-30-33.51-36.57-78.1-35.61-60.93,1.31-55.83,31.12-111.88,32.09-4.49,7.48-10.73,10.23-19.26,16.42-25.54-22.68-93.38-20.68-108.83,10.45-.67-16.38-32.3-19-61.63-4.65.6-22.68-17.85-45.65-66-32.66-14.72-22.1-53.58-36.08-91.17-28.14,57.86-20-88-38.85-128.28-14,20.6-2,17.41-4.35,31.33-8.6-73.8-37.39-267-17-192,46.75-11.71,4.88-33.52,15.2-45.32,18.7,3.64-.2,7.3-.32,11-.34-49.74,5.07-106.56-30.72-126.34,8.63-31.27-3.5-56.45.42-74.54,13.14,28.36-31.21-40.84-74-100.1-54.77,44.85-38.76-78.87-59-120.89-25.57-35.35-28.82-118.52-28.65-154.27-1.87-27.6,20.69-.11,44.64-20.1,68.36-34.73-20.41-102-34-135.33-9.28-38.92-23.42-124.42-83.08-172.67-29.19-41-40.43-125.68-27-136,15.8-16.35,6.61-40.45,13.61-58.27,20-54.91-51.54-88.79-8.43-163.09,1.43-9.87-45.86-88.24-46.75-127.68-8.38-.93-33.51-153.44-92.47-199.83-63.69,66.08-34.36-104.28-29.67-141.92-18.38-40.53,12.16-88.08,50.22-81.53,73.92-49.28-8.67-134.33-17.4-136.59,24.2a503.23,503.23,0,0,0-87.77,3.7c46.13-55.13-102.83-45.88-146.86-15,2.06-34.26-100.57-34-110.81-1,21.61-21.9-6.14-36-49.36-35.33-39.47-31.76-74.35-53.85-141.88-36.39-42.31,10.94-127.93,56.47-123.48,82.3-36.41-24.21-89.21-23.73-103.27,6.72-12.4-2.7-3.69-4.28-10-9.21-14.52-2.17-108.24-105.31-152.68-58,11.19-29.85-51.81-37.79-95.85-40.46-68.21-4.13-59.77-.74-100.29,23.14-13.66,8,7.39,21.49-16.74,32-14.19,6.15-45.58-4.33-59.94.48-40.39,13.51-70.54,25.58-67.94,54.62-34.64-36.83-77.15-7.4-86.2,20.67-14.25-6.23-60.5-23.7-43.1-47.5-17,.19-20.72-4.44-40.14-.13-5-25-64.39-24.51-75.8-5.65,5.31-1.65,1.89-4.08,0-7.28-.63,30.1,0,80.15,0,111Z"/><rect class="cls-7" x="0.28" y="1476.56" width="4739.22" height="304.34"/><rect class="cls-8" x="0.28" y="1669.95" width="4739.22" height="159.13"/><path class="cls-9" d="M2135.83,1223.31c-72.44-9.79-155.14,29.42-60.2,39.67-67.78,6.9-136,59.43-30.64,69.22-66.14,32.72,33.82,74.51,83.68,28.11,12.55,55.05,88.43,74.46,121.73,12.73,38.8,34.14,65.05-3.53,67.2-27.06,9,20.41,13,44,35.69,63.23,35.22-1.56,59.33-17.58,77-32.9,54.12,36.07,131.58,16.46,102.64-32.42,58.47,21.42,98.91-22,60.33-46.06,33.17,3.47,192.22,91.44,159.1-.65,119.94,51.64,97.11-82.66-20.73-61.57,8.56-31.51-66.06-39.54-107.9-37.41,6-63.84-253.34-60.86-200.42,25-32.84-13.63-73-4.3-76.53,17.15-1.92-21.11-4.65-47.16-42.83-57.2-38.34-10.1-105,6.44-92.57,31.89-2.88-28.05-105.57-22.77-97.23,12.21,9.71,2.71-18.29-4.39-19.71-5-16.17,10.76.55,12.23,1.65,16.08Z"/><path class="cls-9" d="M2194.39,945.48c-51.54-7.17-110.12,21-42.59,28.5-48.14,4.87-96.37,42.63-21.43,49.87-46.85,23.48,24.4,53.79,59.62,20.41,9.2,39.73,63.23,53.85,86.59,9.38,27.75,24.68,46.22-2.43,47.63-19.41,6.49,14.73,9.47,31.72,25.68,45.65,25-1.07,42.08-12.58,54.55-23.59,38.65,26.09,93.62,12.09,72.8-23.2,41.66,15.54,70.19-15.71,42.65-33.13,23.58,2.56,137.09,66.26,113.09-.19,85.5,37.42,68.6-59.45-15-44.44,5.92-22.71-47.16-28.62-76.9-27.16,4-46-180.37-44.3-142.33,17.7-23.41-9.88-51.89-3.22-54.3,12.23-1.47-15.22-3.55-34-30.73-41.31s-74.61,4.47-65.65,22.84c-2.18-20.24-75.15-16.6-69.05,8.64,6.92,2-13-3.21-14-3.68-11.44,7.72.45,8.82,1.26,11.59Z"/><path class="cls-7" d="M2164.8,922.42c-41.41-2.59-92.19,16.48-37.74,18.76-39.86,4.61-83.15,29.17-22.62,31-40.71,15.86,14.45,31.83,46.66,10.36,3.45,23.81,46.16,30.54,69.82,2.75,20.16,14,38-3.06,40.93-13.41,3.8,8.72,4.5,18.94,16.32,26.85,20.58-1.51,35.7-9.07,47-16.19,28.93,14.52,75.29,4.14,61.88-16.57,32.47,8,59-11.94,38.27-21.57,19,.75,105.29,35.56,92.47-4,66.08,19.8,62.18-38.44-7.75-26.47,7.16-14-35.63-15.77-60.09-13.87,7.94-28.08-142.93-20.74-118.17,15.61-18.12-5.21-42.09-.19-45.65,9.28.35-9.18.59-20.52-20.9-24s-61.45,5.26-56,16.12c.27-12.21-59.75-7.52-57.34,7.6,5.46,1-10.32-1.5-11.1-1.75-10.13,5.08-.53,5.34-.15,7Z"/><path class="cls-9" d="M2750.11,1021.65c49.5-16.43,122.63,4.74,56.91,24.23,51.6-2.63,118.59,30.83,45.13,51.22,58.93,18,0,63.13-51.65,32.31,9,45.17-39.78,69.64-84.39,24.69-17,31.71-48.51,5-57.84-13.42.19,17.27,5,36.41-5.11,54.41-26.15,3-49-6.83-66.89-16.86-27.49,35.08-90.33,28.82-85.4-13.4-35.5,24-79.25-5.6-59.1-29.29-23,6.71-109.73,95.53-116,18.55-70.26,55.3-97.95-53.91-5.22-51.3-16.61-24,35-39.27,66.2-42.6-25.42-49.9,164.31-78.6,154.12-4.18,19.4-14.74,51.69-12.16,61.35,4.42-5.56-17-12.17-37.94,12.3-50.48s78.56-7.48,77.9,14.2c-7.16-22.6,69.32-30.71,74.8-2-6.18,3.31,11.85-5.68,12.68-6.36,15.31,6.58,3.63,9.76,4.1,12.94Z"/><path class="cls-9" d="M2379.85,1044.29c49.49-16.44,122.62,4.74,56.9,24.24,51.61-2.64,118.6,30.83,45.14,51.21,58.92,18,0,63.13-51.64,32.31,9,45.17-39.78,69.64-84.41,24.69-17,31.71-48.5,5-57.83-13.41.18,17.26,5,36.41-5.11,54.4-26.16,3-49-6.82-66.89-16.86-27.49,35.08-90.33,28.82-85.4-13.39-35.49,24-79.24-5.61-59.11-29.31-23,6.73-109.72,95.55-116,18.56-70.26,55.3-97.94-53.91-5.23-51.3-16.61-24,35-39.27,66.2-42.6-25.42-49.9,164.31-78.6,154.12-4.18,19.41-14.74,51.7-12.16,61.35,4.42-5.56-17-12.17-37.94,12.31-50.48s78.57-7.48,77.9,14.2c-7.16-22.6,69.32-30.71,74.79-2-6.18,3.31,11.85-5.68,12.69-6.36,15.31,6.58,3.63,9.76,4.08,12.94Z"/><path class="cls-10" d="M2382.61,1443.27c8.59-18.37-2.95-42.77,15.16-61.2,23.91-24.35,60.37-47.2,93.47-67.76,46.21-28.7,94.07-62.49,146-87.13-32.73,12-55.49,31.16-90.48,40.62-16.81-11.42,13.52-42.16,4.75-57.65-14.22,30.06-27.65,58.32-59.67,83.67-12.2,9.66-25.5,17.13-41.15,25.25-13.38,6.95-25.69,19.17-42,24.26-37.57,11.75-19.78-36.9-15-49.51,7.4-19.66-.15-40.71,1.84-62.64,2.36-26.16,2.72-51.55,25.22-75.4,28-29.67,59.38-59.73,93.18-87.16-26,9.71-43.23,24.15-63.24,37.33-12.86,8.46-32.38,26.9-50.23,30.45-2-8.28,7.37-16.76,8.88-25.15,1.77-9.79,3.63-20,4.59-29.72,1.51-15.24-.07-30.88-2.23-45.87-4.66-32.3-20.33-64.83-20.74-96.87v151.76c0,23.37-5.94,45.25-11.42,67.76-5.2,21.37-5.08,42.49-6.92,63.92-1.26,14.65-3.49,28.91-5,43.3-17-4.05-27.44-21.38-38.59-30.19-17-13.46-38.07-25.52-55.14-39-27.44-21.66-45.2-48.52-59.62-73.16,4.87,44.1,54.32,83.83,84.37,123,17.06,22.25,44.13,33.24,44.14,59.12,0,11.7-.87,22.07-4.64,33.27-.94,2.79-.69,13.5-5.44,15.12-6.33,2.14-31.68-4.8-37.56-6.41-51.43-14.1-106.44-32.84-151.83-52.21-48.64-20.75-54.25-50.37-51-82.42-12.29,19.07-11.81,41.81-13.58,61.77-22.22-3-47.62-8.77-69.42-12.64,26.54,1.88,52.48,19.17,73.76,28.18,23.57,10,46.87,17.7,72.22,25.85,38,12.22,74.37,26,112.94,38.36,16.76,5.38,50.21,19.31,59.08,29.05,9.32,10.25,4.45,21.2,8.6,32.06,7.75,20.26-4.12,36.62-2.34,59,1.74,22.09-5.56,44.36-4,66.22.75,10.15.22,16.21-9.81,25.58-9.12,8.51-30.62,12.78-38.28,20.41-12.78,12.76,12.36,7.37,27.44,6.43,18.12-1.12,52.38-2.23,70.44-1.26,32.74,1.74,65.59,0,97.39-.3-58.4-11.35-75.41-33.45-81.33-66.2-4.12-22.77-6.35-58.14,11.45-78-10.31,5.29-25,5-26.66-4Z"/><path class="cls-7" d="M1994.13,1079.1c-30.87.05-61.54,8-70.12,25.07,16.39,5.84,31.43,5.66,48.45-1.16-10.39,6.61-15.22,16.84-20.33,24.2,20.67,1.05,39.46-4.15,57.13-11.23-9.91,6.29-29.46,20.13-22.56,32.44,26.28-.35,40.14-13.16,48.43-25.83,1.6,4.5,7,9,8.64,12.61,6.7-3.5,14.4-4.29,20.48-9.2-7.27,14.32-2.07,29.52,28.84,22-.06-5.45,5.17-13,4.58-17.41,40,38.57,33.27,21.83,50.39-7.25,4.4,5.13,15.58,9.29,21.27,14.07,24-3,29.82-15.49,25-27.95,11.71,10.64,30.09,19.16,54,17,1.61-5.53,8.89-9.68,9.79-15.25,14.18,8.93,33.36,11.53,53.14,7-10-10.18-4.69-12.84-29.3-14.12,43,18.06,78.2-12.57,27.73-17.39,24.45,3.26,24.53-1.9,37.24-11.9-20.41-6.16-45.27-5.58-69.5-2.93,1.1-.65,11.11-4.77,12.46-5.27-17.83-6.48-41-4.35-60.73,2.26-1.29,1.42-1.14,1.48.48.16,4.62,1.7.5-8.25.15-6.88-.49.11-14.91,3.61-13.46,3.93-6.94-32.11-58-31.23-62.78,2.14a55.48,55.48,0,0,1-5.93-10c-12.94,6.69-20.49,7.73-22.15,21.17-10.15-8.05-27.17-12.24-46.64-12.1-1.36,2.31-4.45,6.12-6.38,9.09-12.64-17.05-50.18-22.11-82.73-17.91.72,9-3,9.67,7.66,16.66,17.51-13.13-24.74-25.7-49.9-19-30.81,8.25-20.62,32.27,15.39,28.54Z"/><path class="cls-7" d="M2438.93,1193.76c-30.37.76-59.06,10-64.25,28.47,17.24,5.88,32,5.34,47.48-2.35-9,7.33-11.79,18.39-15.41,26.39,20.55.66,38.05-5.36,54.09-13.35-8.55,7-25.17,22.26-16,35.28,25.81-1,37-15,42.76-28.8,2.43,4.78,8.62,9.54,10.91,13.32,5.94-3.92,13.35-4.94,18.41-10.33-4.44,15.51,3.58,31.68,32.57,22.89-1.09-5.83,2.61-14,1.19-18.75,46.73,40.4,36.91,22.62,48.22-8.93,5.31,5.4,17.1,9.6,23.63,14.59,23.07-3.77,26.41-17.28,19.31-30.52,13.56,11.13,33.27,19.84,56.4,17,.53-6,6.91-10.57,6.75-16.55,15.64,9.23,35,11.59,53.63,6.22-11.79-10.68-7.06-13.64-31.52-14.45,45.79,18.37,74.58-15.27,24-19.27,24.69,2.92,23.79-2.6,34.41-13.6-21.26-6.14-45.63-4.94-69-1.54,1-.74,10-5.37,11.27-5.95-18.79-6.53-41.17-3.72-59.36,3.83-1,1.55-.84,1.6.5.16,4.87,1.72-1.09-8.87-1.17-7.38-.47.13-14,4.2-12.51,4.5-12.93-34.23-63.06-32.12-61.38,3.75a74.61,74.61,0,0,1-7.75-10.54c-11.46,7.47-18.69,8.76-17.77,23.2-11.53-8.4-29.08-12.49-48.21-11.89-.91,2.5-3.22,6.66-4.56,9.89-15.69-18-53.6-22.54-84.84-17.29,2.42,9.65-1.15,10.43,10.71,17.68,14.75-14.47-29.24-27-52.73-19.17-28.77,9.55-14.16,35.06,20.57,30.22Z"/><path class="cls-7" d="M2457.46,1033.64c-33.16,1.64-65.22,11.5-72.52,29.79,18.25,5.24,34.39,4.28,51.93-3.71-10.42,7.44-14.47,18.35-19.12,26.31,22.32,0,41.93-6.37,60.1-14.68-9.92,7.08-29.38,22.53-20.59,35,28.21-1.73,41.65-15.82,49.13-29.46,2.23,4.61,8.56,9.08,10.7,12.72,6.81-4,15-5.22,21-10.66-6.2,15.31,1.09,30.92,33.44,21.46-.68-5.68,4.09-13.8,3-18.4,47.32,38.19,38.19,21.06,53.31-10.16,5.31,5.12,17.78,8.89,24.43,13.59,25.48-4.36,30.31-17.71,23.75-30.46,13.79,10.5,34.48,18.44,59.93,15,1.11-5.86,8.46-10.56,8.8-16.41,16.23,8.58,37.11,10.31,57.86,4.51-11.89-10.11-6.48-13.15-33.05-13.22,48.26,16.63,82.58-17.16,27.83-19.57,26.63,2.13,26.14-3.26,38.68-14.34-22.62-5.37-49.26-3.49-75,.54,1.11-.75,11.39-5.57,12.79-6.15-19.89-5.84-44.52-2.43-65,5.49-1.24,1.55-1.07,1.6.52.14,5.17,1.54-.38-8.65-.6-7.19-.53.13-15.61,4.53-14,4.79-11.05-33.15-65.83-29.6-67.2,5.48a62.73,62.73,0,0,1-7.5-10.1c-13.14,7.65-21.13,9.13-21.41,23.24-11.81-7.88-30.57-11.38-51.45-10.22-1.21,2.48-4.1,6.63-5.84,9.82-15.5-17.15-56.39-20.49-90.88-14.43,1.78,9.38-2.17,10.25,10.11,17,17.35-14.61-29.47-25.56-55.74-17.22-32.18,10.21-18.53,34.75,19.73,29Z"/><path class="cls-7" d="M2024.46,1272.82c-31.85,1.1-62.22,10.68-68.31,29.35,17.85,5.69,33.35,5,49.81-2.91-9.64,7.45-13,18.6-17,26.69,21.49.42,40-5.83,57.13-14-9.2,7.1-27.13,22.64-18,35.63,27.08-1.29,39.3-15.52,45.8-29.44,2.38,4.79,8.7,9.48,11,13.26,6.35-4,14.16-5.11,19.65-10.58-5.18,15.62,2.65,31.78,33.32,22.62-.95-5.84,3.23-14.12,1.89-18.87,47.56,40.07,37.89,22.32,50.83-9.51,5.38,5.36,17.59,9.44,24.24,14.38,24.31-4.05,28.28-17.68,21.3-30.89a77.3,77.3,0,0,0,58.5,16.41c.76-6,7.6-10.7,7.63-16.71,16.08,9.09,36.29,11.24,56,5.64-12-10.6-6.92-13.63-32.52-14.17,47.34,17.93,78.66-16.21,25.79-19.62,25.76,2.65,25-2.9,36.52-14.08-22.07-5.89-47.63-4.42-72.21-.74,1-.75,10.68-5.51,12-6.09-19.45-6.35-43-3.27-62.31,4.52-1.1,1.57-.94,1.63.52.15,5,1.67-.83-8.89-1-7.4-.5.13-14.81,4.4-13.26,4.69-12.37-34.25-64.94-31.55-64.44,4.47a71.56,71.56,0,0,1-7.75-10.5c-12.26,7.64-19.89,9-19.43,23.51-11.79-8.3-30-12.22-50.09-11.38-1,2.53-3.61,6.73-5.12,10-15.81-17.88-55.38-22-88.28-16.37,2.19,9.66-1.56,10.48,10.61,17.63,16-14.7-29.7-26.76-54.59-18.65-30.45,9.93-16,35.38,20.51,30.12Z"/><path class="cls-9" d="M402.15,1231c-72.44-9.79-155.14,29.43-60.2,39.66-67.78,6.91-136,59.44-30.64,69.24-66.14,32.71,33.82,74.5,83.68,28.1,12.56,55.06,88.43,74.47,121.73,12.73,38.8,34.14,65.05-3.53,67.19-27.07,9,20.42,13,44,35.69,63.23,35.22-1.56,59.33-17.58,77-32.9,54.12,36.07,131.59,16.46,102.64-32.41,58.47,21.41,98.91-22,60.33-46.08,33.17,3.46,192.22,91.45,159.1-.64,119.94,51.62,97.11-82.67-20.73-61.58,8.56-31.51-66.06-39.54-107.9-37.41,6-63.85-253.34-60.86-200.42,25-32.84-13.63-73-4.3-76.53,17.14-1.92-21.11-4.65-47.16-42.83-57.2-38.34-10.1-105,6.44-92.57,31.89-2.88-28.05-105.57-22.77-97.23,12.21,9.71,2.71-18.28-4.39-19.71-5-16.17,10.76.55,12.23,1.65,16.08Z"/><path class="cls-9" d="M460.72,953.13c-51.54-7.18-110.13,21-42.59,28.5-48.14,4.87-96.37,42.63-21.43,49.86-46.85,23.48,24.4,53.79,59.62,20.41,9.2,39.73,63.23,53.85,86.59,9.39,27.75,24.68,46.22-2.44,47.63-19.41,6.49,14.73,9.47,31.72,25.69,45.65,25-1.07,42.08-12.57,54.55-23.59,38.65,26.1,93.62,12.09,72.8-23.2,41.66,15.54,70.19-15.71,42.65-33.13,23.59,2.56,137.08,66.26,113.09-.19,85.5,37.42,68.6-59.45-15-44.44,5.92-22.71-47.16-28.62-76.9-27.16,4-46-180.37-44.3-142.33,17.7-23.41-9.88-51.89-3.22-54.3,12.23-1.48-15.22-3.55-34-30.73-41.31s-74.61,4.47-65.65,22.84c-2.18-20.23-75.15-16.6-69.05,8.64,6.92,2-13-3.2-14-3.67-11.44,7.72.45,8.82,1.26,11.59Z"/><path class="cls-7" d="M431.12,930.08c-41.41-2.6-92.19,16.48-37.75,18.76-39.86,4.6-83.15,29.17-22.62,31-40.71,15.86,14.44,31.83,46.66,10.36,3.45,23.81,46.16,30.54,69.82,2.75,20.16,14,38-3.06,40.93-13.41,3.8,8.72,4.5,18.94,16.32,26.85,20.58-1.51,35.7-9.08,47-16.19,28.93,14.53,75.29,4.14,61.88-16.57,32.48,8,59-11.94,38.27-21.57,19,.75,105.29,35.56,92.47-4,66.08,19.8,62.18-38.44-7.75-26.47,7.16-14-35.63-15.77-60.09-13.87,7.94-28.08-142.93-20.74-118.17,15.61-18.12-5.21-42.09-.19-45.65,9.28.35-9.18.59-20.52-20.9-24s-61.45,5.26-56,16.12c.28-12.21-59.75-7.52-57.34,7.6,5.46,1-10.32-1.5-11.1-1.75-10.13,5.08-.53,5.34-.16,7Z"/><path class="cls-9" d="M1016.43,1029.3c49.51-16.44,122.63,4.74,56.91,24.23,51.6-2.63,118.59,30.83,45.13,51.22,58.93,18,0,63.13-51.65,32.31,9,45.17-39.78,69.64-84.39,24.69-17,31.71-48.51,5-57.83-13.42.19,17.27,5,36.41-5.11,54.41-26.14,3-49-6.83-66.88-16.86-27.49,35.08-90.34,28.82-85.4-13.4-35.5,24-79.25-5.6-59.1-29.3-23,6.71-109.73,95.53-116,18.55-70.26,55.3-97.95-53.91-5.23-51.3-16.61-24,35-39.27,66.2-42.6-25.42-49.9,164.31-78.6,154.12-4.18,19.4-14.74,51.69-12.16,61.35,4.42-5.56-17-12.17-37.94,12.3-50.48s78.56-7.48,77.9,14.2c-7.16-22.6,69.32-30.71,74.8-2-6.18,3.31,11.86-5.68,12.68-6.36,15.31,6.58,3.63,9.76,4.1,12.94Z"/><path class="cls-9" d="M646.18,1051.95c49.49-16.43,122.62,4.74,56.9,24.24,51.61-2.64,118.6,30.83,45.14,51.21,58.92,18,0,63.14-51.64,32.31,9,45.17-39.78,69.64-84.41,24.69-17,31.71-48.5,5-57.83-13.41.19,17.26,5,36.41-5.11,54.4-26.15,3-49-6.82-66.89-16.86-27.49,35.08-90.33,28.83-85.4-13.39-35.49,24-79.24-5.61-59.1-29.31-23,6.73-109.73,95.54-116,18.56-70.26,55.31-97.94-53.91-5.23-51.3-16.61-24,35-39.27,66.2-42.6-25.42-49.9,164.32-78.6,154.12-4.18,19.41-14.74,51.7-12.16,61.35,4.42-5.56-17-12.17-37.94,12.31-50.48,188.08-96.36,79.2-28.33,77.9,14.2-7.16-22.6,69.32-30.71,74.79-2-6.18,3.31,11.85-5.68,12.69-6.36,15.31,6.58,3.62,9.76,4.09,12.94Z"/><path class="cls-10" d="M648.94,1450.92c8.59-18.37-2.95-42.76,15.15-61.2,23.91-24.35,60.37-47.21,93.47-67.77,46.21-28.7,94.07-62.49,146-87.12-32.73,12-55.49,31.15-90.48,40.62-16.81-11.42,13.52-42.17,4.75-57.66-14.22,30.07-27.65,58.33-59.67,83.68-12.2,9.64-25.5,17.13-41.15,25.25-13.38,6.95-25.69,19.17-42,24.25-37.57,11.75-19.78-36.9-15-49.5,7.4-19.66-.15-40.72,1.84-62.65,2.36-26.16,2.72-51.55,25.22-75.4,28-29.67,59.37-59.73,93.18-87.16-26,9.71-43.23,24.15-63.24,37.33-12.86,8.46-32.38,26.9-50.23,30.45-2-8.28,7.37-16.76,8.87-25.15,1.77-9.79,3.63-20,4.59-29.72,1.51-15.24-.07-30.88-2.23-45.87-4.66-32.3-20.33-64.83-20.74-96.87v151.76c0,23.37-5.94,45.25-11.42,67.76-5.2,21.37-5.08,42.49-6.92,63.92-1.26,14.65-3.49,28.9-5,43.3-17-4.05-27.44-21.4-38.58-30.2-17-13.46-38.07-25.52-55.14-39-27.44-21.66-45.2-48.52-59.62-73.16,4.87,44.11,54.32,83.83,84.37,123,17.06,22.27,44.13,33.24,44.14,59.14,0,11.69-.87,22.05-4.64,33.27-.94,2.78-.69,13.5-5.44,15.1-6.33,2.16-31.68-4.79-37.56-6.4C510,1340.84,455,1322.1,409.64,1302.75c-48.64-20.76-54.25-50.38-51-82.43-12.29,19.07-11.81,41.82-13.58,61.77-22.22-3-47.63-8.77-69.41-12.64,26.54,1.88,52.48,19.17,73.76,28.18,23.57,10,46.87,17.72,72.22,25.87,38,12.21,74.37,26,112.94,38.35,16.76,5.38,50.21,19.31,59.08,29.06,9.32,10.25,4.45,21.2,8.6,32.07,7.75,20.26-4.12,36.62-2.34,59,1.74,22.09-5.56,44.36-4,66.22.75,10.15.22,16.21-9.8,25.59-9.13,8.51-30.62,12.78-38.28,20.41-12.78,12.76,12.36,7.37,27.44,6.43,18.12-1.12,52.38-2.23,70.44-1.26,32.73,1.74,65.59,0,97.38-.3-58.4-11.35-75.41-33.46-81.33-66.21-4.12-22.77-6.34-58.13,11.45-78-10.31,5.29-25,5-26.66-4Z"/><path class="cls-7" d="M260.45,1086.75c-30.87.05-61.54,8-70.12,25.07,16.38,5.84,31.43,5.66,48.45-1.16-10.39,6.61-15.22,16.84-20.33,24.2,20.67,1.05,39.46-4.15,57.14-11.23-9.91,6.29-29.46,20.13-22.56,32.44,26.28-.35,40.14-13.16,48.43-25.83,1.6,4.5,7,9,8.64,12.61,6.71-3.5,14.4-4.3,20.49-9.2-7.27,14.32-2.07,29.52,28.83,22-.06-5.45,5.17-13,4.58-17.4,40,38.57,33.27,21.83,50.39-7.25,4.4,5.13,15.58,9.29,21.28,14.07,24-3,29.82-15.49,25-27.95,11.71,10.64,30.09,19.16,54,17,1.61-5.53,8.89-9.68,9.79-15.25,14.18,8.92,33.35,11.53,53.14,7-10-10.18-4.69-12.84-29.29-14.11,43,18.06,78.19-12.58,27.73-17.39,24.45,3.26,24.53-1.9,37.24-11.9-20.41-6.16-45.27-5.58-69.51-2.93,1.1-.65,11.11-4.77,12.46-5.28-17.83-6.48-41-4.34-60.73,2.26-1.29,1.42-1.14,1.47.48.16,4.62,1.7.5-8.26.15-6.88-.49.11-14.91,3.61-13.46,3.93-6.94-32.11-58-31.23-62.78,2.14a55.48,55.48,0,0,1-5.93-10c-12.93,6.69-20.49,7.74-22.15,21.17-10.15-8.05-27.18-12.24-46.64-12.1-1.36,2.31-4.45,6.12-6.38,9.09-12.64-17.05-50.18-22.11-82.73-17.91.72,9-3,9.67,7.66,16.66,17.51-13.13-24.74-25.7-49.9-19-30.81,8.26-20.62,32.28,15.39,28.54Z"/><path class="cls-7" d="M705.25,1201.42c-30.37.76-59.06,10-64.25,28.47,17.24,5.88,32,5.34,47.48-2.35-9,7.32-11.79,18.38-15.41,26.4,20.55.65,38.05-5.36,54.09-13.36-8.55,7-25.17,22.25-16,35.29,25.81-1,37-15,42.76-28.8,2.43,4.79,8.62,9.53,10.91,13.32,5.94-3.9,13.35-4.92,18.41-10.32-4.44,15.51,3.58,31.67,32.57,22.89-1.09-5.84,2.61-14,1.19-18.77,46.73,40.42,36.9,22.64,48.22-8.92,5.31,5.39,17.1,9.59,23.63,14.6,23.07-3.77,26.41-17.29,19.32-30.53,13.56,11.13,33.27,19.84,56.4,17,.53-6,6.92-10.57,6.75-16.55,15.64,9.23,35,11.59,53.62,6.22-11.79-10.67-7.06-13.64-31.52-14.45,45.8,18.37,74.58-15.27,24-19.26,24.69,2.92,23.79-2.6,34.41-13.6-21.27-6.14-45.63-4.94-69-1.54,1-.74,10-5.37,11.27-5.94-18.79-6.53-41.17-3.72-59.36,3.82-1,1.55-.85,1.6.5.16,4.87,1.72-1.09-8.87-1.17-7.37-.47.13-14,4.2-12.51,4.5-12.93-34.23-63.06-32.12-61.38,3.75a74.79,74.79,0,0,1-7.75-10.54c-11.46,7.47-18.69,8.76-17.77,23.2-11.53-8.4-29.08-12.49-48.21-11.89-.91,2.5-3.22,6.66-4.56,9.89-15.69-18-53.6-22.54-84.84-17.29,2.42,9.65-1.15,10.43,10.71,17.68,14.75-14.47-29.24-27-52.73-19.17-28.77,9.55-14.17,35.06,20.57,30.22Z"/><path class="cls-7" d="M723.79,1041.29c-33.16,1.64-65.22,11.5-72.52,29.79,18.25,5.24,34.39,4.28,51.93-3.71-10.42,7.43-14.47,18.35-19.12,26.31,22.32,0,41.93-6.37,60.1-14.68-9.92,7.08-29.38,22.53-20.59,35,28.21-1.72,41.65-15.81,49.13-29.46,2.23,4.61,8.56,9.08,10.7,12.72,6.81-4,15-5.22,21-10.66-6.21,15.31,1.09,30.92,33.44,21.46-.68-5.68,4.09-13.8,3-18.4,47.32,38.19,38.19,21.06,53.31-10.16,5.31,5.12,17.78,8.89,24.43,13.59,25.48-4.36,30.31-17.71,23.75-30.46,13.79,10.5,34.49,18.44,59.93,15,1.11-5.86,8.46-10.56,8.8-16.41,16.23,8.58,37.11,10.32,57.86,4.51-11.89-10.11-6.48-13.15-33.05-13.22,48.26,16.63,82.58-17.16,27.83-19.57,26.63,2.14,26.14-3.26,38.68-14.34-22.62-5.37-49.26-3.49-75,.54,1.11-.75,11.39-5.57,12.79-6.15-19.89-5.84-44.52-2.43-65,5.49q-1.86,2.32.52.14c5.17,1.54-.38-8.65-.6-7.19-.53.14-15.61,4.53-14,4.79C950,983,895.2,986.6,893.84,1021.68a62.75,62.75,0,0,1-7.5-10.1c-13.14,7.65-21.13,9.13-21.41,23.24-11.81-7.88-30.57-11.38-51.45-10.22-1.2,2.48-4.1,6.63-5.84,9.82-15.5-17.15-56.39-20.49-90.88-14.43,1.78,9.38-2.17,10.26,10.11,17,17.35-14.61-29.47-25.56-55.74-17.22-32.18,10.21-18.53,34.75,19.73,29Z"/><path class="cls-7" d="M290.78,1280.46c-31.85,1.12-62.22,10.7-68.31,29.35,17.85,5.71,33.35,5,49.81-2.91-9.64,7.47-13,18.62-17,26.69,21.49.42,40-5.81,57.13-14-9.2,7.1-27.13,22.64-18,35.63,27.08-1.27,39.3-15.52,45.8-29.42,2.38,4.79,8.7,9.48,11,13.25,6.35-4,14.16-5.09,19.65-10.58-5.18,15.64,2.65,31.8,33.32,22.62-.94-5.84,3.23-14.1,1.9-18.86,47.56,40.06,37.89,22.3,50.83-9.53,5.38,5.36,17.59,9.45,24.24,14.38,24.31-4.05,28.28-17.67,21.3-30.88a77.44,77.44,0,0,0,58.51,16.41c.76-6,7.6-10.72,7.63-16.73,16.08,9.11,36.29,11.25,56,5.64-12-10.6-6.92-13.63-32.53-14.15,47.34,17.92,78.66-16.21,25.79-19.64,25.76,2.66,25-2.88,36.52-14.07-22.07-5.91-47.63-4.44-72.21-.73,1-.75,10.69-5.53,12-6.11-19.45-6.34-43-3.25-62.31,4.54-1.11,1.56-.95,1.61.52.15,5,1.67-.83-8.89-1-7.4-.49.13-14.81,4.39-13.26,4.67-12.36-34.25-64.94-31.54-64.44,4.47a69.77,69.77,0,0,1-7.75-10.5c-12.26,7.63-19.89,9-19.42,23.51-11.79-8.29-30-12.21-50.09-11.39-1,2.53-3.61,6.73-5.12,10-15.81-17.88-55.38-22-88.28-16.39,2.19,9.66-1.56,10.5,10.61,17.65,16-14.72-29.7-26.77-54.59-18.67-30.45,9.93-16,35.4,20.51,30.14Z"/><path class="cls-9" d="M4205.41,1086.77c39.48-12.69,84.54,38.15,32.81,51.43,36.93,9,74.1,77.07,16.7,89.76,36,42.42-18.44,96.62-45.61,36.45-6.84,71.41-48.18,96.57-66.33,16.51-21.14,44.27-35.44-4.59-36.62-35.1-4.9,26.48-7.08,57-19.44,82-19.19-2-32.33-22.8-41.94-42.67-29.5,46.77-71.7,21.35-55.93-42-31.86,27.77-53.89-28.54-32.87-59.74-18.07,4.5-104.73,118.59-86.7-.83-65.34,66.94-52.91-107.19,11.3-79.85-4.67-40.87,36-51.28,58.79-48.52-3.27-82.79,138-78.9,109.21,32.43,17.89-17.67,39.77-5.58,41.7,22.24,1-27.36,2.53-61.14,23.33-74.17S4171,1043,4164.26,1076c1.57-36.39,57.52-29.54,53,15.82-5.3,3.52,10-5.7,10.75-6.54,8.81,13.94-.3,15.86-.9,20.85Z"/><path class="cls-9" d="M4173.49,726.5c28.09-9.31,60,27.18,23.21,37,26.24,6.32,52.52,55.28,11.68,64.66,25.54,30.45-13.29,69.74-32.48,26.46-5,51.52-34.45,69.83-47.18,12.18-15.13,32-25.19-3.17-26-25.17-3.54,19.11-5.16,41.14-14,59.2-13.64-1.38-22.93-16.3-29.72-30.6-21.06,33.84-51,15.68-39.68-30.08-22.7,20.15-38.24-20.37-23.24-42.95-12.85,3.31-74.7,85.93-61.62-.26-46.6,48.53-37.39-77.08,8.2-57.62-3.22-29.45,25.69-37.12,41.89-35.22-2.14-59.68,98.28-57.44,77.56,23,12.75-12.82,28.28-4.18,29.59,15.86.8-19.73,1.92-44.09,16.75-53.57s40.65,5.8,35.76,29.62c1.19-26.24,40.95-21.52,37.63,11.21-3.78,2.55,7.1-4.16,7.64-4.76,6.23,10-.24,11.44-.69,15Z"/><path class="cls-7" d="M4189.63,696.61c22.56-3.37,50.23,21.37,20.57,24.32,21.72,6,45.31,37.83,12.33,40.22,22.19,20.56-7.87,41.27-25.43,13.43-1.87,30.88-25.17,39.6-38,3.56-11,18.21-20.74-4-22.3-17.39-2.07,11.32-2.45,24.56-8.89,34.82-11.22-2-19.46-11.76-25.62-21-15.77,18.84-41,5.38-33.71-21.49-17.7,10.4-32.16-15.47-20.86-28-10.37,1-57.38,46.11-50.39-5.16-36,25.68-33.89-49.84,4.22-34.32-3.9-18.15,19.42-20.45,32.75-18-4.32-36.42,77.88-26.9,64.39,20.23,9.88-6.75,22.94-.24,24.87,12-.19-11.92-.31-26.62,11.39-31.17s33.5,6.82,30.52,20.89c-.16-15.83,32.55-9.75,31.24,9.86-3,1.24,5.62-1.95,6-2.27,5.52,6.59.29,6.93.08,9.07Z"/><path class="cls-9" d="M3870.7,825.26c-27-21.31-66.83,6.15-31,31.43-28.11-3.42-64.61,40-24.59,66.42-32.11,23.36,0,81.85,28.14,41.89-4.92,58.56,21.68,90.3,46,32,9.25,41.11,26.43,6.45,31.52-17.4-.11,22.39-2.75,47.21,2.78,70.54,14.25,3.87,26.69-8.85,36.45-21.86,15,45.49,49.22,37.37,46.53-17.38,19.34,31.1,43.18-7.26,32.21-38,12.53,8.72,59.79,123.88,63.21,24.06,38.29,71.71,53.38-69.9,2.86-66.53,9-31.07-19.1-50.92-36.08-55.23,13.85-64.7-89.53-101.91-84-5.42-10.56-19.12-28.17-15.76-33.43,5.73,3-22,6.64-49.2-6.7-65.45s-42.81-9.69-42.45,18.41c3.89-29.3-37.77-39.83-40.76-2.56,3.37,4.29-6.46-7.36-6.92-8.25-8.34,8.54-2,12.65-2.23,16.79Z"/><path class="cls-9" d="M4072.45,854.63c-27-21.32-66.83,6.15-31,31.42-28.12-3.42-64.62,40-24.6,66.42-32.11,23.35,0,81.85,28.14,41.89-4.92,58.57,21.68,90.29,46,32,9.24,41.13,26.42,6.47,31.5-17.39-.1,22.39-2.74,47.22,2.79,70.55,14.25,3.87,26.7-8.85,36.45-21.86,15,45.48,49.22,37.36,46.53-17.38,19.33,31.1,43.17-7.27,32.2-38,12.53,8.72,59.79,123.88,63.22,24.06,38.29,71.71,53.37-69.9,2.85-66.52,9-31.08-19.1-50.93-36.08-55.24,13.86-64.7-89.53-101.91-84-5.42-10.57-19.11-28.18-15.76-33.44,5.73,3-22,6.64-49.2-6.7-65.46s-42.81-9.69-42.45,18.41c3.9-29.29-37.78-39.82-40.75-2.55,3.36,4.29-6.47-7.36-6.92-8.25-8.35,8.54-2,12.66-2.23,16.79Z"/><path class="cls-10" d="M4070.93,1372c-4.68-23.83,1.61-55.46-8.26-79.38-13-31.57-32.89-61.2-50.93-87.86-25.18-37.21-51.26-81-79.55-113,17.83,15.54,30.23,40.4,49.31,52.67,9.15-14.8-7.37-54.66-2.59-74.76,7.75,39,15.08,75.64,32.52,108.51,6.64,12.52,13.9,22.21,22.42,32.74,7.28,9,14,24.86,22.87,31.45,20.46,15.24,10.77-47.86,8.18-64.2-4-25.49.08-52.79-1-81.24-1.29-33.92-1.48-66.83-13.73-97.75-15.26-38.48-32.37-77.45-50.78-113,14.18,12.59,23.56,31.3,34.47,48.4,7,11,17.64,34.88,27.36,39.49,1.12-10.74-4-21.74-4.83-32.62-1-12.68-2-25.94-2.5-38.53-.81-19.76,0-40,1.21-59.48,2.55-41.89,11.08-84.07,11.31-125.62V914.59c0,30.3,3.23,58.67,6.22,87.87,2.84,27.73,2.77,55.1,3.78,82.89.69,19,1.9,37.48,2.72,56.15,9.27-5.26,14.94-27.74,21-39.16,9.28-17.45,20.74-33.09,30-50.56,15-28.08,24.63-62.91,32.48-94.87-2.64,57.19-29.6,108.7-46,159.52-9.3,28.87-24.05,43.1-24.06,76.68,0,15.17.49,28.61,2.54,43.14.5,3.61.37,17.5,3,19.6,3.46,2.79,17.26-6.22,20.47-8.31a518.63,518.63,0,0,0,82.72-67.69c26.51-26.92,29.55-65.33,27.76-106.89,6.7,24.72,6.44,54.22,7.41,80.1,12.11-4,25.95-11.39,37.82-16.4-14.46,2.43-28.6,24.86-40.19,36.55-12.84,12.93-25.53,23-39.35,33.52-20.71,15.85-40.52,33.7-61.53,49.73-9.14,7-27.36,25-32.19,37.68-5.08,13.29-2.43,27.48-4.7,41.58-4.22,26.26,2.25,47.49,1.28,76.54-1,28.65,3,57.56,2.16,85.9-.41,13.14-.12,21,5.34,33.15,5,11,16.68,16.59,20.86,26.49,7,16.55-6.74,9.54-15,8.32-9.88-1.45-28.54-2.87-38.39-1.63-17.83,2.26-35.74,0-53.06-.36,31.82-14.74,41.09-43.37,44.31-85.87,2.24-29.51,3.46-75.37-6.25-101.12,5.63,6.86,13.65,6.53,14.54-5.13Z"/><path class="cls-7" d="M4282.62,899.76c16.82.06,33.53,10.34,38.2,32.5-8.92,7.57-17.11,7.34-26.39-1.49,5.67,8.57,8.29,21.83,11.08,31.37-11.26,1.37-21.5-5.38-31.14-14.57,5.4,8.16,16.06,26.1,12.3,42.07-14.32-.45-21.87-17.07-26.4-33.49-.88,5.83-3.82,11.72-4.7,16.35-3.66-4.54-7.85-5.57-11.16-11.92,4,18.55,1.12,38.28-15.72,28.5,0-7.07-2.8-16.8-2.48-22.57-21.81,50-18.14,28.31-27.47-9.39-2.39,6.65-8.48,12-11.58,18.25-13.09-3.89-16.26-20.1-13.65-36.24-6.39,13.8-16.39,24.85-29.43,22.05-.88-7.18-4.84-12.55-5.34-19.77-7.72,11.57-18.17,15-29,9,5.46-13.19,2.56-16.64,16-18.29-23.46,23.42-42.62-16.31-15.11-22.55-13.33,4.22-13.37-2.47-20.3-15.43,11.13-8,24.67-7.23,37.88-3.79-.6-.85-6.05-6.19-6.79-6.84,9.72-8.4,22.34-5.64,33.1,2.93.7,1.84.63,1.9-.26.21-2.52,2.2-.27-10.72-.08-8.93.28.13,8.13,4.67,7.34,5.09,3.78-41.62,31.6-40.49,34.2,2.79a119.29,119.29,0,0,0,3.24-12.93c7,8.68,11.16,10,12.08,27.46,5.52-10.45,14.81-15.88,25.4-15.7.75,3,2.43,7.95,3.47,11.79,6.9-22.11,27.35-28.67,45.08-23.22-.38,11.7,1.65,12.54-4.18,21.61-9.54-17,13.49-33.33,27.19-24.59,16.79,10.7,11.24,41.85-8.38,37Z"/><path class="cls-7" d="M4040.25,1048.44c16.55,1,32.18,12.92,35,36.92-9.39,7.63-17.44,6.93-25.86-3,4.89,9.49,6.41,23.84,8.39,34.22-11.19.85-20.74-6.95-29.48-17.31,4.65,9.05,13.72,28.85,8.74,45.76-14.07-1.27-20.17-19.49-23.3-37.34-1.33,6.2-4.69,12.36-5.94,17.26-3.23-5.07-7.28-6.39-10-13.39,2.41,20.11-2,41.07-17.75,29.68.59-7.57-1.43-18.16-.65-24.32-25.46,52.4-20.11,29.34-26.27-11.58-2.9,7-9.32,12.44-12.88,18.92-12.57-4.87-14.39-22.42-10.53-39.57-7.38,14.43-18.12,25.73-30.73,22-.29-7.73-3.76-13.7-3.67-21.46-8.52,12-19.08,15-29.22,8.07,6.42-13.85,3.85-17.69,17.18-18.74-25,23.81-40.64-19.81-13.07-25-13.45,3.78-13-3.37-18.75-17.65,11.59-8,24.86-6.41,37.59-2-.52-1-5.46-7-6.14-7.71,10.23-8.46,22.44-4.81,32.33,5q.84,3-.27.21c-2.65,2.22.59-11.5.63-9.58.25.17,7.62,5.46,6.81,5.85,7.05-44.4,34.36-41.65,33.45,4.86a138.51,138.51,0,0,0,4.23-13.67c6.24,9.69,10.18,11.36,9.68,30.09,6.28-10.89,15.85-16.21,26.27-15.42.5,3.25,1.75,8.64,2.48,12.82,8.55-23.32,29.22-29.22,46.22-22.41-1.31,12.51.63,13.53-5.83,22.93-8-18.76,15.93-35,28.73-24.86,15.67,12.38,7.72,45.46-11.2,39.2Z"/><path class="cls-7" d="M4030.16,840.82c18.07,2.13,35.52,14.91,39.5,38.62-9.94,6.8-18.74,5.55-28.28-4.81,5.67,9.64,7.88,23.8,10.41,34.11-12.17,0-22.84-8.27-32.75-19,5.41,9.18,16,29.21,11.21,45.41-15.35-2.23-22.69-20.5-26.76-38.2-1.21,6-4.66,11.78-5.83,16.49-3.72-5.18-8.16-6.76-11.42-13.81,3.37,19.85-.6,40.08-18.23,27.82.38-7.37-2.23-17.89-1.61-23.86-25.78,49.53-20.81,27.32-29-13.18-2.89,6.65-9.7,11.53-13.31,17.63-13.88-5.67-16.52-23-12.94-39.5-7.51,13.62-18.79,23.92-32.66,19.41-.6-7.6-4.6-13.69-4.79-21.28-8.84,11.13-20.23,13.37-31.53,5.85,6.49-13.11,3.53-17.06,18-17.14-26.3,21.56-45-22.26-15.17-25.38-14.51,2.77-14.24-4.22-21.07-18.6,12.33-7,26.84-4.52,40.87.69-.6-1-6.21-7.21-7-8,10.83-7.57,24.25-3.14,35.4,7.13q1,3-.29.18c-2.8,2,.22-11.21.34-9.33.28.18,8.51,5.88,7.64,6.21,6-43,35.87-38.38,36.61,7.11a114.74,114.74,0,0,0,4.09-13.09c7.16,9.92,11.52,11.84,11.67,30.14,6.43-10.22,16.65-14.76,28-13.26.65,3.22,2.23,8.59,3.17,12.73,8.45-22.23,30.74-26.56,49.52-18.7-1,12.16,1.19,13.29-5.5,22-9.45-18.94,16.06-33.14,30.36-22.33,17.54,13.24,10.11,45.06-10.75,37.6Z"/><path class="cls-7" d="M4266.09,1150.94c17.36,1.46,33.91,13.86,37.22,38.06-9.73,7.4-18.18,6.48-27.15-3.77,5.26,9.67,7.07,24.13,9.29,34.61-11.71.54-21.83-7.55-31.14-18.2,5,9.21,14.79,29.36,9.82,46.2-14.75-1.66-21.41-20.13-25-38.15-1.29,6.2-4.74,12.28-6,17.18-3.46-5.17-7.72-6.61-10.71-13.72,2.81,20.27-1.45,41.21-18.16,29.34.51-7.59-1.76-18.29-1-24.46-25.92,51.95-20.65,28.93-27.69-12.35-2.94,6.95-9.59,12.25-13.22,18.66-13.23-5.26-15.4-22.92-11.59-40.06-7.54,14.31-18.62,25.35-31.88,21.28-.42-7.78-4.14-13.88-4.16-21.68-8.77,11.8-19.77,14.58-30.5,7.31,6.53-13.73,3.77-17.66,17.73-18.34-25.8,23.23-42.87-21-14.06-25.46-14,3.44-13.62-3.75-19.89-18.25,12-7.66,25.94-5.74,39.35-1-.56-1-5.83-7.16-6.55-7.92,10.6-8.22,23.43-4.22,34,5.87.61,2,.51,2.1-.29.2-2.74,2.17.45-11.53.53-9.59.27.17,8.07,5.7,7.23,6.06,6.73-44.41,35.39-40.91,35.11,5.8a131.9,131.9,0,0,0,4.22-13.61c6.69,9.9,10.84,11.69,10.59,30.49,6.41-10.77,16.36-15.84,27.28-14.77.57,3.27,2,8.73,2.8,13,8.61-23.2,30.17-28.56,48.11-21.25-1.2,12.53.85,13.61-5.79,22.87-8.69-19.08,16.19-34.7,29.75-24.19,16.59,12.88,8.75,45.89-11.18,39.07Z"/><rect class="cls-11" x="0.28" y="1825.38" width="4739.22" height="59.28"/><rect class="cls-12" x="0.28" y="1888.51" width="4739.22" height="93.92"/><path class="cls-13" d="M1410.05,1537.41c-28.15-24.08-35.81-63.07-39.11-96.07s-12.81-71.67-30.72-102.18c-18.89-32.22-53.31-49.33-90.81-53.26-20.49-2.19-41.48-4.07-41.08,21,.24,16.49,11.86,32.66,21.12,47,38.37,59.27,72.87,120,113.75,176.25,8.72,11.95,18.68,25.43,29.67,35.35,10.14,9.12,34.7,18.07,41.39-.87"/><path class="cls-14" d="M1421.86,1553.45s31.65,34.63,40.5,46.24a78.74,78.74,0,0,1,12.28,24.52s-20.46,18.06-46.28,25.89-45.45,15.15-72.16,30.48-48.67,8.25-48.67,8.25-8.8-10.73-6.26-14.67c7.66-11.7,46-47.11,56.78-57,9.5-8.72,9.93-41.36,9.93-41.36l-13.43-25,50.8-21.06Z"/><path class="cls-15" d="M1297,1670.22l8.61,7.91,8.72,6.31s17.65,1.82,21.12,1.34,11.33-10.91,16.71-13.13,15.27-14.1,21.17-14.62,14.82-2.57,19.4-6.44,16.59-24.49,23.83-24.92,22.35-5.48,25.93-7.73c10.3-6.54,17.46-24.1,17.46-24.1l20.87,13.46-11,25.84s-33,22-40.34,22.2-19.27,5.61-35.32,9.2-49.85,32.47-58.86,31.14-20.56,2-24.18.31c-9.35-4.48-18.2-22.23-18.2-22.23"/><path class="cls-16" d="M1362.74,1570.35s8.11-4.06,11.94-2.73,12.68,9.65,15.08,10,7.6,2.64,11,.59,14.45-8.9,14.28-13.69,5.43-18.14,6.75-18.67,9-.19,9-.19,10.78,23.4,11.92,23.88-1.23,5.71-1.23,5.71-13.87,2.57-15.2,3c-11.48,4.15-16.34,15.21-17.11,16.81s-8.74,16.59-9.68,16.64-10.79-6.47-14.32-6-14.87,20.09-14.87,20.09-3,4.27-18.69,19.42c-14.53,14.09-14.49,12-21.73,14.4L1325,1657l-12.26,6.34s8.56,15.29,11.44,14.71,32.4-13.43,33.4-18.37-9.65-4.12-7.42-5.34,24.29-4.94,27.54-6c37.21-12.13-5.72-14.08-5.6-17s39.65-7.7,39.65-7.7-31.29-5.17-30-5.06,58.38-8.79,58.38-8.79,7.29-3,7.57-5.42c.08-.9-.69-2.41-1.65-6-2-7.79-1.72-9.47-1.72-9.47l1.36-5.38s2-4.52,2.66-3.72,15.1,17.9,15.1,17.9l-25.06,30.78-59.07,33.88s-39.73,23.94-41.82,24.16-27.18-2.64-27.18-2.64l-12.23-13.67,5.92-9,30.43-21.89s12.19-14.57,22.94-27.78,7.19-26,7.19-26-9.67-9.26-10.61-9.86,3.36-4,3.36-4l8.65,6.24Z"/><path class="cls-14" d="M1358.71,1603.86l11.69,6.62s2.43,1.84,1.27,3.32a2.87,2.87,0,0,1-3.12.75l-10.95-6.87s-1.74-1.89-.87-3a2,2,0,0,1,2-.81"/><path class="cls-14" d="M1359.74,1596.32l12.72,3.83s2.75,1.29,2,3a2.67,2.67,0,0,1-2.76,1.46l-12.05-4.26s-2.11-1.47-1.57-2.79a1.89,1.89,0,0,1,1.69-1.28"/><path class="cls-14" d="M1360.85,1589.07l13,1s2.93.64,2.61,2.54a2.66,2.66,0,0,1-2.31,2.11l-12.47-1.58s-2.35-1-2.15-2.44a1.93,1.93,0,0,1,1.32-1.67"/><path class="cls-14" d="M1354.51,1609.54l11.69,6.62s2.43,1.83,1.23,3.32a2.87,2.87,0,0,1-3.12.75l-10.91-6.87s-1.75-1.89-.9-3a2,2,0,0,1,2-.82"/><path class="cls-14" d="M1350,1615.47l11.69,6.63s2.42,1.85,1.22,3.32a2.85,2.85,0,0,1-3.12.76l-10.92-6.86s-1.73-1.9-.91-3a2.06,2.06,0,0,1,2-.84"/><path class="cls-14" d="M1346.07,1621l11.69,6.62s2.42,1.85,1.28,3.34a2.88,2.88,0,0,1-3.14.75l-10.94-6.85s-1.73-1.91-.87-3a2,2,0,0,1,2-.81"/><path class="cls-14" d="M1340.2,1625.94l11.72,6.61s2.39,1.85,1.23,3.33a2.88,2.88,0,0,1-3.13.76l-10.94-6.87s-1.74-1.88-.86-3a1.93,1.93,0,0,1,2-.81"/><path class="cls-14" d="M1334.79,1631.88l11.7,6.61s2.43,1.84,1.23,3.33a2.87,2.87,0,0,1-3.13.76l-10.91-6.87s-1.72-1.9-.9-3a2,2,0,0,1,2-.83"/><path class="cls-14" d="M1328.91,1637.93l11.69,6.63s2.43,1.85,1.23,3.34a2.89,2.89,0,0,1-3.13.74l-10.91-6.85s-1.77-1.91-.9-3a2,2,0,0,1,2-.83"/><path class="cls-14" d="M1322.32,1642.95l11.73,6.63s2.4,1.84,1.23,3.32a2.91,2.91,0,0,1-3.12.77l-10.95-6.87s-1.73-1.88-.86-3a1.94,1.94,0,0,1,2-.83"/><path class="cls-17" d="M1490.53,1636.1c4.94,7.95,1.88,18-6.81,22.54l-114.89,59.53c-8.71,4.51-19.8,1.72-24.74-6.2h0c-4.94-7.94-1.93-18,6.8-22.55l114.89-59.51c8.73-4.51,19.8-1.74,24.74,6.2Z"/><path class="cls-1" d="M1515.8,1810.57c3.17,5.11,0,12.23-7,15.91h0c-7.08,3.69-15.43,2.52-12.11,4.05L1412,1695.26c-9.71-11.75-6.59-18.86.49-22.55h0c7.08-3.68,15.43-2.5,18.6,2.6Z"/><path class="cls-13" d="M1400.65,1213.75c-36.41,8.77-73.18,17.66-108,31.09-35.21,13.55-54.83,28.23-68.87,62.36-9.76,23.82,10.12,72.61,55.57,46.67,16.79-9.6,17.74-10.6,37.91-16.57,16.26-4.81,22.27-4.31,39.48-7.13,35.94-5.92,73-10.28,108.71-11.43,48-1.56,166.76,6.65,173.68-54.17,5.93-52.62-66.82-75-109.62-76.52Z"/><path class="cls-18" d="M1371.11,1219.14c-7.91,15,6.21,46.21,11.6,60.71,5.84,15.72,10.79,34.77,15.23,50.62,17,.45,34.41-4.3,49.7-4.73s30.41-3.51,45.77-4.24c31.58-1.53,60.89-1.61,92-7.18,30.34-5.43,57.1-15.72,67.93-45,5.69-15.35-2.39-30.89-10.57-44.22-10.83-17.69-29.35-32.48-46.76-40.63l-37.46-7.18c-14.57-4.56-39.11,1.42-54.09,4.4-15.52,3.07-29.07,8.82-44.71,11.54Z"/><path class="cls-19" d="M1671,1100.48c3.76,5.59,25.6,36.65,29.8,45,10.34,20.71,17,28.65,23.87,47.29,13.44,36.19,1.21,57.81-24.94,85.17-13,13.6-30.21,29.53-47.88,35.89-21.12,7.57-41.52,6.85-62.53,0-16.88-5.53-38.78-18.15-49.36-32.63-11.32-15.47-14.61-32.73-22.68-49.4-8.14-16.86-13.37-26.87.2-43.87,11.12-13.89,27.06-26.9,41.83-37.09s30.74-20.5,46.77-29.57,36.46-14.62,50.51-25.51Z"/><polygon class="cls-12" points="767.62 1772.73 577.55 1617.57 774.83 1765.16 632.43 1573.07 783.97 1759.49 698.22 1542.53 794.42 1756.07 770.67 1527.87 805.53 1755.13 845.3 1530.04 816.6 1756.72 917.42 1548.87 826.98 1760.73 982.45 1583.2 835.99 1766.92 1036.38 1630.85 843.04 1774.93 1075.73 1688.85 847.68 1784.2 1098.1 1753.54 849.7 1794.17 1102.04 1820.89 848.88 1804.24 1087.35 1886.6 845.3 1813.74 1054.9 1946.6 839.2 1822.1 1006.76 1997.11 830.97 1828.78 945.94 2034.93 821.13 1833.35 876.3 2057.69 810.22 1835.57 802.16 2064 799.07 1835.21 728.18 2053.42 788.24 1832.41 659.06 2026.62 778.49 1827.26 599.13 1985.31 770.38 1820.1 552.13 1932.05 764.49 1811.41 520.99 1870.22 761.12 1801.71 507.74 1803.68 760.53 1791.59 513.17 1736.64 762.77 1781.74 536.92 1673.27 767.62 1772.73"/><path class="cls-17" d="M611.6,1588.63c3.57,3.6,22.18,21.22,21,22.36-100.86,93.44-124.57,243.21-30.42,343.7,96.28,102.74,265.81,114.94,378.6,27.23s126.17-242.12,29.89-344.86c-93.34-99.6-265.32-105.18-377.91-26.11-2.06,1.45-18.24-24.49-21.12-22.32h0c125.59-93.2,316.61-82.52,422.33,30.31,107.28,114.45,92.37,286.45-33.27,384.16s-314.47,84.12-421.74-30.33-92.84-286.39,32.8-384.12Z"/><path class="cls-1" d="M969.12,1302.06c0,2.35-30.71,81-30.71,81l23.25,7.05,31.08-82.67Z"/><polygon class="cls-17" points="1977.1 1719.69 1469.11 1716.11 1469.09 1722.41 1977.06 1726 1977.1 1719.69"/><path class="cls-17" d="M1587.18,1798.41c0,47-41.79,85-93.28,85s-93.31-38.05-93.31-85,41.78-85,93.31-85S1587.18,1751.48,1587.18,1798.41Z"/><polygon class="cls-17" points="2002.04 1790.05 1502.3 1873.08 1503.93 1881.13 2002.92 1794.41 2002.04 1790.05"/><polygon class="cls-12" points="1919.46 1727.83 1698.79 1547.68 1927.87 1719.03 1762.55 1496 1938.44 1712.43 1838.91 1460.54 1950.59 1708.47 1923.05 1443.53 1963.47 1707.37 2009.7 1446.04 1976.36 1709.22 2093.4 1467.9 1988.42 1713.88 2168.93 1507.76 1998.84 1721.08 2231.5 1563.1 2007.02 1730.35 2277.2 1630.43 2012.46 1741.13 2303.17 1705.54 2014.76 1752.71 2307.78 1783.7 2013.82 1764.39 2290.7 1860.04 2009.66 1775.43 2253.02 1929.68 2002.62 1785.12 2197.13 1988.32 1993.04 1792.88 2126.53 2032.22 1981.59 1798.2 2045.64 2058.67 1968.95 1800.74 1959.57 2065.97 1955.97 1800.36 1873.7 2053.7 1943.42 1797.09 1793.46 2022.59 1932.07 1791.11 1723.85 1974.61 1922.68 1782.81 1669.27 1912.8 1915.85 1772.71 1633.15 1841 1911.93 1761.44 1617.77 1763.75 1911.24 1749.71 1624.07 1685.9 1913.83 1738.27 1651.64 1612.32 1919.46 1727.83"/><path class="cls-17" d="M1738.34,1514.08c4.16,4.16,25.77,24.62,24.33,26-117.07,108.49-144.63,282.38-35.33,399,111.82,119.29,308.58,133.43,439.58,31.61s146.5-281.1,34.7-400.4c-108.35-115.62-308-122.09-438.75-30.28-2.39,1.68-21.19-28.43-24.53-25.94l0,0c145.85-108.23,367.58-95.82,490.32,35.19,124.52,132.88,107.24,332.56-38.65,446s-365.09,97.66-489.62-35.22-107.81-332.51,38.08-445.95Z"/><path class="cls-12" d="M2030.57,1761.15c0,31.73-28.23,57.45-63.06,57.45s-63.07-25.72-63.07-57.45,28.25-57.45,63.07-57.45S2030.57,1729.41,2030.57,1761.15Z"/><polygon class="cls-16" points="1579.61 1442.41 945.46 1430.62 945.46 1402.29 1579.61 1414.08 1579.61 1442.41"/><polygon class="cls-16" points="1474.43 1805.84 928.2 1476.24 944.09 1451.91 1486.45 1781.74 1474.43 1805.84"/><polygon class="cls-16" points="1975.78 1767.61 1572.49 1426.51 1588.38 1402.17 1991.66 1743.27 1975.78 1767.61"/><polygon class="cls-16" points="1515.87 1789.42 1482.71 1780.6 1595.38 1386.68 1628.52 1395.49 1515.87 1789.42"/><polygon class="cls-1" points="821.55 1813.6 783.55 1800.78 891.07 1496.6 929.07 1509.43 821.55 1813.6"/><polygon class="cls-16" points="926.92 1508.68 893.95 1499.24 938.29 1370.88 971.26 1380.32 926.92 1508.68"/><polygon class="cls-16" points="2000.03 1769.05 1499.17 1806.85 1496.96 1778.59 1997.81 1740.78 2000.03 1769.05"/><path class="cls-16" d="M1533.79,1800.39c0,17.82-15.85,32.27-35.44,32.27s-35.41-14.45-35.41-32.27,15.85-32.27,35.41-32.27S1533.79,1782.57,1533.79,1800.39Z"/><path class="cls-16" d="M2002.92,1757.2c0,17.39-15.49,31.49-34.54,31.49s-34.58-14.11-34.58-31.49,15.49-31.47,34.58-31.47S2002.92,1739.83,2002.92,1757.2Z"/><path class="cls-12" d="M1158.44,1250.83s-210.84-22-198.25,39.86,254.2,44.21,254.2,44.21l-7.17-19.15s-192.78,14.18-207.47-31c-9.14-28.15,165.9-17.73,165.9-17.73Z"/><rect class="cls-17" x="1078.01" y="1242.15" width="120.93" height="24.71"/><rect class="cls-17" x="1106.78" y="1315.1" width="145.98" height="24.71"/><polygon class="cls-17" points="1618.88 1386.13 1592.82 1378.32 1613.44 1321.3 1639.46 1329.11 1618.88 1386.13"/><path class="cls-1" d="M1503.41,1328.65c4.39,0,195.24,13,195.24,13s32.88-3,28.53-29-14.29-47-46.06-41-172.24,14-182.12,28-16.43,20-9.88,26Z"/><path class="cls-20" d="M1339.48,840c-12.07-.69-20.24,23.17-21.65,30.87-3.71,20.49-5.06,41.65-8.19,62.27-2.34,15.21-6.51,30.27-10.91,45.29-2.88,9.84-8,20.28-7.41,30.16,17.32.26,33,6.36,50.26,7.29,15.28.8,32.32,5,47.62,7.44.75-17.9,5-45,10.43-62.82,4.85-16,6.22-32.75,11.8-48.6,6.59-18.64,21.2-60-17.7-76.39-6.34-2.68-33.75-.13-40.71-.08Z"/><path class="cls-13" d="M1300.38,996.24c-2.84,6.36-9.47,17.85-12,24.24-2.8,7-2.67,15.15-5.61,22-4.73,11-18.68,20.56-26.67,31.28-11.36,15.26-16.09,33-22.9,49.8-5.83,14.6-15.51,29.61-24.82,42.23-10,13.49-20,30.08-33.38,40.34-13.5,10.36-28.56,8.82-43.43,15.06-8.15,3.43-9.68,6.84-15.16,13-3.49,3.91-20.46,9.88-8.6,13.22,7.08,2,14.08-7.4,12.19,4.76-.87,5.6-6.63,11.81-9.1,16.72-2.26,4.5-8,12.76-7.11,18.18,1.56,9.84,10.56,4.6,17.28,4.6,15.23,0,28.08,7.64,43.89,7,18.36-.8,22.76-9.34,28.53-24.85,1.93-5.09,3.78-11.62,7.49-16,5.14-6,10.42-8.28,14-15.07,13.46-25.15,31.85-48,52.65-68.16,21.41-20.8,44.7-44.06,58.59-69.14,3.61-6.57,4.15-13.25,7.56-20,3.63-7.09,9.48-13.57,13.3-20.35a196.33,196.33,0,0,0,10.05-20.37c2.3-5.59,7.2-13.05,7.77-19-12.34-15.29-57.51-27.84-63.35-29.25Z"/><path class="cls-17" d="M1658.55,1919.17c2.69,8.79-3,17.9-12.6,20.37L1518.68,1972c-9.63,2.45-19.62-2.66-22.35-11.45h0c-2.71-8.79,2.92-17.91,12.56-20.37l127.29-32.49c9.68-2.45,19.67,2.67,22.39,11.47Z"/><path class="cls-1" d="M1590.35,1928.15c3.2,5.1,0,12.24-7,15.91h0c-7.08,3.68-15.45,2.52-12.1,4l-84.69-135.27c-9.72-11.74-6.58-18.85.49-22.55h0c7.08-3.66,15.44-2.5,18.62,2.6Z"/><path class="cls-21" d="M1612.95,1813.29c-22.69-28.44-22.15-68.05-18.61-101.05s2.22-72.58-9.05-105.6c-11.93-34.88-42.15-57.57-78.22-67.88-19.66-5.64-39.88-11.1-44.7,13.61-3.13,16.26,4.95,34.12,11.07,49.77,25.44,64.78,46.8,130.34,75.38,192.57,6,13.23,13.09,28.19,21.86,39.8,8,10.7,30.33,23.68,40.75,6.23"/><path class="cls-14" d="M1623.78,1818.3s25.53,42,32.28,55.81a80.64,80.64,0,0,1,7.41,27.9s-25.4,15.14-54.14,18.67-50.91,7.54-82.28,18.74-52.74-.27-52.74-.27-6.88-12.83-3.32-16.49c10.57-10.86,58.53-40.91,72-49.28,11.9-7.4,19.5-41.51,19.5-41.51l-8.55-28.62,57.83-12.81Z"/><path class="cls-15" d="M1467.36,1917.76l7.24,9.84,7.79,8.2s18.06,5.15,21.81,5.27,14.24-9.35,20.37-10.71,19.1-12,25.4-11.43,16.1,0,21.75-3.2,22.71-22.62,30.36-21.76,24.67-1.65,28.86-3.35c12.23-5,23.63-22.06,23.63-22.06l18.86,17.91-17.18,25.07s-39.34,17-47.08,15.85-21.41,2.39-39,3.19-59.35,24.93-68.53,21.89-21.94-1.63-25.32-4.09c-8.81-6.4-14.2-26.59-14.2-26.59"/><path class="cls-16" d="M1558.16,1825.18s9.39-2.76,13.09-.66,11.15,12.4,13.58,13.16,7.42,4.2,11.41,2.65,17.11-6.71,18-11.73,9.68-18,11.16-18.33,9.51,1.46,9.51,1.46,6.12,26.43,7.25,27.17-2.56,5.74-2.56,5.74-15.05.16-16.54.44c-13,2.25-20.49,12.93-21.65,14.49s-12.8,15.77-13.79,15.66-9.87-8.78-13.7-8.9-20,18.33-20,18.33-4.11,3.91-23.83,16.92c-18.32,12.1-17.78,10-25.93,11.12l-4.52-3.74-14.25,4.41s5.64,17.56,8.76,17.5,36.84-8.14,39-13.15-9.18-6.06-6.59-7,26.52-.7,30.17-1.22c41.62-5.93-2.88-15.78-2.14-18.89s43.23-.82,43.23-.82-31.63-11.13-30.25-10.77,63.06,1.47,63.06,1.47,8.28-1.83,9.1-4.3c.28-.92-.21-2.64-.37-6.62-.37-8.52.24-10.22.24-10.22l2.6-5.38s3.1-4.38,3.67-3.43l11.85,21.49-33,27.64-69.27,24.71s-46.9,17.79-49.16,17.66-27.86-7.71-27.86-7.71l-9.79-16.57,8.19-8.33,36.67-17.38s16-13,30.12-24.9,13.27-25.9,13.27-25.9-8.11-11.47-8.95-12.25,4.42-3.57,4.42-3.57l7.66,8.1Z"/><path class="cls-14" d="M1546.56,1859.53l10.82,9.06s2.11,2.39.57,3.72a3.11,3.11,0,0,1-3.45.23l-9.92-9.19s-1.43-2.31-.29-3.32a2.13,2.13,0,0,1,2.28-.5"/><path class="cls-14" d="M1549.31,1851.83l12.47,6.35s2.59,1.82,1.44,3.52a3,3,0,0,1-3.24,1l-11.7-6.66s-1.89-1.93-1-3.21a2.1,2.1,0,0,1,2.06-1"/><path class="cls-14" d="M1552.07,1844.44l13.42,3.43s2.87,1.24,2.14,3.16a2.94,2.94,0,0,1-2.88,1.77l-12.72-3.92s-2.21-1.48-1.68-2.95a2,2,0,0,1,1.73-1.49"/><path class="cls-14" d="M1540.91,1864.72l10.79,9s2.14,2.39.56,3.72a3,3,0,0,1-3.4.22l-10-9.17s-1.39-2.3-.25-3.32a2.11,2.11,0,0,1,2.27-.49"/><path class="cls-14" d="M1534.86,1870.09l10.78,9.08s2.14,2.38.58,3.71a3,3,0,0,1-3.41.23l-10-9.17s-1.4-2.3-.25-3.34a2.18,2.18,0,0,1,2.27-.51"/><path class="cls-14" d="M1529.55,1875.22l10.82,9.06s2.09,2.38.57,3.73a3.1,3.1,0,0,1-3.45.2l-9.92-9.17s-1.44-2.33-.31-3.33a2.13,2.13,0,0,1,2.28-.49"/><path class="cls-14" d="M1522.35,1879.25l10.78,9.08s2.14,2.36.57,3.7a3.09,3.09,0,0,1-3.45.23l-9.91-9.17s-1.41-2.32-.25-3.32a2.13,2.13,0,0,1,2.27-.53"/><path class="cls-14" d="M1515.35,1884.51l10.79,9.07s2.13,2.36.57,3.69a3,3,0,0,1-3.42.23l-10-9.17s-1.39-2.31-.23-3.34a2.12,2.12,0,0,1,2.27-.49"/><path class="cls-14" d="M1507.86,1889.78l10.79,9s2.14,2.38.57,3.72a3,3,0,0,1-3.42.23l-10-9.18s-1.39-2.31-.23-3.33a2.11,2.11,0,0,1,2.26-.49"/><path class="cls-14" d="M1499.88,1893.83l10.81,9.07s2.12,2.37.55,3.72a3.08,3.08,0,0,1-3.42.23l-10-9.2s-1.41-2.3-.25-3.32a2.15,2.15,0,0,1,2.27-.5"/><path class="cls-21" d="M1478.14,1364.19c-13.23,38.73-26.57,77.8-33.69,118-7.2,40.61-3.45,67.72,25.29,101.92,20,23.86,86.12,36.37,86.15-21.34,0-21.33-.49-22.83,5.59-44.94,4.91-17.87,9.28-23,16.92-40.49,16.1-36.48,34.58-73,55.74-106.27,28.4-44.67,112-147.85,49.53-192.33-54-38.46-124.32,13.81-152.89,51.89Z"/><path class="cls-19" d="M1461.7,1404.49c11.52,16.64,54.63,23.36,73.94,27.55,21,4.53,41.58,10.37,61.74,16.28,11.21-15.24,20.34-32.48,29.44-46.64s15.27-29.93,24.12-44.4c18.12-29.73,36.44-56.5,49.85-88.39,13.11-31,18.62-61.88-6.72-90.11-13.29-14.83-35.43-17.21-55.24-18.15-26.21-1.23-54.07,6.37-74,17.15l-31.37,29.61c-14.16,10.43-23,36.54-29.14,52.08-6.38,16.1-8.58,32-15.41,48Z"/><path class="cls-22" d="M1336.12,821.65c-11.18,8.72-1,38.18-1.11,50.39-.22,20.33-5.82,39.8-6.08,60.2-.37,30.44-3.22,48.63,29.38,64.09,25.18,11.93,47.23,15.56,64,37.49,15.42,20.16,24.54,44.46,31.71,68.93,7.82,26.76,13.34,53.76,18,80.83,1.85,10.63,4.74,40.64,14.45,48.26,8.56,6.73,32.9,3.12,43.76,1.86,63.64-7.27,113.3-63.85,155.6-102.22,12.89-11.69,20.4-15,2.05-25.79-13.29-7.8-23.93-13.21-35.66-22.11-21.59-16.34-73-37.26-82.9-61.38-19-46.26-21.85-98.36-46.74-142.69-26.32-46.89-92.41-181.36-158.55-97.2Z"/><path class="cls-21" d="M1216.84,696.22c2.05,4.24,5.79.91,3.13,19.26-.76,5.32-2.65,10.1-4.57,15.1-1.66,4.32-3.33,11,3.72,11.85,5.07.62,10.8-3.31,14,1.65,1.54,2.39.91,4.42.8,7.08-.11,2.83,0,3.19,2.76,4.77,2.21,1.3,4,3.21,6.65,3.71-1.11,1.32-.51,7-.55,8.85,2.13,1.39,6.29.32,7.82,2.5a7.52,7.52,0,0,1,1.6,4.33c.42,5.59-.17,4.77.79,10.5.92,5.5,7,7.21,12.81,7.68,9.67.78,15.25-4,22.81-8.67,20.59-12.67,40.3,2.51,67.36,46.34,2.24,3.63,1,80.22,5.74,80.46,3.79.2,11-47.43,14.31-48.87L1388.12,826c3.94-2.5,9.57-19.62,11.79-23.56,7.95-14.21,28.75-24.88,24-30.11-3.89-4.26-46.69-31.16-50.58-35.46-7.79-8.61-10.29-13.1-13-24-6-24.17,27.27-52.84-1.67-89.43-7.08-9-28.83-19.51-40.17-22.84-8-2.34-32.88-3.06-40.73-1.28-45.34,10.3-102.08,34.73-63.27,94.67Z"/><path class="cls-23" d="M1217.08,687.07a1.14,1.14,0,0,1-.57.09c3.32-2.07,5.72-5.24,9.17-7.29a44.83,44.83,0,0,1,10.24-4.89,49.56,49.56,0,0,1,12.74-2.11c3.73-.06,9.37-.85,12.93.46-8.77,1.33-17.43,1.95-25.67,5.27a46.31,46.31,0,0,0-9.53,5.37c-1.47,1-7.67,7.49-9.31,4.78Z"/><path class="cls-23" d="M1227.77,691.62c-.5-.13-3.14.6-4.75.17,2.58.26,5.3,1.24,7.87.74a7.35,7.35,0,0,0-1.8.66c7.41.18,14.87-1.67,22.19-1.3-3.18,1.85-6.5,3.65-9.79,5.15-3,1.35-6.39,3-7.69,6.06,3.21-2.77,7.19-4.52,10.93-6.62,3-1.66,7.44-3.57,9.57-6.3-1.76-.67-5.39.34-7.5.26a58.4,58.4,0,0,1-8-1c-4.32-.77-8.63-1.61-12.83-2.52.72,1.62,3.31,1.75,4.24,3.52-.77.3-1.51.63-2.27,1-.35-.16.09-.12.19-.29Z"/><path class="cls-24" d="M1232.33,692a8.07,8.07,0,0,0,1.85,5.48c2,2.19,3.16,1.93,5.51.58,3.09-1.81,8.25-4.09,11.65-6.29a66.64,66.64,0,0,0-13.46.08Z"/><path class="cls-18" d="M1236.48,694.73c1.19,2.17,1.35,4.33.35,4.83s-2.8-.85-4-3-1.36-4.32-.36-4.81S1235.26,692.57,1236.48,694.73Z"/><path class="cls-25" d="M1234.24,695.48c.61,1,.83,2,.5,2.14s-1.14-.46-1.75-1.46-.83-2-.49-2.15S1233.63,694.49,1234.24,695.48Z"/><path class="cls-26" d="M1240.39,758.46c-2-.35-6.22-3.57-7.19-5.39,2.5-1.42,3.62-2.44,6.61-2.22,2.79.21,5.55.73,8.36.38a43.36,43.36,0,0,0,16.19-5.2c-3.37,2.52-5.91,7.77-8.2,11-2.62,3.73-6.1,7-9.45,10.21-4.81,4.59-6.71-1.56-3.31-5,2.53-2.54,11.45-5.59,12.14-9.2.09-.5.1-.45.5-.84-2.15.83-13.57,4.54-14.24,5.77a4.69,4.69,0,0,1-1.25.46Z"/><path class="cls-24" d="M1256.21,752.69c-1.52-.44-5.85,1.28-7.79,1.75-1.46.35-5.89,1.13-6.15,2.39-.16.75.77,2.17,1.21,2.67s.11.77,1.07.75a9.62,9.62,0,0,0,1.82-.66c2.24-.73,4.47-1.25,6.25-2.54s4.08-3.11,4.21-5.16Z"/><path class="cls-27" d="M1201,641.2c-11-8.9,9.27-33.89,18.93-40.83,15.71-11.26,33.54-17.37,53-22,37.26-9,80.45-7.29,101.93,24.19,9.93,14.55,17.11,31.3,28,46.22,10.62,14.6,15.48,29.34,8,46.76-7.58,17.58-21.73,37.55-45.1,32.9-7.38-1.48-17.61-6.71-22.92-11.36-8.93-7.83-6-11.4-5.1-21.57s-5.25-33.09-20.37-27.51c-20.09,7.41.34,26.25-6.09,36.88-5.15-10.78-15.7-13.91-25.76-20.72-10.29-7-9.79-15.7-17.21-23.88-7-7.71-17.64-15.87-25.8-22.77-9.47-8-23.91-9.38-33.48-.26Z"/><path class="cls-28" d="M1284.89,613.88c-5.8-1.25-17.78,4.82-23.14,7.75,6.16-1.57,12.47-3.35,18.81-2.65-2.29,2.52-8.38,3.71-11.63,5.6,5.2,0,10.29-3,15.83-2.19-1.91,2.36-7.9,2.66-9,5.38,3.1-.1,8.77-2.62,11.3-1.09-1.63,1.64-4.41,2.26-6,3.94,3,.46,6.28-1.9,9.18-.92-1.54,1.73-4.92,2.37-6.2,4.22,1.07.23,6.81-.91,7.21-.33.72,1-4.54,3.19-5.51,4.26,3.06,1,6.94-1.41,10.25-1.34-.53,1.07-6.5,3.6-5.73,4.59s7.45-.92,9.08-1c-1.1,1.52-6,2.81-5.56,4.76,3.32.17,6.76-1.69,9.81-1.58-1.66,1.84-4.69,2.64-6.59,4.31,2.29,1.42,11.49-2.75,14.19-3.4,3.43-.83,9-1.37,11.77-3.09-2.85-.9-6.94.06-9.47-.93,1.42-1.21,3.7-2,4.6-3.61-1.81-.93-4.6-.12-6.69-.43.88-1.09,8.24-3.61,7.23-5.14s-10.9.06-13-.4c.84-1.61,9-3.66,7.57-5.28-1.62-1.9-11.46.73-14.26-.72,2.1-2.44,7.75-2.64,8.92-5.42-4.26-1-10,1.85-13.91.38,1.41-1.88,5.27-2.24,7.37-3.47-2.73-.68-6,.26-8.9.25,4.5-3,11.89-3.41,17.33-5-2.88-1.53-10,.44-13.31,1.06Z"/><path class="cls-26" d="M1379.28,619.46c-1.3-2.59,6-8,9.16-8.74,4.19-.91,6.87,2,11.38.61,4.86-1.53,6.46-2.49,10,2.13,2.29,3,3.83,7.74,5.08,11.18,2.73,7.41,4,14,.89,21.09-2.16,4.91-5.44,16.62-13.4,11.5-3.14-2-5.2-6.22-6.13-9.56a37.07,37.07,0,0,0-3.79-9.71c-3.91-6.9-8.85-12.59-13.3-18.92"/><path class="cls-27" d="M1407.13,615.86c5.35-7.15,14.59-14.21,23.38-14.7-1.39,2.47-4.05,4.23-5.79,6.63,6.5-2,10.76-4.75,18.59-2.94a53.62,53.62,0,0,1,18.74,8.54,109.4,109.4,0,0,1,17.12,15.37c5.23,5.73,12.86,13.83,16.08,21.19-2.16-.51-4.4-1.24-6.5-.79,1.15,2.25,3.37,3.61,4.92,5.65a45.66,45.66,0,0,1,5.26,9.79c3.45,8.33,3.53,17.76,4.17,26.42.84,11.21,4.64,20.32,12.77,28.17-.92-1-5.45-4.74-6.62-2.62-1,1.79,3.54,6.17,4.63,7.33,6.49,6.9,10.86,7.16,18.31,5.21-5.24,3.66-10.31,6.51-17,6.26,5.8,2.78,11.63,6.17,17.51,8.79,5.25,2.35,9.33,5.49,10.91,12.16-1.89-3.5-8.45-7-11.61-7.08,5.34,8.57,20.7,22,26.79,10.18-4.23,1.39-6.84,5.52-11.78,6.4a32.93,32.93,0,0,1-14.88-.75,95.62,95.62,0,0,1-12.88-4.9c-4.09-1.82-7-5.66-10.6-8.79.53,3.62,3,5.23,4.68,7.9-10.7-2.15-19.43-7-28.56-15.22-7.43-6.69-12.27-13.73-17.71-22.14.53,7.32,2.65,11.24,7,16.68-12.61-1.9-20.84-16.23-24.54-29-1.79-6.11-12.91,11.51-13.29,5.34-.32-5.32,10.44-33.89,9-39.1,1.74,3.88-.89,9.89-1.19,13.7-1.42-5.06-2.32-8.17-1.62-13.16a51.09,51.09,0,0,0,.18-14.64c-1.22-8-5.8-15.85-12-20.06,1.86,3.87,3.91,7.83,3.51,12.24-4-4.67-7.7-9.49-13.24-11.16-3.43-1-4.55-1-7.43-4.06-1.3-1.36-2.34-1.81-3.21-3.66s-.38-3.58-1.65-5.36Z"/><path class="cls-23" d="M1466.53,631.23c1.67-5.47-13.28-12.58-17.93-15,2,3.63,5.07,7.15,7,10.88-1.21-2.74-6.77-4.21-9.91-4.4a16.74,16.74,0,0,1,5.9,5.08c-3.47.51-7.39-2.54-10.45-3.69,1.69,2.15,4.76,3.23,6.35,5.48-3.14-.46-6.38-2.47-9.91-2.61,3.17,3.54,7.95,5.49,10.66,9.56,2.56,3.81,2.68,8.59,5.43,12.26-.93-3-2.53-6.49-2.34-9.47,2.59,1.13,4.06,4.35,5.49,6.62.23-1.7-.31-3.88-.34-5.65,3.09.58,5.14,4.52,6,7.17-.41-1.64-2.33-9,.11-9.58s5,5.42,5.47,7a41.37,41.37,0,0,1-1.62-7.52c4,.92,4.46,6.53,6.63,9.33,1.25-3.19-1.21-6.22-.4-9.4Z"/><path class="cls-23" d="M1470,656.13c2.86,4.06.94,11.47.68,16.08-.34,5.91-1.16,14,.54,20.21-.39-7.68-.42-12.17,3-18.25-.45,6.47,1.63,15.67,3.23,22.39a43.22,43.22,0,0,1,1.34-10.32c2.69,1.26,4.24,11.58,5.3,14.81,2.33,6.91,7.15,15.71,11.71,20.83-1.75-7.8-7-15-6.36-23.41,2.64,2.29,5,8.86,7.4,12.15,2,2.68,5.25,7.51,7.6,8.84-1.19-4.15-4-8.2-5.49-12.39a108.5,108.5,0,0,1-4.49-15.13c-1.47-7.19-1.58-19.37-4.46-25.64.64,5.77.49,14.34-1.4,19.29-3.09-4.56-2.23-11.39-4.51-16.24-1.21,3.39-.2,8.36-1.64,11.18-2.84-5-3.3-10.87-4.74-16.39,0,2.41-.13,4.92-.28,7.3-2.51-2.79-3.52-9.48-5.36-12.87Z"/><path class="cls-29" d="M1388.64,828.41c-13.09-1.74-23.84,27.32-25.94,36.8-5.6,25.2-8.73,51.42-13.75,76.85-3.7,18.75-9.38,37.17-15.31,55.52-3.91,12-10.28,24.63-10.42,37,18.87,1.57,35.4,10.32,54.14,12.72,16.59,2.13,34.78,8.55,51.25,12.74,2.24-22.22,8.93-55.56,16.17-77.37,6.51-19.48,9.35-40.27,16.65-59.57,8.6-22.7,27.7-73-13.43-96.3-6.67-3.78-36.71-2.61-44.25-3.05Z"/><path class="cls-21" d="M1328,1031.39c-2,7-7.37,19.71-9.14,26.66-1.89,7.58-.45,16-2.59,23.48-3.38,12-17,23.7-23.93,35.79-9.87,17.26-12.22,36.21-16.86,54.5-4.07,15.89-12.16,32.65-20.21,46.92-8.69,15.22-17,33.69-29.8,46s-29.49,12.71-44.54,21c-8.32,4.59-9.39,8.3-14.37,15.39-3.12,4.48-20.59,12.82-7.21,14.77,8,1.18,14-9.45,13.92,3.41,0,5.93-5.31,13.12-7.2,18.5-1.73,5-6.67,14.22-4.86,19.75,3.24,10,12.17,3.43,19.46,2.6,16.47-1.91,31.53,4.41,48.53,1.74,19.68-3.11,23.1-12.52,26.93-29.34,1.27-5.52,2.22-12.53,5.6-17.52,4.6-6.83,9.92-9.88,12.81-17.39,10.56-27.75,26.87-53.69,46.18-77.26,19.88-24.25,41.45-51.28,52.49-79,2.88-7.28,2.38-14.26,5.06-21.72,2.76-7.79,8.11-15.26,11.16-22.77a195.54,195.54,0,0,0,7.65-22.38c1.6-6.07,5.72-14.43,5.38-20.69-15.72-14.31-66.51-21.67-73.06-22.41Z"/><path class="cls-13" d="M3465.75,1509.7c-26.67-25.06-33.94-65.65-37.09-100s-12.16-74.64-29.13-106.39c-17.91-33.55-50.54-51.37-86.12-55.48-19.44-2.25-39.37-4.23-39,21.89.25,17.2,11.26,34,20.05,48.93,36.37,61.73,69.08,124.94,107.9,183.53,8.26,12.44,17.73,26.48,28.14,36.8,9.61,9.5,32.9,18.82,39.22-.9"/><path class="cls-14" d="M3477,1526.41s30,36.06,38.43,48.15A85.59,85.59,0,0,1,3527,1600.1s-19.42,18.79-43.91,27-43.08,15.77-68.45,31.74-46.13,8.58-46.13,8.58-8.37-11.17-5.94-15.27c7.26-12.19,43.65-49.06,53.85-59.32,9-9.08,9.4-43.08,9.4-43.08l-12.73-26,48.2-21.94Z"/><path class="cls-15" d="M3358.53,1648l8.15,8.22,8.32,6.58s16.71,1.9,20,1.4,10.75-11.35,15.87-13.68,14.48-14.68,20.08-15.23,14.06-2.67,18.38-6.7,15.73-25.5,22.57-26,21.23-5.7,24.61-8.05c9.76-6.81,16.57-25.09,16.57-25.09l19.78,14-10.38,26.91s-31.31,22.91-38.28,23.11-18.24,5.85-33.48,9.58-47.28,33.82-55.85,32.44-19.49,2.11-22.91.32c-8.85-4.66-17.28-23.14-17.28-23.14"/><path class="cls-30" d="M3420.9,1544s7.69-4.22,11.33-2.83,12,10,14.29,10.36,7.24,2.78,10.45.64,13.72-9.28,13.54-14.26,5.17-18.89,6.41-19.45,8.58-.2,8.58-.2,10.2,24.36,11.32,24.87-1.17,5.95-1.17,5.95-13.14,2.67-14.41,3.17c-10.89,4.34-15.52,15.85-16.25,17.53s-8.29,17.26-9.16,17.32-10.25-6.75-13.62-6.24-14.1,20.93-14.1,20.93-2.88,4.44-17.72,20.22c-13.78,14.68-13.72,12.53-20.63,15l-4.63-2.82-11.65,6.61s8.15,15.92,10.87,15.31,30.72-14,31.67-19.13-9.12-4.27-7-5.56,23-5.13,26.12-6.24c35.28-12.63-5.42-14.67-5.33-17.75s37.62-8,37.62-8-29.67-5.37-28.42-5.27,55.38-9.14,55.38-9.14,6.9-3.15,7.16-5.65c.09-.94-.66-2.5-1.55-6.29-1.87-8.11-1.63-9.86-1.63-9.86l1.27-5.59s1.89-4.71,2.55-3.89,14.33,18.63,14.33,18.63l-23.79,32-56,35.28s-37.72,24.93-39.7,25.17-25.78-2.74-25.78-2.74l-11.59-14.25,5.62-9.37,28.87-22.8s11.57-15.18,21.77-28.93,6.8-27.07,6.8-27.07-9.17-9.64-10.05-10.26,3.2-4.14,3.2-4.14l8.17,6.5Z"/><path class="cls-14" d="M3417.06,1578.9l11.11,6.88s2.29,1.94,1.19,3.47a2.55,2.55,0,0,1-3,.79L3416,1582.9s-1.65-2-.84-3.15a1.76,1.76,0,0,1,1.88-.85"/><path class="cls-14" d="M3418.07,1571.06l12.05,4s2.59,1.32,1.89,3.15a2.51,2.51,0,0,1-2.65,1.53l-11.42-4.44s-2-1.54-1.49-2.91a1.79,1.79,0,0,1,1.62-1.32"/><path class="cls-14" d="M3419.12,1563.5l12.33,1.05s2.76.69,2.45,2.66a2.56,2.56,0,0,1-2.18,2.19l-11.83-1.64s-2.23-1.05-2-2.54a1.84,1.84,0,0,1,1.25-1.72"/><path class="cls-14" d="M3413.08,1584.8l11.1,6.91s2.29,1.91,1.19,3.45a2.55,2.55,0,0,1-3,.8l-10.37-7.15s-1.65-2-.82-3.15a1.76,1.76,0,0,1,1.88-.86"/><path class="cls-14" d="M3408.79,1591l11.1,6.91s2.29,1.92,1.18,3.46a2.55,2.55,0,0,1-3,.79l-10.37-7.14s-1.65-2-.84-3.15a1.79,1.79,0,0,1,1.89-.86"/><path class="cls-14" d="M3405.09,1596.77l11.1,6.89s2.29,1.93,1.19,3.47a2.54,2.54,0,0,1-3,.79l-10.37-7.14s-1.65-2-.84-3.15a1.78,1.78,0,0,1,1.88-.86"/><path class="cls-14" d="M3399.51,1601.88l11.11,6.89s2.29,1.92,1.17,3.47a2.54,2.54,0,0,1-3,.8l-10.37-7.15s-1.66-2-.84-3.14a1.73,1.73,0,0,1,1.88-.86"/><path class="cls-14" d="M3394.38,1608.07l11.09,6.89s2.29,1.93,1.19,3.47a2.54,2.54,0,0,1-3,.78l-10.38-7.14s-1.64-2-.82-3.15a1.76,1.76,0,0,1,1.88-.86"/><path class="cls-14" d="M3388.79,1614.38l11.11,6.9s2.28,1.93,1.18,3.47a2.56,2.56,0,0,1-3,.78l-10.37-7.13s-1.65-2-.84-3.16a1.77,1.77,0,0,1,1.89-.86"/><path class="cls-14" d="M3382.57,1619.6l11.1,6.9s2.29,1.93,1.18,3.47a2.58,2.58,0,0,1-3,.79l-10.37-7.15s-1.65-2-.84-3.15a1.79,1.79,0,0,1,1.89-.86"/><path class="cls-17" d="M3542.11,1612.48a17.21,17.21,0,0,1-6.46,23.46l-109,62a17.21,17.21,0,0,1-23.47-6.46h0a17.2,17.2,0,0,1,6.46-23.47l109-62a17.2,17.2,0,0,1,23.47,6.46Z"/><path class="cls-1" d="M3566.07,1794.14c3,5.33.05,12.73-6.67,16.57h0c-6.71,3.83-14.62,2.63-11.47,4.21l-80.34-140.85c-9.22-12.22-6.23-19.64.5-23.48h0c6.71-3.83,14.62-2.61,17.66,2.71Z"/><path class="cls-13" d="M3456.87,1172.68c-34.58,9.15-69.41,18.39-102.51,32.38-33.39,14.12-52,29.39-65.3,64.93-9.27,24.8,9.58,75.62,52.7,48.6,15.92-10,16.84-11,35.94-17.25,15.43-5,21.15-4.5,37.46-7.44,34.11-6.16,69.21-10.69,103.13-11.89,45.47-1.62,158.19,6.91,164.73-56.41,5.64-54.79-63.39-78.1-104-79.69Z"/><path class="cls-17" d="M3428.82,1178.3c-7.48,15.66,5.89,48.12,11,63.22,5.55,16.38,10.26,36.22,14.48,52.7,16.13.48,32.64-4.47,47.09-4.91s28.86-3.66,43.44-4.43c29.93-1.59,57.73-1.67,87.28-7.48,28.75-5.64,54.15-16.37,64.4-46.79,5.39-16-2.26-32.17-10-46.07-10.27-18.41-27.84-33.8-44.37-42.3l-35.5-7.48c-13.83-4.73-37.12,1.47-51.33,4.59-14.74,3.21-27.57,9.18-42.41,12Z"/><path class="cls-12" d="M3713.25,1054.74c3.54,5.83,24.28,38.15,28.26,46.87,9.83,21.54,16.09,29.83,22.65,49.25,12.75,37.69,1.16,60.2-23.64,88.68-12.34,14.17-28.65,30.76-45.44,37.37-20,7.89-39.4,7.14-59.32,0-16-5.75-36.75-18.88-46.79-34-10.72-16.12-13.86-34.09-21.51-51.45-7.74-17.56-12.72-28,.19-45.67,10.54-14.46,25.65-28,39.66-38.62s29.16-21.37,44.38-30.79c15.06-9.32,34.59-15.23,47.88-26.56Z"/><polygon class="cls-12" points="2856.39 1754.75 2676.11 1593.18 2863.25 1746.87 2728.2 1546.83 2871.9 1740.95 2790.56 1515.04 2881.81 1737.4 2859.32 1499.78 2892.35 1736.4 2930.1 1502.04 2902.88 1738.07 2998.5 1521.63 2912.71 1742.24 3060.2 1557.38 2921.25 1748.7 3111.33 1607 2927.93 1757.02 3148.67 1667.4 2932.36 1766.68 3169.88 1734.77 2934.25 1777.07 3173.63 1804.87 2933.47 1787.56 3159.68 1873.31 2930.09 1797.44 3128.91 1935.79 2924.32 1806.14 3083.23 1988.38 2916.5 1813.09 3025.55 2027.77 2907.14 1817.86 2959.47 2051.48 2896.83 1820.16 2889.16 2058.03 2886.21 1819.81 2819 2047.01 2875.96 1816.87 2753.44 2019.11 2866.7 1811.51 2696.58 1976.09 2859.03 1804.07 2651.99 1920.64 2853.43 1795.01 2622.48 1856.26 2850.25 1784.91 2609.9 1786.97 2849.68 1774.38 2615.04 1717.15 2851.78 1764.12 2637.58 1651.17 2856.39 1754.75"/><path class="cls-17" d="M2708.42,1563c3.39,3.75,21.05,22.09,19.88,23.28-95.66,97.31-118.16,253.26-28.85,357.88,91.34,107,252.11,119.69,359.1,28.35s119.69-252.12,28.36-359.1c-88.52-103.7-251.64-109.5-358.43-27.17-2,1.51-17.31-25.5-20.05-23.25h0c119.13-97.06,300.28-85.92,400.59,31.56,101.74,119.19,87.59,298.27-31.59,400s-298.27,87.6-400-31.58-88.06-298.21,31.12-400Z"/><path class="cls-1" d="M3047.53,1264.64c0,2.45-29.12,84.33-29.12,84.33l22,7.34,29.5-86.07Z"/><polygon class="cls-17" points="4003.64 1699.51 3521.81 1695.79 3521.74 1702.35 4003.58 1706.07 4003.64 1699.51"/><circle class="cls-17" cx="3545.29" cy="1781.49" r="88.5"/><polygon class="cls-17" points="4027.32 1772.77 3553.28 1859.25 3554.82 1867.63 4028.13 1777.3 4027.32 1772.77"/><polygon class="cls-12" points="3948.96 1707.98 3739.65 1520.4 3956.92 1698.82 3800.12 1466.59 3966.96 1691.96 3872.53 1429.67 3978.48 1687.83 3952.35 1411.95 3990.72 1686.68 4034.54 1414.56 4002.94 1688.61 4113.94 1437.34 4014.35 1693.46 4185.59 1478.84 4024.25 1700.96 4244.95 1536.44 4032.02 1710.62 4288.29 1606.57 4037.16 1721.84 4312.92 1684.78 4039.36 1733.9 4317.28 1766.16 4038.46 1746.05 4301.08 1845.64 4034.53 1757.54 4265.36 1918.17 4027.82 1767.65 4212.33 1979.23 4018.75 1775.72 4145.36 2024.95 4007.9 1781.25 4068.65 2052.48 3995.91 1783.92 3987.01 2060.09 3983.59 1783.51 3905.55 2047.29 3971.68 1780.11 3829.44 2014.91 3960.93 1773.88 3763.42 1964.96 3952.03 1765.24 3711.65 1900.58 3945.52 1754.72 3677.4 1825.83 3941.84 1742.98 3662.79 1745.38 3941.18 1730.77 3668.76 1664.32 3943.61 1718.86 3694.93 1587.72 3948.96 1707.98"/><path class="cls-17" d="M3777.16,1485.41c3.93,4.35,24.44,25.64,23.08,27-111.06,113-137.19,294-33.5,415.5,106,124.22,292.71,139,416.93,32.92s139-292.71,32.91-416.94c-102.78-120.39-292.16-127.12-416.15-31.54-2.26,1.76-20.09-29.61-23.27-27h0c138.34-112.69,348.65-99.76,465.09,36.65,118.12,138.38,101.7,346.3-36.67,464.43s-346.3,101.7-464.43-36.66-102.24-346.23,36.14-464.36Z"/><circle class="cls-12" cx="3994.53" cy="1742.68" r="59.83"/><polygon class="cls-19" points="3626.59 1410.8 3025.09 1398.51 3025.09 1369 3626.59 1381.29 3626.59 1410.8"/><polygon class="cls-19" points="3526.85 1789.22 3008.7 1446.03 3023.8 1420.68 3538.25 1764.12 3526.85 1789.22"/><polygon class="cls-19" points="4002.38 1749.41 3619.84 1394.24 3634.92 1368.88 4017.46 1724.06 4002.38 1749.41"/><polygon class="cls-19" points="3566.16 1772.13 3534.7 1762.94 3641.54 1352.75 3673.01 1361.92 3566.16 1772.13"/><polygon class="cls-1" points="2907.56 1797.3 2871.52 1783.94 2973.5 1467.21 3009.53 1480.57 2907.56 1797.3"/><rect class="cls-19" x="2942.85" y="1391.66" width="140.12" height="32.78" transform="translate(765.69 3859.63) rotate(-72.54)"/><polygon class="cls-19" points="4025.4 1750.9 3550.31 1790.27 3548.18 1760.84 4023.27 1721.47 4025.4 1750.9"/><path class="cls-19" d="M3583.13,1783.55a33.6,33.6,0,1,1-33.6-33.6A33.6,33.6,0,0,1,3583.13,1783.55Z"/><ellipse class="cls-19" cx="3995.34" cy="1738.58" rx="32.78" ry="32.77"/><path class="cls-12" d="M3227.1,1211.31s-200-22.95-188,41.5,241.14,46,241.14,46l-6.83-20s-182.84,14.79-196.77-32.23c-8.67-29.3,157.33-18.48,157.33-18.48Z"/><rect class="cls-17" x="3150.82" y="1202.26" width="114.7" height="25.72"/><rect class="cls-17" x="3178.11" y="1278.22" width="138.46" height="25.73"/><polygon class="cls-17" points="3663.84 1352.18 3639.14 1344.05 3658.68 1284.68 3683.38 1292.82 3663.84 1352.18"/><path class="cls-1" d="M3554.32,1292.32c4.16,0,185.2,13.54,185.2,13.54s31.21-3.13,27.05-30.18-13.51-48.9-43.69-42.66-163.37,14.57-172.73,29.14-15.6,20.8-9.36,27Z"/><path class="cls-31" d="M3398.85,783.54c-11.46-.7-19.21,24.13-20.54,32.14-3.51,21.32-4.83,43.37-7.8,64.86-2.19,15.84-6.15,31.5-10.33,47.14-2.73,10.25-7.58,21.11-7,31.42,16.43.26,31.27,6.62,47.66,7.58,14.49.84,30.64,5.18,45.17,7.75.73-18.64,4.75-46.83,9.89-65.42,4.58-16.61,5.91-34.11,11.22-50.6,6.24-19.42,20.09-62.45-16.82-79.55-6-2.79-32-.13-38.59-.08Z"/><path class="cls-13" d="M3361.73,946.19c-2.67,6.64-9,18.6-11.36,25.26-2.64,7.27-2.51,15.76-5.31,22.88-4.48,11.43-17.71,21.43-25.29,32.59-10.79,15.88-15.28,34.33-21.7,51.84-5.56,15.21-14.71,30.84-23.55,44-9.45,14-19,31.32-31.68,42s-27.1,9.19-41.18,15.68c-7.75,3.57-9.19,7.13-14.39,13.55-3.29,4.07-19.41,10.29-8.15,13.75,6.71,2.07,13.34-7.71,11.57,4.95-.83,5.85-6.3,12.32-8.63,17.43-2.15,4.69-7.61,13.28-6.77,18.93,1.51,10.26,10.06,4.79,16.42,4.79,14.45,0,26.62,8,41.63,7.26,17.39-.81,21.56-9.71,27.05-25.86,1.82-5.31,3.57-12.11,7.11-16.64,4.88-6.22,9.85-8.62,13.31-15.7,12.76-26.17,30.19-49.92,49.92-71,20.3-21.65,42.43-45.86,55.57-72,3.44-6.83,3.94-13.79,7.21-20.83,3.4-7.38,9-14.13,12.6-21.2a204.59,204.59,0,0,0,9.52-21.21c2.19-5.81,6.83-13.59,7.38-19.8-11.7-15.92-54.55-29-60.09-30.46Z"/><path class="cls-17" d="M3701.47,1907.22a17.22,17.22,0,0,1-11.92,21.22l-120.73,33.82a17.21,17.21,0,0,1-21.21-11.93h0a17.22,17.22,0,0,1,11.93-21.21l120.72-33.82a17.2,17.2,0,0,1,21.21,11.93Z"/><path class="cls-1" d="M3636.79,1916.58c3,5.32,0,12.74-6.67,16.57h0c-6.72,3.83-14.63,2.63-11.48,4.21l-80.34-140.85c-9.22-12.22-6.23-19.65.5-23.48h0c6.71-3.83,14.62-2.63,17.65,2.7Z"/><path class="cls-32" d="M3427.35,718.83c-20.65-2-41.66,75.46-44.93,105.49-5.57,51.33,14.89,137.5,46.67,176.58,32.76,40.28,67.85,62.49,101.46,101.7,31,36.1,30.76,47.75,30.76,47.75,1.69-.49,33.77-.07,60-22,15.82-13.2,34.48-22.39,53.64-36.5,28.32-20.87,61.45-8.23,44.21-34.74-31-47.63-53.46-114.4-88.77-160.28-31-40.26-52.24-75.93-88.63-112.15-20.59-20.49-80.57-67.22-112.74-65.17Z"/><path class="cls-31" d="M3445.47,771.44c-12.43-1.81-22.61,28.46-24.62,38.32-5.31,26.25-8.28,53.55-13,80-3.51,19.52-8.91,38.7-14.55,57.82-3.7,12.52-9.73,25.63-9.84,38.5,17.86,1.65,33.57,10.75,51.35,13.25,15.7,2.2,33,8.9,48.61,13.25,2.1-23.12,8.46-57.85,15.35-80.57,6.17-20.29,8.82-41.93,15.76-62,8.16-23.63,26.26-76.05-12.73-100.28-6.34-3.93-34.83-2.72-42-3.18Z"/><path class="cls-21" d="M3388,982.82c-1.94,7.24-7,20.51-8.68,27.75-1.81,7.9-.45,16.7-2.44,24.46-3.22,12.46-16.1,24.66-22.69,37.27-9.39,18-11.59,37.69-16,56.75-3.84,16.53-11.5,34-19.17,48.83-8.21,15.87-16.07,35.08-28.24,47.92s-28,13.23-42.28,21.91c-7.86,4.77-8.91,8.65-13.6,16-3,4.67-19.52,13.34-6.86,15.39,7.56,1.21,13.33-9.84,13.22,3.54-.06,6.18-5,13.64-6.83,19.25-1.66,5.17-6.33,14.83-4.61,20.57,3.1,10.42,11.56,3.58,18.44,2.71,15.62-2,29.92,4.59,46.06,1.81,18.69-3.23,21.91-13,25.53-30.54,1.2-5.75,2.13-13.06,5.31-18.24,4.39-7.12,9.42-10.28,12.14-18.1,10.07-28.9,25.5-55.92,43.82-80.46,18.85-25.24,39.3-53.41,49.77-82.29,2.74-7.56,2.28-14.84,4.79-22.6,2.63-8.1,7.7-15.88,10.59-23.7a212.19,212.19,0,0,0,7.27-23.3c1.52-6.33,5.43-15,5.13-21.55-14.93-14.91-63.12-22.57-69.3-23.34Z"/><path class="cls-21" d="M3658.22,1797c-21.5-29.63-21-70.87-17.62-105.23s2.08-75.56-8.61-109.95c-11.3-36.33-40-60-74.16-70.69-18.68-5.86-37.87-11.55-42.41,14.19-3,16.93,4.67,35.51,10.5,51.81,24.12,67.46,44.37,135.71,71.48,200.53,5.76,13.78,12.42,29.34,20.73,41.44,7.64,11.14,28.77,24.68,38.67,6.49"/><path class="cls-14" d="M3668.5,1802.19s24.21,43.77,30.6,58.11a90.84,90.84,0,0,1,7.05,29.06s-24.09,15.78-51.37,19.44-48.28,7.86-78,19.51-50-.26-50-.26-6.55-13.39-3.18-17.19c10-11.31,55.55-42.61,68.28-51.32,11.25-7.7,18.48-43.22,18.48-43.22l-8.13-29.8,54.88-13.34Z"/><path class="cls-15" d="M3520.12,1905.75,3527,1916l7.39,8.54s17.12,5.36,20.68,5.49,13.51-9.75,19.34-11.16,18.11-12.46,24.08-11.91,15.26,0,20.6-3.34,21.58-23.54,28.83-22.65,23.38-1.72,27.38-3.49c11.58-5.18,22.38-23,22.38-23l17.9,18.65-16.28,26.1s-37.35,17.71-44.68,16.51-20.3,2.48-37,3.32-56.29,25.95-65,22.77-20.83-1.69-24-4.25c-8.34-6.66-13.45-27.68-13.45-27.68"/><path class="cls-30" d="M3606.26,1809.37s8.9-2.87,12.42-.69,10.6,12.91,12.9,13.71,7,4.35,10.81,2.75,16.23-7,17-12.21,9.19-18.74,10.61-19.08,9,1.52,9,1.52,5.8,27.55,6.87,28.31-2.43,6-2.43,6-14.29.18-15.71.45c-12.29,2.35-19.43,13.48-20.54,15.09s-12.14,16.42-13.06,16.31-9.39-9.12-13-9.25-19,19.09-19,19.09-3.88,4.06-22.6,17.61c-17.38,12.61-16.89,10.37-24.61,11.57l-4.29-3.88-13.52,4.6s5.33,18.29,8.3,18.21,35-8.48,37-13.69-8.69-6.3-6.22-7.24,25.13-.73,28.59-1.27c39.47-6.17-2.74-16.45-2-19.67s41-.86,41-.86-30-11.59-28.72-11.2S3675,1867,3675,1867s7.86-1.9,8.63-4.48c.29-1-.2-2.75-.37-6.89-.34-8.87.27-10.65.27-10.65l2.46-5.62s2.91-4.55,3.45-3.55,11.25,22.36,11.25,22.36L3669.35,1887l-65.74,25.73s-44.46,18.54-46.6,18.38-26.44-8-26.44-8l-9.29-17.24,7.75-8.69,34.79-18.1s15.16-13.57,28.59-25.92,12.56-27,12.56-27-7.68-11.94-8.47-12.75,4.18-3.72,4.18-3.72l7.27,8.45Z"/><path class="cls-14" d="M3595.25,1845.12l10.25,9.44s2,2.48.55,3.87a2.72,2.72,0,0,1-3.26.24l-9.42-9.57s-1.34-2.4-.25-3.47a1.89,1.89,0,0,1,2.15-.52"/><path class="cls-14" d="M3597.87,1837.11l11.81,6.61s2.45,1.89,1.36,3.67a2.67,2.67,0,0,1-3.07,1.07l-11.08-6.93s-1.8-2-1-3.33a1.92,1.92,0,0,1,2-1.09"/><path class="cls-14" d="M3600.48,1829.41l12.71,3.58s2.75,1.27,2,3.28a2.71,2.71,0,0,1-2.73,1.83l-12-4.09s-2.12-1.53-1.6-3.05,1.64-1.56,1.64-1.56"/><path class="cls-14" d="M3589.89,1850.51l10.25,9.44s2,2.47.53,3.87a2.7,2.7,0,0,1-3.25.23l-9.43-9.55s-1.33-2.4-.24-3.47a1.9,1.9,0,0,1,2.15-.52"/><path class="cls-14" d="M3584.16,1856.13l10.24,9.45s2,2.47.55,3.86a2.7,2.7,0,0,1-3.26.23l-9.42-9.55s-1.33-2.39-.25-3.47a1.91,1.91,0,0,1,2.15-.52"/><path class="cls-14" d="M3579.13,1861.45l10.25,9.44s2,2.46.55,3.87a2.73,2.73,0,0,1-3.27.23l-9.42-9.56s-1.35-2.41-.25-3.46a1.87,1.87,0,0,1,2.15-.52"/><path class="cls-14" d="M3572.28,1865.67l10.23,9.44s2,2.47.55,3.86a2.69,2.69,0,0,1-3.26.24l-9.43-9.56s-1.32-2.39-.23-3.46a1.86,1.86,0,0,1,2.14-.53"/><path class="cls-14" d="M3565.65,1871.13l10.24,9.44s2,2.47.54,3.86a2.7,2.7,0,0,1-3.26.23l-9.42-9.55s-1.33-2.39-.25-3.47a1.89,1.89,0,0,1,2.14-.51"/><path class="cls-14" d="M3558.53,1876.62l10.25,9.44s2,2.48.55,3.88a2.72,2.72,0,0,1-3.27.22l-9.43-9.54s-1.33-2.41-.25-3.48a1.89,1.89,0,0,1,2.15-.51"/><path class="cls-14" d="M3551,1880.84l10.25,9.45s2,2.46.54,3.87a2.74,2.74,0,0,1-3.26.24l-9.43-9.58s-1.33-2.39-.23-3.46a1.88,1.88,0,0,1,2.14-.52"/><path class="cls-33" d="M3260,638.56l9.1,27.89,7.91,7.75L3265.55,720l18.94-3.35s.28,14.25,2,13.57,8.4.76,8.4.76l2.23,6.63-2.59,4.94,2.45,4.77,6,.15,5.75,26.93,12,3.53,37.72-22.35,45.63,39.37,40.52-62.69-14.73-20.4L3407.18,646l-60.06-29.67s-62.48-1.69-64.23-1-27.21,10.86-27.21,10.86Z"/><path class="cls-34" d="M3285.81,673.61a9.53,9.53,0,0,1,5.35-2c3,0,17.57,3.5,17.57,3.5l-10.36,6-8.2,2.17s16-7.21,13.91-7.57c-3.51-.62-6.84.88-20.17-.45Z"/><path class="cls-24" d="M3289.27,675.33a18.78,18.78,0,0,1,4.54-.27c1.82.23,11.22,1.14,11.22,1.14a38.41,38.41,0,0,1-5.49,2.7c-2.49.91-6.74,2.18-6.74,2.18a5,5,0,0,0,.5-3.38c-.49-1.57-4-2.37-4-2.37"/><path class="cls-35" d="M3289.25,674.34s3.43.54,4.22,3.21c.36,1.25-.65,4.51-.65,4.51a8,8,0,0,1-3-3,7.71,7.71,0,0,1-.6-4.74"/><path class="cls-24" d="M3295.59,732.51s14.7-1.32,24.14-5c.57-.22-2.65,3.78-6.23,5.53a126.45,126.45,0,0,1-15.36,6.19Z"/><path class="cls-36" d="M3295.59,732.51s14.7-1.32,24.14-5c.57-.22-2.65,3.78-6.23,5.53a126.45,126.45,0,0,1-15.36,6.19Z"/><path class="cls-34" d="M3278.58,667.67a8.65,8.65,0,0,1,1-.9c1.3-1,6.56-4.36,10.51-5.08,6.08-1.12,13,1.31,13,1.31s-11-.17-15.11,1.91-11.21,6.75-11.21,6.75l-1.88-3.19"/><path class="cls-37" d="M3294.28,626.29s-11.73,2.32-20,2.56-5.81,10.78-19.46,7.87-32.49-3.08-36.64-13.9,6.66-34.43,6.66-34.43l-2,14.72,15-19.11L3249,569.8s10.9-5.52,17.53-10,19.75-7.69,18.26-7.5-10.38,8.56-11.82,10.29,29.07-15.08,35-16.35,17.86-2.29,20.37-2.6-4.86,2.68-14.54,5a47.17,47.17,0,0,0-16.23,7.23s44.21-13.41,54.89-12.18,43.07,7.91,49.57,11.21-14.21,1.31-20-.54-15.09-1.17-15.09-1.17,41.18,6.09,52.57,12.9c6.93,4.14,13,13,17,20.05a61.94,61.94,0,0,1,4.55,9.73c1,3.49-22.13-17.31-22.13-17.31s15.95,16.55,19.84,25.35,7.39,31.6,7.39,31.6l5.07,13.81-7.69-12.44s3.2,12,3.33,13,1.67,4.44-.6,8.34-4.75,10.42-4.36,13.47-2.89-5.31-2.89-5.31l-5.31,10.49s4,9.59,1.67,13.06-4,12.77-3.83,14.29S3434,717.6,3434,717.6s0-4.13-6.3-5.91-7.47,1-7.47,1-8.65-1.15-14.53-5.07-29.81-20.25-29.81-20.25,15.29-16.09,2.48-28.2c-8.19-7.74-11.57-8.05-17.94-1.56s-10.27,25.82-10.27,25.82l-6.37,3.92s-3.59-16.59-5.94-25.58-23-9.67-29.86-15.91-13.66-19.54-13.66-19.54"/><path class="cls-38" d="M3257.86,615.71s18.58-23.4,26.16-29,20.68-11.42,28.36-11.89-5.09-.9-15.48,8.7-18.06,18.83-18.43,20.43,32-7.4,38.39-12.76,6.5-8.48,22.41-9.48,10.55-3.42-3.66,4.08-19.94,10.3-25.61,13.6,17.89,1.33,34-2.79a146.28,146.28,0,0,1,31.84-4,82.33,82.33,0,0,1,12,.46c7.89,1-19.31,4.75-35.72,10.61s10.64,9.64,17.24,9.31,22.64-.32,32.14,4.66c6.65,3.5,11.2,5.48,14.33,8.18a14.34,14.34,0,0,1,3.27,4c2.9,5.31-46.79-11.06-50.12-11.14s34.54,14.69,37,16.44,10,13.69,12.21,17.55-4.54-5.11-10.5-8.47-10.55-9-17.89-10.1c-3.64-.56,1.28,9,11.64,13.91,7,3.33,18,16.61,18.63,19.4,1.26,5.52,5.43,21,5,22s-2-15.83-9.51-22.46c-13.73-12.19-11.51-7.82-9.84-3.38s5,17.29,4.29,20.54-9.32-12.84-7.78-17.52c1.07-3.27.18-7.25-7-11.5s-2.59,1.37-.85,6.31,3.66,24.24,3.66,24.24-3.59-10.82-6.14-17.72-.51-8.2-5-13.3-13.19-12.26-18.29-13.16-14.1,2.31-14.1,2.31l-.38,11s-13-10.8-14.91-11.07,15.38,18,12.63,16.14-19.16-17.88-23.17-18.91,9.56-4.89,9.56-4.89l-24.65-9.19,17.58-1.74-23.78-7.8s2.61-5.5,11.45-5.6-9-1.22-17.89-1.48-10-4.25-10-4.25l-20,8.09,3.25-4.92Z"/><path class="cls-21" d="M3530.36,1329.34c-12.56,40.33-25.2,81-32,122.91-6.83,42.28-3.26,70.5,24,106.12,19,24.86,81.68,37.88,81.71-22.23,0-22.2-.46-23.78,5.31-46.78,4.68-18.6,8.79-24,16.08-42.17,15.25-38,32.77-76,52.86-110.65,26.93-46.51,106.25-154,47-200.25-51.28-40.06-118,14.38-145,54Z"/><path class="cls-12" d="M3514.76,1371.31c11,17.32,51.85,24.33,70.16,28.68,19.88,4.74,39.41,10.83,58.54,16.95,10.61-15.85,19.31-33.81,27.95-48.56s14.46-31.16,22.84-46.25c17.21-31,34.58-58.81,47.33-92,12.41-32.32,17.63-64.46-6.39-93.82-12.62-15.45-33.59-17.94-52.39-18.91-24.87-1.28-51.3,6.62-70.18,17.84l-29.79,30.85c-13.42,10.85-21.83,38.05-27.64,54.23-6,16.76-8.11,33.37-14.59,50Z"/></svg>