<svg height="512pt" viewBox="-42 0 512 512.001" width="512pt" xmlns="http://www.w3.org/2000/svg"><path d="m359.320312 81.460938c-.820312-11.394532-1.617187-22.183594-2.195312-29.300782-.398438-4.9375-1.578125-9.773437-3.546875-14.316406-.050781-.109375-.097656-.222656-.144531-.332031-7.914063-18.425781-26.011719-30.390625-46.0625-30.390625-20.050782 0-38.148438 11.964844-46.0625 30.390625-.046875.109375-.09375.222656-.144532.335937-1.96875 4.546875-3.148437 9.394532-3.546874 14.332032-.585938 7.191406-1.394532 18.109374-2.21875 29.617187-1.941407 26.980469-13.609376 52.527344-33.390626 70.984375-21.382812 19.949219-34.734374 48.390625-34.660156 79.960938.039063 18.683593 15.539063 33.96875 34.222656 33.96875h33.625c2.648438 0 5.207032 1.054687 7.023438 2.984374 11.285156 11.960938 27.285156 19.484376 45.152344 19.484376 17.867187 0 33.871094-7.523438 45.15625-19.492188 1.816406-1.925781 4.375-2.984375 7.023437-2.984375 10 .003906 33.621094.007813 33.621094.007813 18.851563 0 34.203125-15.25 34.222656-34.097657.035157-31.445312-13.242187-59.773437-34.507812-79.691406-19.871094-18.609375-31.609375-44.308594-33.566407-71.460937zm0 0" fill="#ffab91"/><path d="m392.886719 152.921875c-19.871094-18.609375-31.609375-44.308594-33.566407-71.460937-.820312-11.394532-1.617187-22.183594-2.195312-29.300782-.398438-4.9375-1.578125-9.773437-3.546875-14.316406-.050781-.109375-.097656-.222656-.144531-.332031-7.910156-18.414063-25.992188-30.375-46.027344-30.386719 2.378906 3.164062 4.417969 6.640625 6.027344 10.386719.046875.109375.09375.222656.144531.332031 1.96875 4.542969 3.144531 9.382812 3.546875 14.316406.578125 7.117188 1.375 17.90625 2.195312 29.300782 1.957032 27.152343 13.695313 52.851562 33.566407 71.460937.597656.5625 1.191406 1.128906 1.777343 1.703125 41.78125 40.925781 12.003907 112.085938-46.488281 112.085938h-117.730469c5.429688 11.761718 17.414063 20 31.125 20h33.625c2.648438 0 5.207032 1.054687 7.027344 2.980468 11.28125 11.964844 27.28125 19.488282 45.148438 19.488282 17.871094 0 33.871094-7.527344 45.15625-19.492188 1.820312-1.929688 4.375-2.984375 7.027344-2.984375 9.996093.003906 33.621093.007813 33.621093.007813 18.847657 0 34.199219-15.25 34.222657-34.097657.03125-31.445312-13.246094-59.773437-34.511719-79.691406zm0 0" fill="#ff7043"/><path d="m105.449219 127.558594-8.859375-54.847656c-1.542969-9.535157-9.667969-16.453126-19.328125-16.453126-9.660157 0-17.785157 6.917969-19.328125 16.453126l-8.859375 54.847656zm0 0" fill="#ffa726"/><path d="m96.589844 72.710938c-1.542969-9.535157-9.667969-16.453126-19.328125-16.453126-.953125 0-1.886719.085938-2.800781.214844 1.027343 1.898438 1.765624 3.992188 2.128906 6.238282l5.949218 36.839843c1.527344 9.441407-5.761718 18.003907-15.328124 18.003907h-16.519532l-1.617187 10h56.375zm0 0" fill="#f57c00"/><g fill="#b0bec5"><path d="m77.261719 45.835938c-4.144531 0-7.5-3.359376-7.5-7.5v-30.835938c0-4.144531 3.355469-7.5 7.5-7.5s7.5 3.355469 7.5 7.5v30.835938c0 4.140624-3.359375 7.5-7.5 7.5zm0 0"/><path d="m45.757812 58.882812c-1.917968 0-3.839843-.730468-5.304687-2.195312l-21.800781-21.800781c-2.929688-2.933594-2.929688-7.679688 0-10.609375 2.929687-2.925782 7.675781-2.925782 10.605468 0l21.800782 21.800781c2.929687 2.933594 2.929687 7.679687 0 10.609375-1.464844 1.464844-3.382813 2.195312-5.300782 2.195312zm0 0"/><path d="m108.765625 58.882812c-1.917969 0-3.839844-.730468-5.304687-2.195312-2.929688-2.929688-2.929688-7.675781 0-10.605469l21.804687-21.804687c2.929687-2.925782 7.675781-2.925782 10.605469 0 2.929687 2.929687 2.929687 7.679687 0 10.609375l-21.800782 21.800781c-1.464843 1.464844-3.386718 2.195312-5.304687 2.195312zm0 0"/><path d="m117.601562 251.210938-7.0625-16.371094h-66.554687l-7.0625 16.371094c-2.472656 5.730468-7.519531 9.945312-13.601563 11.359374-13.65625 3.175782-23.320312 15.34375-23.320312 29.363282v196.160156c0 13.203125 10.703125 23.90625 23.910156 23.90625h106.703125c13.207031 0 23.910157-10.703125 23.910157-23.90625v-196.160156c0-14.019532-9.664063-26.1875-23.320313-29.363282-6.082031-1.414062-11.128906-5.628906-13.601563-11.359374zm0 0"/></g><path d="m131.203125 262.570312c-5.28125 0-10.054687-3.136718-12.144531-7.984374l-8.519532-19.746094h-30.878906c2.753906 3.855468 6.835938 6.636718 11.542969 7.730468 13.65625 3.175782 23.320313 15.34375 23.320313 29.363282v207.511718c0 6.933594-5.621094 12.554688-12.554688 12.554688h-101.644531c1.867187 11.34375 11.710937 20 23.585937 20h106.703125c13.203125 0 23.910157-10.703125 23.910157-23.910156v-196.15625c0-14.019532-9.664063-26.1875-23.320313-29.363282zm0 0" fill="#78909c"/><path d="m121.628906 234.839844h-88.734375c-1.386719 0-2.511719-1.125-2.511719-2.511719v-34.601563c0-1.386718 1.125-2.511718 2.511719-2.511718h88.734375c1.386719 0 2.511719 1.125 2.511719 2.511718v34.601563c-.003906 1.386719-1.125 2.511719-2.511719 2.511719zm0 0" fill="#cfd8dc"/><path d="m117.402344 165.5h-80.28125c-1.84375 0-3.335938-1.492188-3.335938-3.335938v-30.519531h86.953125v30.519531c0 1.84375-1.492187 3.335938-3.335937 3.335938zm0 0" fill="#cfd8dc"/><path d="m121.628906 195.21875h-27.492187v10.785156c0 7.640625-6.191407 13.835938-13.835938 13.835938h-49.917969v12.488281c0 1.386719 1.125 2.511719 2.511719 2.511719h88.734375c1.386719 0 2.511719-1.125 2.511719-2.511719v-34.601563c-.003906-1.386718-1.125-2.507812-2.511719-2.507812zm0 0" fill="#90a4ae"/><path d="m90.738281 131.644531v4.191407c0 8.097656-6.5625 14.664062-14.660156 14.664062h-42.292969v11.664062c0 1.84375 1.492188 3.335938 3.335938 3.335938h80.28125c1.84375 0 3.335937-1.492188 3.335937-3.335938v-30.519531zm0 0" fill="#90a4ae"/><path d="m46.300781 165.5h61.921875v29.71875h-61.921875zm0 0" fill="#b0bec5"/><path d="m88.222656 165.5v5.84375c0 7.664062-6.210937 13.871094-13.871094 13.871094h-28.050781v10h61.921875v-29.714844zm0 0" fill="#78909c"/><path d="m0 291.933594h154.523438v187.421875h-154.523438zm0 0" fill="#ffa726"/><path d="m114.523438 291.933594h40v187.421875h-40zm0 0" fill="#fb8c00"/><path d="m154.523438 363.152344v-71.21875h-154.523438v71.21875l77.261719 44.261718zm0 0" fill="#42a5f5"/><path d="m114.523438 291.933594v94.132812l40-22.914062v-71.21875zm0 0" fill="#1976d2"/><path d="m101.007812 346.675781c0 13.113281-10.632812 23.746094-23.746093 23.746094s-23.746094-10.632813-23.746094-23.746094c0-13.117187 10.632813-23.746093 23.746094-23.746093s23.746093 10.628906 23.746093 23.746093zm0 0" fill="#eceff1"/><path d="m77.261719 322.929688c-.210938 0-.421875.007812-.632813.015624 2.753906 3.875 4.378906 8.609376 4.378906 13.726563 0 12.902344-10.292968 23.394531-23.113281 23.730469 4.300781 6.058594 11.371094 10.015625 19.367188 10.015625 13.113281 0 23.746093-10.628907 23.746093-23.746094 0-13.113281-10.632812-23.742187-23.746093-23.742187zm0 0" fill="#b0bec5"/><path d="m123.6875 139.144531h-92.851562c-4.144532 0-7.5-3.355469-7.5-7.5 0-4.140625 3.355468-7.5 7.5-7.5h92.851562c4.144531 0 7.5 3.359375 7.5 7.5 0 4.144531-3.355469 7.5-7.5 7.5zm0 0" fill="#b0bec5"/></svg>