<?xml version="1.0" encoding="iso-8859-1"?>
<!-- Generator: Adobe Illustrator 19.0.0, SVG Export Plug-In . SVG Version: 6.00 Build 0)  -->
<svg version="1.1" id="Capa_1" xmlns="http://www.w3.org/2000/svg" xmlns:xlink="http://www.w3.org/1999/xlink" x="0px" y="0px"
	 viewBox="0 0 512.001 512.001" style="enable-background:new 0 0 512.001 512.001;" xml:space="preserve">
<path style="fill:#EC615B;" d="M511.702,214.058c0-18.571-9.585-35.345-25.461-44.63c-16.174-9.285-37.342-9.285-53.515,0
	c-10.783,6.291-23.365,11.083-35.644,13.779c-39.538,8.986-67.095,43.731-67.095,84.168l0.3,78.477
	c0,8.386-6.89,14.977-14.977,14.977c-8.388,0-14.977-6.591-14.977-14.977v-59.906c-0.299-24.862-20.37-44.93-44.93-44.93h-0.3
	c-24.562,0-44.93,20.068-44.63,44.93v59.906c0,8.386-6.89,14.977-14.977,14.977c-8.987,0-14.977-7.488-14.977-18.271v-61.706
	c-0.6-46.127-32.35-85.966-77.28-96.748c-12.282-2.994-22.764-9.585-30.553-18.571c-11.083-13.179-29.553-17.971-45.429-11.982
	C10.483,159.542,0,176.016,0,196.086l0.3,239.626c0,24.86,20.068,44.93,44.93,44.93H467.07c24.56,0,44.93-20.07,44.93-44.93
	L511.702,214.058z"/>
<path style="fill:#D5514A;" d="M512.001,435.712c0,24.86-20.37,44.93-44.93,44.93H255.402V241.016c24.56,0,44.63,20.068,44.93,44.93
	v59.906c0,8.386,6.589,14.977,14.977,14.977c8.086,0,14.977-6.591,14.977-14.977l-0.3-78.477c0-40.438,27.556-75.183,67.095-84.168
	c12.28-2.697,24.862-7.488,35.644-13.779c16.174-9.285,37.342-9.285,53.515,0c15.876,9.285,25.461,26.059,25.461,44.63
	L512.001,435.712z"/>
<path style="fill:#E6EEFF;" d="M315.172,390.775c-24.775,0.003-44.933-20.148-44.936-44.924l-0.007-59.906
	c-0.001-8.263-6.715-14.976-14.979-14.975c-8.263,0.001-14.976,6.715-14.975,14.979l0.007,59.906
	c0.003,24.775-20.149,44.933-44.924,44.936c-25.609,0.003-44.933-20.719-44.936-48.215l-0.008-68.301
	c-0.003-26.647-6.368-50.94-18.407-70.244c-4.198-6.815-9.216-13.161-14.965-18.923c-23.594-23.193-32.316-58.162-22.667-91.159
	c8.786-28.901,32.229-51.501,61.2-59.095c32.394-9.043,65.742-0.272,89.058,23.433c5.661,5.82,15.489,5.805,21.134,0.041
	c23.383-23.755,56.714-32.549,89.33-23.441c28.755,7.543,52.187,30.122,60.938,58.875c9.701,33.096,1.017,68.053-22.644,91.369
	c-5.718,5.734-10.719,12.053-14.872,18.796c-12.078,19.381-18.437,43.675-18.434,70.322l0.009,71.592
	C360.099,370.615,339.948,390.772,315.172,390.775z"/>
<path style="fill:#DAE2F2;" d="M355.099,34.885c-32.617-9.108-65.947-0.315-89.329,23.441c-2.812,2.869-6.661,4.303-10.514,4.312
	v0.002v208.331c8.262,0.002,14.972,6.712,14.973,14.973l0.007,59.906c0.004,24.775,20.16,44.926,44.935,44.925
	c24.775-0.004,44.928-20.16,44.925-44.935l-0.009-71.592c-0.004-26.647,6.357-50.942,18.434-70.323
	c4.154-6.742,9.156-13.061,14.873-18.796c23.662-23.315,32.344-58.272,22.644-91.368C407.287,65.006,383.855,42.428,355.099,34.885z
	"/>
<g>
</g>
<g>
</g>
<g>
</g>
<g>
</g>
<g>
</g>
<g>
</g>
<g>
</g>
<g>
</g>
<g>
</g>
<g>
</g>
<g>
</g>
<g>
</g>
<g>
</g>
<g>
</g>
<g>
</g>
</svg>
