<?xml version="1.0" encoding="utf-8"?>
<!-- Generator: Adobe Illustrator 22.0.1, SVG Export Plug-In . SVG Version: 6.00 Build 0)  -->
<svg version="1.1" baseProfile="tiny" id="Capa_1" xmlns="http://www.w3.org/2000/svg" xmlns:xlink="http://www.w3.org/1999/xlink"
	 x="0px" y="0px" viewBox="0 0 512 512" xml:space="preserve">
<path fill="#EC615B" d="M511.7,214.1c0-18.6-9.6-35.3-25.5-44.6c-16.2-9.3-37.3-9.3-53.5,0c-10.8,6.3-23.4,11.1-35.6,13.8
	c-39.5,9-67.1,43.7-67.1,84.2l0.3,78.5c0,8.4-6.9,15-15,15c-8.4,0-15-6.6-15-15v-59.9C300,261.1,280,241,255.4,241h-0.3
	c-24.6,0-44.9,20.1-44.6,44.9v59.9c0,8.4-6.9,15-15,15c-9,0-15-7.5-15-18.3v-61.7c-0.6-46.1-32.3-86-77.3-96.7
	c-12.3-3-22.8-9.6-30.6-18.6c-11.1-13.2-29.6-18-45.4-12C10.5,159.5,0,176,0,196.1l0.3,239.6c0,24.9,20.1,44.9,44.9,44.9h421.8
	c24.6,0,44.9-20.1,44.9-44.9L511.7,214.1z"/>
<path fill="#D5514A" d="M512,435.7c0,24.9-20.4,44.9-44.9,44.9H255.4V241c24.6,0,44.6,20.1,44.9,44.9v59.9c0,8.4,6.6,15,15,15
	c8.1,0,15-6.6,15-15l-0.3-78.5c0-40.4,27.6-75.2,67.1-84.2c12.3-2.7,24.9-7.5,35.6-13.8c16.2-9.3,37.3-9.3,53.5,0
	c15.9,9.3,25.5,26.1,25.5,44.6L512,435.7z"/>
<path fill="#E6EEFF" d="M315.2,390.8c-24.8,0-44.9-20.1-44.9-44.9l0-59.9c0-8.3-6.7-15-15-15c-8.3,0-15,6.7-15,15l0,59.9
	c0,24.8-20.1,44.9-44.9,44.9c-25.6,0-44.9-20.7-44.9-48.2l0-68.3c0-26.6-6.4-50.9-18.4-70.2c-4.2-6.8-9.2-13.2-15-18.9
	c-23.6-23.2-32.3-58.2-22.7-91.2c8.8-28.9,32.2-51.5,61.2-59.1c32.4-9,65.7-0.3,89.1,23.4c5.7,5.8,15.5,5.8,21.1,0
	c23.4-23.8,56.7-32.5,89.3-23.4c28.8,7.5,52.2,30.1,60.9,58.9c9.7,33.1,1,68.1-22.6,91.4c-5.7,5.7-10.7,12.1-14.9,18.8
	c-12.1,19.4-18.4,43.7-18.4,70.3l0,71.6C360.1,370.6,339.9,390.8,315.2,390.8z"/>
<path fill="#DAE2F2" d="M355.1,34.9c-32.6-9.1-65.9-0.3-89.3,23.4c-2.8,2.9-6.7,4.3-10.5,4.3v0V271c8.3,0,15,6.7,15,15l0,59.9
	c0,24.8,20.2,44.9,44.9,44.9c24.8,0,44.9-20.2,44.9-44.9l0-71.6c0-26.6,6.4-50.9,18.4-70.3c4.2-6.7,9.2-13.1,14.9-18.8
	c23.7-23.3,32.3-58.3,22.6-91.4C407.3,65,383.9,42.4,355.1,34.9z"/>
</svg>
