<svg id="Layer_1" enable-background="new 0 0 512 512" height="512" viewBox="0 0 512 512" width="512" xmlns="http://www.w3.org/2000/svg"><g clip-rule="evenodd" fill-rule="evenodd"><path d="m52.833 134.377h322.653c14.249 0 25.918 11.681 25.918 25.946v207.067c0 34.487-19.468 64.63-47.936 79.951l-139.308 32.329-139.308-32.33c-28.469-15.321-47.936-45.464-47.936-79.951v-207.066c-.001-14.265 11.668-25.946 25.917-25.946z" fill="#efebe9"/><path d="m401.404 185.241-18.441 17.199 18.441 19.371h32.456c35.769 0 57.817 105.486-32.456 96.24l-18.441 23.745 18.441 18.139c142.548 0 114.226-174.694 38.114-174.694z" fill="#916859"/><path d="m41.78 512h344.76c2.111 0 4.193-.205 6.186-.616 14.835-2.906 26.094-16.055 26.094-31.728v-20.281c0-6.604-5.395-12.034-12.021-12.034h-96.752-191.774-96.752c-6.626 0-12.021 5.43-12.021 12.034v20.281c0 15.673 11.258 28.822 26.094 31.728 1.993.411 4.075.616 6.186.616z" fill="#a1887f"/><path d="m364.814 160.323v166.036h36.59v-104.547-36.571-24.919c0-14.264-11.669-25.946-25.918-25.946h-36.59c14.249.001 25.918 11.682 25.918 25.947z" fill="#e2cfcc"/><path d="m364.814 367.39c0 34.487-19.468 64.63-47.936 79.951h36.59c28.469-15.321 47.936-45.464 47.936-79.951v-7.455-138.123-36.571-24.919c0-14.264-11.669-25.946-25.918-25.946h-36.59c14.249 0 25.918 11.681 25.918 25.946z" fill="#e2cfcc"/><path d="m295.915 512h90.624c2.111 0 4.193-.205 6.186-.616 14.835-2.906 26.094-16.055 26.094-31.728v-20.281c0-6.604-5.395-12.034-12.021-12.034h-90.742c6.626 0 12.021 5.43 12.021 12.034v20.281c0 15.673-11.258 28.822-26.094 31.728-1.963.381-4.015.587-6.068.616z" fill="#916859"/><path d="m26.915 240.89h374.489v77.162h-374.489z" fill="#00d3a1"/><path d="m364.814 240.89h36.59v77.162h-36.59z" fill="#00a87c"/><path d="m204.441 392.749c-42.454-5.694-68.489-45.024-74.646-83.003-1.114-6.751-1.642-13.589-1.642-20.428 0-8.482.821-16.935 2.521-25.271 8.063-39.506 38.144-78.806 83.471-78.806 10.877 0 21.403 2.407 31.166 6.956 28.82 13.384 46.353 42.529 52.334 71.85 1.7 8.336 2.521 16.788 2.521 25.271 0 6.839-.528 13.677-1.642 20.428-6.685 41.179-37.059 83.649-84.379 83.649-3.225 0-6.479-.206-9.704-.646z" fill="#ffcc80"/></g><path d="m214.145 393.496c-3.307 0-6.577-.218-9.718-.647-19.691-2.641-37.326-12.818-50.999-29.431-12.073-14.67-20.502-33.726-23.733-53.657-1.091-6.608-1.643-13.486-1.643-20.444 0-8.573.849-17.082 2.524-25.291 4.238-20.765 14.107-40.038 27.788-54.268 15.485-16.106 34.774-24.62 55.782-24.62 10.789 0 21.289 2.344 31.209 6.965 13.716 6.37 25.416 16.458 34.772 29.983 8.409 12.155 14.501 26.657 17.618 41.939 1.674 8.207 2.523 16.717 2.523 25.291 0 6.96-.553 13.838-1.643 20.444-1.702 10.489-4.851 20.74-9.358 30.469-4.688 10.12-10.616 19.154-17.618 26.85-15.724 17.283-35.609 26.417-57.504 26.417zm0-208.153c-46.243 0-75.632 40.808-83.371 78.725-1.672 8.196-2.52 16.691-2.52 25.251 0 6.947.552 13.814 1.64 20.411 6.015 37.102 31.401 77.13 74.559 82.919 3.132.428 6.392.645 9.69.645 46.424 0 77.538-42.038 84.28-83.564 1.088-6.595 1.64-13.462 1.64-20.411 0-8.561-.848-17.057-2.519-25.251-6.702-32.856-26.245-59.689-52.277-71.778-9.891-4.61-20.363-6.947-31.122-6.947z" fill="#00d3a1"/><path clip-rule="evenodd" d="m261.437 289.314c0 4.617-.355 9.102-1.025 13.445-4.108 27.104-20.39 48.018-40.607 51.336-1.856.314-3.743.467-5.66.467-1.674 0-3.317-.112-4.96-.355-2.536-.365-5.001-1.005-7.405-1.908-17.032-6.352-30.239-25.511-33.871-49.54-.67-4.343-1.025-8.828-1.025-13.445 0-5.723.558-11.294 1.552-16.612 5.336-27.966 23.778-48.627 45.709-48.627 2.617 0 5.184.284 7.679.842 2.891.649 5.701 1.664 8.389 3.004 2.252 1.126 4.433 2.486 6.512 4.049 11.3 8.503 19.821 23.167 23.159 40.732.995 5.318 1.553 10.889 1.553 16.612z" fill="#af4935" fill-rule="evenodd"/><path clip-rule="evenodd" d="m168.437 272.706c-.997 5.312-1.554 10.889-1.554 16.612 0 4.608.352 9.099 1.026 13.443 4.134 27.413 20.758 48.487 41.281 51.451 20.728-19.929 13.633-34.017 5.952-51.451-3.87-8.776-7.857-18.403-8.532-30.055-.088-1.644-.117-3.317-.088-5.048.293-10.625 1.29-21.749 23.69-39.741-5.014-2.495-10.408-3.845-16.067-3.845-21.93 0-40.372 20.663-45.708 48.634z" fill="#c9634a" fill-rule="evenodd"/><path clip-rule="evenodd" d="m220.859 193.929c28.82 13.384 46.382 42.558 52.363 71.879 1.671 8.306 2.521 16.788 2.521 25.271 0 6.839-.557 13.648-1.642 20.399-5.834 35.837-29.553 72.613-66.759 81.624 2.258.205 4.544.294 6.802.294 47.321 0 77.695-42.47 84.379-83.649 1.114-6.751 1.642-13.589 1.642-20.428 0-8.482-.821-16.935-2.521-25.271-5.981-29.321-23.514-58.466-52.334-71.85-9.763-4.549-20.289-6.956-31.166-6.956-6.128 0-11.991.734-17.591 2.084 8.445.792 16.625 3.051 24.306 6.603z" fill="#ffab2e" fill-rule="evenodd"/><path d="m236.726 231.97c-.446.72-1.025 1.37-1.714 1.928-20.339 16.338-20.582 25.298-20.826 33.974-.345 12.938 4.22 23.289 8.643 33.294 6.736 15.262 14.303 32.401-3.023 52.929-1.856.314-3.743.467-5.66.467-1.674 0-3.317-.112-4.96-.355-2.536-.365-5.001-1.005-7.405-1.908.335-1.339 1.035-2.588 2.1-3.612 16.261-15.637 12.234-24.76 4.92-41.32-4.869-11.02-10.377-23.512-9.941-39.91.335-12.349 2.424-24.932 22.966-42.538 2.891.649 5.701 1.664 8.389 3.004 2.251 1.125 4.432 2.485 6.511 4.047z" fill="#682316"/><path d="m213.918 97.553c-2.515 0-4.978-1.236-6.446-3.505-2.3-3.557-1.283-8.306 2.272-10.607 10.914-7.064 9.333-12.309 3.156-26.438-6.232-14.252-15.649-35.791 12.972-55.637 3.48-2.413 8.258-1.547 10.67 1.934 2.413 3.481 1.547 8.26-1.934 10.674-18.25 12.655-14.037 22.293-7.658 36.881 5.713 13.066 13.536 30.96-8.875 45.465-1.286.835-2.73 1.233-4.157 1.233z" fill="#e2cfcc"/><path d="m120.801 113.579c-2.733 0-5.378-1.465-6.762-4.042-2.004-3.732-.604-8.383 3.126-10.387 9.882-5.31 8.937-7.945 2.846-19.517-6.195-11.769-16.563-31.466 13.258-48.643 3.669-2.113 8.358-.852 10.471 2.82 2.113 3.671.851 8.361-2.819 10.475-12.024 6.926-12.368 11.978-12.482 13.638-.29 4.245 2.348 9.257 5.141 14.563 5.411 10.279 14.467 27.483-9.158 40.179-1.154.62-2.397.914-3.621.914z" fill="#e2cfcc"/><path d="m303.34 108.971c-2.732 0-5.375-1.463-6.76-4.038-2.007-3.73-.61-8.382 3.12-10.389 9.889-5.322 8.943-7.957 2.849-19.533-6.194-11.764-16.561-31.452 13.259-48.629 3.669-2.112 8.357-.852 10.471 2.82 2.113 3.671.851 8.361-2.819 10.475-12.023 6.925-12.368 11.974-12.482 13.633-.29 4.241 2.347 9.25 5.139 14.553 5.411 10.278 14.469 27.479-9.152 40.192-1.155.621-2.399.916-3.625.916z" fill="#e2cfcc"/></svg>