<svg height="512pt" viewBox="0 0 512.00024 512" width="512pt" xmlns="http://www.w3.org/2000/svg"><path d="m274.367188 300.628906 9.40625-57.53125c.957031-5.875-.453126-11.75-3.972657-16.542968-11.113281-15.125-34.667969-8.921876-37.621093 9.136718l-9.683594 59.242188c-3.714844 22.710937-31.058594 31.667968-47.265625 16.019531-33.644531-32.492187-47.5625-83.007813-36.320313-131.832031 4.980469-21.601563 4.722656-45.058594-.742187-67.835938-19.382813-80.652344 70.605469-144.503906 132.949219-92.398437 9.882812 8.25 23.480468 10.472656 35.480468 5.792969 75.769532-29.574219 141.289063 60.175781 96.109375 130.703124-12.296875 19.175782-20.085937 41.464844-22.535156 64.460938-5.210937 48.425781-33.277344 91.285156-73.25 111.875-21.113281 10.886719-46.492187-7-42.554687-31.089844zm0 0" fill="#eee"/><path d="m316.597656 24.679688c-12 4.679687-25.597656 2.460937-35.480468-5.789063-8.648438-7.226563-18.167969-12.394531-28.117188-15.464844v217.15625c15.792969-8.609375 33.601562 5.199219 30.769531 22.515625l-9.402343 57.535156c-3.929688 24.023438 21.339843 41.984376 42.5625 31.089844 39.96875-20.59375 68.027343-63.453125 73.238281-111.878906 2.449219-22.996094 10.242187-45.28125 22.539062-64.457031 45.160157-70.546875-20.320312-160.277344-96.109375-130.707031zm0 0" fill="#dedede"/><path d="m495 512h-480c-8.285156 0-15-6.714844-15-14.996094 0-61.382812 5.746094-238.027344 43.722656-290.359375 11.296875-15.5625 23.785156-18.828125 32.277344-18.828125 83.960938 0-1.007812 235.203125 108.464844 235.203125 12.316406 0 16.042968-12.691406 19.792968-25.640625 6.394532-22.089844 25.808594-37.957031 48.300782-39.480468 24.683594-1.675782 48.714844 13.890624 55.855468 40.1875 3.085938 11.371093 8.894532 24.933593 19.007813 24.933593 111.765625 0 48.402344-205.210937 126.578125-205.210937 32.757812 0 44.257812 44.546875 49.660156 76.980468 9.660156 57.972657 9.40625 148.082032 6.3125 203.0625-.449218 7.941407-7.019531 14.148438-14.972656 14.148438zm0 0" fill="#e51b8a"/><path d="m479.097656 229.300781c-8.96875-9.5-18.597656-11.488281-25.097656-11.488281-78.148438 0-14.828125 205.207031-126.582031 205.207031-10.109375 0-15.917969-13.566406-19-24.933593-7.402344-26.652344-31.285157-41.664063-55.417969-40.210938v154.121094h242c7.949219 0 14.519531-6.207032 14.976562-14.144532 3.058594-56.035156 7.972657-227.445312-30.878906-268.550781zm0 0" fill="#c80060"/></svg>