<?xml version="1.0" encoding="utf-8"?>
<!-- Generator: Adobe Illustrator 21.1.0, SVG Export Plug-In . SVG Version: 6.00 Build 0)  -->
<svg version="1.1" id="Layer_1" xmlns="http://www.w3.org/2000/svg" xmlns:xlink="http://www.w3.org/1999/xlink" x="0px" y="0px"
	 viewBox="0 0 499 521.7" style="enable-background:new 0 0 499 521.7;" xml:space="preserve">
<style type="text/css">
	.st0{fill:#58595B;}
	.st1{fill:#00AEEF;}
	.st2{fill:#414042;}
</style>
<title>Image 34.C [Converted]</title>
<g id="_Group_">
	<path id="_Path_" class="st0" d="M242.7,144.2c-127.6,0-231.1,127.2-231.1,127.2s54.7,67.2,133.5,103.9
		c-10.2-12.6-17.9-27.1-22.6-42.6c-33.1-20.9-59.5-45.4-75-61.3C79.2,238.9,156,170.7,242.7,170.7s163.5,68.2,195.2,100.6
		c-15.5,15.9-41.9,40.4-75,61.3c-4.7,15.5-12.4,30-22.6,42.6c78.9-36.7,133.5-103.9,133.5-103.9S370.4,144.2,242.7,144.2z"/>
	<g id="_Group_2">
		<path id="_Path_2" class="st0" d="M242.7,128.2c73.3,0,140.3,28.7,191.9,60.2c-47.1-37.8-115.6-78.7-191.9-78.7
			S97.9,150.6,50.9,188.4C102.4,156.9,169.4,128.2,242.7,128.2z"/>
	</g>
	<path id="_Compound_Path_" class="st1" d="M242.7,180.8c-63.8,0-115.6,51.7-115.6,115.6c0,63.8,51.7,115.6,115.6,115.6
		c63.8,0,115.6-51.7,115.6-115.6c0,0,0,0,0,0C358.3,232.5,306.5,180.8,242.7,180.8z M277.3,273.3c-7.8,0-14.1-6.3-14.1-14.1
		c0-7.8,6.3-14.1,14.1-14.1c7.8,0,14.1,6.3,14.1,14.1v0C291.4,267,285.1,273.3,277.3,273.3L277.3,273.3z"/>
	<g id="_Group_3">
		<path id="_Path_3" class="st2" d="M287.9,249.9l21.5-26.6c0.5-0.6,0.4-1.6-0.3-2.1c-0.6-0.4-1.4-0.4-1.9,0.1L283,246.4
			C284.8,247.2,286.5,248.4,287.9,249.9z"/>
		<path id="_Path_4" class="st2" d="M341,306.8l-37.6-6.3c-2.3-0.5-3.8-2.7-3.3-5c0.3-1.7,1.6-3,3.3-3.3L341,286
			c0.8-0.1,1.3-0.9,1.2-1.7c-0.1-0.8-0.8-1.3-1.6-1.2l-38,2.9c-2.3,0.2-4.3-1.6-4.5-3.9c-0.1-1.8,0.9-3.4,2.5-4.2l35-15.1
			c0.8-0.3,1.1-1.1,0.9-1.9c-0.3-0.8-1.1-1.1-1.9-0.9l-36.3,11.9c-2.2,0.7-4.6-0.5-5.3-2.7c-0.5-1.7,0-3.6,1.4-4.7l30.4-23.1
			c0.6-0.6,0.6-1.5,0-2.1c-0.4-0.4-1.1-0.6-1.7-0.3L291.4,259c0,0.1,0,0.2,0,0.2c0,7.8-6.3,14.1-14.1,14.1
			c-7.8,0-14.1-6.3-14.1-14.1c0-6.3,4.1-11.8,10.2-13.5c0-0.6,0.2-1.1,0.4-1.6l16.2-34.5c0.3-0.7,0-1.6-0.8-1.9
			c-0.7-0.3-1.4,0-1.8,0.6l-19.2,32.9c-1.2,2-3.8,2.7-5.8,1.5c-1.5-0.9-2.4-2.7-2-4.5l7.5-37.4c0.2-0.8-0.3-1.6-1.1-1.8
			c-0.8-0.2-1.6,0.3-1.8,1.1l-10.8,36.6c-0.6,2.2-3,3.5-5.2,2.9c-1.8-0.5-3-2.1-3.1-3.9l-1.7-38.1c0-0.8-0.7-1.5-1.5-1.5
			c-0.8,0-1.5,0.7-1.5,1.5l-1.7,38.1c-0.1,2.3-2,4.2-4.4,4.1c-1.8-0.1-3.4-1.3-3.9-3.1l-10.8-36.6c-0.3-0.8-1.1-1.2-1.9-0.9
			c-0.7,0.2-1.1,0.9-1,1.6l7.5,37.4c0.5,2.3-1,4.5-3.3,5c-1.8,0.3-3.5-0.5-4.5-2L198,208.2c-0.4-0.7-1.3-0.9-2-0.5
			c-0.6,0.4-0.9,1.2-0.6,1.8l16.2,34.5c1,2.1,0.1,4.6-2.1,5.6c-1.6,0.8-3.5,0.4-4.8-0.9l-26.5-27.4c-0.6-0.6-1.5-0.5-2.1,0
			c-0.5,0.5-0.5,1.3-0.1,1.9l24,29.7c1.5,1.8,1.2,4.5-0.6,5.9c-1.4,1.1-3.4,1.3-4.9,0.3L162.2,239c-0.7-0.4-1.6,0-2,0.7
			c-0.3,0.6-0.2,1.2,0.3,1.7l30.4,23.1c1.9,1.4,2.2,4.1,0.8,5.9c-1.1,1.4-3,2-4.7,1.4l-36.2-11.9c-0.8-0.3-1.6,0.1-1.9,0.9
			c-0.3,0.8,0.1,1.6,0.9,1.9l35,15.1c2.1,0.9,3.1,3.4,2.2,5.6c-0.7,1.6-2.4,2.6-4.2,2.5l-38-2.9c-0.8-0.1-1.5,0.5-1.6,1.3
			c-0.1,0.8,0.5,1.4,1.2,1.6l37.6,6.3c2.3,0.5,3.8,2.7,3.3,5c-0.3,1.7-1.6,3-3.3,3.3l-37.6,6.3c-0.8,0.1-1.3,0.9-1.2,1.7
			c0.1,0.8,0.8,1.3,1.6,1.2l38-2.9c2.3-0.2,4.3,1.6,4.5,3.9c0.1,1.8-0.9,3.4-2.5,4.2l-35,15.2c-0.8,0.3-1.1,1.1-0.9,1.9
			c0.3,0.8,1.1,1.1,1.9,0.9l36.3-11.9c2.2-0.7,4.6,0.5,5.3,2.7c0.5,1.7,0,3.6-1.4,4.7l-30.4,23.1c-0.6,0.6-0.6,1.5,0,2.1
			c0.4,0.4,1.1,0.6,1.7,0.3l32.3-20.2c2-1.2,4.6-0.6,5.8,1.3c1,1.5,0.8,3.5-0.3,4.9l-24,29.7c-0.5,0.6-0.4,1.6,0.3,2.1
			c0.6,0.4,1.4,0.4,1.9-0.1l26.5-27.3c1.6-1.7,4.3-1.7,6-0.1c1.3,1.3,1.6,3.2,0.9,4.8l-16.2,34.5c-0.3,0.7,0,1.6,0.8,1.9
			c0.7,0.3,1.4,0,1.8-0.6l19.2-32.9c1.2-2,3.8-2.7,5.8-1.5c1.5,0.9,2.4,2.7,2,4.5l-7.5,37.4c-0.1,0.8,0.4,1.6,1.2,1.7
			c0.7,0.1,1.4-0.3,1.6-1l10.8-36.6c0.6-2.2,3-3.5,5.2-2.9c1.8,0.5,3,2.1,3.1,3.9l1.7,38.1c0,0.8,0.7,1.5,1.5,1.5
			c0.8,0,1.5-0.7,1.5-1.5l1.7-38.1c0.1-2.3,2-4.2,4.4-4.1c1.8,0.1,3.4,1.3,3.9,3.1l10.8,36.6c0.2,0.8,1,1.3,1.8,1.1
			c0.8-0.2,1.3-1,1.1-1.8l-7.5-37.4c-0.5-2.3,1-4.5,3.3-5c1.8-0.3,3.5,0.5,4.5,2l19.2,32.9c0.4,0.7,1.3,0.9,2,0.5
			c0.6-0.4,0.9-1.2,0.6-1.8l-16.2-34.5c-1-2.1-0.1-4.6,2.1-5.6c1.6-0.8,3.5-0.4,4.8,0.9l26.5,27.4c0.6,0.6,1.5,0.5,2.1,0
			c0.5-0.5,0.5-1.3,0.1-1.9l-24.1-29.7c-1.5-1.8-1.2-4.5,0.6-5.9c1.4-1.1,3.4-1.3,4.9-0.3l32.3,20.2c0.7,0.4,1.6,0,2-0.7
			c0.3-0.6,0.2-1.2-0.3-1.7l-30.3-23.1c-1.9-1.4-2.2-4.1-0.8-5.9c1.1-1.4,3-2,4.7-1.4l36.2,11.9c0.8,0.3,1.6-0.1,1.9-0.9
			c0.3-0.8-0.1-1.6-0.9-1.9l0,0l-35-15.1c-2.1-0.9-3.1-3.4-2.2-5.6c0.7-1.6,2.4-2.6,4.2-2.5l38,2.9c0.8,0.1,1.5-0.5,1.6-1.3
			C342.4,307.7,341.8,306.9,341,306.8z"/>
	</g>
</g>
</svg>
