<?xml version="1.0" encoding="UTF-8"?>
<svg xmlns="http://www.w3.org/2000/svg" xmlns:xlink="http://www.w3.org/1999/xlink" width="512" height="512" viewBox="0 0 41 58" version="1.1"><!-- Generator: Sketch 51.3 (57544) - http://www.bohemiancoding.com/sketch --><title>013 - Egyptian Foot Type</title><desc>Created with Sketch.</desc><defs/><g id="Page-1" stroke="none" stroke-width="1" fill="none" fill-rule="evenodd"><g id="013---Egyptian-Foot-Type" fill-rule="nonzero"><path d="M40.55,33.03 C40.1957046,31.3737045 39.9749951,29.6916311 39.89,28 L39.89,20.05 C39.8939254,18.9129448 39.2497665,17.8729774 38.23,17.37 C37.3005243,16.9083363 36.1985816,16.9591707 35.3155578,17.5044481 C34.432534,18.0497255 33.8935345,19.0121918 33.89,20.05 L33.89,16.31 C33.892317,14.908853 33.0579935,13.6416259 31.77,13.09 C30.6879055,12.6293843 29.446962,12.7418849 28.465345,13.3895912 C27.483728,14.0372975 26.8921643,15.1339512 26.89,16.31 L26.89,13.31 C26.8915857,13.1557335 26.8781895,13.0016774 26.85,12.85 C26.6084563,11.0245046 24.9920021,9.6995359 23.1546045,9.8209731 C21.317207,9.94241029 19.889191,11.468594 19.89,13.31 L19.89,9.31 C19.892317,7.90885296 19.0579935,6.64162585 17.77,6.09 C16.6879055,5.62938427 15.446962,5.74188488 14.465345,6.3895912 C13.483728,7.03729751 12.8921643,8.1339512 12.89,9.31 L12.89,6 C12.8916557,5.94647164 12.8883078,5.89290564 12.88,5.84 C12.7986025,2.59053772 10.1404814,-0.00101932573 6.89,2.44249065e-15 C6.38334496,-0.000120574964 5.87892371,0.0671355919 5.39,0.2 C2.74165653,0.879087694 0.889759856,3.26597675 0.89,6 L0.89,11.87 C0.89,15.31 1,18.75 0.9,22.18 C0.84,24.07 0.61,25.95 0.71,27.84 C0.865627579,30.1950553 1.2337919,32.5312253 1.81,34.82 C2.61,38.19 3.68,41.48 4.33,44.88 C4.82968789,48.1279878 5.02054058,51.4160112 4.9,54.7 C4.9,55.06 4.66,57.88 4.89,58 L37.89,58 C37.93,52.54 40.19,43.39 40.65,37.95 C40.8219116,36.3122444 40.7883176,34.6594176 40.55,33.03 Z" id="Shape" fill="#FDD7AD"/><path d="M8.0005,15 L6.0005,15 C5.44821525,15 5.0005,14.5522847 5.0005,14 C5.0005,13.4477153 5.44821525,13 6.0005,13 L8.0005,13 C8.55278475,13 9.0005,13.4477153 9.0005,14 C9.0005,14.5522847 8.55278475,15 8.0005,15 Z" id="Shape" fill="#F09372"/><path d="M7,28 C6.44771525,28 6,27.5522847 6,27 L6,24 C6,23.4477153 6.44771525,23 7,23 C7.55228475,23 8,23.4477153 8,24 L8,27 C8,27.5522847 7.55228475,28 7,28 Z" id="Shape" fill="#F09372"/><path d="M5,0 L9,0 C10.1045695,0 11,0.8954305 11,2 L11,7 C11,9.209139 9.209139,11 7,11 C4.790861,11 3,9.209139 3,7 L3,2 C3,0.8954305 3.8954305,2.22044605e-16 5,0 Z" id="Shape" fill="#ECF0F1"/><path d="M15,6 L18,6 C18.5522847,6 19,6.44771525 19,7 L19,9.5 C19,10.8807119 17.8807119,12 16.5,12 C15.1192881,12 14,10.8807119 14,9.5 L14,7 C14,6.44771525 14.4477153,6 15,6 Z" id="Shape" fill="#ECF0F1"/><path d="M22,10 L25,10 C25.5522847,10 26,10.4477153 26,11 L26,13.5 C26,14.8807119 24.8807119,16 23.5,16 C22.1192881,16 21,14.8807119 21,13.5 L21,11 C21,10.4477153 21.4477153,10 22,10 Z" id="Shape" fill="#ECF0F1"/><path d="M29,13 L32,13 C32.5522847,13 33,13.4477153 33,14 L33,16.5 C33,17.8807119 31.8807119,19 30.5,19 C29.1192881,19 28,17.8807119 28,16.5 L28,14 C28,13.4477153 28.4477153,13 29,13 Z" id="Shape" fill="#ECF0F1"/><path d="M36,18 L38,18 C38.5522847,18 39,18.4477153 39,19 L39,20 C39,21.1045695 38.1045695,22 37,22 C35.8954305,22 35,21.1045695 35,20 L35,19 C35,18.4477153 35.4477153,18 36,18 Z" id="Shape" fill="#ECF0F1"/><path d="M13,22 C12.4477153,22 12,21.5522847 12,21 L12,12 C12,11.4477153 12.4477153,11 13,11 C13.5522847,11 14,11.4477153 14,12 L14,21 C14,21.5522847 13.5522847,22 13,22 Z" id="Shape" fill="#F09372"/><path d="M20,21 C19.4477153,21 19,20.5522847 19,20 L19,15 C19,14.4477153 19.4477153,14 20,14 C20.5522847,14 21,14.4477153 21,15 L21,20 C21,20.5522847 20.5522847,21 20,21 Z" id="Shape" fill="#F09372"/><path d="M27,24 C26.4477153,24 26,23.5522847 26,23 L26,18 C26,17.4477153 26.4477153,17 27,17 C27.5522847,17 28,17.4477153 28,18 L28,23 C28,23.5522847 27.5522847,24 27,24 Z" id="Shape" fill="#F09372"/><path d="M34,27 C33.4477153,27 33,26.5522847 33,26 L33,23 C33,22.4477153 33.4477153,22 34,22 C34.5522847,22 35,22.4477153 35,23 L35,26 C35,26.5522847 34.5522847,27 34,27 Z" id="Shape" fill="#F09372"/></g></g></svg>
