<?xml version="1.0" encoding="utf-8"?>
<!-- Generator: Adobe Illustrator 21.1.0, SVG Export Plug-In . SVG Version: 6.00 Build 0)  -->
<svg version="1.1" id="Layer_1" xmlns="http://www.w3.org/2000/svg" xmlns:xlink="http://www.w3.org/1999/xlink" x="0px" y="0px"
	 viewBox="0 0 477.6 506.9" style="enable-background:new 0 0 477.6 506.9;" xml:space="preserve">
<style type="text/css">
	.st0{fill:#FFFFFF;}
	.st1{fill:#6B8BC7;}
</style>
<g>
	<rect x="-1" y="-1.5" class="st0" width="479.5" height="479.5"/>
	<path class="st1" d="M366.5,182.2c7.3,3.1,7.3,13.5,4.7,17.1c-4.7-16.1-14.5-9.9-25.9-6.2c-3.6,1-7.3,2.1-10.9,2.6
		c-2.6,0-4.7,0.5-7.3,0.5c-4.2,4.2-8.8,7.8-14.5,10.4c-3.1,1.6-5.7,3.1-8.8,4.2h-0.5c1,2.6,2.6,5.2,3.1,8.3c4.2,13.5,3.1,28-3.6,41
		c-1.6,3.1-3.6,6.2-5.7,8.8c4.7,3.6,8.3,7.3,12.5,10.4c5.7,4.7,10.4,11.4,17.6,14c7.3,2.6,14,4.7,20.2,5.7c0.5,0,0.5-0.5,1-0.5l0,0
		c1.6-1,2.1-2.6,2.6-4.2l0,0c0-1,0-2.1,0-3.6s-0.5-3.6-1-5.2l0,0c-0.5-1.6-0.5-2.6-1-4.2c-4.7-4.2-11.9-6.2-16.6-2.6
		c1-10.9,8.3-10.4,9.3-10.4c-0.5-6.2-7.3-7.8-10.9-8.3c17.6-2.6,23.4,4.2,28,18.7c1-6.2-1.6-9.9-1-15.6c0.5-8.8,13-13.5,17.6-9.3
		c-18.2,3.6-4.7,19.2-7.3,29.1l0,0c-1,4.7-3.1,7.3-6.7,10.9c0,0.5,0,1,0,1.6l0,0c0,1-0.5,2.6-0.5,3.6c0.5,0,0.5-0.5,1-0.5
		c2.1-1,3.6-2.1,5.2-3.6c4.2-4.7,8.3-15,12.5-21.3c2.1-3.6,4.7-7.8,7.8-10.4c4.2-25.9,19.2-19.7,19.2-19.7c-6.7,0-10.9,8.3-8.3,14.5
		c0.5,0.5,6.2-1.6,11.4,8.3c-13-6.7-17.1,6.2-21.8,13.5c0.5,0,2.6,7.3,12.5,4.7l0,0l0,0c-5.2,5.2-11.9,4.7-17.1,4.7
		c-2.1,3.6-5.2,9.9-8.3,13c-5.7,6.2-13.5,8.3-21.8,7.8c-5.2-0.5-10.9-1.6-17.1-3.6v0.5c0.5,1,1,2.1,1.6,2.6
		c6.2,4.7,19.2,14.5,27,15.6l0,0c0.5,0,1.6,0,2.6,0l0,0c0.5,0,1.6-0.5,2.1-0.5l0,0c0.5-0.5,1.6-1,1.6-1.6c0.5-0.5,1-1.6,1.6-2.1l0,0
		c1-2.6,2.1-8.3-4.7-8.3c6.2-5.2,9.9-3.1,11.4-2.6c0.5-0.5,8.8-4.2,13.5,2.1c-4.7-2.1-9.3,3.1-11.9,9.3c-1.6,4.7-0.5,6.7-4.2,9.9
		c3.1,1.6,6.2,2.6,9.3,4.2c3.1,1,3.1,1.6,6.2,1.6c3.6,0,5.7-1,8.8-3.1c5.2-4.2,12.5-22.8,28.5-4.2c-16.6-5.2-13,5.2-22.3,12.5
		c-0.5,0.5-1.6,1-2.1,1.6c9.9,4.7,13,9.3,24.4,4.7c0.5,2.6-7.3,12.5-19.2,8.3c-3.6,0.5-5.7,6.2-0.5,14l0,0
		c-6.2-2.1-10.9-10.4-14-20.2c-1.6-0.5-2.6-1.6-4.2-2.1c-2.6-1-5.7-2.6-8.8-3.6c-4.7-2.1-9.9-4.2-15-6.2c0,0.5,0,1,0,1
		c0.5,10.4,6.2,34.3,15.6,37.9c-6.7,3.6-14.5-3.6-14.5-4.2c-3.1,7.3-7.3,11.9-15,13.5c7.3-9.9,10.9-18.2,8.3-28
		c-2.6-6.2-4.2-11.9-4.2-18.7c0-2.6,0-4.7,0-6.7c-5.2-2.6-9.9-5.7-14.5-8.8c0.5,4.7,0,9.3-1,14c-1.6,6.7-3.6,14-7.3,20.2
		c-3.1,5.2-7.3,10.4-9.9,16.1l0,0c-0.5,1.6-1,2.6-1,4.2c-0.5,4.7-1.6,10.9,2.1,11.9l0,0c-7.3,1.6-8.8-6.7-8.8-8.3
		c-5.2,4.2-15,6.7-13,22.3c-11.4-10.4-1.6-22.8-0.5-23.9c-1,0-9.9-2.1-10.4-9.3c11.4,5.2,23.9-2.1,32.7-18.2
		c3.1-5.2,4.7-10.9,6.2-17.1c1.6-9.3,1-17.6-3.6-25.9c-1.6-3.6-4.7-6.7-8.3-10.9l0,0l0,0l0,0l0,0c-4.2-4.2-8.8-8.8-14.5-13.5
		c-4.2-3.6-8.3-7.3-13-10.9c-5.7,4.7-11.9,8.3-18.7,10.4c-8.8,2.6-18.7,3.1-28,1c-1,1-2.1,1.6-3.1,2.6c-4.2,3.6-7.3,7.8-9.9,12.5
		s-4.2,8.8-4.7,14c-0.5,3.1-0.5,7.8-0.5,10.9c0.5,3.1,1.6,5.7,3.6,8.3c1.6,2.6,3.1,5.2,3.6,8.3l0,0c1,2.6,1,5.2,0.5,8.3
		c-0.5,2.6-1.6,5.2-3.1,7.8c-7.8,11.4-11.9,20.8,4.2,29.1c-4.7,4.2-12.5,0.5-13-0.5c-8.3,3.1-8.3,10.9-8.8,24.9
		c-10.9-16.1-1.6-28,3.6-35.3c-1-1.6-1-3.6-1-5.2c-12.5,4.2-28.5,19.2-21.3,37.4c-20.2-23.4,9.3-41,17.1-45.7
		c2.1-1.6,4.7-3.6,6.7-5.7c2.1-2.1,5.2-5.7,5.7-8.8c0-1,0-2.1-0.5-3.1l0,0c-0.5-1.6-2.1-4.2-3.1-6.2c-0.5,1-1,1.6-1.6,2.6l0,0
		c-1.6,2.1-3.1,3.6-5.2,5.2c-14.5,12.5-40.5,17.1-47.2,32.7c-3.6-11.9,7.3-17.6,8.3-18.7c-1.6,0.5-16.1-0.5-17.6-14
		c21.3,11.4,34.8,5.2,49.8-7.8c1.6-1.6,2.6-2.6,3.6-4.2l0,0c1-1.6,2.6-3.1,3.1-5.2c3.1-5.7,1.6-10.4,2.6-16.6
		c1-6.2,3.1-11.9,6.2-17.6c3.1-5.2,6.2-9.9,10.4-14c-14.5-6.7-24.9-19.7-29.6-35.3c-8.3,0.5-33.7-0.5-39.4,1.6
		c-7.3,2.6-21.3,7.8-19.2,13.5c0,0.5,0.5,1.6,1,2.1l0,0c0.5,0.5,1.6,1.6,2.6,2.6s2.6,2.1,4.2,3.6c7.8,5.2,22.3-3.1,24.9-11.4
		c2.1,4.2,0,13-9.3,19.7c2.1,2.6,8.8,1.6,15-1.6c-7.3,10.4-30.1,8.3-41.5-2.1c-1.6-1.6-3.1-2.6-4.2-4.2l0,0c-0.5-1-1.6-2.1-1.6-3.1
		c-1,2.1-1.6,4.2-1.6,6.2l0,0c0,3.1,1,6.7,1.6,10.4c4.7,16.1,6.7,35.3-14.5,39.4c7.3-9.3,8.8-13,7.3-24.4c-3.1-1.6-7.8,2.6-5.7,8.3
		c-14-3.6-2.6-17.1,2.6-21.3c-1-4.2-2.1-8.3-2.1-13c0-3.6,1-6.7,2.6-10.4c1.6-3.6,4.7-6.7,8.3-9.9c4.2-3.1,9.3-6.2,15-8.8
		c-6.2-2.1-10.9-0.5-17.1,0.5c-4.7,0.5-9.3,1.6-14.5,2.6c-1.6,0.5-3.1,0.5-4.2,2.1l0,0c-0.5,0.5-0.5,1-1,1.6c0,0.5-0.5,1.6-0.5,2.6
		c0,5.2,4.7,9.3,8.3,5.7c1.6,4.7-1.6,10.4-6.2,9.3c0,1.6,0,9.3-11.4,7.3c6.7-6.2-0.5-14-1-22.3c0-0.5,0-1,0-1.6
		c-4.2,1.6-9.9,2.6-13,5.7c-0.5,0.5-1.6,1.6-1.6,1.6l0,0c-0.5,1-1.6,2.1-1.6,3.6l0,0c-0.5,1-0.5,2.1-1,3.1c-0.5,2.6-0.5,4.7,0,6.7
		c1,12.5-5.2,21.3-18.2,15.6l0,0l0,0c3.6-2.1,7.3-5.2,8.3-9.3l0,0c0-1.6,0-3.1,0-5.2c-0.5-3.6-0.5-6.2,0.5-9.9
		c0.5-1,0.5-1.6,0.5-2.6c-9.3,1.6-16.6,1-20.2,12.5c0,0-7.8-13.5,8.8-19.2c-2.6-3.1-8.3-6.2-13-1.6c1.6-10.9,15.6-10.4,27.5-3.6
		c4.7-1.6,8.8-3.1,13.5-4.7c4.7-1.6,9.9-3.6,15-5.2c-0.5-0.5-0.5-0.5-1-1c-8.3-9.3-23.9-22.8-35.3-18.2c4.2-7.8,11.4-6.7,13.5-6.7
		c-2.6-4.2,1.6-19.2,11.4-15c-14,13.5,11.9,26.5,21.8,37.9c0,0,14-2.6,15-3.1l2.1-0.5c-3.6-3.6-6.2-7.3-8.8-11.9
		c-11.4-20.2-5.2-33.7-12.5-48.3c-7.8-15-32.7-11.4-30.1-32.2c3.1,9.3,11.4,13.5,18.7,11.4c-2.1-5.7,2.6-16.1,5.2-17.1
		c-0.5,6.2-4.2,13.5,12.5,30.6c-0.5-9.9,4.2-28-7.8-30.6c14-4.2,15.6,15,16.1,28c3.1-2.1,6.2-4.7,3.6-11.4
		c12.5,4.7-3.6,17.1-4.2,39.4c0,8.3,3.1,17.6,7.3,24.9c4.7,7.8,10.4,14,19.2,17.1c9.9,3.6,22.3,3.6,32.2,3.1
		c5.2,0,10.9-0.5,16.6-0.5c-1.6-22.3,10.9-43.6,31.7-52.9l-0.5-0.5l0,0c-1.6-2.1-2.6-4.7-3.6-6.7c-3.6-8.3-4.7-15.6-3.6-24.4
		c0.5-2.1,0.5-3.6,0.5-4.7c-2.6-13-34.8-18.2-46.2,4.2c1-17.6,14.5-21.3,23.4-22.3c-3.1-6.7-9.3-5.2-12.5-3.1
		c5.7-9.3,18.2-7.3,25.4,2.1c0-1,0-2.6,0-3.6c-1.6-2.1-2.6-3.6-4.2-5.7c-3.6-5.2-6.7-10.4-8.8-16.1c-1-2.6-1.6-5.2-1.6-8.3
		c0-3.1,0-5.7,1-8.8c1.6-5.2,8.8-20.2,2.6-23.4c-0.5-0.5,8.3-2.1,10.4,10.9c1-0.5,8.3-2.1,14.5,5.2c-8.8-7.3-18.7,6.2-18.2,15
		c0,1.6,0.5,3.6,1,5.7c1.6,5.2,4.7,9.3,7.8,13.5c4.7-1.6,9.9-5.2,4.2-18.2l0,0l0,0c1.6,1,10.4,8.3,5.7,20.8c1-2.1,2.6-4.2,4.2-5.7
		c2.1-2.6,4.7-4.2,6.7-5.7c4.2-2.6,7.8-3.6,12.5-4.7c1.6,0,3.1-0.5,4.7-0.5c8.8-1,25.4-2.1,22.8-14.5c8.3,10.4-8.3,18.2-9.3,19.2
		c-1.6,3.6,5.7,9.3,15.6,11.4c-6.7,2.1-11.9-1-20.8-4.7c-4.2-1.6-11.4-1-15.6,0.5c-5.2,1.6-9.9,5.2-12.5,10.4
		c-1,2.1-1.6,4.2-2.1,6.2c-1,4.7-1.6,9.3-1.6,14c0.5,7.3-0.5,10.9-0.5,16.6c0,4.2,1.6,9.3,3.1,13c1,2.1,2.1,3.6,3.1,5.2l0,0
		c0.5,1,1,1.6,1.6,2.6c12.5-2.6,25.4-1.6,37.4,5.2c7.3,3.6,13,8.8,17.6,15c3.6-1,6.7-2.6,9.9-4.2c6.2-3.6,10.9-7.3,15-12.5
		c3.6-4.2,7.8-10.4,9.9-15.6c1.6-3.6,1.6-7.8,0-11.9c-1.6-5.2-6.7-9.3-11.4-11.9l0,0c-1-0.5-2.1-1-3.6-1.6
		c-2.6-0.5-17.1-3.1-12.5-13.5c2.1,3.6,5.7,3.6,9.9,2.6c-2.6-8.3,3.6-19.7,9.9-19.2c-5.7,6.7-2.6,16.6,7.3,25.4
		c1.6,1.6,3.1,2.6,4.7,4.7c1.6-5.2,4.7-8.8,9.3-11.9c2.6-1.6,5.2-3.1,8.3-4.2l0,0h0.5c3.1-6.2,9.3-24.4,3.6-29.6
		c0.5,0,9.9,1,11.4,7.3c7.8-2.1,23.9-12.5,21.3-22.3c6.2,11.9-1.6,20.8-21.8,34.8c-0.5,1.6-0.5,3.1-1,4.7
		c15.6-4.2,36.3-8.3,37.9-28.5c6.2,25.4-20.2,33.7-37.9,39.4c-3.1,1-6.2,2.1-8.8,3.1l0,0c-2.6,1-4.7,2.1-6.2,3.6
		c-3.1,2.1-4.7,4.2-5.2,7.8c-0.5,2.6-0.5,5.2-0.5,7.8c3.1-2.1,6.2-3.6,9.9-4.7c5.2-1.6,10.4-2.6,16.1-3.6
		c11.4-2.1,23.9,0.5,32.2-8.3c0,1,3.1,7.3-7.8,13h-0.5c5.7,2.6,13.5,10.9,11.4,22.3c-6.2-14.5-18.2-20.2-33.7-17.1
		c-2.6,0.5-5.2,1-7.3,1.6l0,0c-2.6,0.5-5.2,1-6.7,2.1c-6.2,2.1-10.9,5.7-15.6,9.9c-1.6,4.2-4.7,9.9-7.3,13.5l0,0
		c10.9-1.6,30.6-4.7,32.7-17.1C369.6,168.8,371.1,177.1,366.5,182.2L366.5,182.2z"/>
	<path class="st0" d="M296.9,221.7c-3.1-10.9-10.9-20.2-21.3-25.9c-10.9-5.7-22.8-6.2-33.2-3.1c-23.4,7.3-36.3,31.7-29.1,54.5
		c7.3,23.4,31.7,36.3,55,29.1c10.9-3.1,20.2-10.4,25.9-21.3C299.5,244.5,300.6,232.6,296.9,221.7L296.9,221.7z"/>
</g>
</svg>
