<?xml version="1.0" encoding="utf-8"?>
<!-- Generator: Adobe Illustrator 21.1.0, SVG Export Plug-In . SVG Version: 6.00 Build 0)  -->
<svg version="1.1" id="Layer_1" xmlns="http://www.w3.org/2000/svg" xmlns:xlink="http://www.w3.org/1999/xlink" x="0px" y="0px"
	 viewBox="0 0 500 500" style="enable-background:new 0 0 500 500;" xml:space="preserve">
<style type="text/css">
	.st0{fill:#FF524C;}
	.st1{opacity:0.1;fill:#231F20;enable-background:new    ;}
</style>
<title>Image 34.B [Converted]</title>
<path class="st0" d="M190.3,56.8c-1.4,13.6-2.6,31.1-2.6,48.7c1.9,0.9,3.8,1.9,5.7,3l1.4-0.4C206,78.8,231.9,46,290.9,38.7
	c-13.4-12.7-25.1-12.5-25.8-12.4c-1.8,0.1-7.4-0.6-8.8-1.9c-1.3-1.3-5.8-3-5.8-4.9V6.9l-32.7,1.6l-2.1,23.1c-0.3,2-0.6,3.7-2.3,4.7
	C204.5,41.6,196.6,48.6,190.3,56.8z"/>
<path class="st0" d="M146.1,95.2c9.5,0.1,19,1.7,28,4.7c0.4-22.1,2.2-44.1,5.2-65.9l-25.8-14.5C143,36.4,134.8,70.4,129.9,97
	C135.2,95.9,140.6,95.3,146.1,95.2z"/>
<path class="st0" d="M362.8,81.9l1.7,5.8c1.1,3.6-1,7.4-4.5,8.5c-0.6,0.2-1.2,0.3-1.8,0.3c-13.9,0.3-51.6,5.3-59.8,24.4
	c-9.8,22.9,17.8,38.9,22.5,41.5c20.5,5.1,38.1,12.1,52.8,21.1c5.8-19.7,15.2-44.7,34.7-52.4l-4.4-12c-9.9,1.6-23.2,4.7-28.7,8.9
	c-3,2.3-7.2,1.7-9.5-1.3c-1.3-1.7-1.7-3.9-1.2-5.9c0.7-2.4,6.3-21.7,18.8-31.5l-5.1-11.4L362.8,81.9z"/>
<path class="st0" d="M101.5,127.4C81,147.9,85.2,203.2,90.9,237.1c2.4-9.3,5.2-18.4,8.1-27.1c19.3-56.5,54.9-82.9,77.8-94.6
	c-9.7-4.2-20.2-6.5-30.8-6.6C129.3,108.7,113.2,115.4,101.5,127.4z"/>
<path class="st0" d="M402.5,231.3c-13.2-24.6-36.9-41.7-72.3-52.5c5.1,14,11,37.6,6.7,63.7c-0.3,4.4-2.3,40.5,18.9,56
	c11.2,8.3,25.7,6.4,37-4.9c2.8-2.5,7.1-2.4,9.6,0.4c2.4,2.6,2.4,6.6,0,9.2c-6.9,7.2-16,12-25.9,13.6c10.8,20.6,1.7,50.1,1.2,51.7
	c-0.9,2.8-3.5,4.7-6.5,4.7c-0.7,0-1.4-0.1-2-0.3c-3.6-1.1-5.6-4.9-4.4-8.5c0.1-0.4,12.2-39.8-9.7-50.4c-17.2-8.4-25.3-24.5-29-39.4
	c-1.9,3.8-4,7.9-6.3,12.3l-0.1,0.2c-2.8,5.2-5.7,10.8-9,16.7c-28.1,52-70.2,129.6-49.6,180.3c13.5,5,27.8,7.6,42.2,7.8l0,0
	c35.6,0,61.5-20.4,76.8-63C407.5,353.4,429.8,282.1,402.5,231.3z"/>
<path class="st0" d="M188.6,443.5c17.5,13.3,36.4,24.8,56.3,34.2c-13.1-54.2,24.4-125.6,51.6-176.1c-7.7,2.8-15.6,5.2-23.6,7.1
	c-3.2,0.8-6.3,1.6-9.3,2.5c-6.4,2.4-12.6,4.6-18.5,6.8c-2.1,1-4.2,2.2-6.1,3.6c-18.4,12.9-16.9,37.6-16.9,37.8
	c0.3,3.7-2.6,7-6.3,7.3c0,0,0,0,0,0h-0.5c-3.6,0-6.5-2.8-6.8-6.3c-0.4-11.4,2.2-22.6,7.5-32.7c-19.2,5.8-36.6,9.3-53.3,9.3
	c-3.7-0.2-6.6-3.4-6.5-7.1c0.2-3.5,3-6.3,6.5-6.5c14.3,0,29.3-2.9,46.1-7.7c-29.6-1-35.9-9.7-38.4-13.4c-2.4-2.9-1.9-7.2,1-9.6
	c2.9-2.4,7.2-1.9,9.6,1c0.2,0.2,0.4,0.5,0.5,0.7c2.4,3.3,15.1,13.4,78.7,3.6c3.2-0.9,6.3-1.7,9.5-2.5c14.7-3.8,28.5-7.5,38.9-16
	c3.3-6.3,6.2-11.9,8.4-16.9c18.2-40,0.6-80.8-3.4-89.1c-15.8-8.7-39.3-30.4-27.4-58c10.4-24,46.3-30.3,63.2-32.1l-9.5-31.5
	c-7.7-0.8-15.4-1.2-23.1-1.2c-39.8,0-91.2,11.3-110.3,65.3c-0.8,2.2-2.6,3.8-4.9,4.4c-2.5,0.6-62.7,15.8-89.6,94.4
	C97.8,256,64.8,351.4,188.6,443.5z"/>
<path class="st1" d="M244.8,477.6c0,0-253-204.3-40-359.1c0,0-108.2,28.4-107.7,189.1C97.1,307.6,111.2,413.2,244.8,477.6z"/>
<path class="st1" d="M90.9,237.1c0,0-24.6-140.2,86-121.7c0,0-65.3-29.7-88.3,37.5C88.5,152.9,82.9,210,90.9,237.1z"/>
<polygon class="st1" points="129.9,97 144.6,38.8 153.5,19.5 160.6,23.4 154.6,39.8 140.7,95.4 "/>
<polygon class="st1" points="217.9,8.3 213.3,36.2 190.3,56.7 187.7,105.4 193.4,108.4 197,58.4 217.9,41.6 223.1,8.3 "/>
</svg>
