<svg height="512pt" viewBox="-14 0 512 512.00024" width="512pt" xmlns="http://www.w3.org/2000/svg"><path d="m472.324219 127.976562c-17.449219-45.460937-50.53125-81.359374-95.691407-103.820312-34.460937-17.140625-74.601562-25.421875-115.101562-24-7.96875.269531-15.949219.921875-23.910156 1.960938-35.789063 4.660156-69.789063 17.179687-98.3125 36.199218-55.699219 37.140625-92.230469 97.28125-97.730469 160.871094-.828125 9.550781.570313 19.101562 1.929687 28.339844 1.421876 9.691406 2.761719 18.839844 1.113282 25.417968v.011719c-.371094 1.460938-4.472656 15.171875-35.683594 46.058594-7.816406 7.75-10.796875 19.152344-7.777344 29.75 3.027344 10.601563 11.589844 18.710937 22.339844 21.152344 4.449219 1.019531 8.488281 1.910156 12.007812 2.6875 1.171876.261719 2.28125.5 3.332032.742187.199218 24.460938.519531 53.257813.96875 58.648438 1.0625 12.5625 6.582031 23.070312 15.960937 30.421875 13.011719 10.167969 32.691407 13.5 56.910157 9.609375 18.667968-3 29.769531 1.730468 33.007812 14.070312.292969 2.429688 1.140625 9.917969 1.691406 18.089844 1.058594 15.601562 14.128906 27.808594 29.761719 27.808594h192.988281c16.460938 0 29.839844-13.390625 29.839844-29.839844v-53.398438c0-37.652343 5.921875-63.261718 17.589844-76.121093 28.953125-31.902344 49.632812-67.75 59.800781-103.671875 11.664063-41.167969 9.964844-81.875-5.035156-120.988282zm0 0" fill="#ffdfc2"/><path d="m477.363281 248.96875c-10.167969 35.917969-30.851562 71.769531-59.800781 103.671875-11.667969 12.859375-17.589844 38.46875-17.589844 76.121094v53.398437c0 16.449219-13.378906 29.839844-29.839844 29.839844h-108.601562v-511.84375c40.5-1.421875 80.640625 6.859375 115.101562 24 45.160157 22.460938 78.242188 58.359375 95.691407 103.820312 15 39.113282 16.699219 79.820313 5.039062 120.992188zm0 0" fill="#ffbd83"/><path d="m381.78125 173.578125c-8.1875-20.929687-23.878906-37-44.179688-45.25-34.929687-14.199219-62.070312 2.390625-76.007812 14.671875-.019531-.023438-.042969-.03125-.0625-.050781-14.019531-12.242188-41.207031-28.691407-76.058594-14.519531-20.300781 8.25-35.992187 24.320312-44.179687 45.25-8.652344 22.089843-7.8125 47.136718 2.296875 68.699218 23.160156 49.390625 70.792968 90.871094 106.664062 116.972656 3.367188 2.457032 7.320313 3.699219 11.277344 3.71875h.101562c3.988282 0 7.980469-1.238281 11.390626-3.71875 51.929687-37.792968 87.738281-77.171874 106.449218-117.0625 5.480469-11.691406 8.242188-24.398437 8.242188-37.109374-.003906-10.742188-1.972656-21.480469-5.933594-31.601563zm0 0" fill="#ff637d"/><path d="m387.710938 205.179688c0 12.707031-2.757813 25.417968-8.238282 37.109374-18.710937 39.890626-54.519531 79.269532-106.453125 117.058594-3.40625 2.480469-7.398437 3.722656-11.386719 3.722656h-.101562v-220.125c.019531.023438.039062.03125.058594.050782 13.941406-12.277344 41.082031-28.867188 76.011718-14.667969 20.300782 8.25 35.988282 24.320313 44.179688 45.25 3.960938 10.121094 5.929688 20.859375 5.929688 31.601563zm0 0" fill="#ff3650"/></svg>