<?xml version="1.0" encoding="utf-8"?>
<!-- Generator: Adobe Illustrator 22.0.1, SVG Export Plug-In . SVG Version: 6.00 Build 0)  -->
<svg version="1.1" id="Layer_1" xmlns="http://www.w3.org/2000/svg" xmlns:xlink="http://www.w3.org/1999/xlink" x="0px" y="0px"
	 viewBox="0 0 1000 1000" style="enable-background:new 0 0 1000 1000;" xml:space="preserve">
<style type="text/css">
	.st0{fill:#E6F0E5;}
	.st1{fill:#B7AD3F;}
	.st2{fill:#648BC7;}
	.st3{fill:#B2B4B4;}
	.st4{fill:#F1F0F1;}
	.st5{fill:#D3D3D3;}
	.st6{fill:#606161;}
	.st7{fill:#F05759;}
	.st8{fill:#EDD436;}
	.st9{fill:#F6E853;}
</style>
<rect class="st0" width="1000" height="1000"/>
<g id="Scales">
	<path class="st1" d="M162.3,445.3c0,0,16.3-16,31.6-7.4c15.2,8.6,4.2,35.8,4.2,35.8l-28.9,7.2l-13-19.8L162.3,445.3z"/>
	<path class="st1" d="M830.5,413.3c0,0-7.1-11.3-17-12.2c-9.9-0.9-14.5,19-14.5,19l18.8,13.9C817.7,434,834.1,430.4,830.5,413.3z"/>
	<path class="st2" d="M151.2,252.1l48.4,504.6c2,20.7,19.4,36.6,40.3,36.6H741c20.7,0,38.1-15.6,40.2-36.2l53-504.9
		c2.3-21.5-12.8-41-34.3-44.2l-127.7-19c-113.7-16.9-229.3-17.3-343.1-1.1l-143.4,20.4C164.4,211.3,149.2,230.6,151.2,252.1z"/>
	<path class="st3" d="M340.5,223l21.6,132.3c0.9,5.4,8.7,9.6,18,9.6l9.5-1.9c70.7-14,143.5-13.4,213.9,1.9l0,0
		c9.2,0,17-4.1,17.9-9.5L645,223.1c1-5.6-5.7-10.8-15.3-11.6l0,0c-104.5-25.5-187-22.1-272.8,0.2C356.9,211.6,340.5,212.8,340.5,223
		z"/>
	<path class="st4" d="M575.6,349l-0.8-0.2c-27.1-5.9-54.9-8.8-82.7-8.8c-25.4,0-51,2.5-75.9,7.4l-7.9,1.6h-0.8
		c-11.3,0-20.1-5.7-21.4-13.9l-16.4-100.7v-0.6c0-10.2,9.4-15.6,19-16.5c35.8-9.2,69.5-13.7,103.1-13.7c33.7,0,68.4,4.5,105.9,13.6
		c6.6,0.7,12.2,3.5,15.4,7.7c2.3,3.1,3.3,6.7,2.6,10.3l-17.9,100.1c-1.4,8.1-10.2,13.7-21.4,13.7H575.6z"/>
	<path class="st3" d="M377.6,233.7l16.3,100.1c0.7,4.1,6.5,7.3,13.6,7.3l7.2-1.4c53.5-10.6,108.5-10.1,161.8,1.4h0
		c7,0,12.8-3.1,13.6-7.2l17.9-100.1c0.8-4.3-4.3-8.1-11.6-8.8h0c-79-19.3-141.4-16.7-206.4,0.1C390,225.1,377.6,226,377.6,233.7z"/>
	<path class="st5" d="M384.1,236.2l15.4,94.4c0.6,3.9,6.2,6.8,12.8,6.8l6.8-1.3c50.4-10,102.4-9.5,152.6,1.3l0,0
		c6.6,0,12.1-2.9,12.8-6.8l16.9-94.4c0.7-4-4.1-7.7-10.9-8.3h0c-74.5-18.2-133.4-15.7-194.7,0.1C395.8,228,384.1,228.8,384.1,236.2z
		"/>
	<path class="st6" d="M399.2,269.8c-1.2,0.3-2.3,0.7-3.5,1c-3.2-10.6-6.3-21.1-9.5-31.7c1.3-0.4,2.5-0.7,3.8-1.1
		C393.1,248.6,396.2,259.2,399.2,269.8z"/>
	<path class="st6" d="M406.9,267.6c-1.2,0.3-2.3,0.6-3.5,0.9c-2.9-10.6-5.9-21.3-8.8-31.9c1.3-0.3,2.5-0.7,3.8-1
		C401.3,246.3,404.1,257,406.9,267.6z"/>
	<path class="st6" d="M414.7,265.7c-1.2,0.3-2.3,0.6-3.5,0.9c-2.7-10.7-5.4-21.4-8-32.1c1.3-0.3,2.5-0.6,3.8-0.9
		C409.5,244.2,412.1,255,414.7,265.7z"/>
	<path class="st6" d="M422.4,263.9c-1.2,0.3-2.3,0.5-3.5,0.8c-2.4-10.8-4.9-21.5-7.3-32.3c1.3-0.3,2.6-0.6,3.8-0.8
		C417.8,242.4,420.1,253.1,422.4,263.9z"/>
	<path class="st6" d="M430.2,262.3c-1.2,0.2-2.3,0.5-3.5,0.7c-2.2-10.8-4.4-21.6-6.6-32.4c1.3-0.3,2.6-0.5,3.8-0.8
		C426.1,240.7,428.1,251.5,430.2,262.3z"/>
	<path class="st6" d="M438,260.9c-1.2,0.2-2.3,0.4-3.5,0.6c-1.9-10.9-3.9-21.7-5.8-32.6c1.3-0.2,2.6-0.5,3.9-0.7
		C434.4,239.2,436.2,250,438,260.9z"/>
	<path class="st6" d="M445.9,259.7c-1.2,0.2-2.4,0.3-3.5,0.5c-1.7-10.9-3.4-21.8-5.1-32.7c1.3-0.2,2.6-0.4,3.9-0.6
		C442.7,237.9,444.3,248.8,445.9,259.7z"/>
	<path class="st6" d="M453.7,258.7c-1.2,0.1-2.4,0.3-3.5,0.4c-1.4-10.9-2.9-21.9-4.3-32.8c1.3-0.2,2.6-0.3,3.9-0.5
		C451.1,236.8,452.4,247.7,453.7,258.7z"/>
	<path class="st6" d="M461.6,257.8c-1.2,0.1-2.4,0.2-3.5,0.4c-1.2-11-2.4-21.9-3.6-32.9c1.3-0.1,2.6-0.3,3.9-0.4
		C459.5,235.8,460.5,246.8,461.6,257.8z"/>
	<path class="st6" d="M469.5,257.1c-1.2,0.1-2.4,0.2-3.6,0.3c-0.9-11-1.9-22-2.8-33c1.3-0.1,2.6-0.2,3.9-0.3
		C467.9,235.1,468.7,246.1,469.5,257.1z"/>
	<path class="st6" d="M477.4,256.6c-1.2,0.1-2.4,0.1-3.6,0.2c-0.7-11-1.4-22-2.1-33c1.3-0.1,2.6-0.2,3.9-0.2
		C476.3,234.6,476.8,245.6,477.4,256.6z"/>
	<path class="st6" d="M485.3,256.3c-1.2,0-2.4,0.1-3.6,0.1c-0.4-11-0.9-22-1.3-33.1c1.3-0.1,2.6-0.1,3.9-0.1
		C484.7,234.2,485,245.3,485.3,256.3z"/>
	<path class="st6" d="M493.2,256.1c-1.2,0-2.4,0-3.6,0c-0.2-11-0.4-22.1-0.5-33.1c1.3,0,2.6,0,3.9,0
		C493.1,234.1,493.2,245.1,493.2,256.1z"/>
	<path class="st6" d="M501.2,256.2c-1.2,0-2.4,0-3.6,0c0.1-11,0.1-22.1,0.2-33.1c1.3,0,2.6,0,3.9,0
		C501.5,234.1,501.3,245.2,501.2,256.2z"/>
	<path class="st6" d="M509.1,256.4c-1.2,0-2.4-0.1-3.6-0.1c0.3-11,0.6-22,1-33.1c1.3,0,2.6,0.1,3.9,0.1
		C509.9,234.4,509.5,245.4,509.1,256.4z"/>
	<path class="st6" d="M517,256.8c-1.2-0.1-2.4-0.1-3.6-0.2c0.6-11,1.1-22,1.7-33c1.3,0.1,2.6,0.1,3.9,0.2
		C518.3,234.8,517.7,245.8,517,256.8z"/>
	<path class="st6" d="M524.9,257.4c-1.2-0.1-2.4-0.2-3.6-0.3c0.8-11,1.6-22,2.5-33c1.3,0.1,2.6,0.2,3.9,0.3
		C526.7,235.4,525.8,246.4,524.9,257.4z"/>
	<path class="st6" d="M532.8,258.2c-1.2-0.1-2.4-0.3-3.5-0.4c1.1-11,2.2-22,3.2-32.9c1.3,0.1,2.6,0.3,3.9,0.4
		C535.1,236.2,533.9,247.2,532.8,258.2z"/>
	<path class="st6" d="M540.6,259.1c-1.2-0.2-2.4-0.3-3.5-0.4c1.3-10.9,2.7-21.9,4-32.8c1.3,0.2,2.6,0.3,3.9,0.5
		C543.5,237.2,542.1,248.2,540.6,259.1z"/>
	<path class="st6" d="M548.5,260.2c-1.2-0.2-2.4-0.4-3.5-0.5c1.6-10.9,3.2-21.8,4.7-32.7c1.3,0.2,2.6,0.4,3.9,0.6
		C551.9,238.4,550.2,249.3,548.5,260.2z"/>
	<path class="st6" d="M556.3,261.5c-1.2-0.2-2.3-0.4-3.5-0.6c1.8-10.9,3.7-21.8,5.5-32.6c1.3,0.2,2.6,0.4,3.9,0.7
		C560.2,239.8,558.3,250.7,556.3,261.5z"/>
	<path class="st6" d="M564.1,263c-1.2-0.2-2.3-0.5-3.5-0.7c2.1-10.8,4.2-21.7,6.2-32.5c1.3,0.2,2.6,0.5,3.8,0.8
		C568.5,241.4,566.3,252.2,564.1,263z"/>
	<path class="st6" d="M571.9,264.7c-1.2-0.3-2.3-0.5-3.5-0.8c2.3-10.8,4.6-21.6,7-32.3c1.3,0.3,2.6,0.6,3.8,0.8
		C576.8,243.2,574.3,253.9,571.9,264.7z"/>
	<path class="st6" d="M579.7,266.5c-1.2-0.3-2.3-0.6-3.5-0.9c2.6-10.7,5.1-21.4,7.7-32.2c1.3,0.3,2.5,0.6,3.8,0.9
		C585,245.1,582.3,255.8,579.7,266.5z"/>
	<path class="st6" d="M587.4,268.6c-1.2-0.3-2.3-0.6-3.5-0.9c2.8-10.7,5.6-21.3,8.5-32c1.3,0.3,2.5,0.7,3.8,1
		C593.2,247.3,590.3,257.9,587.4,268.6z"/>
	<path class="st6" d="M595.1,270.8c-1.1-0.3-2.3-0.7-3.5-1c3.1-10.6,6.1-21.2,9.2-31.8c1.3,0.4,2.5,0.7,3.8,1.1
		C601.4,249.7,598.2,260.2,595.1,270.8z"/>
	<path class="st6" d="M507.5,288.7c0,6.9-1.2,12.1-3.6,15.5c-2.4,3.4-6.1,5.1-11.1,5.1c-5,0-8.7-1.6-11-4.9
		c-2.4-3.3-3.6-8.2-3.7-14.8v-7.9c0-6.9,1.2-11.9,3.6-15.3c2.4-3.3,6.1-5,11.1-5c5,0,8.7,1.6,11.1,4.8s3.6,8.2,3.7,14.9V288.7z
		 M501.6,280.6c0-5-0.7-8.7-2.1-11c-1.4-2.3-3.6-3.4-6.7-3.4c-3,0-5.2,1.1-6.6,3.4c-1.4,2.3-2.1,5.8-2.1,10.5v9.5
		c0,5,0.7,8.8,2.2,11.2c1.5,2.4,3.7,3.6,6.6,3.6c2.9,0,5.1-1.1,6.5-3.4c1.4-2.3,2.2-5.8,2.2-10.7V280.6z"/>
	<rect x="490.1" y="229.5" class="st7" width="7.1" height="99.4"/>
</g>
<g id="Tape_Measure">
	<path class="st8" d="M162.3,445.3c0,0-19.4,27.8,68.2,65.6c87.5,37.9,202,74.9,371.1,68.2s327.4,3.4,352.6,13.5v53.9
		c0,0-118.7-19.4-233.1-19.4s-244.9,18.5-372.8-5.9c-106.5-20.3-175.6-59-195.8-71.4c-3.9-2.4-6.4-6.5-6.8-11.1
		C144.3,519.1,142.5,465.1,162.3,445.3z"/>
	<polygon class="st6" points="157.4,504.1 156.2,503.5 163.6,489.5 164.8,490.1 	"/>
	<path class="st6" d="M485.4,599.7l-2.6-0.2l1.3-15.8l2.6,0.2L485.4,599.7z M490.8,600.1l1.2-15.8l2.6,0.2l-1.1,15.8L490.8,600.1z
		 M477.5,599.1l-2.6-0.2l1.4-15.8l2.6,0.2L477.5,599.1z M498.8,600.7l1-15.8l2.6,0.2l-1,15.9L498.8,600.7z M469.5,598.3l-2.6-0.3
		l1.5-15.8l2.6,0.3L469.5,598.3z M506.7,601.2l0.9-15.9l2.6,0.1l-0.9,15.9L506.7,601.2z M461.6,597.5l-2.7-0.3l1.7-15.8l2.6,0.3
		L461.6,597.5z M514.7,601.6l0.8-15.9l2.5,0.1l-0.7,15.9L514.7,601.6z M453.6,596.7l-2.6-0.3l1.8-15.8l2.6,0.3L453.6,596.7z
		 M445.7,595.7l-2.6-0.3l2-15.8l2.6,0.3L445.7,595.7z M437.7,594.7l-2.6-0.4l2.1-15.7l2.6,0.4L437.7,594.7z M429.8,593.7l-2.6-0.4
		l2.2-15.7l2.6,0.4L429.8,593.7z M421.9,592.5l-2.6-0.4l2.4-15.7l2.6,0.4L421.9,592.5z M414,591.3l-2.6-0.4l2.6-15.7l2.6,0.4
		L414,591.3z M406.1,590l-2.6-0.4l2.7-15.6l2.6,0.4L406.1,590z M398.2,588.6l-2.6-0.5l2.8-15.6l2.6,0.5L398.2,588.6z M390.3,587.2
		l-2.6-0.5l3-15.6l2.6,0.5L390.3,587.2z M382.4,585.7l-2.6-0.5l3.2-15.6l2.6,0.5L382.4,585.7z M374.6,584l-2.6-0.5l3.3-15.5l2.6,0.5
		L374.6,584z M366.7,582.4l-2.6-0.6l3.4-15.5l2.6,0.6L366.7,582.4z M358.9,580.6l-2.6-0.6l3.6-15.5l2.6,0.6L358.9,580.6z
		 M351.1,578.8l-2.6-0.6l3.8-15.4l2.5,0.6L351.1,578.8z M343.3,576.9l-2.6-0.7l3.9-15.4l2.6,0.6L343.3,576.9z M335.6,574.9l-2.6-0.7
		l4.1-15.3l2.6,0.7L335.6,574.9z M327.8,572.8l-2.6-0.7l4.2-15.3l2.5,0.7L327.8,572.8z M320.1,570.7l-2.6-0.7l4.4-15.3l2.5,0.7
		L320.1,570.7z M312.4,568.4l-2.5-0.8l4.5-15.2l2.5,0.8L312.4,568.4z M304.8,566.1l-2.6-0.8l4.7-15.2l2.5,0.8L304.8,566.1z
		 M297.1,563.7l-2.6-0.8l4.9-15.1l2.5,0.8L297.1,563.7z M289.5,561.3l-2.5-0.8l5-15.1l2.5,0.8L289.5,561.3z M281.9,558.7l-2.5-0.9
		l5.2-15l2.5,0.8L281.9,558.7z M274.3,556.1l-2.5-0.9l5.3-15l2.5,0.9L274.3,556.1z M266.8,553.4l-2.5-0.9l5.5-14.9l2.5,0.9
		L266.8,553.4z M259.3,550.6l-2.5-0.9l5.6-14.8l2.5,0.9L259.3,550.6z M251.8,547.7l-2.5-1l5.8-14.8l2.4,0.9L251.8,547.7z
		 M244.3,544.8l-2.5-1l6-14.7l2.4,1L244.3,544.8z M236.9,541.8l-2.5-1l6.1-14.7l2.4,1L236.9,541.8z M229.5,538.7l-2.4-1l6.2-14.6
		l2.4,1L229.5,538.7z M222.2,535.5l-2.5-1.1l6.4-14.5l2.4,1L222.2,535.5z M214.8,532.3l-2.5-1.1l6.5-14.5l2.4,1.1L214.8,532.3z
		 M207.5,529l-2.4-1.1l6.7-14.4l2.4,1.1L207.5,529z M200.3,525.6l-2.4-1.1l6.8-14.3l2.4,1.1L200.3,525.6z M193,522.2l-2.4-1.2
		l6.9-14.3l2.4,1.1L193,522.2z M185.8,518.7l-2.4-1.2l7-14.2l2.4,1.2L185.8,518.7z M178.7,515.1l-2.4-1.2l7.2-14.2l2.3,1.2
		L178.7,515.1z M171.6,511.5l-2.4-1.2l7.3-14.1l2.3,1.2L171.6,511.5z M164.4,507.8l-2.3-1.2l7.4-14.1l2.3,1.2L164.4,507.8z"/>
	<polygon class="st6" points="522.7,602 523.5,586.1 524.7,586.2 524.1,602 	"/>
	<polygon class="st6" points="533.9,596.9 532.6,596.8 534.3,581 535.7,581.2 	"/>
	<polygon class="st6" points="685.8,600.8 683.1,601 682.1,585.1 684.7,585 	"/>
	<polygon class="st6" points="677.8,601.3 675.1,601.5 674.3,585.6 676.9,585.5 	"/>
	<polygon class="st6" points="669.8,601.8 667.1,601.9 666.4,586 669,585.9 	"/>
	<polygon class="st6" points="661.8,602.1 659.1,602.2 658.5,586.3 661.2,586.2 	"/>
	<polygon class="st6" points="653.8,602.4 651.1,602.4 650.7,586.6 653.3,586.5 	"/>
	<polygon class="st6" points="645.7,602.5 643.1,602.6 642.9,586.7 645.5,586.7 	"/>
	<polygon class="st6" points="637.7,602.6 635.1,602.7 635,586.8 637.6,586.8 	"/>
	<polygon class="st6" points="629.7,602.7 627.1,602.6 627.2,586.8 629.8,586.8 	"/>
	<polygon class="st6" points="621.7,602.6 619.1,602.6 619.3,586.7 621.9,586.7 	"/>
	<polygon class="st6" points="613.7,602.4 611.1,602.4 611.5,586.5 614.1,586.6 	"/>
	<polygon class="st6" points="605.7,602.2 603,602.1 603.6,586.3 606.2,586.4 	"/>
	<polygon class="st6" points="597.7,601.9 595,601.8 595.8,585.9 598.4,586.1 	"/>
	<polygon class="st6" points="589.7,601.5 587,601.4 587.9,585.5 590.5,585.7 	"/>
	<polygon class="st6" points="581.7,601.1 579,600.9 580.1,585.1 582.7,585.2 	"/>
	<polygon class="st6" points="573.7,600.6 571.1,600.4 572.2,584.5 574.8,584.7 	"/>
	<polygon class="st6" points="565.7,600 563.1,599.8 564.4,583.9 567,584.1 	"/>
	<polygon class="st6" points="557.8,599.3 555.1,599.1 556.6,583.3 559.2,583.5 	"/>
	<polygon class="st6" points="549.8,598.6 547.2,598.3 548.7,582.5 551.3,582.8 	"/>
	<polygon class="st6" points="541.9,597.8 539.2,597.5 540.9,581.7 543.5,582 	"/>
	
		<rect x="731" y="582.7" transform="matrix(0.9995 -3.192076e-02 3.192076e-02 0.9995 -18.4795 23.6782)" class="st6" width="2.6" height="15.9"/>
	<polygon class="st6" points="725.4,582.9 726.1,598.8 723.5,598.9 722.8,583 	"/>
	
		<rect x="739" y="582.4" transform="matrix(0.9997 -2.409076e-02 2.409076e-02 0.9997 -14.0079 18.0051)" class="st6" width="2.6" height="15.9"/>
	<polygon class="st6" points="717.4,583.3 718.2,599.1 715.6,599.3 714.8,583.4 	"/>
	
		<rect x="746.9" y="582.3" transform="matrix(0.9999 -1.531475e-02 1.531475e-02 0.9999 -8.9513 11.5277)" class="st6" width="2.6" height="15.9"/>
	
		<rect x="707.3" y="583.7" transform="matrix(0.9984 -5.631267e-02 5.631267e-02 0.9984 -32.1946 40.8411)" class="st6" width="2.6" height="15.9"/>
	<polygon class="st6" points="754.7,582.2 757.4,582.2 757.5,598.1 754.9,598.1 	"/>
	<polygon class="st6" points="701.5,584.2 702.5,600 699.9,600.2 698.8,584.3 	"/>
	<polygon class="st6" points="762.7,582.2 765.4,582.2 765.4,598 762.8,598 	"/>
	<polygon class="st6" points="770.7,582.2 773.4,582.2 773.2,598.1 770.6,598.1 	"/>
	
		<rect x="772" y="588.9" transform="matrix(1.988580e-02 -0.9998 0.9998 1.988580e-02 174.2688 1358.3015)" class="st6" width="15.9" height="2.6"/>
	
		<rect x="779.9" y="589.1" transform="matrix(2.870770e-02 -0.9996 0.9996 2.870770e-02 175.0332 1361.0345)" class="st6" width="15.9" height="2.6"/>
	
		<rect x="787.8" y="589.4" transform="matrix(3.749820e-02 -0.9993 0.9993 3.749820e-02 175.648 1363.7904)" class="st6" width="15.9" height="2.6"/>
	<polygon class="st6" points="802.8,583 805.4,583.2 804.6,599 802,598.9 	"/>
	<polygon class="st6" points="810.8,583.4 813.4,583.6 812.5,599.5 809.9,599.3 	"/>
	<polygon class="st6" points="818.7,583.9 821.4,584.1 820.3,599.9 817.7,599.8 	"/>
	<polygon class="st6" points="826.7,584.5 829.4,584.7 828.2,600.5 825.5,600.3 	"/>
	<polygon class="st6" points="834.7,585.1 837.4,585.3 836,601.1 833.4,600.9 	"/>
	<polygon class="st6" points="842.7,585.8 845.4,586.1 843.8,601.9 841.2,601.6 	"/>
	
		<rect x="843.2" y="593.3" transform="matrix(0.1051 -0.9945 0.9945 0.1051 170.4048 1378.5972)" class="st6" width="15.9" height="2.6"/>
	<polygon class="st6" points="858.6,587.4 861.3,587.8 859.4,603.5 856.8,603.2 	"/>
	<polygon class="st6" points="866.6,588.4 869.2,588.7 867.2,604.5 864.6,604.2 	"/>
	<polygon class="st6" points="874.5,589.4 877.2,589.8 875,605.5 872.4,605.2 	"/>
	<polygon class="st6" points="882.5,590.5 885.1,590.9 882.8,606.6 880.2,606.2 	"/>
	<polygon class="st6" points="890.4,591.7 893,592.1 890.5,607.8 887.9,607.4 	"/>
	<polygon class="st6" points="898.3,593 900.9,593.4 898.3,609.1 895.7,608.6 	"/>
	
		<rect x="898.2" y="601.1" transform="matrix(0.176 -0.9844 0.9844 0.176 153.6457 1388.3096)" class="st6" width="15.9" height="2.6"/>
	<polygon class="st6" points="914.1,595.8 916.7,596.3 913.7,611.9 911.2,611.4 	"/>
	<polygon class="st6" points="922,597.3 924.6,597.8 921.4,613.4 918.9,612.9 	"/>
	<polygon class="st6" points="929.8,598.9 932.4,599.4 929.1,615 926.6,614.4 	"/>
	<polygon class="st6" points="937.6,600.5 940.3,601.1 936.8,616.6 934.2,616.1 	"/>
	<polygon class="st6" points="945.5,602.3 948.1,602.9 944.5,618.4 941.9,617.8 	"/>
	<polygon class="st6" points="953.3,604.1 955.9,604.8 952.1,620.2 949.5,619.6 	"/>
	<polygon class="st6" points="693.5,584.7 694.5,600.5 693.3,600.6 692.1,584.8 	"/>
	<path class="st9" d="M830.5,413.3c0,0,5.9,8.4-41.2,22.7c-47.1,14.3-385.4,191.9-407.3,202.8C360,649.8,159.8,755,42,774.3
		l3.4,72.4c0,0,142.2-28.5,325.7-121.2s190.2-112.8,301.3-165.8c105.5-50.4,122.6-44.5,153.4-69.1c3.3-2.6,5.5-6.4,6.1-10.6
		C834.2,465,839.1,427.3,830.5,413.3z"/>
	
		<rect x="340.4" y="667" transform="matrix(0.8813 -0.4726 0.4726 0.8813 -278.4381 241.6624)" class="st6" width="2.6" height="15.9"/>
	<polygon class="st6" points="339.6,685.1 337.2,686.3 329.9,672.3 332.2,671 	"/>
	<polygon class="st6" points="332.5,688.8 330.1,690 322.9,675.9 325.2,674.7 	"/>
	<polygon class="st6" points="325.3,692.4 323,693.6 315.9,679.4 318.2,678.2 	"/>
	<polygon class="st6" points="318.1,696 315.7,697.1 308.8,682.8 311.2,681.7 	"/>
	<polygon class="st6" points="310.9,699.5 308.5,700.6 301.7,686.2 304.1,685.1 	"/>
	<polygon class="st6" points="303.7,702.9 301.2,704 294.6,689.5 297,688.4 	"/>
	
		<rect x="290.6" y="691.5" transform="matrix(0.9128 -0.4083 0.4083 0.9128 -260.1613 180.1571)" class="st6" width="2.6" height="15.9"/>
	<polygon class="st6" points="289.1,709.4 286.6,710.5 280.3,695.9 282.7,694.9 	"/>
	
		<rect x="404" y="634.3" transform="matrix(0.8719 -0.4896 0.4896 0.8719 -262.5342 280.6822)" class="st6" width="2.6" height="15.9"/>
	<polygon class="st6" points="403.4,652.4 401,653.7 393.4,639.8 395.7,638.5 	"/>
	<polygon class="st6" points="396.3,656.2 394,657.5 386.5,643.5 388.8,642.2 	"/>
	<polygon class="st6" points="389.3,660 386.9,661.2 379.6,647.2 381.9,645.9 	"/>
	<polygon class="st6" points="382.1,663.7 379.8,664.9 372.6,650.7 374.9,649.5 	"/>
	<polygon class="st6" points="375,667.3 372.6,668.5 365.6,654.3 367.9,653.1 	"/>
	<polygon class="st6" points="367.8,670.8 365.4,672 358.5,657.7 360.9,656.6 	"/>
	
		<rect x="354.7" y="659.8" transform="matrix(0.9048 -0.4259 0.4259 0.9048 -250.4572 215.1796)" class="st6" width="2.6" height="15.9"/>
	<polygon class="st6" points="353.3,677.7 350.9,678.8 344.3,664.4 346.7,663.3 	"/>
	
		<rect x="240.3" y="715.6" transform="matrix(0.9055 -0.4243 0.4243 0.9055 -284.1946 170.8991)" class="st6" width="2.6" height="15.9"/>
	<polygon class="st6" points="251,727.9 244.2,713.6 246.5,712.5 253.4,726.8 	"/>
	
		<rect x="233.1" y="719" transform="matrix(0.9088 -0.4172 0.4172 0.9088 -281.8989 164.1044)" class="st6" width="2.6" height="15.9"/>
	<polygon class="st6" points="258.3,724.4 251.3,710.2 253.6,709 260.6,723.3 	"/>
	
		<rect x="225.9" y="722.3" transform="matrix(0.9124 -0.4092 0.4092 0.9124 -278.9023 156.9166)" class="st6" width="2.6" height="15.9"/>
	
		<rect x="261.7" y="705.3" transform="matrix(0.8949 -0.4463 0.4463 0.8949 -290.6363 192.3524)" class="st6" width="2.6" height="15.9"/>
	<polygon class="st6" points="224.4,740.2 222,741.2 215.6,726.7 218,725.6 	"/>
	<polygon class="st6" points="272.5,717.3 265.4,703.1 267.6,702 274.9,716.1 	"/>
	<polygon class="st6" points="217.1,743.3 214.6,744.4 208.4,729.8 210.8,728.8 	"/>
	<polygon class="st6" points="209.7,746.5 207.2,747.5 201.1,732.9 203.5,731.8 	"/>
	
		<rect x="196.8" y="734.8" transform="matrix(0.9263 -0.3768 0.3768 0.9263 -265.2714 129.3913)" class="st6" width="2.6" height="15.9"/>
	
		<rect x="189.4" y="737.7" transform="matrix(0.9296 -0.3686 0.3686 0.9296 -261.4384 122.8124)" class="st6" width="2.6" height="15.9"/>
	
		<rect x="182" y="740.6" transform="matrix(0.9328 -0.3604 0.3604 0.9328 -257.4824 116.3922)" class="st6" width="2.6" height="15.9"/>
	<polygon class="st6" points="180,758.3 177.5,759.3 171.9,744.4 174.4,743.5 	"/>
	<polygon class="st6" points="172.5,761.1 169.9,762.1 164.5,747.1 167,746.2 	"/>
	<polygon class="st6" points="164.9,763.9 162.4,764.8 157.1,749.8 159.6,748.9 	"/>
	<polygon class="st6" points="157.4,766.5 154.9,767.4 149.7,752.4 152.2,751.5 	"/>
	<polygon class="st6" points="149.8,769.1 147.2,769.9 142.3,754.9 144.8,754 	"/>
	<polygon class="st6" points="142.2,771.6 139.6,772.4 134.8,757.3 137.3,756.5 	"/>
	
		<rect x="129.6" y="758.9" transform="matrix(0.955 -0.2965 0.2965 0.955 -221.4666 73.2917)" class="st6" width="2.6" height="15.9"/>
	<polygon class="st6" points="126.9,776.4 124.3,777.2 119.8,761.9 122.3,761.2 	"/>
	<polygon class="st6" points="119.2,778.7 116.6,779.4 112.3,764.1 114.8,763.4 	"/>
	<polygon class="st6" points="111.5,780.9 108.9,781.6 104.7,766.3 107.2,765.6 	"/>
	<polygon class="st6" points="103.7,783 101.2,783.7 97.1,768.3 99.7,767.6 	"/>
	<polygon class="st6" points="96,785 93.5,785.7 89.5,770.3 92.1,769.6 	"/>
	<polygon class="st6" points="88.3,787 85.7,787.6 81.9,772.2 84.5,771.6 	"/>
	
		<rect x="76" y="773.5" transform="matrix(0.9738 -0.2273 0.2273 0.9738 -175.5759 38.0307)" class="st6" width="2.6" height="15.9"/>
	<polygon class="st6" points="72.7,790.7 70,791.3 66.6,775.7 69.2,775.2 	"/>
	<polygon class="st6" points="64.8,792.4 62.2,792.9 58.9,777.4 61.5,776.9 	"/>
	<polygon class="st6" points="57,794 54.4,794.6 51.3,779 53.8,778.5 	"/>
	<polygon class="st6" points="49.1,795.6 46.5,796.1 43.6,780.5 46.1,780 	"/>
	<polygon class="st6" points="279.7,713.6 272.4,699.5 273.5,699 280.9,713 	"/>
	
		<rect x="699.3" y="480.6" transform="matrix(0.8903 -0.4554 0.4554 0.8903 -145.6197 372.7202)" class="st6" width="2.6" height="15.9"/>
	<polygon class="st6" points="691.1,484.5 698.4,498.6 696.1,499.8 688.8,485.8 	"/>
	
		<rect x="706.4" y="477" transform="matrix(0.8938 -0.4485 0.4485 0.8938 -142.3296 368.8963)" class="st6" width="2.6" height="15.9"/>
	<polygon class="st6" points="684,488.3 691.5,502.3 689.2,503.5 681.7,489.5 	"/>
	
		<rect x="713.5" y="473.5" transform="matrix(0.8977 -0.4406 0.4406 0.8977 -138.9964 364.2077)" class="st6" width="2.6" height="15.9"/>
	
		<rect x="678.3" y="491.7" transform="matrix(0.8789 -0.477 0.477 0.8789 -156.0442 384.7273)" class="st6" width="2.6" height="15.9"/>
	<polygon class="st6" points="717.3,471.4 719.7,470.2 726.6,484.6 724.2,485.7 	"/>
	<polygon class="st6" points="670,495.9 677.7,509.8 675.4,511 667.7,497.2 	"/>
	<polygon class="st6" points="724.5,467.9 726.9,466.8 733.7,481.2 731.3,482.3 	"/>
	<polygon class="st6" points="731.8,464.6 734.2,463.4 740.8,477.9 738.4,479 	"/>
	
		<rect x="742.2" y="460" transform="matrix(0.9127 -0.4087 0.4087 0.9127 -126.3149 344.7793)" class="st6" width="2.6" height="15.9"/>
	
		<rect x="749.5" y="456.8" transform="matrix(0.9162 -0.4006 0.4006 0.9162 -123.2911 339.6978)" class="st6" width="2.6" height="15.9"/>
	
		<rect x="756.7" y="453.6" transform="matrix(0.9197 -0.3926 0.3926 0.9197 -120.3471 334.6826)" class="st6" width="2.6" height="15.9"/>
	<polygon class="st6" points="761.1,451.7 763.6,450.6 769.6,465.3 767.2,466.3 	"/>
	<polygon class="st6" points="768.5,448.6 771,447.6 776.9,462.3 774.5,463.3 	"/>
	<polygon class="st6" points="775.9,445.6 778.4,444.7 784.2,459.4 781.8,460.4 	"/>
	<polygon class="st6" points="783.4,442.7 785.9,441.8 791.5,456.6 789.1,457.5 	"/>
	<polygon class="st6" points="790.9,439.9 793.4,438.9 798.9,453.8 796.4,454.8 	"/>
	<polygon class="st6" points="798.4,437.1 800.9,436.2 806.3,451.2 803.8,452 	"/>
	
		<rect x="808.5" y="433.5" transform="matrix(0.9442 -0.3294 0.3294 0.9442 -100.224 291.3849)" class="st6" width="2.6" height="15.9"/>
	<polygon class="st6" points="813.5,431.8 816,430.9 821.1,446 818.6,446.8 	"/>
	<polygon class="st6" points="821.1,429.3 823.6,428.4 828.6,443.5 826.1,444.3 	"/>
	<polygon class="st6" points="828.7,426.8 831.3,426 836,441.1 833.5,441.9 	"/>
	<polygon class="st6" points="663,499.8 670.7,513.7 669.6,514.3 661.8,500.5 	"/>
	
		<rect x="467.5" y="600.9" transform="matrix(0.8747 -0.4847 0.4847 0.8747 -236.366 303.5501)" class="st6" width="2.6" height="15.9"/>
	<polygon class="st6" points="466.8,619 464.5,620.3 456.9,606.3 459.2,605.1 	"/>
	<polygon class="st6" points="459.8,622.8 457.4,624 450,610 452.3,608.8 	"/>
	<polygon class="st6" points="452.6,626.5 450.3,627.7 443,613.6 445.4,612.4 	"/>
	<polygon class="st6" points="445.5,630.2 443.1,631.4 436,617.2 438.4,616 	"/>
	<polygon class="st6" points="438.3,633.8 436,634.9 429,620.7 431.4,619.5 	"/>
	<polygon class="st6" points="431.1,637.3 428.7,638.4 421.9,624.1 424.3,622.9 	"/>
	
		<rect x="418" y="626.1" transform="matrix(0.9071 -0.4208 0.4208 0.9071 -227.8885 235.3543)" class="st6" width="2.6" height="15.9"/>
	<polygon class="st6" points="416.6,644 414.2,645.1 407.7,630.7 410.1,629.6 	"/>
	
		<rect x="530.6" y="567.3" transform="matrix(0.8651 -0.5016 0.5016 0.8651 -216.7753 344.4042)" class="st6" width="2.6" height="15.9"/>
	<polygon class="st6" points="530.1,585.4 527.8,586.8 520,572.9 522.3,571.6 	"/>
	<polygon class="st6" points="523.2,589.4 520.8,590.7 513.1,576.7 515.4,575.5 	"/>
	<polygon class="st6" points="516.1,593.2 513.8,594.5 506.2,580.5 508.6,579.3 	"/>
	<polygon class="st6" points="509,597 506.7,598.3 499.3,584.2 501.7,583 	"/>
	<polygon class="st6" points="502,600.7 499.6,601.9 492.3,587.8 494.7,586.6 	"/>
	<polygon class="st6" points="494.8,604.4 492.4,605.6 485.4,591.4 487.7,590.2 	"/>
	
		<rect x="481.6" y="593.4" transform="matrix(0.8988 -0.4383 0.4383 0.8988 -214.728 272.5337)" class="st6" width="2.6" height="15.9"/>
	<polygon class="st6" points="480.4,611.4 478,612.6 471.2,598.2 473.6,597.1 	"/>
	
		<rect x="594.1" y="536" transform="matrix(0.8747 -0.4848 0.4848 0.8747 -189.0397 356.7926)" class="st6" width="2.6" height="15.9"/>
	<polygon class="st6" points="593.4,554.1 591,555.4 583.5,541.4 585.8,540.1 	"/>
	<polygon class="st6" points="586.3,557.9 584,559.1 576.6,545.1 578.9,543.9 	"/>
	<polygon class="st6" points="579.2,561.6 576.9,562.8 569.6,548.7 571.9,547.5 	"/>
	<polygon class="st6" points="572.1,565.3 569.7,566.5 562.6,552.3 565,551.1 	"/>
	<polygon class="st6" points="564.9,568.8 562.5,570 555.6,555.7 557.9,554.6 	"/>
	<polygon class="st6" points="557.7,572.3 555.3,573.5 548.5,559.1 550.8,558 	"/>
	
		<rect x="544.6" y="561.2" transform="matrix(0.9071 -0.4208 0.4208 0.9071 -188.8085 282.5792)" class="st6" width="2.6" height="15.9"/>
	<polygon class="st6" points="543.2,579.1 540.8,580.2 534.2,565.7 536.6,564.7 	"/>
	
		<rect x="657.2" y="502.4" transform="matrix(0.8651 -0.5015 0.5015 0.8651 -167.1324 399.0899)" class="st6" width="2.6" height="15.9"/>
	<polygon class="st6" points="656.7,520.5 654.4,521.8 646.6,508 648.9,506.7 	"/>
	<polygon class="st6" points="649.7,524.4 647.4,525.7 639.7,511.8 642,510.6 	"/>
	<polygon class="st6" points="642.7,528.3 640.4,529.6 632.8,515.6 635.1,514.3 	"/>
	<polygon class="st6" points="635.6,532.1 633.3,533.3 625.9,519.3 628.2,518 	"/>
	<polygon class="st6" points="628.5,535.8 626.2,537 618.9,522.9 621.3,521.7 	"/>
	<polygon class="st6" points="621.4,539.4 619,540.6 611.9,526.4 614.3,525.3 	"/>
	
		<rect x="608.2" y="528.5" transform="matrix(0.8988 -0.4383 0.4383 0.8988 -173.4625 321.4284)" class="st6" width="2.6" height="15.9"/>
	<polygon class="st6" points="607,546.5 604.6,547.7 597.8,533.3 600.2,532.2 	"/>
	<path class="st6" d="M226.3,776.7l-13.3,6.5l-0.9-1.9l3.2-11.2c0.5-1.7,0.7-3,0.8-3.9c0-0.9-0.1-1.8-0.5-2.6
		c-0.5-1.1-1.3-1.8-2.2-2.1c-1-0.4-2-0.3-3.1,0.2c-1.3,0.6-2.1,1.5-2.5,2.5c-0.4,1.1-0.2,2.3,0.4,3.6l-2.6,1.3
		c-0.9-1.9-1-3.7-0.4-5.4c0.6-1.7,2-3.1,4-4.1c1.9-0.9,3.6-1.1,5.2-0.7s2.8,1.5,3.6,3.2c1,2,0.9,5-0.3,9l-2.6,8.5l10.2-5
		L226.3,776.7z"/>
	<path class="st6" d="M225.3,764.6l-3.9-10.6l10.4-5.1l1.2,2.4l-8.2,4l2.1,5.8c0.7-1.1,1.7-1.9,3-2.5c1.9-0.9,3.6-1,5.3-0.3
		c1.7,0.7,3,2.1,4,4.2c1,2.1,1.3,4,0.7,5.8c-0.5,1.8-1.8,3.1-3.9,4.1c-1.8,0.9-3.5,1.1-5.1,0.6c-1.6-0.4-2.9-1.5-3.9-3.2l2.4-1.2
		c0.7,1.1,1.6,1.8,2.5,2c1,0.3,2,0.1,3.1-0.4c1.2-0.6,1.9-1.5,2.2-2.6c0.3-1.2,0.1-2.4-0.6-3.9c-0.7-1.4-1.6-2.3-2.7-2.7
		c-1.1-0.5-2.3-0.4-3.5,0.2c-1.1,0.5-1.9,1.2-2.3,2l-0.4,0.9L225.3,764.6z"/>
	<path class="st6" d="M333.7,724l-13.4,6.3l-0.9-1.9l3.4-11.2c0.5-1.7,0.8-3,0.8-3.9c0-0.9-0.1-1.8-0.5-2.6
		c-0.5-1.1-1.2-1.8-2.2-2.2c-1-0.4-2-0.3-3.1,0.2c-1.3,0.6-2.1,1.4-2.5,2.5c-0.4,1.1-0.2,2.3,0.4,3.6l-2.6,1.2
		c-0.9-1.9-1-3.7-0.3-5.4c0.7-1.7,2-3.1,4-4c1.9-0.9,3.6-1.1,5.2-0.6c1.6,0.5,2.7,1.5,3.5,3.2c0.9,2,0.8,5-0.5,9l-2.7,8.5l10.3-4.8
		L333.7,724z"/>
	<path class="st6" d="M337.1,697.5l1,2.2l-0.5,0.2c-2,1-3.3,2.3-4,4.1c-0.7,1.7-0.6,3.7,0.2,5.9c0.5-1.7,1.7-3,3.5-3.9
		c1.8-0.8,3.5-0.9,5.1-0.1s2.9,2.1,3.9,4.1c1,2.1,1.2,4.1,0.7,5.9c-0.6,1.8-1.8,3.2-3.7,4.1c-2,0.9-3.9,0.9-5.8,0
		c-1.9-0.9-3.4-2.6-4.5-4.9l-0.5-1c-1.8-3.8-2.3-7-1.6-9.8c0.7-2.7,2.6-4.9,5.7-6.4L337.1,697.5z M338,708.3c-0.9,0.4-1.6,1.1-2.1,2
		c-0.5,0.9-0.7,1.8-0.6,2.7l0.4,1c0.8,1.7,1.8,2.9,3,3.5c1.2,0.7,2.4,0.7,3.6,0.2c1.2-0.5,1.9-1.4,2.2-2.6c0.3-1.2,0.1-2.5-0.6-3.9
		c-0.7-1.4-1.5-2.4-2.6-2.9C340.2,707.8,339.1,707.8,338,708.3z"/>
	<path class="st6" d="M430.9,676.6l-13.3,6.5l-0.9-1.9l3.2-11.2c0.5-1.7,0.7-3,0.7-3.9s-0.1-1.8-0.5-2.6c-0.5-1.1-1.3-1.8-2.2-2.1
		c-1-0.4-2-0.3-3.1,0.2c-1.3,0.6-2.1,1.5-2.5,2.6c-0.4,1.1-0.2,2.3,0.4,3.6l-2.6,1.3c-0.9-1.9-1.1-3.7-0.4-5.4s2-3.1,4-4.1
		c1.9-0.9,3.6-1.2,5.2-0.7c1.6,0.5,2.8,1.5,3.6,3.1c1,2,0.9,5-0.3,9l-2.5,8.6l10.2-5L430.9,676.6z"/>
	<path class="st6" d="M437.5,650.1l0.8,22.9l-2.7,1.3l-0.5-22.3l-11,5.4l-1-2.1l13.7-6.7L437.5,650.1z"/>
	<path class="st6" d="M534.9,618.4l-12.7,7.5l-1.1-1.8l2.3-11.5c0.3-1.7,0.5-3,0.4-4c0-0.9-0.3-1.8-0.7-2.5c-0.6-1-1.4-1.7-2.4-1.9
		c-1-0.3-2-0.1-3,0.5c-1.2,0.7-2,1.6-2.2,2.7c-0.3,1.1,0,2.3,0.7,3.5l-2.5,1.5c-1.1-1.8-1.3-3.6-0.8-5.4c0.5-1.8,1.7-3.3,3.6-4.4
		c1.8-1.1,3.5-1.4,5.1-1.1c1.6,0.3,2.9,1.3,3.8,2.8c1.1,1.9,1.3,4.9,0.4,9l-1.9,8.7l9.8-5.8L534.9,618.4z"/>
	<path class="st6" d="M540.8,595.5c0.6,1,0.8,2,0.8,3c-0.1,1.1-0.4,2.1-1,3c1.3-0.2,2.5,0,3.5,0.5c1.1,0.5,1.9,1.3,2.6,2.3
		c1,1.7,1.2,3.4,0.7,5c-0.5,1.7-1.7,3.1-3.6,4.1c-1.9,1.1-3.7,1.5-5.4,1.2c-1.7-0.3-3.1-1.3-4.1-3c-0.6-1-0.9-2.2-0.8-3.4
		c0.1-1.2,0.5-2.3,1.2-3.3c-1.1,0.1-2.1-0.1-3.1-0.6s-1.7-1.2-2.3-2.1c-1-1.6-1.2-3.2-0.7-4.8c0.5-1.6,1.6-2.9,3.3-3.9
		c1.7-1,3.4-1.4,5-1C538.5,592.9,539.8,593.9,540.8,595.5z M544.2,605.8c-0.6-1.1-1.5-1.8-2.6-2c-1.1-0.3-2.2-0.1-3.3,0.6
		c-1.1,0.7-1.8,1.5-2.1,2.6c-0.3,1.1-0.1,2.2,0.6,3.3c0.7,1.1,1.5,1.8,2.5,2c1,0.2,2.1,0,3.3-0.7c1.2-0.7,1.9-1.5,2.2-2.6
		C545,607.9,544.8,606.9,544.2,605.8z M533.1,595.6c-1,0.6-1.6,1.3-1.8,2.3c-0.2,1-0.1,1.9,0.6,3c0.6,1,1.4,1.6,2.3,1.9
		c1,0.3,1.9,0.1,2.9-0.5c1-0.6,1.6-1.4,1.8-2.3c0.2-1,0.1-1.9-0.5-2.9s-1.4-1.6-2.4-1.9C535,594.9,534.1,595.1,533.1,595.6z"/>
	<path class="st6" d="M637.7,564.1l-13.3,6.6l-0.9-1.8l3.2-11.2c0.5-1.7,0.7-3,0.7-3.9c0-0.9-0.1-1.8-0.5-2.6
		c-0.5-1.1-1.3-1.8-2.2-2.1c-1-0.4-2-0.3-3.1,0.2c-1.3,0.6-2.1,1.5-2.4,2.6c-0.3,1.1-0.2,2.3,0.4,3.6l-2.6,1.3
		c-0.9-1.9-1.1-3.7-0.4-5.4c0.6-1.7,2-3.1,4-4.1c1.9-0.9,3.6-1.2,5.2-0.7c1.6,0.4,2.8,1.5,3.6,3.1c1,2,0.9,5-0.3,9l-2.5,8.6l10.2-5
		L637.7,564.1z"/>
	<path class="st6" d="M645.9,549c-0.2,0.9-0.6,1.7-1.2,2.5c-0.6,0.8-1.3,1.4-2.2,1.8c-1.2,0.6-2.3,0.8-3.5,0.6
		c-1.2-0.1-2.2-0.6-3.2-1.4c-1-0.8-1.8-1.8-2.4-3.1c-0.7-1.4-1-2.7-1-4c0-1.3,0.3-2.5,1-3.6c0.7-1,1.6-1.9,2.9-2.5c2-1,4-1,5.8-0.1
		c1.9,0.9,3.5,2.7,4.8,5.3l0.4,0.8c1.9,3.9,2.6,7.2,1.9,9.8c-0.7,2.6-2.6,4.7-5.7,6.3l-0.5,0.2l-1.1-2.2l0.5-0.3
		c2.1-1.1,3.5-2.4,4.1-4.1C647.2,553.3,646.9,551.3,645.9,549z M641.9,550.9c0.9-0.4,1.5-1.1,2-2c0.5-0.9,0.7-1.8,0.6-2.7l-0.5-1
		c-0.8-1.7-1.9-2.9-3.1-3.6c-1.3-0.7-2.4-0.8-3.6-0.2c-1.1,0.6-1.8,1.4-2.1,2.6s0,2.5,0.7,3.9c0.7,1.4,1.6,2.4,2.7,2.9
		C639.7,551.5,640.8,551.5,641.9,550.9z"/>
	<path class="st6" d="M732.4,506l2-0.8c1.2-0.5,2.1-1.3,2.5-2.2c0.4-0.9,0.4-2,0-3c-1-2.4-2.8-3.1-5.2-2.1c-1.1,0.5-1.9,1.2-2.3,2.1
		c-0.4,0.9-0.4,1.9,0.1,3l-2.6,1.1c-0.7-1.6-0.7-3.3,0.1-4.9c0.7-1.6,2-2.8,3.9-3.6c2-0.8,3.7-1,5.3-0.4c1.6,0.6,2.7,1.8,3.5,3.6
		c0.4,0.9,0.5,1.9,0.2,3c-0.2,1.1-0.8,2.1-1.6,2.9c1.3-0.1,2.4,0.1,3.4,0.7c1,0.6,1.7,1.5,2.2,2.7c0.8,1.9,0.8,3.6,0,5.2
		c-0.8,1.6-2.1,2.8-4.1,3.7c-2,0.8-3.8,1-5.4,0.4c-1.7-0.5-2.9-1.7-3.6-3.4l2.7-1.1c0.5,1.1,1.2,1.8,2.2,2.2c1,0.4,2.1,0.3,3.3-0.2
		c1.3-0.5,2.1-1.3,2.5-2.2c0.4-1,0.3-2.1-0.2-3.3c-0.5-1.2-1.3-2-2.3-2.3c-1-0.3-2.2-0.2-3.6,0.4l-2,0.8L732.4,506z"/>
	<path class="st6" d="M759.2,498c1.3,3.1,1.8,5.6,1.3,7.6c-0.4,2-1.8,3.4-4,4.4c-2.2,0.9-4.2,0.9-5.9-0.1c-1.7-1-3.2-3-4.4-5.9
		l-1.5-3.5c-1.3-3.1-1.7-5.6-1.3-7.5c0.4-1.9,1.8-3.4,4-4.3c2.2-0.9,4.2-0.9,5.9,0.1c1.7,1,3.1,3,4.4,5.9L759.2,498z M755,495.5
		c-0.9-2.2-1.9-3.7-3-4.5c-1.1-0.8-2.3-0.8-3.6-0.3c-1.4,0.6-2.1,1.5-2.3,2.8c-0.2,1.3,0.2,3,1,5.1l1.8,4.2c1,2.2,2,3.8,3.1,4.6
		c1.1,0.8,2.3,0.9,3.6,0.4c1.3-0.6,2.1-1.5,2.3-2.7s-0.1-3-1-5.2L755,495.5z"/>
	<path class="st6" d="M177.6,529l-15.1,16.3l-2.2-0.9l14.8-15.6l-8.9-3.9l0.9-2.2l11.2,4.8L177.6,529z"/>
	<path class="st6" d="M178.5,552.3l-2.1-0.9l7.6-17.6l-5.1,0.1l1-2.4l7.2-0.2l0.3,0.1L178.5,552.3z"/>
	<path class="st6" d="M274,569.6l-15.4,17l-2.9-0.9l15.2-16.3l-11.6-3.8l0.7-2.2l14.5,4.8L274,569.6z"/>
	<path class="st6" d="M284.6,595.1l-14.1-4.6l0.6-2l10.1-5.8c1.5-0.9,2.6-1.7,3.3-2.3c0.7-0.6,1.1-1.4,1.4-2.2
		c0.4-1.1,0.3-2.1-0.1-3.1c-0.4-0.9-1.2-1.6-2.4-2c-1.4-0.4-2.5-0.4-3.5,0.1c-1,0.5-1.7,1.5-2.2,2.9l-2.7-0.9c0.6-2,1.8-3.4,3.5-4.2
		c1.7-0.8,3.6-0.9,5.7-0.2c2,0.7,3.4,1.7,4.2,3.1c0.8,1.4,0.9,3,0.4,4.7c-0.7,2.1-2.9,4.2-6.5,6.2l-7.8,4.4l10.8,3.5L284.6,595.1z"
		/>
	<path class="st6" d="M390.1,598.6l-12.7,17.1l-3-0.5l12.5-16.5l-12-2.2l0.4-2.1l15,2.8L390.1,598.6z"/>
	<path class="st6" d="M396,607.4l2.1,0.4c1.3,0.2,2.4,0.1,3.3-0.4c0.9-0.5,1.4-1.3,1.6-2.3c0.4-2.4-0.6-3.8-3.2-4.3
		c-1.2-0.2-2.3-0.1-3.1,0.4s-1.4,1.3-1.6,2.3l-2.8-0.5c0.3-1.6,1.2-2.8,2.7-3.7c1.5-0.8,3.2-1.1,5.2-0.7c2.1,0.4,3.6,1.2,4.6,2.4
		c1,1.2,1.3,2.7,1,4.5c-0.2,0.9-0.6,1.7-1.4,2.4c-0.8,0.7-1.7,1.2-2.9,1.4c1.2,0.6,2,1.3,2.5,2.3c0.5,0.9,0.7,2,0.4,3.2
		c-0.3,1.8-1.3,3.1-2.7,4s-3.3,1.1-5.4,0.7c-2.1-0.4-3.7-1.2-4.8-2.5c-1.1-1.3-1.5-2.8-1.2-4.4l2.8,0.5c-0.2,1.1,0,2,0.7,2.8
		c0.6,0.8,1.6,1.3,2.9,1.5c1.4,0.3,2.5,0.1,3.3-0.4c0.8-0.5,1.4-1.4,1.6-2.6c0.2-1.2,0-2.2-0.7-2.9c-0.7-0.8-1.8-1.3-3.3-1.6
		l-2.1-0.4L396,607.4z"/>
	<path class="st6" d="M627.3,607.9l-9.4,15.6h-3l9.3-15h-12.2v-1.7h15.3V607.9z"/>
	<path class="st6" d="M641.9,606.7v1.8h-0.5c-2.2,0-4,0.5-5.3,1.5c-1.3,1-2.1,2.3-2.3,4c1.2-1,2.8-1.5,4.9-1.5c2,0,3.5,0.5,4.7,1.5
		c1.2,1,1.8,2.4,1.8,4c0,1.7-0.6,3.1-1.9,4.1c-1.3,1-3,1.6-5.1,1.6c-2.2,0-3.9-0.6-5.3-1.8c-1.3-1.2-2-2.8-2-4.8v-0.8
		c0-3.1,0.9-5.4,2.7-7.1c1.8-1.6,4.4-2.5,7.9-2.5H641.9z M638.1,614.2c-1,0-1.9,0.2-2.7,0.7c-0.8,0.4-1.4,1-1.7,1.6v0.8
		c0,1.4,0.4,2.5,1.3,3.3c0.8,0.8,1.9,1.3,3.1,1.3c1.3,0,2.3-0.4,3-1.1c0.7-0.7,1.1-1.6,1.1-2.8c0-1.2-0.4-2.1-1.1-2.8
		C640.3,614.6,639.3,614.2,638.1,614.2z"/>
	<path class="st6" d="M747.3,606.1l-9.4,14.2h-3l9.3-13.7h-12.2V605h15.3V606.1z"/>
	<path class="st6" d="M765.2,606.1l-9.4,14.2h-3l9.3-13.7h-12.2V605h15.3V606.1z"/>
</g>
</svg>
