<svg height="439pt" viewBox="0 -8 439.06543 439" width="439pt" xmlns="http://www.w3.org/2000/svg"><path d="m318.28125 28.613281c1.867188 17.554688-10.839844 33.308594-28.394531 35.199219l-7.949219.855469 27.375 254.535156c.933594 8.777344-5.417969 16.652344-14.191406 17.601563l-206.777344 22.296874c-8.777344.933594-16.652344-5.417968-17.601562-14.195312l-27.398438-254.535156-7.960938.855468c-17.554687 1.867188-33.308593-10.835937-35.199218-28.390624-1.890625-17.558594 10.800781-33.332032 28.359375-35.238282l254.535156-27.386718c17.5625-1.867188 33.3125 10.84375 35.203125 28.402343zm0 0" fill="#d69f44"/><path d="m438.398438 136.996094c-3.601563 17.300781-20.550782 28.40625-37.855469 24.800781l-7.832031-1.601563-52.253907 250.578126c-1.808593 8.648437-10.28125 14.195312-18.929687 12.390624l-203.625-42.449218c-4.160156-.859375-7.804688-3.339844-10.136719-6.890625s-3.152344-7.886719-2.285156-12.042969l52.246093-250.609375-7.832031-1.601563c-17.300781-3.601562-28.40625-20.550781-24.796875-37.855468 3.601563-17.300782 20.550782-28.40625 37.855469-24.796875l250.613281 52.253906c17.300782 3.589844 28.417969 20.523437 24.832032 37.824219zm0 0" fill="#ecaf4a"/><path d="m221.648438 152.386719c4.589843-12.085938 14.605468-21.304688 27.03125-24.878907 10.660156-2.609374 21.773437-2.757812 32.496093-.433593 26.082031 4.398437 49.785157 17.828125 66.960938 37.9375 7.039062 7.964843 11.667969 17.765625 13.34375 28.265625.523437 10.105468-1.015625 20.210937-4.519531 29.703125-4.394532 14.550781-9.761719 29.816406-21.601563 39.359375-7.566406 6.105468-16.75 9.601562-21.457031 18.761718-2.929688 6.46875-3.828125 13.679688-2.574219 20.671876.9375 6.984374 3 13.773437 4.246094 20.710937 2.226562 9.96875 1.410156 20.371094-2.34375 29.871094-3.5 7.214843-8.785157 13.414062-15.351563 18.015625-14.621094 10.265625-32.136718 15.59375-50 15.199218-17.773437-.4375-35.296875-4.277343-51.621094-11.316406-14.515624-5.90625-29.601562-14.953125-34.082031-29.96875-3.769531-12.722656 1.128907-25.785156 5.28125-37.738281 3.894531-11.199219 8.710938-22.039063 12-33.4375 2.71875-12.394531 6.964844-24.402344 12.648438-35.746094 3.816406-6.566406 8.839843-12.390625 12.359375-19.109375 4.871094-10.492187 7.484375-21.886718 7.671875-33.449218 1.183593-11.292969 4.40625-22.277344 9.511719-32.417969zm0 0" fill="#d69f44"/><path d="m210.96875 136.722656c4.582031-12.101562 14.609375-21.335937 27.046875-24.910156 10.65625-2.613281 21.765625-2.757812 32.488281-.433594 26.082032 4.386719 49.789063 17.816406 66.960938 37.9375 7.046875 7.972656 11.671875 17.789063 13.34375 28.296875.527344 10.105469-1.011719 20.210938-4.519532 29.703125-4.394531 14.550782-9.761718 29.816406-21.601562 39.359375-7.558594 6.105469-16.75 9.601563-21.457031 18.761719-2.925781 6.46875-3.824219 13.671875-2.574219 20.664062.9375 6.992188 3.007812 13.773438 4.253906 20.71875 2.222656 9.964844 1.402344 20.367188-2.351562 29.863282-3.492188 7.214844-8.773438 13.421875-15.335938 18.023437-14.617187 10.269531-32.136718 15.59375-50 15.199219-17.769531-.4375-35.292968-4.277344-51.613281-11.316406-14.511719-5.90625-29.601563-14.953125-34.089844-29.976563-3.765625-12.722656 1.128907-25.777343 5.289063-37.738281 3.886718-11.199219 8.703125-22.03125 12-33.4375 2.734375-12.382812 6.992187-24.378906 12.671875-35.714844 3.824219-6.558594 8.800781-12.382812 12.367187-19.109375 4.863282-10.492187 7.476563-21.886719 7.664063-33.449219 1.160156-11.296874 4.363281-22.289062 9.457031-32.441406zm0 0" fill="#e9f0f1"/><path d="m71.078125 55.507812h16v16h-16zm0 0" fill="#d18b29"/><path d="m87.078125 223.507812h16v16h-16zm0 0" fill="#d18b29"/><g fill="#ecaf4a"><path d="m8.914062 144.359375 15.910157-1.710937 16.351562 152.003906-15.910156 1.710937zm0 0"/><path d="m26.988281 312.363281 15.910157-1.710937 1.722656 16-15.90625 1.714844zm0 0"/><path d="m370.996094 381.875 30.023437-144 15.660157 3.265625-30.019532 144zm0 0"/></g><path d="m301.3125 191.507812c0 17.671876-14.328125 32-32 32s-32-14.328124-32-32c0-17.671874 14.328125-32 32-32s32 14.328126 32 32zm0 0" fill="#ffc018"/><path d="m261.3125 303.507812c0 17.671876-14.328125 32-32 32s-32-14.328124-32-32c0-17.671874 14.328125-32 32-32s32 14.328126 32 32zm0 0" fill="#ffc018"/><path d="m232.785156 286.019531c-1.90625-3.296875-7.796875-3.460937-13.160156-.363281-5.367188 3.097656-8.171875 8.28125-6.265625 11.578125 1.902344 3.296875 7.796875 3.460937 13.160156.363281s8.167969-8.28125 6.265625-11.578125zm0 0" fill="#fbea95"/><path d="m271.019531 174.003906c-1.90625-3.300781-7.796875-3.464844-13.164062-.367187-5.363281 3.097656-8.167969 8.285156-6.261719 11.582031 1.902344 3.296875 7.792969 3.460938 13.160156.363281 5.363282-3.097656 8.167969-8.28125 6.265625-11.578125zm0 0" fill="#fbea95"/></svg>