<?xml version="1.0" encoding="iso-8859-1"?>
<!-- Generator: Adobe Illustrator 19.0.0, SVG Export Plug-In . SVG Version: 6.00 Build 0)  -->
<svg version="1.1" id="Capa_1" xmlns="http://www.w3.org/2000/svg" xmlns:xlink="http://www.w3.org/1999/xlink" x="0px" y="0px"
	 viewBox="0 0 512 512" style="enable-background:new 0 0 512 512;" xml:space="preserve">
<g>
	<path style="fill:#D6D6D6;" d="M303.77,512c-65.861,0-123.688-44.386-140.623-107.938c-1.096-4.116,1.35-8.343,5.467-9.439
		c4.11-1.097,8.341,1.35,9.439,5.467c15.138,56.808,66.833,96.484,125.715,96.484c34.748,0,67.42-13.534,91.994-38.108
		c24.576-24.565,38.109-57.236,38.109-91.995l-0.001-177.936c0-4.26,3.453-7.714,7.714-7.714c4.26,0,7.714,3.454,7.714,7.714
		l0.001,177.936c0,38.881-15.139,75.426-42.629,102.904C379.184,496.862,342.639,512,303.77,512z"/>
	<path style="fill:#D6D6D6;" d="M29.796,274.998c-2.936,0-5.743-1.686-7.033-4.536c-9.232-20.397-13.911-42.169-13.911-64.714
		V89.962c0-37.758,30.719-68.476,68.476-68.476c4.261,0,7.714,3.454,7.714,7.714s-3.453,7.714-7.714,7.714
		c-29.251,0-53.049,23.798-53.049,53.049v115.787c0,20.336,4.219,39.969,12.539,58.354c1.757,3.88,0.034,8.451-3.847,10.208
		C31.939,274.777,30.858,274.998,29.796,274.998z"/>
	<path style="fill:#D6D6D6;" d="M302.099,275.008c-1.064,0-2.144-0.221-3.177-0.688c-3.88-1.757-5.603-6.326-3.846-10.208
		c8.321-18.386,12.54-38.022,12.54-58.364V89.962c0-29.251-23.798-53.049-53.049-53.049c-4.261,0-7.714-3.454-7.714-7.714
		s3.453-7.714,7.714-7.714c37.758,0,68.476,30.719,68.476,68.476v115.787c0,22.551-4.682,44.327-13.912,64.725
		C307.841,273.323,305.035,275.008,302.099,275.008z"/>
</g>
<g>
	<path style="fill:#26B57E;" d="M148.663,29.199c0,16.127-26.01,29.199-42.137,29.199S77.327,45.325,77.327,29.199
		c0-3.147,0.494-6.171,1.419-8.999C82.542,8.485,93.546,0,106.526,0c12.979,0,32.377,8.485,39.432,20.199
		C147.675,23.028,148.663,26.052,148.663,29.199z"/>
	<path style="fill:#26B57E;" d="M254.566,29.199c0,16.127-13.072,29.199-29.199,29.199S183.24,45.325,183.24,29.199
		c0-3.147,0.987-6.171,2.705-8.999C193.001,8.485,212.388,0,225.367,0s23.984,8.485,27.779,20.199
		C254.072,23.028,254.566,26.052,254.566,29.199z"/>
</g>
<g>
	<path style="fill:#2FCC93;" d="M145.958,20.199c-7.055,11.725-26.442,20.199-39.432,20.199s-23.995-8.475-27.779-20.199
		C82.542,8.485,93.546,0,106.526,0C119.505,0,138.902,8.485,145.958,20.199z"/>
	<path style="fill:#2FCC93;" d="M253.146,20.199c-3.785,11.725-14.79,20.199-27.779,20.199s-32.377-8.475-39.422-20.199
		C193.001,8.485,212.388,0,225.367,0S249.351,8.485,253.146,20.199z"/>
</g>
<circle style="fill:#EAEAEA;" cx="441.581" cy="132.109" r="61.567"/>
<circle style="fill:#D6D6D6;" cx="441.581" cy="132.109" r="31.861"/>
<path style="fill:#2FCC93;" d="M303.792,268.305c-9.656-6.46-22.676-3.657-28.842,6.105
	c-23.785,37.661-64.531,60.146-108.999,60.146c-34.403,0-66.753-13.399-91.09-37.727c-6.798-6.798-12.825-14.336-17.91-22.403
	c-6.155-9.763-19.165-12.579-28.825-6.137c-9.414,6.279-11.669,19.13-5.595,28.676c6.634,10.426,14.45,20.164,23.243,28.957
	c28.196,28.185,64.544,45.245,103.716,48.987v11.379c0,9.089,7.367,16.456,16.456,16.456l0,0c9.089,0,16.456-7.367,16.456-16.456
	v-11.378c51.903-4.963,98.476-33.279,126.923-77.89C315.418,287.468,313.209,274.605,303.792,268.305z"/>
<path style="fill:#26B57E;" d="M311.75,278.976c-10.069-4.906-22.668-1.851-28.849,7.261
	c-25.517,37.663-69.238,60.146-116.949,60.146c-36.912,0-71.624-13.401-97.737-37.725c-7.292-6.798-13.761-14.337-19.212-22.411
	c-6.171-9.123-18.78-12.177-28.859-7.271c1.337-4.237,4.021-8.043,7.981-10.686c9.657-6.449,22.668-3.631,28.828,6.13
	c5.081,8.074,11.108,15.612,17.906,22.411c24.344,24.324,56.69,37.725,91.093,37.725c44.472,0,85.21-22.483,108.999-60.146
	c6.161-9.76,19.181-12.568,28.839-6.109C307.738,270.944,310.423,274.749,311.75,278.976z"/>
<g>
</g>
<g>
</g>
<g>
</g>
<g>
</g>
<g>
</g>
<g>
</g>
<g>
</g>
<g>
</g>
<g>
</g>
<g>
</g>
<g>
</g>
<g>
</g>
<g>
</g>
<g>
</g>
<g>
</g>
</svg>
