<?xml version="1.0" encoding="utf-8"?>
<!-- Generator: Adobe Illustrator 21.1.0, SVG Export Plug-In . SVG Version: 6.00 Build 0)  -->
<svg version="1.1" id="Layer_1" xmlns="http://www.w3.org/2000/svg" xmlns:xlink="http://www.w3.org/1999/xlink" x="0px" y="0px"
	 viewBox="0 0 1365.6 768.4" style="enable-background:new 0 0 1365.6 768.4;" xml:space="preserve">
<style type="text/css">
	.st0{fill:#F5FEFE;}
	.st1{fill:#EBFCFE;}
	.st2{fill:#FFBABA;}
	.st3{fill:#FFA6A6;}
	.st4{fill:#F27405;}
	.st5{fill:#E36B00;}
	.st6{fill:#05A3F2;}
	.st7{fill:#0597DE;}
	.st8{fill:#05DBF2;}
	.st9{fill:#05C4D9;}
	.st10{fill:#F53737;}
	.st11{fill:#DB3232;}
	.st12{fill:#3BDBED;}
	.st13{fill:#21C6D9;}
	.st14{fill:#37E2F5;}
	.st15{fill:#04A4B5;}
	.st16{fill:#87A4A8;}
	.st17{fill:#69E9F7;}
	.st18{fill:#E3FCFF;}
	.st19{fill:#414042;}
	.st20{fill:#323133;}
	.st21{fill:#C92D2D;}
	.st22{fill:#FF6161;}
	.st23{fill:#E6E7E8;}
	.st24{fill:#A7A9AC;}
	.st25{fill:#6E038C;}
	.st26{fill:#FFFFFF;}
	.st27{fill:#F1F2F2;}
	.st28{fill:#FFDCDC;}
</style>
<g>
	<g>
		<rect x="0" y="0" class="st0" width="1365.6" height="768.1"/>
	</g>
	<g>
		<path class="st1" d="M1002.7,134.4c-43.5,0.5-133.7,20.9-166.2,85.1c-32.2,63.6,28.4,193.8,187.8,77.9
			C1133.2,218.2,1060.1,133.7,1002.7,134.4z"/>
	</g>
	<g>
		<g>
			<path class="st1" d="M239.7,651.4c-21.8-9.1-108.6,15.5-109.8,60.8c-1.2,45.3,113.3,25.1,120.9-15.5
				C258.4,656.2,239.7,651.4,239.7,651.4z"/>
		</g>
	</g>
	<g>
		<g>
			<path class="st1" d="M401.5,152.5c-51.8,62.2-18.2,103,38.5,100.7c56.6-2.3,122.4-26,149.3-99.2
				C612.5,91.2,474.7,64.7,401.5,152.5z"/>
		</g>
	</g>
	<g>
		<g>
			<path class="st1" d="M1141.6,688.5c0,0,190.4-120,186.3-264.5c-5.1-180.4-235.8-113.5-424.6-11.6
				C675.3,535.7,660.4,563.8,660.4,563.8s201-238.4,124.8-325.3c-111.6-127.2-331.7,90.3-331.7,90.3S397,225.3,289.9,274.3
				C130.6,347.2,4,545.3,62.5,622.1c51.3,67.3,271.5-40.8,271.5-40.8s-81.1,100.6-4.3,186.9l766,0L1141.6,688.5z"/>
		</g>
	</g>
	<g>
		<path class="st2" d="M944.1,768.1V377.4c0,0,16.1-7.8,28.5-30.5c8.6-15.8,12.1-28.2,12.1-36.8s-15.1-41.7-12.5-66.6
			c2.6-24.9,12.5-32.5,12.5-32.5s-37.8-8.8-55.6,60l-25.6,6.1l-11.4-12.4l-16.9,32.6l-21.8,35.4c0,0,5.6,30.8,29.9,45.3v390.1H944.1
			z"/>
	</g>
	<g>
		<path class="st3" d="M865.7,350.3l-3.7-32.3l45.2-71l22,24.1c13-77.1,55.6-60,55.6-60s-28.2,1.7-37.4,42.3
			c-9.2,40.6,14.9,42.5,15.5,66.5c0.6,24.1-7.7,42.8-63.2,35.3C877.1,352.1,869.5,357.5,865.7,350.3z"/>
	</g>
	<g>
		<path class="st2" d="M577.7,315.5c2.7,5.7-4.8,18.6-20,26.4c-12.2,6.3-29.9,7.9-34.1,0c-4.4-8.1,7.4-21.1,22.8-27.4
			C562.2,308,575.2,310.1,577.7,315.5z"/>
	</g>
	<g>
		<path class="st3" d="M577.7,315.5c-0.1-0.2-0.2-0.3-0.3-0.5c-3.2,8.9-10.5,20.1-27,26c-14,5.1-14.4-13.1-13.9-21.3
			c-10.1,6.7-16.3,15.9-12.9,22.2c4.2,7.9,21.9,6.3,34.1,0C572.9,334.1,580.4,321.2,577.7,315.5z"/>
	</g>
	<g>
		<path class="st2" d="M423.1,768.1v-277c0,0-16.1-7.8-28.5-30.5c-8.6-15.8-12.1-28.2-12.1-36.8c0-8.5,15.1-41.7,12.5-66.6
			c-2.6-24.9-12.5-32.5-12.5-32.5s32.5-9.8,43.3,24.9l10.8,70.5l36.1,15.4l20,6.6l21,4.3c0,0-5.6,30.8-29.9,45.3v276.4H423.1z"/>
	</g>
	<g>
		<path class="st3" d="M501.5,464l-28.8-28.4l-36.1-15.4l-10.8-70.5c-10.8-34.8-43.3-24.9-43.3-24.9s28.2,1.7,37.4,42.3
			c9.2,40.6-29.6,36.9-30.2,61c-0.6,24.1,24.9,65.1,80.4,57.6C492.6,482.6,497.7,471.2,501.5,464z"/>
	</g>
	<g>
		<path class="st2" d="M1108.3,768.1V638.9c0,0-16.1-7.8-28.5-30.5c-8.6-15.8-12.1-28.2-12.1-36.8c0-8.5,15.1-41.7,12.5-66.6
			c-2.6-24.9-12.5-32.5-12.5-32.5s32.5-9.8,43.3,24.9l10.8,70.5l36.1,15.4l20,6.6l21,4.3c0,0-5.6,30.8-29.9,45.3v128.6H1108.3z"/>
	</g>
	<g>
		<path class="st3" d="M1186.7,611.8l-28.8-28.4l-36.1-15.4l-10.8-70.5c-10.8-34.8-43.3-24.9-43.3-24.9s28.2,1.7,37.4,42.3
			c9.2,40.6-29.6,36.9-30.2,61c-0.6,24.1,24.9,65.1,80.4,57.6C1177.8,630.3,1182.9,618.9,1186.7,611.8z"/>
	</g>
	<g>
		<path class="st2" d="M813.9,532.4c2.7,5.7-4.8,18.6-20,26.4c-12.2,6.3-29.9,7.9-34.1,0c-4.4-8.1,7.4-21.1,22.8-27.4
			C798.4,525,811.3,527.1,813.9,532.4z"/>
	</g>
	<g>
		<path class="st3" d="M813.9,532.4c-0.1-0.2-0.2-0.3-0.3-0.5c-3.2,8.9-10.5,20.1-27,26c-14,5.1-14.4-13.1-13.9-21.3
			c-10.1,6.7-16.3,15.9-12.9,22.2c4.2,7.9,21.9,6.3,34.1,0C809,551,816.6,538.1,813.9,532.4z"/>
	</g>
	<g>
		<path class="st2" d="M657.8,768.1v-62.9c0,0-16.1-7.8-28.5-30.5c-8.6-15.8-12.1-28.2-12.1-36.8c0-8.5,15.1-41.7,12.5-66.6
			c-2.6-24.9-12.5-32.5-12.5-32.5s32.5-9.8,43.3,24.9l10.8,70.5l36.1,15.4l20,6.6l21,4.3c0,0-5.6,30.8-29.9,45.3v62.2H657.8z"/>
	</g>
	<g>
		<path class="st3" d="M740.9,659.9l-33.6-10l-36.1-15.4l-10.8-70.5c-10.8-34.8-43.3-24.9-43.3-24.9s28.2,1.7,37.4,42.3
			c9.2,40.6-29.6,36.9-30.2,61c-0.6,24.1,27.3,69.5,80.8,53C732.9,686.6,737.1,667,740.9,659.9z"/>
	</g>
	<g>
		<path class="st2" d="M141.2,393.8c-4.9,3.9-3.9,18.8,6.3,32.5c8.2,11.1,23.3,20.2,30.6,15.1c7.5-5.4,2.7-22.2-8.4-34.7
			C158.4,393.9,145.9,390.1,141.2,393.8z"/>
	</g>
	<g>
		<path class="st3" d="M141.2,393.8c0.1-0.1,0.3-0.2,0.5-0.3c-1,9.4,0.6,22.6,12.7,35.3c10.4,10.8,18.7-5.3,21.9-13
			c6.1,10.5,7.6,21.5,1.8,25.6c-7.3,5.2-22.4-4-30.6-15.1C137.4,412.6,136.3,397.7,141.2,393.8z"/>
	</g>
	<g>
		<path class="st2" d="M257.3,768.1V577.7c0,0,16.1-7.8,28.5-30.5c8.6-15.8,12.1-28.2,12.1-36.8c0-8.5-15.1-41.7-12.5-66.6
			c2.6-24.9,12.5-32.5,12.5-32.5s-32.5-9.8-43.3,24.9l-10.8,70.5l-36.1,15.4l-20,6.6l-21,4.3c0,0,5.6,30.8,29.9,45.3v189.7H257.3z"
			/>
	</g>
	<g>
		<path class="st3" d="M173.2,534.6l34.6-12.3l36.1-15.4l10.8-70.5c10.8-34.8,43.3-24.9,43.3-24.9s-28.2,1.7-37.4,42.3
			c-9.2,40.6,29.6,36.9,30.2,61c0.6,24.1-25.2,67.5-80.4,57.6C183.5,567.4,177,541.8,173.2,534.6z"/>
	</g>
	<g>
		<polygon class="st4" points="181.8,768.1 188.5,605 265.9,607.9 277.4,768.1 		"/>
	</g>
	<g>
		<path class="st5" d="M220.4,747.6c-17.3-14.9-6.5-34.9,5.1-71c6-18.7-19.7-63-26-71.1l-10.9-0.4l-6.8,163.1h95.7l-1.5-20.5
			C257.1,750.3,232.1,757.7,220.4,747.6z"/>
	</g>
	<g>
		<polygon class="st6" points="406.5,768.1 414.4,508 492.8,510.6 517.9,768.1 		"/>
	</g>
	<g>
		<path class="st7" d="M515.7,745.4c-53.8,16.3-85.4-23.9-93.8-61.4c-8.8-39.1,4.5-64,18.2-114.2c9-33.1-2.7-52.1-11.7-61.3l-14-0.5
			l-7.9,260.1h111.4L515.7,745.4z"/>
	</g>
	<g>
		<polygon class="st8" points="649.2,768.1 651.4,727 725.9,727 731.9,768.1 		"/>
	</g>
	<g>
		<path class="st9" d="M649.2,768.1h32.3c-13.4-13.7-17.3-32.5-18.4-41.1h-11.6L649.2,768.1z"/>
	</g>
	<g>
		<polygon class="st6" points="865.7,768.1 874.5,393.8 952.7,397.3 979.3,768.1 		"/>
	</g>
	<g>
		<path class="st7" d="M977.9,747.9c-44.3,30.3-61.6-9.1-60-47.2c1.6-39.5-26.2-36.9-31.5-80.9c-5.2-44.1,3.8-74,10.4-145.2
			c4.6-49.5-3.2-71.4-8.3-80.1l-13.9-0.6l-8.8,374.4h113.6L977.9,747.9z"/>
	</g>
	<g>
		<polygon class="st10" points="1095.7,768.1 1101.9,655.5 1176.1,656.5 1193.1,768.1 		"/>
	</g>
	<g>
		<path class="st11" d="M1124.1,688.5c2.2-17.6-3.1-27.5-8.1-32.8l-14.1-0.2l-6.2,112.6h35.8
			C1107.3,738.9,1120.7,715.2,1124.1,688.5z"/>
	</g>
	<g>
		<g>
			<polygon class="st12" points="472.5,221.3 437.6,226.8 407.4,486.6 508.3,504.1 560.1,248 498,228.6 473.7,224.4 			"/>
		</g>
		<g>
			<polygon class="st13" points="441.2,251.2 546.6,266.6 503,496.9 413.6,481.4 			"/>
		</g>
		<g>
			<polygon class="st14" points="496,172 493.4,188 500.5,195.5 516.9,195.6 519.1,192.4 522.6,172.6 512.5,170.1 504,170.5 			"/>
		</g>
		<g>
			<polygon class="st15" points="487.7,175.4 528.9,182.6 538.6,152.1 489.7,145.9 			"/>
		</g>
		<g>
			<polygon class="st15" points="431.2,281.5 549.9,298.6 551.1,292.6 432.3,272 			"/>
		</g>
		<g>
			<polygon class="st15" points="428.3,306.2 544.6,324.9 545.5,320.5 429.4,297.4 			"/>
		</g>
		<g>
			<g>
				<path class="st16" d="M461.1,437.5l33.1-200.9c0,0-10.3-5.8-11.2-6.6c-0.8-0.8-13.2-2.3-13.2-2.3l-14.5,2.1l-24.2,204.4
					L461.1,437.5z"/>
			</g>
			<g>
				<polygon class="st16" points="429.8,445 424.5,489.6 451.7,494.3 458.5,453.1 				"/>
			</g>
		</g>
		<g>
			<polygon class="st17" points="519.1,192.4 493.4,188 437.6,226.8 560.1,248 			"/>
		</g>
		<g>
			<polygon class="st18" points="498.9,188.9 455.3,229.9 494.2,236.6 506.2,190.2 			"/>
		</g>
	</g>
	<g>
		<g>
			<g>
				
					<rect x="673.8" y="256.1" transform="matrix(0.5757 -0.8177 0.8177 0.5757 164.4333 852.4571)" class="st17" width="459.5" height="23.5"/>
			</g>
		</g>
		<g>
			<path class="st13" d="M975.1,177.1l-10.1-17L817.4,369.9c-19.7,50.3-27.4,80,29-20.8c76.5-136.9,105.8-148.8,116.2-144.7
				l12.2-17.3L975.1,177.1z"/>
		</g>
		<g>
			<path class="st13" d="M800.2,435.1c-2.2-2.3-12.4-13.2-16.6-17.2l-21.8,31l4,2.8c11.7-13.8,21.2-8.7,25.8-4.5L800.2,435.1z"/>
		</g>
		<g>
			<polygon class="st19" points="827.6,427.2 806.4,456.3 755.8,416.7 779.9,390.6 804.3,407.4 827.6,423.7 			"/>
		</g>
		<g>
			<path class="st20" d="M821.3,435.8l6.2-8.6l0-3.5l-23.4-16.3l-24.4-16.9l-15.1,16.4C786.9,408.9,811.2,427.3,821.3,435.8z"/>
		</g>
		<g>
			<polygon class="st19" points="878.8,408.1 848.9,449.6 758.8,381.6 787.6,346.8 818.6,361.1 861.8,389.6 			"/>
		</g>
		<g>
			<path class="st20" d="M787.6,346.8l-17.9,21.7c34.8,3.5,84.9,38.2,101.4,50.3l7.7-10.6l-17-18.5l-43.3-28.5L787.6,346.8z"/>
		</g>
		<g>
			<polygon class="st19" points="899.8,430.7 933.9,384 801.4,303.7 769.3,340 			"/>
		</g>
		<g>
			<path class="st13" d="M1030.2,75.9l-3.9-2.8l-15.1,21.5l4.5,7.9l13.6,7.1l9.3-13.2C1035,93.3,1028.7,86.2,1030.2,75.9z"/>
		</g>
		<g>
			<polygon class="st19" points="1030.9,137.6 1050.7,107.6 995.8,74.1 979.8,105.9 1004.2,122.8 1027.7,138.9 			"/>
		</g>
		<g>
			<path class="st20" d="M1036.3,129.5c-11.7-5.5-38.3-19.4-49.6-37.3l-6.9,13.7l24.4,16.9l23.4,16.1l3.3-1.3L1036.3,129.5z"/>
		</g>
		<g>
			<polygon class="st19" points="1031.1,192.4 1059.3,149.7 964.1,89.4 941.6,128.5 965.9,152.5 1007.8,182.9 			"/>
		</g>
		<g>
			<path class="st20" d="M950.9,112.3l-9.3,16.2l24.3,23.9l41.9,30.5l23.3,9.4l7.3-11C1020.5,172.9,969.9,146.5,950.9,112.3z"/>
		</g>
		<g>
			<polygon class="st19" points="1059.6,204 1027.9,252.4 906.1,156.6 928.8,113.8 			"/>
		</g>
	</g>
	<g>
		<g>
			<path class="st19" d="M708.1,548.2l-6.1-0.5c2.5-30.2,19.1-44.5,19.9-45.1l3.9,4.7C725.7,507.4,710.4,520.7,708.1,548.2z"/>
		</g>
		<g>
			<path class="st13" d="M656.3,461.1c0,0,63.3-0.9,50.3,59.7C706.7,520.7,653,527.3,656.3,461.1z"/>
		</g>
		<g>
			<path class="st10" d="M705.1,548c0,0,32.4-31.7,71-5c39.7,27.5-17,153.9-71.2,123c0,0-12.1,8.8-23.4,5
				c-16.6-5.6-51.8-43.3-48.5-97.8C636.4,514.1,695.7,528.3,705.1,548z"/>
		</g>
		<g>
			<path class="st21" d="M706.9,649.7c0,0-29.5,31.2-52.8-28.9c-23.3-59.9-0.7-85.9-0.5-86c-10.8,5.4-19.4,17.1-20.6,38.4
				c-3.2,54.5,32,92.2,48.5,97.8c11.3,3.8,23.4-5,23.4-5c10.6,6,21.4,6,31.5,1.9C714.6,666.8,706.9,649.7,706.9,649.7z"/>
		</g>
		<g>
			<g>
				<path class="st22" d="M779.2,574.2c-0.6-12-4.7-22.6-14.8-28.4c-23.5-13.4-51.8,5.1-51.8,5.1s23.5-8.5,45.2,6.5
					c5.8,4,8.6,12,9.7,21.4L779.2,574.2z"/>
			</g>
			<g>
				<path class="st22" d="M768.1,588.4c0.2,21.1-5.5,44.1-5.5,44.1c7-10.8,15.7-32.2,16.7-51.7L768.1,588.4z"/>
			</g>
		</g>
	</g>
	<g>
		<g>
			<polygon class="st19" points="204.2,399.7 202.9,414.7 220.6,418.6 225.3,401.1 212.4,398.2 207.2,398.8 			"/>
		</g>
		<g>
			<polygon class="st19" points="251.2,423.1 242.6,431.9 246.9,436.6 258.1,426.7 254.9,423.3 252.7,422.9 			"/>
		</g>
		<g>
			<polygon class="st19" points="176.2,406.5 180.3,418.1 174.4,420.6 168.4,406.9 172.7,405.1 174.9,405.7 			"/>
		</g>
		<g>
			
				<ellipse transform="matrix(0.2161 -0.9764 0.9764 0.2161 -303.1299 566.1093)" class="st10" cx="201" cy="471.8" rx="60.1" ry="60.1"/>
		</g>
		<g>
			
				<ellipse transform="matrix(0.2161 -0.9764 0.9764 0.2161 -303.1298 566.1094)" class="st23" cx="201" cy="471.8" rx="52" ry="52"/>
		</g>
		<g>
			
				<rect x="205.2" y="430.6" transform="matrix(0.2164 -0.9763 0.9763 0.2164 -256.9813 543.1444)" class="st19" width="9.4" height="2.2"/>
		</g>
		<g>
			
				<rect x="161.1" y="458.6" transform="matrix(0.2161 -0.9764 0.9764 0.2161 -325.1341 521.5577)" class="st19" width="2.2" height="9.4"/>
		</g>
		<g>
			
				<rect x="178" y="432.8" transform="matrix(0.8432 -0.5376 0.5376 0.8432 -207.1056 164.8637)" class="st19" width="2.2" height="9.4"/>
		</g>
		<g>
			
				<rect x="161.9" y="492.7" transform="matrix(0.8433 -0.5375 0.5375 0.8433 -239.2803 166.9391)" class="st19" width="9.4" height="2.2"/>
		</g>
		<g>
			<polygon class="st10" points="197.8,384.6 196.5,400 230.4,406.6 237.2,392 			"/>
		</g>
		<g>
			<polygon class="st10" points="252,411.2 246.2,418.2 260.3,432.9 268.5,428.1 			"/>
		</g>
		<g>
			<polygon class="st10" points="180.4,395.4 182.7,404.2 163.8,411.5 158.3,403.7 			"/>
		</g>
		<g>
			<path class="st24" d="M163.7,508.1c5.5,5.6,12.3,10.1,20,12.8l68.6-57.1c-2.3-14.7-10.9-27.9-23.5-35.9L163.7,508.1z"/>
		</g>
		<g>
			<path class="st24" d="M204.1,523.8l39.2-21.7c4-5.5,6.9-11.9,8.5-19c0.5-2.1,0.8-4.2,1-6.3l-60.6,46.3
				C196.2,523.8,200.2,524,204.1,523.8z"/>
		</g>
		<g>
			<polygon class="st19" points="227.1,440.9 196.9,470.9 207.5,494.1 204.7,472.7 			"/>
		</g>
		<g>
			
				<rect x="187.5" y="510.2" transform="matrix(0.2163 -0.9763 0.9763 0.2163 -348.5088 588.3604)" class="st19" width="9.4" height="2.2"/>
		</g>
		<g>
			
				<rect x="240.8" y="476.2" transform="matrix(0.2161 -0.9764 0.9764 0.2161 -279.9233 613.1)" class="st19" width="2.2" height="9.4"/>
		</g>
		<g>
			
				<rect x="221.8" y="501.5" transform="matrix(0.8432 -0.5377 0.5377 0.8432 -237.206 199.2315)" class="st19" width="2.2" height="9.4"/>
		</g>
		<g>
			
				<rect x="230.7" y="448.8" transform="matrix(0.8432 -0.5375 0.5375 0.8432 -204.944 197.029)" class="st19" width="9.4" height="2.2"/>
		</g>
	</g>
	<g>
		<path class="st2" d="M1262.9,463.2c2.7,5.7-4.8,18.6-20,26.4c-12.2,6.3-29.9,7.9-34.1,0c-4.4-8.1,7.4-21.1,22.8-27.4
			C1247.4,455.8,1260.4,457.8,1262.9,463.2z"/>
	</g>
	<g>
		<path class="st3" d="M1262.9,463.2c-0.1-0.2-0.2-0.3-0.3-0.5c-3.2,8.9-10.5,20.1-27,26c-14,5.1-14.4-13.1-13.9-21.3
			c-10.1,6.7-16.3,15.9-12.9,22.2c4.2,7.9,21.9,6.3,34.1,0C1258.1,481.8,1265.6,468.9,1262.9,463.2z"/>
	</g>
	<g>
		<g>
			<g>
				<path class="st19" d="M1047.6,393.5c0,0,43.8-39.4,111-31.2c0,0-3.6,40.5,6.6,63.4c10.2,22.9,48.8,30.5,48.8,30.5
					s3,69.3,15.6,120.2c12.6,50.9,55.3,79,48.2,102.7l-48.8-17.2l-70.4-50.9l-43.7-71.4l-39.6-74.3l-20.8-34.4c0,0-4-24.8-4.1-25.9
					c-0.1-1.1-0.9-10.8-0.9-10.8L1047.6,393.5z"/>
			</g>
			<g>
				<path class="st25" d="M1208.2,646.9l20.8,15l48.8,17.2c4-13.4-8-28.2-21.4-47.8C1243.6,630.5,1226.2,633.1,1208.2,646.9z"/>
			</g>
			<g>
				<path class="st25" d="M1100.4,470.4c31-45.5,12.8-86,1.2-104c-33.8,9.1-53.9,27.2-53.9,27.2l1.8,0.8c0,0,0.8,9.7,0.9,10.8
					c0.1,0.9,2.9,18.6,3.8,24.2L1100.4,470.4z"/>
			</g>
			<g>
				
					<rect x="1186.8" y="496.1" transform="matrix(0.9982 -5.917005e-02 5.917005e-02 0.9982 -27.3495 72.1337)" class="st26" width="35" height="3.6"/>
			</g>
			<g>
				
					<rect x="1194" y="549.4" transform="matrix(0.9982 -5.917005e-02 5.917005e-02 0.9982 -30.4901 72.6527)" class="st26" width="35" height="3.6"/>
			</g>
			<g>
				
					<rect x="1205.2" y="579" transform="matrix(0.9778 -0.2094 0.2094 0.9778 -94.5857 268.3958)" class="st26" width="29.6" height="3.6"/>
			</g>
			<g>
				<path class="st10" d="M1127.6,442.2l-6.6,16.2c0,0,21.9,18.6,34.2,50.7c13.5,35.1,30.9,93.5,75.7,110.1c0,0-28.4-17.8-43.4-52.4
					C1171.2,529.7,1173.4,489.9,1127.6,442.2z"/>
			</g>
			<g>
				<path class="st27" d="M1046.2,391.2c-17.4-9.9-68.2,8.3-54.2,40.8c14,32.5,58.5,50.8,81.1,73.5c22.6,22.6,49.3,74.8,65.7,98.8
					c26.2,38.3,53.8,70.4,103,88.7c58,21.5,57.3-18.4,31.4-20.5c-28.9-2.3-64.4-21.9-102.4-72.6c-32.6-43.4-46.8-103.1-72.5-146.2
					C1067.2,401.4,1058.3,398.1,1046.2,391.2z"/>
			</g>
			<g>
				<path class="st23" d="M1288.7,691.9c-64.3,3.3-99.5-43.1-160.6-134.2c-63.6-94.9-76.6-78.1-107.3-107.8
					c-30.7-29.8-5.5-57.8-5.5-57.8c-16.9,6.3-31.6,20.5-23.3,40c14,32.5,58.5,50.8,81.1,73.5c22.6,22.6,49.3,74.8,65.7,98.8
					c26.2,38.3,53.8,70.4,103,88.7C1270.2,703.5,1284.5,699.2,1288.7,691.9z"/>
			</g>
		</g>
		<g>
			<path class="st25" d="M1214,456.2c0,0-38.6-7.6-48.8-30.5c-10.2-22.9-6.6-63.4-6.6-63.4c-4.3-0.5-8.5-0.8-12.6-1
				c-2.8,17.4-5.9,61.3,26.7,87c14.6,11.5,29.1,16.5,41.8,18.3C1214.2,460.1,1214,456.2,1214,456.2z"/>
		</g>
	</g>
	<g>
		<path class="st28" d="M1241.7,497.9c2.7,5.7-4.8,18.6-20,26.4c-12.2,6.3-29.9,7.9-34.1,0c-4.4-8.1,7.4-21.1,22.8-27.4
			C1226.2,490.4,1239.2,492.5,1241.7,497.9z"/>
	</g>
	<g>
		<path class="st2" d="M1196.1,527.3c-6.4-1.7-8.6-6.9-9.3-8.9c-0.4,2.1-0.2,4.1,0.7,5.8c4.2,7.9,21.9,6.3,34.1,0
			c13.4-6.9,20.9-17.8,20.5-24.2C1231.9,516,1203.4,529.3,1196.1,527.3z"/>
	</g>
	<g>
		<path class="st28" d="M1241.7,528.1c2.7,5.7-4.8,18.6-20,26.4c-12.2,6.3-29.9,7.9-34.1,0c-4.4-8.1,7.4-21.1,22.8-27.4
			C1226.2,520.7,1239.2,522.7,1241.7,528.1z"/>
	</g>
	<g>
		<path class="st2" d="M1242.2,530.2c-7.2,7.8-23.8,23.8-39.7,26.4c-10.8,1.8-14.8-1.7-15.9-5.8c0,1.3,0.3,2.6,0.9,3.7
			c4.2,7.9,21.9,6.3,34.1,0C1235.2,547.6,1242.7,536.6,1242.2,530.2z"/>
	</g>
	<g>
		<path class="st28" d="M1241.7,558.4c2.7,5.7-4.8,18.6-20,26.4c-12.2,6.3-29.9,7.9-34.1,0c-4.4-8.1,7.4-21.1,22.8-27.4
			C1226.2,550.9,1239.2,553,1241.7,558.4z"/>
	</g>
	<g>
		<path class="st2" d="M1221.7,584.8c13.7-7.1,21.2-18.3,20.5-24.6c-6.7,7.6-22,23.2-36.1,24.3c-11.7,0.9-16.9-2.9-19.1-5.9
			c-0.5,2.2-0.4,4.3,0.6,6.2C1191.8,592.7,1209.5,591.1,1221.7,584.8z"/>
	</g>
	<g>
		<path class="st28" d="M556.5,350.1c2.7,5.7-4.8,18.6-20,26.4c-12.2,6.3-29.9,7.9-34.1,0c-4.4-8.1,7.4-21.1,22.8-27.4
			C541,342.7,554,344.7,556.5,350.1z"/>
	</g>
	<g>
		<path class="st2" d="M510.9,379.6c-6.4-1.7-8.6-6.9-9.3-8.9c-0.4,2.1-0.2,4.1,0.7,5.8c4.2,7.9,21.9,6.3,34.1,0
			c13.4-6.9,20.9-17.8,20.5-24.2C546.7,368.3,518.2,381.5,510.9,379.6z"/>
	</g>
	<g>
		<path class="st28" d="M556.5,380.4c2.7,5.7-4.8,18.6-20,26.4c-12.2,6.3-29.9,7.9-34.1,0c-4.4-8.1,7.4-21.1,22.8-27.4
			C541,372.9,554,375,556.5,380.4z"/>
	</g>
	<g>
		<path class="st2" d="M557,382.5c-7.2,7.8-23.8,23.8-39.7,26.4c-10.8,1.8-14.8-1.7-15.9-5.8c0,1.3,0.3,2.6,0.9,3.7
			c4.2,7.9,21.9,6.3,34.1,0C550,399.8,557.5,388.8,557,382.5z"/>
	</g>
	<g>
		<path class="st28" d="M556.5,410.7c2.7,5.7-4.8,18.6-20,26.4c-12.2,6.3-29.9,7.9-34.1,0c-4.4-8.1,7.4-21.1,22.8-27.4
			C541,403.2,554,405.3,556.5,410.7z"/>
	</g>
	<g>
		<path class="st2" d="M536.5,437.1c13.7-7.1,21.2-18.3,20.5-24.6c-6.7,7.6-22,23.2-36.1,24.3c-11.7,0.9-16.9-2.9-19.1-5.9
			c-0.5,2.2-0.4,4.3,0.6,6.2C506.6,444.9,524.3,443.4,536.5,437.1z"/>
	</g>
	<g>
		<path class="st28" d="M894.2,196.5c-5.2,3.5-5.5,18.4,3.4,32.9c7.2,11.7,21.5,22.2,29.2,17.7c8-4.7,4.6-21.9-5.3-35.2
			C911.3,198.2,899.1,193.2,894.2,196.5z"/>
	</g>
	<g>
		<path class="st2" d="M917.9,245.3c6.3,1.8,10.9-1.4,12.5-2.8c-0.7,2-1.9,3.6-3.6,4.6c-7.7,4.5-22-5.9-29.2-17.7
			c-7.9-12.9-8.6-26.1-5-31.3C893.1,217.1,910.7,243.2,917.9,245.3z"/>
	</g>
	<g>
		<path class="st28" d="M878.3,220.2c-5.2,3.5-5.5,18.4,3.4,32.9c7.2,11.7,21.5,22.2,29.2,17.7c8-4.7,4.6-21.9-5.3-35.2
			C895.4,221.9,883.3,216.9,878.3,220.2z"/>
	</g>
	<g>
		<path class="st2" d="M902,269c6.3,1.8,10.9-1.4,12.5-2.8c-0.7,2-1.9,3.6-3.6,4.6c-7.7,4.5-22-5.9-29.2-17.7
			c-7.9-12.9-8.6-26.1-5-31.3C877.2,240.9,894.8,266.9,902,269z"/>
	</g>
	<g>
		<path class="st28" d="M862.6,246.1c-5.2,3.5-5.5,18.4,3.4,32.9c7.2,11.7,21.5,22.2,29.2,17.7c8-4.7,4.6-21.9-5.3-35.2
			C879.7,247.8,867.6,242.8,862.6,246.1z"/>
	</g>
	<g>
		<path class="st2" d="M861.1,247.7c2.2,10.4,8.1,32.7,20.2,43.2c8.3,7.2,13.5,6.2,16.6,3.2c-0.7,1.1-1.6,2-2.7,2.7
			c-7.7,4.5-22-5.9-29.2-17.7C858.1,266.1,857.4,252.9,861.1,247.7z"/>
	</g>
	<g>
		<path class="st28" d="M847,272c-5.2,3.5-5.5,18.4,3.4,32.9c7.2,11.7,21.5,22.2,29.2,17.7c8-4.7,4.6-21.9-5.3-35.2
			C864.1,273.7,851.9,268.7,847,272z"/>
	</g>
	<g>
		<path class="st2" d="M850.4,305c-8.1-13.2-8.6-26.7-4.8-31.7c1.8,10,6.8,31.3,18.3,39.5c9.6,6.9,16,6.3,19.4,4.8
			c-0.7,2.2-1.9,3.9-3.7,5C871.9,327.2,857.6,316.7,850.4,305z"/>
	</g>
	<g>
		<path class="st28" d="M810.1,570.7c1.6,6.1-8.3,17.3-24.7,22.1c-13.2,3.9-30.8,2-33.5-6.5c-2.8-8.8,11.3-19.3,27.6-22.5
			C796.3,560.4,808.7,564.9,810.1,570.7z"/>
	</g>
	<g>
		<path class="st2" d="M759.8,590.9c-5.9-2.9-7.1-8.4-7.4-10.5c-0.8,2-1,3.9-0.4,5.8c2.7,8.5,20.3,10.4,33.5,6.5
			c14.5-4.2,23.9-13.5,24.8-19.8C797.1,586.7,766.5,594.2,759.8,590.9z"/>
	</g>
	<g>
		<path class="st28" d="M802.5,598.8c1.6,6.1-8.3,17.3-24.7,22.1c-13.2,3.9-30.8,2-33.5-6.5c-2.8-8.8,11.3-19.3,27.6-22.5
			C788.7,588.5,801,593,802.5,598.8z"/>
	</g>
	<g>
		<path class="st2" d="M802.6,600.9c-8.6,6.2-27.9,18.8-44,18.4c-11-0.3-14.2-4.5-14.5-8.8c-0.2,1.3-0.2,2.6,0.2,3.8
			c2.7,8.5,20.3,10.4,33.5,6.5C792.4,616.6,801.8,607.2,802.6,600.9z"/>
	</g>
	<g>
		<path class="st28" d="M796.7,628.5c1.6,6.1-8.3,17.3-24.7,22.1c-13.2,3.9-30.8,2-33.5-6.5c-2.8-8.8,11.3-19.3,27.6-22.5
			C782.9,618.2,795.2,622.7,796.7,628.5z"/>
	</g>
	<g>
		<path class="st2" d="M772,650.6c14.8-4.3,24.3-13.9,24.8-20.2c-8,6.2-26,18.6-40.1,17c-11.7-1.3-16-6.1-17.6-9.4
			c-0.9,2.1-1.2,4.2-0.6,6.2C741.2,652.6,758.8,654.4,772,650.6z"/>
	</g>
	<g>
		<path class="st28" d="M117.9,449c-1.8,6,7.5,17.7,23.7,23.2c13,4.4,30.7,3.4,33.7-5c3.1-8.7-10.4-19.8-26.6-23.7
			C132.2,439.3,119.7,443.3,117.9,449z"/>
	</g>
	<g>
		<path class="st2" d="M167.3,471.4c6-2.6,7.5-8.1,7.9-10.1c0.7,2,0.8,4,0.2,5.9c-3,8.4-20.7,9.5-33.7,5
			c-14.3-4.9-23.3-14.6-23.9-20.9C130.3,465.5,160.4,474.4,167.3,471.4z"/>
	</g>
	<g>
		<path class="st28" d="M122.4,478.9c-1.8,6,7.5,17.7,23.7,23.2c13,4.4,30.7,3.4,33.7-5c3.1-8.7-10.4-19.8-26.6-23.7
			C136.6,469.3,124.1,473.2,122.4,478.9z"/>
	</g>
	<g>
		<path class="st2" d="M122.2,481.1c8.3,6.6,27.1,20,43.1,20.3c11,0.2,14.3-3.9,14.8-8.1c0.2,1.3,0.1,2.6-0.4,3.8
			c-3,8.4-20.7,9.5-33.7,5C131.7,497.2,122.7,487.4,122.2,481.1z"/>
	</g>
	<g>
		<path class="st28" d="M126.8,508.8c-1.8,6,7.5,17.7,23.7,23.2c13,4.4,30.7,3.4,33.7-5c3.1-8.7-10.4-19.8-26.6-23.7
			C141.1,499.2,128.6,503.1,126.8,508.8z"/>
	</g>
	<g>
		<path class="st2" d="M150.5,532c-14.6-5-23.7-15-23.9-21.3c7.7,6.6,25.2,19.7,39.3,18.7c11.8-0.8,16.3-5.4,18-8.6
			c0.8,2.1,1,4.2,0.3,6.2C181.2,535.4,163.5,536.5,150.5,532z"/>
	</g>
	<g>
		<polygon class="st26" points="1177.8,768.4 1162.2,656.4 1165.8,656.4 1181.3,767.9 		"/>
	</g>
	<g>
		<polygon class="st26" points="950.9,768.2 932.1,396.4 935.7,396.5 954.5,768 		"/>
	</g>
	<g>
		<polygon class="st26" points="709.3,768.3 706.6,727 710.2,727 712.9,768 		"/>
	</g>
	<g>
		<polygon class="st26" points="482,768.2 468.9,509.8 472.5,510 485.6,768 		"/>
	</g>
	<g>
		<polygon class="st26" points="211.7,767.9 208.1,767.9 209,605.8 212.7,605.8 		"/>
	</g>
</g>
</svg>
