<svg id="Capa_1" data-name="Capa 1" xmlns="http://www.w3.org/2000/svg" viewBox="0 0 2367.24 1065.11"><defs><style>.cls-1{fill:#fef3f9;}.cls-2{fill:#fadaea;}.cls-3{fill:#f6a311;}.cls-4{fill:#2a265a;}.cls-5{fill:#e6846e;}.cls-6{fill:#c6c6c6;}.cls-7{fill:#f4a391;}.cls-8{fill:#fff;}.cls-9{fill:#312783;}.cls-10{fill:#fbbf4e;}.cls-11{fill:none;stroke:#312783;stroke-linecap:round;stroke-linejoin:round;stroke-width:2px;}.cls-12{fill:#804429;}.cls-13{fill:#a8613e;}.cls-14{fill:#006e6a;}.cls-15{fill:#00a19a;}</style></defs><title>Image 30.A [Converted]</title><rect class="cls-1" x="-202.7" y="-248.76" width="2788.89" height="1613.55"/><ellipse class="cls-2" cx="1818.69" cy="900.69" rx="189.12" ry="45.01"/><circle class="cls-3" cx="1399.82" cy="237.46" r="18.95"/><polygon class="cls-4" points="1478.16 898.51 1477.16 889.02 1451.46 872.11 1424.07 895.86 1478.16 898.51"/><path class="cls-4" d="M1424.07,895.86c-2.29-2.92-16.19-32.51-14.76-35.33s13.76-10.87,14.76-11.76,6,0,6,0l8.49,2.33s15.85,23.93,23.87,42.15Z"/><path class="cls-5" d="M1412.38,833.75s5.21,22.29,5.51,22.81c1.85,3.15,11.25,1.47,13.42-1.85l-1.45-23.37Z"/><path class="cls-5" d="M1368.69,494.58s42.1,131,51.06,186.25c0,0-28.35,16.22-35.61,5.06s-92.3-119.75-90.07-141.73l74.62-49.59"/><path class="cls-6" d="M1401.14,579c-17.3-39.27-28.91-82.88-28.91-82.88l-73.43,58.23c-.72,7.13-9.74,23.84,2.28,42.93C1327.83,595,1378.56,592.41,1401.14,579Z"/><path class="cls-5" d="M1387.17,677.33s-14.62,51.25-14.92,56.28c-1,15.54,34.29,81.61,43,112.41,0,0,11.8,4.29,13.38-3.54,5.94-29.42-8.9-161.66-8.9-161.66Z"/><path class="cls-7" d="M1119.09,598.84s-19.53-13.11-20.12-13.29c-3.59-1.06-9.47,6.78-8.79,10.79l17.47,16.55Z"/><path class="cls-7" d="M1252.15,680.8s-24.76-32.55-28.09-36.59-84.62-33.65-114.4-51.68c0,0-16.49,6.73-10.43,12.39,11.25,10.5,123.63,113,123.63,113Z"/><path class="cls-7" d="M1311.53,581.23c-8-.87-16.39-4.43-23.8-6.74-5.42-1.69-10.85-3.57-16.34-5.13-4.66-.11-9.33-.25-14-.31-5.42-.07-10.85.47-16.24.64a10.19,10.19,0,0,1-6.81,1.65c-10.23,43.22-18.56,66.81-21.45,74.92-5.16,14.53,11.17,70.14,11.17,70.14,22.75-24,60.38-81.11,91-131.68.09-.15.17-.33.26-.49A12.08,12.08,0,0,1,1311.53,581.23Z"/><path class="cls-8" d="M1356.89,508.31s-76.63-37.82-93-18.11c-18.72,22.58-28.29,52-44.33,85.15,29.29.6,57.55,15.35,81.5,21.94.17-.28,12.31,5.5,12.31,5.5.27-1.79,10.12-11.23,11-12.79C1382.51,487.11,1356.89,508.31,1356.89,508.31Z"/><path class="cls-4" d="M1107.78,594.18s2-4,1.26-5-9.68-16.44-12.35-18.31-49.51,25.67-49.51,25.67-21.11,17.41-21.28,21.94,2.41,5.93,4,5.3,66.43-19.05,66.43-19.05Z"/><path class="cls-5" d="M1369.31,302.12s-5.17,7.43-4.71,26.53c.39,16.7,16.33,60.88,101.62,53.84,49.59-4.1,45.67-89.07,29.35-115.85,0,0-24.5-28.45-21.86,5.26,4.69,59.77-16.94,62.45-18.66,61.31C1421.86,311.38,1377.19,291.69,1369.31,302.12Z"/><path class="cls-5" d="M1474.93,272.14s-11.27,2.13-17.91-13.37,7.2-9.48,27.78,12.39Z"/><path class="cls-9" d="M1279.46,490.18c8.46-12.77,38-4,69.86-1.07,14.78,1.36,15.26,1.07,15.26,1.07"/><path class="cls-8" d="M1372,293.24s-27.62-12.05-61.23,9.23c0,0-3.79-5-22.51,48.61-16.07,46,5.78,60-23.82,143.31,0,0,39.69,29.91,110,9.52,0,0,6.56-19.39,28.56-82.94,2.77-8,12.24-54.17,8-63.87C1410.93,357.09,1395.46,293.14,1372,293.24Z"/><path class="cls-5" d="M1345.14,246s2.26,38.36-5.45,48.41c-2.11,2.76,49.88,13.53,42.33,4.22-9.58-11.81-2.1-32-2.1-32Z"/><path class="cls-7" d="M1360.41,189.41s28.09-16.79,49.6,9.45c0,0,4.77,41.94-7.42,69.92-5.42,12.42-13.61,15.73-18.59,13.29,0,0-26.63-5.54-30.34-32.39C1349.56,220,1348.43,195.64,1360.41,189.41Z"/><path class="cls-7" d="M1237.78,329.13c3.55-5.16-9.44-9.56-7.74-15.71,1.47-5.29-7.88-24.71-3.55-28.39.32-.27.06-1.66.38-1.91-59.65,15.22-85,80.94-85,80.94s6.95,25.17,18.44,11.93c39.45-45.44,75.39-44.9,76.67-45.63C1237.25,329.17,1236.94,330.35,1237.78,329.13Z"/><path class="cls-7" d="M1235.28,330.61c-3-4.12-2-2.82-.7-.88,1.93,2.84-6.68-8.72-8.33-11.74a92.31,92.31,0,0,1-1.14-10.24c0-.27.06-1.34.15-2.61.56-3.13-1-18.21-.8-21.45,35.49-8.74,75-3.75,108.56,14.05,42.45,22.48-18.78,53.62-18.78,53.62-23.6,2.46-29.52-34-77.31-21C1236.94,330.35,1235.59,330,1235.28,330.61Z"/><path class="cls-7" d="M1160.71,373.83a29.53,29.53,0,0,1,1,24.07c-5.25,13-5.41,2-7.35-29.32Z"/><path class="cls-7" d="M1161.63,375.2v6.75c-7,10.14-2.81,13.16-8,19.17-3.59,4.17-13.73,3.41-13.83,3.08s-3.06.41-4.16-.52c-.67-.59-3.38-2.15-3.54-3.49-.09-.84-1.84-3.95-2-5.24-.68-6.12-2.56-11.8,11.56-30.85C1141.7,364.1,1161.6,360.8,1161.63,375.2Z"/><path class="cls-9" d="M1357.23,228.22a23.49,23.49,0,0,1,4,11.48c.32,6.49,0,6.49,1.65,7.82s1-3.66,3.83-9.65,8-4.49,11-3.66,6.5.33,11.32-6,9-4.32,11.65-4.16a10.35,10.35,0,0,0,10.31-5.49c2.7-5.16,5.58-2,9.57-8.15s5.86-26.09-15.61-29.2-6.77-8.74-18.59-13.89-28.29-1.5-32.45,4.66-5.49,8.64-14.23,12.14-20.38,9-22.21,13.65,6,18.62-2.33,24.23-1.16,19.39,2.5,24,10.9.9,12.15,8.09-7.83,7.7-1.59,15.94,13.5,4.25,14.68,7.74,11.6-1,12.06-1.25-2.51-45.18-2.51-45.18Z"/><path class="cls-7" d="M1360,238.16c.53,8.52-2.94,15.67-7.78,16s-9.18-6.36-9.72-14.88,3-15.66,7.78-16c3.43-.21,6.62,3.08,8.37,8A25.69,25.69,0,0,1,1360,238.16Z"/><path class="cls-7" d="M1292.53,342.21s.37,55.94,34.5,30.35,28.86-63.7,12.95-70.06S1292.53,342.21,1292.53,342.21Z"/><path class="cls-5" d="M1341.28,294.21l-1.66,1.32S1379.33,356,1400,355.91c14.28-.09-5.77-44.4-18.92-58.21Z"/><circle class="cls-10" cx="1352.38" cy="240.95" r="18.95"/><path class="cls-10" d="M1351.23,227.68s-9.86-26.54-.42-51.32L1337,181.56s-5.31,26.36,1.21,49Z"/><path class="cls-5" d="M1472.79,270.68l-4.62-5.24c-1.5-12.64-6.82-12.12-6.9-20.31-.06-5.68,11.83-7,12.13-6.81s2.09-2.41,3.57-2.44c.92,0,4.09-.65,5.13.28.64.59,4.13,1.81,5.11,2.71,4.7,4.29,6.21,5.51,8.29,29.91C1495.5,268.78,1482.65,281.81,1472.79,270.68Z"/><path class="cls-4" d="M1749.71,774.37s-2-4.82-3.53-5-22-4-25.7-3S1705.54,830,1705.54,830s-.61,32,3.28,35.65,7.08,2.4,7.73.53,33.74-73.62,33.74-73.62Z"/><path class="cls-5" d="M1834.65,687.32l51.17-11.57h4.41l11.59,55.39s-111.43,32.25-159.75,59.08c0,0-16.91-13.3,3.81-22.89C1779.07,752,1834.65,687.32,1834.65,687.32Z"/><path class="cls-5" d="M2186.09,462.49s2.57-30.3-14.86-20c-15.24,9-62.18,78.26-10.69,142.25,23.72,29.45,99.16-29,128.38-59.09,0,0,9.63-42.28-19.18-21-58.88,43.5-71,32.34-72.41,30.63C2185.37,520.43,2199.8,464.39,2186.09,462.49Z"/><path class="cls-5" d="M2266,512a37.52,37.52,0,0,1,1.56-30.56c8.17-15.88,7.08-1.91,5.89,38Z"/><path class="cls-5" d="M2264.51,509.68a163,163,0,0,1,16.4-19.08c11-11.18,12-11.5,19.82-17.89,5.39-4.44,3.41,2.3,3.46,2.72s.47-.87,1.64.54a11.19,11.19,0,0,1,1.37,5.56c-.06,1.07.94,5.11.84,6.75-.48,7.82.81,18.81-21,39.62C2287.07,527.89,2261.44,527.72,2264.51,509.68Z"/><path class="cls-5" d="M1748.93,766.25a18.49,18.49,0,0,1,7.88,16.49s-9.25,6.31-19,7.47c-7.11.85-13.54-14.86-7.5-17C1740.27,769.7,1748.93,766.25,1748.93,766.25Z"/><path class="cls-7" d="M2006.49,784.59s11.67,3.54,11.69,14.86c0,0-11.58,10.94-21.44,12.91-7.22,1.45-19-5.13-15.3-10.54S2006.49,784.59,2006.49,784.59Z"/><path class="cls-10" d="M2174,439.48s-20.69-21.63-52.52-23.06c0,0-28.85-2.78-65.51,45-18.7,24.36-40.71,61.47-59.43,81.2,0,0,9.77,48.59,67.43,48.45,0,0,113.54-41.65,127.15-90C2191.12,501.1,2205.35,470.85,2174,439.48Z"/><path class="cls-5" d="M2214.18,431.72s-20.83,16.28-28.83,35.93c0,0-23.2-12.35-23.93-29.3,0,0,29.05-37.22,26.82-49.34S2214.18,431.72,2214.18,431.72Z"/><path class="cls-7" d="M2203.82,356.88s34.21-2,46.57,25.45c0,0,1.93,29.13-7.67,47.16s-21.18,34.11-35.53,29.56c0,0-38.91-16.83-33.63-46C2178.31,386.88,2192.09,359.46,2203.82,356.88Z"/><path class="cls-9" d="M2182.91,406s2.58,6,9.32-5.93.21-16.23,21.95-16.23,43.2,6.74,51.69,2l-8-7,.5-17.72s-46.18-23.71-61.16-21.22-29.45,19.22-32.7,22-.17,48.09,4.77,56.46S2182.91,406,2182.91,406Z"/><path class="cls-7" d="M2185.2,406.92c-.9,8.9-5.72,15.69-10.76,15.19s-8.41-8.15-7.51-17,5.73-15.69,10.77-15.18S2186.11,398,2185.2,406.92Z"/><path class="cls-6" d="M2019.32,577.32s68.61,93.11-119.24,154.38c0,0-24-40.16-17.29-54.7,2.8-6,33.07-19.23,64-75.48,0,0,5.86-12.78,7.8-16.6S1991.1,549.14,2019.32,577.32Z"/><path class="cls-7" d="M2102.6,694l38.3-11.47,33.73,2.49,28.85,22.48s-156.66,69.89-200.25,101.74c0,0-23.17-6.11-4.13-19.75C2002.51,787.09,2102.6,694,2102.6,694Z"/><path class="cls-8" d="M1999.76,540.61s163.12,76.22,203.72,166.92c0,0-49.19-1.08-70.72-10-12.1-5-129.82-55.28-166-64.48,0,0-8.74-3.92-12.74-6.17C1926.49,611.28,1946.71,565.18,1999.76,540.61Z"/><path class="cls-7" d="M2038.16,398.11c4.82-4.64-3.45-15.13-.17-21.82,2.81-5.77,8.71-12.75,13.92-15.23.39-.19.74-.25,1.13-.41-23.37-22.38-57.13,4.57-104.14,12.61,0,0-15.66,22.91,2,21.75,31-2,80,.44,81.46.15C2033,393.86,2037,399.21,2038.16,398.11Z"/><path class="cls-7" d="M2027,393.32c-.38-6.65-8.5,1.61-8.42-5,.06-4.51.13-9,.44-13.51a120.76,120.76,0,0,1,6-12.13c.19-.31,5.1.69,6.08-.65,2.83-3.08,11.59-2.78,14-6.25,37,9.28,94.85,55.48,105.61,84,17.75,47.1-43.56,27.19-43.56,27.19-27.09-20.84-45.94-38.64-72-70.94C2035.24,396,2027.78,392.88,2027,393.32Z"/><path class="cls-7" d="M1949.06,395.1s-11.42,10.4-25.07,6.72-2.17-6.37,30.45-16Z"/><path class="cls-7" d="M1938.39,394.24a51.72,51.72,0,0,1-22.2-7c-10.76-6.51-16.75-2.35-23-7.4-4.3-3.5,2.08-8.38,2.48-8.55.25-.1-.82-.18.43-1.58a14.24,14.24,0,0,1,5.11-2.7c1-.23,12.76-10.94,14.29-11.29,7.24-1.71,13.33,4.18,33.38,17.51C1948.91,373.26,1955.2,392,1938.39,394.24Z"/><path class="cls-5" d="M2167.29,435.08s-13.28-11.51-13.72-4.58,8.24,23.89.74,42-18.72,64.09,9.27,53.88,29.49-46.41,19.24-75-1.41-.7-1.41-.7Z"/><path class="cls-7" d="M2150,446.85s17,20.7-27.42,43.08-55,4.83-37.54-21.14,34.22-35.45,35.06-35.26S2150,446.85,2150,446.85Z"/><path class="cls-4" d="M1993.35,792.83s-5-1.48-6.08-.37-16.92,14.62-18.5,18.08,40.08,51.65,40.08,51.65,24.51,20.63,29.78,19.88,6.32-4,5.27-5.68-36-72.54-36-72.54Z"/><ellipse class="cls-2" cx="264.55" cy="912.42" rx="189.12" ry="45.01"/><path class="cls-2" d="M1091,898.9c0,27.48-123.64,49.75-276.16,49.75S538.72,926.38,538.72,898.9s123.64-49.74,276.16-49.74S1091,871.43,1091,898.9Z"/><path class="cls-2" d="M1605.8,903.64c0,24.86-84.67,45-189.11,45s-189.12-20.15-189.12-45,84.67-45,189.12-45S1605.8,878.79,1605.8,903.64Z"/><path class="cls-4" d="M740,831.42s-5,.16-5.62,1.48-10.92,18.28-11.32,21.9,51.68,34.73,51.68,34.73,28.35,11.34,32.88,9.09,4.52-5.53,3.08-6.72S756.42,837,756.42,837Z"/><path class="cls-5" d="M706.66,664s-3.52,52.33-3.83,57.36c-.95,15.54,23.2,80.54,31.92,111.32,0,0,11.79,4.3,13.37-3.53,6-29.42-8.89-161.66-8.89-161.66Z"/><path class="cls-5" d="M756.82,381.44c-3.18,5.3-.31,1-1.62,7.2-1.12,5.31,5.78,10.28,1.73,14.17-.31.29-.61.48-.91.75,25.31,11.94,63.43-31.7,81.64-81.25,0,0-7.28-15.26-17.83-1.49-26.43,34.53-49.38,47.06-65.22,57.32C754.4,379.31,757.58,380.19,756.82,381.44Z"/><path class="cls-5" d="M820.94,321.2A29.21,29.21,0,0,1,815.4,298c2.62-13.64,4.87-3,12.72,27.06Z"/><path class="cls-5" d="M818.32,311.93s.79.75,2.65-12c1.75-12.06,9.85-14.09,13.65-13.93,5.43.22,9.1,2.62,9.19,2.94s2.3.66,3.36,1.61a8.77,8.77,0,0,1,1.7,4.13c.07.84,1.32,3.82,1.42,5.1.53,6.07,1.88,5.07-12.5,23.59C837.79,323.33,818,326.17,818.32,311.93Z"/><path class="cls-5" d="M676.84,311.79a2.17,2.17,0,0,1-.17.19c-17.58,24.65,16.53,46,16.85,46.37l4.05,3.82c22.26,20.78,42.44,34.37,62.16,43a54.65,54.65,0,0,1,6.18-5.29c.9-.87,1.66-1.61,1.84-1.82a90.3,90.3,0,0,0,5.93-8.28c.8-3.31.07-4.31.68-7.65,0,0,0-.07,0-.11s-.08.21.06-1.1c-17.62-20.54-46.19-39.79-57.84-55,9.57-5.44-3.38-15.56-12.55-23.22C681.86,284.14,684.86,299.89,676.84,311.79Zm97.61,69.09a5.92,5.92,0,0,1-1.58.1Z"/><path class="cls-5" d="M731.86,820.38s5.21,22.29,5.51,22.81c1.85,3.15,11.24,1.47,13.42-1.85L749.33,818Z"/><path class="cls-4" d="M688.18,481.21s42.1,131,51.06,186.25c0,0-28.35,16.23-35.61,5.07S598.32,532.9,600.54,510.92l87.64-29.71"/><path class="cls-9" d="M606.7,481.21c8.09-12.23,36.41-3.84,66.86-1,14.15,1.31,14.61,1,14.61,1"/><path class="cls-8" d="M695.27,292.68S671.78,278.24,633.22,307c0,0-18.84,9.23-5.89,62,9.55,38.94-10.15,57.63-26.79,90.25,0,0,73.52,52.4,97.64,25,0,0-8.61-34.35,11.12-79.09,3.26-7.41,27.35-42,23.24-51.32C732.54,353.81,717.74,292.59,695.27,292.68Z"/><path class="cls-5" d="M669.57,247.51s2.17,36.72-5.22,46.35c-2,2.63,48.06,12.67,40.51,4-15.57-17.82-5.79-33.76-5.79-33.76Z"/><path class="cls-7" d="M684.19,193.3s26.89-16.08,47.47,9c0,0,.83,40.68-10.83,67.45-5.19,11.9-6.22,8.92-11.95,8.92,0,0-32.14-7-35.68-32.74C669.27,217.52,672.72,199.26,684.19,193.3Z"/><path class="cls-7" d="M556.76,327c2.74-5.27.24-1,1.14-7,.78-5.16,3.78-12.5,7.43-16.46.27-.3.55-.5.83-.77-25-10-68.93,37-83.54,85.61,0,0,7.87,14.22,17.19.4,23.37-34.64,44.65-48,59.25-58.74C559.21,328.87,556.1,328.21,556.76,327Z"/><path class="cls-7" d="M500.53,382.44a28.06,28.06,0,0,1,14.15,18c3.2,13-3,4.56-22-18.5Z"/><path class="cls-7" d="M504.21,385.92s-1.47,3.81,4.51,14.67c5.65,10.26,1.06,12.58-1.94,14.66-4.29,3-8.49,3.28-8.75,3.08s-2.15.82-3.51.71a8.4,8.4,0,0,1-3.69-2.18c-.54-.6-3.22-2.16-4-3.08-3.93-4.35-4.37-2.8-4.1-25.33C482.68,388.47,496.17,374.85,504.21,385.92Z"/><path class="cls-7" d="M683.78,240c.51,8.16-2.82,15-7.45,15.29S667.54,249.16,667,241s2.82-15,7.44-15.29c3.29-.2,6.34,3,8,7.7A24.46,24.46,0,0,1,683.78,240Z"/><path class="cls-5" d="M665.87,293.61l-1.59,1.27s40.47,55,53.84,57.81-1.59-42.5-14.18-55.72Z"/><path class="cls-7" d="M669.91,320.28c0-.09,0-.15,0-.24-2.22-29-40.5-23.72-41-23.81l-5.34-.32c-29.23-1.61-52.48.8-72.31,6.62a51.25,51.25,0,0,1-1.31,7.7c-.13,1.2-.22,2.21-.23,2.47a88.13,88.13,0,0,0,.72,9.76c1.45,2.93,2.6,3.22,4.21,6.06l.05.09s-.07-.21.63.85c25.65,4.3,58.59.89,76.52,4.91-3.7,9.91,2.21,27.62,13.7,27.62C673.37,362,671.33,334,669.91,320.28Zm-114.55,9.18a6.34,6.34,0,0,1,1.1-1Z"/><path class="cls-4" d="M662.87,627.78s-2.75-4.15-4.21-4-21.3.32-24.57,1.88-2.4,62.22-2.4,62.22,5.25,30.08,9.55,32.75,7.08.94,7.33-.91,18.15-75,18.15-75Z"/><path class="cls-7" d="M672.9,617.51s-19.22,15.31-19.58,15.84c-2.19,3.24,3.76,11.58,8,12.16l22-12.16Z"/><path class="cls-9" d="M796.56,510.92s-17,13.71-22.1,15.76S686.7,600,659.33,623.94c0,0,5.82,16.77,14.48,16.53,13.34-.34,150.42-88.66,150.42-88.66Z"/><path class="cls-9" d="M600.54,459.23s183.36,39.54,244.07,69.54c0,0-13.62,30-29.72,29.35s-192.11-7.86-210.81-27C571.16,497.5,600.54,459.23,600.54,459.23Z"/><path class="cls-9" d="M680.94,230.11c.16.07.12.41.15.75.21,2.75-.61,7.83,12.74,4.72,0,0,7.74,5.58,14.88,1.33s2.83-13,9.32-12.65,11.85,1.76,13.65-2,2.07-7.16,7.07-9.9,6.32-10-3.41-20.22-32.28-13.23-45.76-18.73-26.71-13.23-44.18-4.24-11.49,16.14-32.45,19.05-34.2-1.33-42.18,3.16-12,9.24-16,20-17.22,9.48-14.73,25.46,22.22,11.48,21.72,21-18,15.47-7.48,20,32.69-11.23,51.67-1.25,32,15.73,41.43,11,23.31-9.24,24.26-9.73,8.06-14.72,5.13-21-7.74-17-7.51-20.55S670.57,225.65,680.94,230.11Z"/><path class="cls-9" d="M506.93,252c0,.51,1.33,19,8.66,31.29,0,0,8.65-20.81,5.65-31.29s-.5-.79-.5-.79Z"/><path class="cls-5" d="M370.46,692.39s-40.77,21-44.54,24.69c-11.66,11.33-36,92.77-50.92,122.68,0,0,4.6,14.31,11.33,9.38C311.61,830.59,393.16,718,393.16,718Z"/><path class="cls-3" d="M273.67,897.76c-2.06-2.71-21.37-33.66-20-36.23S271,843,271.93,842.21s4.79.58,4.79.58l10.91,9.41s8.65,20.67,15.73,37.52Z"/><path class="cls-5" d="M279.91,830.95s-11.66,20.87-11.79,21.49c-.78,3.73,7.65,9,11.66,8l15.32-19.08Z"/><path class="cls-4" d="M475,538.24S425.11,669,393.16,718c0,0-33.31-7.41-31.07-21.13S375,539.46,392.21,524L475,538.24"/><path class="cls-7" d="M282.62,718.93s-24.49-2-25.13-1.84c-3.82.87-5.17,11-2.5,14.32l24.37,6.16Z"/><path class="cls-7" d="M445.73,725.69s-39.18-17-44.29-19S307.15,719.22,270.79,718c0,0-11.59,14.55-3.18,16.61C283.23,738.43,458,772.26,458,772.26Z"/><path class="cls-9" d="M454,605.43h0c-.05-1.73-.51-3.55.21-5.08,24.83-52.75,22.33-68,22.33-68s-91.07-31.16-103.84-7.66c-19.24,35.41-23.06,69.56,1.74,113.13l.51-.26c14.56,27.84,42.25,83.89,43.71,92.48,2.71,15.88,39.7,40.24,39.7,40.24,8.46-33.53,6.81-109.63-4.33-164.3A3.22,3.22,0,0,1,454,605.43Z"/><polygon class="cls-3" points="322.6 898.51 325.16 893.76 295.93 873.39 273.67 897.76 322.6 898.51"/><path class="cls-5" d="M490,327.68s-9.25,3.86-20.23,22c-9.59,15.82-21.07,66.56,62.75,110.87,48.73,25.76,95.77-55.9,96.52-90.63,0,0-5.9-41.18-23.54-8.13-31.28,58.58-53.07,48.18-54,46.1C533.49,367.67,503.55,322.65,490,327.68Z"/><path class="cls-5" d="M606.44,362.71a39.27,39.27,0,0,1-8.26-30.92c3-18.42,6.43-4.18,18.05,35.89Z"/><path class="cls-5" d="M605.46,361.76s1.09-9.95,5.66-25.7,5.38-16.53,9.39-26.28c2.77-6.76,4.28.43,4.54.79s0-1,1.78-.32a11.65,11.65,0,0,1,4,4.44c.47,1,3.41,4.25,4.12,5.8,3.42,7.44,5.58,34.49-6,49.4C629,369.89,611.56,379.9,605.46,361.76Z"/><path class="cls-9" d="M387.69,520.51c8.46-12.77,38-4,69.85-1.08,14.79,1.36,15.26,1.08,15.26,1.08"/><path class="cls-8" d="M480.22,323.57S452.6,311.51,419,332.79c0,0-3.8-5-22.52,48.6-16.07,46-22.91,114.34-23.81,143.31,0,0,32,33.91,102.34,13.52,0,0,18.06-4.08,36.21-86.94,1.81-8.26,12.24-54.17,8-63.87C519.16,387.42,503.69,323.47,480.22,323.57Z"/><path class="cls-5" d="M453.37,276.37s2.26,38.36-5.45,48.42c-2.11,2.75,49.87,13.52,42.32,4.21-9.58-11.8-2.1-32-2.1-32Z"/><path class="cls-7" d="M468.65,219.74s28.09-16.79,49.59,9.45c0,0,4.78,41.94-7.42,69.92-5.42,12.42-13.61,15.73-18.6,13.3,0,0-26.62-5.54-30.33-32.39C457.79,250.28,456.66,226,468.65,219.74Z"/><path class="cls-9" d="M465.54,253.18c0,.5,1.33,19,8.66,31.29,0,0,8.65-20.81,5.66-31.29s-.5-.8-.5-.8Z"/><path class="cls-7" d="M341.87,410.14c-3.09-6.34-8.11-3.61-13.2-8.71-4.37-4.38-17.3-23.4-18.5-29.68-.09-.47-1.94-.37-2-.83C281,387.7,290.59,456.19,326.65,504.41c0,0,28.57,7.17,22-11.47-22.69-64-5-78.26-5-79.93C342.63,412.06,342.6,411.65,341.87,410.14Z"/><path class="cls-7" d="M343.62,413c-5.09-2.64,3,2.09-1.85-.89-3.31-2-11.17-5.38-14.36-7.58a103.83,103.83,0,0,1-6.36-9.73c-.14-.28-.61-1.38-1.18-2.69-1-3.45-10.22-17.86-11.72-21.19,31.29-26.85,73.55-41.9,116.43-41.07,54.16,1,8.38,63.53,8.38,63.53-22.51,14.48-71.17-7.84-89.36,19.63Z"/><path class="cls-7" d="M343.93,490.63A33.32,33.32,0,0,1,368.09,503c9.86,12.39-1,6.42-32.86-9.08Z"/><path class="cls-7" d="M348.59,491.17a142.34,142.34,0,0,1,11,19.42c6.06,12.5,6,13.49,9,21.92,2.09,5.84-2.94,2.16-3.32,2.07s.58.66-.94,1.22a10,10,0,0,1-5.06-.53c-.88-.38-4.55-.73-5.89-1.31-6.38-2.74-16-4.94-26.82-29.39C326.62,504.56,334.44,483.2,348.59,491.17Z"/><path class="cls-9" d="M532.49,237.09s-37.09,26.33-66.44,22.6L454.37,269v16.88s-1.17,10-1.4,15.86-1.2,1.45-1.2,1.45-2-20.32-8.89-34.19-6.71-49.66,25.4-61C485.93,201.85,524.18,218,532.49,237.09Z"/><path class="cls-7" d="M468.22,268.48c.53,8.53-2.95,15.67-7.79,16s-9.18-6.36-9.72-14.87,3-15.67,7.78-16c3.43-.21,6.62,3.08,8.37,8A25.27,25.27,0,0,1,468.22,268.48Z"/><path class="cls-8" d="M439.84,250.65s-.13-2.87,6.19-3.15c7.49-.33,63.78-.77,82.23-7.53l.49,3.68s-1,16.86-3.8,16.64c0,0-65.93,5.07-82.9-4.16A4.73,4.73,0,0,1,439.84,250.65Z"/><path class="cls-7" d="M400.76,372.53s.38,55.94,34.5,30.35,28.86-63.71,12.95-70.06S400.76,372.53,400.76,372.53Z"/><path class="cls-5" d="M449.51,324.53l-1.66,1.32s39.71,60.52,60.35,60.38c14.27-.09-5.77-44.4-18.92-58.21Z"/><path class="cls-9" d="M523.92,238.44h6.57s20.64-12.1,7.16-40.8c0,0-14,26.46-29.45,23Z"/><path class="cls-9" d="M519.72,238.29l4.31-2.46s9-15.67-10.58-29.46c0,0,.73,22.6-10.73,26.1Z"/><path class="cls-9" d="M461.8,274.07a2.3,2.3,0,1,1-2.3-2.3A2.3,2.3,0,0,1,461.8,274.07Z"/><path class="cls-11" d="M459.5,274.07s10.95,28.34,0,50.46-26.75,31.61-19.85,65.06S465.54,432,468.27,471s-30.91,53.94-70.16,54.91c0,0-13.1.15-24.56,5.49"/><path class="cls-11" d="M506.45,306.61s9.18,21.68,2,48.84-53.77,71.25-53.77,71.25"/><path class="cls-3" d="M273,725.43s.86-5.07-.34-6-16.3-14.82-19.88-16S207,748.73,207,748.73s-17.3,26.42-16,31.47,4.68,5.71,6.18,4.49,66.71-43.75,66.71-43.75Z"/><path class="cls-9" d="M365.3,338.89s19.58-10.22,32.11-7.45-3.15,61.7-8.17,66.94c0,0-7.42,1.68-14,.08Z"/><path class="cls-12" d="M921.24,817.14S914,841.75,914,842.43c.06,4.08,10.15,7.64,14.1,5.62l11.51-23.6Z"/><path class="cls-6" d="M1035,469.66c-45.75,24-36.92,73.23-35.09,85.23.34,2.2-14.7,88.15-16.79,95.74-4,14.4,30.74,26.11,30.74,26.11,39.67-48.61,125.59-173.68,125.59-173.68L1035,469.66"/><path class="cls-12" d="M983.11,650.63s-34.59,38.68-37.67,43.42S927.22,790.68,918.3,827.2c0,0,8.59,11,15.78,5.68,11.06-8.22,79.41-156.57,79.41-156.57Z"/><path class="cls-12" d="M1207.12,380.89c-3.43,5.74-.34,1.1-1.75,7.78-1.21,5.75,6.25,11.12,1.88,15.32-.33.32-.65.53-1,.82,27.37,12.91,68.6-34.29,88.29-87.88,0,0-7.88-16.5-19.28-1.62-28.59,37.34-53.41,50.89-70.53,62C1204.5,378.58,1207.94,379.53,1207.12,380.89Z"/><path class="cls-12" d="M1276.46,315.74a31.59,31.59,0,0,1-6-25.06c2.83-14.75,5.26-3.22,13.76,29.26Z"/><path class="cls-12" d="M1273.63,305.72s.85.8,2.87-13c1.89-13,10.65-15.24,14.76-15.07,5.87.24,9.85,2.83,9.94,3.19s2.49.71,3.64,1.73a9.46,9.46,0,0,1,1.84,4.47c.08.91,1.43,4.13,1.54,5.5.57,6.57,2,5.48-13.52,25.51C1294.69,318.05,1273.33,321.11,1273.63,305.72Z"/><path class="cls-12" d="M1120.63,305.57c-.07.08-.12.12-.18.2-19,26.65,17.87,49.7,18.22,50.14l4.38,4.13c24.08,22.48,45.9,37.17,67.22,46.46a58.16,58.16,0,0,1,6.69-5.71c1-.94,1.79-1.74,2-2a99,99,0,0,0,6.42-8.95c.86-3.58.08-4.66.73-8.28,0,0,0-.07,0-.12s-.09.23.06-1.19c-19.05-22.22-48.19-43.93-60.78-60.34-2.23-12.33-12.55-25.25-22.53-28.23C1112.9,282.78,1129.3,292.69,1120.63,305.57Zm105.55,74.72a7,7,0,0,1-1.71.11Z"/><path class="cls-9" d="M1037.53,488.43c8.69-13.12,39.07-4.11,71.76-1.1,15.19,1.4,15.68,1.1,15.68,1.1"/><path class="cls-10" d="M1132.58,286.12s-21.4-20.33-62.79,10.52c0,0-24,14.74-10.13,71.36,10.26,41.79-3.86,77.24-24.67,101.66,0,0,74.31,51.3,100.19,21.89,0,0-7-26.32,14.16-74.34,3.5-7.94,35.65-63.6,31.24-73.57C1180.59,343.64,1156.69,286,1132.58,286.12Z"/><path class="cls-12" d="M1105,237.65s2.33,39.41-5.6,49.74c-2.17,2.83,51.58,13.61,43.47,4.34-16.72-19.13-6.21-36.23-6.21-36.23Z"/><path class="cls-13" d="M1120.69,179.47s28.85-17.25,50.95,9.7c0,0,.9,43.65-11.63,72.4-5.57,12.76-6.67,9.57-12.82,9.57,0,0-34.49-7.55-38.29-35.14C1104.68,205.47,1108.38,185.87,1120.69,179.47Z"/><path class="cls-13" d="M983.44,321c2.95-5.66.25-1.07,1.23-7.5.82-5.54,4-13.41,8-17.66.3-.32.59-.54.89-.83-26.79-10.73-74,39.74-89.64,91.88,0,0,8.44,15.26,18.45.43,25.08-37.17,47.93-51.49,63.59-63C986.07,323,982.74,322.31,983.44,321Z"/><path class="cls-13" d="M923.1,380.5a30.14,30.14,0,0,1,15.19,19.32c3.43,13.9-3.27,4.89-23.59-19.86Z"/><path class="cls-13" d="M927.05,384.23s-1.58,4.09,4.84,15.75c6.06,11,1.14,13.5-2.08,15.74-4.61,3.19-9.12,3.51-9.39,3.3s-2.3.88-3.77.77a9,9,0,0,1-4-2.34c-.58-.64-3.46-2.32-4.35-3.3-4.21-4.66-4.69-3-4.39-27.19C903.95,387,918.42,372.35,927.05,384.23Z"/><path class="cls-13" d="M1120.26,229.54c.54,8.75-3,16.09-8,16.41s-9.43-6.53-10-15.28,3-16.09,8-16.41c3.53-.22,6.8,3.16,8.6,8.25A26.35,26.35,0,0,1,1120.26,229.54Z"/><path class="cls-12" d="M1101,287.11l-1.71,1.36s23.52,24.57,37.87,27.61,18.2-11.18,4.7-25.37Z"/><path class="cls-13" d="M1104.87,313.8c0-.1,0-.16,0-.27-2.38-31.11-43.47-25.45-44-25.55l-5.73-.34c-31.36-1.72-56.31.86-77.6,7.1a56.07,56.07,0,0,1-1.4,8.26c-.14,1.29-.24,2.38-.25,2.66a95.72,95.72,0,0,0,.78,10.47c1.55,3.15,2.79,3.45,4.51,6.5l.06.1s-.07-.22.68.92c27.53,4.61,62.87,1,82.12,5.27-4,10.63,2.37,29.64,14.69,29.64C1108.58,358.57,1106.39,328.53,1104.87,313.8Zm-122.93,9.85a6.72,6.72,0,0,1,1.18-1.13Z"/><path class="cls-13" d="M1108.58,634.7s-20.63,16.42-21,17c-2.35,3.48,4,12.42,8.55,13.05l23.61-13.05Z"/><path class="cls-13" d="M1241.28,520.31S1223,535,1217.56,537.23,1129.21,616,1099.84,641.68c0,0-1.23,16.93,8.06,16.68,14.31-.37,164.32-91.3,164.32-91.3Z"/><path class="cls-8" d="M1034.47,469.66s193.22,37.62,258.37,69.82c0,0-14.62,32.23-31.9,31.49s-210.14,12.65-232.56-8C965.89,505.44,1034.47,469.66,1034.47,469.66Z"/><path class="cls-3" d="M1100.29,641.57s-4.54-2.13-5.73-1.25-18.18,11.42-20.18,14.49,30.51,54.85,30.51,54.85,20.28,23.16,25.38,23.21,6.59-2.9,5.84-4.63-23.63-74.08-23.63-74.08Z"/><path class="cls-9" d="M1118.95,220.56c.17.07.13.41.15.75.21,2.74-.61,7.83,12.74,4.72,0,0,7.73,5.57,14.88,1.32s2.83-13,9.32-12.64,11.84,1.75,13.65-2,2.08-7.16,7.06-9.91,6.33-10-3.41-20.22-6.35-13.23-19.83-18.72-28-8.61-45.51.38-19.73,29.52-40.7,32.43-15.56-20.45-23.55-16-13.31,13.18-17.3,23.92-17.23,9.48-14.73,25.46,8.15,21.19,7.65,30.67,5.13,17.14,15.62,21.63,11-5.28,30,4.71,22.31,6.63,31.79,1.88,11.94-20.28,12.89-20.78,8.06-14.72,5.13-21-7.73-17-7.51-20.55S1108.57,216.09,1118.95,220.56Z"/><path class="cls-3" d="M910.89,898.9c-1.07-4.71-15.6-69.34-12.33-71.87s26.2-7.63,27.87-8.13,5.85,3.58,5.85,3.58l8.57,18.59s-1,31.84-1.77,57.83Z"/><polygon class="cls-3" points="963.96 898.9 967.17 891.94 932.36 871.6 910.88 898.9 963.96 898.9"/><path class="cls-9" d="M1878.31,396.62s21.19,11.2,21.81,20.18-20.1,14.73-28.33,14S1878.31,396.62,1878.31,396.62Z"/><path class="cls-4" d="M1386.29,791.19s-2-4.81-3.53-5-22-4-25.7-3-14.93,63.65-14.93,63.65-.61,32,3.28,35.65,7.08,2.4,7.73.53,33.74-73.62,33.74-73.62Z"/><path class="cls-5" d="M1383,804.7s-21.72-12.08-.52-20.56c50.44-20.19,73-70.11,104.86-76.28s40.77-4.43,40.77-4.43l.78-1.1L1538.4,748"/><path class="cls-5" d="M1796.68,477.13s28.57-28.11,11.13-17.83c-15.24,9-78,52.54-2.59,147.39,23.54,29.6,57.86,5.87,114.12-63.67,0,0,2.26-36.79-21-9.51-51.54,60.55-73.29,44.93-74.66,43.23C1811.77,561.89,1810.4,479,1796.68,477.13Z"/><path class="cls-5" d="M1900.52,534.6a37.55,37.55,0,0,1-10.39-28.78c1.39-17.81,5.79-4.51,20.12,32.72Z"/><path class="cls-5" d="M1898.26,533s-3.32-7.8,2.47-22.37,4.14-13.55,8.86-22.46c3.26-6.18,7-1.37,7.24-1s3.43,6.51,5.06,7.36a11.22,11.22,0,0,1,3.41,4.6c.35,1,3.08,12.66,3.62,14.19,2.58,7.4-5.38,29.74-14.47,35.67C1914.44,549,1902.41,550.84,1898.26,533Z"/><path class="cls-7" d="M1643.07,801.41s11.67,3.53,11.69,14.85c0,0-11.58,10.94-21.45,12.92-7.21,1.46-19-5.13-15.3-10.55S1643.07,801.41,1643.07,801.41Z"/><path class="cls-8" d="M1821.51,475.56s-12.53-31-44.36-32.41c0,0-27.11-11.69-63.77,36.07-18.69,24.36-32.86,69.82-80.25,80.21,0,0,17.7,40.54,75.35,40.4,0,0,17.21-35,66.63-45.16,4-.82,34.46,4.38,42.53-16.58C1817.65,538.08,1820,511.26,1821.51,475.56Z"/><path class="cls-5" d="M1819.48,476.84s-2,36-4.49,44-26.38-37.8-17.22-70.75Z"/><path class="cls-5" d="M1850.77,448.54s-24.26.31-32.29,35.18c0,0-21.07-15.1-21.8-32.05,0,0,26.72-14.53,28.14-45.83C1825.38,393.54,1850.77,448.54,1850.77,448.54Z"/><path class="cls-7" d="M1856.67,401.46c-5.43-3.17-17.27,5.81-24,6.48a32.83,32.83,0,0,1-15.79-2.06,137.4,137.4,0,0,0-6.72,24c-5.29,29.14,33.62,46,33.62,46,14.35,4.55,16.27-3.5,25.87-21.53,6.8-12.75,8.09-34.54,8.27-46.21C1871,408.23,1863,405.16,1856.67,401.46Z"/><path class="cls-9" d="M1820.1,417.78c.18.11-.07,14.85-.12,15.22-.41,3.09,6.13-16.16,18.8-11,0,0,5.87,5.17,15.52,2.36s6.54-13.62,14.29-11.49,13.89,5,17,1.38,4.22-7.35,10.91-9.06,2.75-17-9.11-21.29c-15.68-5.69-14.1-14.94-29.07-24.53a60.49,60.49,0,0,0-51.81-5.86c-17.94,6.24-14.16,13.78-40.19,11.48s-45-24.07-55.77-21.22-28.71,1.18-36.11,12-23.1,5.94-23.91,24.2,24.1,18.5,21.22,28.83-25.43,12.34-13.84,20,42.21-3.78,62.75,12.2,38,8.34,50.64,5.6,27.17,13.34,28.44,13,13.27-14.11,11.23-21.77-5.27-20.78-4.14-24.64S1808.64,410.13,1820.1,417.78Z"/><path class="cls-7" d="M1821.49,425.32c.3,8.94-3.58,16.32-8.64,16.49s-9.42-6.95-9.72-15.89,3.59-16.32,8.65-16.48S1821.21,416.38,1821.49,425.32Z"/><path class="cls-5" d="M1625.37,684.59c-24.56-14.76-47.58-29.61-50-54.71-20.2,45-45.51,69.35-48,74.64C1520.7,719,1538.4,748,1538.4,748c44.1-22,73.94-41.46,96.13-59.49A32.53,32.53,0,0,1,1625.37,684.59Z"/><path class="cls-14" d="M1629.81,692.22c104.42-81.33,19.43-123.3,19.43-123.3-28.21-28.17-56.08,29-58,32.83s-3,.14-3,.14c-5.67,10.29-12.49,27.86-18.15,35.92C1573,663.27,1602.17,687.06,1629.81,692.22Z"/><path class="cls-7" d="M1739.19,710.86l38.3-11.47,33.73,2.49,16.25,17.32s-144.06,75.06-187.64,106.9c0,0-23.17-6.11-4.13-19.75C1639.09,803.91,1739.19,710.86,1739.19,710.86Z"/><path class="cls-7" d="M1633.13,559.43s153.72,69.06,194.33,159.76c0,0-36.58,4.08-58.12-4.82-12.1-5-20.76-28.13-136.22-46.6,0,0-29.12-10.67-33.11-12.93C1572.49,639.22,1585.6,568.89,1633.13,559.43Z"/><path class="cls-15" d="M1664.86,673.48c22-18.41,38.19-43.45,48.53-70.64a746.59,746.59,0,0,0-80.25-43.41c-47.54,9.46-62.53,78.43-35.81,95.41,13.27,8.44,35.81,12.93,35.81,12.93C1644.77,669.63,1655.28,671.54,1664.86,673.48Z"/><path class="cls-7" d="M1662.59,410c4.26-5.17-7.24-10-4.76-17,2.13-6.05,26.79-.63,31.68-3.69.37-.23-3.06-3.33-2.69-3.53-18-7.06-70.37,6.41-116.14,19.81,0,0-14.61,19.21,2.78,16,30.58-5.57,74-10,75.45-10.44C1649.35,409.88,1661.59,411.26,1662.59,410Z"/><path class="cls-7" d="M1648.91,411.24c-1.15-6.57-8.26,2.58-9-4-.45-4.48-.91-9-1.12-13.48,1.31-4.31,10.37-.87,12.16-5,.14-.33,5.14.1,6-1.35,2.45-3.38,23.18,1.23,25.21-2.5,37.86,5,81,31.17,95,58.29,23.05,44.74-40.14,32-40.14,32-13.22-38-18.54-50.94-79.65-62.2C1657.36,413,1649.6,410.72,1648.91,411.24Z"/><path class="cls-7" d="M1572.41,421.3s-10.15,11.65-24.13,9.57-2.89-6.07,28.42-19.36Z"/><path class="cls-7" d="M1565.7,423.14a33.32,33.32,0,0,1-22.11-1.82c-11.43-5.23-20.73-.29-27.48-4.59-4.68-3,1.1-8.57,1.48-8.78s-.84-.08.25-1.62a14.29,14.29,0,0,1,4.76-3.27c1-.34,10.68-1.84,12.15-2.37,7-2.52,14.47-6,35.93,5C1570.68,405.64,1582.14,419,1565.7,423.14Z"/><path class="cls-7" d="M1779.62,450.36s13.5,16.4-21.75,34.1-43.7,3.79-29.81-16.76,27.15-28,27.81-27.9S1779.62,450.36,1779.62,450.36Z"/><path class="cls-4" d="M1629.94,809.65s-5-1.48-6.08-.38-16.91,14.63-18.5,18.08S1645.45,879,1645.45,879s24.51,20.62,29.77,19.88,6.32-4,5.28-5.68-36-72.53-36-72.53Z"/></svg>