<svg height="512" viewBox="0 0 59 59" width="512" xmlns="http://www.w3.org/2000/svg"><g id="Page-1" fill="none" fill-rule="evenodd"><g id="011---Pills" fill-rule="nonzero" transform="translate(-1 -1)"><path id="Shape" d="m22.52 50.75c-12.79399801-1.7937983-22.11398858-13.0402473-21.50060222-25.9448145s10.95809142-23.21630401 23.86455082-23.78849526c12.9064594-.57219124 24.1231013 8.78365104 25.8760514 21.58330976z" fill="#4482c3"/><path id="Shape" d="m42.93 17.38c-.3031272-.5956045-.6403538-1.1732303-1.01-1.73-.4993745-.7808441-1.0612138-1.5199303-1.68-2.21-.993282-1.1334645-2.1216876-2.1409695-3.36-3-.17-.12-.35-.24-.53-.36-.5544794-.37330844-1.1323323-.71066764-1.73-1.01-2.3675667-1.21014732-4.9644947-1.90538788-7.62-2.04-.33-.02-.66-.03-1-.03s-.67.01-1 .02c-2.6554357.14278056-5.2513649.84116046-7.62 2.05-.5976677.29933236-1.1755206.63669156-1.73 1.01-2.2306674 1.4406462-4.1293538 3.3393326-5.57 5.57-.37330844.5544794-.71066764 1.1323323-1.01 1.73-1.20883954 2.3686351-1.90721944 4.9645643-2.05 7.62-.01.33-.02.67-.02 1s.01.67.03 1c.13743267 2.6462511.82542231 5.2347269 2.02 7.6 0 .01.01.01.01.02 1.0656958 2.0824432 2.5064809 3.9503788 4.25 5.51.7273011.6583124 1.5064918 1.2569181 2.33 1.79.5571077.371671 1.1383994.7057467 1.74 1 2.1636809 1.1145066 4.5248816 1.7939889 6.95 2 .230237-.2940564.4773177-.5745263.74-.84l9.48-9.47 9.47-9.47c.2829484-.2821473.5835551-.5460132.9-.79-.2107154-2.4293598-.886298-4.7955962-1.99-6.97z" fill="#84b5cb"/><path id="Shape" d="m36.88 10.44c-9.18 3.52-22.63 10.76-27.83 24.16-1.19457769-2.3652731-1.88256733-4.9537489-2.02-7.6-.02-.33-.03-.66-.03-1s.01-.67.02-1c.14278056-2.6554357.84116046-5.2513649 2.05-7.62.29933236-.5976677.63669156-1.1755206 1.01-1.73 1.4406462-2.2306674 3.3393326-4.1293538 5.57-5.57.5544794-.37330844 1.1323323-.71066764 1.73-1.01 2.3686351-1.20883954 4.9645643-1.90721944 7.62-2.05.33-.01.67-.02 1-.02s.67.01 1 .03c2.6555053.13461212 5.2524333.82985268 7.62 2.04.5976677.29933236 1.1755206.63669156 1.73 1.01.18.12.36.24.53.36z" fill="#9fc9d3"/><g fill="#285680"><path id="Shape" d="m27 7.03v1.97c0 .55228475-.4477153 1-1 1s-1-.44771525-1-1v-1.98c.33-.01.67-.02 1-.02s.67.01 1 .03z"/><path id="Shape" d="m10 26c0 .5522847-.44771525 1-1 1h-1.97c-.02-.33-.03-.66-.03-1s.01-.67.02-1h1.98c.55228475 0 1 .4477153 1 1z"/><path id="Shape" d="m18 12.14c-.2288501.1362964-.5028629.1749377-.7604798.1072427-.257617-.0676949-.4772366-.2360498-.6095202-.4672427l-.98-1.7c.5544794-.37330844 1.1323323-.71066764 1.73-1.01l.99 1.71c.2713883.4779792.1061364 1.0853915-.37 1.36z"/><path id="Shape" d="m12.14 18c-.2746085.4761364-.8820208.6413883-1.36.37l-1.71-.99c.29933236-.5976677.63669156-1.1755206 1.01-1.73l1.7.98c.2297442.133628.3968418.3532172.4643886.6102702.0675467.257053.0299853.5304211-.1043886.7597298z"/><path id="Shape" d="m36.35 10.08-.98 1.7c-.1322836.2311929-.3519032.3995478-.6095202.4672427-.2576169.067695-.5316297.0290537-.7604798-.1072427-.4761364-.2746085-.6413883-.8820208-.37-1.36l.99-1.71c.5976677.29933236 1.1755206.63669156 1.73 1.01z"/><path id="Shape" d="m18.37 41.22-.99 1.7c-.6016006-.2942533-1.1828923-.628329-1.74-1l.99-1.7c.1786328-.3108211.5095174-.5027321.8680127-.5034421s.6901375.1898889.87.5.1806201.692621.0019873 1.0034421z"/><path id="Shape" d="m42.93 17.38-1.71.99c-.4779792.2713883-1.0853915.1061364-1.36-.37-.1343739-.2293087-.1719353-.5026768-.1043886-.7597298.0675468-.257053.2346444-.4766422.4643886-.6102702l1.7-.98c.3696462.5567697.7068728 1.1343955 1.01 1.73z"/><path id="Shape" d="m11.78 35.37-1.71.99c-.36754734-.5615168-.70469871-1.1423519-1.01-1.74l1.72-.99c.4804877-.2761424 1.0938576-.1104877 1.37.37s.1104877 1.0938576-.37 1.37z"/></g><path id="Shape" d="m17 32c-.4558146.0004901-.8542823-.3073201-.9689278-.7484817s.0835454-.9040265.4819278-1.1255183l8.487-4.714v-12.412c0-.5522847.4477153-1 1-1s1 .4477153 1 1v13c.000015.3630356-.1967218.6975647-.514.874l-9 5c-.1486491.0826458-.315921.1260126-.486.126z" fill="#35495e"/><path id="Shape" d="m56.07 41.93c-.6995644-.7038801-1.5020648-1.2973258-2.38-1.76l2.68-2.68c3.2463282-3.2469476 3.4247648-8.4529267.4083744-11.914531-3.0163903-3.4616043-8.1978322-3.9970652-11.8583744-1.225469-.3164449.2439868-.6170516.5078527-.9.79l-9.47 9.47-9.48 9.47c-.2626823.2654737-.509763.5459436-.74.84-1.2841256 1.6627847-1.9266426 3.7323284-1.81 5.83h.01c.1086827 2.1467616 1.0144131 4.1757405 2.54 5.69 3.4142985 3.4102727 8.9457015 3.4102727 12.36 0l2.74-2.74c.468759.8710884 1.061621 1.6694311 1.76 2.37 2.5107447 2.5995658 6.2287789 3.642126 9.7250732 2.7269716 3.4962944-.9151544 6.226744-3.645604 7.1418984-7.1418984.9151544-3.4962943-.1274058-7.2143285-2.7269716-9.7250732z" fill="#ff5364"/><path id="Shape" d="m56.07 41.93-14.14 14.14c-.698379-.7005689-1.291241-1.4989116-1.76-2.37-2.0666484-3.8815036-1.3551417-8.6575822 1.7531383-11.7681612 3.1082799-3.110579 7.8838311-3.8256168 11.7668617-1.7618388.8779352.4626742 1.6804356 1.0561199 2.38 1.76z" fill="#ecf0f1"/><path id="Shape" d="m59 49c-.0008635 4.043959-2.437275 7.6893405-6.1734544 9.2367798s-8.0366031.6922994-10.8965456-2.1667798l14.14-14.14c1.8783897 1.8729903 2.9328508 4.4173726 2.93 7.07z" fill="#bdc3c7"/><path id="Shape" d="m58.94 31.32c-.0009538 2.3168226-.9259662 4.5375722-2.57 6.17l-2.68 2.68c-3.8942626-2.0712788-8.6859883-1.3437818-11.79 1.79l-7.35-7.35 9.47-9.47c.2829484-.2821473.5835551-.5460132.9-.79 2.6471541-1.997229 6.1958702-2.3264257 9.1652381-.8502136 2.969368 1.4762122 4.8490978 4.5041442 4.8547619 7.8202136z" fill="#4fba6f"/><path id="Shape" d="m46 29c-.4043959-.0000863-.7689341-.2437275-.923678-.6173454-.1547439-.373618-.0692299-.8036603.216678-1.0896546 1.8329646-2.0765729 4.8866421-2.5496364 7.262-1.125.4333156.3140232.5426168.9135221.2480043 1.3602618-.2946125.4467398-.8887093.5823671-1.3480043.3077382-.245-.157-2.428-1.445-4.745.871-.1882272.1882861-.4437659.2937408-.71.293z" fill="#ecf0f1"/></g></g></svg>