<svg id="icons" enable-background="new 0 0 64 64" height="512" viewBox="0 0 64 64" width="512" xmlns="http://www.w3.org/2000/svg"><path d="m40 39.504c1.66 0 3 1.34 3 3s-1.34 3-3 3h-3v-6z" fill="#da4453"/><path d="m28 51.504v6h-3c-1.65 0-3-1.34-3-3s1.35-3 3-3z" fill="#f5f7fa"/><path d="m31 57.504c1.66 0 3 1.34 3 3s-1.34 3-3 3h-3v-6z" fill="#f5f7fa"/><path d="m18 21.525c-.55 0-1-.451-1-1v-2.012c0-.549.45-1 1-1h28c.55 0 1 .451 1 1v2.012c0 .549-.45 1-1 1z" fill="#656d78"/><path d="m28 57.504v6h-3c-1.65 0-3-1.34-3-3s1.35-3 3-3z" fill="#da4453"/><path d="m33 1.494c3.311 0 6 2.691 6 6 0 3.311-2.689 6-6 6-3.32 0-6-2.689-6-6 0-3.308 2.68-6 6-6z" fill="#ed5565"/><path d="m40 45.504c1.66 0 3 1.34 3 3s-1.34 3-3 3h-3v-6z" fill="#e6e9ed"/><path d="m43 60.504c0 1.66-1.34 3-3 3s-3-1.34-3-3v-3h6z" fill="#f5f7fa"/><path d="m37 39.504v6h-3c-1.66 0-3-1.34-3-3s1.34-3 3-3z" fill="#e6e9ed"/><g fill="#da4453"><path d="m31 51.504c1.66 0 3 1.34 3 3s-1.34 3-3 3h-3v-6z"/><path d="m43 54.504v3h-6v-3c0-1.66 1.34-3 3-3s3 1.34 3 3z"/><path d="m28 45.504v3c0 1.66-1.34 3-3 3s-3-1.34-3-3v-3z"/></g><path d="m28 42.504v3h-6v-3c0-1.66 1.34-3 3-3s3 1.34 3 3z" fill="#e6e9ed"/><path d="m37 45.504v6h-3c-1.66 0-3-1.34-3-3s1.34-3 3-3z" fill="#da4453"/><path d="m43 42.504c0-1.66-1.34-3-3-3h-3-3c-1.66 0-3 1.34-3 3s1.34 3 3 3c-1.66 0-3 1.34-3 3s1.34 3 3 3h3 3c-1.66 0-3 1.34-3 3v3 3c0 1.66 1.34 3 3 3h-9c1.66 0 3-1.34 3-3s-1.34-3-3-3c1.66 0 3-1.34 3-3s-1.34-3-3-3h-3-3c1.66 0 3-1.34 3-3v-3-3c0-1.66-1.34-3-3-3s-3 1.34-3 3v3 3c0 1.66 1.34 3 3 3-1.65 0-3 1.34-3 3s1.35 3 3 3c-1.65 0-3 1.34-3 3s1.35 3 3 3h-5c-1.1 0-2-.898-2-2v-39.979h28v39.979c0 1.102-.9 2-2 2h-4c1.66 0 3-1.34 3-3v-3-3c0-1.66-1.34-3-3-3 1.66 0 3-1.34 3-3s-1.34-3-3-3c1.66 0 3-1.34 3-3z" fill="#fc6e51"/><path d="m32.999 14.496c-3.859 0-7-3.141-7-7s3.141-7 7-7 7 3.141 7 7-3.141 7-7 7zm0-12c-2.757 0-5 2.242-5 5 0 2.756 2.243 5 5 5s5-2.244 5-5c0-2.758-2.243-5-5-5z" fill="#ed5565"/><path d="m32.999 10.496c-.553 0-1-.447-1-1v-4c0-.553.447-1 1-1s1 .447 1 1v4c0 .553-.447 1-1 1z" fill="#e6e9ed"/><path d="m34.999 8.496h-4c-.553 0-1-.447-1-1s.447-1 1-1h4c.553 0 1 .447 1 1s-.447 1-1 1z" fill="#e6e9ed"/></svg>