<svg height="503pt" viewBox="-35 0 503 503.37343" width="503pt" xmlns="http://www.w3.org/2000/svg"><path d="m156.347656 433.949219-6.546875 45.847656c-1.21875 8.546875-8.542969 14.898437-17.179687 14.898437h-21.964844c-8.636719 0-15.960938-6.351562-17.183594-14.898437l-6.550781-45.847656" fill="#d1d4d1"/><path d="m234.082031.0078125h-224.84375c-2.863281-.1210935-5.597656 1.1718755-7.316406 3.4648435-1.71875 2.289063-2.195313 5.277344-1.277344 7.992188l13.625 32.628906 3.386719 7.980469.34375 8.679687 9.113281 203.0625.78125 17.097656.171875 3.035157.78125 17.53125v.085937l5.207032 116.199219c.726562 13.96875 12.304687 24.902344 26.296874 24.820313h122.617188c13.972656.078124 25.53125-10.863282 26.207031-24.820313l8.765625-196.121094v-.089843l.78125-17.441407.78125-16.921875.78125-17.269531 5.292969-117.847656 17.097656-40.609375c.859375-2.710938.359375-5.667969-1.34375-7.941406-1.707031-2.277344-4.40625-3.585938-7.25-3.5156255zm0 0" fill="#e64c3c"/><path d="m434.023438 43.398438v156.203124c0 4.792969-3.886719 8.675782-8.679688 8.675782h-95.28125v-173.558594h95.28125c4.792969 0 8.679688 3.886719 8.679688 8.679688zm0 0" fill="#b0d3f0"/><g fill="#90bae1"><path d="m399.328125 182.289062h-52.066406c-4.792969 0-8.679688-3.886718-8.679688-8.679687s3.886719-8.675781 8.679688-8.675781h52.066406c4.792969 0 8.679687 3.882812 8.679687 8.675781s-3.886718 8.679687-8.679687 8.679687zm0 0"/><path d="m434.023438 130.175781v17.359375h-52.066407c-4.792969 0-8.679687-3.886718-8.679687-8.679687s3.886718-8.679688 8.679687-8.679688zm0 0"/><path d="m399.328125 112.863281h-52.066406c-4.792969 0-8.679688-3.882812-8.679688-8.675781s3.886719-8.679688 8.679688-8.679688h52.066406c4.792969 0 8.679687 3.886719 8.679687 8.679688s-3.886718 8.675781-8.679687 8.675781zm0 0"/><path d="m434.023438 60.753906v17.355469h-52.066407c-4.792969 0-8.679687-3.886719-8.679687-8.675781 0-4.792969 3.886718-8.679688 8.679687-8.679688zm0 0"/></g><path d="m364.617188 503.375c-14.378907 0-26.035157-11.65625-26.035157-26.035156v-147.527344l-41.054687-90.328125c-1.539063-3.382813-2.332032-7.054687-2.335938-10.769531v-202.628906c0-14.378907 11.65625-26.0351568 26.035156-26.0351568 14.378907 0 26.035157 11.6562498 26.035157 26.0351568v196.988281l41.0625 90.328125c1.535156 3.382812 2.328125 7.054687 2.328125 10.769531v153.167969c0 6.90625-2.746094 13.527344-7.625 18.410156-4.882813 4.878906-11.503906 7.625-18.410156 7.625zm0 0" fill="#e64c3c"/><path d="m199.71875 52.074219c.023438 2.308593-.882812 4.53125-2.515625 6.164062-1.632813 1.632813-3.855469 2.539063-6.164063 2.515625h-173.039062l-.34375-8.679687-3.386719-7.980469c1.070313-.457031 2.222657-.691406 3.386719-.695312h173.382812c4.792969 0 8.679688 3.882812 8.679688 8.675781zm0 0" fill="#c03a2b"/><path d="m219.851562 179.292969-1.476562 32.804687c-62.046875 17.09375-54.671875 74.71875-118.28125 87.039063-24.09375 4.175781-48.871094 1.714843-71.679688-7.113281l-.867187-19.699219c11.597656-1.597657 22.855469-5.085938 33.324219-10.328125 9.4375-4.789063 18.027344-11.09375 25.425781-18.65625 41.480469-41.828125 41.480469-69.773438 96.761719-69.773438 12.480468.039063 24.886718 1.96875 36.792968 5.726563zm0 0" fill="#e6e7e8"/></svg>