<svg height="512" viewBox="0 0 48 59" width="512" xmlns="http://www.w3.org/2000/svg"><g id="017---Side-Table" fill="none"><path id="Shape" d="m24 28c-.68 0-1.35 0-2-.06v28.06h4v-28c-.65 0-1.32 0-2 0z" fill="#a59078"/><path id="Shape" d="m24 29h-2v3h4v-3.06z" fill="#7f6e5d"/><path id="Shape" d="m26 55h-4c-8.18 0-13 1-15.68 2.07-.44524982.1759347-.70334236.6427624-.61555618 1.1133939.08778619.4706315.49682079.813021.97555618.8166061h34.64c.4787354-.0035851.88777-.3459746.9755562-.8166061s-.1703064-.9374592-.6155562-1.1133939c-2.68-1.07-7.5-2.07-15.68-2.07z" fill="#603e26"/><path id="Shape" d="m12 25c0 2.21 5.37 4 12 4s12-1.79 12-4l-12.08-1.5z" fill="#603e26"/><path id="Shape" d="m40 17h-2c-.5522847 0-1-.4477153-1-1v-4c0-.5522847.4477153-1 1-1h2c1.6568542 0 2.9999999 1.3431458 2.9999999 3s-1.3431457 3-2.9999999 3zm-1-2h1c.5522847 0 1-.4477153 1-1s-.4477153-1-1-1h-1z" fill="#33907c"/><path id="Shape" d="m34 10h4c.5522847 0 1 .4477153 1 1v9h-6v-9c0-.5522847.4477153-1 1-1z" fill="#65ddb9"/><rect id="Rectangle-path" fill="#a56a43" height="6" rx="2" width="48" y="19"/><path id="Shape" d="m15.9 15h-9.8c-.55228475-.1132184-1.09178161.2427153-1.20499999.795-.11321837.5522847.24271525 1.0917816.79499999 1.205 0 0 3.19 2 5.31 2s5.31-2 5.31-2c.5522847-.1132184.9082184-.6527153.795-1.205s-.6527153-.9082184-1.205-.795z" fill="#ff5364"/><path id="Shape" d="m36 8c-.5522847 0-1-.44771525-1-1 .0084168-.65635353.2956712-1.27813215.79-1.71.21-.2.21-.21.21-.29s0-.09-.21-.29c-.4943288-.43186785-.7815832-1.05364647-.79-1.71.0058597-.65693023.2935746-1.27970537.79-1.71.21-.2.21-.21.21-.29 0-.55228475.4477153-1 1-1s1 .44771525 1 1c-.0058597.65693023-.2935746 1.27970537-.79 1.71-.21.2-.21.21-.21.29s0 .08.21.29c.4943288.43186785.7815832 1.05364647.79 1.71-.0084168.65635353-.2956712 1.27813215-.79 1.71-.21.21-.21.21-.21.29 0 .55228475-.4477153 1-1 1z" fill="#bdc3c7"/></g></svg>