<svg id="icons" enable-background="new 0 0 64 64" height="512" viewBox="0 0 64 64" width="512" xmlns="http://www.w3.org/2000/svg"><path d="m15 7v44h17 17v-44z" fill="#fff"/><path d="m20.002 38.02h24v.998h-24z" fill="#ccd1d9"/><path d="m20.002 39.018h24v.998h-24z" fill="#e6e9ed"/><path d="m20.002 40.016h24v.998h-24z" fill="#ccd1d9"/><path d="m20.002 41.014h24v.998h-24z" fill="#e6e9ed"/><path d="m20.002 42.012h24v.998h-24z" fill="#ccd1d9"/><path d="m20.002 43.01h24v.998h-24z" fill="#e6e9ed"/><path d="m28.002 15.02h4 4 4 2c1.1 0 1.99.88 2 1.99v.01 3h-24v-3-.01c.01-1.11.9-1.99 2-1.99h2z" fill="#ed5565"/><path d="m20.002 20.02h24v18h-24z" fill="#e6e9ed"/><g fill="#656d78"><path d="m24.002 18.02c-.553 0-1-.447-1-1v-2.999c0-.553.447-1 1-1s1 .447 1 1v2.999c0 .552-.447 1-1 1z"/><path d="m28.002 18.02c-.553 0-1-.447-1-1v-2.999c0-.553.447-1 1-1s1 .447 1 1v2.999c0 .552-.447 1-1 1z"/><path d="m32.002 18.02c-.553 0-1-.447-1-1v-2.999c0-.553.447-1 1-1s1 .447 1 1v2.999c0 .552-.447 1-1 1z"/><path d="m36.002 18.02c-.553 0-1-.447-1-1v-2.999c0-.553.447-1 1-1s1 .447 1 1v2.999c0 .552-.447 1-1 1z"/><path d="m40.002 18.02c-.553 0-1-.447-1-1v-2.999c0-.553.447-1 1-1s1 .447 1 1v2.999c0 .552-.447 1-1 1z"/></g><path d="m49 53v4c0 3.29-2.7 6-6 6h-22c-3.3 0-6-2.71-6-6v-4c0 3.29 2.7 6 6 6h11 11c3.3 0 6-2.71 6-6z" fill="#545c66"/><path d="m32 51h-17v2c0 3.29 2.7 6 6 6h11 11c3.3 0 6-2.71 6-6v-2z" fill="#656d78"/><path d="m44 17v3h-24v-3c0-1.11.89-2 2-2h2 4 4 4 4 2c1.1 0 2 .89 2 2z" fill="#ed5565"/><path d="m32 53c1.1 0 2 .89 2 2 0 1.1-.9 2-2 2-1.11 0-2-.9-2-2 0-1.11.89-2 2-2z" fill="#ccd1d9"/><path d="m36 29.24-.5 4.76h-1.5c-1.11 0-2-.89-2-2 0 1.11-.9 2-2 2h-1.5l-.5-4.76c-.62-.55-1-1.351-1-2.24 0-1.66 1.34-3 3-3 .771 0 1.46.3 2 .78.53-.48 1.22-.78 2-.78 1.65 0 3 1.34 3 3 0 .89-.39 1.69-1 2.24z" fill="#fff"/><path d="m49 6v1h-34v-1c0-2.77 2.23-5 5-5h24c2.76 0 5 2.23 5 5z" fill="#656d78"/><path d="m29.03 5c-.553 0-1.005-.447-1.005-1s.442-1 .994-1h.011c.552 0 1 .447 1 1s-.448 1-1 1z" fill="#5d9cec"/><path d="m35 5h-3c-.553 0-1-.447-1-1s.447-1 1-1h3c.553 0 1 .447 1 1s-.447 1-1 1z" fill="#545c66"/><path d="m15 7h2.001v44h-2.001z" fill="#656d78"/><path d="m46.999 7h2.001v44h-2.001z" fill="#656d78"/></svg>