<?xml version="1.0" encoding="utf-8"?>
<!-- Generator: Adobe Illustrator 22.0.1, SVG Export Plug-In . SVG Version: 6.00 Build 0)  -->
<svg version="1.1" id="Layer_1" xmlns="http://www.w3.org/2000/svg" xmlns:xlink="http://www.w3.org/1999/xlink" x="0px" y="0px"
	 viewBox="0 0 3600 1884" style="enable-background:new 0 0 3600 1884;" xml:space="preserve">
<style type="text/css">
	.st0{clip-path:url(#SVGID_2_);}
	.st1{fill:none;stroke:#F0F0F0;stroke-width:3;stroke-miterlimit:10;}
	.st2{fill:#56B1DA;}
	.st3{fill:#49E1E6;}
	.st4{fill:#3AC5C9;}
	.st5{fill:#D0F1F2;}
	.st6{fill:#FFA9A6;}
	.st7{fill:#FFFFFF;}
	.st8{fill:#3D7E9C;}
	.st9{fill:#2B596E;}
	.st10{fill:#E6E6E6;}
	.st11{fill:#458FB0;}
	.st12{fill:#FF6D69;}
	.st13{fill:#FE8482;}
	.st14{fill:#FE7270;}
	.st15{fill:#292B3B;}
	.st16{fill:#A8E1E3;}
	.st17{fill:#FF8B87;}
	.st18{fill:#8ACCCF;}
	.st19{fill:none;stroke:#292B3B;stroke-width:7.9236;stroke-linecap:round;stroke-linejoin:round;stroke-miterlimit:10;}
	.st20{fill:none;stroke:#292B3B;stroke-width:6.4853;stroke-linecap:round;stroke-linejoin:round;stroke-miterlimit:10;}
	.st21{fill:#1A1C2E;}
	.st22{fill:#3B3E54;}
	.st23{fill:none;stroke:#292B3B;stroke-width:18;stroke-linecap:round;stroke-linejoin:round;stroke-miterlimit:10;}
</style>
<g>
	<g>
		<defs>
			<rect id="SVGID_1_" width="3600" height="1884"/>
		</defs>
		<use xlink:href="#SVGID_1_"  style="overflow:visible;fill:#81BEDA;"/>
		<clipPath id="SVGID_2_">
			<use xlink:href="#SVGID_1_"  style="overflow:visible;"/>
		</clipPath>
		<g class="st0">
			<line class="st1" x1="1973.9" y1="-1929.6" x2="-1000.3" y2="1044.6"/>
			<line class="st1" x1="1997" y1="-1906.5" x2="-977.2" y2="1067.7"/>
			<line class="st1" x1="2020.1" y1="-1883.4" x2="-954.1" y2="1090.8"/>
			<line class="st1" x1="2043.2" y1="-1860.3" x2="-931" y2="1113.9"/>
			<line class="st1" x1="2066.3" y1="-1837.2" x2="-907.9" y2="1137"/>
			<line class="st1" x1="2089.4" y1="-1814.1" x2="-884.8" y2="1160.1"/>
			<line class="st1" x1="2112.5" y1="-1791" x2="-861.7" y2="1183.2"/>
			<line class="st1" x1="2135.6" y1="-1767.9" x2="-838.6" y2="1206.3"/>
			<line class="st1" x1="2158.7" y1="-1744.8" x2="-815.5" y2="1229.4"/>
			<line class="st1" x1="2181.8" y1="-1721.7" x2="-792.4" y2="1252.5"/>
			<line class="st1" x1="2204.9" y1="-1698.6" x2="-769.3" y2="1275.6"/>
			<line class="st1" x1="2228" y1="-1675.5" x2="-746.2" y2="1298.7"/>
			<line class="st1" x1="2251.1" y1="-1652.4" x2="-723.1" y2="1321.8"/>
			<line class="st1" x1="2274.2" y1="-1629.3" x2="-700" y2="1344.9"/>
			<line class="st1" x1="2297.3" y1="-1606.2" x2="-676.9" y2="1368"/>
			<line class="st1" x1="2320.4" y1="-1583.1" x2="-653.8" y2="1391.1"/>
			<line class="st1" x1="2343.5" y1="-1560" x2="-630.7" y2="1414.2"/>
			<line class="st1" x1="2366.6" y1="-1536.9" x2="-607.6" y2="1437.3"/>
			<line class="st1" x1="2389.7" y1="-1513.8" x2="-584.5" y2="1460.4"/>
			<line class="st1" x1="2412.8" y1="-1490.7" x2="-561.4" y2="1483.5"/>
			<line class="st1" x1="2435.9" y1="-1467.6" x2="-538.3" y2="1506.6"/>
			<line class="st1" x1="2459" y1="-1444.5" x2="-515.2" y2="1529.7"/>
			<line class="st1" x1="2482.1" y1="-1421.4" x2="-492.1" y2="1552.8"/>
			<line class="st1" x1="2505.2" y1="-1398.3" x2="-469" y2="1575.9"/>
			<line class="st1" x1="2528.3" y1="-1375.2" x2="-445.9" y2="1599"/>
			<line class="st1" x1="2551.4" y1="-1352.1" x2="-422.8" y2="1622.1"/>
			<line class="st1" x1="2574.5" y1="-1329" x2="-399.7" y2="1645.2"/>
			<line class="st1" x1="2597.6" y1="-1305.9" x2="-376.6" y2="1668.3"/>
			<line class="st1" x1="2620.7" y1="-1282.8" x2="-353.4" y2="1691.4"/>
			<line class="st1" x1="2643.8" y1="-1259.6" x2="-330.3" y2="1714.5"/>
			<line class="st1" x1="2666.9" y1="-1236.5" x2="-307.2" y2="1737.6"/>
			<line class="st1" x1="2690" y1="-1213.4" x2="-284.1" y2="1760.7"/>
			<line class="st1" x1="2713.1" y1="-1190.3" x2="-261" y2="1783.8"/>
			<line class="st1" x1="2736.3" y1="-1167.2" x2="-237.9" y2="1807"/>
			<line class="st1" x1="2759.4" y1="-1144.1" x2="-214.8" y2="1830.1"/>
			<line class="st1" x1="2782.5" y1="-1121" x2="-191.7" y2="1853.2"/>
			<line class="st1" x1="2805.6" y1="-1097.9" x2="-168.6" y2="1876.3"/>
			<line class="st1" x1="2828.7" y1="-1074.8" x2="-145.5" y2="1899.4"/>
			<line class="st1" x1="2851.8" y1="-1051.7" x2="-122.4" y2="1922.5"/>
			<line class="st1" x1="2874.9" y1="-1028.6" x2="-99.3" y2="1945.6"/>
			<line class="st1" x1="2898" y1="-1005.5" x2="-76.2" y2="1968.7"/>
			<line class="st1" x1="2921.1" y1="-982.4" x2="-53.1" y2="1991.8"/>
			<line class="st1" x1="2944.2" y1="-959.3" x2="-30" y2="2014.9"/>
			<line class="st1" x1="2967.3" y1="-936.2" x2="-6.9" y2="2038"/>
			<line class="st1" x1="2990.4" y1="-913.1" x2="16.2" y2="2061.1"/>
			<line class="st1" x1="3013.5" y1="-890" x2="39.3" y2="2084.2"/>
			<line class="st1" x1="3036.6" y1="-866.9" x2="62.4" y2="2107.3"/>
			<line class="st1" x1="3059.7" y1="-843.8" x2="85.5" y2="2130.4"/>
			<line class="st1" x1="3082.8" y1="-820.7" x2="108.6" y2="2153.5"/>
			<line class="st1" x1="3105.9" y1="-797.6" x2="131.7" y2="2176.6"/>
			<line class="st1" x1="3129" y1="-774.5" x2="154.8" y2="2199.7"/>
			<line class="st1" x1="3152.1" y1="-751.4" x2="177.9" y2="2222.8"/>
			<line class="st1" x1="3175.2" y1="-728.3" x2="201" y2="2245.9"/>
			<line class="st1" x1="3198.3" y1="-705.2" x2="224.1" y2="2269"/>
			<line class="st1" x1="3221.4" y1="-682.1" x2="247.2" y2="2292.1"/>
			<line class="st1" x1="3244.5" y1="-659" x2="270.3" y2="2315.2"/>
			<line class="st1" x1="3267.6" y1="-635.9" x2="293.4" y2="2338.3"/>
			<line class="st1" x1="3290.7" y1="-612.8" x2="316.5" y2="2361.4"/>
			<line class="st1" x1="3313.8" y1="-589.7" x2="339.6" y2="2384.5"/>
			<line class="st1" x1="3336.9" y1="-566.6" x2="362.7" y2="2407.6"/>
			<line class="st1" x1="3360" y1="-543.5" x2="385.8" y2="2430.7"/>
			<line class="st1" x1="3383.1" y1="-520.4" x2="408.9" y2="2453.8"/>
			<line class="st1" x1="3406.2" y1="-497.2" x2="432.1" y2="2476.9"/>
			<line class="st1" x1="3429.3" y1="-474.1" x2="455.2" y2="2500"/>
			<line class="st1" x1="3452.4" y1="-451" x2="478.3" y2="2523.1"/>
			<line class="st1" x1="3475.5" y1="-427.9" x2="501.4" y2="2546.2"/>
			<line class="st1" x1="3498.7" y1="-404.8" x2="524.5" y2="2569.4"/>
			<line class="st1" x1="3521.8" y1="-381.7" x2="547.6" y2="2592.5"/>
			<line class="st1" x1="3544.9" y1="-358.6" x2="570.7" y2="2615.6"/>
			<line class="st1" x1="3568" y1="-335.5" x2="593.8" y2="2638.7"/>
			<line class="st1" x1="3591.1" y1="-312.4" x2="616.9" y2="2661.8"/>
			<line class="st1" x1="3614.2" y1="-289.3" x2="640" y2="2684.9"/>
			<line class="st1" x1="3637.3" y1="-266.2" x2="663.1" y2="2708"/>
			<line class="st1" x1="3660.4" y1="-243.1" x2="686.2" y2="2731.1"/>
			<line class="st1" x1="3683.5" y1="-220" x2="709.3" y2="2754.2"/>
			<line class="st1" x1="3706.6" y1="-196.9" x2="732.4" y2="2777.3"/>
			<line class="st1" x1="3729.7" y1="-173.8" x2="755.5" y2="2800.4"/>
			<line class="st1" x1="3752.8" y1="-150.7" x2="778.6" y2="2823.5"/>
			<line class="st1" x1="3775.9" y1="-127.6" x2="801.7" y2="2846.6"/>
			<line class="st1" x1="3799" y1="-104.5" x2="824.8" y2="2869.7"/>
			<line class="st1" x1="3822.1" y1="-81.4" x2="847.9" y2="2892.8"/>
			<line class="st1" x1="3845.2" y1="-58.3" x2="871" y2="2915.9"/>
			<line class="st1" x1="3868.3" y1="-35.2" x2="894.1" y2="2939"/>
			<line class="st1" x1="3891.4" y1="-12.1" x2="917.2" y2="2962.1"/>
			<line class="st1" x1="3914.5" y1="11" x2="940.3" y2="2985.2"/>
			<line class="st1" x1="3937.6" y1="34.1" x2="963.4" y2="3008.3"/>
			<line class="st1" x1="3960.7" y1="57.2" x2="986.5" y2="3031.4"/>
			<line class="st1" x1="3983.8" y1="80.3" x2="1009.6" y2="3054.5"/>
			<line class="st1" x1="4006.9" y1="103.4" x2="1032.7" y2="3077.6"/>
			<line class="st1" x1="4030" y1="126.5" x2="1055.8" y2="3100.7"/>
			<line class="st1" x1="4053.1" y1="149.6" x2="1078.9" y2="3123.8"/>
			<line class="st1" x1="4076.2" y1="172.7" x2="1102" y2="3146.9"/>
			<line class="st1" x1="4099.3" y1="195.8" x2="1125.1" y2="3170"/>
			<line class="st1" x1="4122.4" y1="218.9" x2="1148.2" y2="3193.1"/>
			<line class="st1" x1="4145.5" y1="242" x2="1171.3" y2="3216.2"/>
			<line class="st1" x1="4168.6" y1="265.1" x2="1194.5" y2="3239.3"/>
			<line class="st1" x1="4191.7" y1="288.3" x2="1217.6" y2="3262.4"/>
			<line class="st1" x1="4214.8" y1="311.4" x2="1240.7" y2="3285.5"/>
			<line class="st1" x1="4237.9" y1="334.5" x2="1263.8" y2="3308.6"/>
			<line class="st1" x1="4261.1" y1="357.6" x2="1286.9" y2="3331.7"/>
			<line class="st1" x1="4284.2" y1="380.7" x2="1310" y2="3354.9"/>
			<line class="st1" x1="4307.3" y1="403.8" x2="1333.1" y2="3378"/>
			<line class="st1" x1="4330.4" y1="426.9" x2="1356.2" y2="3401.1"/>
			<line class="st1" x1="4353.5" y1="450" x2="1379.3" y2="3424.2"/>
			<line class="st1" x1="4376.6" y1="473.1" x2="1402.4" y2="3447.3"/>
			<line class="st1" x1="4399.7" y1="496.2" x2="1425.5" y2="3470.4"/>
			<line class="st1" x1="4422.8" y1="519.3" x2="1448.6" y2="3493.5"/>
			<line class="st1" x1="4445.9" y1="542.4" x2="1471.7" y2="3516.6"/>
			<line class="st1" x1="4469" y1="565.5" x2="1494.8" y2="3539.7"/>
			<line class="st1" x1="4492.1" y1="588.6" x2="1517.9" y2="3562.8"/>
			<line class="st1" x1="4515.2" y1="611.7" x2="1541" y2="3585.9"/>
			<line class="st1" x1="4538.3" y1="634.8" x2="1564.1" y2="3609"/>
			<line class="st1" x1="4561.4" y1="657.9" x2="1587.2" y2="3632.1"/>
			<line class="st1" x1="4574.3" y1="691" x2="1600.1" y2="3665.2"/>
			<line class="st1" x1="4587.3" y1="724.2" x2="1613.1" y2="3698.4"/>
			<line class="st1" x1="4600.2" y1="757.3" x2="1626" y2="3731.5"/>
			<line class="st1" x1="4613.1" y1="790.4" x2="1639" y2="3764.6"/>
			<line class="st1" x1="4626.1" y1="823.6" x2="1651.9" y2="3797.8"/>
		</g>
	</g>
	<path class="st2" d="M3295.6,1884c18.1-57.6,27.9-118.9,27.9-182.4c0-277.3-185.8-511.2-439.8-584c18-43.6,27.9-91.3,27.9-141.3
		c0-204.7-165.9-370.6-370.6-370.6c-35.2,0-69.2,4.9-101.5,14.1c-137-220.4-381.3-367.2-660-367.2c-360.3,0-663.3,245.4-751,578.2
		c-417.6,12.9-752.2,355.4-752.2,776.1c0,97.7,18.1,191.1,51,277.2H3295.6z"/>
	<g>
		<path class="st3" d="M2401,801.8c-18.9,18.9-48.3,20.9-69.4,6c-2.5-1.7-4.9-3.8-7.2-6c-2.2-2.2-4.3-4.6-6-7.2
			c-14.9-21.1-12.9-50.5,6-69.4c18.9-18.9,48.3-20.9,69.4-6c2.5,1.7,4.9,3.8,7.2,6c2.2,2.2,4.3,4.6,6,7.2
			C2421.9,753.5,2419.9,782.9,2401,801.8z"/>
		<path class="st4" d="M2407,732.4l-75.4,75.4c-2.5-1.7-4.9-3.8-7.2-6c-2.2-2.2-4.3-4.6-6-7.2l75.4-75.4c2.5,1.7,4.9,3.8,7.2,6
			C2403.3,727.5,2405.3,729.9,2407,732.4z"/>
	</g>
	<g>
		<path class="st5" d="M361.4,622c-77.8,0-143.5,52.2-163.8,123.5h327.6C504.8,674.2,439.2,622,361.4,622z"/>
		<path class="st5" d="M808.3,622c-77.8,0-143.5,52.2-163.8,123.5h327.6C951.7,674.2,886.1,622,808.3,622z"/>
		<path class="st5" d="M595.4,569.1c-111.2,0-204.9,74.6-234,176.4h468C800.3,643.7,706.5,569.1,595.4,569.1z"/>
	</g>
	<g>
		<path class="st5" d="M1850.8,318.1c-108.1,0-199.3,72.5-227.5,171.5h455.1C2050,390.6,1958.9,318.1,1850.8,318.1z"/>
		<path class="st5" d="M2471.5,318.1c-108.1,0-199.3,72.5-227.5,171.5h455.1C2670.8,390.6,2579.6,318.1,2471.5,318.1z"/>
		<path class="st5" d="M2175.8,244.6c-154.4,0-284.6,103.6-325,245h650C2460.4,348.2,2330.2,244.6,2175.8,244.6z"/>
	</g>
	<g>
		<path class="st6" d="M387.7,727.8c-48.1,0-88.6,32.2-101.2,76.3h202.4C476.3,760,435.7,727.8,387.7,727.8z"/>
		<path class="st6" d="M663.7,727.8c-48.1,0-88.6,32.2-101.2,76.3h202.4C752.3,760,711.8,727.8,663.7,727.8z"/>
		<path class="st6" d="M532.2,695.1c-68.7,0-126.6,46.1-144.5,109h289.1C658.8,741.2,600.9,695.1,532.2,695.1z"/>
	</g>
	<g>
		<path class="st7" d="M2020.2,453.1c-66.8,0-123.1,44.8-140.6,106h281.1C2143.3,497.9,2087,453.1,2020.2,453.1z"/>
		<path class="st7" d="M2403.7,453.1c-66.8,0-123.1,44.8-140.6,106h281.1C2526.8,497.9,2470.5,453.1,2403.7,453.1z"/>
		<path class="st7" d="M2221,407.7c-95.4,0-175.8,64-200.8,151.4h401.5C2396.8,471.7,2316.4,407.7,2221,407.7z"/>
	</g>
	<g>
		<path class="st8" d="M2655.5,744.8c-88.9,0-163.8,59.6-187.1,141h374.2C2819.3,804.4,2744.4,744.8,2655.5,744.8z"/>
		<path class="st8" d="M3165.9,744.8c-88.9,0-163.8,59.6-187.1,141H3353C3329.7,804.4,3254.8,744.8,3165.9,744.8z"/>
		<path class="st8" d="M2922.7,684.4c-127,0-234,85.2-267.2,201.5h534.5C3156.7,769.6,3049.7,684.4,2922.7,684.4z"/>
	</g>
	<g>
		<g>
			<path class="st3" d="M1201.8,926v688.3h-186.9c-24.5,0-44.3-19.8-44.3-44.3v-466.1c0-32.2,13.1-61.4,34.2-82.5
				c21.1-21.1,50.3-34.2,82.5-34.2c7,0,12.7-5.7,12.7-12.7v-4.9h-5.5c-4.9,0-8.9-4-8.9-8.9s4-8.9,8.9-8.9h5.5V926H1201.8z"/>
			<path class="st4" d="M1316.4,987.2L1316.4,987.2c-7,0-12.7-5.7-12.7-12.7v-4.9h5.5c4.9,0,8.9-4,8.9-8.9c0-4.9-4-8.9-8.9-8.9h-5.5
				V926h-101.9v688.4h186.9c24.5,0,44.3-19.9,44.3-44.3v-466.1C1433.1,1039.5,1380.9,987.2,1316.4,987.2z"/>
		</g>
		<g>
			<path class="st9" d="M1318.1,808.5v130.6h-232.6V808.5c0-9,7.3-16.4,16.4-16.4h199.8C1310.8,792.1,1318.1,799.5,1318.1,808.5z"/>
			<g>
				<rect x="1105.1" y="792.1" class="st8" width="16.1" height="147"/>
				<rect x="1140.6" y="792.1" class="st8" width="16.1" height="147"/>
				<rect x="1176" y="792.1" class="st8" width="16.1" height="147"/>
				<rect x="1211.5" y="792.1" class="st8" width="16.1" height="147"/>
				<rect x="1247" y="792.1" class="st8" width="16.1" height="147"/>
				<rect x="1282.5" y="792.1" class="st8" width="16.1" height="147"/>
			</g>
		</g>
		<rect x="970.6" y="1113.6" class="st7" width="296.4" height="377.9"/>
		<rect x="1201.8" y="1113.6" class="st10" width="65.1" height="377.9"/>
		<rect x="1010.3" y="1147.1" class="st4" width="218.7" height="22.4"/>
		<rect x="1010.3" y="1189.5" class="st4" width="218.7" height="22.4"/>
		<rect x="1010.3" y="1231.8" class="st4" width="218.7" height="22.4"/>
		<rect x="1010.3" y="1274.1" class="st4" width="218.7" height="22.4"/>
		<rect x="1010.3" y="1422.2" class="st4" width="218.7" height="22.4"/>
	</g>
	<g>
		<path class="st8" d="M1309.2,1354.8c-170.9,0-315.1,114.6-359.8,271.2H1669C1624.3,1469.4,1480.2,1354.8,1309.2,1354.8z"/>
		<path class="st8" d="M2290.8,1354.8c-170.9,0-315.1,114.6-359.8,271.2h719.6C2605.9,1469.4,2461.7,1354.8,2290.8,1354.8z"/>
		<path class="st8" d="M1823.1,1238.6c-244.2,0-450.1,163.8-513.9,387.4H2337C2273.2,1402.3,2067.3,1238.6,1823.1,1238.6z"/>
	</g>
	<g>
		
			<rect x="2363" y="1048.7" transform="matrix(1 -1.261810e-03 1.261810e-03 1 -1.5224 3.1272)" class="st7" width="229.3" height="318.8"/>
		<polygon class="st9" points="3600,1409.2 3598.1,1006.6 2517.3,1007 2519.2,1409.6 		"/>
		<path class="st7" d="M2048.7,1439l198.8-0.1l58.1,0c64.7,0,117.6-53,117.6-117.7l-0.1-264c0-44.5-36.5-81-81-81l-293.5,0.1
			c-44.5,0-81,36.5-81,81.1l0.1,290v10.7c0,24.4,11,46.4,28.2,61.3c11.6,10,26,16.8,41.9,18.9C2041.4,1438.8,2045,1439,2048.7,1439z
			"/>
		<path class="st7" d="M1856.8,1439.2l317-0.1l61.1,0c2.4,0,4.7-0.3,7-0.8c14.5-3.2,25.5-16.3,25.5-31.8l0-26.6
			c0-3.5-0.6-7-1.6-10.2c-4.3-13-16.5-22.4-30.9-22.4l-63.1,0l-315,0.1c-17.9,0-32.5,14.6-32.5,32.5l0,26.6
			C1824.2,1424.6,1838.9,1439.2,1856.8,1439.2z"/>
		<path class="st7" d="M1553.7,1013.2l0,30.6c0,20.6,16.8,37.4,37.4,37.4l434.7-0.2c20.6,0,37.4-16.8,37.4-37.4l0-30.6
			c0-20.6-16.8-37.4-37.4-37.4l-434.7,0.2C1570.5,975.8,1553.7,992.6,1553.7,1013.2"/>
		<path class="st7" d="M1800,1136.9l0,30.6c0,20.6,16.8,37.4,37.4,37.4l487.8-0.2c20.6,0,37.4-16.8,37.4-37.4l0-30.6
			c0-20.6-16.8-37.4-37.4-37.4l-487.8,0.2C1816.8,1099.5,1800,1116.3,1800,1136.9"/>
		<path class="st7" d="M1800,1262.4l0,30.6c0,20.6,16.8,37.4,37.4,37.4l487.8-0.2c20.6,0,37.4-16.8,37.4-37.4l0-30.6
			c0-20.6-16.8-37.4-37.4-37.4l-487.8,0.2C1816.8,1225,1800,1241.8,1800,1262.4"/>
		<path class="st7" d="M1937.1,747.5L1937.1,747.5c22.7-28.8,63.7-34.6,93.4-13.1L2395,969.6c33,23.8,49.2,75.2,22,114.7
			c-36.1,52.3-97.7,36.5-128.7,13.5L1950,847C1918.6,823.6,1912.8,778.4,1937.1,747.5"/>
	</g>
	<path class="st11" d="M2638.1,1713.7H961.9c-31,0-56.1-25.1-56.1-56.1l0,0c0-31,25.1-56.1,56.1-56.1h1676.2
		c31,0,56.1,25.1,56.1,56.1l0,0C2694.2,1688.6,2669.1,1713.7,2638.1,1713.7z"/>
	<path class="st12" d="M1573.3,1120c0-18.5,33.4-67.4,33.4-67.4s33.4,49,33.4,67.4c0,18.5-15,33.4-33.4,33.4
		C1588.3,1153.4,1573.3,1138.4,1573.3,1120z"/>
	<rect x="1581.7" y="785.1" class="st5" width="50" height="169"/>
	<g>
		<path class="st4" d="M510.6,1510C606,1617.6,755.3,1641,755.3,1641l-345.3-389.5C409.9,1251.5,415.3,1402.5,510.6,1510z"/>
		<path class="st3" d="M409.9,1251.5L755.3,1641c0,0-5.3-151-100.7-258.6C559.2,1274.8,409.9,1251.5,409.9,1251.5z"/>
	</g>
	<g>
		<path class="st4" d="M618.6,1368.4c28.1,141,145.2,236.4,145.2,236.4l-101.8-510.5C662.1,1094.3,590.5,1227.4,618.6,1368.4z"/>
		<path class="st3" d="M662.1,1094.3l101.8,510.5c0,0,71.6-133.1,43.5-274.1C779.2,1189.8,662.1,1094.3,662.1,1094.3z"/>
	</g>
	<g>
		<path class="st6" d="M667.6,1592.6c-83,0-152.9,55.6-174.6,131.7h349.3C820.5,1648.2,750.6,1592.6,667.6,1592.6z"/>
		<path class="st6" d="M1144,1592.6c-83,0-152.9,55.6-174.6,131.7h349.3C1297,1648.2,1227,1592.6,1144,1592.6z"/>
		<path class="st6" d="M917,1536.2c-118.5,0-218.5,79.5-249.5,188.1h498.9C1135.5,1615.7,1035.6,1536.2,917,1536.2z"/>
	</g>
	<g>
		<rect x="1581.7" y="785.1" class="st5" width="50" height="169"/>
		<polygon class="st8" points="1631.7,1016.7 1606.7,1031.7 1581.7,1016.7 1581.7,932.2 1631.7,932.2 		"/>
		<g>
			<path class="st13" d="M1456.4,233.2c-39.8,0-71.7,33.1-70.1,72.9l17.9,458.6c1.6,40.7,35,72.8,75.7,72.8h126.9V233.2H1456.4z"/>
			<path class="st14" d="M1757.1,233.2h-150.3v604.3h126.9c40.7,0,74.1-32.1,75.7-72.8l17.9-458.6
				C1828.7,266.3,1796.9,233.2,1757.1,233.2z"/>
		</g>
		<path class="st5" d="M1710.4,568.3h-207.2c-18.2,0-32.9-14.7-32.9-32.9V360.9c0-18.2,14.7-32.9,32.9-32.9h207.2
			c18.2,0,32.9,14.7,32.9,32.9v174.5C1743.2,553.6,1728.5,568.3,1710.4,568.3z"/>
		<g>
			<path class="st3" d="M1726.6,703.7h-78.2c-9.2,0-16.6-7.4-16.6-16.6v-35c0-9.2,7.4-16.6,16.6-16.6h78.2c9.2,0,16.6,7.4,16.6,16.6
				v35C1743.2,696.2,1735.8,703.7,1726.6,703.7z"/>
			<polygon class="st8" points="1711.2,669.6 1671.1,652.6 1671.1,686.6 			"/>
		</g>
		<g>
			<path class="st3" d="M1486.9,703.7h78.2c9.2,0,16.6-7.4,16.6-16.6v-35c0-9.2-7.4-16.6-16.6-16.6h-78.2c-9.2,0-16.6,7.4-16.6,16.6
				v35C1470.2,696.2,1477.7,703.7,1486.9,703.7z"/>
			<polygon class="st8" points="1502.3,669.6 1542.3,652.6 1542.3,686.6 			"/>
		</g>
		<g>
			<path class="st9" d="M1589,442.1c0,16.6-7.6,25.6-23.6,25.6c-15.2,0-23-9-23-24.7v-2.5h14.6v3.5c0,7,3.1,9.7,8,9.7
				c5.5,0,8.6-2.7,8.6-12.1v-18c-2.7,5.6-7.4,8.7-14.3,8.7c-11.4,0-17.1-8-17.1-22.5v-18c0-15.7,8.3-24.7,23.5-24.7
				s23.5,9,23.5,24.7V442.1z M1573.5,408.6v-17.7c0-7-3.1-9.6-8-9.6s-8,2.5-8,9.6v17.7c0,7,3.1,9.7,8,9.7S1573.5,415.6,1573.5,408.6
				z"/>
			<path class="st9" d="M1614.1,451.7v14.9h-14.9v-14.9H1614.1z"/>
			<path class="st9" d="M1648,381.2c-4.9,0-8,2.7-8,9.7v10.5h-14.6v-9.6c0-15.7,7.9-24.7,23-24.7c15.2,0,23,9,23,24.7
				c0,30.9-30.8,42.4-30.8,58.6c0,0.7,0,1.4,0.1,2.1h29.2v14.1h-44.7v-12.1c0-28.9,30.6-33.7,30.6-62.1
				C1656,383.5,1652.9,381.2,1648,381.2z"/>
		</g>
	</g>
	<g>
		<polygon class="st15" points="2224,1654.6 1953.4,1654.8 1935.1,1673.2 2224,1672.9 		"/>
		<rect x="2573.7" y="1618.7" class="st5" width="603.1" height="88.9"/>
		<rect x="3128.6" y="1618.4" class="st16" width="48.2" height="88.9"/>
		<rect x="2369.9" y="1574.9" class="st5" width="593.4" height="177"/>
		<rect x="2277.4" y="1633.4" class="st17" width="92.4" height="60.6"/>
		<path class="st18" d="M2288.5,1708.1L2288.5,1708.1c-6.3,0-11.4-5.1-11.5-11.4l-0.1-66c0-6.3,5.1-11.4,11.4-11.5l0,0
			c6.3,0,11.4,5.1,11.5,11.4l0.1,66C2299.9,1703,2294.8,1708.1,2288.5,1708.1z"/>
		<path class="st18" d="M2288.9,1690.2l-65.1-4.6c-6.8-0.5-12-6.1-12-12.9l0-17.9c0-6.8,5.2-12.4,12-12.9l65-4.8L2288.9,1690.2z"/>
		<rect x="2922.8" y="1574.6" class="st16" width="40.5" height="177"/>
		<rect x="2573.7" y="1623.6" class="st18" width="375.4" height="79.2"/>
		<rect x="2573.7" y="1646.9" class="st16" width="603.1" height="32.6"/>
		<path class="st17" d="M2550.5,1751.9l-205.4,0.2c-8.1,0-14.7-6.6-14.7-14.7l-0.1-147.6c0-8.1,6.6-14.7,14.7-14.7l205.4-0.2
			L2550.5,1751.9z"/>
		<path class="st5" d="M2949.2,1794.1L2949.2,1794.1c-9.3,0-16.8-7.5-16.8-16.8l-0.2-228.4c0-9.3,7.5-16.8,16.8-16.8l0,0
			c9.3,0,16.8,7.5,16.8,16.8l0.2,228.4C2966,1786.6,2958.5,1794.1,2949.2,1794.1z"/>
		<path class="st5" d="M3176.8,1735.5l-2.4,0c-16.9,0-30.6-13.7-30.6-30.5l-0.1-84.2c0-16.9,13.7-30.6,30.5-30.6l2.4,0
			L3176.8,1735.5z"/>
		<path class="st16" d="M2583.4,1744.5l-0.6,0c-17.8,0-32.3-14.4-32.3-32.3l-0.1-97.7c0-17.8,14.4-32.3,32.3-32.3l0.6,0
			L2583.4,1744.5z"/>
		<g>
			<line class="st19" x1="2378.7" y1="1624" x2="2378.7" y2="1703.2"/>
			<line class="st20" x1="2409.5" y1="1637" x2="2409.5" y2="1690.1"/>
			<line class="st20" x1="2440.3" y1="1637" x2="2440.3" y2="1690.1"/>
			<line class="st20" x1="2471.1" y1="1637" x2="2471.2" y2="1690.1"/>
			<line class="st20" x1="2501.9" y1="1636.9" x2="2502" y2="1690"/>
			<line class="st19" x1="2532.7" y1="1623.8" x2="2532.8" y2="1703.1"/>
			<line class="st20" x1="2563.6" y1="1636.9" x2="2563.6" y2="1690"/>
			<line class="st20" x1="2594.4" y1="1636.9" x2="2594.4" y2="1689.9"/>
			<line class="st20" x1="2625.2" y1="1636.8" x2="2625.2" y2="1689.9"/>
			<line class="st20" x1="2656" y1="1636.8" x2="2656" y2="1689.9"/>
			<line class="st19" x1="2686.8" y1="1623.7" x2="2686.9" y2="1702.9"/>
			<line class="st20" x1="2717.6" y1="1636.8" x2="2717.7" y2="1689.8"/>
			<line class="st20" x1="2748.4" y1="1636.7" x2="2748.5" y2="1689.8"/>
			<line class="st20" x1="2779.3" y1="1636.7" x2="2779.3" y2="1689.8"/>
		</g>
	</g>
	<g>
		<g>
			<path class="st7" d="M1181.7,1595.9c-0.3-0.3-0.5-0.7-0.8-1c-1.8-3-0.9-7,2.2-8.8l39.6-23.9c3-1.8,7-0.9,8.8,2.2
				c1.8,3,0.9,7-2.2,8.8l-39.6,23.9C1187.1,1598.6,1183.8,1598.1,1181.7,1595.9z"/>
		</g>
		<path class="st21" d="M1182.6,1584.2c0,0-14.9,8.3-12.5,11.5c2.4,3.2,39.9,46.6,42,45.1c7.5-5.3-18.1-45.5-21.9-48.2
			C1186.5,1589.8,1184.7,1582.9,1182.6,1584.2z"/>
		<path class="st7" d="M1534.5,1081.3c0,0,14.3-29.9,22.4-31.8c8.1-1.9-2.3,28.1-19,39.2L1534.5,1081.3z"/>
		<g>
			<path class="st10" d="M1532.8,1076.8c3.8,3.8,7.5,7.4,11.2,11.1c-56.8,60.5-105.3,72.3-179.5,39.1c-11.4-5.1-10.9-9.4-5.8-18.5
				c-1-1.6-1.1-1.5,0,0c5.1-9,8.4-9.6,19.9-4.5C1454,1137.6,1467.4,1126.4,1532.8,1076.8z"/>
		</g>
		<g>
			<path class="st7" d="M1385.7,1662.7c-0.4,0-0.9,0-1.3-0.1c-3.5-0.7-5.7-4.1-5-7.6l9.2-45.3c0.7-3.5,4.1-5.7,7.6-5
				c3.5,0.7,5.7,4.1,5,7.6l-9.2,45.3C1391.3,1660.6,1388.7,1662.7,1385.7,1662.7z"/>
		</g>
		<g>
			<path class="st15" d="M1399.8,1636.3c-6.9-0.2-13.7-0.9-20.5-1.9c20.4-108.9,35.8-255.2-18.7-357c16.5-8.1,33.2-16,49.9-23.9
				C1450.3,1342.3,1416.4,1542.6,1399.8,1636.3z"/>
		</g>
		<g>
			<path class="st22" d="M1208.1,1590.9c-4.1-5.9-8-11.9-11.6-18.2c132.1-79.6,173.8-155.6,149.3-312.6c18.4-3.3,36.9-6.4,55.4-8.7
				C1404.7,1427.8,1345.4,1497,1208.1,1590.9z"/>
		</g>
		<path class="st21" d="M1377.6,1654.1c0,0-4,16.5,0,17c4,0.5,61.3,2.2,61.6-0.5c1.1-9.1-45.7-17.5-50.3-16.5
			C1384.4,1655.1,1378.1,1651.7,1377.6,1654.1z"/>
		<g>
			<path class="st7" d="M1350.6,1370.1c8.9-3.5,19.1,6.7,41.5,5.8c15.2-0.6,38.7-15.7,48.1-14.5c-5.7-51.9-61.9-205.7-58.3-229.3
				c1.8-11.8-2.8-23.6-12.3-30.8l-3.7-2.8c-17.1-13.1-42.1-3.7-46.2,17.4c-1.4,7.1-2.4,15.2-2.9,24.3
				C1314.6,1183.6,1337.2,1307.4,1350.6,1370.1z"/>
		</g>
		<path class="st7" d="M1336.5,1062.3c7.3,18,25.8,27.5,36.8,23c11-4.5,10.4-21.2,3-39.3c-7.3-18-20-23.6-31-19.1
			C1334.4,1031.5,1329.2,1044.3,1336.5,1062.3z"/>
		<path class="st7" d="M1330.9,1071.9c1.7,4.2,8.1,7.9,11.1,6.6c3-1.2,2.4-4.9,0.7-9.1c-1.7-4.2-5.8-7.1-8.8-5.9
			C1330.9,1064.7,1329.2,1067.7,1330.9,1071.9z"/>
		<path class="st21" d="M1329.2,1051.9c0,0-0.9-13.1,6.4-20.9c7.3-7.8,25-14.2,35.3,0.2c0,0,6.4,10.9-7.5,17.5
			c-13.8,6.5-13.7-1.9-18.5,7.5c-4.7,9.4-12.8,6.2-13.6,8.3L1329.2,1051.9z"/>
		<path class="st7" d="M1339.6,1063l20.3-2c0.3,2.8,2.4,29.3,1.4,39.3c-0.7,3.1-5.8,4.5-11.3,3.2c-5-1.2-8.5-4.2-8.7-7l0,0
			C1341.9,1090.4,1340.6,1072.7,1339.6,1063z"/>
		<path class="st21" d="M1345.2,1069.7c3.6-2.6,5.8,0.8,12.1,6.1c6.3,5.3,19.2,6.8,23.3-9.7c2.6-10.5,5.2,8,5.2,8
			c-0.5,8.9-3.8,13.7-10.4,16.3c-9,3.7-21.7,0.5-31.7-8.5C1342.7,1077.4,1342.8,1071.5,1345.2,1069.7z"/>
		<path class="st21" d="M1381.2,1065.7c0,0-0.3,0.1-0.7,0.2c-3.9,1.2-21.4,7.1-24.2,13.3c-3.2,7,9.1-1.2,13.1-5.3
			c4-4.1,7.7-2.8,11.3-3.1C1384.1,1070.4,1386.5,1066.5,1381.2,1065.7z"/>
		<path class="st7" d="M1468.2,1195c0,0,25.3-23.9,34-22.7c8.7,1.2-12.8,26.7-33.4,31.2L1468.2,1195z"/>
		<g>
			<path class="st10" d="M1472.6,1188.1c2.5,4.8,5,9.6,7.6,13.9c-79.4,42-149.2,43.4-155-61c-0.9-16,3-13.5,12.4-14.4
				c1.9-1.7,1.1-1.4,0,0c9.4-0.9,15-0.3,14.6,14.4C1349.9,1236.7,1406.1,1209.4,1472.6,1188.1z"/>
		</g>
	</g>
	<g>
		<g>
			<path class="st4" d="M1615.8,1313.8c37.8,33,103.1,20.1,103.1,20.1l-137-119.5C1581.9,1214.4,1577.9,1280.8,1615.8,1313.8z"/>
			<path class="st3" d="M1581.9,1214.4l137,119.5c0,0,3.9-66.4-33.9-99.4C1647.1,1201.5,1581.9,1214.4,1581.9,1214.4z"/>
		</g>
		<line class="st23" x1="1720.5" y1="1330.4" x2="1720.5" y2="1663.9"/>
		<path class="st17" d="M1756.7,1446.2c25.5,87.1,1,203.3-65.5,222.8c-66.5,19.5-149.8-65.2-175.3-152.3
			c-25.5-87.1,16.4-143.7,82.9-163.1C1665.3,1334.1,1731.1,1359.1,1756.7,1446.2z"/>
		<path class="st17" d="M1686.2,1446.2c-25.5,87.1-1,203.3,65.5,222.8c66.5,19.5,149.8-65.2,175.3-152.3
			c25.5-87.1-16.4-143.7-82.9-163.1C1777.5,1334.1,1711.7,1359.1,1686.2,1446.2z"/>
	</g>
	<g>
		<path class="st3" d="M1789.6,1716c-21.2-16.3-26.9-45.2-14.8-68c1.4-2.7,3.1-5.4,5.1-7.9c1.9-2.5,4-4.8,6.3-6.9
			c19-17.5,48.4-19.2,69.6-2.9c21.1,16.3,26.9,45.2,14.8,68c-1.4,2.7-3.1,5.3-5,7.9c-1.9,2.5-4.1,4.8-6.3,6.9
			C1840.2,1730.5,1810.8,1732.3,1789.6,1716z"/>
		<path class="st4" d="M1859.2,1713.1l-84.4-65.1c1.4-2.7,3.1-5.4,5.1-7.9c1.9-2.5,4-4.8,6.3-6.9l84.4,65.1c-1.4,2.7-3.1,5.3-5,7.9
			C1863.6,1708.7,1861.5,1711,1859.2,1713.1z"/>
	</g>
	<g>
		<path class="st3" d="M2606.8,1357.7c17.9-19.8,47.1-23.3,69-9.5c2.6,1.6,5.1,3.5,7.5,5.6s4.5,4.4,6.4,6.8
			c16,20.3,15.5,49.8-2.4,69.6c-17.9,19.8-47.1,23.3-69,9.5c-2.6-1.6-5.1-3.5-7.4-5.6c-2.4-2.1-4.5-4.4-6.4-6.9
			C2588.5,1406.9,2588.9,1377.5,2606.8,1357.7z"/>
		<path class="st4" d="M2604.4,1427.3l71.4-79.1c2.6,1.6,5.1,3.5,7.5,5.6s4.5,4.4,6.4,6.8l-71.4,79.1c-2.6-1.6-5.1-3.5-7.4-5.6
			C2608.4,1432,2606.3,1429.7,2604.4,1427.3z"/>
	</g>
	<circle class="st7" cx="2189.5" cy="727.8" r="29.9"/>
	<circle class="st7" cx="755.3" cy="1050.5" r="29.9"/>
	<circle class="st7" cx="1309.2" cy="582.8" r="29.9"/>
	<circle class="st7" cx="2907" cy="1315.2" r="29.9"/>
	<circle class="st7" cx="1720.5" cy="765.9" r="29.9"/>
	<path class="st7" d="M2083.2,640.2c9.2,0,16.7-7.5,16.7-16.7c0,9.2,7.5,16.7,16.7,16.7c-9.2,0-16.7,7.5-16.7,16.7
		C2099.9,647.7,2092.5,640.2,2083.2,640.2z"/>
	<path class="st7" d="M2978.8,1251.5c9.2,0,16.7-7.5,16.7-16.7c0,9.2,7.5,16.7,16.7,16.7c-9.2,0-16.7,7.5-16.7,16.7
		C2995.5,1258.9,2988,1251.5,2978.8,1251.5z"/>
	<path class="st7" d="M1210.9,677.3c9.2,0,16.7-7.5,16.7-16.7c0,9.2,7.5,16.7,16.7,16.7c-9.2,0-16.7,7.5-16.7,16.7
		C1227.6,684.8,1220.2,677.3,1210.9,677.3z"/>
	<circle class="st7" cx="1800" cy="869.6" r="16.7"/>
</g>
</svg>
