<svg id="Ñëîé_1" data-name="Ñëîé 1" xmlns="http://www.w3.org/2000/svg" viewBox="0 0 3332.91 1500.57"><defs><style>.cls-1{fill:#bcbb9e;}.cls-1,.cls-10,.cls-11,.cls-12,.cls-13,.cls-14,.cls-15,.cls-16,.cls-17,.cls-18,.cls-2,.cls-20,.cls-21,.cls-22,.cls-23,.cls-25,.cls-26,.cls-27,.cls-28,.cls-29,.cls-3,.cls-30,.cls-31,.cls-32,.cls-33,.cls-34,.cls-35,.cls-36,.cls-37,.cls-38,.cls-39,.cls-4,.cls-40,.cls-41,.cls-42,.cls-43,.cls-44,.cls-45,.cls-5,.cls-6,.cls-7,.cls-8,.cls-9{fill-rule:evenodd;}.cls-2{fill:#f7a36f;}.cls-19,.cls-3{fill:#201600;}.cls-24,.cls-4{fill:#b37e59;}.cls-5{fill:#12448d;}.cls-6{fill:#feb080;}.cls-7{fill:#ffa09c;}.cls-8{fill:#dc7d43;}.cls-9{fill:#8f5787;}.cls-10{fill:#337ea6;}.cls-11{fill:#3f89b0;}.cls-12{fill:#f0a271;}.cls-13{fill:#d46b6c;}.cls-14{fill:#57a7b3;}.cls-15{fill:#69f;}.cls-16{fill:#d24a43;}.cls-17{fill:#312a20;}.cls-18{fill:#bae3e9;}.cls-20{fill:#88b5c8;}.cls-21{fill:#e69f5a;}.cls-22{fill:#e2e2e2;}.cls-23{fill:#fff;}.cls-25{fill:#c9c8c8;}.cls-26{fill:#6b3108;}.cls-27{fill:#ed8b49;}.cls-28{fill:#4599d8;}.cls-29{fill:#9bb1c1;}.cls-30{fill:#58bdcc;}.cls-31{fill:#7b8891;}.cls-32{fill:#696;}.cls-34{fill:#ab3333;}.cls-35{fill:#900;}.cls-36{fill:#1a1a1a;}.cls-37{fill:#4a260e;}.cls-38{fill:#c9710c;}.cls-39{fill:#c30;}.cls-40{fill:#824c3a;}.cls-41{fill:#124296;}.cls-42{fill:#b8b8b8;}.cls-43{fill:#dfddbf;}.cls-44{fill:#68564b;}.cls-45{fill:#f3ca9b;}.cls-46{fill:none;stroke:#fff;stroke-miterlimit:22.93;stroke-width:0.57px;}</style></defs><title>Image 47.A</title><path class="cls-1" d="M2860.5,412.35c4.81,7,5.08,4.91,15.69,4.91,11.39,0-2.75-2.32,3.66,6.46,2.37,3.26,16.37-2.6,16.37,2.61,0,4.4,34.48-.53,37.08,4.94,1.27,2.67,35-3.84,35,1.48,0,3.51,15.08-1.45,19.31.69.11.06,38.12,2.5,34-1.82-19.42-20.38-20.48-22.12-32.45-49.83-12.81-29.61-33.34-54.8-67.54-54.8-12.94,0-28.7-.61-29.54,16.3-.76,15.46-6.9,28.83-9.95,43.64-.21,1-13.89,21.47-15,22.12-1.4.83-7.06,2.69-6.65,3.31Z"/><path class="cls-2" d="M621.74,356c1.08-1.23,22.1-28.87.83-9.88-6.13,5.48-6.15,3-4.31-1,1.37-3,10.68-14.74,7.55-17.51-.64-.56-2,.14-4.59,3.53-3.3,4.32-5.27,8.23-9.32,11.53.66-6,8.35-22.33,5.92-24.55-2.85-2.61-10.79,20.09-11.89,22.27-1.49,3-2.65,2.52-2.41-9.51,0-2,1.52-15.91-4.07-8.39-.56.76-5.2,41.17-10.4,27.5,0-.07-2.14-14.39-6.78-12.15-3.55,1.71,3.6,33.13-5.1,39.76-9.45,7.21,15.81,9.47,19.62,12.85,1.6,1.43,1.94-4.35,4.32-9.62.68-1.5,10.15-12.75,12.38-15.38,1.63-1.93,4.08-4.6,8.24-9.4Z"/><path class="cls-3" d="M545.17,1050.83l26.83-3.66a1.6,1.6,0,0,1,1.77,1.29l1.18,6.9a1.45,1.45,0,0,1-1.25,1.71l-26.83,3.66a1.6,1.6,0,0,1-1.77-1.31l-1.18-6.88a1.45,1.45,0,0,1,1.25-1.71Z"/><path class="cls-4" d="M539.23,1024.82c-1.13,18,4.94,23.38,4.92,29.91,14.15,0,24.53-4.56,37.11-3.24,3.16,0,14,.32,20,.3,16.57-.08,37.37-1.33,38.66-9.25-19.53-15.38-49.52-3.83-63-27-3.87,3.22-37.64,8.62-37.68,9.26Z"/><path class="cls-3" d="M594.45,1029.29a33,33,0,0,1-10.93-5.84c-.13,0-.25.09-.36.13-6.21,3.11-7.79,6.63,1,1.55.76-.43.12,1.1,3.09,1.2.55,1.5-10.71,6.57-4.17,5.25,3.25-.64,5.17-4.07,8.95-2.62,1.82.72,1.88-.59.48,2.9,0,0-5.95,5.51-2.89,4.32s3.15-1.21,4.56-4.6a4.18,4.18,0,0,0,.3-2.29Z"/><path class="cls-5" d="M434.67,584.9c44.81-3.34,84.86-39,102.18-67.34.82-1.34,7.36-9.38,8.13-10.6,29.29-46.54,22.53-61.65,58.59-118.81l-27.25-22.62C570,390.29,525,439.23,504.09,476.31c-10.23,18.11-74.44,27.34-106.5,50-45.83,32.32,4.63,73.28,41.22,70.54Z"/><path class="cls-6" d="M1730.77,547c5.84-35.87,20.4-24.09,18.41,3.16-.36,2.3,3.79,8.74,10.51.83,1.59-1.88,4.09,0,3.07,1.35-6.8,8.88-11.84,20-10.91,30.35-.89.74-10,8.5-17.39,2.06,1.06-14.32-7.12-16.64-3.69-37.75Z"/><path class="cls-6" d="M2088.94,465.45c-6.29-38.25-21.86-25.59-19.74,3.61.38,2.48-4.05,9.39-11.29.9-1.71-2-4.4,0-3.28,1.45,7.29,9.53,12.69,21.53,11.71,32.6.95.8,10.76,9.12,18.68,2.21-1.16-15.48,7.69-17.87,3.92-40.77Z"/><path class="cls-7" d="M1902.87,537.7c28.89,1.21,66.95,31.79,115.9,56.67l.7-1c21.56-30.16,35.44-74.17,45.81-96.61,5.8,3,18.19,5.69,21.6,6.7-3.56,3.68-16.1,59-38.13,104.57-7,20.14-38.65,32.49-57.65,20.25-17.73-2.82-36-6-53.77-14.55-17-8.19-31.81-33.58-48.21-49.37-15.1-14.52,6.9-27,13.75-26.69Z"/><path class="cls-8" d="M3104.51,805.06l58.79,51.63a1.32,1.32,0,0,0,1.82,0,9,9,0,0,0,2.86-4.55c1.21-5.95-11.29-16.8-16.22-20.27-6.76-5-14.21-10.19-20.88-14.55-7.46-4.87-12.43-13.38-20.37-18.17a1.43,1.43,0,0,0-1.82,0l-4.17,4.11a1.23,1.23,0,0,0,0,1.8Z"/><path class="cls-9" d="M3087.78,819.82c8.05-12.81,14.79-13.49,18-17.94,9.61,7,14.45,15.1,23.66,20.37,2.16,1.52,9.64,6.59,13.74,9.57,11.24,8.15,24.76,19.17,21.77,25.2-20.8.89-35.56-21.63-56.06-12.46-1-4.07-21.37-24.27-21.09-24.72Z"/><path class="cls-3" d="M3127.53,843.78a27.72,27.72,0,0,0-10.29-1.38.79.79,0,0,1-.17-.26c-2.71-5.13-2.07-8.3,1.42-.57.3.66.6-.68,2.67.7,1.12-.76-4.07-9.72-.26-5.63,1.89,2,1.51,5.32,4.81,6.16,1.57.42,1,1.33,1.72-1.74,0,0-1.34-6.65.17-4.34s1.53,2.37.83,5.36a3.45,3.45,0,0,1-.91,1.71Z"/><path class="cls-8" d="M3020.9,784.75l58.77,51.63a1.32,1.32,0,0,0,1.82,0,8.88,8.88,0,0,0,2.86-4.54c1.21-5.95-11.29-16.8-16.22-20.27-6.76-5-14.21-10.19-20.88-14.55-7.46-4.87-12.43-13.38-20.37-18.17a1.42,1.42,0,0,0-1.82,0L3020.9,783a1.23,1.23,0,0,0,0,1.8Z"/><path class="cls-9" d="M3004.16,799.51c8.05-12.81,14.8-13.49,18-17.94,9.61,7,14.46,15.1,23.66,20.37,2.16,1.52,9.64,6.59,13.73,9.57,11.23,8.15,24.76,19.17,21.77,25.2-20.8.91-35.54-21.63-56.06-12.46-1-4.07-21.37-24.27-21.08-24.72Z"/><path class="cls-3" d="M3043.9,823.48a27.73,27.73,0,0,0-10.29-1.38.79.79,0,0,1-.17-.26c-2.71-5.13-2.07-8.3,1.42-.57.3.66.61-.68,2.67.7,1.12-.74-4.05-9.72-.26-5.63,1.89,2,1.51,5.3,4.81,6.16,1.59.42,1,1.33,1.74-1.74,0,0-1.36-6.65.15-4.34s1.53,2.37.83,5.36a3.32,3.32,0,0,1-.91,1.71Z"/><path class="cls-10" d="M2767.84,933.6c3.18,18.43,20.25,31.24,54.28,25.92,80.82-51.34,190-119,206-133.62l-22.49-30.84c-5-.85-48.18,26.92-111.36,54.2,22.85-32.42,57.25-115.57,24.52-145.62-22.28-20.43-37.85-29.68-50.64-33.93-30.61,41.14-108.67,215.47-100.31,263.9Z"/><path class="cls-11" d="M2850.93,953.8c2.33,13.53,12.11,24,30.56,26.56,24.06,3.32,31.15-5.38,50.34-17.5,76.39-48.27,165.1-103.63,179.39-116.74l-22.49-30.84c-5-.87-48.2,26.92-111.36,54.2,22.85-32.41,57.23-115.58,24.5-145.63-22.26-20.44-37.83-29.69-50.64-33.93-30.6,41.13-108.65,215.48-100.29,263.88Z"/><path class="cls-8" d="M1787.42,879.36l-55.24,48.54a1.24,1.24,0,0,1-1.71,0,8.33,8.33,0,0,1-2.69-4.28c-1.14-5.57,10.61-15.78,15.25-19,6.35-4.7,13.36-9.58,19.61-13.66,7-4.59,11.69-12.58,19.14-17.09a1.39,1.39,0,0,1,1.72,0l3.92,3.87a1.16,1.16,0,0,1,0,1.68Z"/><path class="cls-9" d="M1803.16,893.25c-7.58-12-13.92-12.69-16.92-16.88-9,6.53-13.57,14.19-22.22,19.15-2,1.42-9.08,6.2-12.92,9-10.55,7.67-23.27,18-20.46,23.68,19.55.85,33.42-20.33,52.69-11.71,1-3.83,20.1-22.81,19.83-23.23Z"/><path class="cls-3" d="M1765.78,915.77a26.14,26.14,0,0,1,9.68-1.31l.17-.25c2.54-4.83,1.93-7.81-1.34-.55-.28.64-.57-.64-2.52.66-1-.7,3.83-9.11.26-5.27-1.78,1.91-1.44,5-4.53,5.78-1.5.38-.93,1.25-1.63-1.65,0,0,1.27-6.25-.15-4.07s-1.44,2.22-.8,5a3.35,3.35,0,0,0,.85,1.61Z"/><path class="cls-12" d="M851.37,958.4c-17.33,2-43.71,57.42-39.88,58.58,60.3,2,38.12,22.39,117.92,30.92-2,9.15-.55,14-2.51,23.15-34.55-5-119.84-1.91-140.67-9.59-34.25-12.58-42-17.16-33.86-53.75,10-51.38,21.64-86.6,22.41-105.47,1.4-34.55,34-70.93,66.29-65.15,27.83,5,44.52,10.34,56.25,15.76-12.51,38.72-33.44,66.8-45.95,105.54Z"/><path class="cls-2" d="M1089.22,366.27c.8-1.42,15.78-32.75-1.18-9.84-4.9,6.6-5.42,4.19-4.43-.14.73-3.22,7.46-16.6,3.84-18.68-.74-.42-1.94.55-3.78,4.39-2.35,4.89-3.49,9.13-6.79,13.18-.58-6,3.64-23.56.81-25.24-3.32-2-6.49,21.86-7.12,24.22-.86,3.21-2.09,3-4.29-8.83-.36-2-1.74-15.88-5.68-7.39-.4.85,3.26,41.37-4.6,29,0-.06-5-13.65-9.11-10.52-3.13,2.4,10.25,31.71,3.07,40-7.79,9,17.4,6.06,21.82,8.61,1.85,1.06,1-4.66,2.28-10.3.36-1.61,7.36-14.54,9-17.58,1.2-2.22,3.06-5.33,6.17-10.88Z"/><path class="cls-1" d="M1381.54,1009.59l80,66.36a1.72,1.72,0,0,1,.28,2.39,11.83,11.83,0,0,1-5.57,4.47c-7.66,2.46-27-8.85-32.32-14.84-7.6-8.2-15.56-17.26-22.27-25.39-7.54-9.15-19.51-14.43-27-24.21a1.93,1.93,0,0,1-.28-2.4l4.8-6.1a1.68,1.68,0,0,1,2.37-.28Z"/><path class="cls-13" d="M1398.57,985.32c-15.73,12.5-15.63,21.52-21,26.39,10.6,11.63,22.07,16.83,30.37,28.19,2.32,2.65,10.14,11.79,14.65,16.73,12.42,13.62,32.64,25.82,40.14,21-.48-7-6.37-11.81-9.56-17.73-9.37-17.37-25.59-29.18-18.82-50.37-5.55-.78-35.2-24.63-35.75-24.17Z"/><path class="cls-3" d="M1436.07,1034.24a36.65,36.65,0,0,1-3.34-13.37,1.89,1.89,0,0,0-.38-.19c-7.19-2.83-11.27-1.5-.55,1.95.93.3-.81.93,1.32,3.45-.81,1.57-13.41-3.94-7.45.48,3,2.2,7.23,1.21,8.83,5.44.77,2,1.9,1.12-2,2.54,0,0-9-.8-5.72.85s3.35,1.69,7.2.32a4.6,4.6,0,0,0,2.12-1.46Z"/><path class="cls-1" d="M1191.6,918.86l-32.49,98.72a1.74,1.74,0,0,1-2.14,1.14,11.74,11.74,0,0,1-6.18-3.56c-5.1-6.21-1.66-28.38,2-35.5,4.85-10.06,10.37-20.79,15.49-30,5.75-10.36,6.29-23.43,12.64-34a1.89,1.89,0,0,1,2.13-1.14l7.45,2.22a1.68,1.68,0,0,1,1.12,2.12Z"/><path class="cls-13" d="M1220.42,925.81c-17.41-10.06-25.75-6.67-32.26-9.93-7,14.12-7.6,26.69-15.14,38.59-1.61,3.13-7.25,13.74-10.2,19.76-8.13,16.54-12.1,39.8-4.84,45,6.36-3,8.66-10.25,13-15.38,12.74-15.06,17.8-34.48,40-35.94-1.3-5.44,10.05-41.77,9.44-42.12Z"/><path class="cls-3" d="M1188.6,978.62a36.89,36.89,0,0,1,11.23-8,2.63,2.63,0,0,0,0-.42c0-7.73-2.73-11-2,.21.07,1-1.15-.42-2.72,2.48-1.75-.19-1.24-13.93-3.16-6.76-1,3.58,1.5,7.18-1.83,10.21-1.61,1.46-.34,2.18-3.12-1,0,0-2.55-8.66-2.88-5s-.34,3.73,2.33,6.82a4.7,4.7,0,0,0,2.13,1.44Z"/><path class="cls-14" d="M1292.92,853.29c9.44,16.16,16.37-5.15,52,22.66,51,10.46,69.48,8,145.87,18.76-44.52,12.52-71.39,67.75-101.44,90,4.74-5.48,15.24,31.3,45.19,36,62.79-41.55,99.95-78.13,117.12-108.69,21.73-38.69,13.42-59.81-21.7-80.33-76.95-45-105.5-38-141.71-50.64-19.74,5.53-42.11,2.46-48.91,7.5-13.36,9.87-2,29.25-40.11,53.94-3.2,4.07-2.23,8-6.33,10.8Z"/><path class="cls-6" d="M1584.73,701.61c64,6.27,54.42-18.18,17.33-21.89-2.86-.06-9.76-6.4,1.2-12.87,2.6-1.53.86-4.94-1-4-12.14,6.35-26.69,10.08-38.94,6.79-1.09.91-12.38,10.32-6.15,20.56,10.93,1.08,25.68,11.26,27.54,11.38Z"/><path class="cls-8" d="M2420.46,1225.34,2356,1294.9c-.53.57-.46,1.91.25,3.05.87,1.42,3.09,5.3,6.2,7.58,7.73,5.63,21-2.5,24.68-8.7,8.38-9,15.4-23.68,20-32.24,5.12-9.59,16.62-16.6,21.52-27a3.1,3.1,0,0,0-.26-3.05l-3.6-5.46c-.74-1.12-3.77-4.28-4.3-3.71Z"/><path class="cls-15" d="M2395.4,1196c17.47,21.29,23.24,25,29.36,33.06-7.41,11.92-21,23.15-26.28,35.43-1.61,2.73-7,12.24-10.12,17.3-8.7,13.94-25,23.59-33.08,14.91-2.92-24.65,34.73-47.1,5.31-74.74,5,.72,34.2-26.69,34.8-26Z"/><path class="cls-16" d="M2370.09,1254.81c.23-.72.46-1.46.64-2.18,2.37-.81,4.72-2.16,4.21-4.76-.48-2.31-1.65-2.92-3.05-3.12a22.55,22.55,0,0,0-.13-3,3.72,3.72,0,0,0,2.54-.76l-.12-.51a3.61,3.61,0,0,1-.53-2.27l-.4-1.36c-1.06-.11-2-.25-2.67-.4-.27-.79-.59-1.59-.95-2.41a13.1,13.1,0,0,1,3.67,0c5.49-2,9.66.08,1.31,2.58,0,.49,0,1,0,1.46a3.7,3.7,0,0,1,.15,2.22l.06.57c2,1.57,11.33-2.88,7.63,1.48-1.89,2.24-6.72.44-6.19,5.3.64,5.86,13.26,3,9.64,5.23-1.91,1.16-6.35.89-9.78-1.84a9.8,9.8,0,0,1-6.08,3.77Z"/><path class="cls-17" d="M2335.42,797.5c.13,8.43-17.45,49.56-11.08,80.53,8.62,41.89-1.23,82.54,9.74,140.23,8.16,31.62-18.49,94.69,29.08,212.94,9,2.4,35.84-17.58,43.1-31,1.2-55.83,18.23-112.4,6-178-5.16-102.59,51.49-176.64,25.5-211.46-17.47-16.22-94.58-57.4-101.6-19.1l-.74,5.88Z"/><path class="cls-6" d="M2540.82,253.5c-26.12-71.32-47.19-48.56-32.15-7.22,2.24,4.85-4.6,16-.13,21,9.81,10.88,6.5,10.66,9.28,25.37,1.51.69,17.69-1.66,25.41-13.53-4.45-12.17-1.57-23.53-2.41-25.59Z"/><path class="cls-17" d="M2362.85,569c-14.36-12.79,7.07-19.9,14.72-44.93,31.3-18.87,61.16-49.94,74.72-63,52.8-45.06,53-115.75,62.9-174.1,8.58-3.86,11.61-9.46,31.49-10.63,16.58,165.11-20.71,207.16-29.82,217.62-16.86,19.37-47.57,76.58-70.33,90.55-35,21.52-50.13,14.42-83.68-15.47Z"/><path class="cls-8" d="M2421.52,1087.4l65.3,82.39a1.77,1.77,0,0,1-.23,2.44,12,12,0,0,1-6.46,3.24c-8.09.85-24.88-14.4-28.87-21.45-5.8-9.68-11.78-20.32-16.73-29.78-5.55-10.63-16.29-18.36-21.67-29.59a2,2,0,0,1,.23-2.44l6-5a1.67,1.67,0,0,1,2.39.23Z"/><path class="cls-15" d="M2443.46,1066.92c-18.19,9.11-20,18-26.33,21.73,8,13.73,18.3,21.27,24.14,34.25,1.76,3.11,7.58,13.77,11,19.63,9.46,16.07,26.9,32.38,35.33,29.16,1-7-3.83-13-5.76-19.55-5.63-19.15-19.21-34.23-8.07-53.78-5.32-1.93-29.69-31.73-30.31-31.43Z"/><path class="cls-16" d="M2470.32,1123.18a37.4,37.4,0,0,1-.51-13.93,3.8,3.8,0,0,0-.32-.28c-6.54-4.28-10.86-3.83-1,1.84.85.49-1,.74.59,3.68-1.14,1.38-12.45-6.71-7.46-1.1,2.48,2.81,6.9,2.73,7.6,7.24.34,2.16,1.65,1.5-2.56,2.08,0,0-8.71-2.65-5.82-.36s3,2.38,7,1.84a4.73,4.73,0,0,0,2.41-1Z"/><path class="cls-17" d="M2419,791.4c-1.27,11.86.64,57.78,15.91,79.25,18.91,26.64,96.79,51.68,122.53,76.8-60.66,34.44-78.41,79.23-125.57,115.71,8,5.78,37.13,38.89,47.55,44.14,24.67-26.9,105.32-69.56,145.1-141.42,10.5-18.94,14.27-22.17,5.68-42.4-36.18-85.14-120.64-131.14-127.44-140.25-17.47-16.22-76-36-83.05,2.29l-.72,5.88Z"/><path class="cls-18" d="M2297,549.21c-2.67,30,17.86,75.79,25.65,110.16,12.79,56.4,70,103.29,44.84,140.25-3.84,5.64-20.84,32-6.46,28.7,25.9-6,30.06-8.43,55.53-15.44,10.25-2.8,44.18-6.4,41.07-19.74-2.62-11.25-9.11-40.18-8.26-49.14,1.54-16.21-17.88-44.16-8.43-68.85,2.16,1.47.87,0,.6-.79-2.55-7.87-3.81-8.39-6-14-6.46-16.14-11.31-40.06-20-54.93-9.36-16-35.75-62.11-40-79.13-8.64-34.63-2.25-20.12-13.77-22.86-13.91-3.3-27,2.38-40.15,6.38-24.8,7.52-7.75,22.78-24.59,39.4Z"/><path class="cls-19" d="M2429.27,790.93c10.46-2.42,44.84-19.7,61.25-25.63l6.12,19.91c-14.76,8.47-53,23.95-63,24.34l-4.34-18.62Z"/><path class="cls-19" d="M2411.84,815.78c-7.71,4.6-25.46,11.06-42.57,16.39-19.57,6.08-35.77,10.27-40.73,9.22l-1.19-16.25c2,.42,19.23-5.91,36.3-11.2,16-5,37.19-10.91,43.44-14.64l4.75,16.48Z"/><path class="cls-6" d="M2215.55,832.15c8.15,20.74,28.34,24.55,30,34.23,1.68,10,14.79,1.08,10.36-8.87-1.55-3.47-.55-24.29-3.69-27.85-6.91-7.82-18.09-14.68-19.95-25.18-1.08-.49-12.62,1.06-18.19,9.43,3.07,8.7.93,16.77,1.5,18.23Z"/><path class="cls-20" d="M2366.07,504.6c-13.92-3.3-30.52,4-43.71,8-17.75,5.38-14.07,14.73-16.71,25.7,7.58,5.2,10.46,1.54,19.21,12.32,1.67,2,9.59,9,21.27,20.73,2.1-8.15,4.13-11.07,8.32-20.09,3.24,1.6,10.87,5.59,18,9.14,3.24-9.1,12.28-51.4-6.37-55.83Z"/><path class="cls-21" d="M2353.28,546.53c-3.26,7.84-7.46,11.07-10.1,15.64-2.54,4.4,11.71,3.25,15.67,11.41-.68,15.81-.17,36.29,8.39,57.43,4.89,12.1,10.46,42,11.14,55.82.83,17.22,14.78,94.21,42.83,99.29,9.06-21.75-7.67-97.94-3.45-105.76,2.67-4.94-18.81-39.09-22.49-49.29-8-22.21-18.85-35.08-28.93-60,1.23-8.47,2.1-12.69,3-21.09-11.84-4.33-15.21-5.54-16.06-3.48Z"/><path class="cls-22" d="M2365.26,501.78c-13.9-3.31-30.52,4-43.71,8-17.75,5.38-14.06,14.72-16.71,25.69,7.58,5.2,10.46,1.55,19.23,12.32,1.65,2,9.57,9,21.26,20.73,2.12-8.15,4.13-11.06,8.32-20.09,3.24,1.6,10.88,5.59,18,9.14,3.24-9.09,12.28-51.4-6.36-55.83Z"/><path class="cls-6" d="M2390.83,408.43c6,11.93,8.32,20.2,6.36,32.66-3.9,25.15-.26,40.05-13.32,59.8-3.84,3.4-13-4.11-18.19,3.83-3.62,5.52-2.69,9.15-3.31,16.72-.85,10.4,1.16,12.76-11.37,19.85-12-6.71-37.21-18.7-37.57-26.17,2.1-22.87.38-19.11-3.43-29-2.1-5.46-2.84-13.8-5.66-19.55,1.25-12.24-5.36-18.46,5.65-32.8,3.79-4.91,14.3-25.76,15.88-26.76,21-13.37,44.86-8.6,65,1.43Z"/><path class="cls-3" d="M2329.05,462.59c5.61-9,11.27-34.38,19.47-43.45,9.78-10.81,27.81.15,40.35-2.92,5.25-1.28,5.48,6.36,7.65,11.51a16.06,16.06,0,0,1,1.31,5c4.43-24.45,7.16-36.36-.7-42.84-1.82-1.5-4.79,1.13-7.75.2-2-.64-4.19-4.19-6.84-4.62-2-.33-4.45,2.72-6.9,2.47s-4.43-4.67-7.1-4.86c-3-1-6.69,3.24-10.36,2.48-2.46-.5-4.79-3.94-7.45-4.2-2.25-.23-5.15,3.06-7.46,3.11-2.58,0-4.26-3.3-6.82-2.81-1.4.26-5.29,3.32-7.14,3.31s-3.56-3.81-4.81-3.26c-1.57.69-4.17,4.63-6.38,4.67-2.37,0-4.32-3.8-5.72-2.38-12.43,12.72-15,44.7-7.39,98.06,4.07,9.31,7.24,1.21,7.48-9.76.1-4.51-2.65-9.7-2.33-14.06,1-13.57,10.57-12.19,14.48,4.61l4.41-.23Z"/><path class="cls-23" d="M2369.5,448.32c-6.59,5.08-18.21,1.84-18.17-1.55.06-3.08,17.22-9.11,18.17,1.55Z"/><path class="cls-3" d="M2359.93,442.57a3.58,3.58,0,1,1-3.86,3.26,3.58,3.58,0,0,1,3.86-3.26Z"/><path class="cls-23" d="M2378.33,448.3c4.73,6.06,15,4.68,15.46,1.34.45-3-13-11.69-15.46-1.34Z"/><path class="cls-3" d="M2386,443.8a3.58,3.58,0,1,0,3.26,3.87,3.57,3.57,0,0,0-3.26-3.87Z"/><path class="cls-24" d="M2377.38,441.3a70.28,70.28,0,0,0,.83,15.32c.72,4.79,1.86,9.35,3.35,12.19a1.38,1.38,0,0,1-.61,2.12c-1.8.95-6.76.37-9.32.06l-1.16-.13.08-1,1.19.13c2.46.29,7.22.85,8.75,0a.52.52,0,0,0,.21-.81c-1.55-2.94-2.71-7.62-3.47-12.5a71.9,71.9,0,0,1-.83-15.54l1,.08Z"/><path class="cls-23" d="M2361.54,476.08l23.64,2c-1.19,13.53-24.93,12.82-23.64-2Z"/><path class="cls-4" d="M2369.52,448.23l-.06,0c-1.87-8.17-15.5-4.42-18.09-1.81.87-4,17.31-9.81,18.15,1.77Z"/><path class="cls-4" d="M2378.33,448.29l.11.13c2.56-8.2,14.65-1.16,15.33,1.27l0-.06c.7-3.67-12.83-12.52-15.46-1.35Z"/><path class="cls-25" d="M2358,443.84a1,1,0,0,1-.42,2,1,1,0,0,1,.42-2Z"/><polygon class="cls-3" points="2403.73 797.14 2429.8 789.62 2435.81 812.72 2410.31 820.94 2403.73 797.14 2403.73 797.14"/><path class="cls-3" d="M2369.23,434.37c3.39-5.84-3.32-5.89-5.68-3.42-5.11,5.32-10.59,1.7-12.5,4.63-3.14,4.81,17,.85,18.19-1.21Z"/><path class="cls-3" d="M2381.64,435.23c-1.91-6.29,3.68-5.28,5.25-2.47,3.41,6,8.52,3.34,9.66,6.53,1.84,5.24-14.24-1.83-14.91-4.06Z"/><path class="cls-17" d="M2307.06,551.42c16.73,10-4.36,21.11,3.71,57.69-27.21,24.26-75.95,45-86.69,60.26-48.48,68.95,10.91,105.49,14.46,134.5-7.69,5.42-9.6,11.48-28.91,16.39-127.54-158.75,40.28-311.82,97.43-268.83Z"/><path class="cls-17" d="M2309.16,516.54c-2.62,19.54-59.85,36.22-59.22,40,.17,1.1,7.92,13.08,13.34,36.36,5.1,21.88,52.27,132.73,57.35,252,.34,7.92,90.1-29.71,90.42-36,1.65-32.85,5.49-54.75,3.94-76.47,5.66,19.54,9.57,39.47,12.24,69.36.57,6.27,92.57-13.7,88.64-19-55.68-75.07-79.95-257.14-90.69-277.32-1.08-2.06-49.86,4.31-57.42-2.86,9.23,30.54,10.4,119.39,16.56,138.56,3.24,10.12,6.27,19.18,9.09,27.46-4.81-8.48-10.61-17.72-17.58-28-11.5-16.89-61.85-92.52-66.67-124.09Z"/><path class="cls-26" d="M2412.05,704.27a5.36,5.36,0,1,1-4,6.43,5.34,5.34,0,0,1,4-6.43Z"/><path class="cls-27" d="M2411.2,707.68a.67.67,0,0,1,.3,1.31.67.67,0,1,1-.3-1.31Z"/><path class="cls-27" d="M2412.05,710.7a.67.67,0,1,1,.3,1.31.67.67,0,0,1-.3-1.31Z"/><path class="cls-27" d="M2414,706.83a.67.67,0,1,1,.3,1.3.67.67,0,0,1-.3-1.3Z"/><path class="cls-27" d="M2414.78,710.17a.67.67,0,1,1,.3,1.31.67.67,0,0,1-.3-1.31Z"/><path class="cls-26" d="M2401.76,736.77a5.36,5.36,0,1,1-4,6.44,5.35,5.35,0,0,1,4-6.44Z"/><path class="cls-27" d="M2400.91,740.19a.67.67,0,0,1,.3,1.31.67.67,0,1,1-.3-1.31Z"/><path class="cls-27" d="M2401.76,743.21a.67.67,0,1,1,.3,1.3.66.66,0,0,1-.8-.5.65.65,0,0,1,.49-.8Z"/><path class="cls-27" d="M2403.71,739.32a.67.67,0,1,1,.3,1.31.67.67,0,0,1-.3-1.31Z"/><path class="cls-27" d="M2404.49,742.68a.67.67,0,1,1,.3,1.3.67.67,0,0,1-.3-1.3Z"/><path class="cls-26" d="M2379.71,677.75a5.36,5.36,0,1,1-4,6.43,5.34,5.34,0,0,1,4-6.43Z"/><path class="cls-27" d="M2378.86,681.17a.67.67,0,0,1,.3,1.31.67.67,0,1,1-.3-1.31Z"/><path class="cls-27" d="M2379.71,684.18a.67.67,0,1,1,.3,1.31.67.67,0,0,1-.3-1.31Z"/><path class="cls-27" d="M2381.66,680.3a.67.67,0,0,1,.3,1.3.67.67,0,0,1-.3-1.3Z"/><path class="cls-27" d="M2382.44,683.65a.69.69,0,0,1,.81.5.68.68,0,0,1-.51.8.67.67,0,0,1-.3-1.3Z"/><path class="cls-19" d="M2309.22,519.38c-.51,1.79-1,3.7-1.54,5.6-2.94,10.9-5.74,21.28-14.11,30-.82.84-.95,1.36-.63,1.66,1,1,4.43,1.34,8,1.72,3.32.36,6.74.74,8.85,1.68,1.91.86,2.83,2.13,1.91,4.12a51.1,51.1,0,0,1-6.44,10.33c-2.08,2.77-3.73,4.92-3.85,7.21-.25,4.51,13.6,21.09,31.32,40.2,28.42,30.66,66.7,67.58,73.16,72.19l.09.08.47-.11a7.85,7.85,0,0,0,.21.78,1.33,1.33,0,0,1,.21.3h0a.85.85,0,0,1-.15,1,.75.75,0,0,1-1.21-.27,1,1,0,0,1-.15-.28,1.82,1.82,0,0,0-.36-.3c-6.5-4.64-44.94-41.67-73.39-72.39-18-19.37-32-36.33-31.71-41.32.15-2.75,1.9-5.07,4.15-8a49.56,49.56,0,0,0,6.27-10c.44-1-.09-1.63-1.16-2.11-1.89-.85-5.19-1.21-8.39-1.55-3.85-.41-7.52-.82-8.9-2.14-1-1-1-2.19.59-3.82,8.09-8.39,10.86-18.59,13.73-29.29.49-1.82,1-3.65,1.56-5.62l1.46.42Z"/><path class="cls-19" d="M2374.43,505.65c.83,2.87,9.09,7.08,17,11.09,8.5,4.35,16.58,8.47,15.08,11.46-3.18,6.41-7.66,9.21-10.74,11.14a11.4,11.4,0,0,0-2.86,2.14c-1.19,1.62,1.17,4.09,12.14,12.22,2.2,1.64,2,21,.89,43.89-1.61,31.49-5,69.76-6.73,76.68h0s0,.09,0,.21a2.14,2.14,0,0,0,.13.41l-.15,0h0l0,.14.19-.1h0l-.19.09-.08.36.21,1a1,1,0,0,1-.46,0h0a1.32,1.32,0,0,1-.83-.73h0a3.92,3.92,0,0,1-.28-.8,2.41,2.41,0,0,1,0-.89h0c1.69-6.82,5.06-45,6.67-76.39,1.14-22.42,1.46-41.31-.27-42.6-12-8.85-14.38-11.78-12.47-14.36a12.17,12.17,0,0,1,3.28-2.52c2.94-1.85,7.2-4.51,10.19-10.53.81-1.64-6.59-5.43-14.42-9.43-8.15-4.15-16.71-8.52-17.71-12l1.46-.41ZM2399.15,675l-.15.07.08.27.08-.34Zm.19-.11Zm-.34.18.15-.07,0-.14H2399l0,.21Z"/><polygon class="cls-3" points="2438.48 740.13 2486.03 735.66 2488.68 747.09 2441.13 751.56 2438.48 740.13 2438.48 740.13"/><path class="cls-3" d="M2326.23,770.24l18.58-18a3.23,3.23,0,0,1,4.56.06L2384,788a3.27,3.27,0,0,1-.08,4.58l-18.58,18a3.23,3.23,0,0,1-4.57-.06l-34.65-35.71a3.27,3.27,0,0,1,.08-4.58Z"/><path class="cls-28" d="M2328.42,770.66l16.73-16.24a2.91,2.91,0,0,1,4.11.08L2381.81,788a2.9,2.9,0,0,1-.06,4.11L2365,808.39a2.91,2.91,0,0,1-4.11-.07l-32.55-33.55a2.9,2.9,0,0,1,.06-4.11Z"/><polygon class="cls-3" points="2325.51 779.31 2369.73 760.6 2372.4 772.02 2328.16 790.74 2325.51 779.31 2325.51 779.31"/><polygon class="cls-17" points="2328.09 790.34 2372.3 771.62 2398.35 803.66 2336.93 827.95 2328.09 790.34 2328.09 790.34"/><path class="cls-29" d="M1346.18,591.29c14.39,41.42,77.1,71.92,105.45,80.75,48.92,15.22,45.27,5.18,105.38,24l15.29-32c-6.29-7.21-60.73-24.05-99.13-34-18.77-4.87-55.09-45-83.13-68.42C1350,528,1335,559,1346.18,591.29Z"/><path class="cls-30" d="M1229.2,751.07c-24.63,90-4.31,94.12,102.68,175.31-41.25-19.49-83.18-7.5-120.11-13.37-3.48,6.2-20.62,31.71-3,56.38,100.44,21.52,160.91,15.42,189.47-6.16,26.66-20.16,20.84-40,9.71-62.86-35.81-73.6-76.71-70.17-50.67-131.76-52.6-30.32-49.06-5.61-115.91-20.59-5.14.57-7.3,4-12.14,3.05Z"/><path class="cls-29" d="M1242.7,531c-34.47,3.18-23.38,56.68-16.74,108.11,6.31,48.91,7.7,95.2-3.33,123.38,41.82,33.42,148.39,37.49,174.89,22.39,3.19,11-3.84-113.82-2-142.53,2.07-31.38,8.54-59-5-77.24-22.4-29.23,1.7-7.46-28.21-24.75-20.59-11.89-46.79-21.63-70-26.56-11.11-2.36-21.54-3.61-30.34-3.48-10.07.15-14.84,16.45-19.27,20.68Z"/><path class="cls-31" d="M1292.09,519.12a32.37,32.37,0,0,0,1,7.07c5,11.13,15.08,9.64,20,18.84,6.26,11.62,11.65,18.74,24.71,20.88,7.09-4.4,8.17-16.84,5.32-22.84-9.13-19.24-10.73-35.38-47.63-29.19-3.3.55-3.66,2-3.44,5.25Z"/><path class="cls-6" d="M1358.66,424.19c5.58,8.71,10.14,14.27,7.92,23.54-.59,2.49-2.45,5.33-1.16,7.43,13.83,22.48-13.18,43.27-20.79,57.36-.87,1.61-6.56.48-7.9,2.14-3,3.66-1.75,10.32-1.3,15.2.75,8.2,10.83,20.87-.32,30.61-13.93-4.47-14.59-20.31-24.22-25.64-7.58-4.19-14.17-9-14.77-12.82-.16-1-.05-37-7.5-48.84,0-9.54-5.66-13.78,1.66-25.76,2.51-4.1,8.91-21,10-21.94,15.1-12,36.41-9,52.72-2.89Z"/><path class="cls-24" d="M1348,444.93a59.71,59.71,0,0,0,3.3,12.3,35.26,35.26,0,0,0,4.83,9.33,1.14,1.14,0,0,1-.13,1.82c-1.31,1.09-5.43,1.46-7.56,1.65l-1,.1-.1-.8,1-.09c2.05-.18,6-.54,7.13-1.47.22-.18.25-.41,0-.69a36.06,36.06,0,0,1-5-9.56,60.15,60.15,0,0,1-3.34-12.48l.8-.1Z"/><path class="cls-23" d="M1343,480.67l14.8-1.35c1.23,7.55-13.44,9.65-14.8,1.35Z"/><path class="cls-3" d="M1339,442.21c4.44,3.13-.42,6.1-3,5.19-5.51-2-8.26,3.28-10.64,1.8-3.91-2.43,12-8.09,13.61-7Z"/><path class="cls-3" d="M1351.57,440.24c-3.28,3.8,1.15,6,3.14,4.65,4.32-2.82,7.29,1.94,9.08.09,2.93-3-11.06-6.09-12.22-4.74Z"/><path class="cls-23" d="M1343.33,456c-5.05,4.73-14.9,3-15.14.18-.21-2.55,13.5-8.9,15.14-.18Z"/><path class="cls-3" d="M1335,452a3,3,0,1,1-2.94,3,3,3,0,0,1,2.94-3Z"/><path class="cls-23" d="M1350.93,454.71c5.54,3.16,13-1.11,12.3-3.84-.62-2.48-13.65-4.9-12.3,3.84Z"/><path class="cls-3" d="M1355.4,448.83a3,3,0,1,0,3.73,2,3,3,0,0,0-3.73-2Z"/><path class="cls-4" d="M1343.33,455.89l0,0c-2-7.17-13-2.86-15.08,0,0-3.85,13-10,15.13,0Z"/><path class="cls-25" d="M1333.41,453a.86.86,0,1,1-.85.87.86.86,0,0,1,.85-.87Z"/><path class="cls-25" d="M1354.68,449.89a.87.87,0,1,1-.85.88.87.87,0,0,1,.85-.88Z"/><path class="cls-4" d="M1350.93,454.7l.12.07c-.86-7.17,10.73-5.33,12.18-3.86v0c-.62-3.05-13.72-5.47-12.3,3.84Z"/><path class="cls-6" d="M1208.19,344.83c14.94-21.57,20.35-61.51,12.72-65.2-4.77,2.18-10.58,22.2-13.27,26.56-1.64,2.68-15.65,2.78-17.82,6-5.15,7.65-5.23,18-4.19,28.15.13,1.23,2.71-1.63,10.65,1.17,4.15,1.47,11.18,4.37,11.91,3.33Z"/><path class="cls-29" d="M1221,611.78c-37-23.55-66.09-131.9-68.14-161.53-3.53-51.11,16.11-78.94,22-112.31l41.18,9.92c-5.68,23.14-19.73,55.44-18.86,95.11-.66,14.19,26.15,48.08,45.8,60.37,22.11,13.83,34.47-13.08,37.64,26,3.65,45-35.25,97.93-59.64,82.41Z"/><path class="cls-26" d="M1316.07,469.55c3.19,5.94,6.8,13.24,12.8,16,3.63-10.13,5.83-13,13-14.24,6.39-1.11,13.26-1.51,14.94-1.12.75.18,6.22.48,7,1.65,5.15,6.15,1.51,14.94,3.45,25.93.43,2.49-.82,3.23-3.31,8-2.27,4.31-6.83,9.06-12.68,7.42-3.13-.87-8.54,1.09-10.46,1.57-10.71,2.63-27.19-19.44-31.25-20.37-6.55-1.51,4.29-13-9.1-29.13-5.44-6.57-10.66-4.3-9.35,5.24.52,3.82,3.84,7.82,4.58,11.73,1.8,9.54.54,17.13-4.69,9.82-25.58-35.82-23.69-107,18.26-90.95,8.53-17.26,56.55-10.19,66.93,29.1.76,2.9-5.86-8.34-6.2-5s3.11,8.09,1.71,11.72c-.14-1.46-2.76-6.57-7.45-5.79-23.81,3.94-40.67-6.33-41.37-6-15.5,7.18-13.94,31.3-6.87,44.43Zm43.16,9.08c-5.32.67-13.36.73-18.49,2.15-.32,1.06,2.16,6.4,9.35,5.61,6.81-.74,10-1.3,9.14-7.76Z"/><path class="cls-3" d="M175.87,855.17l-21.65,10.19a1.41,1.41,0,0,1-1.84-.62l-2.82-5.5a1.28,1.28,0,0,1,.6-1.76l21.65-10.19a1.41,1.41,0,0,1,1.84.62l2.82,5.48a1.3,1.3,0,0,1-.6,1.78Z"/><path class="cls-4" d="M189.88,879.65c-3.83-15.5-12.48-22.53-14.19-28-11.91,3.79-19.46,10.34-30.42,12.56-2.68.81-11.86,3.43-16.92,5-13.94,4.45-31.15,11-30.13,18,20.54,7.79,42.75-9.89,60.25,6.06,2.41-3.73,31.55-13.13,31.42-13.66Z"/><path class="cls-3" d="M140,886.37a29.22,29.22,0,0,1,10.77,2,2.63,2.63,0,0,0,.27-.21c4.41-4.26,4.81-7.64-1.23-1-.53.56-.39-.89-2.92-.19-.86-1.12,7.29-8.37,2.13-5.53-2.57,1.4-3.28,4.81-6.85,4.57-1.72-.11-1.43,1-1.17-2.31,0,0,3.55-6.23,1.28-4.41s-2.33,1.85-2.62,5.1a3.61,3.61,0,0,0,.34,2Z"/><path class="cls-6" d="M880.23,770.3c26.5,11.19,12.38,30.25,57.69,38l5.91,4.26c7.89,34.8,5.14,60.78,1.46,98.84-7,72.43-51,108.14-46.05,167.47,3.22,38.88,22.71,37,16.37,138.51-9.52-1-11.09,14-20.29,10.72-2.47-23.36-24.92-72.43-37.23-116.82-4.84-17.43-15.58-34.71-14.11-48.18,5.72-52.21-9.95-79.36,5.63-141.5-1.9-24.46-2.06-34.1-3-33.95l33.64-117.4Z"/><path class="cls-32" d="M949.44,771c37.91,41.77,21.78,195.7,19.68,221.2-121.74,49.84-145.57-22.87-218.1-8.85-.24-62.92,45.48-157.45,72.17-229.69,36.31.27,115.74-12.51,126.25,17.34Z"/><path class="cls-33" d="M877.39,470.67c-4.58,2.65-30.77,1.61-40,3.09-1.92.31-8.13.17-12.68.82-9,1.29-28.35,2-30.2,13-1.52,9,6.69,22.65,12.12,46,4.91-7.21,8.73-4.6,12.15-.86,4.27,4.67,34.72,31.14,39.27,24.86,2.54-3.5,11.37-.7,20.25-8.72,1.87-1.69,16.06.85,17.81-2.11,2-3.4-9.44,1.36,2.32-13.9,4.18-5.41,4.11-10.6,4.76-18,.79-9.1-10.4-18.39-8.57-34.34,1.33-11.51-11-19.38-13.62-13-.79,1.9-2.4,2.43-3.61,3.12Z"/><path class="cls-6" d="M762.53,564.7c7-16.57,13-31.94,20.23-38.85,1.67-1.59,19.2-11.5,21.26-10.06,5.57,3.89-4.47,26.21-8.09,30.87-.86,1.82.09,3.25,2.24,5.51,1.88.89,8.1-5.1,9.3-5.76.8,3.24-8.73,10.31-9.16,11.29-3.69,8.52-14.48,5.51-21.45,19.26-1,.57-2.16-2.28-7.3-7.43-2.69-2.68-7.53-3.65-7-4.84Z"/><path class="cls-34" d="M826,585c-30.29,13.22-45.4,46.8-93.22,91.58,15.31-33.9,30.14-86,44.41-101.43-6.88-4.6-16-13.66-14.61-10.53C764,562.78,676.72,666.75,699.68,705c18.88,31.43,112.75-43.6,124.72-57.77,10.65-12.62,17.4-34.73,26.79-55C859.66,574,832,582.35,826,585Z"/><path class="cls-13" d="M922,547.92c34.86,9.09,21.32,119.63,13.85,153.41-1.68,14.45,6.7,55.16,15.42,69.22C879.78,785.94,813,813,800,793c7.46-20.41,22-66.56,20.54-88-18.95-33.44-20.74-107,12.56-123.66,17.15-8.57,61.86-6.55,89-33.4Z"/><path class="cls-35" d="M878.46,566.37c9.48.55,18.1,4.91,12.75,15.83-3.56,7.26-16.76,51.43-27.06,61.9-11.3-18.65-19.32-46.39-22-53.88-1.71-4.74-.12-13,4.4-16,10.52-7,20.56-7.14,31.92-7.84Z"/><path class="cls-3" d="M827,525.19l-14.76-16.44a2.76,2.76,0,0,0-3.9-.21l-31.59,28.36a2.77,2.77,0,0,0-.21,3.9l14.76,16.43a2.77,2.77,0,0,0,3.9.21l31.58-28.37a2.76,2.76,0,0,0,.21-3.9Z"/><path class="cls-28" d="M825.09,525.41l-13.29-14.8a2.49,2.49,0,0,0-3.5-.19l-29.69,26.66a2.48,2.48,0,0,0-.19,3.51l13.28,14.79a2.48,2.48,0,0,0,3.5.19l29.7-26.66a2.49,2.49,0,0,0,.18-3.5Z"/><path class="cls-34" d="M939.47,638.15c-13.19-12.41-20.61-33-28.26-69.47-2.34-11.76,3.86-14.09,11.22-9.88,23.25,13.3,22.28,75.29,17,79.35Z"/><path class="cls-8" d="M944.54,1042l13.62,69.2a1.19,1.19,0,0,0,1.3,1,8.06,8.06,0,0,0,4.55-1.69c4.12-3.56,1.16-18.21-.46-23.38-2.08-7.29-4.56-15.1-6.91-21.86-2.66-7.59-1.53-16.4-4.57-24.19-.23-.59-.67-1.08-1.29-1l-5.24.64a1.11,1.11,0,0,0-1,1.27Z"/><path class="cls-9" d="M924.46,1043.33c12.8-4.74,18-1.52,22.71-2.94,3,10.23,2,18.72,5.71,27.55.72,2.27,3.28,10,4.56,14.38,3.55,12,7.16,27.32,1.71,30-15.36-10.78-13.52-35-33.21-39.71,1.49-3.48-1.94-29.08-1.49-29.25Z"/><path class="cls-3" d="M939.7,1082.3a24.89,24.89,0,0,0-6.59-6.65,1.82,1.82,0,0,1,0-.28c.89-5.15,3.09-7.07,1.34.36-.15.67.81-.13,1.54,2,1.19.08,2.42-9.19,2.89-4.17.23,2.5-1.83,4.62.05,7,.91,1.16,0,1.5,2.2-.3,0,0,2.69-5.5,2.5-3s-.19,2.54-2.34,4.3a3.18,3.18,0,0,1-1.59.72Z"/><path class="cls-8" d="M924.76,1233l-59.35,38.06a1.2,1.2,0,0,0-.45,1.57,7.93,7.93,0,0,0,3.22,3.62c4.85,2.54,17.37-5.59,21.6-9,6-4.62,12.37-9.78,17.79-14.47,6.08-5.25,14.69-7.43,20.82-13.13a1.3,1.3,0,0,0,.46-1.57l-2.51-4.64a1.13,1.13,0,0,0-1.56-.44Z"/><path class="cls-9" d="M916.13,1214.82c9.11,10.17,8,16.18,11.08,20-8.41,6.59-16.68,8.77-23.53,15.44-1.86,1.5-8.12,6.73-11.71,9.51-9.86,7.71-22.78,16.69-27.24,12.6,4.39-18.24,27.58-25.42,24.73-45.47,3.8.12,26.36-12.48,26.67-12.12Z"/><path class="cls-3" d="M885.48,1243.29a24.87,24.87,0,0,0,3.76-8.56,1.84,1.84,0,0,1,.28-.1c5.13-1.06,7.71.29.15,1.38-.66.09.44.7-1.27,2.14.37,1.16,9.43-1.1,4.93,1.18-2.24,1.14-5,0-6.53,2.63-.74,1.27-1.39.53,1.08,1.93,0,0,6.11.49,3.73,1.21s-2.43.76-4.86-.59a3,3,0,0,1-1.25-1.23Z"/><path class="cls-6" d="M807.71,480.37C806,475.11,812,466,816.95,463.52c13.25-6.65,43.8-15.9,57.88-10.05,18.64,7.74,14.24,23.43,13.46,39.57-.15,3.14.68,21.61-2.62,22.56-.73.21-1.35,2.69-1.53,3.23-8.24,25.79-6,22.67,2.56,52-1.25,15.39-29.1,23.8-37.48,17.4,1.07-11.73-2.12-23.31-4.18-27.35-.62.2-4.89,2.43-7.28,3-23.91-2.15-31.35-44.1-29.17-51.26-5-11.29-4.2-18.16-.88-32.27Z"/><path class="cls-36" d="M932.89,525.32c-1.22-.86-2.67-.42-4.8-.82-6.25-1.19-9.16-7.46-12.43-10.87-27.93-29.16,2.41-44.3-35.91-68.87-45.7-22.6-73.66-3.05-88.44,33.6-5.3,14-10.59,27.75,12.54,56.95.43-20.77-4.37-29.22,5.66-56.53,11.18,10.54,29,14.2,41.2,15.1-12.13-3.28-29.22-9-35.22-18,9.22,6.94,33.12,18.8,44.75,18.13a54.94,54.94,0,0,0-.37,7.66c.38,3.08,2.48,8.08,4.64,11.75,5.5,9.34,3,1.69,3.88-1.55,1.59-6.11,4.11-12.49,9.58-11.34,1.84.39,4.08,3.34,4.55,7,.63,4.86.21,13.35-4.47,16-5.3,3-1.92,3.36-2.34,3.7,1.85,6.69,2.67,13.42,4.18,19.79s9.08,2.62,20.28.12c5.49-1.23,9.91-3.35,7.75-4.68-7.13-4.39-2.82-8.61-1.36-6.63,3.57,4.82,15-1.11,13-1.3-7.61-.75-8.19-9.07-.37-6.58,5,1.59,12.33-1.52,13.76-2.66Z"/><path class="cls-23" d="M824.11,511.85c-.84,3.13-7,6.88-10.8,5.34-3.55-1.44-6.32-7.24,2.47-8.72,4.51-.76,9.12.46,8.33,3.38Z"/><path class="cls-37" d="M815.5,508.48a4.13,4.13,0,1,0,4.67,3.51,4.14,4.14,0,0,0-4.67-3.51Z"/><path class="cls-38" d="M809.91,513c-.31-2.07.92-4.93,5.66-5.73,4.3-.73,8.84,1.14,8.58,3.93-.48-2.29-4.4-2.63-8.33-2-4.21.72-5.84,1.93-5.91,3.77Z"/><path class="cls-3" d="M808.59,511.11c.73.12,1.58.42,1.92,0,.79-1.05,2.48-2,5.33-2.51,3.86-.66,7.75.13,8.31,2.35a2.76,2.76,0,0,1,0,.32c-.48-2.29-4.4-2.63-8.33-2-2.5.43-4.08,1-5,1.83-.51.46-1.08.55-2.25,0Z"/><path class="cls-23" d="M817.22,509.65a1,1,0,1,0,1.18.83,1,1,0,0,0-1.18-.83Z"/><path class="cls-23" d="M833.81,510.95c1.37,2.7,4.87,3.5,8,3.18s7.94-2.39,7.64-5.94c-.18-2-2.29-3.6-7.71-3-5.07.61-9.67,3.14-8,5.71Z"/><path class="cls-37" d="M841.09,505.34a4.13,4.13,0,1,1-3.5,4.67,4.13,4.13,0,0,1,3.5-4.67Z"/><path class="cls-38" d="M849.43,507.9c-.29-2.08-2.43-4.94-7.76-4.3-4.84.57-9.19,4.19-8.09,6.79-.16-2.33,4-3.83,8.38-4.36,4.74-.56,6.85.12,7.48,1.87Z"/><path class="cls-3" d="M850.28,505.65c-.75.34-1.58.87-2.09.53-1.16-.77-3.2-1.31-6.4-.93-4.36.52-8.37,2.54-8.31,4.84a2.91,2.91,0,0,0,.1.31c-.16-2.33,4-3.83,8.38-4.36,2.81-.33,4.7-.23,5.9.27.69.29,1.33.21,2.43-.66Z"/><path class="cls-23" d="M843.44,506.51a1,1,0,1,1-.9,1.13,1,1,0,0,1,.9-1.13Z"/><path class="cls-39" d="M844,537.37a31.57,31.57,0,0,1-24,3.42c2.26,15.84,26.23,12.41,24-3.42Z"/><path class="cls-23" d="M842,539.54a29.13,29.13,0,0,1-19.36,2.83c.92,7.16,20.3,4.38,19.36-2.83Z"/><path class="cls-19" d="M856.45,500.69c-4,.05-7-2.54-10.52-3.53a17,17,0,0,0-6.4-.27,19.09,19.09,0,0,0-3.74.83,9.09,9.09,0,0,0-3.64,2.12c-.43.44-.36.84.62,1.12,1.81.52,2.21.48,3.73-.41,2.87-1.69,5.77-1.72,8.7-1.37,5.88.71,7,2.71,11.25,1.52Z"/><path class="cls-19" d="M806.18,507.44c2.82-.92,4.37-4.18,6.63-6a9.9,9.9,0,0,1,4.49-1.83,10.6,10.6,0,0,1,2.87-.1,5.93,5.93,0,0,1,3.11,1.15c.41.32.46.72-.17,1.23-1.16.95-1.46,1-2.76.52-2.45-.92-4.53-.25-6.53.81-4,2.12-4.35,4.33-7.63,4.21Z"/><path class="cls-24" d="M826.28,506.86a64.84,64.84,0,0,1,0,13.87c-.42,4.37-1.21,8.54-2.42,11.19a1.25,1.25,0,0,0,.66,1.89c1.69.77,6.12,0,8.42-.42l1-.18-.12-.87-1.07.18c-2.21.39-6.46,1.14-7.91.48a.47.47,0,0,1-.22-.71c1.25-2.74,2.07-7,2.49-11.47a65.9,65.9,0,0,0,0-14.08l-.87.13Z"/><path class="cls-34" d="M912.44,559.25c11-13,54.86-35.4,84.08-73.22a414.72,414.72,0,0,0,53.68-92.36c6.76-6.37,11.28-2.24,24.72,8.27-9.6,24-21.68,65.15-49.18,105.45S966.2,581.12,946.6,607.64c-30.72,41.58-27.54-31.21-34.16-48.39Z"/><path class="cls-11" d="M1880.53,744.3c-27.74,8.24-31.87,28.1-79.12,31.66l-6.55,3.66c-11.8,33.53.1,98.14,7.82,135.12,25,119.39,4.19,203.66,25.88,303.27,10-.11,19.91-.74,29.78-3.14,1.23-118.39,15.84-189.7,38.86-311.51,4.51-23.87,5.67-33.35,6.65-33.12L1880.53,744.3Z"/><path class="cls-11" d="M2041.58,1023.42c-3.18,18.45-20.25,31.24-54.26,25.92-80.84-51.34-190-118.94-206-133.6l22.49-30.84c5-.87,48.19,26.9,111.36,54.2-22.85-32.42-57.23-115.58-24.5-145.63,22.26-20.44,37.83-29.69,50.64-33.93,30.59,41.13,108.65,215.46,100.29,263.88Z"/><path class="cls-7" d="M1823.16,542.32c-33.59,16.82-21.22,68.59-11.92,96.18,1.53,4.58,6.42,52.69,5,60.81-4.56,25.14-11.78,46.1-21.69,67.93-14.76,32.51-19.25,61.78-6.4,72.62,26.67,22.55,203.68-15.87,189.62-40.2-17.18-29.74-46.68-98.58-36.05-131.64,8.32-25.95,17.79-25.84,6.63-60.2-9.06-27.9-10.1-65.7-44.24-74.58-19.36-5-44-9.39-80.91,9.08Z"/><path class="cls-35" d="M1857.07,533.15A103.8,103.8,0,0,0,1846,536.9c-2.65,5-2.16,8.22,2,13.28,9,10.84,39.25,11.32,49.07,3,5.85-4.94,1.91-16-5.62-19-12.47-4.85-22.7-2.83-34.39-1.1Z"/><path class="cls-8" d="M1821.71,1222.19l64.36,35.58a1.25,1.25,0,0,1,.57,1.61,8.23,8.23,0,0,1-3.11,4c-4.87,3-18.45-4.64-23.08-7.9-6.57-4.41-13.53-9.34-19.49-13.85-6.69-5.06-15.78-6.75-22.54-12.24a1.35,1.35,0,0,1-.59-1.61l2.31-5a1.14,1.14,0,0,1,1.57-.57Z"/><path class="cls-9" d="M1829.45,1202.68c-8.77,11.2-7.24,17.39-10.15,21.62,9.19,6.29,17.94,8,25.52,14.46,2,1.44,8.91,6.44,12.83,9.11,10.78,7.35,24.84,15.82,29.19,11.25-5.8-18.68-30.41-24.57-28.82-45.62-3.94.36-28.27-11.19-28.57-10.82Z"/><path class="cls-3" d="M1863.29,1230.24a26.07,26.07,0,0,1-4.49-8.68,2.35,2.35,0,0,0-.3-.06c-5.4-.78-8,.82-.06,1.44.7.06-.4.76,1.48,2.14-.3,1.21-9.89-.51-5.06,1.55,2.4,1,5.17-.34,7,2.29.87,1.27,1.5.45-1,2.08,0,0-6.33.93-3.79,1.51s2.58.63,5-.95a3.32,3.32,0,0,0,1.23-1.34Z"/><path class="cls-40" d="M1834.57,435.47c5.32,1.7,31.62-5,41.36-5.49,2-.1,8.28-1.59,13.07-1.91,9.45-.63,29.27-4.06,34,6.74,3.84,8.84,11.65,19,12.16,44-6.82-6.28-19.93,19.72-22.43,24.25-3.11,5.66-24.46,19.39-30.69,14-4.21-3.65-34.44,19.4-49.09,4.23-2.92-3,12.18-4.94-3.7-17.93-5.62-4.6-6.89-9.9-9.45-17.26-3.15-9.08-1.14-20.87-7.11-36.7-4.3-11.42,13.09-22.17,17.41-16.28,1.31,1.77,3.07,1.94,4.47,2.39Z"/><path class="cls-6" d="M1907.45,431c.36-5.71-8-13.68-13.7-15.15-15.16-3.9-48.52-6.71-61.29,2.27-16.92,11.9-8.41,26.91-3.47,43.16,1,3.15,4.89,22.12,8.47,22.38.8.06,2.07,2.45,2.39,3,15,24.45,11.9,21.77,10.78,53.42,5.23,15.38,35.66,17.92,42.49,9.61-4.11-11.7-3.22-23.53-2.18-28.08q1.05.1,2.1.16c13.07.8,12.45-2,16-7.46,5.17-13.19,9.91-25.23,7-43a12.33,12.33,0,0,1-1.1-7.29c2.18-12.57-.42-19.38-7.43-33Z"/><path class="cls-8" d="M1819,530.61c-25.37,2.4-61.23-9.55-51.39-48.41,23.43,41.41,31.69-45.38,57.57-71.84,40.52-32.86,73.92-19,98.35,15.08,2.58,15.4,22.45,23.08,12.86,55.52-5.8-21-14-25.55-31.2-51.16-.68.5-8.5,8.09-7.09,9.76,3.56,4.16-13.2-3.8-12.41,1.94,1.57,11.41-13.3-1.12-15.25,11.16-1.59,10.05-18,.69-11.1,9.1,1.91,2.33.68,19.71-5.84,20,3.07-8.54-7.69-20.75-14.38-17.77-3.26,1.46-2.63,11.47,1.55,17.58a10.28,10.28,0,0,0,6.54,8.63c6.16,1.93,3.81,2.63,3.33,3.26-3.22,4.28-7.82-.1-7.73,6.69.27,17.41.61,28.21-23.82,30.51Z"/><path class="cls-23" d="M1898.11,466.9c1.86,3.34,9.87,6.1,13.71,3.45,3.6-2.47,5.06-9.71-5.29-9.27-5.31.22-10.15,2.7-8.43,5.82Z"/><path class="cls-37" d="M1906.85,461a5,5,0,0,1,5.3,4.44,4.56,4.56,0,0,1-4.26,5.09,5,5,0,0,1-5.31-4.44,4.57,4.57,0,0,1,4.27-5.09Z"/><path class="cls-38" d="M1914.46,464.85c-.25-2.42-2.44-5.36-8-5.13-5.06.21-9.64,3.41-8.56,6.51-.12-2.71,4.22-4,8.83-4.22,4.95-.2,7.14.78,7.75,2.85Z"/><path class="cls-3" d="M1915.41,462.33c-.79.32-1.67.86-2.2.42-1.18-1-3.37-1.69-6.73-1.55-4.55.18-8.7,2-8.7,4.66a3.08,3.08,0,0,0,.1.36c-.12-2.71,4.22-4,8.83-4.22,2.94-.12,4.91.17,6.14.87.72.4,1.38.36,2.55-.54Z"/><path class="cls-23" d="M1905.23,462.74a1.25,1.25,0,0,1,1.34,1.06,1.12,1.12,0,0,1-1.1,1.23,1.23,1.23,0,0,1-1.32-1.06,1.12,1.12,0,0,1,1.08-1.23Z"/><path class="cls-23" d="M1888.49,467.89c-.76,3.39-4.49,5.13-8.15,5.52s-9.62-.79-10.31-4.88c-.36-2.3,1.55-4.62,7.84-5.19,5.91-.53,11.8,1.23,10.61,4.54Z"/><path class="cls-37" d="M1878.67,463.3a4.57,4.57,0,0,0-4.26,5.09,5,5,0,0,0,5.29,4.44,4.57,4.57,0,0,0,4.28-5.09,5,5,0,0,0-5.3-4.44Z"/><path class="cls-38" d="M1870,468.2c-.27-2.42,1.33-6.16,7.52-6.73,5.63-.51,11.57,2.53,11.06,5.74-.47-2.68-5.55-3.38-10.67-2.91-5.51.5-7.69,1.78-7.92,3.9Z"/><path class="cls-3" d="M1868.4,465.86c.95.2,2,.61,2.5.1,1.08-1.15,3.22-2.26,7-2.6,5.06-.46,10.15.87,10.76,3.48a1.19,1.19,0,0,1,0,.37c-.47-2.68-5.55-3.38-10.67-2.91-3.28.29-5.38.87-6.59,1.73-.68.49-1.44.56-2.92-.17Z"/><path class="cls-23" d="M1876.36,465.19a1.11,1.11,0,0,0-1.08,1.22,1.23,1.23,0,0,0,1.33,1.06,1.13,1.13,0,0,0,1.1-1.22,1.24,1.24,0,0,0-1.34-1.06Z"/><path class="cls-39" d="M1884.91,494.92a32.9,32.9,0,0,0,25.18-1.7c1.78,16.6-23.4,18.29-25.18,1.7Z"/><path class="cls-23" d="M1887.48,496.69a30.38,30.38,0,0,0,20.36-1.31c.89,7.49-19.47,8.84-20.36,1.31Z"/><path class="cls-19" d="M1863.25,462.22c4-.8,6.46-4.11,9.78-5.87a17,17,0,0,1,6.4-1.65,20,20,0,0,1,4,0,9.86,9.86,0,0,1,4.22,1.36c.55.36.59.78-.34,1.28-1.71.92-2.12,1-3.88.39-3.35-1.1-6.29-.51-9.17.48-5.78,2-6.44,4.27-11,4Z"/><path class="cls-19" d="M1916,458.23c-3.11-.32-5.51-3.3-8.28-4.66a10.56,10.56,0,0,0-5-.89,10.86,10.86,0,0,0-2.94.51,5.85,5.85,0,0,0-2.84,1.84c-.34.42-.29.83.47,1.22,1.42.71,1.74.71,2.94-.07,2.25-1.47,4.52-1.23,6.82-.59,4.62,1.29,5.53,3.47,8.85,2.64Z"/><path class="cls-24" d="M1895.44,462a69.8,69.8,0,0,0,3.56,14.12c1.54,4.35,3.43,8.43,5.33,10.86a1.28,1.28,0,0,1-.17,2.06c-1.52,1.15-6.22,1.31-8.66,1.39l-1.1,0-.1-.91,1.14,0c2.33-.08,6.84-.24,8.13-1.22.27-.19.3-.44,0-.78-2-2.51-3.9-6.69-5.48-11.13a70.57,70.57,0,0,1-3.6-14.33l.91-.07Z"/><path class="cls-2" d="M2618.57,564.52c-1.4.36-31.68,6.12-8.17-3.25,6.78-2.7,4.81-3.7.87-3.84-2.92-.1-15.93,2.65-16.9-.93-.19-.73.91-1.54,4.62-2.25,4.73-.9,8.62-.92,12.85-2.85-5.06-1.87-21-2.21-21.85-5-.95-3.3,20.24-.63,22.39-.63,3,0,3-1.11-6.61-5.67-1.61-.77-13.23-5.1-5-6.55.81-.15,34.76,12.17,26,2.62,0,0-10.59-7.4-7-10.2,2.77-2.14,24.91,16,33.63,11.7,9.47-4.65,1.25,16.31,2.44,20.68.49,1.83-4.22-.18-9.36-.38-1.46-.06-14.15,3-17.13,3.74-2.18.53-5.26,1.42-10.74,2.83Z"/><path class="cls-2" d="M3217.31,658.84c1.29.83,29.7,16.67,9.28-.54-5.91-5-3.62-5.31.38-4.14,3,.87,15.1,8,17.26,4.68.44-.66-.4-1.84-3.9-3.79-4.43-2.49-8.33-3.79-11.92-7.12,5.68-.19,21.83,4.78,23.57,2.24,2-3-20.08-7.35-22.24-8.08-3-1-2.69-2.13,8.51-3.5,1.87-.23,15-.7,7.24-4.89-.78-.42-38.89.64-26.88-6,.06,0,13.07-3.9,10.36-7.91-2.06-3.06-30.25,7.75-37.57.55-7.94-7.8-6.69,15.93-9.32,19.91-1.12,1.68,4.3,1.22,9.49,2.73,1.49.43,13.18,7.73,15.93,9.44,2,1.25,4.81,3.17,9.81,6.4Z"/><path class="cls-41" d="M2899.83,445.64c-34.42,1.44-81.9,44.6-145.27,70.11-34.4,13.85-80.42,17-104.69,21.76,1.59,6.34,1.25,19,1.42,22.57,4.53-2.66,63.79-1.71,114-13.19,30.2-12.16,66.17-8.86,100-25.21,17-8.19,31.81-33.57,48.22-49.37,15.1-14.52-6.9-27-13.75-26.69Z"/><path class="cls-41" d="M2986.27,452.49c33.59,16.82,21.2,68.59,11.9,96.18-1.54,4.58-6.42,52.69-4.94,60.81,4.56,25.15,11.78,46.1,21.69,67.94,14.74,32.51,19.23,61.78,6.4,72.62-26.67,22.54-203.68-15.89-189.62-40.22,17.17-29.73,46.66-98.57,36.05-131.63-8.33-26-17.81-25.85-6.65-60.21,9.06-27.91,10.12-65.69,44.26-74.58,19.34-5,44-9.39,80.91,9.08Z"/><path class="cls-42" d="M2952.36,443.33a105.08,105.08,0,0,1,11.08,3.75c2.65,5,1.61,7.82-2,13.28-11.37,17.05-46.4,29.8-49,3-.76-7.62-1.91-16,5.63-19,12.47-4.85,22.68-2.83,34.38-1.09Z"/><path class="cls-41" d="M2953.91,507.17c18.57,28.44,52.55,48.21,113,82.74,34.91,20,72.52,38.38,119,52.45,5.68-9.69,6.76-17.28,4-23.55-2.26-5.14-82.85-31.07-115.91-64.29-35.77-35.92-53.42-79-80.25-93.89-10.1-5.63-9.13,12.35-28.95,7.64-20.36-4.84-14.66,33.15-10.91,38.89Z"/><path class="cls-1" d="M2974.85,345.65c-5.32,1.7-31.62-5-41.34-5.49-2-.1-8.28-1.59-13.07-1.91-9.45-.64-29.27-4.07-34,6.74-3.87,8.84.95,24.49.44,49.42,6.84-6.28,10-2.8,12.54,1.75,3.13,5.68,27.19,39.17,33.42,33.76,4.23-3.65,15.69,6.44,30.33-8.72,2.92-3,1.14,5.29,17-7.71,5.63-4.61,6.9-9.9,9.45-17.26,3.14-9.08,1.14-20.87,7.1-36.7,4.3-11.42-13.09-22.16-17.41-16.28-1.29,1.77-3,1.94-4.47,2.39Z"/><path class="cls-6" d="M2902,341.2c-.36-5.71,8-13.68,13.7-15.15,15.14-3.9,48.52-6.71,61.29,2.27,16.9,11.9,8.41,26.91,3.45,43.16-1,3.15-4.87,22.13-8.47,22.38-.79.06-2.07,2.45-2.37,3-15,24.45-11.9,21.77-10.8,53.42-6.14,22.7-37.81,35.23-42.49,9.61,4.11-11.7,3.24-23.53,2.18-28.08q-1,.1-2.1.17c-13.07.8-12.45-2-16-7.47-5.17-13.19-14.44-25.61-6.93-43a12.5,12.5,0,0,0,1.1-7.3c-2.18-12.58.42-19.39,7.42-33Z"/><path class="cls-43" d="M3033.71,431.24c-33.48-22.31-22.49-79.72-48.37-106.17-30.41-24.66-70-25.66-81-3.24-10.44.61-12.33,5.27-18.43,13.79-15.16,25.47-1.48,54.71-25,76.91,14.21,4.72,26.81-14.55,28.08-21.77.76-4.27,4.09-9.22,4.92-14,.74-4.17-1.8-7.36-.66-11.72a81.43,81.43,0,0,1,11-25.09c-1.14,23.26,45.32,25.38,44,27-7.27,8.89,22.13,77.5,85.54,64.22Z"/><path class="cls-23" d="M2911.31,377.07c-1.86,3.34-9.87,6.1-13.72,3.45-3.58-2.48-5.06-9.71,5.29-9.27,5.3.22,10.15,2.7,8.43,5.82Z"/><path class="cls-37" d="M2902.57,371.19a5,5,0,0,0-5.29,4.44,4.56,4.56,0,0,0,4.26,5.09,5,5,0,0,0,5.29-4.44,4.57,4.57,0,0,0-4.26-5.09Z"/><path class="cls-38" d="M2895,375c.25-2.42,2.46-5.35,8-5.12,5,.2,9.64,3.4,8.54,6.5.11-2.7-4.21-4-8.83-4.23-4.94-.2-7.12.78-7.75,2.85Z"/><path class="cls-3" d="M2894,372.5c.78.33,1.67.86,2.18.43,1.19-1,3.37-1.69,6.73-1.55,4.55.19,8.7,2,8.7,4.66a3,3,0,0,1-.09.36c.11-2.7-4.21-4-8.83-4.23-2.94-.12-4.89.18-6.14.87-.7.4-1.38.36-2.54-.54Z"/><path class="cls-23" d="M2904.18,372.92a1.26,1.26,0,0,0-1.34,1.06,1.15,1.15,0,0,0,1.1,1.22,1.23,1.23,0,0,0,1.32-1.06,1.12,1.12,0,0,0-1.08-1.22Z"/><path class="cls-23" d="M2920.93,378.07c.78,3.39,4.49,5.13,8.15,5.53s9.64-.79,10.31-4.88c.38-2.3-1.55-4.63-7.84-5.19-5.89-.53-11.8,1.23-10.61,4.54Z"/><path class="cls-37" d="M2930.74,373.47a4.57,4.57,0,0,1,4.26,5.09,5,5,0,0,1-5.29,4.44,4.56,4.56,0,0,1-4.26-5.08,5,5,0,0,1,5.28-4.44Z"/><path class="cls-38" d="M2939.42,378.38c.27-2.42-1.33-6.16-7.52-6.73-5.63-.51-11.56,2.53-11.06,5.74.49-2.67,5.55-3.38,10.68-2.91,5.5.5,7.69,1.78,7.9,3.9Z"/><path class="cls-3" d="M2941,376c-.95.2-2,.61-2.52.1-1.08-1.15-3.22-2.26-7-2.59-5.06-.46-10.15.87-10.76,3.48a2.25,2.25,0,0,0,0,.37c.49-2.67,5.55-3.38,10.68-2.91,3.28.3,5.36.87,6.57,1.73.7.49,1.44.55,2.94-.17Z"/><path class="cls-23" d="M2933.05,375.36a1.15,1.15,0,0,1,1.1,1.22,1.25,1.25,0,0,1-1.35,1.06,1.12,1.12,0,0,1-1.08-1.22,1.23,1.23,0,0,1,1.32-1.06Z"/><path class="cls-39" d="M2924.53,405.09a33,33,0,0,1-25.2-1.69c-1.78,16.6,23.41,18.29,25.2,1.69Z"/><path class="cls-23" d="M2922,406.87a30.34,30.34,0,0,1-20.36-1.31c-.91,7.49,19.46,8.85,20.36,1.31Z"/><path class="cls-19" d="M2946.16,372.39c-4-.8-6.46-4.1-9.76-5.86a17.32,17.32,0,0,0-6.42-1.66,20.11,20.11,0,0,0-4,0,9.9,9.9,0,0,0-4.24,1.37c-.53.35-.57.78.34,1.27,1.71.92,2.12,1,3.9.39,3.33-1.09,6.29-.5,9.17.48,5.78,2,6.44,4.27,11,4Z"/><path class="cls-19" d="M2893.44,368.4c3.09-.32,5.51-3.31,8.26-4.66a10.62,10.62,0,0,1,5-.89,11,11,0,0,1,2.94.51,6,6,0,0,1,2.86,1.84c.32.42.29.83-.49,1.22-1.42.71-1.74.71-2.92-.07-2.27-1.47-4.55-1.23-6.84-.59-4.62,1.29-5.53,3.46-8.83,2.64Z"/><path class="cls-24" d="M2914,372.15a68.16,68.16,0,0,1-3.54,14.11c-1.55,4.35-3.43,8.43-5.34,10.86a1.28,1.28,0,0,0,.19,2.05c1.51,1.15,6.21,1.32,8.64,1.4l1.12,0,.1-.91-1.14,0c-2.33-.08-6.86-.24-8.15-1.22-.25-.19-.3-.45,0-.78,2-2.51,3.9-6.69,5.48-11.13a67.76,67.76,0,0,0,3.6-14.33l-.91-.06Z"/><path class="cls-7" d="M1798.17,563.64c-19,27-14.53,63.56-32.17,126.65-4.51-36.92-15.76-88-11.59-108.63-8.26-.37-23.83-4.5-21-2.55.28-2.31-20.4,131.88,19.06,152.64,32.45,17.08,73.75-95.78,76.63-114.1,2.56-16.32-3.15-38.72-5.61-60.89-2.22-20-21.5,1.49-25.29,6.87Z"/><path class="cls-44" d="M312.52,736.71c-41.13,17.1-62.2,24.64-67.59,51.58-5.91,29.5,6,80.52,6.82,150.71-11.56-37.43-46.37-54.6-64.39-87.36-3.64,4.45-22.62,17.81-38.56,39.58,85.92,125.59,112.74,145.33,151.84,115.87,42.75-70.23,30.82-142.2,40.2-155.46,5.53-7.81,6.25-15.36,22.74-19.29-8.36-60.13-12-26-41.21-87.9-3.6-3.73-7.66-3.29-9.85-7.73Z"/><path class="cls-44" d="M532,1031.32c8.78-4.54,40.74-5.85,50.12-12.77,2.14-50-41.09-162.11-39.66-162.64-7.83-19.08-16.44-37.36-30.92-48-44.44-32.6-107.7-60.11-114.86-66.11-20.73-11.76-96.51-22.89-94.54,16l.63,5.87c1.49,11.84,21.38,39.9,41.17,57.29,24.53,21.56,98.59,44.28,129.43,62.8,13.21,49,46.58,104.25,58.63,147.52Z"/><path class="cls-5" d="M368,505.28c-17.64.39-36.83,2.34-49.69,12.45-67.82,53.34-83.36,220.59-78.59,274.72,69.29,17.71,82.5-23.07,164.06-45,15.14,7.5,62.06-86,41.72-182.47-4-19.1-3.23-28.27-14.33-39.41-1.21-1.22-9.84-6.42-11.09-7.77-21-1.06-40.93,5.1-52.08-12.47Z"/><path class="cls-6" d="M159.41,740.31c.78,39.6-33.54,50.71-32.82,31.72.13-3.37-6.67-5.93-6.69-10.09-.05-9.89,7.33-22.53,14.86-31,.91-1,1.56,3.06,11,5.28,4.94,1.15,13.59,2.73,13.61,4.1Z"/><path class="cls-45" d="M380.46,487.35c-8.38-.42-32.44,15-27.77,26.38,7,17.19,17.66,21.89,25.63,38.52,15.31,32,44.76,20.54,43.16-2.74-1.07-15.47,2-18-6-28.73-4.72-6.34,7.09-1.07-11.79-9.53-21.2-9.49-17.34-21.55-21.84-24.11l-1.41.2Z"/><path class="cls-6" d="M442.71,405.34c4.21,10.27,6.71,17.58,3.28,27.5a38.12,38.12,0,0,0-2,15.8c3.87,14.69-4,40.92-18.65,46.58-2.93,1.14-1.06.32-5.28,1.47-15.23,4.14-9.11,38-15.62,36.76-4.79-.88-38.77-22.75-38.54-32.18,0-1.07,7.09-39.1,1.5-53,1.79-10.09-3.31-15.65,6.72-26.88,3.43-3.85,13.46-20.49,14.81-21.22,18.27-9.8,37.77-4.37,53.83,5.18Z"/><path class="cls-3" d="M385.18,447.63c-.2-12.39,22.81-28.5,16.6-44.32,12.89,2.51,28.17,3.21,42.24,12.6,2.69,1.8,4.22,7.64,3,11.41,10.51-12.1,22.13-27.86,19.9-30.64-2.57-3.21-11-2.52-19.12-3.32-19.77-1.69-57-25-58.38,2.73-4-6.83-45.44-.31-22.46,65,2.8,8,5.93,1.45,6.81-7.64.36-3.73-1.6-8.21-1.07-11.8,1.64-11.21,9.52-9.47,11.73,4.72l.76,1.23Z"/><path class="cls-3" d="M418.14,425.33c4,5-2.47,6.78-5.07,4.91-5.6-4.05-10.45,1-12.67-1.46-3.63-4,16.32-5.23,17.73-3.45Z"/><path class="cls-3" d="M433,427.22c-5,3.23-.65,7.14,2,6.31,5.83-1.78,7.63,4.59,10.26,3.09,4.3-2.47-10.55-10.55-12.31-9.4Z"/><path class="cls-23" d="M418.77,440.6c-6.83,4.49-17.94.47-17.65-2.83.27-3,17.5-7.65,17.65,2.83Z"/><path class="cls-3" d="M409.82,434.28a3.51,3.51,0,1,1-4,2.9,3.51,3.51,0,0,1,4-2.9Z"/><path class="cls-23" d="M427.4,441.22c4.18,6.26,14.28,5.66,15,2.43.65-2.95-11.84-12.38-15-2.43Z"/><path class="cls-3" d="M435.22,437.37a3.51,3.51,0,1,0,2.9,4,3.51,3.51,0,0,0-2.9-4Z"/><path class="cls-24" d="M427,434.31a70.1,70.1,0,0,0-.3,15c.37,4.74,1.15,9.28,2.41,12.16a1.34,1.34,0,0,1-.75,2c-1.84.81-6.63-.13-9.11-.61l-1.14-.21.15-.94,1.16.22c2.38.46,7,1.36,8.55.67.31-.13.42-.37.25-.78-1.3-3-2.1-7.63-2.48-12.47a71.61,71.61,0,0,1,.3-15.26l.95.15Z"/><path class="cls-23" d="M403.67,466.7l31.71,5.11c-2.14,13.13-34.05,9.31-31.71-5.11Z"/><path class="cls-5" d="M332.56,504.59c-47,1.29-144.21,70.6-162.43,96.74-31.44,45.11-32.68,83-43.92,132.94L163,749.13c13.6-50.72,14.83-70,44.22-107.61,25.23-32.34,97.31-23.39,125-41,33.59-13.93,37.06-96.93.38-95.92Z"/><path class="cls-4" d="M418.78,440.5l-.06,0c-1.24-8.13-14.82-5.45-17.54-3.09,1.14-3.82,17.63-8.34,17.6,3Z"/><path class="cls-4" d="M427.4,441.22l.09.13c3.1-7.83,14.4-.07,14.9,2.35l0-.05c1-3.53-11.63-13.17-15-2.43Z"/><path class="cls-25" d="M433.56,438.12a1,1,0,1,1-1.26.71,1,1,0,0,1,1.26-.71Z"/><path class="cls-25" d="M407.84,435.38a1,1,0,1,1-1.25.72,1,1,0,0,1,1.25-.72Z"/><polygon class="cls-46" points="0.28 0.28 3332.62 0.28 3332.62 1500.28 0.28 1500.28 0.28 0.28 0.28 0.28"/></svg>