<svg id="Layer_1" data-name="Layer 1" xmlns="http://www.w3.org/2000/svg" viewBox="0 0 284.14 222.62"><defs><style>.cls-1{fill:#f37463;}.cls-2{fill:#4c5155;}.cls-3{fill:#fdc75a;}</style></defs><title>Image 34.B</title><path class="cls-1" d="M204.49,110.42l-9.79,4.94,27,65a8.92,8.92,0,1,0,16.11-7.66Z"/><polygon class="cls-2" points="201.6 104.36 191.71 109.06 193.41 113.01 203.59 108.17 201.6 104.36"/><path class="cls-1" d="M283.28,151.11,250,88.79l-9.79,4.94,27,65a8.92,8.92,0,1,0,16.11-7.66Z"/><polygon class="cls-2" points="247.09 82.73 237.19 87.44 238.9 91.38 249.07 86.54 247.09 82.73"/><path class="cls-3" d="M197.47,101.36c-2.94-14.29-11.61-26.25-22.28-35.89-9.43-8.52-19.89-13.89-31.92-17.8-15.56-5.06-31.84-7.18-48-4.25a71.28,71.28,0,0,1,15.82-23.25c9.29-8.91,21.06-12.31,33.57-13.32,21.23-1.72,42.28,4,58.77,17.74C220.79,39,231.15,60,237.92,81c1.3,4,7.48,1.81,6.18-2.22-9-27.91-24.56-55-51.21-69.22-17.91-9.53-39-11.44-58.81-8-23.18,4-38.6,22.61-46.49,43.72-7,2.2-13.51,5.63-20,9.28A147.89,147.89,0,0,0,44.75,70c-14.37,12.16-25.07,29.45-33.47,46.1C7,124.65,2.52,133.86.87,143.39c-1.58,9.11-.89,19.13,1,28.14,6.33,29.38,34.63,49.29,63.76,51,14.6.86,32.08-4.57,40.25-17.54,8.91-14.16,7.46-32.52,4.16-48.17-3.52-16.73-10.49-32.34-15.84-48.51a116.18,116.18,0,0,1-5.82-26.23A75.93,75.93,0,0,1,90.56,57.8q.85-3.59,2-7.12c14.55-3.69,30-2.16,44.4,1.88,12.6,3.53,23.49,8.77,33.34,17.36,9.57,8.35,18,19.32,20.62,32C191.77,106,198.33,105.51,197.47,101.36Zm-92.62,63c2.47,15.48,2.3,34.83-12,44.58-13.05,8.88-29.68,8.5-44.15,3.65A63.69,63.69,0,0,1,14.84,186.4a52,52,0,0,1-7.3-20.79C6.18,155.23,6.21,144.9,10,135A182.37,182.37,0,0,1,39.83,84.26c6-7.21,13.25-12.93,21.1-18C68.54,61.31,76.59,56.44,85,53.11a100.37,100.37,0,0,0-2.45,11.06C76.85,99.57,99.44,130.53,104.85,164.41Z"/></svg>