<?xml version="1.0" encoding="utf-8"?>
<!-- Generator: Adobe Illustrator 21.1.0, SVG Export Plug-In . SVG Version: 6.00 Build 0)  -->
<svg version="1.1" xmlns="http://www.w3.org/2000/svg" xmlns:xlink="http://www.w3.org/1999/xlink" x="0px" y="0px"
	 viewBox="0 0 1488.1 1200" style="enable-background:new 0 0 1488.1 1200;" xml:space="preserve">
<style type="text/css">
	.st0{fill:#FFFFFF;}
	.st1{fill:#D9C9BE;}
	.st2{fill:#5D4339;}
	.st3{fill:#35241E;}
	.st4{fill:#8C6449;}
	.st5{fill:#AB3C45;}
	.st6{fill:#DB5868;}
	.st7{fill:#D54954;}
	.st8{fill:#8C665D;}
	.st9{fill:#48342B;}
	.st10{fill:#127010;}
	.st11{fill:#094F07;}
	.st12{fill:#724E0F;}
	.st13{fill:#96741E;}
	.st14{fill:#F7E116;}
	.st15{fill:#F2F2F2;}
	.st16{fill:#FBB03B;}
	.st17{opacity:0.2;fill:#FBB03B;}
	.st18{fill:#FBBF9A;}
	.st19{fill:#666666;}
	.st20{fill:#777777;}
	.st21{fill:#FAA97A;}
	.st22{fill:#8A8C8E;}
	.st23{fill:#7B2706;}
	.st24{fill:#84361E;}
	.st25{fill:#5A9DA3;}
	.st26{fill:#478C8E;}
	.st27{fill:#E2356C;}
	.st28{fill:#3D3D3D;}
	.st29{fill:#565555;}
	.st30{fill:#424451;}
	.st31{fill:#E2D5AB;}
	.st32{fill:#F4ECBD;}
	.st33{fill:#C3C638;}
	.st34{fill:#CCCCCC;}
	.st35{fill:#333333;}
	.st36{fill:#808080;}
	.st37{fill:#4D4D4D;}
	.st38{opacity:0.1;fill:#FFFFFF;}
	.st39{fill:#10AF1F;}
	.st40{fill:#16ACB7;}
	.st41{fill:#363842;}
	.st42{fill:#39B54A;}
	.st43{fill:#009245;}
	.st44{fill:#754C24;}
	.st45{fill:#736357;}
	.st46{fill:#998675;}
</style>
<g id="Ñëîé_1">
	<rect x="144" y="0" class="st0" width="1200" height="1200"/>
	<rect class="st1" width="1488.1" height="1200"/>
	<rect y="737.1" class="st2" width="1488.1" height="462.9"/>
</g>
<g id="Ñëîé_2">
	<polygon class="st3" points="1277.3,1105.6 213.4,1105.6 346.4,977.4 1144.3,977.4 	"/>
	<g>
		<rect x="624.3" y="718" class="st4" width="50.1" height="65.1"/>
		<rect x="1398.1" y="718" class="st4" width="50.1" height="65.1"/>
		<g>
			<path class="st5" d="M1386.4,712.3H688.1V540.4c0-20.2,16.4-36.6,36.6-36.6h625c20.2,0,36.6,16.4,36.6,36.6V712.3z"/>
			<path class="st6" d="M1033.1,633H701.3c-7.3,0-13.2,5.9-13.2,13.2v9.4h358.2v-9.4C1046.3,638.9,1040.4,633,1033.1,633z"/>
			<g>
				<path class="st7" d="M1030.5,706.9H703.9c-8.7,0-15.7-7.1-15.7-15.7v-35.6h358.2v35.6C1046.3,699.9,1039.2,706.9,1030.5,706.9z"
					/>
				<path class="st7" d="M1370.6,706.9h-307.5c-8.7,0-15.7-7.1-15.7-15.7v-35.6h339v35.6C1386.4,699.9,1379.3,706.9,1370.6,706.9z"
					/>
				<path class="st6" d="M1373.2,633h-312.7c-7.3,0-13.2,5.9-13.2,13.2v9.4h339v-9.4C1386.4,638.9,1380.5,633,1373.2,633z"/>
				<path class="st7" d="M989.6,437.5H744.8c-31.3,0-56.6,25.4-56.6,56.6v124.5c0,8,6.5,14.4,14.4,14.4h329.3
					c8,0,14.4-6.5,14.4-14.4V494.1C1046.3,462.8,1020.9,437.5,989.6,437.5z"/>
				<path class="st7" d="M1329.7,437.5H1104c-31.3,0-56.6,25.4-56.6,56.6v124.5c0,8,6.5,14.4,14.4,14.4H1372c8,0,14.4-6.5,14.4-14.4
					V494.1C1386.4,462.8,1361,437.5,1329.7,437.5z"/>
			</g>
			<path class="st5" d="M1446.3,537.6c-20,0-39.9,0-59.9,0c0,56.8,0,113.5,0,170.3c-116.4,0.2-232.8,0.4-349.1,0.6
				c-116.4-0.2-232.8-0.4-349.1-0.6c0-56.8,0-113.5,0-170.3c-20,0-39.9,0-59.9,0c-11.5,0-20.8,9.8-20.8,21.9v191h413.1h33.4H1467
				v-191C1467,547.5,1457.7,537.6,1446.3,537.6z"/>
		</g>
	</g>
	<polygon class="st8" points="267,790.2 287.2,788.2 250.5,616 230.3,618 	"/>
	<polygon class="st8" points="99.4,789.1 79.3,787.1 115.9,614.9 136.1,616.9 	"/>
	<rect x="77.1" y="612.6" class="st9" width="218.4" height="20.4"/>
	<g>
		<g>
			<g>
				<path class="st10" d="M155.4,384.4c-12.6-2.8-25.1-5.6-37.7-8.5c14.7,7.8,29.4,15.6,44.1,23.4
					C159.7,394.4,157.5,389.4,155.4,384.4z"/>
			</g>
			<g>
				<path class="st10" d="M200.3,517.3c12.6-2.8,25.1-5.6,37.7-8.5c-14.7,7.8-29.4,15.6-44.1,23.4
					C196.1,527.3,198.2,522.3,200.3,517.3z"/>
			</g>
			<g>
				<path class="st10" d="M209.7,492.2c12.6-2.8,25.1-5.6,37.7-8.5c-14.7,7.8-29.4,15.6-44.1,23.4
					C205.5,502.1,207.6,497.2,209.7,492.2z"/>
			</g>
			<g>
				<path class="st10" d="M220.4,467.8c12.6-2.8,25.1-5.6,37.7-8.5c-14.7,7.8-29.4,15.6-44.1,23.4
					C216.1,477.8,218.3,472.8,220.4,467.8z"/>
			</g>
			<g>
				<path class="st10" d="M236,440.5c12.8-1,25.7-2,38.5-3.1c-15.6,5.7-31.3,11.3-46.9,17C230.4,449.8,233.2,445.1,236,440.5z"/>
			</g>
			<g>
				<path class="st10" d="M226.4,454.8c-6-11.4-11.9-22.8-17.9-34.2c3.5,16.3,7.1,32.5,10.6,48.8
					C221.5,464.5,223.9,459.7,226.4,454.8z"/>
			</g>
			<g>
				<path class="st10" d="M213.9,482.4c-6-11.4-11.9-22.8-17.9-34.2c3.5,16.3,7.1,32.5,10.6,48.8C209.1,492,211.5,487.2,213.9,482.4
					z"/>
			</g>
			<g>
				<path class="st10" d="M205.4,504.7c-6-11.4-11.9-22.8-17.9-34.2c3.5,16.3,7.1,32.5,10.6,48.8
					C200.5,514.3,202.9,509.5,205.4,504.7z"/>
			</g>
			<g>
				<g>
					<path class="st10" d="M160.9,398.4c7-10.8,14-21.6,21.1-32.4c-5.1,15.8-10.1,31.7-15.2,47.5
						C164.8,408.5,162.9,403.4,160.9,398.4z"/>
				</g>
				<g>
					<path class="st10" d="M170,422.1c7-10.8,14-21.6,21.1-32.4c-5.1,15.8-10.1,31.7-15.2,47.5C173.9,432.2,172,427.1,170,422.1z"/>
				</g>
				<g>
					<path class="st10" d="M180.5,452.8c7.6-10.4,15.3-20.8,22.9-31.1c-6,15.5-11.9,31.1-17.9,46.6
						C183.8,463.1,182.2,458,180.5,452.8z"/>
				</g>
				<g>
					<path class="st10" d="M186.9,481.6c8.4-9.7,16.8-19.5,25.3-29.2c-7.2,15-15.7,31.3-22.9,46.3
						C188,493.3,188.2,486.8,186.9,481.6z"/>
				</g>
				<g>
					<path class="st10" d="M165.6,412.4c-12.6-2.8-25.1-5.6-37.7-8.5c14.7,7.8,29.4,15.6,44.1,23.4
						C169.9,422.4,167.7,417.4,165.6,412.4z"/>
				</g>
				<g>
					<path class="st10" d="M176.6,439.7c-12.6-2.8-25.1-5.6-37.7-8.5c14.7,7.8,29.4,15.6,44.1,23.4
						C180.8,449.6,178.7,444.6,176.6,439.7z"/>
				</g>
				<g>
					<path class="st10" d="M184.3,464.5c-12.6-2.8-28.1-4.7-40.6-7.5c14.7,7.8,29.4,15.6,44.1,23.4
						C185.6,475.4,186.4,469.5,184.3,464.5z"/>
				</g>
				<g>
					<path class="st10" d="M188.8,500.4c-11.3-6.3-22.5-12.5-33.8-18.8c11.9,11.6,23.8,23.3,35.6,34.9
						C190.1,511.2,189.4,505.8,188.8,500.4z"/>
				</g>
				<g>
					<path class="st11" d="M241.6,432.5c-6.5,7.7-12.1,16.1-17.1,24.8c-5,8.8-9.3,17.9-13.2,27.2c-4,9.4-7.5,18.9-11,28.4
						c-3.7,10.3-7.5,20.6-10.3,31.2c-0.2,0.9-0.5,1.8-0.7,2.6c0.2-2.6,0.4-5.2,0.5-7.8c0.9-13.9,1.1-27.8,0.1-41.6
						c-1-13.7-3.5-27.2-7.2-40.4c-3.7-13.2-8.5-26.1-13.4-38.9c-4.8-12.6-9.5-25.3-15.7-37.4c-0.8-1.5-1.5-3-2.3-4.4
						c-0.5-0.9-1.9-0.1-1.4,0.8c6.5,11.9,11.4,24.6,16.3,37.3c4.8,12.6,9.7,25.3,13.6,38.2c4,13.2,6.8,26.6,8.2,40.3
						c1.3,13.7,1.3,27.5,0.6,41.2c-0.5,9.5-1.3,19-2.2,28.4c-0.2,1.5-0.3,2.9-0.4,4.4c-0.3,2.9-0.6,5.8-0.9,8.6
						c-0.2,1.7-0.4,3.4-0.6,5.1c-0.1,0.9,1.1,1,1.5,0.3c0.2,0.9,1.6,0.8,1.6-0.2c-0.4-5-0.3-10,0.1-15c0.1-0.7,0.1-1.4,0.2-2
						c0.6-5.2,1.6-10.4,2.8-15.4c2.6-10.7,6.3-21,10-31.3c3.4-9.4,6.8-18.9,10.6-28.2c3.8-9.3,8-18.5,12.8-27.4
						c4.8-8.8,10.1-17.2,16.4-25c0.8-1,1.6-1.9,2.4-2.9C243.4,432.9,242.3,431.7,241.6,432.5z"/>
				</g>
			</g>
		</g>
		<g>
			<g>
				<rect x="152.9" y="573.4" class="st12" width="62" height="9.5"/>
			</g>
			<g>
				<path class="st13" d="M212.9,607.4l2-24.5h-62l2,24.5c0.2,3,2.7,5.3,5.7,5.3h46.5C210.1,612.7,212.6,610.4,212.9,607.4z"/>
			</g>
		</g>
	</g>
	<g>
		<circle class="st14" cx="1047.6" cy="182.5" r="81.3"/>
		<circle class="st15" cx="1047.5" cy="182.5" r="68.3"/>
		<rect x="1045.9" y="126.9" class="st16" width="3" height="55.8"/>
		
			<rect x="1072.3" y="154.8" transform="matrix(-1.836970e-16 1 -1 -1.836970e-16 1256.4929 -891.1392)" class="st16" width="3" height="55.8"/>
		<ellipse class="st16" cx="1047.3" cy="119.7" rx="3.7" ry="3.2"/>
		<ellipse class="st16" cx="1047.3" cy="246.2" rx="3.7" ry="3.2"/>
		<ellipse class="st16" cx="1110.6" cy="182.9" rx="3.7" ry="3.2"/>
		<ellipse class="st16" cx="985.4" cy="182.9" rx="3.7" ry="3.2"/>
		<ellipse class="st16" cx="1003.5" cy="139" rx="3.7" ry="3.2"/>
		<ellipse class="st16" cx="1003.5" cy="228.1" rx="3.7" ry="3.2"/>
		<ellipse class="st16" cx="1092.5" cy="139" rx="3.7" ry="3.2"/>
		<ellipse class="st16" cx="1091.2" cy="226.8" rx="3.7" ry="3.2"/>
		<path class="st17" d="M1047,114.2v136.6c38,0,68.3-30.6,68.3-68.3C1115.3,144.8,1085,114.2,1047,114.2z"/>
	</g>
	<g>
		<g>
			<path class="st18" d="M926.2,1005.9c-1.3,7.2-2.7,14.5-4,21.7c5.6,5.2,13.4,7.1,20.5,4.7c9.1-3,12.3-11.6,12.7-12.6
				c0.2-4.8,0.4-9.6,0.6-14.4C946.1,1005.5,936.2,1005.7,926.2,1005.9z"/>
			<g>
				<path class="st19" d="M919.9,1061.8c0.7,1.7,5.6,5.5,13.5,6c8.6,0.5,12.9-1.1,18.8-1.7c7.4-0.7,14.1,0.9,22.4,3.3
					c24.1,6.8,46.9,13.3,61.8,1.6c1.7-1.3,3-2.7,3.7-3.5c0.1-0.1,0.1-0.2,0.2-0.3c1-2.3,1.6-5.7,0.5-10.6c-2.1-5.2-8.1-6.6-12.1-7.7
					c-17.3-4.8-26.5-12.6-36.7-17c-9-3.9-21.7-10.4-36-21.6c-2.8,2.4-7.4,5.5-13.4,6.1c-10.3,1.1-16-6-19.9-3.1
					c-3.7,2.7-0.6,10.5-1.1,24.7c-0.3,8.8-1.9,15.9-3,20.2c0,0.1,0.1,0.2,0.2,0.4C919.3,1060.4,919.8,1061.7,919.9,1061.8z"/>
				<path class="st0" d="M1037.2,1059.6c-8.5,7.1-18.7,7.7-25.4,8c-12,0.5-21.5-2.5-30.7-5.4c-4.6-1.4-8.2-2.9-10.7-3.9
					c0,0-2.4-0.6-4.7-1c-8.3-1.4-14.2,0.3-22.8,0.2c-7.3-0.1-16.3-0.1-19.7-5.4c-2.3-3.5-1.4-8.3-1.9-8.3c-0.6,0-1,5.6-1,6.9
					c-0.2,3.7-0.3,5.6,0.3,6.9c0.9,1.8,2.9,3.3,8.7,4.4c6.3,1.3,11,1,20,0.5c12.3-0.7,13.1-0.7,14.8-0.5c1.8,0.2,3.4,0.5,4.8,0.8
					c6.2,1.5,11.5,4,11.5,4c7.8,3.7,22.2,5.5,34,4.6c9.1-0.6,18.6-1.4,23.7-8.5c1.7-2.4,2.4-4.8,2.8-6.6
					C1039.9,1057.1,1038.7,1058.3,1037.2,1059.6z"/>
				<g>
					<path class="st0" d="M976.5,1024.1L976.5,1024.1c0.6,0.5,0.7,1.5,0.3,2.1l-7.2,11.1c-0.4,0.7-1.3,0.8-1.9,0.3l0,0
						c-0.6-0.5-0.7-1.5-0.3-2.1l7.2-11.1C975.1,1023.7,975.9,1023.6,976.5,1024.1z"/>
					<path class="st0" d="M981.4,1026.9L981.4,1026.9c0.6,0.5,0.7,1.5,0.3,2.1l-6.4,9.9c-0.4,0.7-1.3,0.8-1.9,0.3l0,0
						c-0.6-0.5-0.7-1.5-0.3-2.1l6.4-9.9C980,1026.5,980.8,1026.4,981.4,1026.9z"/>
					<path class="st0" d="M985.9,1029L985.9,1029c0.6,0.5,0.7,1.5,0.3,2.1l-5.6,8.6c-0.4,0.7-1.3,0.8-1.9,0.3l0,0
						c-0.6-0.5-0.7-1.5-0.3-2.1l5.6-8.6C984.4,1028.6,985.3,1028.5,985.9,1029z"/>
					<path class="st0" d="M990.8,1031.3L990.8,1031.3c0.6,0.5,0.7,1.5,0.3,2.1l-5.2,8.1c-0.4,0.7-1.3,0.8-1.9,0.3l0,0
						c-0.6-0.5-0.7-1.5-0.3-2.1l5.2-8.1C989.3,1030.9,990.2,1030.8,990.8,1031.3z"/>
				</g>
			</g>
		</g>
		<path class="st20" d="M649.3,890.4c4.8-13.8,10-26.6,15.2-38.2c-1.4-4.2-11.1-34.3,6.6-61.9c10.8-16.9,26.3-24.2,32.7-26.8
			c25.6,11.5,51.2,23,76.8,34.5c-9.6,28.5-24.1,63.2-46.3,100.2c-20.5,34-32.1,54.6-55.1,75.2c-5.6,5-10.5,8.8-13.8,11.3
			c-41.4,6.5-90.5,8.4-144-1.3c-8.2-1.5-16.1-3.2-23.8-5c0.4-9.6,0.8-19.2,1.3-28.8c6.5-0.7,16.6-1.8,28.8-3.8
			c29.9-4.8,39.5-9.2,56.4-10.6c11.7-1,28.9-0.8,50.6,5.8C638.3,925.2,643,908.3,649.3,890.4z"/>
		<path class="st18" d="M778,518.2c-0.9,4.8-2.6,17,2.9,30.8c4.6,11.6,11.9,18.4,15.7,21.4c-22.7-1-45.3-2.1-68-3.1
			c3.9-8.4,10.2-24.7,10.3-45.9c0.1-10.7-1.5-19.7-3.1-26.4C749.8,502.7,763.9,510.5,778,518.2z"/>
		<path class="st21" d="M735.7,495.1c0.9,3.4,1.8,7.5,2.4,12.1c0.6,4.4,0.8,8.4,0.9,11.8c5.9,2.7,12.2,5.3,18.9,7.8
			c6.7,2.5,13.2,4.6,19.4,6.4c-0.1-2.1-0.1-4.4,0-6.9c0.2-3.1,0.5-5.9,0.8-8.3C764,510.4,749.9,502.7,735.7,495.1z"/>
		<path class="st22" d="M692.8,770.7c-3.2,3.3-22.6,23.8-19.9,53.5c1.5,16.4,10,38.6,28.4,47.6c6.5,3.2,14.3,3.2,30,4.3
			c11.8,0.8,26,0.7,43.9-1.8c21.6-2.9,34.1-3.7,50.9-5.8c21.7-2.8,53.4-6.2,93.1-7.9c-1.3,6.6-2.9,16.6-3.3,28.8
			c-1,25,3.2,40.6,5.8,60.5c2,14.8,3.6,35.9,1.7,62.2c4.7-0.6,9.7-1,15-1.3c6.7-0.3,13-0.3,18.8,0c0.3-10.2,0.9-25.4,2.5-43.8
			c2.5-28.7,4.9-35.2,8.8-67.6c7.1-59.9,3.6-76.5-6.9-87.7c-3.9-4.1-7.9-6.6-10.6-8.1c-11.6-2.3-29.4-5.6-51.4-8.8
			c-37.4-5.4-93.3-9.4-93.3-9.4C779.5,783.4,741.2,779.5,692.8,770.7z"/>
		<path class="st18" d="M812.4,413.6c2.6,8,1.8,16,0.9,26c-0.7,6.8-1.8,12.4-2.7,16.3c0,2.4,0.3,5.4,1.3,8.9
			c1.7,5.8,4.6,9.9,6.6,12.3c0.5,0.5,3.9,4.3,2.8,7.1c-0.5,1.3-2.1,2.2-5.3,4c-1.6,0.9-2.9,1.5-3.8,2c-0.2,0.6-0.4,1.5-0.7,2.6
			c-0.4,1.8-0.6,2.7-0.6,3.5c0,2.1,0.8,2.6,0.4,3.7c-0.4,1.1-1.7,1.6-2.4,1.9c-1.8,0.7-3.5,0.2-4.2,0c2.2,0.2,3.8,2.2,3.6,4.2
			c-0.2,1.7-1.5,3.1-3.3,3.4c-1,0.8-2.6,2.1-4,4.2c-3.5,5.1-2.3,9.5-3.8,11.8c-3.8,6.2-23.3,1.5-37.8-5.9c-7.9-4-19-9.7-27.7-23
			c-1.2-1.8-10.4-16.3-10.3-34.5c0.3-40.1,45.9-79.4,70.9-70.7C801.2,394.4,809.3,404,812.4,413.6z"/>
		<path class="st23" d="M704,395.9c-14.7-21.8-38.2-33.3-60-28.7c-29.4,6.2-44.3,39.4-46.2,62.6c-1.9,23.1,9.5,30.6,9.2,52.8
			c-0.3,19.6-9.7,43.1-39.6,69.5c6.8-0.8,12-2.4,15.5-3.7c8.9-3.2,18.5-8.8,18.5-8.8s0,0,0,0c-5.2,8.9-11.1,17-14.8,21.5
			c-9.3,11.1-22.7,19.4-26.7,21.8c3.9,0.7,73.6,11.6,100-30.9c8-12.8,12.8-31.9,12.4-49.8c-0.8-31.8-18-50.4-8.3-73.2
			c3-7.1,7.7-12.4,9.7-14.6C684.8,402,697.7,397.6,704,395.9z"/>
		<path class="st24" d="M698.2,393.6c-1.9-3.3-11-18.3-27.1-20.9c-25-4.1-41.5,25.8-42.2,27.1c-5.7,10.8-6.4,21-7,30.7
			c-1.4,23.1,5,33.3,5.5,46.2c0.5,14.7-6.5,35.7-41.1,62.4c8-3.1,17.1-7.3,26.6-13.1c5.5-3.4,10.4-6.8,14.8-10.2
			c-1.8,5.6-4.7,12.5-9.3,19.7c-9.2,14.3-20.7,22.4-27.8,26.5c4.5-0.3,38.8-3.4,53.5-30.3c10.4-19.1,6.8-42.6,5.6-50.4
			c-2.3-15.2-6.4-16.7-7.2-30.7c-0.6-9.7-1.7-28.9,11-42.2c15-15.7,38.2-11.2,40.7-10.6C695.5,396.4,696.9,395,698.2,393.6z"/>
		<path class="st25" d="M737.3,539.1c3.3,2.7,9.9,7.3,19.5,9.5c10.7,2.5,19.6,0.6,23.8-0.6c7.1,9.6,14.8,19.4,23.2,29.4
			c11.6,14,23.2,26.7,34.4,38.2c0.1,3.9-0.1,8.4-1.3,13.2c-4.6,19.6-20.1,30.7-25.6,34.3c-3.6,19.1-7,38.8-10.1,59.1
			c-3.3,21.4-6.1,42.2-8.6,62.4c-14.8-0.6-31.2-1.9-48.8-4.6c-18.8-2.8-35.8-6.7-50.8-10.8c4-5.8,9.4-14.7,13.6-26.4
			c4.4-12.1,5.6-22,6.9-31.9c3.4-26.6,2.6-40.5,4.4-83.3c1.1-27.2,1.9-32.6,2.5-36.3C724.2,568.6,731.5,550.9,737.3,539.1z"/>
		<path class="st26" d="M793.5,778.7c-18.6-0.3-39.9-1.9-63-6c-12.5-2.2-24.1-4.9-34.8-7.8c-0.9,1.4-1.8,2.8-2.7,4.2
			c12,3.4,25.3,6.5,39.6,9.1c22,3.9,42.2,5.7,60,6.2C793,782.5,793.3,780.6,793.5,778.7z"/>
		<path class="st26" d="M780.3,547.2c-5.2,0.8-13.5,1.5-23.3-0.5c-8.8-1.8-15.5-5.1-19.8-7.6c-0.6,1.3-1.1,2.6-1.7,3.9
			c4.6,2.4,10.9,5.1,18.7,6.9c11.8,2.6,21.9,1.8,28.3,0.7C781.8,549.4,781,548.3,780.3,547.2z"/>
		<path class="st27" d="M690,400.3c0.8-3,2.6-7.7,6.6-11c1.5-1.3,3.3-2.7,5.5-2.2c2.3,0.5,3.6,2.7,4,3.3c-1.4,0.5-4.7,1.9-7.4,5.5
			c-2.5,3.3-3.2,6.7-3.4,8.2C693.5,402.8,691.8,401.6,690,400.3z"/>
		<path class="st23" d="M808.4,401.3c-4.5-6.6-13.9-18.5-29.5-26c-2-0.9-41.4-19.1-71.8,7.2c-26.9,23.3-30.6,67.2-16.8,89.5
			c7.1,11.4,19,20,24.4,23.7c10.8,7.5,20.9,11.4,28,13.5c1.5-3.5,3.6-9.2,3.9-16.6c0.3-5.8-0.5-10.6-1.3-13.9
			c-5.9-1.8-9.8-7.3-9.8-12.8c0-7.2,6.7-13.9,15-13.1c-0.4-7.8,0.4-17.5,6.4-23.2c6-5.8,13.3-3.5,23.1-6.2
			C787.8,421.4,797.9,416,808.4,401.3z"/>
		<path class="st24" d="M807.4,403.5c0-1.6,0-2.8,0.1-3.1c0,0,0,0,0,0c-0.1-0.1-1.4,2.3-2.2,3.6c-2.5,4.3-7.2,6-11.7,7.3
			c-14,3.9-16.6,0.8-23.8,4.1c-7.9,3.6-15.8,12.5-18.2,22.2c-1,3.8-1.2,8.4-4.1,15.3c-1.5,3.5-3,6.2-4.2,7.9
			c4.1-1.1,10.2-3.5,15.5-9c8.9-9.1,6-17.1,13.8-23.5c8.5-7,16.3-1.2,25.4-8.5C803.7,415.1,806.2,408.2,807.4,403.5z"/>
		<path class="st24" d="M807.5,400.2c0.3,0.5,0.9,1.2,1.6,2c3.8,4.6,6.3,6,9.5,9.2c2.6,2.7,4.6,4.7,5.9,8.1c2.2,5.8,0.7,11.4,0.3,13
			c-2,7.1-6.9,10.7-8.4,11.7c7.2-13.3,6.6-19.7,4.6-23.1c-1.6-2.7-5.9-7.2-9.2-10.6c-1.6-1.6-4.4-4.4-4.5-8.2
			C807.3,401.4,807.4,400.7,807.5,400.2z"/>
		<path class="st28" d="M719.3,864.6l0.3,6.3c0.2,4.1,4.1,7.3,8.8,7.1l53.1-1.6c4.7-0.1,8.4-3.6,8.2-7.6l-0.3-6.3
			c-0.2-4.1-4.1-7.3-8.8-7.1l-53.1,1.6C722.8,857.1,719.1,860.6,719.3,864.6z"/>
		<path class="st29" d="M792.9,897.6h16.8c4.6,0,8.4-3.8,8.4-8.4v-45c0-4.6-3.8-8.4-8.4-8.4h-16.8c-4.6,0-8.4,3.8-8.4,8.4v45
			C784.5,893.8,788.3,897.6,792.9,897.6z"/>
		<path class="st29" d="M703.7,897.6h16.8c4.6,0,8.4-3.8,8.4-8.4v-45c0-4.6-3.8-8.4-8.4-8.4h-16.8c-4.6,0-8.4,3.8-8.4,8.4v45
			C695.3,893.8,699.1,897.6,703.7,897.6z"/>
		<g>
			<path class="st18" d="M728.9,570.3c1.1-10.3,9-18.3,18.4-19.2c10.9-1.1,21.6,7.8,22.5,20c-4.5,46.8-8.9,93.5-13.4,140.3
				c3.6,14.9,4.7,27,5,35.1c0.9,23.4-3.5,35.7-1.7,62.6c0.6,9.1,1.7,16.4,2.4,20.9c0.8,1,1.8,2.3,2.9,3.9c0.6,0.9,1.3,1.9,2,2.9
				c0.2,0.3,2.2,3.5,4,7.5c4,8.4,6,17.3,6.7,21c-0.1,0.8-0.1,1.7-0.2,2.5c-0.2,0.3-0.8,0.9-1.8,1.1c-0.1,0-1.1,0.1-1.8-0.3
				c-1.6-0.9-1.8-3.8-3.1-8.8c-0.6-2.2-1.2-4-1.6-5.2c0.2,4.1,0.8,7.4,1.3,9.7c0.4,1.9,0.7,3.9,1.1,5.8c0.1,0.5,0.3,1.4,0.6,2.8
				c0.6,3.5,0.3,4.1,0.1,4.4c-0.4,0.5-1.2,0.8-2,0.6c-1.6-0.4-2.6-2.8-4.1-6.2c-0.9-2-1.4-3.7-1.8-4.9c0,0.6,0,1.2,0.1,1.7
				c0.3,0.9,0.7,1.9,1,3c0.6,2.3,1,4.4,1.2,6.2c0,0.2-0.6,2.3-2.5,2.6c-1.2,0.2-2.2-0.5-2.6-0.7c-1.4-0.9-2.1-2.4-2.2-2.8
				c0,0.3-0.1,0.7-0.4,1c-0.5,0.7-1.2,0.8-1.9,0.9c-0.7,0.1-2.4,0.3-3.6-0.9c-0.3-0.4-0.5-0.8-0.6-1.1c-0.6,0.4-1,0.3-1.3,0.2
				c-0.3-0.1-0.5-0.3-1.2-0.9c-0.5-0.4-0.8-0.6-1.1-0.8c-1.1-0.9-2.5-2.5-2.8-3c-2.4-3.3-3.5-9.3-3.5-9.3
				c-1.6-8.7-2.5-13.1-2.5-16.6c0-3.1,0.2-4.1,0.4-7c0.3-3.5,0.5-5.2,0.3-7.2c-0.1-1.4-0.2-1.3-0.6-3.5c0,0-0.1-0.4-0.1-1.1
				c0,0-0.1,0-0.1,0c-0.5-3.9-1.3-10-2.3-17.5c-4.6-32.3-8.2-44.2-10.9-66c-1.1-8.7-2.3-21.6-2.5-37.6
				C726.1,661.1,727.5,615.7,728.9,570.3z"/>
		</g>
		<path class="st26" d="M728.6,569.7c-0.4,11.9-0.8,23.8-1.3,35.7c4.8,1.4,10.5,2.8,17.1,3.5c9.1,1.1,17.1,0.7,23.4,0
			c0.6-11.5,1.3-22.9,1.9-34.4c1.1-14.2-10.3-25.3-21.8-24.7C738.7,550.4,730,558.6,728.6,569.7z"/>
		<g>
			<path class="st18" d="M502.2,949.4c-7.3-1.1-14.6-2.2-21.8-3.4c-5.1,5.7-6.7,13.6-4.2,20.6c3.3,9,11.9,12,13,12.3
				c4.8,0.1,9.6,0.1,14.4,0.2C503.1,969.2,502.7,959.3,502.2,949.4z"/>
			<g>
				<path class="st19" d="M446.2,944.5c-1.7,0.8-5.3,5.8-5.6,13.7c-0.3,8.6,1.5,12.8,2.2,18.7c0.9,7.4-0.5,14.1-2.6,22.5
					c-6.2,24.3-12,47.3,0.1,61.8c1.4,1.7,2.7,2.9,3.6,3.6c0.1,0.1,0.2,0.1,0.3,0.2c2.4,1,5.7,1.4,10.6,0.2c5.2-2.3,6.4-8.3,7.4-12.3
					c4.3-17.4,11.8-26.9,15.9-37.1c3.7-9.2,9.8-21.9,20.5-36.6c-2.5-2.8-5.7-7.2-6.5-13.2c-1.4-10.2,5.6-16.1,2.6-20
					c-2.8-3.6-10.5-0.3-24.7-0.4c-8.8-0.1-15.9-1.4-20.3-2.5c-0.1,0-0.2,0.1-0.4,0.2C447.5,943.9,446.2,944.5,446.2,944.5z"/>
				<path class="st0" d="M451.6,1061.8c-7.4-8.3-8.2-18.5-8.7-25.2c-0.9-12,1.9-21.5,4.6-30.8c1.3-4.6,2.7-8.3,3.6-10.8
					c0,0,0.5-2.4,0.9-4.8c1.2-8.3-0.7-14.2-0.8-22.8c-0.2-7.3-0.3-16.3,4.9-19.9c3.5-2.4,8.3-1.6,8.2-2.1c0-0.6-5.6-0.8-6.9-0.8
					c-3.7-0.1-5.6-0.2-6.9,0.5c-1.8,0.9-3.2,3-4.2,8.8c-1.1,6.3-0.7,11.1,0,20c1,12.3,1.1,13,0.9,14.7c-0.1,1.8-0.4,3.4-0.7,4.9
					c-1.3,6.3-3.7,11.6-3.7,11.6c-3.5,7.9-4.8,22.3-3.7,34.1c0.9,9,2,18.6,9.2,23.4c2.4,1.6,4.9,2.3,6.7,2.6
					C454.2,1064.4,452.9,1063.3,451.6,1061.8z"/>
				<g>
					<path class="st0" d="M485.4,1000.1L485.4,1000.1c-0.5,0.6-1.4,0.8-2.1,0.4l-11.3-6.9c-0.7-0.4-0.8-1.2-0.3-1.9l0,0
						c0.5-0.6,1.4-0.8,2.1-0.4l11.3,6.9C485.7,998.7,485.9,999.5,485.4,1000.1z"/>
					<path class="st0" d="M482.7,1005.1L482.7,1005.1c-0.5,0.6-1.4,0.8-2.1,0.4l-10.1-6.1c-0.7-0.4-0.8-1.2-0.3-1.9l0,0
						c0.5-0.6,1.4-0.8,2.1-0.4l10.1,6.1C483.1,1003.6,483.2,1004.5,482.7,1005.1z"/>
					<path class="st0" d="M480.8,1009.6L480.8,1009.6c-0.5,0.6-1.4,0.8-2.1,0.4l-8.8-5.4c-0.7-0.4-0.8-1.2-0.3-1.9h0
						c0.5-0.6,1.4-0.8,2.1-0.4l8.8,5.4C481.1,1008.2,481.3,1009,480.8,1009.6z"/>
					<path class="st0" d="M478.6,1014.6L478.6,1014.6c-0.5,0.6-1.4,0.8-2.1,0.4l-8.2-5c-0.7-0.4-0.8-1.2-0.3-1.9l0,0
						c0.5-0.6,1.4-0.8,2.1-0.4l8.2,5C478.9,1013.1,479.1,1014,478.6,1014.6z"/>
				</g>
			</g>
		</g>
	</g>
	<g>
		<rect x="81.7" y="117.7" class="st30" width="428.5" height="165.5"/>
	</g>
	<g>
		<g>
			<g>
				<path class="st31" d="M117.6,140H90.9c-0.1,0,0.1,1.2,0.1,2v133h27V142C118,141.2,117.8,140,117.6,140z"/>
			</g>
			<g>
				<path class="st32" d="M91,141.4V275h0.5l25.4-135H91.3C91.2,140,91,140.8,91,141.4z"/>
			</g>
		</g>
		<g>
			<g>
				<path class="st33" d="M89.4,138c0,1-0.4,0.4-0.4,0.7V276h3v-2.8v-27.6V138.7c0-0.3,0.3,0.3,0.3-0.7H89.4z"/>
			</g>
			<g>
				<path class="st33" d="M116.4,138c0,1-0.4,0.4-0.4,0.7v106.9v27.6v2.8h4V138.7c0-0.3,0.1,0.3,0.1-0.7H116.4z"/>
			</g>
		</g>
		<g>
			<path class="st34" d="M293.6,275.3h-72.2c-2.3,0-4.2-1.9-4.2-4.2v-46.3c0-2.3,1.9-4.2,4.2-4.2c13,0,25.9,0,38.9,0
				c1.6,0,3.3,0.1,4.9,0c2.7-0.2,3.5,0.1,4.4,0.5c1,0.5,2.1,1.3,2.3,5.3c9-0.2,16.9,0.2,25.9,0c-0.3,0.9,0.2,2.2,0,4.4
				c-0.2,1.7-0.1,3.1,0,3.4c0,0.2,0,0.4,0,0.5c0.2,2.4,0.3,11.5,0,36.5c0,0.3,0,1.8-1.2,3C295.8,274.9,294.7,275.3,293.6,275.3z"/>
			<rect x="217.2" y="228.6" class="st35" width="80.8" height="42.3"/>
			<g>
				<circle class="st34" cx="257.6" cy="249.8" r="19.8"/>
				<path class="st35" d="M257.6,268.6c-10.4,0-18.8-8.4-18.8-18.8c0-10.4,8.4-18.8,18.8-18.8c10.4,0,18.8,8.4,18.8,18.8
					C276.4,260.2,268,268.6,257.6,268.6z"/>
				<path class="st36" d="M257.6,267.6c-9.8,0-17.8-8-17.8-17.8c0-9.8,8-17.8,17.8-17.8c9.8,0,17.8,8,17.8,17.8
					C275.4,259.6,267.4,267.6,257.6,267.6z"/>
				<path class="st35" d="M257.6,264c-7.8,0-14.2-6.4-14.2-14.2c0-7.8,6.4-14.2,14.2-14.2c7.8,0,14.2,6.4,14.2,14.2
					C271.7,257.6,265.4,264,257.6,264z"/>
				<path class="st37" d="M257.6,261.9c-6.7,0-12.1-5.4-12.1-12.1c0-6.7,5.4-12.1,12.1-12.1c6.7,0,12.1,5.4,12.1,12.1
					C269.7,256.5,264.3,261.9,257.6,261.9z"/>
				<circle class="st35" cx="257.6" cy="249.8" r="8.5"/>
				<path class="st38" d="M237.8,249.8c0,10.9,8.9,19.8,19.8,19.8c4.6,0,8.8-1.6,12.2-4.2l-22.2-32.7
					C241.7,236.2,237.8,242.5,237.8,249.8z"/>
			</g>
			<rect x="222.2" y="222.1" class="st19" width="16.6" height="5.4"/>
			<rect x="281" y="220.5" class="st36" width="11.6" height="6.3"/>
		</g>
	</g>
	<g>
		<g>
			<g>
				<path class="st31" d="M121.9,140c-0.1,0-0.9,1.2-0.9,2v133h19V142c0-0.8-0.2-2-0.3-2H121.9z"/>
			</g>
			<g>
				<path class="st32" d="M121,141.4V275h1.3l16.9-135h-17.1C122.1,140,121,140.8,121,141.4z"/>
			</g>
		</g>
		<g>
			<g>
				<path class="st39" d="M121,138.7V276h2v-2.8v-27.6V138.7c0-0.3-0.2,0.3-0.1-0.7h-2C120.9,139,121,138.4,121,138.7z"/>
			</g>
			<g>
				<path class="st39" d="M138.9,138c0,1,0.1,0.4,0.1,0.7v106.9v27.6v2.8h2V138.7c0-0.3,0.4,0.3,0.3-0.7H138.9z"/>
			</g>
		</g>
	</g>
	<g>
		<g>
			<g>
				<path class="st31" d="M156.8,142.4l-14.1,4.2c0.1,0.7,0.4,1.5,0.6,2.2l37.7,127l14.3-4.3l-37.7-127
					C157.4,143.8,157.1,143.1,156.8,142.4z"/>
			</g>
			<g>
				<path class="st32" d="M142.9,146.5c0.1,0.6,0.1,1.2,0.3,1.8L181,275.8l0.4-0.1l-25-133.2L142.9,146.5z"/>
			</g>
		</g>
		<g>
			<g>
				<path class="st40" d="M173.6,247.9l-30.4-102.5c-0.1-0.3-0.1-0.5-0.3-1.2l-1.5,0.5c0.2,0.7,0.2,0.9,0.3,1.2l39.3,132.2l1.5-0.5
					l-1-3.3L173.6,247.9z"/>
			</g>
			<g>
				<path class="st40" d="M157.5,139.9l-1.9,0.6c0.2,0.7,0.3,0.9,0.4,1.2l30.4,102.5l7.9,26.5l1,3.3l1.9-0.6l-39.3-132.2
					C157.8,140.8,157.7,140.6,157.5,139.9z"/>
			</g>
		</g>
	</g>
	<g>
		<polygon class="st41" points="86,111 73,111 73,276.7 73,284.4 73,290 518,290 518,276 86,276 		"/>
	</g>
	<g>
		<g>
			<g>
				<path class="st42" d="M408.1,130.2c-8-1.5-15.7,1.5-20.5,7.4c2.3,7.2,8.3,13,16.3,14.6c8,1.5,15.7-1.5,20.5-7.4
					C422.1,137.6,416.1,131.8,408.1,130.2z"/>
			</g>
			<g>
				<path class="st43" d="M408.3,130.2c-8-1.5-15.8,1.6-20.5,7.4l36.8,7.2C422.3,137.7,416.3,131.8,408.3,130.2z"/>
			</g>
		</g>
		<g>
			<g>
				<path class="st42" d="M439.9,137.5c-6.9,4.3-10.5,11.8-10,19.4c6.6,3.7,15,3.9,21.8-0.4c6.9-4.3,10.5-11.8,10-19.4
					C455.1,133.4,446.7,133.2,439.9,137.5z"/>
			</g>
			<g>
				<path class="st43" d="M429.7,157c6.5,3.7,15,3.9,21.8-0.4c6.9-4.3,10.4-11.9,10-19.4L429.7,157z"/>
			</g>
		</g>
		<g>
			<g>
				<path class="st42" d="M419.4,96.3c-4,7.1-3.5,15.4,0.5,21.8c7.6,0.1,15-3.8,19-10.8c4-7.1,3.5-15.4-0.5-21.8
					C430.8,85.4,423.4,89.3,419.4,96.3z"/>
			</g>
			<g>
				<path class="st43" d="M419.8,118.3c7.5,0.1,15-3.8,19-10.8c4-7.1,3.4-15.5-0.5-21.8L419.8,118.3z"/>
			</g>
		</g>
		<g>
			<path class="st44" d="M434.7,206.6c0.1-1.5,0.4-4.7,0.5-9c0,0,0.2-8.2-0.8-17.2c-2.1-18.6-13.6-63-14.8-62.7
				c-0.7,0.2,2.5,15.4,7.9,41.3c0.9,4.4,3.6,17.1,4.4,33.7c0.5,10.8-0.1,16.7-3.6,22.2c-1.3,2-2.7,3.5-12.9,11.2
				c-15.3,11.5-18.1,12.5-17.8,14.5c0.8,5.9,28.2,12,35.9,2.2C438.3,236.6,432.8,228,434.7,206.6z"/>
		</g>
		<g>
			<g>
				<path class="st42" d="M445.7,183.9c-7.1,3.9-11.2,11.2-11.2,18.8c6.3,4.1,14.7,4.8,21.8,0.9c7.1-3.9,11.2-11.2,11.2-18.8
					C461.2,180.7,452.9,180,445.7,183.9z"/>
			</g>
			<g>
				<path class="st43" d="M456.2,203.7c7.1-3.9,11.1-11.3,11.2-18.8l-33,17.8C440.7,206.8,449.1,207.5,456.2,203.7z"/>
			</g>
		</g>
		<g>
			<g>
				<path class="st42" d="M423.7,165.9c-6.4-5-14.7-5.8-21.6-2.9c-1.3,7.5,1.4,15.4,7.8,20.4c6.4,5,14.7,5.8,21.6,2.9
					C432.8,178.8,430,170.9,423.7,165.9z"/>
			</g>
			<g>
				<path class="st43" d="M409.7,183.3c6.4,5,14.7,5.8,21.6,2.9l-29.4-23.3C400.6,170.3,403.3,178.3,409.7,183.3z"/>
			</g>
		</g>
		<g>
			<path class="st45" d="M424.6,275.4c24.2,0,43.7-19.8,43.7-43.7h-87.5C380.8,255.7,400.4,275.4,424.6,275.4z"/>
		</g>
		<g>
			<path class="st46" d="M424.3,272.5c22.5,0,40.8-18.1,40.8-40.8h-81.5C383.5,254.4,401.8,272.5,424.3,272.5z"/>
		</g>
	</g>
</g>
</svg>
