<?xml version="1.0" encoding="utf-8"?>
<!-- Generator: Adobe Illustrator 22.0.1, SVG Export Plug-In . SVG Version: 6.00 Build 0)  -->
<svg version="1.1" id="hot_day" xmlns="http://www.w3.org/2000/svg" xmlns:xlink="http://www.w3.org/1999/xlink" x="0px" y="0px"
	 viewBox="0 0 842 974" style="enable-background:new 0 0 842 974;" xml:space="preserve">
<style type="text/css">
	.st0{fill-rule:evenodd;clip-rule:evenodd;fill:#FFC74C;}
	.st1{fill-rule:evenodd;clip-rule:evenodd;fill:#FFCB5C;}
	.st2{fill-rule:evenodd;clip-rule:evenodd;fill:#FFE082;}
	.st3{fill-rule:evenodd;clip-rule:evenodd;fill:#F5B039;}
	.st4{fill-rule:evenodd;clip-rule:evenodd;fill:#FFD77A;}
	.st5{fill-rule:evenodd;clip-rule:evenodd;fill:#FF684A;}
	.st6{fill-rule:evenodd;clip-rule:evenodd;fill:#FF4733;}
	.st7{fill-rule:evenodd;clip-rule:evenodd;fill:#FF8D4F;}
	.st8{fill-rule:evenodd;clip-rule:evenodd;fill:#BA7F32;}
	.st9{fill-rule:evenodd;clip-rule:evenodd;fill:#674426;}
	.st10{fill-rule:evenodd;clip-rule:evenodd;fill:#F5753D;}
	.st11{fill-rule:evenodd;clip-rule:evenodd;fill:#F5DDBA;}
	.st12{fill-rule:evenodd;clip-rule:evenodd;fill:#5A6971;}
	.st13{fill-rule:evenodd;clip-rule:evenodd;fill:#506069;}
	.st14{fill-rule:evenodd;clip-rule:evenodd;fill:#3A4A52;}
	.st15{fill-rule:evenodd;clip-rule:evenodd;fill:#FFAC70;}
	.st16{fill-rule:evenodd;clip-rule:evenodd;fill:#FF9462;}
	.st17{fill-rule:evenodd;clip-rule:evenodd;fill:#F7672E;}
	.st18{fill-rule:evenodd;clip-rule:evenodd;fill:#F05A3C;}
	.st19{fill-rule:evenodd;clip-rule:evenodd;fill:#FFC499;}
	.st20{fill-rule:evenodd;clip-rule:evenodd;fill:#5E7B65;}
	.st21{fill-rule:evenodd;clip-rule:evenodd;fill:#4A2119;}
	.st22{fill-rule:evenodd;clip-rule:evenodd;fill:#F0EAC4;}
	.st23{fill-rule:evenodd;clip-rule:evenodd;fill:#C43F27;}
	.st24{fill-rule:evenodd;clip-rule:evenodd;fill:#FF814F;}
	.st25{fill-rule:evenodd;clip-rule:evenodd;fill:#42535C;}
	.st26{fill-rule:evenodd;clip-rule:evenodd;fill:#FFA467;}
	.st27{fill-rule:evenodd;clip-rule:evenodd;fill:#FFAB73;}
	.st28{fill-rule:evenodd;clip-rule:evenodd;fill:#E0CAAD;}
	.st29{fill-rule:evenodd;clip-rule:evenodd;fill:#C7B399;}
	.st30{fill-rule:evenodd;clip-rule:evenodd;fill:#FFB987;}
	.st31{fill-rule:evenodd;clip-rule:evenodd;fill:#F07233;}
	.st32{fill-rule:evenodd;clip-rule:evenodd;fill:#961D12;}
	.st33{fill-rule:evenodd;clip-rule:evenodd;fill:#FAEFCB;}
	.st34{fill-rule:evenodd;clip-rule:evenodd;fill:#59391D;}
	.st35{fill-rule:evenodd;clip-rule:evenodd;fill:#D4BC9D;}
	.st36{fill-rule:evenodd;clip-rule:evenodd;fill:#FFCFAD;}
	.st37{fill-rule:evenodd;clip-rule:evenodd;fill:#F07939;}
	.st38{fill-rule:evenodd;clip-rule:evenodd;fill:#FFDBC2;}
	.st39{fill-rule:evenodd;clip-rule:evenodd;fill:#F2A838;}
	.st40{fill-rule:evenodd;clip-rule:evenodd;fill:#FFFFFF;}
	.st41{fill-rule:evenodd;clip-rule:evenodd;fill:#FF7154;}
	.st42{fill-rule:evenodd;clip-rule:evenodd;fill:#FFD1B2;}
	.st43{fill-rule:evenodd;clip-rule:evenodd;fill:#F5F3EC;}
</style>
<g>
	<rect x="0" class="st0" width="842" height="973.4"/>
	<path class="st1" d="M842,336.2c0,0-12.8,73.8-95.3,88.6c-82.5,14.8-342.7-129.2-434.8-95.9c-92,33.2-142.8,66.4-190.4,55.4
		C73.9,373.1,0,321.4,0,321.4v268.3c0,0,140.5-89.7,159.2-81.2c18.7,8.5,293.6,125.5,293.6,125.5l193.2-30.2L842,654.2V336.2z"/>
	<path class="st2" d="M409.2,675.6c0,0-44.2-73.9-138.1-69.8c-93.9,4.1-110-54-89.2-127.3c20.2-71.5-18-55.3-94.2-93.4
		c-94.9-47.3-90.1-185.8,63.2-187.3c12.5-0.1,74.2-6.4,74.6-62c1.2-149.6,168.2-136.6,183-62.9c18.5,91.6,100.2,84.6,117.1,73.1
		c24.2-16.6,61.5-36.3,91.7-36.3c48.5,0,87.8,38.6,87.8,86.2c0,79.9-76.5,53.3-44.9,138.7c28.6,77.3,111.7,84.5,75.4,168.6
		c-36.3,84.2-143.9-16.4-196.1,24.6C487.2,568.8,540.1,729,409.2,675.6z"/>
	<path class="st3" d="M709.4,703.8c0,0-196,83.3-186.4,73c9.5-10.3,48.4-47.6,48.4-47.6L314.9,841.9c0,0-142.6-31-137.8-43.7
		c4.8-12.7,32.5-11.9,34.9-24.6s-16.7-25.4-16.7-25.4L0,793.5v52.4l177-4.8l-95.2,25.4L842,845.8c0,0-98.5-23.8-85.8-42.8
		c12.7-19,54-15.9,52.4-42.8C807,733.2,709.4,703.8,709.4,703.8z"/>
	<path class="st4" d="M0,780.8c0,0,190.9-46,208.4-39.7c17.5,6.3,150.9,23.7,180.9,28.6c30,4.8,249.1-111.1,293.6-107.9
		c44.4,3.2,159.2,60.3,159.2,60.3v19c0,0-103.3-60.9-144.5-67.8c-41.1-6.9-392.8,144.5-392.8,144.5s75.8-34.3,72.6-39.8
		c-3.2-5.6-167.8-30.5-182.1-29.8C181,749,0,793.5,0,793.5V780.8z"/>
	<path class="st5" d="M302.8,272.1c0,0,5.8-6.7,9.6-4c3.8,2.7,8.1,18.1,6.2,23.3c-2,5.1-8.7,5.5-8.7,5.5L302.8,272.1z"/>
	<path class="st6" d="M307,276.8c0,0,1.8-4.6,3.8-3.1c2,1.5,4.3,14.7,2.4,14.5c-2-0.1-3.9,4.5-3.9,4.5L307,276.8z"/>
	<path class="st7" d="M259.2,483.1c15.1-0.3,43.8,18.1,44.5,30.2c-15.2,43.5-13,94.5-16.6,140.8c-3.2,41.6,3.5,83.5,2.1,122.4
		c-0.4-0.2-4.8-0.5-13.1-0.7c-2.9-13.1-6.9-38.3-14.7-50.1c-5.4-19.9-7.9-32.8-8.2-44.5c-0.5-17,3.3-28.6,8.2-42.4
		C241,578.1,228.2,537.2,259.2,483.1z"/>
	<path class="st8" d="M666.4,842c0,0-29.9-9.7-41.3-8.4c-31.1,3.7-80.2,19.8-84.1,16.2c-29.7-27-210.2,49.6-39.7-34l-18.3-2.9
		l-155.5,27.8l-124.1,12.1l148.7,44.5L666.4,842z"/>
	<g>
		<path class="st7" d="M339.3,840.2c0,0-5.6-27.6,7.1-36.8c12.6-9.1,46.8-8.7,59-16.8c12.2-8.1,50.9-51.1,57.5-53.7
			c6.7-2.6,42,99.8,42,99.8s-32.4,6.1-24.4-5.9c8-12-4.6-26.4-11.4-29.6c-6.8-3.2-5.6-23.7-15.9-22.1c-10.3,1.6-35,18.4-43.1,28.3
			c-8.1,9.9-17.8,37.5-29.1,43.6c-11.3,6.1-29.7,8.9-29.7,8.9L339.3,840.2z"/>
		<path class="st9" d="M409.5,783.4l6.1,14.5c10.7-9.6,29.1-21.4,37.6-22.7c10.3-1.6,9,18.9,15.9,22.1c6.8,3.2,19.4,17.6,11.4,29.6
			c-8,12,24.4,5.9,24.4,5.9s-35.3-102.4-42-99.8C456.9,735.2,424.6,770.7,409.5,783.4z"/>
	</g>
	<path class="st7" d="M488.1,848.2c0,0-5.6-27.6,7.1-36.7c12.6-9.1,46.8-8.7,59-16.8c12.2-8.1,50.9-51.1,57.5-53.7
		c6.7-2.6,42,99.8,42,99.8s-32.4,6.1-24.4-5.9c8-12-4.6-26.4-11.4-29.6c-6.8-3.2-5.6-23.7-15.9-22.1c-10.3,1.6-35,18.4-43.1,28.3
		c-8.1,9.9-17.8,37.5-29.1,43.6c-11.3,6.1-29.7,8.9-29.7,8.9L488.1,848.2z"/>
	<path class="st10" d="M283,856.3c0,0-3.2-13.1-4-16.5c-0.8-3.4,3.6-23.5,1.4-32.1c-2.2-8.6,0.8-10,0.8-10l6.9,6l1.2,31.1
		c0,0-0.7,5.8,0.2,9.5c0.9,3.8,2.5,10.3,0.1,13.1c-2.4,2.8-5.4,2.6-5.4,2.6L283,856.3z"/>
	<path class="st7" d="M275.8,772c0,0,0.4,23.4,4,34c3.6,10.6,6.7,27.7,8.9,36c2.2,8.3,12.5,16.2,15,15.2c2.5-1,4.8-9.6,2.2-12.2
		c-2.6-2.6-5.3-4.3-5.3-4.3s-2.2-5.8-3.5-6.3c-0.4-0.1-1.6-13.7-1.6-13.8c0.1-0.3,2.6,9.4,3.2,9.6c1.4,0.3,3.6,1,5.2-0.4
		c2.4-2,3.1-6.3,3.1-6.3l-4.5-11.4c0,0,2.6-5,0.7-11.9c-2-6.9-7.1-13.7-11.2-19.8c-4.1-6.1-2.9-8.4-2.9-8.4L275.8,772z"/>
	<path class="st7" d="M435.7,748.8c0,0,45.5,115.8,50.4,118.8c4.9,3,21.3-2.8,20.4-5.9c-0.9-3.1-4.7-9.8-1.6-12.2
		c3.1-2.5,8.1-18.6,9-24.9c1-6.4-43.2-129.8-48.9-155c-5.7-25.2-10.7-75.8-10.7-75.8l-118.9,5.9c0,0-27.7,176.5-14,203
		c13.7,26.5,17.8,31.5,18.8,35.8c1,4.3-5.1,12.5-1.4,16.3c3.7,3.8,18.7,2.1,20.6-1.1c1.9-3.2,8-139.6,15.9-142.3
		c7.8-2.7,39.4-7,44.5,0C424.7,718.2,435.7,748.8,435.7,748.8z"/>
	<path class="st11" d="M406,402.9c0,0,3.3,27.6,15.5,50.6c12.2,23,20,48.4,21.8,55.3c1.8,6.9,15.6,75.5,14.7,77.6
		c-0.9,2.1-5.2,7.2-5.2,7.2l-117.5,19c0,0-10.6-7.7-11.4-16c-0.8-8.3-0.7-26.4-0.7-26.4s-20.3-20.6-29.2-32.2
		c-8.9-11.5-35.2-55.1-35.2-55.1l10.4-31.1c0,0,25.5,9.8,47.8-2.3c22.3-12.1,46.2-59.9,46.2-59.9l15.7-9.7L406,402.9z"/>
	<path class="st7" d="M242,335.9c0,0,17.1,26.6,26.2,58.1c9.1,31.5,1.4,62.6,3.7,63.4c2.3,0.8,24.8,15,54.3-2.6
		c29.5-17.6,47.7-55.8,47.7-55.8s-20.8-11.2-33.3-23c-12.6-11.8-36.7-45.1-36.7-45.1L242,335.9z"/>
	<path class="st12" d="M309.8,739.1c0,0,63.2,3.6,74.3,2.1c11.1-1.6,11.5-1.6,11.5-1.6l-3.4-31.3l8.8,5.3l10.3,33
		c0,0,34.3,3.5,52.3-1.5c18.1-5,29.4-9.4,29.4-9.4s-17.7-60.1-23-76.6c-5.4-16.5-15.7-65.3-15.7-65.3l-118.9,5.9
		C335.4,599.6,310.5,694.2,309.8,739.1z"/>
	<path class="st13" d="M368.8,741.3c0,0,8-143.9,3.4-143.7c-4.7,0.3-30.9,1.7-30.9,1.7l-25.9,140.1L368.8,741.3z"/>
	<path class="st13" d="M428.4,729.7c0,0,20.6-0.5,25.3-21.1c4.8-20.6-22.6-107.4-22.6-107.4l-19.8-0.4l4-5.1l37.2-1.9l15.8,87.6
		l-1.8-26.6c0,0,24.6,76.6,21.6,77.6c-3,1-30.1,11.3-40.1,11.7c-9.9,0.4-34.3,0-34.3,0l-8.3-27.8L428.4,729.7z"/>
	<path class="st14" d="M370.7,603.8c0,0,0.8,65.5,3.7,68.5c2.9,3.1,5.2,0,5.2,0l2.8,34.6l-3.6-103.3l72.3-3.6l-74.6,1.1
		c0,0,2.9,67.1,2.3,68.7c-0.6,1.6-2.4,2.1-3.2,0.6c-0.7-1.5-3.4-69.2-3.4-69.2l-35.5,1.2L370.7,603.8z"/>
	<path class="st15" d="M203.9,237.3c0,0-10.2,15.8-2.3,38.2c7.8,22.3,34.5,67.4,52.1,81.7c17.6,14.4,36.3,9.1,50.6,4.5
		c14.3-4.6,20.9-17.6,19.6-29.9c-1.3-12.3-11.2-18.3-14.7-38.3c-3.5-20-5.4-32.7-12.1-44.2c-6.7-11.5-33.6-34.5-45.9-36.7
		C238.9,210.4,203.1,225.4,203.9,237.3z"/>
	<path class="st16" d="M232.8,274.2l-7.9,14.6l20.7,2.1c0,0,12.6-5,12.4-9.6c-0.2-4.7,6.4-16.3,8-17.1c1.6-0.8,6.9-1.4,6.9-1.4
		l13.5,11l11.8-7.3l0.7-14l-16.1-6.8l-14.8,15.7l-7.6-7.3L232.8,274.2z"/>
	<path class="st17" d="M241.1,229c0,0-0.3,0.2-0.8,0.5c-3.7,2.7-20,14.3-20.6,15.4c-0.7,1.2,2.6,6.8,2.6,6.8s38-10.6,39.8-10
		c1.8,0.6,3.9,6.1,3.9,6.1l-3.6,5l5.6,8.6l34.4-0.6c0,0-6.1-22.4-7.3-20.9c-1.2,1.5-39.5-12.3-40.1-13.5
		C254.4,225.1,241.1,229,241.1,229z"/>
	<path class="st16" d="M238.9,304.2c0,0-2.8,9.5,7.1,13.9c9.9,4.4,22.2-7.9,26.6-15.5c4.4-7.5,15.5-10.7,20.2-10.7s17,4.9,17,4.9
		c3.6-13-1.2-18.5-4.6-24.7C305.3,272.2,260.4,268.9,238.9,304.2z"/>
	<path class="st18" d="M287.5,253.2c-5.8-3.3-8.8-0.4-10.3,6.9c-2.2,10.9,15.9,21.6,20.9,6.1C300.8,258.2,293.3,256.5,287.5,253.2z"
		/>
	<path class="st18" d="M247,270.8c5.4-3.6,8.7-1.2,10.8,5.7c3.1,10.2-13.8,22-20.2,7.7C234.3,276.7,241.5,274.5,247,270.8z"/>
	<path class="st19" d="M287.5,252.1c-5.6-3.6-8.8-1.2-10.5,5.6c-2.6,10,14.8,21.6,20.5,7.5C300.4,257.8,293.1,255.6,287.5,252.1z"/>
	<g>
		<path class="st20" d="M281.1,258.5c-1.6,3.7,0,8.3,3.6,10.1c3.6,1.9,7.8,0.3,9.3-3.4c1.6-3.7,0-8.3-3.6-10.1
			C286.9,253.2,282.7,254.8,281.1,258.5z"/>
		<path class="st21" d="M283.2,259.3c1.1-2.6,4-3.6,6.4-2.2c2.5,1.4,3.6,4.6,2.5,7.2c-1.1,2.6-4,3.6-6.4,2.2
			C283.2,265.1,282.1,261.9,283.2,259.3z"/>
		<path class="st22" d="M285.6,264.4c0.2-0.5,0.8-0.7,1.3-0.4c0.5,0.3,0.8,0.9,0.5,1.4c-0.2,0.5-0.8,0.7-1.3,0.4
			C285.6,265.5,285.4,264.9,285.6,264.4z"/>
	</g>
	<path class="st23" d="M278.9,250.9c-0.6-0.6,16.9,7.6,18.3,8C298.5,259.3,285.9,246.9,278.9,250.9z"/>
	<path class="st19" d="M246,269.5c5.6-3.6,8.8-1.2,10.5,5.6c2.6,10-14.8,21.6-20.5,7.5C233.1,275.3,240.4,273.1,246,269.5z"/>
	<g>
		<path class="st20" d="M240,274.6c-1.6,3.7,0,8.3,3.6,10.1c3.6,1.9,7.8,0.3,9.3-3.4c1.6-3.7,0-8.3-3.6-10.1
			C245.8,269.4,241.6,270.9,240,274.6z"/>
		<path class="st21" d="M242.1,275.5c1.1-2.6,4-3.6,6.4-2.2c2.5,1.4,3.6,4.6,2.5,7.2c-1.1,2.6-4,3.6-6.4,2.2
			C242.1,281.3,241,278.1,242.1,275.5z"/>
		<path class="st22" d="M244.5,280.5c0.2-0.5,0.8-0.7,1.3-0.4c0.5,0.3,0.8,0.9,0.5,1.4c-0.2,0.5-0.8,0.7-1.3,0.4
			C244.6,281.7,244.3,281,244.5,280.5z"/>
	</g>
	<path class="st24" d="M287.1,346.7c0,0,1.1-6.2,10.8-11.4c9.7-5.2,17.6-2.9,17.6-2.9l-5.9-6.4l-25.9,14.3L287.1,346.7z"/>
	<path class="st5" d="M219.6,312.2c0,0-13.2-3.5-14.3,7.5c-1.1,10.9,12,17.4,18.6,18.2c6.6,0.8,8.3-5.8,8.3-5.8L219.6,312.2z"/>
	<path class="st9" d="M212.7,232.6c0,0-10.5,1.5-0.9,21.3c9.6,19.8,4.5,32.4,4.5,32.4l8.5,22l-5.2,4c0,0-29.4-37.2-30.9-54.4
		c-1.5-17.2,17.7-29.3,17.7-29.3c-6.3-38,44.3-41.4,69-38.1c-5.7,5-5.4,9.8,0.8,14.3c-2.9,1.8-5.8,3.5-8.6,5.1
		c7.2,3.8,13.5,7.1,15.2,7.2c4.3,0.1,13.8,0.2,13.8,0.2S236.1,231.9,212.7,232.6z"/>
	<path class="st9" d="M266.6,240c0,0,1.3,3.8,3.5,4.7c2.1,0.9,28.7,8,28.7,8s0.1-9.7-7.5-12.9c-7.6-3.2-14.2-0.8-18.8,1
		C268,242.7,266.6,240,266.6,240z"/>
	<path class="st25" d="M345,696.5c0,0,42.6,2.3,43.1,6.7c0.6,4.3,12.8,9.4,12.8,9.4l-8.1,0.9l2.7,26c0,0-21.5,2.4-37,1.8
		c-15.5-0.6-27.8-1.2-27.8-1.2s18-9.6,18.4-18.7C349.6,712.3,345,696.5,345,696.5z"/>
	<path class="st26" d="M351,758c-2.4-8.8-20.5-9.4-32.7-8.9c-1.3,25.2-0.9,45.7,3.1,53.5c13.7,26.5,17.8,31.5,18.8,35.8
		c1,4.3-5.1,12.5-1.4,16.3c1.6,1.7,5.3,2.3,9.2,2.2c1.2-1.3,2.2-2.7,2.6-4C351.8,848.9,354.7,771.3,351,758z"/>
	<path class="st27" d="M464,766.5c-3,9.4,22.9,79.1,31.4,101.7c5.2-1.4,10-3.9,9.5-5.7c-0.9-3.1-4.7-9.8-1.6-12.2
		c3.1-2.5,8.1-18.6,9-24.9c0.5-3.3-11.4-38.8-23.6-75.4C479.6,753.2,466.3,759.2,464,766.5z"/>
	<path class="st15" d="M313.4,460.8c4.1-1.4,8.3-3.3,12.7-5.9c29.5-17.6,47.7-55.8,47.7-55.8s-1.8-1-4.7-2.7
		c-6.9-4-19.8-12-28.7-20.3c-5.9-5.5-14.3-15.7-21.5-25c-0.4,0.6-0.9,1.2-1.3,1.7c-6.2,14.9-23.7,28.5-23.7,28.5s-1.9,19.5,6.1,46.4
		c2.6,8.7,6.4,18,10.3,26.5C311.4,456.5,312.4,458.6,313.4,460.8z"/>
	<path class="st7" d="M418.8,447.9c-16.9-9.8-44.5-48.5-42.3-61.8c22.4-38.3,38.1-71.4,36.2-122.1c-21.2-1-25.5,6.4-57.8-11.4
		c-11-11.6-36-22-49-28.3c0.7-9.3,7.3-13.9,7.1-14.4c88.9,18.3,127,15.8,128.6,22.9c1.4,1.9-1.7-8.8,1.1,20.3
		C451.5,342.8,471,408.5,418.8,447.9z"/>
	<path class="st9" d="M558.3,791.5l6.1,14.5c10.7-9.6,29.1-21.4,37.6-22.7c10.3-1.6,9,18.9,15.9,22.1c6.8,3.2,19.4,17.6,11.4,29.6
		c-8,12,24.4,5.9,24.4,5.9s-35.3-102.4-42-99.8C605.7,743.3,573.4,778.8,558.3,791.5z"/>
	<path class="st28" d="M313.5,467.1c0,0,21.6,66.8,40.7,71.6c19,4.8,77.8-4,77.8-4s-65.1,10.3-71.4,18.2c-6.3,7.9-2,25.8,3.2,30.9
		c5.2,5.2,90.4,0.4,90.4,0.4s-10.8,4.4-10.7,7.1c0,0.6-5.3,1.4-13.6,2.1c-14.4,1.4-37.7,2.8-57.6,4c-20.2,1.2-36.8,2-36.8,2
		l-2.7,10.8c0,0-4.5-4.8-5.5-11.8c-1-6.9-0.8-29.8-0.8-29.8s-17.3-18.4-22-23.4s-40.5-61.9-40.5-61.9l7-23.2
		C270.9,460.4,284.2,472.5,313.5,467.1z"/>
	<path class="st29" d="M313.2,551.4c13.8,2.5,36.2,1.3,72-10.6C335.6,560,319.1,557.8,313.2,551.4z"/>
	<path class="st26" d="M267.5,652.9c4.8-9.5,20.3-8.4,20.3-8.4s3.3,51.9,1.7,66.1c-1.6,14.1-0.4,61.3-0.4,61.3
		C280,745.9,255.1,677.8,267.5,652.9z"/>
	<path class="st30" d="M287.1,346.7c5.6-10.7,15-15.4,28.4-14.2C308,340.2,298.5,345,287.1,346.7z"/>
	<path class="st7" d="M293.8,244.6c0,0,3.9-5.3,9.1-11.6c5.2-6.3,19.4-1.6,19.4-1.6l5.6-15.4c0,0-19.1-8.3-34-11.4
		c-24.5-5.3-50.3-6.6-55.1-6.8c-15.6-0.5-18.4,7.3-8,7.4c4.4,0,22.8,1.9,22.8,1.9s-38.9,6.4-42.1,10c-3.1,3.6-2.9,5.8-0.1,7.7
		c2.8,1.8,10.9,2.4,14.4,0.1c3.5-2.3,19.4-5.8,19.4-5.8s5.9,1.8,11.4,4.8c1.6,0.9-51.8,19.4-34.3,27.8c3.6,1.7,44.1-19.9,43.7-17
		c-0.1,0.6,6.9,5.7,6.6,6.3c-5,9.5-12,5.3-9.8,14.8c2.2,9.5,7.8,4.8,12.8,2.1C280.5,255,283.8,248.2,293.8,244.6z"/>
	<path class="st31" d="M259.6,204.4c-0.5,3.1,15.7,11.9,16.7,15.9c1,4,3.4,18.5,3.4,18.5s0.6-13.8,2.6-13.6c2,0.2,14.9,4.6,18.8,3.4
		c4-1.2,6.4-3.5,6.4-3.5L259.6,204.4z"/>
	<path class="st19" d="M221.4,273.6c0,0-2.9,11.4,0,18.7C224.3,299.6,226,285.4,221.4,273.6z"/>
	<path class="st19" d="M230.4,297.1c0,0-5.8,15.3-0.2,18.2C235.8,318.3,233.4,301.6,230.4,297.1z"/>
	<path class="st15" d="M304.1,225.4c0,0-10.8,0.7-18.5-4.4c-7.7-5-12.6-7.9-20.2-11.9c-7.6-4-30.3-1.6-37.1-2.7
		c-6.8-1-7.6-6.8,0.2-9.6c7.9-2.8,48.9,1.4,52.9,1.7c4,0.3,40.9,14.7,40.9,14.7S316.8,225.2,304.1,225.4z"/>
	<path class="st32" d="M287,333.6c0,0,3.6-2.4,8.6-5.8c5-3.3,8.9-4.1,12.2-5.1c3.3-1,5.6-3,5.8-5.2s-1.8-7-5.7-8.3
		c-3.9-1.3-17.5,1-25.1,6.3c-9.5,6.5-18,17.5-8.3,27.1C275.5,343.7,284.6,339.9,287,333.6z"/>
	<path class="st33" d="M304.8,315.5c0,0-1.1-5.9-1.1-6.3c0-0.4-8.4-0.3-18.2,4.5c-9.7,4.9-13.7,12.8-13.7,12.8L304.8,315.5z"/>
	<path class="st18" d="M303.3,324c-1-7.4-28.1,1.9-31.4,15.5c0,0,1.4,5,6.7,3.1C290.4,338.3,288.9,330,303.3,324z"/>
	<path class="st34" d="M233.9,183c-20.7,15.4-29.7,30.8-26.9,46.2C198.1,210.2,207.1,194.8,233.9,183z"/>
	<path class="st34" d="M221.6,315.4c-26.1-26.6-36.6-46.6-31.7-60c5.5,5.3,12.6,6.3,21.4,3c6.3,7,7.9,16.3,5,27.8
		c5.4,13.8,8,20.7,8,20.7C225.2,310,224.3,312.8,221.6,315.4z"/>
	<path class="st23" d="M253.2,268c0.6-0.6-16.9,7.6-18.3,8C233.6,276.4,246.2,264,253.2,268z"/>
	<path class="st9" d="M224.8,288.7c0,0-1.3-13.4,3.8-19.4c5.1-6,23.5-12.7,25.7-14.4c2.2-1.6,2.1-4.8,2.1-4.8s4.2,1.8,3.8,3.9
		C259.9,256.1,228.9,288.7,224.8,288.7z"/>
	<path class="st15" d="M442.7,253.1c-1.4-14.5-1.4-19.1-1.1-20.4c0-0.1,0-0.1-0.1-0.2c-3,3.3-6.4,7.5-7.2,10.1
		c-1.6,4.8-17.9,95.6-13.9,122.6c2.8,19.4,18.8,25.2,31.7,24.7C457.4,353.6,448.1,307.8,442.7,253.1z"/>
	<path class="st19" d="M432.4,247.8c1.9,0,3.5-1.6,3.5-3.5c0-1.9-1.6-3.5-3.5-3.5c-1.9,0-3.5,1.6-3.5,3.5
		C428.9,246.3,430.5,247.8,432.4,247.8z"/>
	<path class="st35" d="M387.7,442c0,0,7.2,29.8,17.6,51.7c0.1,7,0.6,18.1,3.2,20.7c2.4,2.4,4.1-2,3-9.4c3,4.6,6.2,8.2,9.5,10
		c4.8,2.7,8.7,3.6,11.7,3.4c0.2,8.7,0.9,22.1,3.5,23.4c4,2,4.8-5.6,4.4-9.9c-0.2-2.5-2.8-9-4.9-14.1c6-2.2,7.7-8.9,7.7-8.9
		l-17.2-46.1l-4.6-9.2c0,0-16-13.1-22.8-19.5c-6.7-6.3-11.9-12.7-11.9-12.7L387.7,442z"/>
	<path class="st36" d="M230.4,297.1c0,0-5.8,15.3-0.2,18.2C235.8,318.3,233.4,301.6,230.4,297.1z"/>
	<path class="st36" d="M322.9,426.7c0,0-4.1,11-0.1,13.1C326.8,442,325.1,430,322.9,426.7z"/>
	<path class="st19" d="M282,398.9c0,0-2.6,6.9-0.1,8.3C284.4,408.6,283.4,401,282,398.9z"/>
	<path class="st36" d="M279.3,441.6c0,0-3.9,7.2-0.1,8.6C282.9,451.6,281.3,443.8,279.3,441.6z"/>
	<path class="st37" d="M253.7,357.2c18,12.8,45.7,12.7,65.9-5.3C297.4,379.7,271.4,376.8,253.7,357.2z"/>
	<path class="st31" d="M418.8,447.9c-26.2-22.6-40.3-43.2-42.3-61.8C396,421,415,437,433.5,434C423.7,443.3,418.8,447.9,418.8,447.9
		z"/>
	<path class="st31" d="M259.1,483.3c-4.4,8.5-6.6,12.8-6.6,12.8c23,16.7,36.4,39.6,40.2,68.7c2.4-15.9,3.6-23.8,3.6-23.8
		C274.4,507.7,262,488.5,259.1,483.3z"/>
	<path class="st6" d="M218.2,311.9c0,0,2,3.5,1.4,5.9c-0.6,2.4-9,1.3-7.4,6.8c1.6,5.5,6.9,7.9,9.3,8.5c2.4,0.6,2.4-3.4,3.6-3.8
		c1.2-0.4,5.2-0.3,5.2-0.3l-8.6-13.6L218.2,311.9z"/>
	<path class="st26" d="M519.6,803.6c-1.8,6.5-3.5,17,0.5,26.7c5.1,12.6,32.5-16.7,42.6-28.1l-4.5-10.7c-1.6,1.3-3,2.4-4.1,3.2
		C547.2,799.3,532.9,801.2,519.6,803.6z"/>
	<path class="st19" d="M273.3,545.6c0,0-2.6,6.9-0.1,8.3C275.8,555.3,274.7,547.7,273.3,545.6z"/>
	<path class="st19" d="M257.5,586.9c0,0-2.6,6.9-0.1,8.3C259.9,596.5,258.8,589,257.5,586.9z"/>
	<path class="st19" d="M402.5,368.6c0,0-2.6,6.9-0.1,8.3C404.9,378.3,403.8,370.7,402.5,368.6z"/>
	<path class="st38" d="M436.2,300.8c0,0-4.4,11.8-0.2,14.1C440.4,317.1,438.5,304.3,436.2,300.8z"/>
	<path class="st39" d="M842,858.5c0,0-179.4,0-261.9,15.9C497.6,890.2,377,912.5,377,912.5l123.8,33.3c0,0-271.3-63.5-298.3-66.6
		C175.5,876,0,890.2,0,890.2L0,974h842V858.5z"/>
	<path class="st40" d="M617.5,250.2c35.8,0,64.9-28.6,64.9-63.8c0-35.1-29.2-63.8-64.9-63.8c-35.8,0-64.9,28.6-64.9,63.8
		C552.6,221.6,581.8,250.2,617.5,250.2z"/>
	<path class="st5" d="M264.5,263.9c0,0-3.1,9.5-0.3,15.6c2.8,6.1,5.4,10.8,4.6,13.1c-0.8,2.3-5.9,7.4-3.3,9.2
		c2.6,1.8,17.7,5.9,21,3.1c3.3-2.8,11-10,9.7-12.8c-1.3-2.8-7.9-4.1-11-8.7c-3.1-4.6-5.1-11.3-7.9-15.4c-2.8-4.1-9-6.1-9-6.1
		L264.5,263.9z"/>
	<path class="st6" d="M272.1,307.1c0,0-5.7-1.4-6.8-3.4c-1.2-2-0.2-4.4-0.2-4.4c12.1,2.7,23.7,3.8,29.5-9.1c0,0,3,1.2,3.1,3.5
		c0.1,2.4-1,5.7-1,5.7l-2.5-2c0,0-3.7,5.9-6.2,7.6c-2.5,1.7-13.2-0.1-13.2-0.1L272.1,307.1z"/>
	<path class="st41" d="M267.4,270.6c0,0,0.1,0.2,0.2,0.6c0.8,2.4,3.8,11.3,6.4,15.3c3,4.6,8.4,6.4,8.4,6.4s0.5-5.6,0.1-7.7
		c-0.4-2.2-10.5-20.8-10.5-20.8h-6.6l0,2.2L267.4,270.6z"/>
	<path class="st30" d="M276.3,297.6c1.5,0,2.6-0.8,2.6-1.9c0-1-1.2-1.9-2.6-1.9c-1.5,0-2.6,0.8-2.6,1.9
		C273.6,296.8,274.8,297.6,276.3,297.6z"/>
	<path class="st42" d="M498.7,858.1c1.1,0,2-2.1,2-4.7c0-2.6-0.9-4.7-2-4.7c-1.1,0-2,2.1-2,4.7C496.7,856,497.6,858.1,498.7,858.1z"
		/>
	<path class="st30" d="M209.6,318.9c1.5,0,2.6-0.8,2.6-1.9c0-1-1.2-1.9-2.6-1.9c-1.5,0-2.6,0.8-2.6,1.9
		C207,318,208.2,318.9,209.6,318.9z"/>
	<path class="st43" d="M615.9,247.4c32.9,0,59.8-26.4,59.8-58.7c0-32.3-26.8-58.7-59.8-58.7c-32.9,0-59.8,26.4-59.8,58.7
		C556.2,221.1,583,247.4,615.9,247.4z"/>
</g>
</svg>
