<svg id="Layer_1" data-name="Layer 1" xmlns="http://www.w3.org/2000/svg" viewBox="0 0 1000 1000"><defs><style>.cls-1{fill:#fff;}.cls-2{fill:#86af15;}.cls-3{fill:#d9eef4;}.cls-4{fill:#333;}.cls-5{fill:#479626;}.cls-6{fill:#bc6608;}.cls-7{fill:#a7d320;}.cls-8{fill:#798c0c;}.cls-9{fill:#9dcc36;}.cls-10{fill:#46751d;}.cls-11{fill:#e8f6f9;}.cls-12{fill:#d0ecf4;}.cls-13{fill:#cce6f2;}.cls-14{fill:#b56b35;}.cls-15{fill:#914e20;}.cls-16{fill:#ff9864;}.cls-17{fill:#ef6122;}.cls-18{fill:#394213;}.cls-19{fill:#f0f9bb;}.cls-20{fill:#ccd165;}.cls-21{fill:#d6b478;}.cls-22{fill:#efd39a;}.cls-23{fill:#37701c;}.cls-24{fill:#509e26;}.cls-25{fill:#a52636;}.cls-26{fill:#ea1b1b;}.cls-27{fill:#aa0b0b;}.cls-28{fill:#ffd58a;}.cls-29{fill:#fb3;}.cls-30{fill:#bc3195;}.cls-31{fill:#841454;}.cls-32{fill:#f2084b;}.cls-33{fill:#aad4e2;}.cls-34{fill:#69a3b7;}.cls-35{fill:#ffe1bd;}.cls-36{fill:#f4a019;}.cls-37{fill:#e8285a;}.cls-38{fill:#cc1950;}.cls-39{fill:#9b1b42;}.cls-40{fill:#fcee21;}.cls-41{fill:#ce0b35;}.cls-42{fill:#e82863;}.cls-43{fill:#507acc;}.cls-44{fill:#2b58a0;}.cls-45{fill:#a08410;}.cls-46{fill:#364c0c;}.cls-47{fill:#8bcad8;}</style></defs><title>Image 43.A [Converted]</title><rect class="cls-1" width="1000" height="1000"/><path class="cls-2" d="M499.26,635.82l341.68-390C763.58,143.36,639.88,76.35,500,75c-136-1.29-257,62.77-334.81,162.53l.34.24Z"/><path class="cls-3" d="M500,925c234.72,0,422.7-190.29,425-425,.93-95.08-30.44-183.13-84-254.15L500,500,165.52,237.79l-.34-.24A425.74,425.74,0,0,0,75,500C75,734.73,265.27,925,500,925Z"/><path class="cls-4" d="M518.39,481.75a26.11,26.11,0,1,0-.39,37A26.12,26.12,0,0,0,518.39,481.75Z"/><path class="cls-4" d="M288.31,381.19c-18-14-16.38-27.3-30.31-52.44s-43-47.45-40.73-50.39,31.05,19.86,58.88,27.26,40.36,2.63,58.34,16.65a37.28,37.28,0,0,1,11.93,42.67L516.78,497.52A11.12,11.12,0,0,1,503.06,515L332.69,382.44A37.53,37.53,0,0,1,288.31,381.19Z"/><path class="cls-4" d="M806.13,285.57,506,513.81a11.09,11.09,0,1,1-13.49-17.62L792.62,267.94a11.11,11.11,0,1,1,13.51,17.63Z"/><path class="cls-5" d="M510.26,393.89c19.79,1,32.89-10,31.66-21.81C531.82,369.62,517.42,376.39,510.26,393.89Z"/><path class="cls-6" d="M504.5,384.82a44.64,44.64,0,0,1,4.85,21.2c-.05,2.78,4.26,3.08,4.32.3a49.46,49.46,0,0,0-5.29-23.42C507.12,380.41,503.24,382.33,504.5,384.82Z"/><path class="cls-7" d="M528.89,397.25c-6.94-1.2-14.71,2.41-17.39,8.92-4.25-5.95-10.49-8.13-17.6-6.42s-13,7.26-15.86,14-3,14.44-1,21.49c2.34,8.58,7.86,16.54,15.83,20.47,7.54,3.71,14.32,2.35,21.67-.59,7-2.8,14.24-.71,20.86-6.15,5.42-4.45,8.7-11.1,10.27-17.94s1.54-14.26-1.25-20.73S535.83,398.45,528.89,397.25Z"/><path class="cls-8" d="M511.13,402.53c-10.22-9.84-26.21-4.94-33.38,7.08-8.32,13.94-3.83,34,8.4,44.22a25.27,25.27,0,0,0,20.92,5.79c4.36-.77,8.33-2.86,12.67-3.69,4-.77,8.15-.83,12-2.39,14.84-6,20.28-28,15.43-42C542,396.55,520.88,388,511.13,402.53Zm32.81,25.73c-1.29,7.63-4.76,15.85-11.6,20-5.55,3.41-12.69,2.78-18.79,4.84-8.24,2.78-15.71,3.92-23.3-1.57-6.73-4.87-10.81-13-12-21.08-1.34-8.92,1.08-19,8.45-24.73,7.6-5.94,17.09-5.91,23.21,1.83a1.84,1.84,0,0,0,1.58.77,1.68,1.68,0,0,0,1.84-1c4.23-8.47,14.39-10.33,22-5.06C543.67,408,545.53,419,543.95,428.26Z"/><path class="cls-9" d="M281.68,197.19c-3.71,11.33-8,21.91-10,32.89a67.74,67.74,0,0,1-9.36-11.2c-6-9.38-19.47,1.43-13.55,10.76,3.48,5.48,8.09,10,12.64,14.47a64.8,64.8,0,0,0-29.08-10.57c-11.08-1.15-13.27,16-2.18,17.16,12,1.24,19.49,7.06,29.43,12.89,9.07,5.32,18,4.08,25.77-2.77a7.09,7.09,0,0,0,3.6-8.27c-3.91-17.92,3.33-32.23,8.79-48.9C301.18,193.11,285.15,186.58,281.68,197.19Z"/><path class="cls-5" d="M309.75,180.6a20,20,0,0,0-26.46-4.15,23.93,23.93,0,0,0-36.17,7.85,27.42,27.42,0,0,0-32.78,36.79,22.47,22.47,0,1,0,31,27.61,42.28,42.28,0,0,0,37.89-28.07,29.56,29.56,0,0,0,10.58-7.44,20,20,0,0,0,15.93-32.58Z"/><path class="cls-10" d="M307.39,175.41a22.2,22.2,0,0,0-12.74-4.34c-4.76-.09-9.33,3-13.47,1.41-10.09-4-20.15-4.84-29.21,2.47-1.95,1.57-3.68,5.26-5.62,6.35s-5.69-.24-8.08-.12a30.8,30.8,0,0,0-16.76,6.24,3.64,3.64,0,0,0-.8.65,30.27,30.27,0,0,0-9,32.1c-16.38,10.77-16.44,36.59,3.62,44.2a24.88,24.88,0,0,0,25.82-5.29,36.06,36.06,0,0,0,4.19-5.32c2.24-3.14,2.26-2.85,6.3-3.62A44.7,44.7,0,0,0,281,230.22c1.29-2,2.06-4.71,3.44-6.62,1.75-2.42,5-3.92,7.48-5.64,4.45-3.11,9.74-3.16,14.34-6.16a22.14,22.14,0,0,0,1.16-36.39Zm4.33,14.4a18.33,18.33,0,0,1-3.78,14.78c-4.79,5.9-9.16,4.32-15.23,6.75-1.46.59-3,2.88-4.37,3.88-1.72,1.29-5.14,2.12-6.45,3.71-2.42,2.93-3.4,7.43-5.67,10.63-7.33,10.34-18.66,16.09-31.16,17a2.14,2.14,0,0,0-1.72,1.34c-5.07,12.7-20.54,18.24-31.79,9.37-12-9.46-9.11-27.11,3.62-34.18a2.23,2.23,0,0,0,1.14-2.84,25.89,25.89,0,0,1,7.46-29.16,26.78,26.78,0,0,1,23.06-4.64,2.08,2.08,0,0,0,2-.85c6.93-12.26,21.63-15.74,33.15-7.4a2.12,2.12,0,0,0,2.14.25C294.72,172.25,309.34,176.74,311.72,189.8Z"/><path class="cls-10" d="M255.12,185.76c-2.56,1.09-.87,5.07,1.69,4S257.68,184.67,255.12,185.76Z"/><path class="cls-10" d="M302,195.95a2.2,2.2,0,0,0-1.14,2.84l.16.38a2.16,2.16,0,1,0,4-1.69l-.16-.37A2.19,2.19,0,0,0,302,195.95Z"/><path class="cls-10" d="M259,200.07c-2.56,1.09-.87,5.07,1.69,4S261.55,199,259,200.07Z"/><path class="cls-10" d="M255.15,215c-2.56,1.09-.87,5.07,1.69,4S257.71,213.9,255.15,215Z"/><path class="cls-10" d="M245.06,203.78c-2.56,1.09-.87,5.07,1.69,4S247.63,202.69,245.06,203.78Z"/><path class="cls-10" d="M266.87,183.45a2.19,2.19,0,0,0-1.2-2.81l-.53-.22a2.16,2.16,0,1,0-1.62,4l.53.22A2.2,2.2,0,0,0,266.87,183.45Z"/><path class="cls-10" d="M292.32,186.77c-2.56,1.09-.87,5.07,1.69,4S294.88,185.68,292.32,186.77Z"/><path class="cls-10" d="M285.75,201.53c-2.56,1.09-.87,5.07,1.69,4S288.31,200.43,285.75,201.53Z"/><path class="cls-10" d="M268.57,222.57c-2.56,1.09-.87,5.07,1.69,4S271.13,221.48,268.57,222.57Z"/><path class="cls-10" d="M226.12,241.52a2.2,2.2,0,0,0-1.14,2.84l.32.75a2.16,2.16,0,0,0,4-1.69l-.32-.75A2.19,2.19,0,0,0,226.12,241.52Z"/><path class="cls-10" d="M220.28,223.63l-.37.16a2.16,2.16,0,0,0,1.69,4l.38-.16a2.16,2.16,0,0,0-1.69-4Z"/><path class="cls-10" d="M231.35,227.78c-2.56,1.09-.87,5.07,1.69,4S233.91,226.69,231.35,227.78Z"/><path class="cls-10" d="M250.12,234.41a2.2,2.2,0,0,0-1.14,2.84l.32.75a2.16,2.16,0,0,0,4-1.69l-.32-.75A2.19,2.19,0,0,0,250.12,234.41Z"/><path class="cls-10" d="M274.56,181.48c-2.56,1.09-.87,5.07,1.69,4S277.12,180.39,274.56,181.48Z"/><path class="cls-10" d="M281,193.38c-2.56,1.09-.87,5.07,1.69,4S283.52,192.29,281,193.38Z"/><path class="cls-10" d="M228.87,210.5c2.56-1.09.87-5.07-1.69-4S226.3,211.59,228.87,210.5Z"/><path class="cls-10" d="M211,244.43c-2.56,1.09-.87,5.07,1.69,4S213.53,243.34,211,244.43Z"/><path class="cls-10" d="M276.74,208.46c-2.56,1.09-.87,5.07,1.69,4S279.3,207.37,276.74,208.46Z"/><path class="cls-10" d="M233.4,221.15a2.2,2.2,0,0,0-1.14,2.84l.16.38a2.16,2.16,0,1,0,4-1.69l-.16-.37A2.19,2.19,0,0,0,233.4,221.15Z"/><path class="cls-10" d="M231.37,197.64c-2.56,1.09-.87,5.07,1.69,4S233.94,196.55,231.37,197.64Z"/><path class="cls-11" d="M621.61,357l-69.06-3.24c-1.27,14.92-2.27,38.49.34,40.33,5.69,4,43.57,15,54.83,7.17C610.45,394.63,619.92,362.7,621.61,357Z"/><path class="cls-12" d="M623.46,351.12c-2-2.82-7.83-3.42-10.82-4a160.21,160.21,0,0,0-21.34-2.29,175,175,0,0,0-25.54.56c-10.44,1-14.69,5.27-14.84,5.54-3.82,6.68,13.41,7.76,16.34,8.1a198.87,198.87,0,0,0,41.74.7C612.25,359.43,628.36,358.09,623.46,351.12Z"/><path class="cls-13" d="M631.31,332.65a1.81,1.81,0,0,0-.08-1.27c-.82-3.88-6.21-5.82-9.36-7.1-10.08-4.09-21.11-6.23-31.84-7.82-9.64-1.43-19.67-2.65-29.42-1.68-3,.3-8.76.76-9.75,4.44a2.26,2.26,0,0,0-.15.72q-.57,18.6-1.11,37.2-.36,12.39-.71,24.78c-.09,3.35-1.26,8.63.06,11.86,2.83,6.92,18.18,8.53,24,9.66a148.12,148.12,0,0,0,21,2.67c4,.19,10.11.87,13.85-1.26,3.06-1.74,3.44-5.35,4.41-8.52q3.37-11,6.66-22.12,6.14-20.48,12.24-41A2,2,0,0,0,631.31,332.65Zm-39.7-11.6a172.49,172.49,0,0,1,20.86,4.59c2.06.6,13.57,3.33,14.46,6.3-1.47,1.94-11,1.44-12.65,1.43a157.24,157.24,0,0,1-22.46-2,171,171,0,0,1-22.22-4.8c-2-.59-13.95-3.35-14.28-6C554.86,316.81,589.21,320.67,591.61,321.06Zm26.88,39.49C614.76,373,612.09,386.7,607,398.7c-1,2.24-.4,1.95-3,2.79-5.62,1.85-14,.13-19.62-.58a145.59,145.59,0,0,1-19.4-3.69c-3-.81-10.67-2.1-12-5.24-1.22-2.81.22-9.31.3-12.29q.32-11.64.67-23.28.45-15.46.92-30.92a40.1,40.1,0,0,0,4.79,2.23c9.38,3.9,19.63,6,29.63,7.61s20.38,2.93,30.53,2.23a39.53,39.53,0,0,0,5.7-.64Q622,348.74,618.49,360.54Z"/><path class="cls-14" d="M479.79,186.78c-3.13-4.57-8-6.36-13.31-7.21a76.87,76.87,0,0,0-21-.46,26.44,26.44,0,0,0,11.7,15c5.87,3.5,15.38,5.54,21.4,1.35C482.1,193.08,482,190.07,479.79,186.78Z"/><path class="cls-15" d="M481.95,187.25c-2.86-5.83-9.23-8.19-15.18-9.27a86.25,86.25,0,0,0-21.39-.48,1.64,1.64,0,0,0-1.38,2.18c4.26,12.58,20.19,25.17,33.93,18.11C482.25,195.56,484.16,191.76,481.95,187.25Zm-4.28,6.94c-1.89,2.17-6.25,2.1-8.85,1.93-9.66-.64-17.33-6.92-21-15.54a82.76,82.76,0,0,1,18.38.6c3.77.68,7.62,1.71,10.48,4.44,1.6,1.53,2.58,3.22,2.54,5-7.67-6.17-17.51-9.31-27.28-9.79-1.37-.07-1.76,2.06-.38,2.13,9.63.48,19.33,3.5,26.81,9.73a1,1,0,0,0,.24.13A7.18,7.18,0,0,1,477.67,194.19Z"/><path class="cls-15" d="M453,184.27c-1.1-.85-2.48.82-1.37,1.67A24.5,24.5,0,0,0,462,190.55c3.62.74,7.42.82,10.84,2.32a1.08,1.08,0,0,0,.9-2C466.84,187.88,459.33,189.15,453,184.27Z"/><path class="cls-14" d="M431.45,190.27c-5.53.42-9.52,3.75-12.91,7.9-4.43,5.43-10.21,9.83-13.25,17.1,6.32,1.53,15.54,1.4,21.22-1.77,6-3.33,13.47-10.19,12.86-17.51C439,191.76,435.42,190,431.45,190.27Z"/><path class="cls-15" d="M435.47,189.08c-7.12-2.39-13.88,3.09-18.17,8-4.88,5.7-10.21,10.61-13.48,17.47a1.64,1.64,0,0,0,1.2,2.28c13.14,2.71,31.82-1.58,35.57-16.79C441.73,195.4,440.32,190.71,435.47,189.08Zm-1.3,16.12a26.92,26.92,0,0,1-4.74,4.44c-6.4,4.78-14,5.63-21.67,4.43,3.18-5.63,7.8-9.92,12-14.85a22,22,0,0,1,6.13-5.41c3.45-1.83,6.73-3.35,8.3-1.6-4.06,1.18-9.48,4.13-12.37,7.33-3.36,3.7-5.56,8.27-9.31,11.65-1,.92.19,2.71,1.22,1.78,7.11-6.4,8.68-15.6,21.24-18.52.65.18,0,1.15-.63,2.46-3,6.33-11.14,8.92-16.35,13-1.09.85.13,2.64,1.22,1.78,5.35-4.18,13.4-6.45,16.59-12.77C437.1,201.34,436.64,202.19,434.17,205.2Z"/><path class="cls-14" d="M448.27,202.34a26.44,26.44,0,0,0,3.17,18.79c3.51,5.86,9.08,13.62,16.37,12.78,4.22-.48,8.11-4.67,7.68-8.63-.59-5.51-6.38-12-10.64-15.21C459.29,205.81,454.79,204.93,448.27,202.34Z"/><path class="cls-15" d="M465.79,208.77l-.14-.12c-5.24-3.75-11-5.6-17-7.89a1.63,1.63,0,0,0-2,1.16c-1.91,11.61,4.87,32.7,19.26,33.62,5,.32,10.41-3.38,11.09-8.58.92-7.08-6.13-14.07-11.06-18.07ZM472.35,221c2.38,4.49.64,9.75-4.63,10.72-3.6.67-5.66-.42-8.36-2.86a29.54,29.54,0,0,1-9.75-24.28c5,1.89,9.85,3.67,14.28,6.8A32.58,32.58,0,0,1,472.35,221Z"/><path class="cls-15" d="M454.54,212.88c-.88-1.07-2.39.49-1.51,1.55,4.71,5.71,7.2,12.71,13.86,16.53a1.08,1.08,0,0,0,1.06-1.89C461.61,225.43,459,218.33,454.54,212.88Z"/><path class="cls-15" d="M453.21,206.95c-.9-1.06-2.4.49-1.51,1.55a34.85,34.85,0,0,0,11,8.76c3.88,2,6.66,3.47,7.66,8.07.3,1.36,2.38.8,2.09-.56a11,11,0,0,0-5.73-7.89C461.57,213.94,457.15,211.62,453.21,206.95Z"/><path class="cls-16" d="M762.27,239.11c-6-.36-22-6.91-24.68-16-3.07.66-6.86.66-7.58-4.74s-.62-11.18,1.58-12.07c1.3-4.5,6.71-17.59,15.54-19.34s20.18-2.39,25,.45,15,7.41,17.3,13.87,6.41,16.37-7.52,23.94c-2.94-1.26-6.77-6.85-7.83-11.71-.57-2.64-4.2-4-7.49-6.31-2.77-1.91-5.12-1.82-8.23-1.37s-5.28,2.59-7.76,5.24,0,6.94,0,6.94l17.2,9-13.34.79Z"/><path class="cls-17" d="M794.24,206.8c-1.2-4.28-4-9.45-7.91-12.24a4.18,4.18,0,0,0-1.07-2.13c-2.33-2.56-7.25-5.2-11.74-5.92a3.83,3.83,0,0,0-1.81-2.15c-3.5-1.94-11.34-2.49-16-.44A3.84,3.84,0,0,0,753,183c-4,.16-11,3.75-13.88,7.9a3.85,3.85,0,0,0-1.89.67c-3.19,2.18-7.08,8.4-7.64,13.37a4,4,0,0,0-1.51,2c-1.75,4.81-.82,14.92,3.65,18.12a2,2,0,0,0,1,.38,7.19,7.19,0,0,0,3.23.15,36.29,36.29,0,0,0,27.68,16.3c2,.17,2.66-2.41,1.53-3.69l-7.34-8.35,11.24-.11c2,0,3.14-3.1,1.09-4-6.46-2.92-13.64-5.46-19.47-9.67a18.56,18.56,0,0,0,3-5.2,1.63,1.63,0,0,0,.05-.21,14.89,14.89,0,0,0,2.13-1.25,2.7,2.7,0,0,0,1-1.5,15.85,15.85,0,0,0,2.73,0,2.57,2.57,0,0,0,1.68-.82,16.33,16.33,0,0,0,3.15,2.05,2.27,2.27,0,0,0,2.42-.19,18,18,0,0,0,2.67,4.17,2.18,2.18,0,0,0,2.55.36,14.14,14.14,0,0,0,.9,2.14c3.21,5.95,4.1,13.7,12.67,10C793,222.47,796.32,214.21,794.24,206.8Zm-10,14.71c-1.38.65-2.86,1.17-4,.08s-2.11-5.59-3-7.22a16.3,16.3,0,0,1-1.3-3.5,36.08,36.08,0,0,0,6.29-7.63c.81-1.24,1.94-2.68,2.8-4.17a20.79,20.79,0,0,1,5.09,9.52A11.39,11.39,0,0,1,784.29,221.51Zm-31.18,4a2.19,2.19,0,0,0-1.53,3.69l6.43,7.31a31.59,31.59,0,0,1-17.78-12.45,35.07,35.07,0,0,0,3.59-2.07,34.07,34.07,0,0,0,3.83-2.88A61,61,0,0,0,759,225.49ZM782,195.27c-2.52,4.9-5.6,10.46-10.27,13.49a15.73,15.73,0,0,1-1.84-4.05,34.75,34.75,0,0,0,2.81-9.16c.25-1.34.72-3,1-4.72C776.7,191.59,780.38,193.55,782,195.27Zm-13-7.38c1,.6.39.6.19,2.39a58.7,58.7,0,0,1-1,6,23.49,23.49,0,0,1-3,8.1,15.9,15.9,0,0,1-3.07-2.8,33.28,33.28,0,0,0-2.18-9.13c-.48-1.32-1-3.14-1.69-4.83C761.36,186.61,767,186.81,768.92,187.89Zm-16.57-.41c1.2,0,.72-.52,1.3,1.41s1.78,4,2.48,6.06a23.71,23.71,0,0,1,1.65,8.62,15.3,15.3,0,0,1-2.89-.46,33.27,33.27,0,0,0-7.15-7.25c-1.19-.94-2.65-2.33-4.21-3.41C745.86,190,750.31,187.45,752.35,187.48ZM738.81,196c1.3-.78.47-1,2.34.44,1.58,1.19,3.22,2.23,4.75,3.49a24.37,24.37,0,0,1,6.15,6.72q-.6.32-1.22.58c-3.48-1.84-7.6-2.44-11.47-2.78-1.45-.13-3.29-.44-5.08-.5C735.12,200.79,737.24,196.91,738.81,196Zm2.83,22.32c-1.91,1.25-5.29,3.54-7.81,2.92-2.19-1.76-2.81-9.37-1.7-12.67,5.47-.14,11.89-.1,16.77,2.54C747.29,214.09,744.41,216.48,741.64,218.3Z"/><path class="cls-18" d="M511.69,96.24c-1.72-8.62-10.71-8.57-18.31-6-6.5,2.22-11.83,6.69-18.15,9-7.35,2.74-15.51,2.54-23,5.18-11.1,3.94-22.6,13.27-23.1,25.89-.4,10.07,4.94,20.29,11.26,27.83,6.47,7.21,15.68,13.7,25.51,14.86,12.43,1.46,23.39-8.38,28.92-18.68,2.68-5,4.21-10.41,5.94-15.77,2.62-8.09,8.26-13.27,12.59-20.35C517.86,111,521.68,99.71,511.69,96.24Z"/><path class="cls-19" d="M507.6,99.8c-.19-11.5-15.82-4.62-25.8,2.1-11.24,7.57-29.62.87-44.08,19.13-8.55,10.8,1.3,27.67,6.53,33.7S464.78,172.9,476.68,166c20.12-11.73,16.09-30.87,25.18-40.93C509.93,116.11,518.42,101.2,507.6,99.8Z"/><path class="cls-7" d="M510.71,99.06c-.54-.54-1.23-.61-1.66-1.1-.72-.83-.71-2.53-1.55-3.51-1.63-1.92-4-2.45-6.41-2.42-8.05.1-14.75,5.77-21.48,9.31-9.18,4.84-20.42,3.48-29.87,8-8.93,4.23-17.31,12.28-17,22.77.26,8.67,4.89,17.28,10.33,23.8,5.34,5.92,12.49,11.14,20.32,13.08,8.75,2.17,16.36-1.76,22.42-8,5.79-6,8.55-13.57,11-21.35,1.19-3.8,2.3-7.74,4.48-11.12,2.89-4.48,6.77-8.12,9.44-12.81C514.36,109.3,515.87,104.23,510.71,99.06Zm-12.54,28.31c-3.41,5.65-4.51,12.41-6.85,18.51-3.43,8.94-11.11,19.74-21.56,20.45-9.26.63-18.43-6.17-24.34-12.72-5.17-6.2-9.82-14.84-9.41-23.13.62-12.42,14.76-19.27,25.36-21.42,7.29-1.48,14.71-1.84,21.24-5.73,4.34-2.58,22.48-14.43,23.38-3.56a1.67,1.67,0,0,0,1.17,1.6C519,103.94,500.54,123.42,498.16,127.37Z"/><path class="cls-20" d="M478.7,124.86c-6-6.93-17.81-6.55-24.75-.54a16.62,16.62,0,0,0,21.78,25.11C482.66,143.42,484.71,131.79,478.7,124.86Z"/><path class="cls-21" d="M333.73,292.21a15.13,15.13,0,0,1-10.22-1.39c-1.1-.58-11.23,1-12,1.72a44,44,0,0,1-12.09,7.86c-2.55,1.12-.57,5,2,3.85a47.45,47.45,0,0,0,7.3-4l-1.38,2.1c-1.53,2.33,2.11,4.66,3.64,2.33l2.59-3.95-.13.46c-.77,2.67,3.35,4,4.11,1.33l1.32-4.6,1.61,4.05c1,2.59,4.87.6,3.85-2l-.3-.76a11,11,0,0,0,5.4,1.47,2.31,2.31,0,0,0,1.6-3.85,19.82,19.82,0,0,0,3.64-.4C337.34,295.89,336.46,291.65,333.73,292.21Z"/><path class="cls-1" d="M304.75,241.58c3.11-1.35,6,13.93,9.27,14.69s26.71,6.44,25.4,18.42-12,17.53-12,17.53-5.85,8.12-15.55,3.9c-8.13.85-20.39-.39-22.27-9.94s5-19.76,10.3-23.67c3.19-3.66,3.4-11,3-13.93S302.1,242.73,304.75,241.58Z"/><path class="cls-22" d="M317.54,255.25c-7.3-1.65-4.91-7.72-6.51-12.75-.71-2.24-2.79-4.45-5.31-4.49-7.35-.14-4.66,11.6-4.55,15.7.16,5.88-4.35,7.56-7.67,11.62a29.66,29.66,0,0,0-6.24,13.11c-1.26,6.81,1.58,12.86,7.12,17,6.06,4.51,12.9,4.13,19.81,2.37A11.63,11.63,0,0,0,325.45,295c5.29-1.56,10.12-3.9,13.24-9.23C347.92,270,332.23,257.17,317.54,255.25Zm11,20.15c-1-1.81-3.92-.34-2.89,1.48,3.38,6,1.44,16.61-6.5,18.09-5.76,1.07-9.93-3.06-12.12-7.63-2-4.22-3-9-1.68-13.59.93-3.14,2.84-5.51,2.73-8.91-.06-2.08-3.3-2.27-3.24-.18.12,3.9-2.7,7.09-3.25,10.9a21.37,21.37,0,0,0,.91,9.08c1.16,3.85,2.94,7.5,5.89,10.07a12.58,12.58,0,0,1-1.65.16c-7.18.18-15.15-4.86-15.48-12.59-.18-4.14,1.77-8.7,4-12s5.79-4.92,8.22-7.84c2.59-3.12,2.06-7.18,1.84-11-.1-1.7-1.16-7.51.66-6.92,1.12.36,1.05,4.88,1.55,6.44,1.36,4.28,4.41,7.63,8.86,8.56l.16,0a2.36,2.36,0,0,0,.39.08c7.25.86,15.62,4.37,19.05,11.33,3.21,6.52-.69,14.61-6.59,18.11A16.16,16.16,0,0,0,328.52,275.4Z"/><path class="cls-23" d="M602.48,235.89c4-15.22,5.83-27.37,17.24-24.84s9.53,20.2,6,29.51c-3,7.84-16,38.25-23.35,41.24C600.21,275.8,599.26,248.08,602.48,235.89Z"/><path class="cls-24" d="M598.24,260.4c0,7.09-.08,14.9,2,21.77a225.63,225.63,0,0,1-9.07,29.94c-1,2.58,2.88,4.47,3.9,1.88a233,233,0,0,0,9.36-31c4.34-2.84,7.15-8.08,9.64-12.41a215.18,215.18,0,0,0,11.26-23.35c4.22-10,10.27-28-.4-36.15-15.41-11.8-21.52,12.44-24,22.23C598.66,242.21,598.19,251.28,598.24,260.4Zm10.46-39c1.06-2.9,2.43-6.41,5.36-7.84,3.67-1.8,8.22,0,10.26,3.36,6,9.77-.82,23.84-4.9,33.07-2.49,5.62-5.12,11.18-8.07,16.58a76.13,76.13,0,0,1-5.23,9c3-13.24,5.56-26.59,9.11-39.76.73-2.69-3.53-3.44-4.25-.78-3.31,12.25-5.75,24.65-8.46,37-1.2-9.9-.26-21,1-29.95A101.93,101.93,0,0,1,608.71,221.41Z"/><path class="cls-23" d="M567.93,190.93c-11.06,4.2-9.42,17.18-5.33,32.25,3.27,12.08,15.73,27.09,23.32,27,4.88-6.63,7.08-28.65,5.76-36.92C590.12,203.46,578.91,186.77,567.93,190.93Z"/><path class="cls-24" d="M570.51,188.15c-27.64,2.24-8.23,58,12.61,63.74,3,10.53,5.37,21.2,5.63,32.54.06,2.79,4.38,2.44,4.31-.33-.26-11.31-2.56-22-5.53-32.46l0-.06c6.62-10.09,8.45-28.05,6-39.73C591.52,201.94,582.28,187.2,570.51,188.15Zm19.34,29c.4,8.49-.07,20.45-4,28.79-3-10-6.5-20-9.2-30.33-.7-2.69-4.77-1.21-4.07,1.46,2.63,10.09,6,19.82,9,29.62-8.67-4.31-15.09-17.47-17.23-25.3-1.61-5.92-3.33-12.61-2.56-18.81.83-6.66,6.45-12,13.35-9.33C583.83,196.59,589.44,208.4,589.85,217.14Z"/><path class="cls-25" d="M637.34,360.34c-2.6,2.24-3.34,6.17.07,8.21,2.63,1.58,6.48,1.18,9.14-.14,3.31-1.65,4.72-5.95,1.76-8.68C645.09,356.75,638.68,358.92,637.34,360.34Z"/><path class="cls-25" d="M644.69,349.86c3.75-2,4.54-8.67,3.36-10.91-1.32-3.41-5.11-5.17-8.28-2.67-2.53,2-3.63,5.92-3.21,9C637.08,349.17,641,351.81,644.69,349.86Z"/><path class="cls-25" d="M673,343.57c-1.93-1.34-3.75-.65-5.72.12-2.68,1-5.56,0-8.17,1.36-2.86,1.48-3.68,4.79-3.25,5.81.83,3.74,5.9,4.11,9.14,4,4.28-.16,8.87-1.44,9.86-6.26A4.73,4.73,0,0,0,673,343.57Z"/><path class="cls-25" d="M654.37,323.61c1.06,2.1-.06,4.68,1.33,6.87a4.93,4.93,0,0,0,5.06,2.1c3.94-.87,5.09-5.2,4.81-8.76-.68-8.75-9.88-9.45-12.24-5.12C652.27,320.64,653.53,321.94,654.37,323.61Z"/><path class="cls-25" d="M683.46,330.25c.72-1.11,3-2.16,3.23-5.6.21-2.94-1.8-4.88-2.94-5-3.82-1.13-7,2.59-8.68,5.76-1.84,3.55-2.22,8.89,2,11a3.84,3.84,0,0,0,4.85-.88C683.11,334,682.45,331.81,683.46,330.25Z"/><path class="cls-26" d="M543.17,89s5.7-4.88,10.32-2.49S562,91.26,562,91.26s2.69-5.05,6.32-3.69a27.24,27.24,0,0,1,7.16,4.51l2.48,14-37-1.55Z"/><path class="cls-27" d="M580.27,101.73c-.26-5.07-1.59-10.43-6-13.51a11.49,11.49,0,0,0-11-1.23,8.15,8.15,0,0,0-2.49,1.7A14.13,14.13,0,0,0,551,83.9c-7.68-.48-12.43,5.41-13.53,12.46-.43,2.71,3.78,2.86,4.3.24,0,0,0-.06,0-.1.8-5.12,4.47-9.09,9.94-8.17a10,10,0,0,1,6.71,4.36,18.44,18.44,0,0,0-.68,5.18,55.89,55.89,0,0,0,1,9.21c.45,2.75,4.67,1.78,4.22-1l0-.12c-.62-3.74-2.17-11.34.73-14.24,1.69-1.69,4.82-1.63,6.86-.73,4.06,1.79,5.19,6.55,5.4,10.56a2.31,2.31,0,0,0,.13.65C576.81,104.35,580.4,104.28,580.27,101.73Z"/><path class="cls-5" d="M578.11,81.86c-2.1-3.53-5.59-6.64-9.71-4.29-5.71,3.26-8.93,9.93-9.79,16.22-.37,2.75,4,2.88,4.32.14a18.62,18.62,0,0,1,5.56-11.06c1.42-1.31,2.63-2.45,4.21-1a8.76,8.76,0,0,1,1.56,2C575.7,86.24,579.54,84.25,578.11,81.86Z"/><path class="cls-26" d="M542.44,88.56c-5.71-2.25-10.38-2.43-13.38,2.61s-10.79,48.61,4.78,61.17c3.94,1.27,11.64-1.58,11.64-1.58s1.87,6.44,6,6.72,7.67-4.15,7.67-4.15,3,6.23,8,5.41,14.2-14.32,20.47-32.53,5.56-33.4-.27-35S567.82,97,567.82,97s-3.81-3-6.85-2.31a58.05,58.05,0,0,0-8.17,2.89A23,23,0,0,0,542.44,88.56Z"/><path class="cls-27" d="M588.48,129.39c3.39-9.89,8.19-24.72,3.9-35.05C588,83.75,574.57,89,568,95c-3.93-3.09-9.65-2.77-14.14-.3-4.13-5.93-14.23-9.89-20.77-8.81-4.42.73-6.16,3.52-7.38,7.55a82.81,82.81,0,0,0-3.1,24.56c.09,10.67.93,25.93,8.39,34.46,3.91,4.47,9.47,4.23,13.74,1.4,1,2.48,2.57,4.43,4.89,5.28,3.6,1.32,6.85-.24,9.59-2.91,3.41,4.19,8.05,6.85,13.09,2.58C580.54,151.84,585.11,139.22,588.48,129.39Zm-15.56,22.22c-2.27,3.08-4.41,6.55-8.61,3.82A8.94,8.94,0,0,1,562,153a52.43,52.43,0,0,0,5.18-9.19c6.08-13.54,9-30.58,3.91-44.87a2.29,2.29,0,0,0-.2-.56l-.06-.11c2.85-2.7,6.88-5.23,10.69-5.6,7.1-.68,7.9,5.5,7.85,11-.08,8.88-2.61,17.79-5.58,26.08C581,137.37,577.72,145.09,572.92,151.61Zm-24,.05c-3.67-9.77-1.87-23-.6-33.08.59-4.7,1.19-9.84,2.92-14.29,2.13-5.48,11.76-11.37,15.75-4,4.13,12,2.27,25.5-1.92,37.2C563.7,141.34,553.27,163.3,548.9,151.66Zm-10.2,0c-4.06.06-5.86-3.94-7.2-7.08C528,136.45,527,126.9,527,118.12c-.05-6.18-.7-25.8,6.55-28,4.84-1.45,13.71,2.65,16.89,7.14a12.6,12.6,0,0,0-2.28,3.14c-4.92,9.76-5.15,23.47-5.27,34.11,0,3.44-.33,9.57.67,14.9A7.2,7.2,0,0,1,538.7,151.7Z"/><path class="cls-28" d="M713.32,137.41c-3-.09-8.69,4.57-9.56,6.91s-6.85,20.84-6.85,24.65,3.92,9.92,3.92,9.92,6.59-2.63,9.42-7.3,7.75-19.49,7.39-25.3S715.11,138.18,713.32,137.41Z"/><path class="cls-29" d="M688.86,258.23c1-18.75,4.56-37.51,8.08-55.92,1.46-7.62,3.24-15.08,5.2-22.47,3.46-1.94,7.07-4,9.08-7.47,2.34-4,3.56-9.16,4.94-13.58,2.52-8,5.76-16.64-2.1-23a1.1,1.1,0,0,0-1.32,0c-2.82,2-6.88,3.42-8.86,6.37-1.42,2.12-1.95,5.21-2.73,7.61-1.59,4.83-5.61,14.87-5.3,20.18,0,2.71,2.91,7.9,3.91,9.82a1.19,1.19,0,0,0,.08.11c-1.71,6.51-3.29,13.07-4.59,19.77-3.73,19.18-7.47,38.75-8.54,58.29C686.63,259.4,688.78,259.63,688.86,258.23Zm22.42-92.32c-2,1.26-4.15,2.38-6.26,3.5.32-1.13.66-2.25,1-3.37q3.49-2,6.91-4c-.36.94-.7,1.85-1,2.72-.12.34-.24.7-.36,1.06A1,1,0,0,0,711.28,165.91Zm-12.14-3.09q.42-1.61.92-3.2l3.17,6.65a1.11,1.11,0,0,0,.31.37q-.47,1.6-.93,3.21l-3.17-6.64A1.08,1.08,0,0,0,699.14,162.82Zm3-9.13,3,6.2a1.12,1.12,0,0,0,.37.41c-.34,1.14-.67,2.27-1,3.41l-3.2-6.7a1.06,1.06,0,0,0-.2-.26Q701.55,155.2,702.09,153.69Zm1.31-3.77c.41-1.23.75-2.54,1.19-3.8a73.09,73.09,0,0,0,2.29,7.32,1.08,1.08,0,0,0,.48.48l-1.07,3.53-3.18-6.67C703.2,150.5,703.3,150.21,703.4,149.93ZM714,159.25a1.12,1.12,0,0,0-.82.15c-2.06,1.28-4.17,2.49-6.28,3.68l1-3.44c2.48-1.35,5-2.7,7.39-4.16C714.88,156.76,714.44,158,714,159.25Zm1.56-6.41c-2.21,1.37-4.47,2.62-6.75,3.86l1.12-3.7c2.35-1.47,4.64-3.05,7-4.57a27.44,27.44,0,0,1-.77,4.27A.89.89,0,0,0,715.53,152.84Zm1.13-6.85c-2,1.24-3.86,2.57-5.79,3.84q1.6-5.25,3.19-10.53c1.31.73,2.3,2.47,2.73,5.39q.09.59.12,1.19A1.09,1.09,0,0,0,716.66,146Zm-4.74-7q-1.82,6-3.67,12c-.86-2.51-1.35-5.14-2.36-7.61a8,8,0,0,1,.81-1.07C708.51,140.34,710.33,139.18,711.92,138.95ZM698,170a28.31,28.31,0,0,1,.44-3.87l3,6.36a1.1,1.1,0,0,0,.31.37c-.39,1.4-.79,2.81-1.17,4.21C699.12,175.4,698.22,171.31,698,170Zm6.21,2.32c2.12-1.13,4.24-2.25,6.32-3.45a14.59,14.59,0,0,1-1.85,3.69,36.27,36.27,0,0,1-5.82,4.62C703.3,175.53,703.75,173.91,704.21,172.3Z"/><path class="cls-28" d="M736.44,161.06c-1.44-1.12-7.5-.64-11,3.21S710.66,182.09,709.46,186s1.14,9.29,1.14,9.29,5.29,1.25,9.33-1.18,16.37-17.17,17.57-22.29S738.11,162.35,736.44,161.06Z"/><path class="cls-29" d="M679.15,261.34c6.87-18.1,14.15-35.82,24.11-52.47,2.39-4,4.91-7.86,7.52-11.66,3.94-.64,8.2-1.33,11.34-3.86s5.58-6.28,8-9.37c4.83-6.17,11.38-12.76,8.63-21.23-2.25-6.93-11.61-2.34-15,1.69-5.3,6.31-12.11,13.56-15.17,21.3a1,1,0,0,0,0,.2s0,.05,0,.08c-.61,3.51-.1,6.66.38,10.16-3,4.33-5.84,8.75-8.53,13.34-9.53,16.23-16.57,33.47-23.24,51A1.08,1.08,0,0,0,679.15,261.34Zm35-81.24c.62-.89,1.28-1.76,1.94-2.63l.71,7.37a.81.81,0,0,0,.06.17c-.64.87-1.27,1.74-1.91,2.61l-.69-7.14A1,1,0,0,0,714.18,180.1Zm5.87-7.51.67,6.88a.85.85,0,0,0,.11.32l-2.05,2.73-.7-7.25a1,1,0,0,0-.06-.18Zm4.94-6.3a74,74,0,0,0-.35,7.75.83.83,0,0,0,.21.47l-2.17,2.84-.7-7.19C723,168.89,723.93,167.54,725,166.29Zm9.79-4.87c-2.66,3.57-5.35,7.09-8,10.6,0-2.63.49-5.24.38-7.88C728.3,163.21,732.29,161.16,734.78,161.42Zm-6.11,20.22c-2.53.53-5.07,1-7.62,1.4l2.18-2.88c2.85-.44,5.7-.86,8.53-1.4-.79,1-1.59,2-2.41,3A1,1,0,0,0,728.67,181.64Zm4.21-5.29c-2.57.54-5.16.94-7.75,1.34l2.36-3.08c2.78-.58,5.53-1.32,8.29-2a33.23,33.23,0,0,1-2.29,3.78A1,1,0,0,0,732.88,176.35Zm-13.71,9.21c2.74-.44,5.47-.92,8.19-1.46-.66.77-1.3,1.53-1.91,2.27l-.65.81a1,1,0,0,0-.37,0c-2.43.51-4.88.85-7.33,1.19C717.78,187.43,718.47,186.49,719.17,185.55Zm-3.88,5.26c2.5-.37,5-.69,7.5-1.13a15,15,0,0,1-2.59,2.51c-1.35,1-5,2.68-7.13,2.4a1.46,1.46,0,0,1-.39-.13C713.64,193.09,714.31,192.17,715.29,190.81Zm21.45-20.58a1,1,0,0,0-.2,0c-2.35.52-4.68,1.14-7,1.7,2.38-3.11,4.76-6.22,7.11-9.38C737.73,164.39,737.31,168,736.75,170.24Zm-26.1,16.2a27,27,0,0,1,1.73-3.48l.69,7.11a.77.77,0,0,0,0,.13c-.8,1.12-1.59,2.25-2.38,3.37,0,0,0-.05,0-.08A17.18,17.18,0,0,1,710.65,186.44Z"/><path class="cls-5" d="M530,272.8c-2.44-1.36-4.25,2.57-1.83,3.92a7.54,7.54,0,0,1,3.74,7.76c-.42,2.75,3.83,3.53,4.26.78A12,12,0,0,0,530,272.8Z"/><path class="cls-30" d="M536,284.83a5.57,5.57,0,0,0-4.29-.54c-8.7,2.84-13,28.59,3.58,27.28C544.32,310.86,543.45,288.54,536,284.83Z"/><path class="cls-31" d="M531.86,282.65h-.07l-.2,0-.18,0a1.49,1.49,0,0,0-.25,0c-12.09,4.81-12.51,30.69,3,30.47C548.65,313,546,280.69,531.86,282.65Zm.26,27.17c-9.7-2.06-8-20.54,0-23.93C542.4,284.65,544.27,312.4,532.13,309.82Z"/><path class="cls-5" d="M508.22,291.44c-1-2.9,0-4.8,2.16-6.84,2-1.89-.82-5.14-2.86-3.24-3.21,3-5,6.63-3.53,11C504.86,294.93,509.11,294.08,508.22,291.44Z"/><path class="cls-30" d="M504.76,316.51c9.06,0,11.21-20.47,4.11-24.78a7.23,7.23,0,0,0-6-.17C494.29,294.8,488.15,316.45,504.76,316.51Z"/><path class="cls-31" d="M504.08,318.11c14.55.25,14.95-32.66-1.56-28.13l-.19.07-.21.07C490.44,295.16,488.31,317.84,504.08,318.11Zm-3.37-3.85c-8.95-3.39-4.17-18,2.69-21.14,7.76-1.95,8.63,7.1,7.84,12.54C510.43,311.33,507.25,316.73,500.71,314.25Z"/><path class="cls-5" d="M502.58,346.39a25.5,25.5,0,0,0,9.64-4.38c2.21-1.68-.2-5.28-2.42-3.59a22.51,22.51,0,0,1-8.63,3.88C498.46,343,499.9,347,502.58,346.39Z"/><path class="cls-30" d="M508.86,338.93c.47,1.21,3.32,3.92,5,4.67,7.58,3.41,23.06-10,18.71-17.93C523.39,308.9,505.55,330.4,508.86,338.93Z"/><path class="cls-31" d="M507.33,339.46a1.65,1.65,0,0,0,.3.54c9.48,15.73,36.36-6.15,23.59-18.94C521.07,310.92,503.58,328,507.33,339.46Zm19.49-17.7c14.17,6.83-8.26,29.83-16.46,16.48C508.13,330.82,519.14,318.06,526.81,321.76Z"/><path class="cls-1" d="M749.76,252.5l2.72-.74,2.88,5.05s1.19,25.8-13.09,38.59-42.81,26.78-63.6,12.69A111.12,111.12,0,0,1,655.43,284l1.13-5.87,2.71-.92,28.65,3.13Z"/><path class="cls-10" d="M757.89,250.66l-.07-.36-5.34,1.46a1.36,1.36,0,0,1,.07.18c4.69,28.28-13.49,52.49-41.39,57.84-24.6,4.72-44.94-9.59-54.6-31.63a1.31,1.31,0,0,1,0-.17l-5.35,1.46.24.57c4.07,9.71,10.54,19.09,19.35,25.85,11.55,8.87,27.11,13.24,46.51,7.94C751.7,304.39,762.46,274.47,757.89,250.66Z"/><path class="cls-32" d="M659.27,277.23c8.68,19.64,26.29,33.28,48.59,30.22,27.71-3.8,46.4-27.19,41.9-54.95l-23.18,6.33-66.17,18.08Z"/><path d="M696.25,282a1.42,1.42,0,0,0-2.64-1.07L691,287.44a1.42,1.42,0,0,0,2.64,1.07Z"/><path d="M708.78,280.43a1.43,1.43,0,0,0-1.85-.78,1.46,1.46,0,0,0-.78,1.85c.55,2,1,4,1.56,6a1.47,1.47,0,0,0,1.6,1.23,1.43,1.43,0,0,0,1.23-1.6C709.94,284.93,709.39,282.67,708.78,280.43Z"/><path d="M724,280.56l-4.23-5.17c-1.16-1.42-3.43.29-2.27,1.71l4.23,5.17C722.84,283.69,725.11,282,724,280.56Z"/><path d="M733.85,269.07l-6.8-2.69A1.42,1.42,0,0,0,726,269l6.8,2.69A1.42,1.42,0,0,0,733.85,269.07Z"/><path d="M683,278.13l-5.14,4.39c-1.39,1.19.32,3.46,1.71,2.27l5.14-4.39C686.14,279.21,684.43,276.94,683,278.13Z"/><path class="cls-3" d="M423,316.31c-4.55.69-17.49,4.29-22.77,12.58-4.72,1.18-40.66,7.15-40.41,18.7.49,10.47,26.06,16,34,15.65s41.12-1.77,53-8.75c7.43,1.22,9.84,2.15,10.44-.4s-1.34-3.22-1.34-3.22l13.17-4.54s7.4-8.14-6-9.47c-5,.12-29.31-4.9-29.31-4.9l-11.6-2.11Z"/><path class="cls-3" d="M486.88,321.9c-3.61.62-15.58,6.78-18,15.41,2.73,3,.51,7.41.36,8.5,1.3,2.3,10.46,11.66,18.43,10.72C485.35,348.82,483.41,328,486.88,321.9Z"/><path class="cls-33" d="M490.77,354.66c-5.64-9.72-5-22-1.24-32.09.52-1.38-.57-3.43-2.28-3-10.07,2.55-15.42,7.73-19.85,15.56-3.45-.41-7.49.07-10.1-.3-11.09-1.57-21.61-5.3-32.91-6.28l-.4,0c-1.78-3.57,2.12-8.57,1.92-12.41a2.16,2.16,0,0,0-1.85-1.85c-9.56-.24-21.3,5.09-26.14,13.85-10.51.78-20.88,3-29.71,7.82-3.81,2.08-10.57,6.65-10.77,11.73-.18,4.81,6.42,9.17,10.13,11.14,15.58,8.27,36.4,6.9,53.21,4.31a144,144,0,0,0,26.94-6.77c.79.22,1.57.45,2.36.65,2.09.53,5.07,1.5,7.19.54a4,4,0,0,0,2-5.4,42.66,42.66,0,0,0,9.23-3.62c5,6.4,12.18,10.79,20.82,9.63C491.1,357.88,491.56,356,490.77,354.66Zm-35.63-1.15c-.62-.17-1.4-.16-2-.27a66.48,66.48,0,0,1-9.58-2.72c-2.29-.81-3.89,2.15-2.48,3.51a144.73,144.73,0,0,1-29.86,5.9,122.93,122.93,0,0,1-17.73.45c3.64-8,2.16-18.31-6.32-22.44-2.51-1.22-4.2,2.76-1.7,4,6.91,3.36,6.6,12.17,3.37,18.1-2.23-.23-4.44-.54-6.64-.95-5.07-1-18.23-3.94-19.83-10.2-1.51-5.9,10.65-10.68,14.94-12.14,9.06-3.07,18.85-4.12,28.37-4.43a152.28,152.28,0,0,1,32.71,2.52c5.45,1,10.68,2.82,16.09,3.94,2.15.44,14.19-.42,15.12,2.4-1.38,4.93-9.74,5.72-13.72,7.22l-.15.06a15.12,15.12,0,0,0-5-1.89c-2.74-.49-3.32,3.79-.59,4.29,2,.36,3.23,1.55,4.9,2.54A.48.48,0,0,1,455.14,353.51Zm-33.72-34.91c-.5,2.15-1.76,4.3-2.08,6.44a9.76,9.76,0,0,0,0,3.12c-5.2-.34-10.6-.51-16-.35C407.5,322.61,415,319.12,421.42,318.61Zm50.39,27.17a9.64,9.64,0,0,0,2.16-4.33,2,2,0,0,0-.08-1.16,5,5,0,0,0-2.29-3.83c3-5.2,6.6-9.08,12.61-11.43-2.68,9.5-2.64,19.8,1.43,28.92C480,353.6,475.28,350.24,471.81,345.78Z"/><path class="cls-34" d="M373.16,345c-2.76-.38-3.35,3.91-.59,4.29S375.92,345.43,373.16,345Z"/><path class="cls-1" d="M651.47,152.58c13.61-.14,23.58-12.4,18.09-24.2-4.88-10.5-12.79-24.3-28.68-17.32-12.47,5.47-27.48,16.32-26.56,27.86C615.11,148.83,637.32,152.72,651.47,152.58Z"/><path class="cls-35" d="M651.21,154.73l.22,0a2.42,2.42,0,0,0,.34,0c14-.73,25.64-13.07,19.79-27.18-5.27-12.73-15.6-24.5-30.45-18.9-11,4.16-32.45,17-28.73,31.77C615.78,153.92,640.67,154.71,651.21,154.73Zm-14-39.49c5.79-3,12.3-5.6,18.45-2,4.67,2.72,7.71,7.64,10.15,12.32,2.74,5.26,4.45,10.65,1.33,16.2-3.26,5.79-9.43,8.34-15.82,8.7-9.92,0-23.41-.59-31.51-6.9C607.63,134.06,629.81,119.1,637.18,115.23Z"/><circle class="cls-36" cx="652.13" cy="128.01" r="8.84" transform="translate(-10.88 173.64) rotate(-15.04)"/><path class="cls-26" d="M433.36,373.12c-19.54,2.74-22,29.45-13.56,40.76,13.56,18.11,42.12,9.31,45.49-7.18C469.08,388.13,459.48,369.45,433.36,373.12Z"/><path class="cls-27" d="M467.86,393.87c-2.58-17.67-18-24.86-34.5-22.91l-.23,0a2.4,2.4,0,0,0-.35,0c-15.08,2.7-21.52,18.27-19.33,32.31,2.4,15.39,16.73,24.84,31.93,22.3C461.51,422.95,470.17,409.71,467.86,393.87Zm-22.07,27.31c-12.69,2.67-25.45-4.53-27.93-17.57-2.3-12.13,2.78-25.89,15.9-28.36,14-1.52,27.35,3.62,29.77,18.92C465.62,407.32,459.18,418.36,445.79,421.18Z"/><path class="cls-5" d="M445.72,378.9a61.38,61.38,0,0,1,16.93-2.63c-6.75-5.09-22-3-22-3s-7.49-8.15-19.92-.6c8.89,0,14.25,3.16,14.25,3.16-13.37.73-20.7,7.67-22,13.54,7.81-6.46,20.78-8.57,20.78-8.57s-6.16,9.64-3.71,17.5c2.81-7.32,9.6-16.89,9.6-16.89s10.41,4.69,15.09,9C455.24,385,445.72,378.9,445.72,378.9Z"/><path class="cls-37" d="M306.5,100.4a136.31,136.31,0,0,0,.37,14.82,145.71,145.71,0,0,0-9-16.58c-1.51-2.34-5,.25-3.47,2.58a143.52,143.52,0,0,1,9.17,17c-3.5-4.71-8-8.6-12-12.88-1.89-2-5.39.56-3.47,2.58,4.93,5.19,10.88,9.85,14.29,16.27a2.37,2.37,0,0,0,4.14,0,2.3,2.3,0,0,0,3.66-.74,2,2,0,0,0,1.71-2.28,126.12,126.12,0,0,1-1.05-20.11C310.85,98.34,306.58,97.63,306.5,100.4Z"/><path class="cls-38" d="M324.86,119.81c-6.61-.18-10.43-.58-21.2,3.89s-19.07,20.07-11.48,34.69,33.39,8.76,38.61,6.55c1.09,3.11-4.2,7.15-3.75,11.45,0,0,3.78-3.31,6.32-5.11s4.42-4.51,4.14-9.31C355.93,141.09,336.94,120.13,324.86,119.81Z"/><path class="cls-39" d="M328.9,118.33c-11.61-3.37-28.08,1.32-35.6,10.72-8.43,10.53-9,29.42,3.45,37.25,8.58,5.38,21.44,4.89,31.35,1.85-1,2.56-3.08,5.19-3.21,7.89a2.24,2.24,0,0,0,.32,1.3,2,2,0,0,0,2.71,1.06,1.63,1.63,0,0,0,1-.79c4.1-3.44,8.34-5.95,10.3-11.15,2.7-7.17,7.7-13.61,8-21.7C347.77,133.54,339.89,121.53,328.9,118.33Zm13.9,28.39c-.83,5.81-4.24,9.12-7,13.89-1.68,2.91-1.12,6.34-3.75,8.93l-.25.22a9.08,9.08,0,0,0,1.12-5.06,2.18,2.18,0,0,0-2.95-1.77c-8.64,3.43-21.29,4.77-29.74.39C292,159,290,148.1,292.49,139.81c2.93-9.59,10.56-14.43,19.87-16.87,12.26-3.21,24.35.72,29.23,13.25A21,21,0,0,1,342.8,146.72Z"/><path class="cls-40" d="M407.7,105.33a30.11,30.11,0,1,0-30.14,49.57c14,4,28.63-3,35.22-15.77A30.55,30.55,0,0,0,407.7,105.33Z"/><circle class="cls-1" cx="385.75" cy="125.93" r="27.35" transform="translate(103.24 417.22) rotate(-63.96)"/><path class="cls-40" d="M389.29,120.75a1.66,1.66,0,0,0,2,2.29h0l13.78-4.73h0a2.61,2.61,0,0,0,1.42-3.7c-1.43-2.64-6.12-9.11-9.17-8.34a2.59,2.59,0,0,0-1.69,1.36v0l-6.39,13.09Z"/><path class="cls-40" d="M390.81,126.24a1.62,1.62,0,0,0,.92,1.59h0l13.09,6.4h0a2.61,2.61,0,0,0,3.62-1.61,23.72,23.72,0,0,0,.66-10.53,2.62,2.62,0,0,0-3.42-2.07l-13.78,4.73A1.62,1.62,0,0,0,390.81,126.24Z"/><path class="cls-40" d="M405.42,137.57a2.59,2.59,0,0,0-1.38-1.7L391,129.48a1.67,1.67,0,0,0-2.31,2h0l4.73,13.78h0a2.61,2.61,0,0,0,3.7,1.43,23.72,23.72,0,0,0,7.92-7A2.64,2.64,0,0,0,405.42,137.57Z"/><path class="cls-40" d="M386.92,132.11a1.62,1.62,0,0,0-.82-1,1.71,1.71,0,0,0-.65-.17,1.62,1.62,0,0,0-1.59.92v0l-6.4,13.1h0a2.61,2.61,0,0,0,1.61,3.62,23.73,23.73,0,0,0,10.53.66,2.64,2.64,0,0,0,1.84-1.25,2.59,2.59,0,0,0,.23-2.17Z"/><path class="cls-40" d="M382,129.3a1.62,1.62,0,0,0-1.78-.48h0l-13.78,4.73h0a2.61,2.61,0,0,0-1.43,3.7,23.41,23.41,0,0,0,7,7.92,2.65,2.65,0,0,0,2.19.42,2.59,2.59,0,0,0,1.7-1.38l6.4-13.1A1.62,1.62,0,0,0,382,129.3Z"/><path class="cls-40" d="M380.69,125.63a1.62,1.62,0,0,0-.92-1.59h0l-13.09-6.4h0a2.61,2.61,0,0,0-3.62,1.61,23.72,23.72,0,0,0-.66,10.53,2.64,2.64,0,0,0,1.25,1.84,2.6,2.6,0,0,0,2.17.23l13.78-4.73A1.62,1.62,0,0,0,380.69,125.63Z"/><path class="cls-40" d="M367.46,116l13.09,6.4a1.67,1.67,0,0,0,2.31-2h0l-4.73-13.78h0a2.61,2.61,0,0,0-3.7-1.42,23.71,23.71,0,0,0-7.92,7,2.64,2.64,0,0,0-.42,2.19A2.59,2.59,0,0,0,367.46,116Z"/><path class="cls-40" d="M384.58,119.75a1.67,1.67,0,0,0,3.07.18l6.4-13.09a2.6,2.6,0,0,0,0-2.2c-1.19-2.72-9.06-2.62-12.18-2.11a2.64,2.64,0,0,0-1.84,1.25,2.59,2.59,0,0,0-.23,2.17Z"/><path class="cls-41" d="M444.59,93.54c1.14-1.47.51-4.22-1.89-4.26a2.62,2.62,0,0,0-3.14-1.7l-.07,0-.14.05A2.32,2.32,0,0,0,439,86l-.12-.18a2.66,2.66,0,0,0-3.26-1.06,2.6,2.6,0,0,0-.07-.73l0-.07a2.63,2.63,0,0,0-3.18-1.81,2.56,2.56,0,0,0-1.69,1.54,2.76,2.76,0,0,0-4.57,1.9,2.34,2.34,0,0,0-2-1c-2.9,0-3.28,3.92-1.13,4.94a2.58,2.58,0,0,0-.46,0h-.14a2.59,2.59,0,0,0-.06,5.17l0,.13,0,.07c-2.69.41-2.75,4.54-.15,5.08a1.84,1.84,0,0,0-.48.63l-.13.29a2.67,2.67,0,0,0,.93,3.54,2.49,2.49,0,0,0,1,.31,2.68,2.68,0,0,0,2.74,2.76,2.72,2.72,0,0,0,1.59-.48,2.67,2.67,0,0,0,2.74,2.74,2.58,2.58,0,0,0,2.39-1.38,2.65,2.65,0,0,0,2.51.69l.2-.05a2.62,2.62,0,0,0,1.89-2.63,2.42,2.42,0,0,0,1.62.56c2.43,0,3.08-2.76,2-4.25a2.86,2.86,0,0,0,.5,0c2.49,0,3.12-2.88,1.89-4.34C446,98,446.38,94.69,444.59,93.54Z"/><path class="cls-42" d="M428.67,100.91l-.13-.13a2.59,2.59,0,1,0-3.66,3.66l.13.13a2.59,2.59,0,1,0,3.66-3.66Z"/><path class="cls-42" d="M440.69,88.86a2.63,2.63,0,0,0-2.59,2.59v.26a2.6,2.6,0,0,0,.52,1.51,2.25,2.25,0,0,0-1.15.78,2.5,2.5,0,0,0-4.24.29,2.77,2.77,0,0,0-.7-2.58,1.19,1.19,0,0,1,2.26.41c3.33,0,3.34-5.18,0-5.18a2.34,2.34,0,0,0-2.08,1.1,2.24,2.24,0,0,0-.84-.63c2.63-.66,2.41-5.09-.68-5.09-2.93,0-3.28,4-1.06,5-2,.5-2.34,3.16-1,4.42-1.44,1.39-.87,4.51,1.72,4.51A2.34,2.34,0,0,0,433,94.9a2.92,2.92,0,0,0,.2,1.89,2.48,2.48,0,0,0-1.63-.61h-.13a2.7,2.7,0,0,0-2.34,1.48,2.52,2.52,0,0,0-2.41-3.28c-3.33,0-3.34,5.18,0,5.18a2.34,2.34,0,0,0,2.2-1.32,2.18,2.18,0,0,0,0,.53,2.67,2.67,0,0,0,2.05,2.53,2.54,2.54,0,0,0-1.54,2.34,2.63,2.63,0,0,0,2.59,2.59h.38a2.62,2.62,0,0,0,2.59-2.59,2.82,2.82,0,0,0-.34-1.2,2.44,2.44,0,0,0,2,1,2.63,2.63,0,0,0,2.59-2.59v-.13a2.59,2.59,0,1,0-5.18,0v.13a2.54,2.54,0,0,0,.32,1.19,2.5,2.5,0,0,0-1.64-.92,2.53,2.53,0,0,0,1.49-2.32,2.83,2.83,0,0,0-.3-1.13,2.45,2.45,0,0,0,1.56.51,2.52,2.52,0,0,1,4,.13,2.61,2.61,0,0,0,2-4.13,2.57,2.57,0,0,0,1.83-2.44v-.26A2.62,2.62,0,0,0,440.69,88.86Z"/><path class="cls-42" d="M425.55,93.65a2.59,2.59,0,1,0,0-5.18h-.39a2.59,2.59,0,1,0,0,5.18Z"/><path class="cls-5" d="M328.85,228.89c12,.53,5.8-26.13.36-27.06S316.82,228.36,328.85,228.89Z"/><path class="cls-10" d="M324.83,242.44a31.87,31.87,0,0,0,3.53-11.39,8.38,8.38,0,0,0,7.54-3.39c3-3.89,2.49-9,1.78-13.52-.75-4.87-1.44-14.84-8.17-14.89s-9.3,8.89-10.11,14.18c-.91,6-.08,13.76,5.85,16.7a30.38,30.38,0,0,1-3.38,11C320.86,242.92,323.81,244.26,324.83,242.44ZM324,222.28c-1.26-3.37-.69-7.23.11-10.63.48-2,2.61-9.5,6-7.95,2.58,1.18,2.84,8.4,3.21,10.82.47,3,1.12,6.34-.27,9.21-1.05,2.17-2.64,3-4.23,2.81.32-3.42.55-6.87,1.15-10.27a1.62,1.62,0,0,0-3.2-.55c-.54,3.06-.76,6.18-1,9.28A7.45,7.45,0,0,1,324,222.28Z"/><path class="cls-43" d="M396.74,249.58a6.9,6.9,0,0,0-5,.76,4.54,4.54,0,0,0-1.84,2.46l0-1.26a5.26,5.26,0,0,0-5.86,3.82,6.56,6.56,0,0,0,1.34,6.07,8.09,8.09,0,0,0,5.41,2.52,10.76,10.76,0,0,0,9.21-4,8.16,8.16,0,0,0,1.78-4.16,5.62,5.62,0,0,0-1.29-4.27A6.6,6.6,0,0,0,396.74,249.58Z"/><path class="cls-44" d="M399.59,248.84c-3.24-1.68-7.41-1.19-9.71,1.07a7.35,7.35,0,0,0-6.8,11c3.1,6,11.57,5.69,16.27,1.94C403.71,259.35,405.39,251.86,399.59,248.84Zm-5.13,13c-2.77.93-6.62.59-8.34-2.15a4.08,4.08,0,0,1,2.1-6.35,7,7,0,0,0,0,1.87c.34,2.05,3.46,1.18,3.13-.86-.8-4.85,8.39-4,8.76.45C400.42,258.11,397.32,260.93,394.47,261.89Z"/><path class="cls-43" d="M450.29,267.82a12.49,12.49,0,0,0-4.68-.45,5.84,5.84,0,0,0-4,2.23,4.37,4.37,0,0,0-.54,2.83l-.21-.63c-3.74,3.74-2.43,8.31,0,9.5a12.82,12.82,0,0,0,7.92.81,11.48,11.48,0,0,0,6.48-3.23,6.47,6.47,0,0,0,1.4-6.81C455.54,269.66,452.84,268.46,450.29,267.82Z"/><path class="cls-44" d="M449,265.9c-4.32-.68-8.75,1.41-9.5,5-3.18,3.77-3.91,10,1.46,12.19,5.54,2.26,14.24.48,16.94-5.33C460.94,271.17,454.85,266.82,449,265.9Zm3.86,12.87a12.3,12.3,0,0,1-9.7,1.65,3.53,3.53,0,0,1-2.71-4.81l0,0a1.62,1.62,0,0,0,2.8-1.64c-3.11-5.34,4.75-5.35,7.88-4.26C455.49,271.27,457,275.83,452.84,278.77Z"/><path class="cls-43" d="M464.3,245.41c-.6-1.93-2.31-3.85-4.33-3.91a5.77,5.77,0,0,0-4.24,1.2,8,8,0,0,0-1.73,2.38l.42-1.47c-1.56-1.68-4.75-1.17-6.53.28s-1.86,4.38-1.11,6.55a7.47,7.47,0,0,0,4.85,4.5,10.65,10.65,0,0,0,6.74-.3,10.08,10.08,0,0,0,4.85-3.48A6.69,6.69,0,0,0,464.3,245.41Z"/><path class="cls-44" d="M457.15,256.66c5.63-1.21,11.35-7,8.17-13a6.87,6.87,0,0,0-10.81-1.87,6.73,6.73,0,0,0-9.78,6C444.71,254.4,451.16,257.95,457.15,256.66ZM449,251.13a5.22,5.22,0,0,1-1-4c.38-1.84,2.52-3.68,4.53-2.79-.79,1.84,1.93,3.42,2.83,1.56,1.51-3.13,6.06-4,7.33,0,1.18,3.61-2.37,6.47-5.34,7.4S450.91,253.82,449,251.13Z"/><path class="cls-43" d="M430.63,253.06l.43,3a5.92,5.92,0,0,0-11.44,3,8.62,8.62,0,0,0,3.69,4.78,12.26,12.26,0,0,0,7.55,2.31,8.8,8.8,0,0,0,6.81-3.7,6.9,6.9,0,0,0,.08-7.57A5.69,5.69,0,0,0,430.63,253.06Z"/><path class="cls-44" d="M429.81,251.66l-.16.09a7.14,7.14,0,0,0-9.93,1c-4.65,5.46.21,11.8,5.67,14,5.86,2.37,13.86.06,14.95-6.91A7.51,7.51,0,0,0,429.81,251.66Zm6.45,10c-1.94,2.87-5.85,3.4-8.93,2.42-2.92-.93-6.94-3.65-6.12-7.27,1-4.34,6.77-4.28,8.28-.31.73,1.93,3.87,1.09,3.13-.86a8.51,8.51,0,0,0-.66-1.33C436.21,252.94,438.43,258.42,436.26,261.64Z"/><path class="cls-43" d="M416.08,273.62a6.77,6.77,0,0,0-2.08-4.38,4.76,4.76,0,0,0-4.61-1.06,3.69,3.69,0,0,0-2.47,3.85c-1.35-.69-6.06.6-6.94,1.84-1.05,1.49-.56,4.74.41,6.28,2,3.25,6.32,3.66,9.94,2.42A8.82,8.82,0,0,0,416.08,273.62Z"/><path class="cls-44" d="M416.83,270.42c-2.38-4.86-9.84-5.31-11.27-.29-4-.28-8,2.66-7.75,6.87.46,6.45,6.88,9,12.53,7.27S419.51,275.92,416.83,270.42Zm-3.29,7.45a7.77,7.77,0,0,1-7.08,3.72c-3-.07-5.82-2.18-5.44-5.48.24-2.1,3.64-3.12,5.47-2.51a1.38,1.38,0,0,0,1.54-.37,1.46,1.46,0,0,0,.52-1.19q.15-3.32,3.84-2a4.66,4.66,0,0,1,2,3A6.76,6.76,0,0,1,413.54,277.87Z"/><path class="cls-5" d="M713.23,241.45c3,4.68,10.29,0,7.27-4.69S710.21,236.76,713.23,241.45Z"/><path class="cls-5" d="M709.52,222.18c-3-4.68-10.29,0-7.27,4.69S712.54,226.87,709.52,222.18Z"/><path class="cls-5" d="M678.4,228.1l-.12-.18a4.32,4.32,0,1,0-7.27,4.69l.12.18a4.32,4.32,0,1,0,7.27-4.69Z"/><path class="cls-5" d="M712.81,252.91l-.12-.18a4.32,4.32,0,1,0-7.27,4.69l.12.18a4.32,4.32,0,1,0,7.27-4.69Z"/><path class="cls-5" d="M665.64,210.22l-.12-.18a4.32,4.32,0,0,0-7.27,4.69l.12.18a4.32,4.32,0,0,0,7.27-4.69Z"/><path class="cls-5" d="M664.61,259.24c-3-4.68-10.29,0-7.27,4.69S667.63,263.93,664.61,259.24Z"/><path class="cls-5" d="M676.57,216.24c3,4.68,10.29,0,7.27-4.69S673.55,211.55,676.57,216.24Z"/><path class="cls-5" d="M671.07,248.21c3,4.68,10.29,0,7.27-4.69S668,243.52,671.07,248.21Z"/><path class="cls-5" d="M694.79,242a4.32,4.32,0,0,0,8.45,1.83l.13-.61a4.32,4.32,0,1,0-8.45-1.83Z"/><path class="cls-5" d="M662.9,228.82c-3-4.68-10.29,0-7.27,4.69S665.92,233.51,662.9,228.82Z"/><path class="cls-5" d="M675.13,195.06c-3-4.68-10.29,0-7.27,4.69S678.16,199.74,675.13,195.06Z"/><path class="cls-5" d="M661.21,192.46c-3-4.68-10.29,0-7.27,4.69S664.23,197.14,661.21,192.46Z"/><path class="cls-5" d="M660.26,244.87c-3-4.68-10.29,0-7.27,4.69S663.28,249.56,660.26,244.87Z"/><path class="cls-5" d="M735.4,245.82c-3-4.68-10.29,0-7.27,4.69S738.42,250.5,735.4,245.82Z"/><path class="cls-5" d="M720.77,209.9c-3-4.68-10.29,0-7.27,4.69S723.79,214.59,720.77,209.9Z"/><path class="cls-5" d="M692.55,196.74c-3-4.68-10.29,0-7.27,4.69S695.57,201.42,692.55,196.74Z"/><path class="cls-45" d="M791.29,234.8a2.19,2.19,0,0,0-2.05.85,2.17,2.17,0,0,0,1.22,4.08,2.85,2.85,0,0,0,2.64-2.46A2.2,2.2,0,0,0,791.29,234.8Z"/><path class="cls-45" d="M791.9,257.69a2.22,2.22,0,0,0,2.8,1.23l1.25-.38a2.17,2.17,0,0,0,1.23-2.8,2.22,2.22,0,0,0-2.8-1.23l-1.25.38A2.17,2.17,0,0,0,791.9,257.69Z"/><path class="cls-45" d="M800.68,252.92a2.2,2.2,0,0,0,2.38,1.93l.88-.11a2.16,2.16,0,0,0-.45-4.3l-.88.11A2.19,2.19,0,0,0,800.68,252.92Z"/><path class="cls-45" d="M809.65,233.42a2.21,2.21,0,0,0-.44,3,2.18,2.18,0,0,0,3,.44l.85-.71a2.21,2.21,0,0,0,.44-3,2.18,2.18,0,0,0-3-.44Z"/><path class="cls-45" d="M792.4,246.81a2.21,2.21,0,0,0,2.8,1.23l1-.31a2.18,2.18,0,0,0,1.23-2.8,2.21,2.21,0,0,0-2.8-1.23l-1,.31A2.18,2.18,0,0,0,792.4,246.81Z"/><path class="cls-45" d="M806.19,245.59a2.22,2.22,0,0,0,2.8,1.23l1.25-.38a2.17,2.17,0,0,0,1.23-2.8,2.22,2.22,0,0,0-2.8-1.23l-1.25.38A2.17,2.17,0,0,0,806.19,245.59Z"/><path class="cls-45" d="M796.68,229.21a2.19,2.19,0,0,0,2.38,1.93l1.57-.33a2.22,2.22,0,0,0,1.93-2.38,2.19,2.19,0,0,0-2.38-1.93l-1.57.33A2.22,2.22,0,0,0,796.68,229.21Z"/><path class="cls-45" d="M785.16,243.65a2.19,2.19,0,0,0-2.8-1.23l-.67.32a2.16,2.16,0,0,0,1.58,4l.67-.32A2.21,2.21,0,0,0,785.16,243.65Z"/><path class="cls-45" d="M774.17,256.3a2.21,2.21,0,0,0,2.8,1.23l2-.72a2.18,2.18,0,0,0,1.23-2.8,2.21,2.21,0,0,0-2.8-1.23l-2,.72A2.18,2.18,0,0,0,774.17,256.3Z"/><path class="cls-45" d="M788.62,259.41a2.22,2.22,0,0,0-2.8-1.23l-1.07.31a2.17,2.17,0,0,0-1.23,2.8,2.22,2.22,0,0,0,2.8,1.23l1.07-.31A2.17,2.17,0,0,0,788.62,259.41Z"/><path class="cls-45" d="M771.49,244.33c1,2.59,5,1,4-1.58S770.47,241.74,771.49,244.33Z"/><path class="cls-45" d="M807.58,224.95a2.2,2.2,0,0,0,2.38,1.93l1-.13a2.16,2.16,0,0,0-.45-4.3l-1,.13A2.19,2.19,0,0,0,807.58,224.95Z"/><path class="cls-45" d="M798.31,238.79l.25.3a2.21,2.21,0,0,0,3,.44,2.18,2.18,0,0,0,.44-3l-.25-.3a2.21,2.21,0,0,0-3-.44A2.18,2.18,0,0,0,798.31,238.79Z"/><path class="cls-45" d="M783.3,252.65c1,2.59,5,1,4-1.58S782.28,250.05,783.3,252.65Z"/><polygon class="cls-46" points="373.85 244.7 428.92 244.7 428.92 223.01 373.85 223.01 373.85 185.29 432.17 185.29 432.17 163.39 347.18 163.39 347.18 309.52 435.43 309.52 435.43 287.63 373.85 287.63 373.85 244.7"/><path class="cls-46" d="M501.34,163.39,454.51,309.52H482l12.58-41.41H540.8L554,309.52h28.84L535.38,163.39ZM499,247.95l11.28-36c2.38-8.67,4.77-18.86,6.94-27.32h.43c2.17,8.46,4.55,18.43,7.37,27.32l11.49,36Z"/><polygon class="cls-46" points="578.53 163.39 578.53 185.72 620.16 185.72 620.16 309.52 646.82 309.52 646.82 185.72 688.89 185.72 688.89 163.39 578.53 163.39"/><polygon class="cls-47" points="275.85 771.5 302.52 771.5 302.52 709.27 356.29 709.27 356.29 687.59 302.52 687.59 302.52 647.26 360.41 647.26 360.41 625.37 275.85 625.37 275.85 771.5"/><path class="cls-47" d="M413.1,625.36,366.26,771.5H393.8l12.58-41.41h46.18l13.23,41.41h28.84L447.14,625.36Zm-2.39,84.56,11.28-36c2.38-8.67,4.77-18.86,6.94-27.32h.43c2.17,8.46,4.55,18.43,7.37,27.32l11.49,36Z"/><path class="cls-47" d="M572.46,686.51c-19.51-7.59-28-12.79-28-24.07,0-8.67,7.16-17.56,24.07-17.56a63.7,63.7,0,0,1,29.27,6.94l6.29-21.46C596.52,626.45,585,623,569.2,623c-31.87,0-51.82,18-51.82,42.06,0,21,15.39,33.82,39.68,42.5,18.43,6.72,25.8,13.23,25.8,24.28,0,11.92-9.54,19.95-26.45,19.95a73.15,73.15,0,0,1-35.34-9.32L515,764.56c8,5,24.07,9.32,39.68,9.32,37.51,0,55.29-20.38,55.29-44C610,708.84,597.82,696,572.46,686.51Z"/><polygon class="cls-47" points="626.88 625.37 626.88 647.7 668.51 647.7 668.51 771.5 695.18 771.5 695.18 647.7 737.24 647.7 737.24 625.37 626.88 625.37"/></svg>