<svg xmlns="http://www.w3.org/2000/svg" viewBox="0 0 1000 1000"><defs><style>.cls-1{isolation:isolate;}.cls-2{fill:#ff857d;}.cls-3,.cls-33{fill:#d1d3d4;}.cls-102,.cls-17,.cls-3,.cls-48,.cls-49,.cls-51,.cls-56,.cls-6,.cls-68,.cls-69,.cls-7,.cls-71,.cls-73,.cls-76,.cls-77,.cls-84,.cls-90,.cls-96,.cls-98{mix-blend-mode:multiply;}.cls-4{fill:#bc6601;}.cls-5{fill:#a85b01;}.cls-6{fill:#d7d8d9;}.cls-7{fill:#c8c9c9;}.cls-8{fill:#db7701;}.cls-9{fill:#8a4b01;}.cls-10{fill:#703e01;}.cls-11{fill:#c26a01;}.cls-12{fill:#995301;}.cls-13{fill:#b36001;}.cls-14{fill:#cc6f01;}.cls-15{fill:#fff;}.cls-16{fill:#ffab4a;}.cls-18{fill:#ffdcb5;}.cls-19{fill:#ffb969;}.cls-20{fill:#f0a146;}.cls-21{fill:#52170c;}.cls-22{fill:#879100;}.cls-23{fill:#ffd44a;}.cls-24{fill:#ffc717;}.cls-25{fill:#6a7300;}.cls-26{fill:#db3e1f;}.cls-27{fill:#b33219;}.cls-28{fill:#cc3a1d;}.cls-29{fill:#6f7800;}.cls-30{fill:#575e00;}.cls-31{fill:#f1f2f2;}.cls-32,.cls-71{fill:#e6e7e8;}.cls-34{fill:#c7c7c7;}.cls-35{fill:#e69a43;}.cls-36{fill:#d6903f;}.cls-37{fill:#e6a45a;}.cls-38{fill:#e69a44;}.cls-39{fill:#e6e6e6;}.cls-40{fill:#8c8c8c;}.cls-100,.cls-40,.cls-41,.cls-54,.cls-55,.cls-70,.cls-99{mix-blend-mode:screen;}.cls-41{fill:#5e5e5e;}.cls-42,.cls-68{fill:#ededed;}.cls-43{fill:#ffa54a;}.cls-44{fill:#88ae4f;}.cls-45,.cls-51,.cls-54{fill:#b7c500;}.cls-46,.cls-69{fill:#d4ae95;}.cls-47{fill:#b49f9c;}.cls-48{fill:#d4d4d4;}.cls-49{fill:#f5f9f1;}.cls-50{fill:#99a600;}.cls-52{fill:#a3b000;}.cls-53{fill:#a8b500;}.cls-55{fill:#313600;}.cls-56{fill:#dedede;}.cls-57{fill:#bfcf00;}.cls-58{fill:#cdde00;}.cls-59{fill:#525900;}.cls-60{fill:#444a00;}.cls-61{fill:#5b6300;}.cls-62{fill:#737d00;}.cls-63{fill:#818c00;}.cls-64{fill:#98a600;}.cls-65{fill:#616900;}.cls-66{fill:#b2bf00;}.cls-67{fill:#9aa600;}.cls-70{fill:#404040;}.cls-72{fill:#ffb45e;}.cls-73{fill:#e8e8e8;}.cls-74{fill:#747d00;}.cls-75{fill:#ffc91c;}.cls-76{fill:#dbddde;}.cls-77{fill:#e0e2e3;}.cls-78{fill:#c0cf00;}.cls-79{fill:#b1bf00;}.cls-80{fill:#9fab00;}.cls-81{fill:#d7e800;}.cls-82{fill:#c5d400;}.cls-83{fill:#9eab00;}.cls-84{fill:#eff1f2;}.cls-85{fill:#3d8391;}.cls-86{fill:#479aaa;}.cls-87{fill:#4392a1;}.cls-88{fill:#5cb7c9;}.cls-89{fill:#56aaba;}.cls-90{fill:#bcbec0;}.cls-91{fill:#992c15;}.cls-92{fill:#702010;}.cls-93{fill:#96d7e3;}.cls-94{fill:#4faebf;}.cls-95{fill:#4393a1;}.cls-96{fill:#bababa;}.cls-97{fill:#e6ec99;}.cls-98{fill:#ebebeb;}.cls-99{fill:#737373;}.cls-100{fill:#333;}.cls-101{fill:#c4c983;}.cls-102{fill:#d6d6d6;}</style></defs><title>Image 32.A</title><g class="cls-1"><g id="Layer_1" data-name="Layer 1"><rect class="cls-2" width="1000" height="1000"/><path class="cls-3" d="M890.1,434.53c15.23.38,40.64-1.07,44.33-4.68s-22-6.14-31.64-6.38-9,4.24-9,4.24Z"/><path class="cls-4" d="M867.63,414.79s-1.71-7.53,0-13.57,14-11.41,20.3-11.86,14.73,3.19,18,8.67a24.47,24.47,0,0,1,3.51,10.49l-7.85,7.83-12.89,2.48H876.18l-7.53-.6Z"/><path class="cls-4" d="M873,413l-3,5.86s-.91,7.14,1.71,10.22S883,435,890.1,434.53s18.1-6.5,19.37-13.69-2.84-15.17-2.84-15.17l-20.56-3.42-6.47,5-6.5,5.13Z"/><path class="cls-5" d="M877.28,412.1s-1.75-5.55-.53-9,4.38-4.87,7.4-6.77,5.25-4.49,7.82-4.71c0,0-4.86,4.49-6.69,5.47s-6.64,3.27-7.47,6.23A26.24,26.24,0,0,0,877.28,412.1Z"/><path class="cls-5" d="M880.46,412.1s2.53-4.77,3.69-7.74a12.72,12.72,0,0,1,5.95-7c3.31-2,6-4.37,9.35-3.65a17.8,17.8,0,0,0-6.44,2.91c-3,2.22-4.85,2.45-5.93,4.62S880.46,412.1,880.46,412.1Z"/><path class="cls-5" d="M881.6,413.37c2.62-.57,6.22-4.51,7.93-6.62s3.76-5,6.16-6,6.16-2.57,7.36-2.28a9.35,9.35,0,0,1,2.74,1.48,6.48,6.48,0,0,0-4.28-.34,25.68,25.68,0,0,0-5.82,2.68,19.49,19.49,0,0,0-4.45,4.33A16.83,16.83,0,0,1,886.9,411,23.88,23.88,0,0,1,881.6,413.37Z"/><path class="cls-5" d="M882.79,414.41a14.77,14.77,0,0,0,8.9-2.07c4.28-2.68,4.11-3.48,7.24-5.08s5.36-3.42,7.67-3.93a56,56,0,0,1-5.39,4c-2.11,1.25-5.22,3.84-7.87,5.42C888,415.92,883.23,414.19,882.79,414.41Z"/><path class="cls-5" d="M874.93,412.8s-3-6-1.77-9.92,5-6.44,8-7.81a44.48,44.48,0,0,0,6.52-4,30.43,30.43,0,0,0-6.29,2.59c-2.91,1.67-8.15,3-9.87,6.86S873.56,411.94,874.93,412.8Z"/><path class="cls-5" d="M868.48,406.18a31.44,31.44,0,0,1-.08-6.69,6.93,6.93,0,0,0-.78,1.73,22.25,22.25,0,0,0-.75,5.47,14.1,14.1,0,0,0,7.14,7.72S869.23,411.48,868.48,406.18Z"/><path class="cls-5" d="M876.69,422.55a13.85,13.85,0,0,0,2,10.4A33.77,33.77,0,0,0,884,434.2,15.31,15.31,0,0,1,876.69,422.55Z"/><path class="cls-5" d="M895.16,433.47c-11.66-2.37-16.36-10.29-16.36-10.29,1.65,6.39,7.9,9.68,12.32,11.24A22.27,22.27,0,0,0,895.16,433.47Z"/><path class="cls-5" d="M900.33,431.18a27.63,27.63,0,0,0,3.38-2.22c-10.59,0-22.86-5.49-22.86-5.49C887.53,428.31,895.27,430.33,900.33,431.18Z"/><path class="cls-5" d="M871,428a5.52,5.52,0,0,0,.71,1.08,6.53,6.53,0,0,0,.69.69,18.5,18.5,0,0,1,2.45-7.19A12.39,12.39,0,0,0,871,428Z"/><path class="cls-5" d="M894,425.74c7.59.21,12.13-1.22,14.81-2.81a9.06,9.06,0,0,0,.66-2.1,16,16,0,0,0,.21-1.89C903.51,425.07,894,425.74,894,425.74Z"/><path class="cls-6" d="M878.3,418.83h10.43l11.58-2.23,3-1.89,6.21-6.19A24.47,24.47,0,0,0,906,398a15.46,15.46,0,0,0-4.27-4.45c5.69,11.79-4.12,20.12-13.51,21.84-9.13,1.67-19.19-3.78-21.26-9.55a36.72,36.72,0,0,0,.72,8.92l.22.72Z"/><path class="cls-7" d="M908.86,411.74l-10.1,6.67-16.52,1-8.74-.18L870,419a26.22,26.22,0,0,0-.13,2.85c2.22-.49,5.9-1.05,7.94,0,3.05,1.58,12.54,3.74,18.58,2.35,4.23-1,9.76-2.95,13.31-5.67A24.33,24.33,0,0,0,908.86,411.74Z"/><path class="cls-6" d="M909.47,420.84a20.6,20.6,0,0,0-.27-7.63l-7.58,3.14s2.77,11.29-6.92,14.83-19.64-.26-22.53-2.58c-.48-.38-.92-.72-1.33-1a5.88,5.88,0,0,0,.89,1.48c2.62,3.08,11.29,5.93,18.36,5.47S908.2,428,909.47,420.84Z"/><path class="cls-8" d="M908.61,404.08a7,7,0,0,1,4.25,4.6c.84,3.42-7.6,11.86-17,14.07s-15.28-1.29-18.7-1.75-10.49,1.15-12.55-2.58.85-7.29,2.44-7.68c0,0,.83,5.62,8.66,6s15.66.76,20.83-1.14S909,410,908.61,404.08Z"/><path class="cls-9" d="M877.12,414.51c-1.72.57-2.05,1.55-1.14,2.62,1.28,1.5,4.65.4,4.08-1.4C879.67,414.51,877.94,414.24,877.12,414.51Z"/><path class="cls-10" d="M877.65,415.08c-1.05,0-1.32,1.52-.54,1.65C878.59,417,879.26,415.12,877.65,415.08Z"/><path class="cls-3" d="M924.34,453.18s34.23,1.75,35.63-3-27.24-6.44-27.24-6.44l-9,4.21Z"/><path class="cls-3" d="M873.92,466.58s20.84.23,24.8-2.57-18-4.47-18-4.47Z"/><path class="cls-8" d="M853.2,458c.34,1.05,6.16,9.46,20.73,8.61s19.58-11.18,18.19-15.21-10.64-9-22.37-5.57S853,457.52,853.2,458Z"/><path class="cls-4" d="M873.92,466.58c14.56-.85,19.58-11.18,18.19-15.21a4.82,4.82,0,0,0-.53-1c-2.44,5.15-15,12.8-23.13,13.27-8.5.5-15.26-5.63-15.26-5.63C853.54,459,859.36,467.43,873.92,466.58Z"/><path class="cls-11" d="M855.95,457.6s3-3.71,5.34-4,6.46,2.19,8,2.68c0,0-.93-.22-3.41-.69s-4.57-.49-5.7,0S855.95,457.6,855.95,457.6Z"/><path class="cls-11" d="M869.3,454.75s1.59-2.45,2.32-3.38a5.57,5.57,0,0,1,3.15-2.52,17.47,17.47,0,0,1,6.53-.53,29,29,0,0,1,3.51.83,53.48,53.48,0,0,0-7.12.6,8.77,8.77,0,0,0-4.47,2.25A39.3,39.3,0,0,1,869.3,454.75Z"/><path class="cls-11" d="M866.32,452.43a7,7,0,0,1,1.62-2.42,20.73,20.73,0,0,1,3.55-1.81s-1.82,1.54-2.72,2.44A14.27,14.27,0,0,1,866.32,452.43Z"/><path class="cls-11" d="M860.25,457.92a42,42,0,0,1,5.63,1.47,4.94,4.94,0,0,0,4.47-.46c1-.56,2.05-1.16,2.05-1.16a3.11,3.11,0,0,1-1.76,2.35,24.27,24.27,0,0,1-3.31,1.19s-3-1.26-4.18-1.59A11.23,11.23,0,0,1,860.25,457.92Z"/><path class="cls-11" d="M874.47,453.36s2.36-2,4.3-2.11a6.14,6.14,0,0,1,4.32,1.79,13.71,13.71,0,0,0,2.21,1.57s-1.12-.43-3.11-1-2-1.13-3.33-.9S875.29,452.74,874.47,453.36Z"/><path class="cls-11" d="M873.75,457.6s1.34-2.6,2.52-2.85a18.7,18.7,0,0,1,4.56.45,14.37,14.37,0,0,0-3.54.39,8.39,8.39,0,0,0-2.4,1.33C874.74,457,873.75,457.6,873.75,457.6Z"/><path class="cls-11" d="M871.93,461.06a3.72,3.72,0,0,1,2.53-1.84c2.09-.65,4.6-1.57,5.24-1.86,0,0-1.17.7-2.66,1.49a17.46,17.46,0,0,1-3.11,1.34A21.3,21.3,0,0,0,871.93,461.06Z"/><path class="cls-11" d="M883,450.77a13.47,13.47,0,0,1,3.5-.17l2.78.5a4.93,4.93,0,0,1-2.91.85A6.77,6.77,0,0,1,883,450.77Z"/><path class="cls-11" d="M875.82,446.72a8.77,8.77,0,0,1,3.17-1,13.1,13.1,0,0,1,4.35,1.14,19.18,19.18,0,0,0-4.4-.3A25.3,25.3,0,0,1,875.82,446.72Z"/><path class="cls-11" d="M861.89,451.24a17.09,17.09,0,0,0,2.88-1.46c1.49-.94,3.08-1.79,3.08-1.79a16,16,0,0,1-3,2.81A8.81,8.81,0,0,1,861.89,451.24Z"/><path class="cls-12" d="M915.7,436.57,911,434.91s-3.37.87-3,5.84,4.77,13.52,17.3,12.33,24.46-13.52,25.95-16.4l-21-1.13-11.93-1.16Z"/><path class="cls-4" d="M951.29,436.67s-11.73-11-28.33-9.44-14.81,17.6-5.07,22.17S947.61,441.24,951.29,436.67Z"/><path class="cls-13" d="M951.29,436.67s-25.65,10.07-33.07,6c-4.81-2.66-5.58-7.6-5.53-10.75-4.52,5.54-1.61,14.31,5.2,17.51C927.63,454,947.61,441.24,951.29,436.67Z"/><path class="cls-14" d="M923,439.05c-3.94,0-4.07,1.63-2.21,2.16,2,.57,7.26,0,7-.87S924.55,439.05,923,439.05Z"/><polygon class="cls-15" points="383.74 141.48 399.24 141.48 399.24 110.62 425.05 110.62 425.05 96.63 399.24 96.63 399.24 80.67 427.17 80.67 427.17 66.58 383.74 66.58 383.74 141.48"/><rect class="cls-15" x="433.46" y="66.58" width="15.5" height="74.9"/><path class="cls-15" d="M497.37,101.12a18.4,18.4,0,0,0,7.45-14.7c0-6.2-2.41-11.28-7-14.69-4.87-3.91-11.28-5.66-20.77-5.66a89.15,89.15,0,0,0-16.78,1.49l-2.66.56v72.72l2.89.4a105.67,105.67,0,0,0,14.12.84c12.22,0,20.43-2.3,25.84-7.25l.07-.07a21.63,21.63,0,0,0,6.78-16.06A19.94,19.94,0,0,0,497.37,101.12Zm-19.58-5.7h-4.64V79.72c1.27-.11,2.75-.16,4.44-.16,11.62,0,11.62,5.65,11.62,7.78C489.21,92.32,484.83,95.42,477.79,95.42Zm-.61,33.09c-1.58,0-2.92,0-4-.08V108.8h3.93c5.32,0,14.26,1.27,14.26,9.8C491.33,126.79,483.64,128.5,477.18,128.5Z"/><polygon class="cls-15" points="527.99 109.5 554.5 109.5 554.5 95.52 527.99 95.52 527.99 80.67 556.01 80.67 556.01 66.58 512.48 66.58 512.48 141.48 557.53 141.48 557.53 127.39 527.99 127.39 527.99 109.5"/><path class="cls-15" d="M613.6,136.54c-1.25-2.31-3-9.47-4.95-17.88-1.29-5.66-3.51-10-6.61-12.83a20.72,20.72,0,0,0,9.53-17.89c0-6.27-2.3-11.75-6.48-15.45-4.91-4.44-11.69-6.42-22-6.42a94.93,94.93,0,0,0-17.57,1.48l-2.68.55v73.37h15.5V111.93h4.88c5.58.22,8.57,1.89,10.45,10.61v0c2.33,10.31,3.71,15.14,4.92,17.23l1,1.67h16.65ZM578.38,79.82a48.53,48.53,0,0,1,5.33-.27c12.35.14,12.35,7.11,12.35,9.4,0,5.92-4.61,9.6-12,9.6h-5.65Z"/><path class="cls-3" d="M168.34,182.41s22.65.21,22.5-5.43-11.25-6.54-11.25-6.54l-10,6.56-1.24,4.78Z"/><path class="cls-3" d="M218.32,173.32s22.65.21,22.5-5.43-11.25-6.54-11.25-6.54l-10,6.56-1.24,4.78Z"/><path class="cls-3" d="M253.08,173.32s22.65.21,22.5-5.43-11.25-6.54-11.25-6.54l-10,6.56-1.24,4.78Z"/><path class="cls-3" d="M221.92,150.45s22.65.21,22.5-5.43-11.25-6.54-11.25-6.54l-10,6.56-1.24,4.78Z"/><path class="cls-3" d="M190,160.25s22.65.21,22.5-5.43-11.25-6.54-11.25-6.54l-10,6.56L190,159.61Z"/><path class="cls-16" d="M172.36,154c.53-2.4,5.21-8.57,16-9.65s18.8,3.52,17.89,7.85-10.53,9.5-22.31,8.94S172.14,155,172.36,154Z"/><g class="cls-17"><path class="cls-18" d="M203.59,147.36c-.15,2.06-1.32,4.29-4.93,5.85-7.54,3.25-18.9,4.5-25.57-.9a5.74,5.74,0,0,0-.73,1.67c-.22,1-.23,6.59,11.55,7.14s21.4-4.61,22.31-8.94C206.57,150.49,205.56,148.78,203.59,147.36Z"/></g><path class="cls-15" d="M182.18,147.86c-2.06.3-5.52,3.52-3.4,4.4S190.08,146.71,182.18,147.86Z"/><path class="cls-19" d="M190.07,162.15c.53-2.4,5.21-8.57,16-9.65s18.8,3.52,17.89,7.85-10.53,9.5-22.31,8.94S189.85,163.16,190.07,162.15Z"/><g class="cls-17"><path class="cls-18" d="M221.3,155.53c-.15,2.06-1.32,4.29-4.93,5.85-7.54,3.25-18.9,4.5-25.57-.9a5.74,5.74,0,0,0-.73,1.67c-.22,1-.23,6.59,11.55,7.14s21.4-4.61,22.31-8.94C224.29,158.66,223.28,156.95,221.3,155.53Z"/></g><path class="cls-15" d="M199.9,156c-2.06.3-5.52,3.52-3.4,4.4S207.8,154.88,199.9,156Z"/><path class="cls-20" d="M208.95,143.27c.53-2.4,5.21-8.57,16-9.65s18.8,3.52,17.89,7.85-10.53,9.5-22.31,8.95S208.73,144.28,208.95,143.27Z"/><g class="cls-17"><path class="cls-18" d="M240.18,136.66c-.15,2.06-1.32,4.29-4.93,5.85-7.54,3.25-18.9,4.5-25.57-.9a5.74,5.74,0,0,0-.73,1.67c-.22,1-.23,6.59,11.55,7.14s21.4-4.61,22.31-8.95C243.16,139.79,242.15,138.07,240.18,136.66Z"/></g><path class="cls-15" d="M218.77,137.16c-2.06.3-5.52,3.52-3.4,4.4S226.67,136,218.77,137.16Z"/><path class="cls-16" d="M205,166.14c.53-2.4,5.21-8.57,16-9.65s18.8,3.52,17.89,7.85-10.53,9.5-22.31,8.94S204.76,167.15,205,166.14Z"/><g class="cls-17"><path class="cls-18" d="M236.21,159.53c-.15,2.06-1.32,4.29-4.93,5.85-7.54,3.25-18.9,4.5-25.57-.9a5.74,5.74,0,0,0-.73,1.67c-.22,1-.23,6.59,11.55,7.14s21.4-4.61,22.31-8.94C239.2,162.66,238.19,160.94,236.21,159.53Z"/></g><path class="cls-15" d="M214.81,160c-2.06.3-5.52,3.52-3.4,4.4S222.71,158.88,214.81,160Z"/><path class="cls-19" d="M238.64,166.14c.53-2.4,5.21-8.57,16-9.65s18.8,3.52,17.89,7.85-10.53,9.5-22.31,8.94S238.42,167.15,238.64,166.14Z"/><g class="cls-17"><path class="cls-18" d="M269.87,159.53c-.15,2.06-1.32,4.29-4.93,5.85-7.54,3.25-18.9,4.5-25.57-.9a5.74,5.74,0,0,0-.73,1.67c-.22,1-.23,6.59,11.55,7.14s21.4-4.61,22.31-8.94C272.85,162.66,271.84,160.94,269.87,159.53Z"/></g><path class="cls-15" d="M248.46,160c-2.06.3-5.52,3.52-3.4,4.4S256.36,158.88,248.46,160Z"/><path class="cls-20" d="M151.4,175.41c.53-2.4,5.21-8.57,16-9.65s18.8,3.52,17.89,7.85-10.53,9.5-22.31,8.94S151.18,176.42,151.4,175.41Z"/><g class="cls-17"><path class="cls-18" d="M182.63,168.8c-.15,2.06-1.32,4.29-4.93,5.85-7.54,3.25-18.9,4.5-25.57-.9a5.75,5.75,0,0,0-.73,1.67c-.22,1-.23,6.59,11.55,7.14s21.4-4.61,22.31-8.94C185.62,171.93,184.61,170.21,182.63,168.8Z"/></g><path class="cls-15" d="M161.23,169.3c-2.06.3-5.52,3.52-3.4,4.4S169.13,168.15,161.23,169.3Z"/><path class="cls-3" d="M569.26,337.92s-42.5-8-76,15.67l-4.12-.12c-3.36-3.39-11.78-6.36-22-8-51-8.2-113,2-113,2l-11.37,8.8-15.17,12.28c1.78-.15,44.39,6.72,109.21,2.08,36.1-2.58,51-7.55,53.49-12.49l31.16,2.78,1.29-6.5L509,354C526.51,352.36,553.33,347.92,569.26,337.92Z"/><path class="cls-21" d="M329.29,159.88l13.51-3.31s-13.51,42.32-4.84,77.77C338,234.33,323.43,190.22,329.29,159.88Z"/><path class="cls-22" d="M340.7,203S336.4,175.45,355,152.5s37.29-18.07,37.29-18.07,8,26.1-5.45,46.76S340.7,203,340.7,203Z"/><path class="cls-23" d="M333.54,210.78c-4.41.31-19.21,5.27-22.1,20.23s-7.82,26-19,42.49-24.48,53,.68,79.21c24.17,25.15,74.45,18.7,90.09-1s13.94-43.17,9.52-59.15-20.91-32.3-25.84-45S360.23,208.92,333.54,210.78Z"/><path class="cls-24" d="M392.7,292.54c-4.42-16-20.91-32.3-25.84-45-4.47-11.57-6.35-33.84-26.58-36.48,2.1.65,8.14,4.13,12.49,22.8,5.34,22.95-1.54,26,3.56,39.27s21.67,10.71,25.5,31.62c3.5,19.14,2,52.13-29.56,63,13.2-2.53,24.76-8.19,30.92-16C398.82,332,397.12,308.52,392.7,292.54Z"/><path class="cls-15" d="M324.36,221s-10.54,6.29-7.14,23.12C317.23,244.1,320.55,229.82,324.36,221Z"/><path class="cls-15" d="M300.48,329.65c-5.51-15.09-7.22-35.15,4.59-58.48,0,0-18.36,17.47-18.36,41.94a51.3,51.3,0,0,0,5,22.77Z"/><path class="cls-15" d="M303.67,337.11l-9.24,3.62c6,9.08,15,15.41,25.69,18.78A77.36,77.36,0,0,1,303.67,337.11Z"/><path class="cls-25" d="M386.89,181.19c13.48-20.65,5.45-46.76,5.45-46.76C366.41,179.69,340.7,203,340.7,203S373.41,201.84,386.89,181.19Z"/><path class="cls-3" d="M426.57,423.73c-56.32-1.3-81.15,29.8-81.15,29.8h0c.89-6.22-12.74-12.19-30.5-15-66.2-10.65-146.68,2.6-146.68,2.6L153.48,452.5l-19.69,15.94c2.31-.19,57.61,8.72,141.75,2.7,42.92-3.07,62.77-8.74,68.27-14.59l49.41,5.16,1.9-9.43-49.7,1.25C412.7,448.62,426.57,423.73,426.57,423.73Z"/><path class="cls-26" d="M151.44,309.59c-13.67,4.88-45.45-2.21-67.51,20.74s-7.5,67.51,4.41,97.07,31.77,41.48,45.45,41,26.47-13.24,37.51-9.71,27.8,11.47,47.65-2.65,41-61.33,42.36-100.16-30.47-64.64-55.6-67.07C178.36,286.21,163.8,305.18,151.44,309.59Z"/><path class="cls-27" d="M120.45,331.1c0,5.63,28.13,11.25,39.38,8.27s31.11-28.13,25.81-32.43-32.16,18.2-32.16,18.2S120.44,322.5,120.45,331.1Z"/><path class="cls-28" d="M261.31,355.92c1.32-38.83-30.47-64.64-55.6-67.07a52,52,0,0,0-7-.17c12.67,1.46,41.8,20.16,40.16,62.93-1.65,43.35-23.83,84.06-40.7,84.06s-26.14-9.6-33.76-5-21.84,26.81-41.37,25.81c-10.4-.53-21.9-10.54-30.41-19.78,12,22.73,29,32.09,41.11,31.7,13.68-.44,26.47-13.24,37.51-9.71s27.8,11.47,47.65-2.65S260,394.75,261.31,355.92Z"/><path class="cls-15" d="M88.65,389.08l13.17-5.55c-3.47-15.12-4.79-31-.9-44.82,0,0-17.21,7.26-14.34,39.81A56,56,0,0,0,88.65,389.08Z"/><path class="cls-15" d="M105,395.41l-12.86,3.17c10.64,23.84,32.38,42.5,32.38,42.5A244.32,244.32,0,0,1,105,395.41Z"/><path class="cls-29" d="M162.45,286.69s-5.58-35.74,18.62-65.53,48.4-23.46,48.4-23.46,10.42,33.88-7.07,60.69S162.45,286.69,162.45,286.69Z"/><path class="cls-21" d="M153,278.77l-13.06,5.86c.67,23.7,15.28,55.45,15.28,55.45a22.76,22.76,0,0,0,6-1.15C155.58,323,153,278.77,153,278.77Z"/><path class="cls-30" d="M222.39,258.39c17.5-26.81,7.07-60.69,7.07-60.69-36.34,70.56-67,89-67,89S204.89,285.2,222.39,258.39Z"/><path class="cls-3" d="M479.47,312.61s40.43,4.41,75.19-3.4-65-10.73-65-10.73Z"/><path class="cls-3" d="M555.47,280.47s56.91.53,72.5-5.54-56.33-8.68-56.33-8.68l-13.16,11.41Z"/><path class="cls-3" d="M455.39,268.31s52.54,2.73,57.87-4.38-44.37-7.56-44.37-7.56Z"/><path class="cls-31" d="M431.78,202.48c7.71-1.66,8.05,3.17,13.14,16.55s13.18,18.53,21.63,14.07c7.58-4,15.38-12.21,21-.75,5.79,11.78-.8,24.69-17.11,32.42s-41.74,4.43-51.4-26.32C410.87,212.38,429.9,202.89,431.78,202.48Z"/><path class="cls-32" d="M487.57,232.36c-1.88-3.81-4-5.42-6.26-5.76,5.72,15.87-4.22,25.18-12.42,29.77-9.46,5.29-31.84,3-43.25-15.46-5.59-9-7.4-16.4-7.81-21.56-1.22,5-1.22,11.32,1.23,19.1,9.65,30.76,35.09,34.05,51.4,26.32S493.36,244.14,487.57,232.36Z"/><path class="cls-33" d="M465.41,233.63c-7.91,3.39-15.4-1.67-20.26-14a6.54,6.54,0,0,0-5.63,1.25c-5.09,3.79-4.14,13.28,6.18,20.11C454.22,246.6,467.58,242.84,465.41,233.63Z"/><path class="cls-33" d="M465.41,233.63c-7.91,3.39-15.4-1.67-20.26-14a6.54,6.54,0,0,0-5.63,1.25c-5.09,3.79-4.14,13.28,6.18,20.11C454.22,246.6,467.58,242.84,465.41,233.63Z"/><path class="cls-15" d="M462.3,256.56a23,23,0,0,0,5.77-2.09s-2.42.07-5.89-.1Z"/><path class="cls-15" d="M460,254.25c-6.1-.42-14.2-1.58-18.79-4.69,0,0,7.53,8.23,18.38,7.38Z"/><path class="cls-34" d="M459.63,234.6c-5-.49-9.66-4.62-13.19-12-2.53.44-5.36,1.79-5,5.69C442.12,234.47,454.42,239.49,459.63,234.6Z"/><path class="cls-33" d="M484.85,228.41c9.44,16.5-22.22,54.33-46,33-25.63-23-21-42-21-42h0c-1.22,5-1.2,11.32,1.24,19.1,9.65,30.76,35.09,34.05,51.4,26.32s22.91-20.64,17.11-32.42A14,14,0,0,0,484.85,228.41Z"/><path class="cls-31" d="M516,245c3.39-7.12,7.43-4.44,21.13-.31s22.73.87,24.35-8.55c1.45-8.45-.29-19.64,12.23-17.11,12.87,2.6,19.07,15.7,15.24,33.34S567,288.16,536.74,277C511.09,267.62,515.18,246.75,516,245Z"/><path class="cls-32" d="M573.71,219c-4.17-.84-6.73-.14-8.38,1.45,16.06,5.15,17.38,18.71,16,28-1.58,10.72-17.05,27.06-38.64,24.83-10.57-1.09-17.51-4.14-21.84-7,3.24,4,8.23,7.87,15.88,10.68,30.26,11.12,48.39-7,52.22-24.66S586.58,221.64,573.71,219Z"/><path class="cls-33" d="M561.2,237.38c-2.15,8.33-10.72,11.18-23.47,7.49a6.54,6.54,0,0,0-2.44,5.22c-.11,6.35,8,11.38,19.71,7.37C564.66,254.15,569.83,241.28,561.2,237.38Z"/><path class="cls-33" d="M561.2,237.38c-2.15,8.33-10.72,11.18-23.47,7.49a6.54,6.54,0,0,0-2.44,5.22c-.11,6.35,8,11.38,19.71,7.37C564.66,254.15,569.83,241.28,561.2,237.38Z"/><path class="cls-15" d="M577.47,253.83a23,23,0,0,0,1.87-5.84s-1.42,2-3.67,4.6Z"/><path class="cls-15" d="M574.26,254.22c-4.06,4.58-9.91,10.28-15.18,12,0,0,11.11-1,17.06-10.06Z"/><path class="cls-34" d="M558.44,242.55c-3.47,3.7-9.55,4.83-17.57,3.11-1.19,2.27-1.85,5.34,1.48,7.4C547.66,256.34,559.13,249.66,558.44,242.55Z"/><path class="cls-33" d="M568.93,218.79c18.83,2.59,29.48,50.76-2,56.6-33.84,6.29-46.1-9-46.1-9h0c3.24,4,8.24,7.86,15.89,10.67,30.26,11.12,48.39-7,52.22-24.66s-2.37-30.74-15.24-33.34A14,14,0,0,0,568.93,218.79Z"/><path class="cls-31" d="M520.29,277.25c-3.39-7.12-7.43-4.44-21.13-.31s-22.73.87-24.35-8.55c-1.45-8.45.29-19.64-12.23-17.11-12.87,2.6-19.07,15.7-15.24,33.34s22,35.78,52.22,24.66C525.21,299.85,521.12,279,520.29,277.25Z"/><path class="cls-32" d="M462.58,251.28c4.17-.84,6.73-.14,8.38,1.45-16.06,5.15-17.38,18.71-16,28,1.58,10.72,17.05,27.06,38.64,24.83,10.57-1.09,17.51-4.14,21.84-7-3.24,4-8.23,7.87-15.88,10.68-30.26,11.12-48.39-7-52.22-24.66S449.71,253.88,462.58,251.28Z"/><path class="cls-33" d="M475.1,269.61c2.15,8.33,10.72,11.18,23.47,7.49a6.54,6.54,0,0,1,2.44,5.22c.11,6.35-8,11.38-19.71,7.37C471.64,286.38,466.47,273.51,475.1,269.61Z"/><path class="cls-33" d="M475.1,269.61c2.15,8.33,10.72,11.18,23.47,7.49a6.54,6.54,0,0,1,2.44,5.22c.11,6.35-8,11.38-19.71,7.37C471.64,286.38,466.47,273.51,475.1,269.61Z"/><path class="cls-15" d="M458.83,286.06a23,23,0,0,1-1.87-5.84s1.42,2,3.67,4.6Z"/><path class="cls-15" d="M462,286.45c4.06,4.58,9.91,10.28,15.18,12,0,0-11.11-1-17.06-10.06Z"/><path class="cls-34" d="M477.85,274.78c3.47,3.7,9.55,4.83,17.57,3.11,1.19,2.27,1.85,5.34-1.48,7.4C488.64,288.57,477.16,281.89,477.85,274.78Z"/><path class="cls-33" d="M467.37,251c-18.83,2.59-29.48,50.76,2,56.6,33.84,6.29,46.1-9,46.1-9h0c-3.24,4-8.24,7.86-15.89,10.67-30.26,11.12-48.39-7-52.22-24.66s2.37-30.74,15.24-33.34A14,14,0,0,1,467.37,251Z"/><path class="cls-35" d="M815.58,329.44c-5.23-.69-10.37,1.72-10.4,3.56s5.52,1.45,7.94,1.23,8.89.71,9.4-.89S819.29,329.93,815.58,329.44Z"/><path class="cls-36" d="M822.52,333.35c.21-.65-.3-1.34-1.21-2-1.54,1.67-5.63,2.16-9.91,2.2-3.56,0-4.57-1.32-4.69-2.47-.95.6-1.53,1.27-1.53,1.88,0,1.84,5.52,1.45,7.94,1.23S822,334.95,822.52,333.35Z"/><path class="cls-15" d="M811.14,330.49c-.65-.06-3,.43-3,1.19S813.35,330.7,811.14,330.49Z"/><path class="cls-3" d="M835.18,342.89s8.88,0,8.92-1c.06-1.37-9-1.75-9-1.75l.11,1.74Z"/><path class="cls-3" d="M816.43,340.31s8.88,0,8.92-1c.06-1.37-9-1.75-9-1.75l.11,1.74Z"/><path class="cls-3" d="M823.83,336s8.88,0,8.92-1c.06-1.37-9-1.75-9-1.75l.11,1.74Z"/><path class="cls-3" d="M796.95,336.28s8.88,0,8.92-1c.06-1.37-9-1.75-9-1.75l.11,1.74Z"/><path class="cls-3" d="M844.83,336.53s8.88,0,8.92-1c.06-1.37-9-1.75-9-1.75l.11,1.74Z"/><path class="cls-3" d="M854.18,334.72s8.88,0,8.92-1c.06-1.37-9-1.75-9-1.75l.11,1.74Z"/><path class="cls-3" d="M834.43,330.32s8.88,0,8.92-1c.06-1.37-9-1.75-9-1.75l.11,1.74Z"/><path class="cls-35" d="M851.79,329.85c-5.23-.69-10.37,1.72-10.4,3.56s5.52,1.45,7.94,1.23,8.89.71,9.4-.89S855.5,330.34,851.79,329.85Z"/><path class="cls-36" d="M858.73,333.75c.21-.65-.3-1.34-1.21-2-1.54,1.67-5.63,2.16-9.91,2.2-3.56,0-4.57-1.32-4.69-2.47-.95.6-1.53,1.27-1.53,1.88,0,1.84,5.52,1.45,7.94,1.23S858.23,335.35,858.73,333.75Z"/><path class="cls-15" d="M847.35,330.89c-.65-.06-3,.43-3,1.19S849.56,331.1,847.35,330.89Z"/><path class="cls-35" d="M814.07,335.44c-5.23-.69-10.37,1.72-10.4,3.56s5.52,1.45,7.94,1.23,8.89.71,9.4-.89S817.78,335.93,814.07,335.44Z"/><path class="cls-36" d="M821,339.34c.21-.65-.3-1.34-1.21-2-1.54,1.67-5.63,2.16-9.91,2.2-3.56,0-4.57-1.32-4.69-2.47-.95.6-1.53,1.27-1.53,1.88,0,1.84,5.52,1.45,7.94,1.23S820.51,340.94,821,339.34Z"/><path class="cls-15" d="M809.63,336.48c-.65-.06-3,.43-3,1.19S811.84,336.69,809.63,336.48Z"/><path class="cls-35" d="M794.68,331.41c-5.23-.69-10.37,1.72-10.4,3.56s5.52,1.45,7.94,1.23,8.89.71,9.4-.89S798.39,331.9,794.68,331.41Z"/><path class="cls-36" d="M801.62,335.32c.21-.65-.3-1.34-1.21-2-1.54,1.67-5.63,2.16-9.91,2.2-3.56,0-4.57-1.32-4.69-2.47-.95.6-1.53,1.27-1.53,1.88,0,1.84,5.52,1.45,7.94,1.23S801.11,336.92,801.62,335.32Z"/><path class="cls-15" d="M790.24,332.46c-.65-.06-3,.43-3,1.19S792.45,332.67,790.24,332.46Z"/><path class="cls-37" d="M821.92,331.13c-5.23-.69-10.37,1.72-10.4,3.56s5.52,1.45,7.94,1.23,8.89.71,9.4-.89S825.64,331.62,821.92,331.13Z"/><path class="cls-38" d="M828.86,335c.21-.65-.3-1.34-1.21-2-1.54,1.67-5.63,2.16-9.91,2.2-3.56,0-4.57-1.32-4.69-2.47-.95.6-1.53,1.27-1.53,1.88,0,1.84,5.52,1.45,7.94,1.23S828.36,336.63,828.86,335Z"/><path class="cls-15" d="M817.49,332.17c-.65-.06-3,.43-3,1.19S819.69,332.38,817.49,332.17Z"/><path class="cls-37" d="M832.19,325.46c-5.23-.69-10.37,1.72-10.4,3.56s5.52,1.45,7.94,1.23,8.89.71,9.4-.89S835.9,325.95,832.19,325.46Z"/><path class="cls-38" d="M839.13,329.36c.21-.65-.3-1.34-1.21-2-1.54,1.67-5.63,2.16-9.91,2.2-3.56,0-4.57-1.32-4.69-2.47-.95.6-1.53,1.27-1.53,1.88,0,1.84,5.52,1.45,7.94,1.23S838.63,331,839.13,329.36Z"/><path class="cls-15" d="M827.75,326.5c-.65-.06-3,.43-3,1.19S830,326.71,827.75,326.5Z"/><path class="cls-37" d="M842,331.64c-5.23-.69-10.37,1.72-10.4,3.56s5.52,1.45,7.94,1.23,8.89.71,9.4-.89S845.75,332.13,842,331.64Z"/><path class="cls-38" d="M849,335.55c.21-.65-.3-1.34-1.21-2-1.54,1.67-5.63,2.16-9.91,2.2-3.56,0-4.57-1.32-4.69-2.47-.95.6-1.53,1.27-1.53,1.88,0,1.84,5.52,1.45,7.94,1.23S848.47,337.15,849,335.55Z"/><path class="cls-15" d="M837.6,332.69c-.65-.06-3,.43-3,1.19S839.81,332.9,837.6,332.69Z"/><path class="cls-37" d="M833.07,338c-5.23-.69-10.37,1.72-10.4,3.56s5.52,1.45,7.94,1.23,8.89.71,9.4-.89S836.78,338.52,833.07,338Z"/><path class="cls-38" d="M840,341.94c.21-.65-.3-1.34-1.21-2-1.54,1.67-5.63,2.16-9.91,2.2-3.56,0-4.57-1.32-4.69-2.47-.95.6-1.53,1.27-1.53,1.88,0,1.84,5.52,1.45,7.94,1.23S839.51,343.54,840,341.94Z"/><path class="cls-15" d="M828.63,339.08c-.65-.06-3,.43-3,1.19S830.84,339.29,828.63,339.08Z"/><path class="cls-35" d="M862.44,339.87c-5.23-.69-10.37,1.72-10.4,3.56s5.52,1.45,7.94,1.23,8.89.71,9.4-.89S866.16,340.36,862.44,339.87Z"/><path class="cls-36" d="M869.38,343.77c.21-.65-.3-1.34-1.21-2-1.54,1.67-5.63,2.16-9.91,2.2-3.56,0-4.57-1.32-4.69-2.47-.95.6-1.53,1.27-1.53,1.88,0,1.84,5.52,1.45,7.94,1.23S868.88,345.37,869.38,343.77Z"/><path class="cls-15" d="M858,340.91c-.65-.06-3,.43-3,1.19S860.21,341.12,858,340.91Z"/><path class="cls-3" d="M878.34,356.71s8.88,0,8.92-1c.06-1.37-9-1.75-9-1.75l.11,1.74Z"/><path class="cls-3" d="M849.82,355.2s8.88,0,8.92-1c.06-1.37-9-1.75-9-1.75l.11,1.74Z"/><path class="cls-3" d="M870.69,346.46s8.88,0,8.92-1c.06-1.37-9-1.75-9-1.75l.11,1.74Z"/><path class="cls-3" d="M808.55,351s8.88,0,8.92-1c.06-1.37-9-1.75-9-1.75l.11,1.74Z"/><path class="cls-3" d="M867,363.59s8.88,0,8.92-1c.06-1.37-9-1.75-9-1.75l.11,1.74Z"/><path class="cls-3" d="M891,340s8.88,0,8.92-1c.06-1.37-9-1.75-9-1.75l.11,1.74Z"/><path class="cls-3" d="M872.44,326s8.88,0,8.92-1c.06-1.37-9-1.75-9-1.75l.11,1.74Z"/><path class="cls-35" d="M888.62,335.08c-5.23-.69-10.37,1.72-10.4,3.56s5.52,1.45,7.94,1.23,8.89.71,9.4-.89S892.34,335.57,888.62,335.08Z"/><path class="cls-36" d="M895.56,339c.21-.65-.3-1.34-1.21-2-1.54,1.67-5.63,2.16-9.91,2.2-3.56,0-4.57-1.32-4.69-2.47-.95.6-1.53,1.27-1.53,1.88,0,1.84,5.52,1.45,7.94,1.23S895.06,340.59,895.56,339Z"/><path class="cls-15" d="M884.19,336.13c-.65-.06-3,.43-3,1.19S886.39,336.34,884.19,336.13Z"/><path class="cls-35" d="M847.46,350.33c-5.23-.69-10.37,1.72-10.4,3.56s5.52,1.45,7.94,1.23,8.89.71,9.4-.89S851.18,350.82,847.46,350.33Z"/><path class="cls-36" d="M854.4,354.24c.21-.65-.3-1.34-1.21-2-1.54,1.67-5.63,2.16-9.91,2.2-3.56,0-4.57-1.32-4.69-2.47-.95.6-1.53,1.27-1.53,1.88,0,1.84,5.52,1.45,7.94,1.23S853.9,355.84,854.4,354.24Z"/><path class="cls-15" d="M843,351.38c-.65-.06-3,.43-3,1.19S845.23,351.58,843,351.38Z"/><path class="cls-35" d="M806.27,346.17c-5.23-.69-10.37,1.72-10.4,3.56s5.52,1.45,7.94,1.23,8.89.71,9.4-.89S810,346.66,806.27,346.17Z"/><path class="cls-36" d="M813.21,350.08c.21-.65-.3-1.34-1.21-2-1.54,1.67-5.63,2.16-9.91,2.2-3.56,0-4.57-1.32-4.69-2.47-.95.6-1.53,1.27-1.53,1.88,0,1.84,5.52,1.45,7.94,1.23S812.71,351.67,813.21,350.08Z"/><path class="cls-15" d="M801.84,347.21c-.65-.06-3,.43-3,1.19S804,347.42,801.84,347.21Z"/><path class="cls-37" d="M868.78,341.55c-5.23-.69-10.37,1.72-10.4,3.56s5.52,1.45,7.94,1.23,8.89.71,9.4-.89S872.5,342,868.78,341.55Z"/><path class="cls-38" d="M875.72,345.46c.21-.65-.3-1.34-1.21-2-1.54,1.67-5.63,2.16-9.91,2.2-3.56,0-4.57-1.32-4.69-2.47-.95.6-1.53,1.27-1.53,1.88,0,1.84,5.52,1.45,7.94,1.23S875.22,347.06,875.72,345.46Z"/><path class="cls-15" d="M864.35,342.6c-.65-.06-3,.43-3,1.19S866.55,342.81,864.35,342.6Z"/><path class="cls-37" d="M870.2,321.15c-5.23-.69-10.37,1.72-10.4,3.56s5.52,1.45,7.94,1.23,8.89.71,9.4-.89S873.92,321.64,870.2,321.15Z"/><path class="cls-38" d="M877.14,325.06c.21-.65-.3-1.34-1.21-2-1.54,1.67-5.63,2.16-9.91,2.2-3.56,0-4.57-1.32-4.69-2.47-.95.6-1.53,1.27-1.53,1.88,0,1.84,5.52,1.45,7.94,1.23S876.64,326.66,877.14,325.06Z"/><path class="cls-15" d="M865.77,322.2c-.65-.06-3,.43-3,1.19S868,322.41,865.77,322.2Z"/><path class="cls-37" d="M864.24,358.7c-5.23-.69-10.37,1.72-10.4,3.56s5.52,1.45,7.94,1.23,8.89.71,9.4-.89S868,359.19,864.24,358.7Z"/><path class="cls-38" d="M871.18,362.61c.21-.65-.3-1.34-1.21-2-1.54,1.67-5.63,2.16-9.91,2.2-3.56,0-4.57-1.32-4.69-2.47-.95.6-1.53,1.27-1.53,1.88,0,1.84,5.52,1.45,7.94,1.23S870.67,364.21,871.18,362.61Z"/><path class="cls-15" d="M859.8,359.75c-.65-.06-3,.43-3,1.19S862,360,859.8,359.75Z"/><path class="cls-37" d="M876.23,351.85c-5.23-.69-10.37,1.72-10.4,3.56s5.52,1.45,7.94,1.23,8.89.71,9.4-.89S879.94,352.34,876.23,351.85Z"/><path class="cls-38" d="M883.17,355.76c.21-.65-.3-1.34-1.21-2-1.54,1.67-5.63,2.16-9.91,2.2-3.56,0-4.57-1.32-4.69-2.47-.95.6-1.53,1.27-1.53,1.88,0,1.84,5.52,1.45,7.94,1.23S882.66,357.36,883.17,355.76Z"/><path class="cls-15" d="M871.79,352.9c-.65-.06-3,.43-3,1.19S874,353.11,871.79,352.9Z"/><path class="cls-3" d="M722.82,287.23s131.29,1.13,175.29-3.65-3.5-21-3.5-21,47.5-2.19,51-14.49-88.5-17.38-142-10.35-45.5,26.91-45.5,26.91Z"/><path class="cls-23" d="M815,143.08a24.08,24.08,0,0,1-9.13,11.08s-11.64,6.72-16,11.38c-66,71.34-137.63,13-149.42,7.35s-19.68-8.82-21.24-8.67-11.36,4.24-11.16,6.31,2,4.25,2.23,6.84-.18,17.6,22.43,41.95c25.82,27.8,141.82,65.79,189.74-31.33,9.61-19.48,3-27,2.22-30s1.29-11,4.44-16.24,5.78-6.45,7.41-8.57,4-12.29,1.22-13.06-11.76-3.51-12.65-3.29S817.8,135.74,815,143.08Z"/><path class="cls-21" d="M612.13,167.89c-1,.42-4.21,1.78-3.48,2.56s3.31-1,3.31-1a33.42,33.42,0,0,0,5.76-2.65c2.53-1.55,4-3,1.55-2.24s-5.39,3.08-5.85,3.06A4.7,4.7,0,0,0,612.13,167.89Z"/><g class="cls-17"><path class="cls-39" d="M829.29,131.79s-11.84,14.45-13.24,24.4c0,0,11,11,8.47,23.92a34.58,34.58,0,0,0-.47-21.7c-2.56-6.76,6.27-22,11.67-25.67,0,0-1.19-2.41-2.65-2.18A21,21,0,0,0,829.29,131.79Z"/></g><path class="cls-40" d="M621.1,170.72c-7,1.23,48.16,54.58,111.13,44.57s80-53.64,77.1-55.71-11.09-.18-15.48,6.2C778.58,188,735.33,213.33,685,197.87S633.42,168.55,621.1,170.72Z"/><path class="cls-41" d="M625.23,182.48c-2.42-3.11-8.56,1.76-1.47,15.71s24.77,31.28,37.76,33.34c1.73.27-13.91-20.63-10-20.3s13.17,2.74,12.91.15C663.88,206.19,649.24,213.36,625.23,182.48Z"/><g class="cls-17"><path class="cls-42" d="M701.79,238.53c10.41,2.57,45.1,4,73.14-14.39s33.29-41.4,39.44-39.12-11.23,42.82-58.53,55.42C719.26,250.19,695,236.84,701.79,238.53Z"/></g><path class="cls-23" d="M821.63,132.26s2.58,4.39,2.52,12.24a24.08,24.08,0,0,1-4.65,13.58s-8.54,10.38-10.94,16.27c-36.76,90-124.29,60.54-137.31,59.39s-21.52-1.34-22.93-.65-9.15,8-8.23,9.83,3.35,3.29,4.49,5.62,6,16.54,35.74,31.39c33.94,17,155.89,11.76,166.63-96,2.15-21.61-6.64-26.32-8.48-28.89s-2.64-10.72-1.55-16.77,3.15-8.07,3.93-10.63-.53-12.93-3.45-12.66-11.54,1.3-12.3,1.82S820.47,129.48,821.63,132.26Z"/><path class="cls-21" d="M643,239c-.79.75-3.31,3.14-2.36,3.62s2.75-2.07,2.75-2.07a33.43,33.43,0,0,0,4.46-4.5c1.82-2.34,2.65-4.2.66-2.64s-4,4.78-4.4,4.92A4.7,4.7,0,0,0,643,239Z"/><path class="cls-43" d="M824.52,123c.74-1.18.51-4.84,1.32-5.71s9.75-1.39,10.8-1.42,1.36.16,1.85,1.87a40.06,40.06,0,0,1,.65,6.18l-5.56,1.47-7.52,3.39-3.15-.11.06-3.42Z"/><path class="cls-21" d="M824.71,122.25c.85-.69-4.88,8.19,1.89,5.84s7.7-7.15,7.7-7.15-.26,2.63,1.39,2.84,2.58-2.62,2.69-4.77.18-1.61.6-.94a21.56,21.56,0,0,1,1.3,6.8c0,2.41-2.44-.45-4.15.2s-4.49,3.07-8.38,4.2-5,.36-5.55-.28S822.57,124,824.71,122.25Z"/><g class="cls-17"><path class="cls-39" d="M833.59,128.91s-6,17.69-3.82,27.49c0,0,14.17,6.48,16.34,19.42a34.58,34.58,0,0,0-8.06-20.15c-4.77-5.43-1.86-22.81,1.91-28.13,0,0-2-1.84-3.25-1.11A21,21,0,0,0,833.59,128.91Z"/></g><path class="cls-40" d="M652.36,238.51c-6.1,3.6,64.27,34.17,119.7,2.68s56.09-78.34,52.6-79.24-10.44,3.73-12.31,11.25c-6.5,26.12-38.08,65.07-90.59,68.27S663.13,232.15,652.36,238.51Z"/><path class="cls-41" d="M660.35,248.07C657,246,653,252.73,664.5,263.3s34.18,20.58,47.07,17.95c1.71-.35-20.27-14.42-16.54-15.48s13.29-2.06,12.14-4.4C704.87,256.69,693.68,268.55,660.35,248.07Z"/><g class="cls-17"><path class="cls-42" d="M751.73,273.64c10.65-1.25,43.64-12.1,63.41-39.18S831.76,184,838.32,184s4.53,44-35.32,72.46C772.18,278.43,744.73,274.46,751.73,273.64Z"/></g><path class="cls-3" d="M133.55,942.8s367.65,6.55,408.38-5c28.61-8.13-302.46-13.61-302.46-13.61l-72.59,2.31-18.12,3.89Z"/><path class="cls-44" d="M338.15,918a133.91,133.91,0,0,1,31.24-3.75c18.46-.2,21.5-3.31,25.14-2.62s14.72,1.57,15.67-.86-4.75-1.75-19.31-4.49-16.61-1.16-30.64-1.59-84.74,13-85.5,14.9Z"/><path class="cls-3" d="M338.15,918a133.91,133.91,0,0,1,31.24-3.75c18.46-.2,21.5-3.31,25.14-2.62s14.72,1.57,15.67-.86-4.75-1.75-19.31-4.49-16.61-1.16-30.64-1.59-84.74,13-85.5,14.9Z"/><path class="cls-45" d="M433.47,932.57s-37.7-7.63-62.16-13.32-52.38-3.57-57.5-4.19-19.93.48-43.12,4.07-54.59,3.74-73.1-1.79S118.14,887.4,105.43,916s27.28,30.6,52.41,23.1a149.4,149.4,0,0,1,55.34-5.9c9,.87,50.74,10.87,77,11.38s72-12.17,92-10.1,41,5.79,43.6,6.73,1.62-1.77.53-2.36-18.79-7.22-37.51-8.07-64.26,5.88-80.59,1.52-39.5-3.31-39.5-3.31,40.62-9.27,65.48-4.13,52.43-.14,73.22,4.44S437.64,935.57,433.47,932.57Z"/><path class="cls-46" d="M86.4,902.84a1.16,1.16,0,0,1,.61-1.08,12.54,12.54,0,0,1,5.08-1.3c2.66-.08,6.38.79,9,5.44a46.2,46.2,0,0,0,10,12.35,1.17,1.17,0,0,1-1.46,1.82A47.67,47.67,0,0,1,99,907c-3.84-6.88-10.62-3.37-10.91-3.22a1.17,1.17,0,0,1-1.72-1Z"/><g class="cls-17"><path class="cls-21" d="M86.4,902.84a1.16,1.16,0,0,1,.61-1.08,12.54,12.54,0,0,1,5.08-1.3c2.66-.08,6.38.79,9,5.44a46.2,46.2,0,0,0,10,12.35,1.17,1.17,0,0,1-1.46,1.82A47.67,47.67,0,0,1,99,907c-3.84-6.88-10.62-3.37-10.91-3.22a1.17,1.17,0,0,1-1.72-1Z"/></g><path class="cls-47" d="M92.55,911.05c0-.3,0-.61,0-.92a1.17,1.17,0,0,1,2.33.05c-.18,7.95,8.13,10.4,11.26,11.33a3.75,3.75,0,0,1,1.54.63,1.17,1.17,0,0,1-1.41,1.85l-.79-.24C102.32,922.81,93,920,92.55,911.05Z"/><path class="cls-21" d="M89.16,935.69a1.16,1.16,0,0,1,.18-.68,15.9,15.9,0,0,1,11.62-7.6,16.9,16.9,0,0,1,6.52.41,1.17,1.17,0,0,1-.68,2.23,13.89,13.89,0,0,0-15.5,6.22,1.17,1.17,0,0,1-2.15-.58Z"/><path class="cls-47" d="M83.65,942a1.17,1.17,0,0,1,2-.9s3.92,3.42,13.49,1c4.14-1,9.35-3.73,10.63-10.72l.06-.31a1.17,1.17,0,0,1,2.28.5l0,.22c-1.51,8.22-7.56,11.37-12.37,12.56C88.74,947.14,84.2,943,84,942.82A1.16,1.16,0,0,1,83.65,942Z"/><path class="cls-21" d="M95.43,941.62c-.17-3.77.68-6.66,2.53-8.59,2.81-2.94,7-2.7,8.37-2.62h.27a1.17,1.17,0,0,1,.25,2.32,3.45,3.45,0,0,1-.65,0c-1.23-.07-4.49-.26-6.56,1.9-1.57,1.64-2.17,4.37-1.79,8.09a1.17,1.17,0,0,1-2.32.24Q95.46,942.27,95.43,941.62Z"/><g class="cls-17"><path class="cls-21" d="M89.16,935.69a1.16,1.16,0,0,1,.18-.68,15.9,15.9,0,0,1,11.62-7.6,16.9,16.9,0,0,1,6.52.41,1.17,1.17,0,0,1-.68,2.23,13.89,13.89,0,0,0-15.5,6.22,1.17,1.17,0,0,1-2.15-.58Z"/></g><g class="cls-17"><path class="cls-21" d="M95.43,941.62c-.17-3.77.68-6.66,2.53-8.59,2.81-2.94,7-2.7,8.37-2.62h.27a1.17,1.17,0,0,1,.25,2.32,3.45,3.45,0,0,1-.65,0c-1.23-.07-4.49-.26-6.56,1.9-1.57,1.64-2.17,4.37-1.79,8.09a1.17,1.17,0,0,1-2.32.24Q95.46,942.27,95.43,941.62Z"/></g><path class="cls-47" d="M83.81,911.18a1.17,1.17,0,0,1,2.32-.19c.8,6.6,3.13,11.12,6.92,13.42,5.68,3.45,12.92.8,13,.77a1.17,1.17,0,0,1,.82,2.18c-.34.13-8.34,3.08-15-.95-4.44-2.69-7.15-7.78-8-15.14C83.81,911.24,83.81,911.21,83.81,911.18Z"/><path class="cls-46" d="M82.89,925.36a1.16,1.16,0,0,1,.43-1,20.91,20.91,0,0,1,20.58-3.6,1.17,1.17,0,0,1-.9,2.15h0a17.76,17.76,0,0,0-5.84-1.06,18.55,18.55,0,0,0-12.37,4.33,1.17,1.17,0,0,1-1.9-.85Z"/><g class="cls-17"><path class="cls-21" d="M82.89,925.36a1.16,1.16,0,0,1,.43-1,20.91,20.91,0,0,1,20.58-3.6,1.17,1.17,0,0,1-.9,2.15h0a17.76,17.76,0,0,0-5.84-1.06,18.55,18.55,0,0,0-12.37,4.33,1.17,1.17,0,0,1-1.9-.85Z"/></g><path class="cls-31" d="M157.84,939.09a154.33,154.33,0,0,1,40.56-6.39c6.32-5.79,15.73-6.76,15.73-6.76-4-.44-9.22-3.53-11.91-7.39-1.61-.37-3.15-.77-4.61-1.2-18.5-5.53-79.46-29.94-92.18-1.35S132.71,946.6,157.84,939.09Z"/><path class="cls-48" d="M426.33,938.84c-1.09-.59-18.79-7.22-37.51-8.07s-64.26,5.88-80.59,1.52-39.5-3.31-39.5-3.31l1.35-.29c-15.56,1.25-49.9,1.4-49.9,1.4s12.1.09,35.73,1.57,40.59,3.58,55.61,4.81,59.29-5.21,79.75-3.61,34.53,8.34,36.18,7.94A2.44,2.44,0,0,0,426.33,938.84Z"/><path class="cls-49" d="M105.43,916c-6.19,13.92.11,21.54,11.11,24.83,0,0-20.2-12.09-1.14-25.15s64.6-4,74.45-.82C166,907,116.71,890.62,105.43,916Z"/><path class="cls-15" d="M167.35,928.84c-1.89-1.33-26.3.34-21,4.59S173.49,933.17,167.35,928.84Z"/><path class="cls-3" d="M313.69,865.85s180.72,9.3,182.7-8.86-56.27-22.09-56.27-22.09,107.18-1.43,109.82-13.3-135.2-32.06-213.73-27.25-91.17,18-91.17,18l68.64,17.15Z"/><path class="cls-3" d="M313.69,865.85S233.24,864.62,170,831.73L197,798,325.4,819Z"/><path class="cls-50" d="M166.72,826.06c-6.6.53-23.66,3.47-37.64-11.83-16.57-18.13-40.74-16.49-50.54-42.3-2.73-7.2-1.18-15.48,0-17.21C85.71,744.22,92,746.79,95,743c4.54-5.56-21.51-12.67-23.66-28.08s-4.06-24.26,6.45-30.15c6.93-3.88,19.71,4.26,22.94,0s2.15-48,11.11-60.18,18.66-19.11,26.88-19c6.26.09,18.28,7.53,23.66,8.24s18.76-3,26.29-1.55S201.81,623.54,209,626s25.11,5,25.11,5l32.4,31.19-20.63,78L175.68,820Z"/><path class="cls-51" d="M207.61,643c-6.84-.08-20.93-7.61-39.52-7.25s-25,8.7-25.39,23.89S131.59,706.7,114,703.83s-26.53,4-19,14.71,30.47,28.66,31.9,34.4-30.47,16.39-14,28.81,40.51,14.57,40.51,14.57-18.28-72.77,7.17-106.82C170.52,676.25,207.61,643,207.61,643Z"/><path class="cls-50" d="M194,830c4.71,3.16,13.62,6.45,21.15,7.17s15.41,11.11,27.24,11.47,48.26-5.4,54.5-2.15c9.19,4.78,12.89,19.36,16.84,19.36s15.29-.12,23.9-6.21,18.39-29.36,20.91-35.73.13-22.38,2.51-26.41c1.47-2.48,4.66-8,0-11.59s-21.59-4.18-30.83-7.39A158.67,158.67,0,0,1,314,771.94l-41.92,6.59-42,38.21Z"/><path class="cls-51" d="M303.83,775.34c-1.29,4.24,14.88,15.24,14.16,26.35s-2.15,16.13-31.19,22.22-62,17.56-73.12,10.4S290,789.14,290,789.14Z"/><path class="cls-50" d="M296.85,780.9c5.37,2.73,16.48-1.79,21.5-4.3s18.24-5.33,23.3-17.72c7.15-17.5,13.26-38.55,6.09-51.46s-2.51-54.87-17.92-63.1S309,639.67,294,640.74,278.7,625,259.92,622.46c-14.13-1.89-21.15-2.51-35.85,8.6S194,652.21,194,652.21l52.33,10s40.51,30.47,41.58,30.83,14.7,47,15.06,48,2.51,25.45,2.51,25.45Z"/><path class="cls-51" d="M254.35,650.55c13.81,7.75,18.83,9.91,34.6,14.57s28,1.43,29.06,31.19-5,80.65-21.16,84.6-18.1-64.77-18.1-64.77Z"/><path class="cls-51" d="M253.31,738.78l-11.85-40.15-27.8-15.91a1.84,1.84,0,0,0,1.33-1.84c-.24-3.58-12.71-10.75-12.71-10.75l-22.18,8.62-11.72,8.87,3.06,4.77s2.21-7.69,18.35-8.26c6.56-.23,12-.22,16.11-.36-.12,1.12.71,2.45,3.5,3.92,7.14,3.76,17.83,11.11,21.89,21,8.89,21.6,10.88,35.66,10.88,35.66S265.16,778.93,253.31,738.78Z"/><path class="cls-51" d="M171,691.18c.76.82,4.06,15.5-2.88,22-6.57,6.13-14.24,13.48-18.12,13s-6.56-14.27-6.56-14.27l21-17.84Z"/><path class="cls-45" d="M306.16,747.92S309,727.13,309,717.09s-.36-30.88-9.32-39.1-7.53-5.71-22.94-12.16-19.11-16.77-31.19-20.07c-38-10.4-77.78,9.32-81,11.11S147.51,671.57,146.9,673s12.6,24,17.67,23.11,6.81-10.21,24-14.15,35.13-2.15,49.47,11.11,44.81,31.9,45.52,34.41,9,25.45,9,25.45Z"/><path class="cls-45" d="M296.84,754c.36-1.08,4.3-23.36-24.71-49.83-30.71-28-60.6-27.1-62.57-23.81-1.88,3.13,14.88,3.74,28.5,35.63,10,23.47-3.23,30.48-3.23,30.48l16.85,12.71s25.11,3.77,27.07,4.13S296.84,754,296.84,754Z"/><path class="cls-52" d="M148.8,727.49c2.15-2.87,18.87-15.09,20.61-21s4.82-16.19-3.41-27.76c-7.65-10.77-5.08-19.13-5.08-19.13-7.35-.63-39.81,24.65-36.5,30.23C127.47,695,148.8,727.49,148.8,727.49Z"/><path class="cls-53" d="M252.75,820c5.58.8,21-8.87,33-16.13,25.45-15.41,22.8-71.67,22.44-73.1s-1.65,16.11-11,18.26-33,1.08-38-.36-19.36-4.3-21.87-5-15.77-1.08-15.77-1.08l10.4,57Z"/><path class="cls-51" d="M259.91,757.23c1.93,7.36,6.44,6.3,2.8,20.4S264.09,792,265,801.81a23.54,23.54,0,0,1-4.93,17.09C259.13,820,239.61,806,239.61,806s-2.15-29.86-1.67-30.63S259.91,757.23,259.91,757.23Z"/><path class="cls-45" d="M126.25,684.16c-4.66-.72-18.68,17.34-19.39,38.67-1,29.38,9.79,80.44,50.18,102.88,36.92,20.51,70.62,9.68,85,3.58s18.61-9,19.16-13.26a52.85,52.85,0,0,0-3.21-27.42c-4.39-11,6.8-14.9,3.21-28-2.67-9.73-14.65-22.06-19.85-24C231.94,733,214,740.75,190.38,739s-33.69-11.11-35.13-14.7-6.25-19.21-10.4-24.37C140.84,694.88,126.25,684.16,126.25,684.16Z"/><path class="cls-51" d="M259.13,820c-9.74,6.2-52.51,12.38-69,9.27s-37.76-37.52-57.35-48.23-19.55-82.43-17-87a59.82,59.82,0,0,0-8.93,28.78c-1,29.38,9.79,80.44,50.18,102.88,36.92,20.51,70.62,9.68,85,3.58,9.57-4.07,14.65-6.7,17.14-9.27Z"/><path class="cls-54" d="M287.88,737.77c-2.58-13.11-32.5-44.41-39.19-43.71s13.44,34.38,8,42.52S290.74,752.34,287.88,737.77Z"/><path class="cls-55" d="M354.79,788.1c-1.65-.33-10-1.58-10,15.15s6.93,18.64-10.28,29.63-30.59,7.41-28.68,14.82,9.08,19.12,19.6,14.82S350,840,352.4,830.25s1-13.92,2.39-24.28S361.48,789.44,354.79,788.1Z"/><path class="cls-54" d="M150,731.19c3.69,1.51,31.92,25.52,52.89,19.83s35.49-12.68,38.17-4.08,20.07,30.47-13.09,35.67-62-6.66-72.4-19.26C141.34,746.12,136.69,725.74,150,731.19Z"/><path class="cls-55" d="M297.21,654.43c11.71-5.44,20.42-7.89,29-1.79s4.3,22.94,7.53,40.15,13.62,27.68,8.24,31.94-20.43-.4-19.72-19.75,2.51-35.75-7.17-39.92S287.19,659.09,297.21,654.43Z"/><path class="cls-54" d="M160,677.07c4.27,1.23,9.68,11.23,8.07,18.4s-8.3,18.64-11.41,18.64-4.06-7.41-1.91-15.29S155.06,675.64,160,677.07Z"/><path class="cls-55" d="M184.34,616.73c-7.74-1.83-22,8.23-30.73,4.65s-11.27-12.18-17.36-10-26.53,31.9-25.09,52.33,1.68,11.11,13-7.17,18.16-26.88,38.59-27.24S198.38,620,184.34,616.73Z"/><path class="cls-54" d="M225.51,650.55c-10.49-.82-33.64,20.66-17.9,20.66s22-1.74,40.37,5.76,28.8,29.94,30.76,20.87-20.62-30.22-32.45-35.59S240.92,651.76,225.51,650.55Z"/><path class="cls-55" d="M91.2,752.94c-.65-7.12-16,9.2-6.69,21.15s23.18,17.92,23.42,15.06S92.4,766,91.2,752.94Z"/><path class="cls-55" d="M83.8,688.78c-6.11-1.22-13.14,12.43-7.89,24.14S85,732,88.82,727.49s-8.6-17.44-5.26-23.66S89.77,690,83.8,688.78Z"/><path class="cls-54" d="M183.65,730c4.38.75,30.51,4.64,40.06,1.15S230,717.77,226.47,712s-5.54-17.43-15.85-11.14S172.14,728,183.65,730Z"/><path class="cls-3" d="M424,763.55s180.59.11,205.83,0,33.63,1.37,33.63,1.37l-32.59-5.54L649,755.69l-46.49-2.57,22.52-3.7S461.78,742,438.4,743.88l-37.14,10.38-8.58,7.06Z"/><path class="cls-52" d="M458.38,561.38c2.1-3.86-21.93,16.65-24.88,57.63s-10.57,134.11-5.89,138.91,15.18,5.74,16.66,1.49,3.54-7,2.76-30.78-2.12-61.88,0-85.77.92-51,4-60.6S457.29,563.38,458.38,561.38Z"/><path class="cls-56" d="M444.83,597.84s-1.91-7.75-2.95-7.25-3,6.43-2.63,7.2C440.33,599.86,443.68,599.23,444.83,597.84Z"/><path class="cls-56" d="M442.48,666.29s-2.09-8.49-3.23-7.95-3.32,7-2.88,7.89C437.55,668.5,441.22,667.81,442.48,666.29Z"/><path class="cls-56" d="M443.91,690.18s-2.55-10.36-3.94-9.7-4,8.6-3.51,9.63C437.89,692.88,442.37,692,443.91,690.18Z"/><path class="cls-56" d="M438.4,709.4s-2.55-10.36-3.94-9.7-4,8.6-3.51,9.63C432.38,712.09,436.86,711.25,438.4,709.4Z"/><path class="cls-56" d="M447,608.86s-.58-8.81-1.81-8.47-4.53,6.42-4.25,7.33C441.74,610.18,445.5,610.14,447,608.86Z"/><path class="cls-56" d="M444.06,628.06s-.85-12.78-2.63-12.29-6.58,9.32-6.17,10.64C436.38,630,441.84,629.92,444.06,628.06Z"/><path class="cls-56" d="M450,579.51s.87-5.39.08-5.36-3.63,3.25-3.58,3.83C446.64,579.57,448.92,580.07,450,579.51Z"/><path class="cls-56" d="M449.14,589s-1.23-7.9-2.31-7.5-3.63,6.06-3.25,7C444.5,590.62,447.87,590.29,449.14,589Z"/><path class="cls-52" d="M374.41,560.39c-2.07-3.88,21.77,16.86,24.31,57.87s9.24,134.2,4.52,139-15.23,5.59-16.67,1.33-3.48-7-2.46-30.8,2.72-61.85.82-85.77-.42-51-3.38-60.64S375.49,562.41,374.41,560.39Z"/><path class="cls-56" d="M387.6,597s2-7.73,3-7.22,3,6.46,2.56,7.22C392.08,599,388.74,598.38,387.6,597Z"/><path class="cls-56" d="M389.28,665.46s2.17-8.47,3.31-7.92,3.25,7.08,2.8,7.92C394.19,667.71,390.53,667,389.28,665.46Z"/><path class="cls-56" d="M387.61,689.34s2.65-10.34,4-9.66,4,8.64,3.42,9.66C393.6,692.09,389.13,691.2,387.61,689.34Z"/><path class="cls-56" d="M392.93,708.6s2.65-10.34,4-9.66,4,8.64,3.42,9.66C398.93,711.36,394.46,710.47,392.93,708.6Z"/><path class="cls-56" d="M385.3,608s.67-8.8,1.9-8.45,4.47,6.47,4.18,7.37C390.58,609.36,386.81,609.28,385.3,608Z"/><path class="cls-56" d="M388.08,627.21s1-12.77,2.75-12.26,6.49,9.39,6.06,10.7C395.74,629.21,390.27,629.1,388.08,627.21Z"/><path class="cls-56" d="M382.6,578.6s-.82-5.4,0-5.36,3.59,3.28,3.54,3.87C386,578.7,383.69,579.18,382.6,578.6Z"/><path class="cls-56" d="M383.38,588.12s1.31-7.89,2.39-7.48,3.57,6.1,3.18,7C388,589.77,384.64,589.41,383.38,588.12Z"/><path class="cls-3" d="M394.28,593.65c0,.37-1.1,37.3,0,54.51,1.06,16.6-.35,99.07,2.29,112.61a14.59,14.59,0,0,0,6.67-3.55c4.73-4.75-2-97.95-4.52-139A105.54,105.54,0,0,0,394.28,593.65Z"/><path class="cls-3" d="M422.21,669.82l1.76-32-7.4-.84c-.17,9.67-.37,18.36-.78,24.8-1.74,26.89-2.69,91.21,0,97.34a7.19,7.19,0,0,0,4.28,3.77c.32-2.19.5-3.64.5-3.64Z"/><path class="cls-3" d="M427.62,757.92c3,3.08,8.41,4.56,12.28,4.11,2.91-33.77-2.32-128.64-4.1-158.72A107.77,107.77,0,0,0,433.5,619C430.56,660,422.94,753.12,427.62,757.92Z"/><path class="cls-57" d="M404.4,564.71c-2.57-3.85-9.45,25.28-8.19,53.3s2.32,128.85,7.08,137.94c3.55,6.79,15,6.32,17.27.31s-1.31-67.83-4.12-93.61S413.25,578,404.4,564.71Z"/><path class="cls-56" d="M404.21,631.79s3-11,4.52-10.28,4.08,9.34,3.48,10.43C410.58,634.86,405.81,633.82,404.21,631.79Z"/><path class="cls-56" d="M402.27,675.29s3-11,4.52-10.28,4.08,9.34,3.48,10.43C408.64,678.36,403.87,677.32,402.27,675.29Z"/><path class="cls-56" d="M400.79,691.56s2.49-9,3.7-8.43,3.35,7.66,2.85,8.55C406,694.07,402.1,693.22,400.79,691.56Z"/><path class="cls-56" d="M405.8,723.29s2.76-10,4.1-9.34,3.71,8.49,3.16,9.48C411.6,726.08,407.26,725.14,405.8,723.29Z"/><path class="cls-56" d="M412.74,745.58s2.77-10,4.1-9.34,3.71,8.49,3.16,9.48C418.54,748.37,414.2,747.43,412.74,745.58Z"/><path class="cls-56" d="M398.31,620.28s1.39-7.57,2.42-7.15,3.33,5.93,2.94,6.78C402.74,622,399.5,621.55,398.31,620.28Z"/><path class="cls-56" d="M406.17,611.32s2.15-7.81,3.2-7.28,3,6.53,2.46,7.38C410.66,613.48,407.3,612.76,406.17,611.32Z"/><path class="cls-56" d="M400.27,591s2.82-9,4.2-8.34,3.92,7.5,3.27,8.48C406.2,593.51,401.77,592.67,400.27,591Z"/><path class="cls-56" d="M403.17,579.69s1.81-5.77,2.7-5.37,2.52,4.83,2.11,5.46C407,581.29,404.14,580.75,403.17,579.69Z"/><path class="cls-56" d="M401.31,572.12c-.23-1,1.27-4,1.89-3.77s1.77,3.39,1.48,3.83C404,573.25,401.53,573.11,401.31,572.12Z"/><path class="cls-58" d="M424,554.63c2.49-4.11,10.83,30.73,10.79,59.87s3.42,133.83-1.11,143.49c-3.38,7.21-15.26,7.24-17.91,1.11s-1.71-70.46,0-97.34S415.38,568.79,424,554.63Z"/><path class="cls-48" d="M428.89,620.5s-3.63-11.24-5.12-10.39-3.79,9.81-3.12,10.9C422.45,623.94,427.33,622.66,428.89,620.5Z"/><path class="cls-48" d="M427.43,654.18s-3.63-11.24-5.12-10.39-3.79,9.81-3.12,10.9C421,657.63,425.87,656.34,427.43,654.18Z"/><path class="cls-48" d="M431.71,705.11s-3-9.28-4.23-8.58-3.13,8.1-2.58,9C426.4,708,430.42,706.89,431.71,705.11Z"/><path class="cls-48" d="M431.91,734.94s-3.32-10.28-4.68-9.51-3.47,9-2.85,10C426,738.09,430.49,736.92,431.91,734.94Z"/><path class="cls-48" d="M427.79,751.08s-3.32-10.28-4.68-9.51-3.47,9-2.85,10C421.91,754.24,426.37,753.06,427.79,751.08Z"/><path class="cls-48" d="M432.85,607.79s-1.78-7.74-2.82-7.26-3.17,6.26-2.73,7.12C428.36,609.71,431.68,609.14,432.85,607.79Z"/><path class="cls-48" d="M425.2,601.08s-2.59-8-3.65-7.41-2.77,6.91-2.22,7.77C420.64,603.52,424.09,602.62,425.2,601.08Z"/><path class="cls-48" d="M429.33,586.67s-3.33-9.17-4.73-8.47-3.72,8-3,8.95C423.29,589.52,427.85,588.45,429.33,586.67Z"/><path class="cls-48" d="M425.8,575s-2.14-5.9-3-5.45-2.4,5.12-1.94,5.76C421.91,576.88,424.85,576.19,425.8,575Z"/><path class="cls-48" d="M427.39,567.11c.19-1.08-1.5-4.14-2.14-3.82s-1.68,3.59-1.36,4C424.67,568.4,427.21,568.14,427.39,567.11Z"/><path class="cls-3" d="M385.78,673.92l0,2.52a52.81,52.81,0,0,0,28.34,6.25c16-1.16,31.8-7.82,31.8-7.82l0-1.71-35.21,4.53-19.9-2.45-4.3-2.08Z"/><path class="cls-21" d="M385,669.59v3.89s22.55,13.56,61.26.23l.1-4.68s-17.28,6.19-32.83,7.47S385,669.59,385,669.59Z"/><path class="cls-3" d="M515.48,513.29S691,514.38,695,507.87s-110.33-16.14-163.67-15L518,497.81Z"/><path class="cls-59" d="M596.21,479.43c-2.81-5.33-3.33-10.36-1.56-15,4.69-12.2,23.81-16.76,24.62-17l.77,3.31c-.18,0-18.18,4.34-22.22,14.86-1.73,4.52-.59,9.7,3.39,15.4,7.25,10.38,18.08,14.3,28.95,10.47,7.48-2.64,13.08-8.5,12.75-13.35-.42-6.2-4.8-12.85-10.9-16.55-5.09-3.09-10.58-3.61-15.47-1.48-3.83,1.67-5.11,4.31-3.83,7.85,1.92,5.27,8.89,10.15,12.85,9a3,3,0,0,0,2.4-2.78,7.15,7.15,0,0,0-3.29-6.41,3.15,3.15,0,0,0-3.77.39,5.55,5.55,0,0,0-1.45,1.52c-1.12,1.58,2.94,1.45,2.94,1.45-.84,1.71-4.41,2.62-5.42-.51-.55-1.67-.46-3.34,1.83-5.13a6.56,6.56,0,0,1,7.52-.69,10.57,10.57,0,0,1,5,9.75,6.46,6.46,0,0,1-4.82,5.66c-6.2,1.83-14.68-4.67-17-11.08-1.9-5.21.22-9.75,5.66-12.13,5.93-2.59,12.53-2,18.59,1.69,7,4.25,12,12,12.52,19.22.44,6.4-6,13.62-15,16.79-12.4,4.37-24.68,0-32.87-11.73A33.8,33.8,0,0,1,596.21,479.43Z"/><path class="cls-60" d="M615.77,448.51a55.72,55.72,0,0,0-8.13,3.36,28.22,28.22,0,0,1,5.61,1.19,52.38,52.38,0,0,1,6.79-2.24l-.42-1.83Z"/><path class="cls-59" d="M573,452.63c.17-.61,4.22-14.91,16.34-20.37,7.39-3.33,16.07-2.6,25.8,2.16l-1.5,3.05c-8.77-4.29-16.47-5-22.88-2.12-10.65,4.79-14.44,18-14.48,18.18Z"/><path class="cls-60" d="M615.15,434.42c-1.09-.53-2.16-1-3.23-1.44a24.64,24.64,0,0,0-2,2.87c1.22.47,2.47,1,3.73,1.63Z"/><path class="cls-60" d="M579.12,446.94a3.18,3.18,0,0,0-2.71-2.18,40.61,40.61,0,0,0-1.83,3.63l.7,2.53a8.88,8.88,0,0,0,1.54,1A37.91,37.91,0,0,1,579.12,446.94Z"/><path class="cls-59" d="M612.26,447.55c-1.56-6.62-.61-11.8,3.14-16a12,12,0,0,1,10.19-4.24,7.89,7.89,0,0,1,5.53,2.92,5,5,0,0,1,.23,5.71c.11-.88-1.18-5.71-5.86-6.27a8.6,8.6,0,0,0-7.24,3.13c-3,3.35-4,8.44-2.67,14Z"/><path class="cls-60" d="M615.41,446a21,21,0,0,1-.34-2.34c-.88,0-2.19,0-3.44.08a26.18,26.18,0,0,0,.43,2.88Z"/><path class="cls-25" d="M584.36,460.3s16.13-9.45,27.53-9.68,17,3,17,3a5.4,5.4,0,0,0,1.53-6.23s-11-12-46.71,11.58Z"/><path class="cls-61" d="M590.38,454.8c-1.42.83-2.89,1.74-4.4,2.7v1.4l.3.34c1.25-.67,3-1.59,5.15-2.59A10.87,10.87,0,0,0,590.38,454.8Z"/><path class="cls-62" d="M577.34,453.43s1.77-6.22-1.39-7.2-6.67,3.75-3.74,7.49Z"/><path class="cls-62" d="M555.86,455.81s1.7-7.42-4-7.65-5.56,7.69-1.92,9.13Z"/><path class="cls-62" d="M485.36,465.48s1.39-6.49-3.23-6.15-3,7.16-3,7.16Z"/><path class="cls-62" d="M458.79,468.25s3.56-5.72-2.8-6.85-5.93,7.29-5.93,7.29l4.44.22Z"/><path class="cls-62" d="M427.75,469.53s0-4.63-3.4-4.94S418,468.91,423,472l4-.53Z"/><path class="cls-62" d="M433.14,487.67s-4.25,2.88-1.63,6.94,8.83,1,8.17-3.34Z"/><path class="cls-62" d="M453.88,499.7s-3.15,5,.84,7.68,7.14-1,6-5.39Z"/><path class="cls-62" d="M478.13,505.31s-2.13,7.21,3.66,8.17,3.82-7.05,3.82-7.05Z"/><path class="cls-62" d="M572.34,481s4.39,3.48.78,7-10.94-1.62-10.94-1.62l4.61-4.87Z"/><path class="cls-60" d="M593.69,468.76l3.37,1.27a12.06,12.06,0,0,1,.25-2.65,10.07,10.07,0,0,0-3.37-.41A15.18,15.18,0,0,0,593.69,468.76Z"/><path class="cls-60" d="M594,473.38a8.32,8.32,0,0,1,3.41-.35,14.49,14.49,0,0,1-.31-2l-1.49-.21-1.9.38A17.37,17.37,0,0,0,594,473.38Z"/><path class="cls-60" d="M605.67,486.27a30.88,30.88,0,0,1-2.21-2.32,20.85,20.85,0,0,1-2.23,2.62,33.54,33.54,0,0,0,3.07,3Z"/><path class="cls-60" d="M608.42,488.5q-1.05-.76-2.06-1.64l-.41.41-1.68,2.3q1.09.95,2.24,1.77A9.06,9.06,0,0,0,608.42,488.5Z"/><path class="cls-59" d="M578.9,492.45a4.53,4.53,0,0,1,0-3.82c1.54-3.95,7.66-8.86,11.31-8,3.94.88,1.09,5.65,1.09,5.65.42-.62.72-3.69-1.3-3.52s-5.66,3.16-7.56,6.39c-.61,1-.7,1.7-.27,2,2.9,1.76,14,1.78,19.5-2.35,2.9-2.17,3.82-5.06,2.81-8.82s-2.79-6.18-5.35-7.38c-4.86-2.26-11.08.6-11.15.63l-1.45-3.08c.31-.15,7.7-3.57,14-.64,3.53,1.63,6,4.86,7.22,9.59,1.37,5.12,0,9.41-4.05,12.42-6.56,4.91-19.16,5.06-23.31,2.54A3.94,3.94,0,0,1,578.9,492.45Z"/><path class="cls-60" d="M590.33,468.79a20.87,20.87,0,0,0-3.83,1.28l1.45,3.08a19,19,0,0,1,4.37-1.28A11.41,11.41,0,0,0,590.33,468.79Z"/><path class="cls-62" d="M588.63,456.62c-3.37-6.15-12.8-7.44-35.16-3.36s-42.78,9.54-58.47,9.39-48.39,4.81-57.94,3.1-20.22,6.31-18.44,9.7,13.51,18.83,29.32,24.68,40.29,12.67,61.53,9.66,52.75-19.35,59.87-24.54S594.56,467.43,588.63,456.62Z"/><path class="cls-62" d="M585.16,465.77c.15.28,7.23,4.84,4.36,8.28s-10.24-1-10.24-1l3.54-4.5Z"/><path class="cls-62" d="M532.34,459.82s3.51-7.93-3.34-8.17-.92,10.42-.92,10.42Z"/><path class="cls-62" d="M510.51,464.9s1.12-7-3.26-7.41-5.51,6.58-5.51,6.58l5.38,2.61Z"/><path class="cls-62" d="M519.19,504.21s2,7.45-3.71,9.09-9-5-9-5l12.32-4.88Z"/><path class="cls-62" d="M550,493.3s2,6.17-2.55,8.23-9-4.25-9-4.25l9-4.75Z"/><path class="cls-63" d="M471.39,501.33c15.93,3.79,32.06,6.6,54.95-8.33,20.41-13.31,45.8-30.95,63.4-32.85a9.12,9.12,0,0,0-.53-2.26,43.3,43.3,0,0,0-23.15,1.48c-16.8,6-29.47,16.19-48.32,21s-58.78-8.57-71.85-6.49-17,3.88-17,3.88S455.46,497.53,471.39,501.33Z"/><path class="cls-64" d="M522.17,485.42s-19.17,6.88-35.12,3.41S448,478.68,435.33,478.57c0,0,22.71,10.23,38.85,16.92S511.3,493,522.17,485.42Z"/><path class="cls-3" d="M578.2,413.38s85.28,1.67,141.91.51c0,0,93.78,6.24,119.51-4.61,18.46-7.79-33.31-10.38-33.31-10.38s-4.46-9.65-24.52-8.86-40.66,8.29-40.66,8.29-8-2.41-23.14-3.22a67.93,67.93,0,0,0-27.82,4.77s-88.44,11.88-106.79,2.28Z"/><path class="cls-29" d="M668.42,317.48s-7.49,18.91-21.65,30.33S602.37,384.08,568.91,380a47.4,47.4,0,0,0,.49,17,35.17,35.17,0,0,0,8.79,16.35s11.28-20.84,48.27-27.12,73.45,1.34,73.45,1.34l-2.21-8.46s-37-2.39-35.7-6.87,28.16-8.3,28.16-8.3l-.07-6.76L678.53,354s-19.43,6.39-19.68,3.26S682.94,345,682.94,345s1.78-6.87,1.65-7.4-4.39-.93-4.39-.93-17.94,12.79-19.57,9.45,18.69-21.46,28.9-22.05l-12.06.7Z"/><path class="cls-65" d="M663.39,327.53a21.49,21.49,0,0,0,10.5,4,51.59,51.59,0,0,1,10.66-6.22,8.11,8.11,0,0,0,0-1l-7.1.41-9-7.24A84.93,84.93,0,0,1,663.39,327.53Z"/><path class="cls-65" d="M678.35,337.91c-2.14,1.46-5.81,3.89-9.27,5.81a25.24,25.24,0,0,0,.87,6.6c3.71-1.67,7.54-3.23,10.07-4.23l.36-5.43Z"/><path class="cls-65" d="M677.92,354.21c-1.27.4-4.36,1.37-7.71,2.24.74,2.58,2.56,7.16,6.57,9.94,6.81-1.49,13.39-2.42,13.39-2.42l-8.1-8Z"/><path class="cls-65" d="M693.87,378.86c-2.64-.21-6.39-.54-10.39-1a23,23,0,0,0-2,7.11c5.9.59,10.69,1.28,13.9,1.81Z"/><path class="cls-3" d="M569,395c7.58-3.11,20.59-8.81,32.16-13.34,14.45-5.66,22.67-9.48,41.34-25.45s25.85-33.38,25.85-33.38l1.29-2.85-2.08-.61c-2.29,5.07-9.38,19.2-20.83,28.43-14.16,11.42-44.39,36.27-77.85,32.21A46.6,46.6,0,0,0,569,395Z"/><path class="cls-3" d="M683.66,357.76l-2.24.17s-22.59,12-19.43,14.74a.8.8,0,0,1,0-.39c1.05-3.69,19.53-6.94,26-8Z"/><path class="cls-3" d="M676.32,343.55l-1.07,1S656,355,658.85,357.28c-.2-2.44,14.45-8.52,21-11.12Z"/><path class="cls-3" d="M660.63,346.07c-1.4-2.88,13.5-16.74,24.18-20.88-.54-.47-1-.79-1.19-.74-.59.15-5.79.82-5.79.82S657.11,342.49,660.63,346.07Z"/><path class="cls-3" d="M582.74,407.47a11,11,0,0,1-3.07-3.13c-8.16-12.54,42.82-37.17,54-44.55a111.12,111.12,0,0,0,24.85-22.58c4.28-5.59,9.43-16.29,9.43-16.29l-1.07,0c-2.85,6-9.67,18.49-20.13,26.93-14.16,11.42-44.39,36.27-77.85,32.21a47.39,47.39,0,0,0,.49,17,35.16,35.16,0,0,0,8.79,16.35A32.67,32.67,0,0,1,582.74,407.47Z"/><path class="cls-66" d="M724.16,388.81s10.38,15.94.81,22.58-30.59,4-36.23-15.4,2.71-29.28,2.71-29.28-18.32,3.41-19.24-16.7,13.28-18.39,13.28-18.39-29.9-7-29.25-23.29,24.17-2.65,24.17-2.65-15.14-14.69-5.32-26.86,29.45,1,30.12,18.69c0,0,8.44-11.43,20.1-6.19S729.2,317,729.2,317s16-10,30.94,9.81-3.06,27.92-3.06,27.92,11,11.07,4.82,25.67S730.22,393.25,724.16,388.81Z"/><path class="cls-67" d="M697.41,318.68s-12.72-12.32-5.81-15.81,12.83,10.06,12.83,10.06,3.21-10.71,9.66-7.95S712,320,712,320s7.91-4.47,9.85,1.32-11.4,6.63-11.4,6.63,17.48,1.89,15.07-7.57c-2-7.86-10.16-3.07-10.16-3.07s10.39-12.63-.21-16.85c-7.84-3.12-10.6,8.08-10.6,8.08s-8.72-14.91-16.85-9.43S697.41,318.68,697.41,318.68Z"/><path class="cls-67" d="M730.37,339.65s7.63-13.36,17.58-6.54-15.86,15-15.86,15,19.54,1.86,20.13,9c.64,7.69-10,19.4-27.3,4,0,0,18.12,8.41,22.67-.05,5.34-9.93-22.1-12.58-22.1-12.58s26.54-9.8,19.75-13.86C740.36,331.72,730.37,339.65,730.37,339.65Z"/><path class="cls-67" d="M706.17,339.37s-12.74-6-15.81,2.06,13.34,6.69,13.34,6.69-7.13,3.44-4,9.73,7.79-.52,7.79-.52-3.92,9.59-9.11,3.1S699,350,699,350s-14.47.23-11.88-9.13S702.92,335.47,706.17,339.37Z"/><path class="cls-67" d="M713.22,372.11s8.58,8.24,3.47,14.88-10.56-10-10.56-10,.57,7.53-3.14,7-6.6-10-1.4-14.16c0,0-8.33,3.92-4.06,14.12s9.86-.76,9.86-.76,1.79,11.41,10.5,8.36S721.07,374.6,713.22,372.11Z"/><path class="cls-67" d="M680.4,305.68s-23.53-13.63-24.17,2.65a13,13,0,0,0,1.47,6.51C657.21,299.6,680.4,305.68,680.4,305.68Z"/><path class="cls-67" d="M678.57,352.85c-3.14-15.34,6.92-21.22,6.92-21.22s-14.2-1.72-13.28,18.39,19.24,16.7,19.24,16.7S681.71,368.19,678.57,352.85Z"/><path class="cls-67" d="M765.41,345.64c1.47-4.44.91-10.61-5.26-18.78C745.17,307,729.2,317,729.2,317S756.81,319.55,765.41,345.64Z"/><path class="cls-67" d="M731.17,298.69a10.4,10.4,0,0,0-5.87-7.38c-11.67-5.24-20.1,6.19-20.1,6.19S718.55,290.46,731.17,298.69Z"/><path class="cls-67" d="M685.1,280.12a28.78,28.78,0,0,1,9.28-2.61c-6.38-4.49-14.18-5-19.31,1.31-8.42,10.44,1.51,22.73,4.51,26l.81.85S674.09,285.31,685.1,280.12Z"/><path class="cls-67" d="M754.82,380.72c-9.39,10.72-30.67,8.09-30.67,8.09,6.06,4.44,31.58,6.25,37.75-8.36s-4.82-25.67-4.82-25.67S764.21,370,754.82,380.72Z"/><path class="cls-67" d="M725,411.39c9.57-6.64-.81-22.58-.81-22.58s8.53,16.77-8.77,20.59-28.15-20.85-28.26-21.1a50.14,50.14,0,0,0,1.61,7.69C694.38,415.42,715.41,418,725,411.39Z"/><path class="cls-3" d="M808.87,570.69s84.71.56,109.74-12.87S877,540.56,877,540.56s77,.67,78.9-11.18-114-27.69-147-23.44-10.12,38-10.12,38Z"/><path class="cls-16" d="M782.81,445.74c-4.25-.52-62.4-6.36-83,27s-8.78,63,32.71,75.73,70,.3,82.09-10.3S841.88,509,837.94,493.6,829.46,451.49,782.81,445.74Z"/><path class="cls-68" d="M814.62,538.13a104.11,104.11,0,0,0,8.21-8c-24.8,19.52-75.46,24.7-103-15.59-19.42-28.39-6.51-50.91,7.48-62.91-11,4.12-21,10.71-27.47,21.1-20.6,33.32-8.78,63,32.71,75.73S802.5,548.73,814.62,538.13Z"/><path class="cls-69" d="M752.92,518.91c1.41-1.74,2.57-4.23,4.24-1.8s.45,6.06-1.21,5.3S751.53,520.63,752.92,518.91Z"/><path class="cls-69" d="M803.35,511.79c.18,1.86,2.57,4.31,3,2.46s-.76-3.82-2.27-3.52S803.23,510.62,803.35,511.79Z"/><path class="cls-69" d="M830.31,493.78c.18,1.86,2.57,4.31,3,2.46s-.76-3.82-2.27-3.52S830.19,492.62,830.31,493.78Z"/><path class="cls-69" d="M772.38,460c1.08.89,3.64.91,2.9-.31s-2.42-1.62-3.06-.65S771.71,459.4,772.38,460Z"/><path class="cls-69" d="M752,498c1.34-.4,2.8-2.5,1.38-2.57s-2.7,1.09-2.26,2.16S751.2,498.29,752,498Z"/><path class="cls-69" d="M789.4,497.87c3.67,1.87,7.72-1.36,4.39-3.18s-3.18-3.18-4.39-1.21S787.12,496.7,789.4,497.87Z"/><path class="cls-69" d="M732.77,473.79c-1.8,2.12,0,3.33,0,3.33s9.09-1.67,6.74-3.33S733.83,472.54,732.77,473.79Z"/><path class="cls-70" d="M807.31,458.16c-3.37-1.73-22.68-5.73-10.58,6.67s26.62,23.23,28.08,14.74S816.71,463,807.31,458.16Z"/><path class="cls-71" d="M789.5,502.75c-36.67,4.67-43.28,34.29-44.29,48.88,15.31,3.05,28.53,2.63,39.45.38C800.11,533.72,826.1,498.09,789.5,502.75Z"/><path class="cls-72" d="M818.71,499.45c-2.8-.35-41.13-4.19-54.71,17.77s-5.79,41.53,21.56,49.92,46.13.2,54.11-6.79,18-19.17,15.38-29.35S849.46,503.24,818.71,499.45Z"/><path class="cls-73" d="M839.68,560.35a68.62,68.62,0,0,0,5.41-5.3c-16.35,12.87-49.74,16.28-67.91-10.28-12.8-18.71-4.29-33.56,4.93-41.47-7.22,2.72-13.87,7.06-18.11,13.91-13.58,22-5.79,41.53,21.56,49.92S831.69,567.34,839.68,560.35Z"/><path class="cls-69" d="M799,547.68c.93-1.15,1.7-2.79,2.8-1.19s.3,4-.8,3.49S798.09,548.81,799,547.68Z"/><path class="cls-69" d="M850,531.12c.12,1.23,1.7,2.84,2,1.62s-.5-2.52-1.5-2.32S849.95,530.35,850,531.12Z"/><path class="cls-69" d="M794.22,511.69c.71.59,2.4.6,1.91-.2s-1.6-1.07-2-.43S793.78,511.32,794.22,511.69Z"/><path class="cls-69" d="M812,521.58c.89-.26,1.84-1.65.91-1.69s-1.78.72-1.49,1.43S811.49,521.74,812,521.58Z"/><path class="cls-69" d="M827.87,545.5c2.42,1.23,5.09-.9,2.9-2.1s-2.1-2.1-2.9-.8S826.37,544.73,827.87,545.5Z"/><path class="cls-70" d="M834.86,507.63c-2.22-1.14-14.95-3.78-7,4.39s17.55,15.31,18.51,9.72S841.06,510.82,834.86,507.63Z"/><path class="cls-3" d="M556.15,691.55S724,698.09,747.73,683s-170.24-26.9-170.24-26.9l-14.23,22.45Z"/><path class="cls-26" d="M552,558s18.36-10.48,50.51-2.35,53.18,48.12,39.52,83.24-66.55,57.77-100.4,51.82-69.49-23.8-68.13-76.08S519.78,556.72,552,558Z"/><path class="cls-68" d="M642.08,638.85c11.16-28.71-.86-60.65-23.16-75.81,6.46,5.22,27.71,53,2.76,82.32-23,27-67.17,41.4-95.49,41.67a133.94,133.94,0,0,0,15.49,3.64C575.52,696.61,628.42,674,642.08,638.85Z"/><path class="cls-15" d="M491.13,598.1c1.36-8.2,3.25-16,5.88-22.05,0,0-8.54,7-12.88,21.46Z"/><path class="cls-15" d="M490.43,602.66l-7.78,1c-1.95,10.7-1.42,24.59,5.06,41.83A328.6,328.6,0,0,1,490.43,602.66Z"/><path class="cls-48" d="M520,570.75s5.39,8.36,27.76,6.73c0,0,3.79,6.34,17.08,1.61l-9.58-11.23-14.37,3.64-14.69-1.39Z"/><path class="cls-29" d="M557.48,573.55s-12.51,3.09-29.23.36-29.46-27.8-29.46-27.8,19.32,20.1,31.88,20.94a244.55,244.55,0,0,0,27.3-.12l-.43,5.3Z"/><path class="cls-58" d="M556.26,569.61S570.9,550.18,592,547.4c16.34-2.15,22.6-6.3,21.55-11.19S604,528,604,528s10.14-1,12.07,4-2.16,12.48-8.56,15.47-40.35,22-40.35,22Z"/><path class="cls-29" d="M557.3,561.56S575,558,574.5,547.84s-4.44-21.67-12.56-25c0,0,10.36,2.94,13.5,10.63s8.32,21.25,1.87,25.55-15.19,10.38-15.19,10.38Z"/><path class="cls-58" d="M563.56,571.48s-5.25-26.43-21.09-34.3a67.14,67.14,0,0,0-30-7.2s25.49,6.44,30.69,20.1,7.91,23.16,7.91,23.16Z"/><path class="cls-29" d="M595.09,558c2.12,1.27,6,7.59,1.37,11s-10.46-1.55-21.38-1.5-24,5.82-24,5.82.21,7,8.63,7.88,19.58-5.93,27.76-6.95,18.42-1.2,15.52-8.7S595.09,558,595.09,558Z"/><path class="cls-3" d="M819,718.37s149.39,4,154.48-20.66c4.05-19.63-134.55-22-134.55-22Z"/><path class="cls-74" d="M758.38,699.61S724,662.33,691.82,678.77c0,0,10.84-29.29,46.63-26.92s38.72,19.94,38.72,19.94l4.41,16.53-11,13.33Z"/><path class="cls-30" d="M750.27,666.66c22.63,6.49,7.69-4.19-9.41-14.62-.79-.07-1.59-.14-2.42-.19-35.79-2.38-46.63,26.92-46.63,26.92S710.48,655.25,750.27,666.66Z"/><path class="cls-74" d="M720.66,591.13s-4.47-14.71-22.4-25.66c0,0,50.29-3.87,93.29,50.55l4.7,19.58-50.5-6.86L726.93,605.5Z"/><path class="cls-30" d="M720.66,591.13l6.26,14.36,1.72,2.13,24,16.5s20.3-3.23-8.18-29.92-46.17-28.73-46.17-28.73C716.19,576.42,720.66,591.13,720.66,591.13Z"/><path class="cls-3" d="M735.29,651.73a49.73,49.73,0,0,0-18.3,3c6.95,6.94,25.07,24.36,40.62,33.51L752,693.63a83.43,83.43,0,0,1,6.35,6l7.49,1.25,12.52-8.63,3.2-3.9-.17-.65-14.66-15.45Z"/><path class="cls-3" d="M722.88,596.22l62.34,37.88,9.72,1.32,1.2-.33L791.56,616a154.69,154.69,0,0,0-20.34-21.36c-27.27-13.13-50.14-14.22-56.44-14.26a39.69,39.69,0,0,1,5.88,10.72Z"/><path class="cls-23" d="M773.12,689.32s-103.32-53.48-84-94.18,112,37.15,112,37.15l31.4,31.36L821,680.76,796.9,694.48Z"/><path class="cls-75" d="M689.49,594.41c1.55,2.69,23.73,39.51,108.79,91.17l.23-6.11s-85.57-54.73-109-85.09Z"/><path class="cls-75" d="M806.41,678.09l3.78-5.59L689.54,594.32v0Z"/><path class="cls-75" d="M689.54,594.31v0c19.78-6.73,119.4,63.41,119.4,63.41l-11.67-15.17C699.35,581.32,690,593.65,689.54,594.31Z"/><path class="cls-75" d="M689.54,594.32h0c16.9-22.6,102.88,39.36,102.88,39.36l-1.75-4s-49.45-33.15-71.73-40.1C697,582.79,689.75,594,689.54,594.32Z"/><path class="cls-75" d="M689.41,594.56l-.08.15c-4.81,38.53,90.14,90.3,90.14,90.3l3-2.76C694.55,632.8,689.68,598.17,689.41,594.56Z"/><path class="cls-75" d="M755.31,679.13l2.58,1.56a118.21,118.21,0,0,0,37.44-53.09c-1-.78-2.11-1.65-3.32-2.58C787,636.29,773.36,664.46,755.31,679.13Z"/><path class="cls-75" d="M766.89,685.92l2.14,1.19c32.91-23.65,35.52-48,35.52-48l-3.29-2.22C792.8,666,774.81,680.66,766.89,685.92Z"/><path class="cls-75" d="M742.83,671.17l1.41.93c7.24-5.23,28-22.52,37.5-54.72l-2.9-2.06C776.73,622,768,645.29,742.83,671.17Z"/><path class="cls-75" d="M734.71,665.58c4.29-6.11,26.64-38.32,34.23-57L766.58,607l-33.19,57.6Z"/><path class="cls-75" d="M723.37,657.09c4.27-5.91,26-36.21,35.88-54.63l-2.07-1.24L720.29,654.6Q721.82,655.86,723.37,657.09Z"/><path class="cls-75" d="M710.92,646.41l.83.77c6.74-6.57,27.28-27.8,36.44-51l-2.57-1.35C741.53,603.15,727.79,629.64,710.92,646.41Z"/><path class="cls-75" d="M699.91,634.86c7.13-5.91,22.67-20.45,36.28-44.53l-2.3-1c-4.3,6.76-19.25,29.48-34.92,44.36Z"/><path class="cls-75" d="M693.06,625.38q.48.78,1,1.56c5.4-6.49,20.81-25.95,25.86-42.2q-1.64-.38-3.24-.66C714.34,590.57,707.95,605.5,693.06,625.38Z"/><path class="cls-75" d="M709.86,583.37q-1.08,0-2.14,0c-3.05,5.14-11.07,17.86-20.61,27q.16.94.37,1.89C693.9,606.68,703.63,596.66,709.86,583.37Z"/><path class="cls-53" d="M856.11,694.08s18.78,6.6,28.92,4l1.37-13-26.94.6Z"/><path class="cls-76" d="M860.5,685.7l-2.73,8.93c1.44.46,3.72,1.14,6.43,1.82a41.16,41.16,0,0,0,7-11Z"/><path class="cls-77" d="M784.41,619.32c-.55,24.26,21.69,45.1,21.69,45.1-16,1.61-34.55,17.64-39,21.64,3.75,2.1,6,3.26,6,3.26l4.79,1L806.58,689l14.4-8.21,1.64-2.42-1.85-25.89L799,632.9s-.41-1.3-1.08-3.28C795,627.29,790.27,623.61,784.41,619.32Z"/><path class="cls-53" d="M838.92,675.74a59,59,0,0,0-51.48,1c-27.3,13.88-53.55,44.06-82.34,25,0,0,9.63,19.76,39.72,19.05s40.92-3.89,74.18-2.45S864.24,689,864.24,689l-10.9-21.39Z"/><path class="cls-67" d="M860.41,681.45c-7.52,10.06-28.12,9.38-52,10.75s-43.35,20.7-64.84,22.24-38.48-12.67-38.48-12.67,9.63,19.76,39.72,19.05,40.92-3.89,74.18-2.45S864.24,689,864.24,689l-3.83-7.51Z"/><path class="cls-77" d="M864.24,689l-3.74-7.33-23.87-6.37-1.34-1.09a60.56,60.56,0,0,0-21.34-3.83s15,22.65,45.2,27.66A47.7,47.7,0,0,0,864.24,689Z"/><path class="cls-78" d="M864.24,689s12.48-28.18,2.7-46.1-52-21.17-59.41-25.76-14.1-22.37-10.8-35.33c0,0-16.33,16.6-8.51,46.63C795.8,657.5,838.57,695.37,864.24,689Z"/><path class="cls-79" d="M866.93,642.86c-9.79-17.91-52-21.17-59.41-25.76s-14.1-22.37-10.8-35.33c0,0-9.59,20.42-1.53,36.52s39.47,15.57,55.21,27.79S864.24,689,864.24,689,876.72,660.78,866.93,642.86Z"/><path class="cls-3" d="M443.93,426.26l18.31,1.11s59.63.55,73.29-9.45S472,404.76,472,404.76l-8.17-4.67-3.33,11-.5-15.83-10,6.23-7.83,15.93Z"/><path class="cls-53" d="M500.83,377.55c-2.16,0-12.58.09-19.35,1.62s-7.88,2.14-10.24,1.19-5.25-4.58-7.67-4.71-6.41,0-6.95,1,2.64,1.41,2.49,1.77-1.67.45-2.87.24-2.21-1.29-3.47-1.24-3.12-.73-3.08.09,3,.26,2.61,1.27-1.26.68-2.93.48-5.62-.35-7.09.83-3.43,4.1-2.73,4.76,4.61,1.53,5.7,1,1.29.37.71.6-2.1,1.14-1.39,1.72,6.11-.83,7.36-1.78a4.64,4.64,0,0,1,3.39-.76c.53.09,0,.72-1,1.45s-3.73,2.46-6,1.81-9.11-2.14-10.61-1.84-3.83,2.23-5.18,2.72-2.67.8-2.28,1.68,1.81,0,3.36-.59,3.57-1.81,3.3-.78-5.78,3.59-6.61,4.17-4.32,2.49-3.19,3.24,3.88-1.49,5.44-1.67,5.05-2,4.82-.69-3.28,1.72-4.57,2.33-.75,1.89-2.78,1.53-5.59-.71-7-.14-2.75,1.23-1.8,1.49,3.18-.08,3.33.58-2.22-.34-2.45.2,2.26,1.14,1.77,1.37-1.87-.65-3.61-.43-3.39,1.42-3.06,1.63,3.69-.55,3.7.13-1.77.21-3.31,1.36-1.56,2.44-2,2.7-2.21,1.55-2.09,2.28-.79.89-1.17,1.6.87,1.41,4,.7,3.45-2.55,3.75-2-.38,1,.23,1.4,1.88-3,2.66-2.79-1.69,2.28-1.32,2.89,5,.34,6.92-.82,3.47-3.18,3.78-3-1,2.37-.91,2.86,2.13,1,3.88-1.62,2.52-1.25,4-3,1.21-3,3.23-4.11,3.28-1.69,3.39-1.18-3,3.49-4.12,4.92-1.23,2.36-2.88,2.88-4.55,3.54-4.68,5.42-.64,1.31,1.3,1.11,2.4-1.68,2.6-1.31-2.06.52-1.84,3.13,1.55,4.27,2.43,4.7.81,0,.92-1-.11.21.71,1.36,2.24,3.07,2.1,1.94-.05-2.41.38-1.38.31,3.24,1,3.37,1.72-3.63,1.83-4.22,1-3.35.77-1.69.09,1.78.77.27,1.27-6.08,1.62-6.9-.15,3.57.48,4.22.37,1.35.88,1.58,2.54-2.88,2.27-4.41-.92-2.47-.42-5,.37-4.81,1.29-4.25,0,3.18.67,3.1,2.9-3.35,2.78-4.6-.19-3.15.48-3.91,1.7-1.6,2.18-.84-.41,4.67-1.41,5.72-2.72,2.37-3.58,4.59-1.17,6.64-.56,6.27,1.42-2.67,2.37-2.7.53,1.24-.16,2.07-2,4.25-.51,6,2.82,5.17,3.9,4.82,1.6-3.31,2.26-2.86-.5,4,.42,3.8,1-4,2.47-5.94,1.37-5.11,1.37-5.86.11-1.81.67-1.1-.55,5.46.55,5,3.65-3.43,3.31-5.72a11.35,11.35,0,0,0-1.53-4.81c-.93-1.65-.29-5.68.66-4.9s.15,2.26.88,2.73,1.48-.35,1.3.7-1,4.23-.12,4.18,3.69-2.88,3.58-6.08-3.34-5.67-2.76-7.46,2.87,5.66,4.91,6.42,4.25-.68,5.21-2.68-2.3-5.42-2.38-6.11-.14-2.67.57-2.48,1.49,3.85,2.94,4.51,1.93,1.76,2.37,1.57,1.75-3.42.59-5.66-3.28-2.54-4.25-4-2.64-1.55-2.57-1.94.09-3.24,1.16-4.27,3.71-1.45,5-1.69a64.49,64.49,0,0,1,9.62-1.16c3.18,0,4.83.31,5.63-.43S501.18,377.56,500.83,377.55Z"/><g class="cls-17"><path class="cls-53" d="M470.6,413.72a11.35,11.35,0,0,0-1.53-4.81c-.93-1.65-.29-5.68.66-4.9s.15,2.26.88,2.73,1.48-.35,1.3.7-1,4.23-.12,4.18,3.69-2.88,3.58-6.08-3.34-5.67-2.76-7.46,2.87,5.65,4.91,6.42,4.25-.68,5.21-2.68-2.3-5.42-2.38-6.11-.14-2.67.57-2.48,1.49,3.85,2.94,4.51,1.93,1.76,2.37,1.57,1.75-3.42.59-5.66-3.28-2.54-4.25-4-2.64-1.55-2.57-1.94.09-3.24,1.16-4.27,3.71-1.45,5-1.69a64.48,64.48,0,0,1,9.62-1.16c3.18,0,4.83.3,5.63-.43a1.25,1.25,0,0,0,.23-1.25c-5.75-.1-17.22.47-25.23,3.7-10.53,4.25-23,14.68-38.12,17.69s-23.9,9.87-25.88,12h0c.38.44,1.66.67,3.94.16,3.13-.71,3.45-2.55,3.75-2s-.38,1,.23,1.4,1.88-3,2.66-2.79-1.69,2.28-1.32,2.89,5,.34,6.92-.82,3.47-3.18,3.78-3-1,2.37-.91,2.86,2.13,1,3.88-1.62,2.52-1.25,4-3,1.21-3,3.23-4.11,3.28-1.69,3.39-1.18-3,3.49-4.12,4.92-1.23,2.36-2.88,2.88-4.55,3.54-4.68,5.42-.64,1.31,1.3,1.11,2.4-1.68,2.6-1.31-2.06.52-1.84,3.13,1.55,4.27,2.43,4.7.81,0,.92-1-.11.21.71,1.36,2.24,3.07,2.1,1.94-.05-2.41.38-1.38.31,3.24,1,3.37,1.72-3.63,1.83-4.22,1-3.35.77-1.69.09,1.78.77.27,1.27-6.08,1.62-6.9-.15,3.57.48,4.22.37,1.35.88,1.58,2.54-2.88,2.27-4.41-.92-2.47-.42-5,.37-4.81,1.29-4.25,0,3.18.67,3.1,2.9-3.35,2.78-4.6-.19-3.15.48-3.91,1.7-1.6,2.18-.84-.41,4.67-1.41,5.72-2.72,2.37-3.58,4.59-1.17,6.64-.56,6.27,1.42-2.67,2.37-2.7.53,1.24-.16,2.07-2,4.25-.51,6,2.82,5.17,3.9,4.82,1.6-3.31,2.26-2.86-.5,4,.42,3.8,1-4,2.47-5.94,1.37-5.11,1.37-5.86.11-1.81.67-1.1-.55,5.46.55,5S470.94,416,470.6,413.72Z"/></g><path class="cls-3" d="M256.93,583.91c.23,0,.58,0,1-.05,5-.09,22.5.66,21.79-3.08-.78-4.09-19.16-4.89-19.16-4.89Z"/><circle class="cls-53" cx="256.93" cy="572.5" r="11.41"/><path class="cls-80" d="M268.34,572.31c-1.39,2.89-4.52,6.67-11.4,6.58-7.25-.09-9.53-6.78-10.24-11.42a11.41,11.41,0,1,0,21.65,5C268.35,572.43,268.34,572.37,268.34,572.31Z"/><path class="cls-81" d="M260.57,574.21s5.08,1.67,7.78-1.71c0,0,1.52,2.39-.66,3.83C267.69,576.33,264.33,578,260.57,574.21Z"/><path class="cls-15" d="M263.49,567.57l.79-1.09a9.87,9.87,0,0,0-7.34-3.41A21.71,21.71,0,0,1,263.49,567.57Z"/><path class="cls-15" d="M263.94,568a16.36,16.36,0,0,1,2.22,2.88,10.11,10.11,0,0,0-1.31-3.61Z"/><path class="cls-3" d="M283.11,598.17c.23,0,.58,0,1,0,5-.09,22.5.66,21.79-3.08-.78-4.09-19.16-4.89-19.16-4.89Z"/><circle class="cls-82" cx="283.11" cy="586.76" r="11.41"/><path class="cls-53" d="M294.51,586.58c-1.39,2.89-4.52,6.67-11.4,6.58-7.25-.09-9.53-6.78-10.24-11.42a11.41,11.41,0,1,0,21.65,5C294.52,586.7,294.51,586.64,294.51,586.58Z"/><path class="cls-81" d="M286.74,588.48s5.08,1.67,7.78-1.71c0,0,1.52,2.39-.66,3.83C293.86,590.59,290.51,592.23,286.74,588.48Z"/><path class="cls-15" d="M289.66,581.84l.79-1.09a9.87,9.87,0,0,0-7.34-3.41A21.71,21.71,0,0,1,289.66,581.84Z"/><path class="cls-15" d="M290.12,582.3a16.35,16.35,0,0,1,2.22,2.88,10.11,10.11,0,0,0-1.31-3.61Z"/><path class="cls-3" d="M307.48,578.89c.23,0,.58,0,1-.05,5-.09,22.5.66,21.79-3.08-.78-4.09-19.16-4.89-19.16-4.89Z"/><circle class="cls-45" cx="307.48" cy="567.47" r="11.41"/><path class="cls-53" d="M318.88,567.29c-1.39,2.89-4.52,6.67-11.4,6.58-7.25-.09-9.53-6.78-10.24-11.42a11.41,11.41,0,1,0,21.65,5C318.89,567.41,318.88,567.35,318.88,567.29Z"/><path class="cls-81" d="M311.11,569.19s5.08,1.67,7.78-1.71c0,0,1.52,2.39-.66,3.83C318.23,571.3,314.88,572.94,311.11,569.19Z"/><path class="cls-15" d="M314,562.55l.79-1.09a9.87,9.87,0,0,0-7.34-3.41A21.71,21.71,0,0,1,314,562.55Z"/><path class="cls-15" d="M314.49,563a16.36,16.36,0,0,1,2.22,2.88,10.11,10.11,0,0,0-1.31-3.61Z"/><path class="cls-3" d="M207.44,551.87c6.68-4.67,27.35-9.42,25.35-20.69l10-16.9,47.77-16.12,64.91-1.38,28,14.93,9.1.6s23.66-.29,20.38,7.26-43.41,5-43.41,5-2.13,4.92-29.16,8.26-41.94-6.17-41.94-6.17,23.92,7.26,5.57,12.15-49.67-2.17-49.67-2.17S243,543,233.74,546.15c-8.71,2.95-27.28,7.67-27.28,7.67l.67-1.84Z"/><path class="cls-45" d="M224.34,526.29s-5.7-8.2-5.64-10.12,5.12-18.85,16.29-26,28.8-5.41,28.8-5.41-3.32-15.53,10.47-21.82,41.54-3,52.36,18.5c0,0,12.57-12.74,37.87-6.28s32.81,38,25.66,41.77-25.66-13.15-82.56-10.7-72.44,25.66-74.79,25-6.71-2.09-6.71-2.09Z"/><path class="cls-83" d="M326,487.72s9.89-13.47,30.14-10.24,32.46,28.16,30.25,32.23-25.13-6.63-53.87-8.49-66.44,6.4-76.21,11.17S237.66,523.44,234.75,523s-9.89-1-8.26-10.59,13-20,19.08-21.3,23.5-1.39,23.5-1.39-2.21-15.13,10.7-20.94C290.5,463.92,312,464.68,326,487.72Z"/><path class="cls-3" d="M234.75,523a7.94,7.94,0,0,0,3.81-1.06c-3.32.3-7.72,0-8.91-2.45-2.58-5.25,1.2-15.24,2.44-18.24-2.77,3.45-5,7.37-5.6,11.16C224.86,521.94,231.84,522.51,234.75,523Z"/><path class="cls-3" d="M279.78,468.76c-12.92,5.82-10.71,20.94-10.71,20.94s4.89-14.76,14-18.32c8.71-3.41,34.51,4.34,42,14.94C311.11,464.67,290.28,464,279.78,468.76Z"/><path class="cls-3" d="M368.55,482.53c5,3.77,12.19,13.57,13.68,19.59,1.13,4.58-1.88,6.66-4.51,7.59,4.83,1.07,7.91,1.36,8.65,0C388.08,506.56,381.15,490.94,368.55,482.53Z"/><path class="cls-3" d="M277.27,506.23l-9.05-8.66-25.79,1.29-5,9.58-.82,9.26v.43a83.8,83.8,0,0,0,9.89-.5c3-1.7,6.32-3.56,9.77-5.25C260,510.59,267.62,508.3,277.27,506.23Z"/><path class="cls-3" d="M319.25,490.63l-17.63-5.93-12.75,2.52-5.41,8.44-4.46,2.8,10.47,5.5a221.69,221.69,0,0,1,33.84-3Z"/><path class="cls-3" d="M374.3,508.91l.59-10.22-9.59-6.8s-13.6-4.83-18.27-2.62l-4.67,2.21-10.55,4.16h.46l3.12,5.79C351.18,502.8,365,506.65,374.3,508.91Z"/><path class="cls-45" d="M275.81,494.71c-2.44-5.36,2.66-16.74,16.2-18.15s27.65,7.37,27.38,15.81-16,4.65-22.62,4.71S279.9,503.69,275.81,494.71Z"/><path class="cls-45" d="M269.62,501.68c.91-6.1-12-12.72-25.51-6.1s-14.05,18.83-11,21.28,11,1.63,15.17-4.54S268.55,508.89,269.62,501.68Z"/><path class="cls-84" d="M319.4,492.38a7.84,7.84,0,0,0-.15-1.75,4.9,4.9,0,0,1-.91,1.37c-3.71,3.94-10.3-4.19-17.83-5.09s-10.65,6-14.91,7.58c-3.76,1.41-8.94-2.06-8.68-8.74-1.81,3.26-2.15,6.67-1.1,9,4.09,9,14.31,2.43,21,2.37S319.13,500.82,319.4,492.38Z"/><path class="cls-84" d="M267.47,496.78c-1.7,3.43-11,6.91-16.84,8.7-7,2.15-6.65,7.92-10.58,9.15s-8.38-3.41-7.26-7.85c-1.92,4.59-1.32,8.76.34,10.08,3.07,2.44,11,1.63,15.17-4.54s20.25-3.43,21.32-10.64A5.69,5.69,0,0,0,267.47,496.78Z"/><path class="cls-45" d="M332.08,495.13c-1.32-4.17,1.8-14.23,19-14.8s23.37,10.76,23.76,16.81c.29,4.46-2.9,10.93-12.71,7.25s-10.52-5.35-14.67-5.16S334.07,501.41,332.08,495.13Z"/><path class="cls-84" d="M374.63,499.81c-1.88,1.76-5.3,4.31-7.89,2.56-3.77-2.54-5-8.18-12.34-10.14s-12.37,4.34-15.65,2.38a10.78,10.78,0,0,1-4.79-7.39,9.27,9.27,0,0,0-1.89,7.92c2,6.28,11.27,4.29,15.41,4.11s4.86,1.48,14.67,5.16C370.11,507.37,373.71,503.68,374.63,499.81Z"/><path class="cls-81" d="M266.85,503.45c-2.3.95,3.59-6.18,5.7-6.28S267.41,503.22,266.85,503.45Z"/><path class="cls-81" d="M279,484.69c-.15-1,5.89-5.53,8.51-5.69S279.26,486.29,279,484.69Z"/><path class="cls-81" d="M337.36,485.88c-.36-.8,6.17-4,9-3.9S338.1,487.51,337.36,485.88Z"/><path class="cls-66" d="M390.15,516.93c2.36-1.25,3.11-5.51,2.18-10.89a41.77,41.77,0,0,1-1,4.55c-2.09,7.39-10.57,1.83-25.07-1.67s-24.08-4-36.25-6-45.83,2.83-57.38,6.62-25.43,10.09-31.7,14.64-11.43,3.81-16.22-1.63c-3.41-3.86-3.7-11.33-2.44-16.59a40,40,0,0,0-3.56,10.17c-.06,1.92,5.64,10.12,5.64,10.12l1.75,2.79s4.36,1.4,6.71,2.09,17.9-22.52,74.79-25S383,520.71,390.15,516.93Z"/><path class="cls-52" d="M202,546.28c-1.84.79-1.3,4.65.8,6.65s5.7.6,5.75-.7,19.7-22.35,21.1-23.25,1-5.85-2.3-5.27C227.37,523.7,211.92,542,202,546.28Z"/><path class="cls-3" d="M229.67,529c1-.64,1.07-3.33-.15-4.62-.65,1.53-5.25,8.13-9.82,13.14-5.91,6.47-15,11.54-15,11.54l.6.36,1.68,4.26.28-.11c.74-.33,1.25-.83,1.27-1.31C208.62,550.93,228.27,529.88,229.67,529Z"/><path class="cls-26" d="M255.46,508.42c1.52-2.4-4.83-2.94-7.16.49s0,3.4,0,3.4C249.7,510.26,252.42,509.2,255.46,508.42Z"/><path class="cls-26" d="M290.84,494.84c-1.88,2.28,1.2,3,1.21,3a22.08,22.08,0,0,1,4.72-.73c1.36,0,3.11.14,5,.31a2.18,2.18,0,0,0-.15-2.71C299.85,492.31,292.72,492.55,290.84,494.84Z"/><path class="cls-26" d="M346.82,496.34c-2.27.88-1.36,2.24-.61,3,.46,0,.89-.08,1.28-.09,2.82-.13,4.06.61,7.66,2.25C357.23,499.59,349.87,495.17,346.82,496.34Z"/><path class="cls-15" d="M349.9,497.81c-.86.15-2.64,5.39-1,6.5S352.29,497.4,349.9,497.81Z"/><path class="cls-15" d="M295.47,495.41c-2,.36-2.37,8.16.75,8S297.43,495.05,295.47,495.41Z"/><path class="cls-15" d="M250.63,508.91c-1.32.94.85,6.08,2.87,5.29S253.65,506.76,250.63,508.91Z"/><path class="cls-3" d="M328.52,550.23c6.8.81,28.26,2.94,43.82-1.81s4.38-14.29-10.59-14.6-24.4,4.14-24.4,4.14Z"/><path class="cls-45" d="M320,538.11c-2.37,7.11,2.09,11.81,9.67,12.22,7.25.39,16-9.86,23.14-10.78s14.79-3.36,12.11-10.17-14.09-10.47-27.15-6.81S321.44,533.93,320,538.11Z"/><path class="cls-84" d="M365.5,531.66c-2.26,2.72-8.6,3.33-14,3.11-6.27-.25-13.39,8.23-17.2,11.06A13.09,13.09,0,0,1,322.47,548a13,13,0,0,0,7.24,2.35c7.25.39,16-9.86,23.14-10.78C359.15,538.75,365.81,536.76,365.5,531.66Z"/><path class="cls-81" d="M322.47,539.56c-2-1.19,3.88-9.57,7.32-11.42S324.9,541,322.47,539.56Z"/><path class="cls-26" d="M350,540.33c1-4.27-7-2-8.71.6s1.82,3.3,1.82,3.3h0a40.58,40.58,0,0,1,6.89-3.9Z"/><path class="cls-15" d="M344.78,540.37c-1.84,1.11,2.15,5.47,3.75,5.47S347.47,538.75,344.78,540.37Z"/><path class="cls-57" d="M202.82,552.93c2.1,2,5.7.6,5.75-.7-.85-7.5-6.55-6-6.55-6C200.18,547.07,200.72,550.93,202.82,552.93Z"/><path class="cls-3" d="M653.81,889.42s145.65,4,194.16-17.8-133.24-24.95-133.24-24.95Z"/><ellipse class="cls-85" cx="657.91" cy="877.94" rx="85.49" ry="11.74"/><ellipse class="cls-85" cx="657.91" cy="864.16" rx="85.49" ry="11.74"/><polygon class="cls-85" points="594.06 861.75 572.42 864.16 572.42 877.94 640.28 879.83 681.47 879.83 743.4 877.94 743.4 864.16 677.91 859.68 621.02 859.68 594.06 861.75"/><path class="cls-86" d="M493.36,761.39c-.21,2.37,0,4.75,0,7.16,0,63.1,73.67,114.24,164.55,114.24s164.55-51.15,164.55-114.24c0-2.41.21-4.79,0-7.16Z"/><path class="cls-87" d="M822.46,768.55c0-2.41.21-4.79,0-7.16h-2.85l-9.44,7.75s-73.61,110.7-268.5,80.28c29.77,20.62,70.85,33.38,116.23,33.38C748.79,882.79,822.46,831.64,822.46,768.55Z"/><ellipse class="cls-88" cx="657.91" cy="761.39" rx="164.55" ry="33.58"/><path class="cls-89" d="M493.36,761.39c0,9.69,20.12,18.42,52.3,24.55,6.25-24.61,38.78-47.39,74.51-57.24C547.48,732.18,493.36,745.5,493.36,761.39Z"/><path class="cls-90" d="M657.91,795c67,0,124.58-8.16,150.27-19.88a12.67,12.67,0,0,0-7.86-.95s-4-11.08-16.71-8.18c0,0,6.9-11.3-14.9-8.65l-53.6,3L686,754.16a10.13,10.13,0,0,0-4.89,3.16,4.14,4.14,0,0,0-6.36,1.2s-2.83-9.27-11.23-4.36c0,0-6.9-11-14.83,0l-10.47,12.12-16.53-1.05-10.06-7.15s-5.2-5.41-10.47-.95-1.45,16.28-1.45,16.28-6.18-10.54-14.53-8-5.63,12.35-5.63,12.35l-2.91-4s-4.36-12.54-18.53-4l2,6.85-35.06-5.48a13.76,13.76,0,0,0-9.1,7.23C544.57,788.31,597.42,795,657.91,795Z"/><path class="cls-15" d="M793.6,770.34c-5.36-3.65-11.71-.65-11.71-.65s2.53-7.36-1.46-10.36c-4.72-3.54-10.2-.81-10.2-.81s.21-8.09-7.15-9.43c-10.55-1.92-12.46,6-12.46,6s1.24-6.95-3.23-6-8.95,6.45-8.95,6.45,2.5-9.93-7.18-9.18a13.71,13.71,0,0,0-12.16,9.18s-.25-6.7-6.2-5.71a8.16,8.16,0,0,0-6.95,6s-5.46-13-12.91-9.47-9.93,15-9.93,15-1.49-3.8-4.47-1.31-3,8.19-3,8.19-1.74-12.16-7.45-12.66-6.95,2.23-6.95,2.23,0-5-6-4-6.2,3.72-6.2,3.72.25-9.46-6.2-6.47-6.2,6.47-6.2,6.47-4.22-7.72-15.39-6.47-9.93,10.26-9.93,10.26-3-5.11-7.2-2.55-4,8.44-4,8.44-3.47-2.73-4.72.5c-1,2.71-.34,6.56-.08,7.73-.38-1.54-2.21-7.48-7.61-7.48-6.2,0-5.71,5.21-5.71,5.21s-5-2.73-8,1.24c0,0-4.68-9.18-12.13-2.23,0,0-.74-6.45-7.94-4,0,0-10.67-6-19.61,1,0,0-11.95-1.69-15.39,4.47a6.85,6.85,0,0,0-.16,5.7h0q2.67.86,5.58,1.68l.35.1,2.65.72.31.08q3,.8,6.28,1.55l.25.06,3,.67.49.11L541,785l.09,0q3.45.71,7.11,1.38l.58.1,3.17.56.53.09q3.73.64,7.64,1.23l.55.08L564,789l.8.11,3.57.49.38.05,4.18.53.27,0,3.8.45.95.11,3.38.37.89.1q4.24.45,8.63.85l1,.09,3.44.3,1.18.1,3.69.29.77.06,4.56.33.71,0,3.82.25,1.32.08,3.46.2,1.25.07q4.64.25,9.39.44l1.31.05,3.5.13,1.5.05,3.79.11,1,0,4.84.11,1.1,0,3.8.06,1.6,0,3.55,0h1.47l5,0,4.89,0h.64l4.55,0h.26l5-.08h0l4.56-.1.88,0,.69,0c51-1.36,94.72-7.49,119.94-16.13l-2.67-1.14S799.4,774.3,793.6,770.34Z"/><path class="cls-91" d="M664.24,774.23c-2.45,4.32,1.49,17.87,14.64,13.4S668.46,766.78,664.24,774.23Z"/><path class="cls-92" d="M727.19,762.07c-3.66,6.21,3.92,11.17,9.28,8.19S728.93,759.11,727.19,762.07Z"/><path class="cls-91" d="M748.93,778c-5.47,3.64-5.25,8-3.28,11.85,10.17-1.31,19.58-2.84,28.09-4.56C773.7,785.19,761.39,769.65,748.93,778Z"/><path class="cls-91" d="M553,787.26c6.09,1,12.54,2,19.32,2.82,1.2-2.74,1.14-5.69-3.19-7.26C563.53,780.77,557.23,784.14,553,787.26Z"/><path class="cls-32" d="M605.83,787.13s2.54-8.93,8.54-7.82c0,0,.52-7.68,7.25-7.2s8,5.57,8,5.57.36-8.07,4.36-7.9,5,6.24,5,6.24,2.9-5.6,8.94-2.24,0,9.38,0,9.38,1.82-6-2.13-7.26-7.81,4.51-7.81,4.51-1.46-7.46-4.39-7.1-3.41,7.43-3.41,7.43-5.93-7.64-10.83-5.76-3.75,6.24-3.75,6.24a5.9,5.9,0,0,0-6.34,4.43c-1.43,5-2.86,2.68-2.86,2.68Z"/><path class="cls-32" d="M688.79,782.21s-1.5-7.83,2.93-8.45,5.65,5.72,5.65,5.72-.14-11.17,6.88-10.22,3.47,12.94,3.47,12.94,10.08-9.13,14.92-4.77-5.72,9.54-5.72,9.54,13.69-3.75,7.83-10.22S710,778.66,710,778.66s2.59-11.72-4.49-12.33c-8-.69-9,8.65-9,8.65a5.57,5.57,0,0,0-8.11-2.23C682.86,775.8,688.79,782.21,688.79,782.21Z"/><path class="cls-92" d="M609.63,780.19c-6.37-.25-19.17,6.67-12.84,10.77S624.9,780.78,609.63,780.19Z"/><path class="cls-93" d="M657.91,727.81c-90.88,0-164.55,15-164.55,33.58S567,795,657.91,795s164.55-15,164.55-33.58S748.79,727.81,657.91,727.81Zm-55.44,62.26c-124-9.23-103.56-34.1-103.56-34.1s8.72-18.26,124.54-24.53,196.76,15.81,196.16,29.94S726.47,799.31,602.47,790.07Z"/><path class="cls-94" d="M553,846.67a165.25,165.25,0,0,1-15.48-24.41l-7.76,8.16A88.89,88.89,0,0,0,553,846.67Z"/><path class="cls-94" d="M535.71,818.53c-4.47-9.36-8.17-20-8.64-30a109.94,109.94,0,0,1-25.07-8.1,102.57,102.57,0,0,0,21.7,43.49Z"/><path class="cls-95" d="M578.37,873.23l-.15-2.71s-2.82-.27-3.45-.77v3.72Z"/><path class="cls-95" d="M574.76,874.9V878a10.57,10.57,0,0,0,4,2.19l-.32-5.66Z"/><path class="cls-3" d="M666.52,963.72S981.8,946.42,973.3,885.21c-3.78-27.19-171.78-19.83-171.78-19.83l-118.13,56Z"/><path class="cls-30" d="M852.74,843.58c4.33,1.17,23.62,5.07,28.72,4.63s7.23-1.35,8.2.42,2.3,4.68,1.85,7.49-1.27,3.39-.88,5.43.76,6.41-3.14,8.3-17,.67-34.59,5S852.74,843.58,852.74,843.58Z"/><path class="cls-96" d="M850.46,848.67l8.31,5.76s24.1.63,32.57-1.57a16.76,16.76,0,0,0-1.69-4.23c-1-1.77-3.1-.86-8.2-.42s-24.39-3.46-28.72-4.63C852.74,843.58,851.74,845.62,850.46,848.67Z"/><path class="cls-96" d="M874.05,860c-5.27.71-7.87,4.24-4.71,6.91,2.48,2.09,15.85-1.34,21.52-2.93a12.42,12.42,0,0,0-.23-2.44,4.84,4.84,0,0,1,.15-2.54C884.89,859.24,877.13,859.6,874.05,860Z"/><path class="cls-97" d="M865.5,858c-.85-14.53-17.27-22.19-68.47-21.11s-141.4,21-162,50.78-32.23,83.93,42.51,75.14,74.72-35.43,113.28-56.15S867,884.16,865.5,858Z"/><path class="cls-98" d="M865.5,858c0-.43-2.22,6.71-4.2,9.49-10.72,15.06-43.69,27-84.27,34.92s-70.13,52-113.53,52.37c-40.72.33-42.92-24.57-38.42-48.87-12,29.22-8.63,64.09,52.44,56.91,74.73-8.79,74.72-35.43,113.28-56.15S867,884.16,865.5,858Z"/><path class="cls-99" d="M848.53,863.86c-2.87,2.71-16.93,15.28-14.17,16.93s18.93-7.63,21.56-12.63S854.94,857.82,848.53,863.86Z"/><path class="cls-100" d="M799.16,865.94c33.6-8.41,66.37-7.36,66.34-7.91a15.73,15.73,0,0,0-2-7c-12.9-5.67-44.37-10.09-124.47,5.2S640,924.94,640.48,925l1.11,7.64s-7.51,3,36.56-6.39S752.32,877.67,799.16,865.94Z"/><path class="cls-101" d="M636,925.69c-1.71.73-4.14,4.64-3.67,6.54s3.6,7.37,7.23,7.52,6.4-2.45,6.83-4S645.37,921.71,636,925.69Z"/><path class="cls-102" d="M637.6,928.38c-2.25-.11-3,3.43-.93,5.77s4.14,3.45,5.61,1.34,1.29-4.23-.14-5.59S639.15,928.46,637.6,928.38Z"/></g></g></svg>