<svg xmlns="http://www.w3.org/2000/svg" xmlns:xlink="http://www.w3.org/1999/xlink" viewBox="0 0 3780 2646"><defs><style>.cls-1{fill:none;}.cls-2{isolation:isolate;}.cls-3{clip-path:url(#clip-path);}.cls-4{fill:#fff;}.cls-5{fill:#efebe6;}.cls-6{fill:#ede9e3;}.cls-7{fill:#bdad9a;}.cls-8,.cls-86,.cls-9{fill:#8d8275;}.cls-8{opacity:0.64;}.cls-10{fill:#dbd7d1;}.cls-11{fill:#ddedfb;}.cls-12{fill:#ebe9e7;}.cls-13{fill:#cfc8c8;}.cls-14{fill:#e1dfdd;}.cls-15{fill:#e6e7e9;}.cls-16{opacity:0.4;}.cls-17{fill:#a6c56e;}.cls-18{fill:#82a04d;}.cls-19{fill:#bc6935;}.cls-20{fill:#ce7a3d;}.cls-21{fill:#ccb396;}.cls-22{fill:#af916d;}.cls-23{fill:#a1bbc4;}.cls-24{fill:#8baab6;}.cls-25{fill:#946d62;}.cls-26{fill:#4f3934;}.cls-27{fill:#5c504d;}.cls-28{opacity:0.07;}.cls-29{fill:#50888b;}.cls-30{fill:#3c626d;}.cls-31{fill:#395d68;}.cls-32{fill:#3b4648;}.cls-33,.cls-36{fill:#844d2e;}.cls-33{mix-blend-mode:multiply;}.cls-34{fill:#6db4c9;}.cls-35{fill:#bfdfe6;}.cls-37{fill:#95bcc4;}.cls-38{fill:#e3ac4e;}.cls-39{fill:#51638c;}.cls-40{fill:#435478;}.cls-41{fill:#7280a4;}.cls-42{fill:#292c50;}.cls-43{fill:#f0d054;}.cls-44{fill:#f5f4ea;}.cls-45{fill:#7c5e4a;}.cls-46{fill:#876a53;}.cls-47{fill:#cc5038;}.cls-48{fill:#7f602b;}.cls-49{fill:#82e176;}.cls-50{fill:#c2913f;}.cls-51{fill:#524f13;}.cls-52{fill:#b96431;}.cls-53{fill:#ab531e;}.cls-54{fill:#f4d87c;}.cls-55{fill:#e3b38e;}.cls-56{fill:#9c6f5d;}.cls-57{fill:#d2927b;}.cls-58{fill:#3a666b;}.cls-59{fill:#e09e86;}.cls-60{clip-path:url(#clip-path-3);}.cls-61{fill:#243d5d;}.cls-62{fill:#233d5c;}.cls-63{fill:#233d5b;}.cls-64{fill:#233c5a;}.cls-65{fill:#223b59;}.cls-66{fill:#223b58;}.cls-67{fill:#223a58;}.cls-68{fill:#223a57;}.cls-69{fill:#213956;}.cls-70{fill:#213855;}.cls-71{fill:#213853;}.cls-72{fill:#203752;}.cls-73{fill:#203651;}.cls-74{fill:#203650;}.cls-75{fill:#1f354f;}.cls-76{fill:#1f354e;}.cls-77{fill:#1f344d;}.cls-78{fill:#1e334c;}.cls-79{fill:#1e334b;}.cls-80{fill:url(#Áåçûìÿííûé_ãðàäèåíò_4);}.cls-81{fill:#896831;}.cls-82{fill:#c9d2cf;}.cls-83{fill:#7a592c;}.cls-84{fill:#26333f;}.cls-85{fill:#333356;}.cls-86{opacity:0.55;}.cls-87{fill:#541e2c;}.cls-88{fill:#6c2c3c;}.cls-89{fill:#c25050;}.cls-90{fill:#fcf8ad;}.cls-91{fill:#ddc2b1;}.cls-92{fill:#68493b;}</style><clipPath id="clip-path"><rect class="cls-1" width="3780" height="2646"/></clipPath><clipPath id="clip-path-3"><path class="cls-1" d="M3429.09,1811.48c2.12,38.69-136,133.53-171.08,146.38-123,45-273.49,10.31-289.08,17.23.42.1-239.55,318.37-243.29,322-3.39,3.34-52.7-31.19-61-40.1-3-3.26,127-304.93,173.47-366.17,60.54-79.83,430-120.72,430-120.72S3426.78,1769.48,3429.09,1811.48Z"/></clipPath><radialGradient id="Áåçûìÿííûé_ãðàäèåíò_4" cx="2617.61" cy="2400.53" r="77.11" gradientUnits="userSpaceOnUse"><stop offset="0.06" stop-color="#1e334b"/><stop offset="1" stop-color="#243d5d"/></radialGradient></defs><title>Image 45.A [Converted]</title><g class="cls-2"><g class="cls-3"><g class="cls-3"><path class="cls-4" d="M3831.59,497.77c-288.92-151-728.8-245-1387.24-248.18-1390.23-6.66-1931.58,832-1937.15,1254.32-3.87,293.35,50.36,521.62,175.69,701.69H3831.59Z"/><path class="cls-5" d="M3831.59-92.93H-19l-.52,2175.83H642.35c-85.69-172.3-72.93-459.39,9.06-705.16,128.44-385,439.94-1132.4,1583.77-1119.89,923.92,10.1,1321.3,145.3,1596.41,629.8Z"/><rect class="cls-6" x="1424.76" y="288.96" width="203.79" height="1950.81"/><rect class="cls-6" x="3330.38" y="251.67" width="82" height="1817.83"/><rect class="cls-6" x="1302.46" y="2025.84" width="2087.63" height="42.62"/><rect class="cls-7" x="-29.35" y="2068.82" width="3860.94" height="521.63"/><path class="cls-8" d="M998.86,2185.56H-332.63V2070.09l1415.6,2h0C1083,2134.5,1045.12,2185.56,998.86,2185.56Z"/><path class="cls-8" d="M3451.85,2188.68h581.41V2073.21l-621.56,2h0C3411.7,2137.62,3429.77,2188.68,3451.85,2188.68Z"/><rect class="cls-9" x="-28.84" y="2547.83" width="3860.43" height="193.61"/><path class="cls-10" d="M3908.93,1619.07l-23.87-260.27c-3.5-38.22-37.2-67.55-77.59-67.55H3625.88c-40.4,0-74.09,29.33-77.59,67.55l-23.87,260.27c-3.18,34.69,86.29,98.33,86.29,98.33L3487,2067.78h24.43l89.27-252.89h231.9l89.27,252.89h24.43L3822.64,1717.4S3912.11,1653.76,3908.93,1619.07Zm-82.2,179.11h-220.1l28.52-80.78h163.07Z"/><rect class="cls-4" x="2743.04" y="328.87" width="28.08" height="1727.46"/><path class="cls-11" d="M1543.84,2028.92H3290V333.4H1543.84ZM3333.14,295.08H1500.67V2067.24H3333.14V295.08Z"/><polygon class="cls-12" points="2946.35 2057.9 2688.9 2057.9 2688.9 1053.98 2946.35 806.81 2946.35 2057.9"/><rect class="cls-12" x="2290.24" y="1120.23" width="195.52" height="939.58" rx="13.18" ry="13.18"/><rect class="cls-13" x="2098.43" y="935.6" width="265.66" height="1137.02"/><path class="cls-13" d="M2369.55,953.57H2093c-4.11,0-7.44-4.84-7.44-10.81h0c0-6,3.33-10.81,7.44-10.81h276.58c4.11,0,7.44,4.84,7.44,10.81h0C2377,948.73,2373.66,953.57,2369.55,953.57Z"/><rect class="cls-14" x="1728.2" y="857.47" width="318.05" height="1212.03"/><path class="cls-14" d="M2001.41,857.31H1773.06c-3.39,0-6.14-11.6-6.14-25.92h0c0-14.31,2.75-25.92,6.14-25.92h228.35c3.39,0,6.14,11.61,6.14,25.92h0C2007.55,845.71,2004.8,857.31,2001.41,857.31Z"/><polygon class="cls-14" points="3305.89 2062.97 3131.95 2062.97 3131.95 1192.25 3148.2 1081 3289.64 1081 3305.89 1197.82 3305.89 2062.97"/><rect class="cls-13" x="2878.15" y="1130.93" width="209.66" height="58.75"/><rect class="cls-15" x="2835.4" y="1157.11" width="299.48" height="907.61"/><path class="cls-13" d="M3139.07,2069.5H2831.21V1152.33h307.87Zm-299.48-9.56h291.09v-898H2839.59Z"/><rect class="cls-13" x="2835.4" y="1223.3" width="299.48" height="16.26"/><path class="cls-13" d="M3139.07,1244.34H2831.21v-25.83h307.87Zm-299.48-9.56h291.09v-6.7H2839.59Z"/><rect class="cls-13" x="2835.4" y="1273.17" width="299.48" height="16.26"/><path class="cls-13" d="M3139.07,1294.21H2831.21v-25.83h307.87Zm-299.48-9.56h291.09V1278H2839.59Z"/><rect class="cls-13" x="2835.4" y="1323.04" width="299.48" height="16.26"/><path class="cls-13" d="M3139.07,1344.09H2831.21v-25.83h307.87Zm-299.48-9.56h291.09v-6.7H2839.59Z"/><rect class="cls-13" x="2835.4" y="1372.92" width="299.48" height="16.26"/><path class="cls-13" d="M3139.07,1394H2831.21v-25.83h307.87Zm-299.48-9.56h291.09v-6.7H2839.59Z"/><rect class="cls-13" x="2835.4" y="1422.79" width="299.48" height="16.26"/><path class="cls-13" d="M3139.07,1443.84H2831.21V1418h307.87Zm-299.48-9.56h291.09v-6.7H2839.59Z"/><rect class="cls-13" x="2835.4" y="1472.67" width="299.48" height="16.26"/><path class="cls-13" d="M3139.07,1493.71H2831.21v-25.83h307.87Zm-299.48-9.56h291.09v-6.7H2839.59Z"/><rect class="cls-13" x="2835.4" y="1522.54" width="299.48" height="16.26"/><path class="cls-13" d="M3139.07,1543.58H2831.21v-25.83h307.87ZM2839.59,1534h291.09v-6.7H2839.59Z"/><rect class="cls-13" x="2835.4" y="1572.41" width="299.48" height="16.26"/><path class="cls-13" d="M3139.07,1593.46H2831.21v-25.83h307.87Zm-299.48-9.56h291.09v-6.7H2839.59Z"/><rect class="cls-13" x="2835.4" y="1622.29" width="299.48" height="16.26"/><path class="cls-13" d="M3139.07,1643.33H2831.21v-25.83h307.87Zm-299.48-9.56h291.09v-6.7H2839.59Z"/><rect class="cls-13" x="2835.4" y="1672.16" width="299.48" height="16.26"/><path class="cls-13" d="M3139.07,1693.21H2831.21v-25.83h307.87Zm-299.48-9.56h291.09v-6.7H2839.59Z"/><rect class="cls-13" x="2835.4" y="1722.04" width="299.48" height="16.26"/><path class="cls-13" d="M3139.07,1743.08H2831.21v-25.83h307.87Zm-299.48-9.56h291.09v-6.7H2839.59Z"/><rect class="cls-13" x="2835.4" y="1771.91" width="299.48" height="16.26"/><path class="cls-13" d="M3139.07,1793H2831.21v-25.83h307.87Zm-299.48-9.56h291.09v-6.7H2839.59Z"/><rect class="cls-13" x="2835.4" y="1821.78" width="299.48" height="16.26"/><path class="cls-13" d="M3139.07,1842.83H2831.21V1817h307.87Zm-299.48-9.56h291.09v-6.7H2839.59Z"/><rect class="cls-13" x="2835.4" y="1871.66" width="299.48" height="16.26"/><path class="cls-13" d="M3139.07,1892.7H2831.21v-25.83h307.87Zm-299.48-9.56h291.09v-6.7H2839.59Z"/><rect class="cls-13" x="2835.4" y="1921.53" width="299.48" height="16.26"/><path class="cls-13" d="M3139.07,1942.58H2831.21v-25.83h307.87ZM2839.59,1933h291.09v-6.7H2839.59Z"/><rect class="cls-13" x="2835.4" y="1971.4" width="299.48" height="16.26"/><path class="cls-13" d="M3139.07,1992.45H2831.21v-25.83h307.87Zm-299.48-9.56h291.09v-6.7H2839.59Z"/><rect class="cls-13" x="2835.4" y="2021.28" width="299.48" height="16.26"/><path class="cls-13" d="M3139.07,2042.32H2831.21V2016.5h307.87Zm-299.48-9.56h291.09v-6.7H2839.59Z"/><rect class="cls-13" x="2870.82" y="1157.11" width="14.68" height="904.42"/><rect class="cls-13" x="2923.23" y="1157.11" width="14.68" height="904.42"/><rect class="cls-13" x="2975.65" y="1157.11" width="14.68" height="904.42"/><rect class="cls-13" x="3028.06" y="1157.11" width="14.68" height="904.42"/><rect class="cls-13" x="3080.48" y="1157.11" width="14.68" height="904.42"/><rect class="cls-14" x="1907.77" y="1121.67" width="221.64" height="923.75"/><rect class="cls-15" x="1907.77" y="1138.27" width="221.64" height="16.55"/><rect class="cls-15" x="1907.77" y="1189.03" width="221.64" height="16.55"/><rect class="cls-15" x="1907.77" y="1239.79" width="221.64" height="16.55"/><rect class="cls-15" x="1907.77" y="1290.56" width="221.64" height="16.55"/><rect class="cls-15" x="1907.77" y="1341.32" width="221.64" height="16.55"/><rect class="cls-15" x="1907.77" y="1392.08" width="221.64" height="16.55"/><rect class="cls-15" x="1907.77" y="1442.84" width="221.64" height="16.55"/><rect class="cls-15" x="1907.77" y="1493.6" width="221.64" height="16.55"/><rect class="cls-15" x="1907.77" y="1544.36" width="221.64" height="16.55"/><rect class="cls-15" x="1907.77" y="1595.12" width="221.64" height="16.55"/><rect class="cls-15" x="1907.77" y="1645.88" width="221.64" height="16.55"/><rect class="cls-15" x="1907.77" y="1696.64" width="221.64" height="16.55"/><rect class="cls-15" x="1907.77" y="1747.4" width="221.64" height="16.55"/><rect class="cls-15" x="1907.77" y="1798.16" width="221.64" height="16.55"/><rect class="cls-15" x="1907.77" y="1848.92" width="221.64" height="16.55"/><rect class="cls-15" x="1907.77" y="1899.68" width="221.64" height="16.55"/><rect class="cls-15" x="1907.77" y="1950.44" width="221.64" height="16.55"/><rect class="cls-15" x="1907.77" y="2001.2" width="221.64" height="16.55"/><rect class="cls-13" x="1934.02" y="1098.46" width="169.13" height="26.3"/><rect class="cls-13" x="1972.04" y="1072.15" width="93.1" height="26.3"/><polygon class="cls-13" points="2427.23 1055.08 2654.06 1055.08 2654.06 900.85 2484.82 900.85 2427.23 1055.08"/><rect class="cls-13" x="2416.37" y="976.55" width="280.76" height="1089.83" transform="translate(5113.51 3042.93) rotate(180)"/><rect class="cls-15" x="2416.37" y="996.14" width="280.76" height="19.53" transform="translate(5113.51 2011.81) rotate(180)"/><rect class="cls-15" x="2416.37" y="1056.03" width="280.76" height="19.53" transform="translate(5113.51 2131.58) rotate(180)"/><rect class="cls-15" x="2416.37" y="1115.91" width="280.76" height="19.53" transform="translate(5113.51 2251.36) rotate(180)"/><rect class="cls-15" x="2416.37" y="1175.8" width="280.76" height="19.53" transform="translate(5113.51 2371.13) rotate(180)"/><rect class="cls-15" x="2416.37" y="1235.69" width="280.76" height="19.53" transform="translate(5113.51 2490.9) rotate(180)"/><rect class="cls-15" x="2416.37" y="1295.57" width="280.76" height="19.53" transform="translate(5113.51 2610.68) rotate(180)"/><rect class="cls-15" x="2416.37" y="1355.46" width="280.76" height="19.53" transform="translate(5113.51 2730.45) rotate(180)"/><rect class="cls-15" x="2416.37" y="1415.35" width="280.76" height="19.53" transform="translate(5113.51 2850.23) rotate(180)"/><rect class="cls-15" x="2416.37" y="1475.24" width="280.76" height="19.53" transform="translate(5113.51 2970) rotate(180)"/><rect class="cls-15" x="2416.37" y="1535.12" width="280.76" height="19.53" transform="translate(5113.51 3089.77) rotate(180)"/><rect class="cls-15" x="2416.37" y="1595.01" width="280.76" height="19.53" transform="translate(5113.51 3209.55) rotate(180)"/><rect class="cls-15" x="2416.37" y="1654.9" width="280.76" height="19.53" transform="translate(5113.51 3329.32) rotate(180)"/><rect class="cls-15" x="2416.37" y="1714.78" width="280.76" height="19.53" transform="translate(5113.51 3449.1) rotate(180)"/><rect class="cls-15" x="2416.37" y="1774.67" width="280.76" height="19.53" transform="translate(5113.51 3568.87) rotate(180)"/><rect class="cls-15" x="2416.37" y="1834.56" width="280.76" height="19.53" transform="translate(5113.51 3688.64) rotate(180)"/><rect class="cls-15" x="2416.37" y="1894.45" width="280.76" height="19.53" transform="translate(5113.51 3808.42) rotate(180)"/><rect class="cls-15" x="2416.37" y="1954.33" width="280.76" height="19.53" transform="translate(5113.51 3928.19) rotate(180)"/><rect class="cls-15" x="2416.37" y="2014.22" width="280.76" height="19.53" transform="translate(5113.51 4047.97) rotate(180)"/><polygon class="cls-13" points="1849.13 2066.38 1544.7 2066.38 1516.79 1064.63 1873.06 1064.63 1849.13 2066.38"/><path class="cls-15" d="M1599.25,2066.38h-8c0-101.28-5.07-304.72-10-501.46-4.9-196.33-10-399.34-10-500.26h8c0,100.79,5.06,303.74,10,500C1594.18,1761.47,1599.25,1965,1599.25,2066.38Z"/><rect class="cls-15" x="1520.51" y="1195.74" width="349.28" height="8.99"/><rect class="cls-15" x="1522.74" y="1275.55" width="345.14" height="8.99"/><rect class="cls-15" x="1529.84" y="1528.62" width="332.05" height="8.99"/><rect class="cls-15" x="1532.07" y="1608.43" width="327.91" height="8.99"/><rect class="cls-15" x="1539.57" y="1879.58" width="313.95" height="8.99"/><rect class="cls-15" x="1541.8" y="1959.48" width="309.8" height="8.99"/><path class="cls-15" d="M1667.45,2066.38h-8c0-101.32-2-304.78-4-501.54-2-196.31-4-399.31-4-500.19h8c0,100.83,2,303.8,4,500.08C1665.42,1761.53,1667.45,1965,1667.45,2066.38Z"/><path class="cls-15" d="M1731.74,2066.38h-8c0-51.75,2-282.18,4-505,1.95-219.52,4-446.51,4-496.69h8c0,50.22-2,277.24-4,496.78C1733.78,1784.26,1731.74,2014.68,1731.74,2066.38Z"/><path class="cls-15" d="M1799.94,2066.38h-8c0-114.35,5.27-322.82,10.36-524.42,4.93-195.13,9.58-379.45,9.58-477.3h8c0,98-4.66,282.35-9.59,477.56C1805.2,1743.76,1799.94,1952.16,1799.94,2066.38Z"/><rect class="cls-15" x="1551.68" y="1041.66" width="286.48" height="22.97"/><rect class="cls-13" x="1604.03" y="1018.68" width="181.79" height="22.97"/><g class="cls-16"><polygon class="cls-4" points="1982.66 2067.26 2011.76 2067.26 1500.65 1379.58 1500.65 1432.5 1982.66 2067.26"/><polygon class="cls-4" points="1500.65 1218.75 1500.65 1332.73 2068.53 2067.26 2153.89 2067.26 1500.65 1218.75"/><polygon class="cls-4" points="2612.59 2067.26 2558.57 2067.26 1500.65 694.83 1500.65 612.9 2612.59 2067.26"/><polygon class="cls-4" points="2863.74 2067.26 2645.94 2067.26 1500.65 559.03 1500.65 333.88 2863.74 2067.26"/><polygon class="cls-4" points="3195.32 2067.26 3090.79 2067.26 1618.2 128.04 1820.51 128.04 3195.32 2067.26"/><polygon class="cls-4" points="3334.01 1666.77 3334.01 1860.25 2018.59 128.04 2165.59 128.04 3334.01 1666.77"/><polygon class="cls-4" points="3334.01 1417.36 3334.01 1514.11 2281.49 128.04 2355.01 128.04 3334.01 1417.36"/><polygon class="cls-4" points="3334.01 519.55 3334.01 906.66 2742.75 128.04 3036.7 128.04 3334.01 519.55"/><polygon class="cls-4" points="3334.01 185.76 3334.01 379.29 3143.18 128.04 3290.14 128.04 3334.01 185.76"/></g><path class="cls-17" d="M3615.07,752.73c-9.84,10-15.18,26.66-12.84,44.44S3614,829.28,3626,835.88c9.84-10,15.18-26.66,12.84-44.44S3627.1,759.33,3615.07,752.73Z"/><path class="cls-18" d="M3549.25,735.71c-3.07,14.3,1,31.37,12,44.72s26.14,19.55,39.5,17.74c3.07-14.3-1-31.37-12-44.72S3562.61,733.89,3549.25,735.71Z"/><path class="cls-18" d="M3474.5,775.86c8.33,11.54,23.08,18.75,39.51,17.7s30.32-10.07,37.36-22.59c-8.33-11.54-23.08-18.75-39.51-17.7S3481.55,763.34,3474.5,775.86Z"/><path class="cls-17" d="M3475.35,845.94c9.92,9.93,25.53,14.46,41.6,10.55s28.44-15.25,33.55-28.84c-9.92-9.93-25.53-14.46-41.6-10.55S3480.46,832.35,3475.35,845.94Z"/><path class="cls-18" d="M3552.57,862.93c10.77-8.82,17.71-24.73,17.14-42.68s-8.52-33.3-19.83-41.27c-10.77,8.81-17.71,24.73-17.14,42.68S3541.26,855,3552.57,862.93Z"/><path class="cls-17" d="M3466.91,929.7c10.6,1.77,22.77-2.8,31.81-13.16s12.61-23.86,10.46-35.32c-10.6-1.77-22.77,2.8-31.81,13.16S3464.76,918.23,3466.91,929.7Z"/><path class="cls-18" d="M3635.23,838.88c11.2,3,24.62-.69,35.18-10.87s15.53-24.27,14.2-36.76c-11.2-3-24.62.69-35.18,10.88S3633.9,826.38,3635.23,838.88Z"/><path class="cls-18" d="M3518.34,930.88c12.1-6.45,21.66-20.66,24.18-38.41s-2.64-34.45-12.38-44.6c-12.1,6.45-21.66,20.66-24.18,38.41S3508.61,920.73,3518.34,930.88Z"/><path class="cls-17" d="M3572.59,895.82c7.85-9.23,11.47-23.81,8.47-38.85s-11.85-26.66-22.5-31.49c-7.85,9.23-11.47,23.81-8.47,38.85S3561.94,891,3572.59,895.82Z"/><path class="cls-18" d="M3426.7,970c10.12,9.69,25.82,13.84,41.81,9.55s28.13-15.93,33-29.64c-10.12-9.69-25.82-13.84-41.81-9.55S3431.53,956.29,3426.7,970Z"/><path class="cls-18" d="M3388.51,935.53c10.12,9.69,25.82,13.84,41.81,9.55s28.12-15.93,33-29.64c-10.12-9.69-25.82-13.84-41.81-9.55S3393.34,921.81,3388.51,935.53Z"/><path class="cls-17" d="M3396.72,1012.94c13.46-.08,27.74-8.34,37.08-23.13s11.35-32.28,6.62-46c-13.46.08-27.73,8.34-37.08,23.13S3392,999.19,3396.72,1012.94Z"/><path class="cls-18" d="M3437.29,1077c11.6-7.46,20.12-22.44,21.37-40.35s-5.08-34.13-15.51-43.42c-11.6,7.46-20.12,22.44-21.37,40.35S3426.86,1067.69,3437.29,1077Z"/><path class="cls-18" d="M3525.27,1008.47c8.9-11,12.74-28.15,8.83-45.59s-14.55-30.71-27.11-36c-8.9,11-12.74,28.15-8.83,45.59S3512.71,1003.17,3525.27,1008.47Z"/><path class="cls-18" d="M3465.89,882.44c7.36,5.17,17.83,6.18,27.73,1.74a32.33,32.33,0,0,0,18.57-22.53c-7.36-5.17-17.83-6.18-27.73-1.74A32.33,32.33,0,0,0,3465.89,882.44Z"/><path class="cls-17" d="M3494.54,1063.4c9.41-10.51,14-27.4,11-45s-13.09-31.48-25.39-37.47c-9.41,10.51-14,27.4-11,45S3482.25,1057.41,3494.54,1063.4Z"/><path class="cls-18" d="M3457.57,1094.73c7.93-7.43,12.55-20.15,11.26-34s-8.17-25.31-17.31-30.85c-7.93,7.43-12.55,20.15-11.26,34S3448.43,1089.19,3457.57,1094.73Z"/><path class="cls-17" d="M3490.1,1125.48c7.4-8,11.16-21.1,8.94-34.83s-9.85-24.59-19.34-29.38c-7.4,8-11.16,21.1-8.94,34.83S3480.62,1120.69,3490.1,1125.48Z"/><path class="cls-19" d="M3639.56,903.63h0a38,38,0,0,1-37.95-37.95V830h75.9v35.67A38,38,0,0,1,3639.56,903.63Z"/><path class="cls-20" d="M3677.11,843.06H3602A13,13,0,0,1,3589,830h101.2A13,13,0,0,1,3677.11,843.06Z"/><rect class="cls-21" x="3567" y="903.37" width="265.93" height="36.45" transform="translate(7399.92 1843.18) rotate(180)"/><rect class="cls-22" x="3567" y="903.37" width="265.93" height="8.93" transform="translate(7399.92 1815.67) rotate(180)"/><polygon class="cls-23" points="3424.35 308.99 1423.5 308.99 1464.59 280.81 3383.26 280.81 3424.35 308.99"/><polygon class="cls-23" points="3424.35 364.08 1423.5 364.08 1464.59 335.9 3383.26 335.9 3424.35 364.08"/><polygon class="cls-23" points="3424.35 419.17 1423.5 419.17 1464.59 390.98 3383.26 390.98 3424.35 419.17"/><polygon class="cls-23" points="3424.35 474.25 1423.5 474.25 1464.59 446.07 3383.26 446.07 3424.35 474.25"/><polygon class="cls-23" points="3424.35 529.34 1423.5 529.34 1464.59 501.15 3383.26 501.15 3424.35 529.34"/><polygon class="cls-23" points="3424.35 584.42 1423.5 584.42 1464.59 556.24 3383.26 556.24 3424.35 584.42"/><rect class="cls-24" x="3290.95" y="246.04" width="10.88" height="686.82"/><rect class="cls-24" x="1423.5" y="141.17" width="2025.91" height="119.14"/><path class="cls-25" d="M810.75,94.63c-95.6,0-113.38-123-113.54-124.24l8.09,0c.16,1.17,16.82,115.84,105.46,115.84C899,86.22,901-22.41,901-27l8,.08C909-25.74,906.84,94.63,810.75,94.63Z"/><path class="cls-25" d="M557.09,127.92c-225.89,0-249.72-155.85-249.94-157.43l8.11,0c0,.14,0,.26.58,2.75,5.47,24,43.08,146.24,241.24,146.24,218.65,0,241.62-147.51,241.83-149l8.14,0C806.85-27.91,783,127.92,557.09,127.92Z"/><path class="cls-25" d="M1104.36,150.72c-226.17,0-239.62-178.43-239.72-180.24h8.06c.44,7.06,13.21,171.82,231.67,171.82,219.17,0,252-170.08,252.33-171.79h8.42C1364.79-27.71,1330.1,150.72,1104.36,150.72Z"/><path class="cls-25" d="M1044.53,94.63c-95.6,0-113.38-123-113.54-124.24l8.09,0c.16,1.17,16.83,115.84,105.46,115.84,88.26,0,90.24-108.63,90.28-113.25l8,.08C1142.8-25.74,1140.62,94.63,1044.53,94.63Z"/><path class="cls-25" d="M961-12.5,933.22,38.15a11,11,0,0,1-19.45,0L885.94-12.5c-4.32-7.87.86-17.13,9.5-17.13H951.1A11.47,11.47,0,0,1,961-12.5Z"/><rect class="cls-25" x="918.15" y="6.92" width="10.68" height="622.49"/><path class="cls-4" d="M956.47,720.71c0,30.81-16.61,34.65-33,34.65s-33-3.84-33-34.65,33-80.46,33-80.46S956.47,689.89,956.47,720.71Z"/><path class="cls-26" d="M939.4,669H907.58a4.94,4.94,0,0,1-4.77-5.44l1.26-16.29h38.84l1.26,16.29A4.93,4.93,0,0,1,939.4,669Z"/><rect class="cls-26" x="912.04" y="620.57" width="22.91" height="34.36"/><path class="cls-25" d="M715.42-12.5,687.6,38.15a11,11,0,0,1-19.45,0L640.32-12.5A11.37,11.37,0,0,1,650-29.63H705.7A11.37,11.37,0,0,1,715.42-12.5Z"/><rect class="cls-25" x="672.53" y="6.92" width="10.68" height="428.04"/><path class="cls-4" d="M710.84,530c0,30.81-16.61,34.65-33,34.65s-33-3.84-33-34.65,33-80.46,33-80.46S710.84,499.19,710.84,530Z"/><path class="cls-26" d="M693.78,478.32H662a4.94,4.94,0,0,1-4.77-5.44l1.26-16.29h38.84l1.26,16.29A4.94,4.94,0,0,1,693.78,478.32Z"/><rect class="cls-26" x="666.41" y="429.87" width="22.91" height="34.36"/><path class="cls-25" d="M1163.65-12.5l-27.83,50.65a11,11,0,0,1-19.45,0L1088.54-12.5a11.27,11.27,0,0,1,9.73-17h55.65A11.27,11.27,0,0,1,1163.65-12.5Z"/><rect class="cls-25" x="1120.76" y="6.92" width="10.68" height="346.25"/><path class="cls-4" d="M1159.07,439.83c0,30.81-16.61,34.65-33,34.65s-33-3.84-33-34.65,33-80.46,33-80.46S1159.07,409,1159.07,439.83Z"/><path class="cls-26" d="M1142,388.15h-31.82a4.94,4.94,0,0,1-4.77-5.44l1.26-16.29h38.84l1.26,16.29A4.93,4.93,0,0,1,1142,388.15Z"/><rect class="cls-26" x="1114.64" y="339.7" width="22.91" height="34.36"/><polygon class="cls-25" points="712.99 433.12 642.75 433.12 630.73 449.38 583.59 513.14 677.87 513.14 772.15 513.14 725.01 449.38 712.99 433.12"/><rect class="cls-27" x="642.75" y="415.31" width="70.07" height="17.81"/><polygon class="cls-25" points="958.53 616.19 888.29 616.19 876.27 632.45 829.14 696.21 923.41 696.21 1017.69 696.21 970.55 632.45 958.53 616.19"/><rect class="cls-27" x="888.3" y="598.38" width="70.07" height="17.81"/><polygon class="cls-25" points="1161.21 346.18 1090.98 346.18 1078.96 362.44 1031.82 426.2 1126.1 426.2 1220.37 426.2 1173.23 362.44 1161.21 346.18"/><rect class="cls-27" x="1090.98" y="328.37" width="70.07" height="17.81"/><rect class="cls-28" x="-29.35" y="-94.23" width="3860.94" height="245.24"/><path class="cls-8" d="M1453.06,2478.62l2076.18-.49q4.17,0,8.3-.07c107.78-1.89,100.79-52.19-7.17-52.17l-2080.52.45c-104.09,0-116.22,47.72-13,52Q1444.91,2478.62,1453.06,2478.62Z"/><g id="tea_table" data-name="tea table"><path class="cls-24" d="M1072.6,1350.09v720.67H90.82V1350.09Z"/><path class="cls-29" d="M283.26,1348.2H394.55a6.91,6.91,0,0,1,6.91,6.91v21.19a0,0,0,0,1,0,0H276.35a0,0,0,0,1,0,0V1355.1A6.91,6.91,0,0,1,283.26,1348.2Z" transform="translate(677.8 2724.49) rotate(180)"/><path class="cls-29" d="M283.26,1490.24H394.55a6.91,6.91,0,0,1,6.91,6.91v21.19a0,0,0,0,1,0,0H276.35a0,0,0,0,1,0,0v-21.19A6.91,6.91,0,0,1,283.26,1490.24Z" transform="translate(677.8 3008.58) rotate(180)"/><path class="cls-29" d="M772.39,1350.09H883.68a6.91,6.91,0,0,1,6.91,6.91v21.19a0,0,0,0,1,0,0H765.48a0,0,0,0,1,0,0V1357A6.91,6.91,0,0,1,772.39,1350.09Z" transform="translate(1656.07 2728.29) rotate(180)"/><path class="cls-29" d="M772.39,1490.24H883.68a6.91,6.91,0,0,1,6.91,6.91v21.19a0,0,0,0,1,0,0H765.48a0,0,0,0,1,0,0v-21.19A6.91,6.91,0,0,1,772.39,1490.24Z" transform="translate(1656.07 3008.58) rotate(180)"/><rect class="cls-29" x="94.34" y="1481.78" width="978.26" height="8.46"/><rect class="cls-29" x="579.24" y="1350.09" width="8.46" height="720.67"/><path class="cls-30" d="M80.75,1318.57h1001a17.1,17.1,0,0,1,0,34.21H80.75a17.1,17.1,0,0,1,0-34.21Z"/><path class="cls-31" d="M847.44,1186.87h48.68a7.26,7.26,0,0,1,6.82,9.74h-5.62c-11.53,0-16.36,6.67-18.43,9.66h-21a5.77,5.77,0,0,0-5.76,5.38c-.2,2.92,2.81,28.89-16.52,55.3-4.35,5.95-11.89,1.7-10.68-4.08l14.6-69.62A8,8,0,0,1,847.44,1186.87Z"/><path class="cls-31" d="M883.74,1189.25h120.65a3.35,3.35,0,0,0,2.81-5.15A22.77,22.77,0,0,0,988,1173.64h-101a3.35,3.35,0,0,0-3.35,3.34Z"/><path class="cls-32" d="M921,1195.94h41.62a6.78,6.78,0,0,1,6.78,6.78v70.93a0,0,0,0,1,0,0H914.18a0,0,0,0,1,0,0v-70.93A6.78,6.78,0,0,1,921,1195.94Z" transform="translate(1883.54 2469.59) rotate(180)"/><rect class="cls-31" x="894" y="1187.09" width="90.57" height="9.16" transform="translate(1878.57 2383.35) rotate(180)"/><path class="cls-33" d="M874.89,1219.84h129.25l7.74,57.65a33.45,33.45,0,0,1-33.18,37.74H899.39a33.45,33.45,0,0,1-33.18-37.74Z"/><path class="cls-34" d="M871.76,1306.07a36.81,36.81,0,0,1-8.86-29l7.89-61.13a26.82,26.82,0,0,1,26.54-23.33h83.43a26.82,26.82,0,0,1,26.54,23.33l7.89,61.13a36.8,36.8,0,0,1-36.49,41.51H899.39A36.8,36.8,0,0,1,871.76,1306.07Zm25.58-106.78a20.12,20.12,0,0,0-19.91,17.5l-7.89,61.13a30.11,30.11,0,0,0,29.86,34h79.32a30.11,30.11,0,0,0,29.86-34l-7.89-61.13a20.12,20.12,0,0,0-19.91-17.5Z"/><path class="cls-35" d="M992.24,1287.87a6.15,6.15,0,0,0,6.11-6.95l-.42-3.21a6.15,6.15,0,1,0-12.2,1.59l.42,3.21A6.15,6.15,0,0,0,992.24,1287.87Z"/><path class="cls-35" d="M988.82,1261.73a6.16,6.16,0,0,0,6.11-6.95l-3.33-25.47a6.15,6.15,0,1,0-12.2,1.59l3.33,25.47A6.15,6.15,0,0,0,988.82,1261.73Z"/><path class="cls-31" d="M696.24,1134.85h16.21l3.27-9.81a12,12,0,1,0-22.75,0Z"/><path class="cls-34" d="M659.3,1133h90.57a0,0,0,0,1,0,0v14.63a4.77,4.77,0,0,1-4.77,4.77h-81a4.77,4.77,0,0,1-4.77-4.77V1133A0,0,0,0,1,659.3,1133Z" transform="translate(1409.17 2285.43) rotate(180)"/><path class="cls-31" d="M612.74,1159.44h48.68a7.26,7.26,0,0,1,6.82,9.74L649,1178.84h-25.8a5.77,5.77,0,0,0-5.76,5.38c-.2,2.92,2.81,28.89-16.52,55.3-4.35,5.95-11.89,1.7-10.68-4.08l14.6-69.62A8,8,0,0,1,612.74,1159.44Z"/><path class="cls-31" d="M649,1161.82H769.68a3.35,3.35,0,0,0,2.81-5.15,22.77,22.77,0,0,0-19.15-10.46h-101a3.34,3.34,0,0,0-3.34,3.34Z"/><rect class="cls-31" x="659.3" y="1159.66" width="90.57" height="9.16" transform="translate(1409.17 2328.49) rotate(180)"/><path class="cls-34" d="M634.27,1299.07a33.44,33.44,0,0,0,30.41,19.5H744a33.44,33.44,0,0,0,33.18-37.73l-13.65-105.08a11,11,0,0,0-10.93-9.6H654.68a11,11,0,0,0-11,9.75l-12.22,104.94A33.31,33.31,0,0,0,634.27,1299.07Z"/><path class="cls-35" d="M753.91,1279.49a6.16,6.16,0,0,0,6.11-6.95l-.42-3.21a6.15,6.15,0,0,0-12.2,1.59l.42,3.21A6.15,6.15,0,0,0,753.91,1279.49Z"/><path class="cls-35" d="M750.49,1253.35a6.16,6.16,0,0,0,6.11-6.95L748.44,1184a6.15,6.15,0,1,0-12.2,1.59L744.4,1248A6.15,6.15,0,0,0,750.49,1253.35Z"/><path class="cls-31" d="M635.56,1298.15a2.73,2.73,0,0,0-2.32,4.17,35,35,0,0,0,29.58,16.25h83.06a34.94,34.94,0,0,0,29.57-16.25,2.73,2.73,0,0,0-2.32-4.17Z"/><ellipse class="cls-36" cx="399.76" cy="1294.47" rx="25.43" ry="12.13" transform="translate(-460.55 247.89) rotate(-22.26)"/><ellipse class="cls-36" cx="360.56" cy="1296.16" rx="25.43" ry="12.13" transform="translate(-702.39 471.44) rotate(-36.65)"/><ellipse class="cls-36" cx="454.78" cy="1248.81" rx="25.43" ry="12.13" transform="translate(-831.16 913.1) rotate(-55.36)"/><ellipse class="cls-36" cx="439.95" cy="1226.69" rx="25.43" ry="12.13" transform="translate(-554.4 384.32) rotate(-30)"/><ellipse class="cls-36" cx="302.92" cy="1257.9" rx="25.43" ry="12.13" transform="translate(-588.36 319.98) rotate(-30)"/><ellipse class="cls-36" cx="238.67" cy="1241.26" rx="12.13" ry="25.43" transform="translate(-413.48 158.49) rotate(-20.18)"/><ellipse class="cls-36" cx="266.02" cy="1241.26" rx="12.13" ry="25.43" transform="translate(-645.83 358.06) rotate(-33.82)"/><ellipse class="cls-36" cx="343.78" cy="1252.45" rx="12.13" ry="25.43" transform="translate(-737.83 533.47) rotate(-41.04)"/><ellipse class="cls-36" cx="314.65" cy="1298.91" rx="12.13" ry="25.43" transform="translate(-1010.13 1122.52) rotate(-68.8)"/><ellipse class="cls-36" cx="270.48" cy="1278.33" rx="12.13" ry="25.43" transform="translate(-824.7 565.67) rotate(-45)"/><ellipse class="cls-36" cx="330.42" cy="1277.91" rx="12.13" ry="25.43" transform="translate(-984.95 1387.64) rotate(-80.27)"/><ellipse class="cls-36" cx="388.25" cy="1268.81" rx="12.13" ry="25.43" transform="translate(-927.92 1437.08) rotate(-80.27)"/><ellipse class="cls-36" cx="395.16" cy="1239.5" rx="25.43" ry="12.13" transform="matrix(0.87, -0.5, 0.5, 0.87, -566.81, 363.64)"/><ellipse class="cls-36" cx="369.36" cy="1226.69" rx="25.43" ry="12.13" transform="translate(-896.78 1031.57) rotate(-64.48)"/><ellipse class="cls-36" cx="302.92" cy="1193.14" rx="25.43" ry="12.13" transform="translate(-904.32 952.51) rotate(-64.48)"/><ellipse class="cls-36" cx="275.2" cy="1198.85" rx="25.43" ry="12.13" transform="translate(-941.87 1020.77) rotate(-68.75)"/><ellipse class="cls-36" cx="411.03" cy="1209.07" rx="25.43" ry="12.13" transform="translate(-288.32 140.57) rotate(-14.43)"/><ellipse class="cls-36" cx="296.97" cy="1229.79" rx="12.13" ry="25.43" transform="translate(-965.32 1314.66) rotate(-80.27)"/><ellipse class="cls-36" cx="331.68" cy="1217.86" rx="12.13" ry="25.43" transform="translate(-929.01 1155.66) rotate(-71.94)"/><ellipse class="cls-36" cx="330.22" cy="1166.15" rx="12.13" ry="25.43" transform="translate(-854.16 908.85) rotate(-61.93)"/><ellipse class="cls-36" cx="344.84" cy="1196.58" rx="12.13" ry="25.43" transform="translate(-883.57 992.3) rotate(-64.48)"/><ellipse class="cls-36" cx="376.54" cy="1187.44" rx="12.13" ry="25.43" transform="translate(-857.27 1015.68) rotate(-64.48)"/><ellipse class="cls-36" cx="424.09" cy="1264.48" rx="12.13" ry="25.43" transform="translate(-489.07 292.42) rotate(-24.67)"/><path class="cls-37" d="M203.71,1184.79a3.81,3.81,0,0,1,3.81-3.81h281.7a3.81,3.81,0,0,1,3.81,3.81c0,75.86-61.72,137.58-137.58,137.58H341.3C265.43,1322.37,203.71,1260.65,203.71,1184.79Zm7.67,3.81c2,69.91,59.52,126.16,129.91,126.16h14.15c70.39,0,127.89-56.25,129.91-126.16Z"/></g><polygon class="cls-38" points="2429.91 2362.5 2457.61 2362.5 2308.98 1965.53 2283.14 1971.33 2322.05 2093.08 2072.59 2093.08 2111.5 1971.33 2085.66 1965.53 1937.04 2362.5 1964.73 2362.5 2065.91 2114 2328.74 2114 2429.91 2362.5"/><path class="cls-39" d="M2327.27,1994.85H2067.37c-51.78,0-92.43-76.58-87.94-136.64l27-361.66c4-53.11,42.16-93.86,87.94-93.86h205.81c45.79,0,84,40.76,87.94,93.86l27,361.66C2419.71,1918.26,2379,1994.85,2327.27,1994.85Z"/><path class="cls-40" d="M2360.14,1880.34c-12.72,21-33.82,34.84-58,34.84H2092.49c-41.87,0-74.56-41.75-71-90.23l21.9-291.72c3.22-42.9,34-75.77,70.86-75.77h139.62c-62.16,51.94-226.58,204.95-151.86,311.45C2193.14,1898.91,2360.14,1880.34,2360.14,1880.34Z"/><path class="cls-41" d="M2373.18,1824.95c1.45,20.54-3.54,39.94-13,55.39,0,0-167,18.57-258.15-111.43-74.72-106.5,89.7-259.51,151.86-311.45h26.57c36.88,0,67.64,32.87,70.86,75.77Z"/><g id="character5"><path class="cls-42" d="M2298.72,1795.82c18.3,2.08,42.81,11.28,58.08,23.57,30.35,24.42,43.57,94.32,43.53,193.12,0,29.18-107.78-85.65-255.26-85.65-104.3,0-215,18.56-226,1.21-52-81.8,120.65-163.24,166-159.72S2259.59,1778,2298.72,1795.82Z"/><path class="cls-43" d="M2313.84,1356.85c87,82.72,206,281.82,151.82,312.84-29.24,16.74-112.22,34.17-161.16,8.69-8.17-4.25,3.14,120-5.78,117.44-49.24-14.32-274.76,3.49-333.93,0-34.31-2-7.19-142.7-42.07-143.46-126.53-2.74-160.37,1.45-171.12-16.12-20.4-33.37,80.07-251.5,180.89-298.16C2001.09,1306.33,2266.19,1311.53,2313.84,1356.85Z"/><path class="cls-42" d="M2286,1803.55c52.12-11.9,92.57,94.15,104.7,125.94s22,322.37,15.62,350.6-76.44,29.26-78.58,8.86C2318.79,2204,2191,1825.24,2286,1803.55Z"/><path class="cls-44" d="M2336.57,2273.44c-4,42.32-38,98.81-17,98.81h106.85c6.25,0,10.09-14.82,3.74-27.25-6.22-12.18-28.29-28.87-34.7-70.12C2393.54,2262.71,2337.74,2261.19,2336.57,2273.44Z"/><path class="cls-42" d="M1913,1813.35c-27.37,27-16.67,111.25-12.79,144.72,3.92,33.8,88.91,288.24,104.94,312.34s69.09,21.39,70,3.89c3.69-73.26,6.91-227.59-37-363.56C2011.71,1829,1939,1787.65,1913,1813.35Z"/><path class="cls-44" d="M2015.42,2264.51c-7.54,43.71-42.72,107.74-21.7,107.74h106.85c24.77,0-23.36-63.91-35.91-107.74C2061.27,2252.68,2017.51,2252.38,2015.42,2264.51Z"/><path class="cls-42" d="M2173.76,1210q1.93-.55,3.87-1c7.59-1.75,13.31-.72,19.75-6.65,1.76-1.62,11-13.2,7.77-15.83a12.16,12.16,0,0,0,17-17.22c6.54-1.4,13.38-1.26,15.82-7.49,5.2-13.25-3.46-19.48-8.84-27a14.21,14.21,0,0,0,7.15-27.4c5.2-5.84,10.72-12.45,10.69-20.27s-9.32-15.38-15.66-10.79c3.18-7.25,2.14-16.69-3.91-21.8s-17-3.57-20.07,3.73a17,17,0,0,0-33.58,3.06c-5.19-7.18-14-10.66-22.25-13.78-5.56-2.1-11.42-4.23-17.31-3.38s-11.63,5.82-11.12,11.74c-7.52-2.58-15.18-5.19-23.12-5.47s-16.37,2.12-21.6,8.1a23.14,23.14,0,0,0-38.48,22.84,19.2,19.2,0,0,0-11.5,34.91,34.39,34.39,0,0,0,6.35,57c-3.67,6.26-5.29,14.21-2.33,20.84s11.41,10.89,17.93,7.68c-3.42,7.81,3.17,17,11.2,19.85s16.86,1.44,25.36.74c15.37-1.26,28.78,3.3,44.43,1C2146.46,1221.16,2159.92,1213.9,2173.76,1210Z"/><path class="cls-45" d="M2158.47,1204.74s22.81,122.54,14.55,139.55c-13.79,28.43-112.12,10.25-128.54-16.74-5.83-9.58,6.38-37.61,13.7-65.54,9.28-35.42,15.12-70.92,15.12-70.92l25,18.19Z"/><path class="cls-46" d="M2200.52,1125.23c6.27,4.81,6.69,22.45,7.57,30A314.5,314.5,0,0,1,2210,1200c-.6,23.3-1.27,59.09-19.48,76.68a23.47,23.47,0,0,1-6.47,4.61c-12.14,5.57-98.66,11.34-110.76-90.19-15.88.87-18.14-62.8,7.64-30.8.85,11.31,2.05,19.13,3.49,25.1,4.17,17.27,11.32,12.6,11.07,3-.31-11.79-3.86-30.36,1.1-41.21,4.38,2.37,12.19,4.66,14.61-2.08a14.41,14.41,0,0,0,27.34-3c1,4,5.54,6.26,9.7,6.5a18.92,18.92,0,0,0,18.51-12.57,11.52,11.52,0,0,0,21.51-7.24c.52,1.87,1.15,3.91,2.78,5,2.38,1.56,5.78.12,7.33-2.27C2199.53,1129.76,2200,1127.2,2200.52,1125.23Z"/><path class="cls-47" d="M2192.24,1563.58a30.69,30.69,0,1,1-30.69,30.69,30.69,30.69,0,0,1,30.69-30.69Zm0-15a45.66,45.66,0,1,0,45.66,45.66,45.71,45.71,0,0,0-45.66-45.66Z"/><rect class="cls-47" x="2183.39" y="1525.91" width="96.32" height="126.51"/><path class="cls-46" d="M2338.91,1621.31c-7.25-8.34-72.89-41-82.68-44.24s-59-3.57-59.84,1.81c-1.72,11.31,52.29,9.79,59.47,13.06,7.66,3.48-69.13-1.93-69.18,8.9,0,10.64,72.38,6,70.05,10.56-1.1,2.18-59.94,1.42-60.41,11.39-.45,9.4,57.42,3,57.72,9.32.15,3.32-48.47-.11-48.8,9.32-.14,3.89,25.1,7.38,54,10.1,38.45,3.63,29.58,18.49,83.35,5.89C2351.39,1655.34,2346.17,1629.65,2338.91,1621.31Z"/><circle class="cls-48" cx="2071.41" cy="1513.95" r="66.86"/><path class="cls-49" d="M2005.21,1460.62c2.72-3.5,14,2.36,17.74,0,4.16-2.68,5.17-16.4,12.82-18.33,9.81-2.48,10.93,8.58,16.67,8.94,8.28.52,24.29-11.36,32.08-8.5,4.33,1.59,6.63,12.71,10.55,15.15,4.42,2.75,13.21-5.34,20.59,3.13,2.79,3.21-4.11,13.72-1.34,17,4.22,4.93,16.87,2.43,20.93,7.49,6.88,8.6-9,23.67-7.08,34.51,1.44,8,17.65,19.34,14,28.27s-13.92,8.16-17.51,10.69c-5.1,3.6-1,20.45-5.94,24.26-3.79,2.91-15-2.81-19.1-.38-2.69,1.59-2.9,9.88-5.78,11.09-11.55,4.83-37.4-7.86-47.86-14.73-7-4.61-18.41-17.84-21.78-25.52-3.45-7.87-2.57-25.69-4.14-34.14C2017.28,1504.55,1995.9,1472.6,2005.21,1460.62Z"/><circle class="cls-50" cx="2061.43" cy="1523.92" r="66.86"/><path class="cls-46" d="M1932.07,1553.14c52.66-28.26,96-39.78,109.7-38.92s37.62,2,46.32,10.65-55,1.61-54.87,8.78,58.86,1.37,58.86,12.25-58.39-.63-58.86,9.33c-.45,9.4,52.33.66,53.06,9.81s-53,3.51-53.06,8.42c-.07,9.07,44.69,4.41,42.36,15.55-1.22,5.83-22.13,1.16-49.47.94-11.43-.09-94,26.6-94-2.41Z"/></g><polygon class="cls-38" points="2513.43 2375.1 2485.74 2375.1 2634.36 1965.53 2660.2 1971.52 2513.43 2375.1"/><polygon class="cls-38" points="2978.61 2375.1 3006.31 2375.1 2857.68 1965.53 2831.84 1971.52 2978.61 2375.1"/><path class="cls-39" d="M2876,1994.85H2616.07c-51.78,0-92.43-76.58-87.94-136.64l27-361.66c4-53.11,42.16-93.86,87.94-93.86h205.81c45.79,0,84,40.76,87.94,93.86l27,361.66C2968.41,1918.26,2927.75,1994.85,2876,1994.85Z"/><path class="cls-40" d="M2908.84,1880.34c-12.72,21-33.82,34.84-58,34.84H2641.19c-41.87,0-74.56-41.75-71-90.23l21.9-291.72c3.22-42.9,34-75.77,70.86-75.77h139.62c-62.16,51.94-226.58,204.95-151.86,311.45C2741.84,1898.91,2908.84,1880.34,2908.84,1880.34Z"/><path class="cls-41" d="M2921.88,1824.95c1.45,20.54-3.54,39.94-13,55.39,0,0-167,18.57-258.15-111.43-74.72-106.5,89.7-259.51,151.86-311.45h26.57c36.88,0,67.64,32.87,70.86,75.77Z"/><rect class="cls-38" x="2603.38" y="2107.09" width="285.27" height="23.22"/><path class="cls-47" d="M2715,1467h93.66a2.21,2.21,0,0,1,2.21,2.21v139.2a13,13,0,0,1-13,13h-72.13a13,13,0,0,1-13-13v-139.2A2.21,2.21,0,0,1,2715,1467Z"/><path class="cls-4" d="M2782.07,1625.76h-40.44c-18.28,0-33.14-13.2-33.14-29.43V1469c0-4.52,4.13-8.19,9.22-8.19H2806c5.09,0,9.22,3.67,9.22,8.19v127.31C2815.21,1612.56,2800.35,1625.76,2782.07,1625.76Zm-64.35-157.26-.59,127.83c0,12,11,21.76,24.5,21.76h40.44c13.51,0,24.5-9.77,24.5-21.76V1469Z"/><path class="cls-4" d="M2772.65,1525.2a6.83,6.83,0,0,1-10.06,0,7.87,7.87,0,0,1,0-10.67,6.83,6.83,0,0,1,10.06,0A7.87,7.87,0,0,1,2772.65,1525.2Z"/><path class="cls-4" d="M2744.19,1558.08a6.83,6.83,0,0,1-10.06,0,7.87,7.87,0,0,1,0-10.67,6.83,6.83,0,0,1,10.06,0A7.87,7.87,0,0,1,2744.19,1558.08Z"/><path class="cls-4" d="M2762.08,1603.36a6.83,6.83,0,0,1-10.06,0,7.87,7.87,0,0,1,0-10.67,6.83,6.83,0,0,1,10.06,0A7.88,7.88,0,0,1,2762.08,1603.36Z"/><path class="cls-4" d="M2779.24,1579.52a3.51,3.51,0,0,1-4.94-1.4,4,4,0,0,1,1.32-5.24,3.51,3.51,0,0,1,4.94,1.4A4,4,0,0,1,2779.24,1579.52Z"/><path class="cls-4" d="M2741.74,1519.86a3.51,3.51,0,0,1-4.94-1.4,4,4,0,0,1,1.32-5.24,3.51,3.51,0,0,1,4.94,1.4A4,4,0,0,1,2741.74,1519.86Z"/><path class="cls-4" d="M2782.86,1534.32a3.51,3.51,0,0,1-4.94-1.4,4,4,0,0,1,1.32-5.24,3.51,3.51,0,0,1,4.94,1.4A4,4,0,0,1,2782.86,1534.32Z"/><rect class="cls-4" x="2715.03" y="1466.98" width="92.31" height="33.55"/><path class="cls-51" d="M2451,1371.52c-4.47-154.11,60.43-217.2,63.19-219.8l9.19,10.12c-.63.6-63.15,62-58.87,209.28Z"/><rect class="cls-52" x="2418.25" y="1343.75" width="79" height="281.08"/><ellipse class="cls-53" cx="2518.77" cy="1153.9" rx="68.15" ry="69.55"/><ellipse class="cls-4" cx="2518.77" cy="1153.9" rx="33.5" ry="34.19"/><rect class="cls-38" x="3166.35" y="2186.58" width="285.27" height="23.22" transform="translate(6617.97 4396.37) rotate(180)"/><polygon class="cls-54" points="3601.37 2444.3 3629.06 2444.3 3480.43 2003.72 3454.6 2010.16 3601.37 2444.3"/><polygon class="cls-38" points="3540.74 2444.3 3568.43 2444.3 3419.8 2003.72 3393.97 2010.16 3540.74 2444.3"/><polygon class="cls-38" points="3084.55 2444.3 3056.86 2444.3 3205.49 2003.72 3231.32 2010.16 3084.55 2444.3"/><polygon class="cls-54" points="3145.18 2444.3 3117.49 2444.3 3266.11 2003.72 3291.95 2010.16 3145.18 2444.3"/><path class="cls-41" d="M3241.31,2003.72h219.34c82.73,0,189.92-62.41,189.92-139.4V1467a23.83,23.83,0,0,0-23.59-24.07h-16.53c-203.87,0-139.09,155.06-139.09,321.84S3241.31,2003.72,3241.31,2003.72Z"/><path class="cls-39" d="M3650.57,1864.32V1466.19c0-13-10.81-23.38-23.53-22.52-175.18,11.86-115.56,161.07-115.56,321.08,0,107.6-101.83,186.16-174.1,228.39H3092V1997c0,17.44,13.86,31.59,30.95,31.59h387c.77,0,1.49-.17,2.24-.23C3591.42,2023.62,3650.57,1939.11,3650.57,1864.32Z"/><rect class="cls-54" x="3235.06" y="2142.3" width="285.27" height="23.22" transform="translate(6755.4 4307.82) rotate(180)"/><path class="cls-55" d="M3221.8,1621.19c-54.38-24.18-133.08-52.48-191.62-75.06-11.65-4.5-36.48-8-43.94-9.45-11.66-2.57-20.65-5.17-25.66-5.65-41.31-4-59.72,40.56-48.47,57.7,4.24,6.46,10.78,14.7,18.6,15.62,5.52.65,2.34-17.9,7.88-17.41,11.91,1.06,24.07,15.8,39.89,12.94,15.25-2.75,23.93-7.8,33.12-11.64a19.52,19.52,0,0,0,9.5-8.4c51.67,68.64,95.54,169.16,144.4,183.86C3275.35,1796.74,3290.85,1651.9,3221.8,1621.19Z"/><path class="cls-56" d="M2903,1493.61l59.08,170.75a3.22,3.22,0,0,1-6.06,2.18l-63.13-169.29a5.37,5.37,0,1,1,10.06-3.75Z"/><path class="cls-56" d="M2939.18,1486.05l17.56,179.83a3.22,3.22,0,0,1-6.41.7l-21.83-179.36a5.37,5.37,0,1,1,10.66-1.3Z"/><path class="cls-55" d="M3004.21,1574.79c-23,13.55-38.27,1.78-52.63-.5s-48.54,6.08-43.79-6.36c3.26-8.55,45.86-5.54,53.12-15.61Z"/><path class="cls-57" d="M2982.39,1584.41c-7.87,0-14.72-2.18-20.79-4.12a74.41,74.41,0,0,0-10.52-2.82c-4.51-.72-11.58-.27-18.41.16-12.63.79-23.53,1.48-27.28-3.62-1-1.37-1.94-3.75-.61-7.23,2.16-5.66,11.52-7.16,26.62-9.14,10.68-1.4,24-3.15,26.9-7.2a3.22,3.22,0,1,1,5.23,3.77c-4.55,6.31-17.54,8-31.29,9.82-7.59,1-20.29,2.66-21.43,5.06a2.28,2.28,0,0,0-.23,1.11s.81,1.17,6.37,1.47a144.24,144.24,0,0,0,15.32-.46c7.18-.45,14.61-.92,19.82-.09a79,79,0,0,1,11.47,3c11.29,3.59,23,7.31,39-2.14a3.22,3.22,0,0,1,3.27,5.55C2997.13,1582.69,2989.37,1584.41,2982.39,1584.41Z"/><path class="cls-58" d="M3307.9,1400.65c-35.87,27.2-100.18,181.89-99.17,188.5s76,46.68,109.5,41.8c10.08-1.47,15.52-40.56,15.52-40.56Z"/><path class="cls-29" d="M3274.91,1550.47c34.2,106.7-39.77,223.58-28.88,240.4s75.4,10.92,113.62,37.77c47.81,33.58,166.64,37,181.09,12.65,5.16-8.7,40.73-97.84,55.35-209.86,12.17-5.32,79.5-6.66,91.67-28.41,7.62-13.61-10.47-155-66.29-197.48-13.65-10.38-102.62-64.51-188.52-55.65-61.36,6.33-122.61,47.52-125.05,50.77C3299.67,1411.61,3262.73,1512.45,3274.91,1550.47Z"/><path class="cls-42" d="M3498.35,1302.15c-4.47,8.41-16.49,6.68-26.09,5.52-9.25-1.12-77.45-120.16-90.73-116-49,15.54-59.82-58.11-49.6-72.52,36.33-51.21,187-24.24,196,15.19C3533.27,1157.79,3505.28,1289.11,3498.35,1302.15Z"/><path class="cls-59" d="M3497,1357.16c-6.93,15-125.41,56.64-110.33,3.44,4.24-35.43,13.69-44.24,16.42-81.75,0,0,68.06-21.76,84.48-42.52C3483.21,1281.35,3491,1342.16,3497,1357.16Z"/><path class="cls-55" d="M3361.67,1157c-27.89,84.28-1.82,172.25,33.9,173.37,39.59,1.24,87.65-46.31,95.2-107.5,7.12,3.07,28.66-32.57,17.75-41.19-7.4-5.84-18.9,7.56-21.49,12.23.47,8.61-.21,48.87-11.21,49.78-9.34.78,3.57-43.81-4.33-44.1-20-.73-35.5-18.23-54.05-25.31C3377.16,1181.85,3361.4,1162.41,3361.67,1157Z"/><g class="cls-60"><polygon class="cls-61" points="2661.65 1769.48 3431.21 1769.48 3431.21 2300.48 2647.02 2329.24 2661.65 1769.48"/><path class="cls-61" d="M3193.64,2302h-482l-66.11,28.76,14.63-315.34h-5.7q9.93-18.6,21.48-36.86c61.63-97.28,146.39-167,233.63-201.05a353,353,0,0,1,65.56-18.74v9.17h126.15v-3.54a229.62,229.62,0,0,1,56.71,25.9c143,90.58,159,321.72,35.7,516.27Z"/><path class="cls-62" d="M3181.47,2298.86q-2.75,4.35-5.57,8.61V2302l-530.42,28.76,14.63-273.67h-9.9a538.83,538.83,0,0,1,37.85-70.83c58.73-92.7,139.51-159.14,222.65-191.6s168.61-31,236.74,12.19C3283.7,1893.18,3298.93,2113.46,3181.47,2298.86Z"/><path class="cls-63" d="M3169.31,2291.15q-5.23,8.26-10.71,16.23V2302l-513.11,28.76,14.63-235.2h-9.46q6.07-17.16,13.6-34.25a512.21,512.21,0,0,1,36-67.34c55.83-88.13,132.63-151.29,211.66-182.15s160.3-29.44,225.06,11.59C3266.49,1905.48,3281,2114.89,3169.31,2291.15Z"/><path class="cls-64" d="M3157.14,2283.45q-5,7.83-10.15,15.39-2.59,3.78-5.24,7.48V2302l-496.26,28.76,14.63-200.23h-4.86a470.58,470.58,0,0,1,57.14-128.85c105.87-167.12,291.26-239.52,414.07-161.72S3263,2116.33,3157.14,2283.45Z"/><path class="cls-65" d="M3145,2275.74q-9.38,14.81-19.61,28.56V2302l-473,28.76v3.29c-4.67-17.37,7-64.43,5.65-83.4-5.25-75.86,16.53-162.28,66.57-241.26,100.08-158,275.32-226.42,391.42-152.87S3245.05,2117.76,3145,2275.74Z"/><path class="cls-66" d="M3132.81,2268q-8.84,14-18.48,26.9-4.81,6.47-9.8,12.69V2302l-433.08,28.76v6q-1.94-6-3.59-12.1c-4.4-16.36,7.4-62.37,6.17-80.24-4.94-71.47,15.57-152.88,62.72-227.3,94.29-148.83,259.39-213.31,368.76-144S3227.09,2119.2,3132.81,2268Z"/><path class="cls-67" d="M3120.64,2260.32a405.94,405.94,0,0,1-36.07,48.58V2302H2705.28v6.83a220.41,220.41,0,0,1-7.3-22.38,253.41,253.41,0,0,1-7.94-48.31c-4.64-67.08,14.62-143.49,58.86-213.33,88.49-139.69,243.45-200.21,346.1-135.17S3209.13,2120.63,3120.64,2260.32Z"/><path class="cls-68" d="M3108.47,2252.61a379.31,379.31,0,0,1-33.71,45.4q-4.52,5.22-9.18,10.21V2302h-341.1v5.91q-2.22-4.89-4.18-10a206.17,206.17,0,0,1-6.82-20.91,236.83,236.83,0,0,1-7.42-45.15c-4.34-62.69,13.66-134.1,55-199.37,82.7-130.54,227.51-187.1,323.45-126.32S3191.17,2122.07,3108.47,2252.61Z"/><path class="cls-69" d="M3096.3,2244.91a352.75,352.75,0,0,1-31.35,42.22q-8.41,9.71-17.33,18.54V2302H2743.58v3.26c-12.28-23.37-19.49-50.49-21.5-79.64-4-58.3,12.7-124.7,51.16-185.4,76.91-121.4,211.58-174,300.79-117.48S3173.21,2123.51,3096.3,2244.91Z"/><path class="cls-70" d="M3084.14,2237.2a316.1,316.1,0,0,1-61.86,71.68V2302h-254.9v6.54A149,149,0,0,1,2758,2293c-11.35-21.61-18-46.68-19.88-73.64-3.73-53.91,11.75-115.31,47.3-171.44,71.12-112.25,195.64-160.89,278.13-108.63S3155.25,2124.94,3084.14,2237.2Z"/><path class="cls-71" d="M3072,2229.49a290.36,290.36,0,0,1-56.82,65.84q-7.91,6.73-16.12,12.66v-6H2791.24V2308a132.19,132.19,0,0,1-18.86-27.19c-10.43-19.85-16.55-42.88-18.26-67.64-3.42-49.52,10.79-105.92,43.45-157.47,65.32-103.11,179.7-147.78,255.48-99.78S3137.29,2126.38,3072,2229.49Z"/><path class="cls-72" d="M3059.8,2221.78a264.59,264.59,0,0,1-51.78,60,231.52,231.52,0,0,1-29.84,21.6V2302H2827v10.7c-69.05-43.75-76.77-155.39-17.24-249.35s163.77-134.68,232.82-90.93S3119.33,2127.81,3059.8,2221.78Z"/><path class="cls-73" d="M3047.64,2214.07c-26.87,42.41-63.83,72.8-101.86,87.66-19,7.43-38.3,11-56.73,10.19a103.59,103.59,0,0,1-51.58-15.76c-62.33-39.49-69.3-140.27-15.57-225.09s147.83-121.57,210.17-82.08S3101.37,2129.25,3047.64,2214.07Z"/><path class="cls-74" d="M3035.47,2206.36c-24,37.84-56.95,65-90.88,78.21s-68.82,12.64-96.63-5c-55.61-35.23-61.83-125.15-13.89-200.82s131.9-108.47,187.51-73.23S3083.41,2130.69,3035.47,2206.36Z"/><ellipse class="cls-75" cx="2934.77" cy="2142.57" rx="142.61" ry="104.8" transform="translate(-445.75 3475.07) rotate(-57.64)"/><ellipse class="cls-76" cx="2934.77" cy="2142.57" rx="123.01" ry="90.4" transform="translate(-445.75 3475.07) rotate(-57.64)"/><ellipse class="cls-77" cx="2934.77" cy="2142.57" rx="103.41" ry="76" transform="translate(-445.75 3475.07) rotate(-57.64)"/><ellipse class="cls-78" cx="2934.77" cy="2142.57" rx="83.81" ry="61.59" transform="translate(-445.75 3475.07) rotate(-57.64)"/><ellipse class="cls-79" cx="2934.77" cy="2142.57" rx="64.21" ry="47.19" transform="translate(-445.75 3475.07) rotate(-57.64)"/><ellipse class="cls-79" cx="2934.77" cy="2142.57" rx="44.62" ry="32.79" transform="translate(-445.75 3475.07) rotate(-57.64)"/></g><path class="cls-58" d="M3546.88,1623.88a2.69,2.69,0,0,1-2.48-1.66c-2.29-5.5-5.78-18-9.16-30-2.4-8.58-4.67-16.69-6.27-21.43a2.69,2.69,0,0,1,5.09-1.72c1.64,4.87,3.93,13,6.36,21.7,3.18,11.36,6.78,24.23,8.95,29.43a2.69,2.69,0,0,1-2.48,3.72Z"/><path class="cls-61" d="M3530.61,1849.2c2.12,38.69-15.47,110.18-50.55,123-123,45-330,19-345.56,26,.12,0-23.09,98.1-68.21,138.87-113,102.08-296.79,189.87-299.46,192.49-3.39,3.34-41.18-16.3-41.18-36.7,0-14.81,225.68-298.61,267.56-362.55,44.54-68,290.5-119.28,382-122.49C3416.31,1806.36,3528.3,1807.2,3530.61,1849.2Z"/><path class="cls-80" d="M2680.52,2374.06c-8.75,3.12-161.4-40.42-158.18-21.91,6.64,38.22,169.65,106.43,175.32,101.07,15.44-14.59,19.18-57.74,11.16-60.37C2697.23,2389.05,2680.52,2374.06,2680.52,2374.06Z"/><path class="cls-55" d="M3678.25,1611.21c7.73,74.07-.15,175-21.27,187.92s-89.08,26-126.36,26.85c-49.2,1.14-185.9-37-185.9-37s3.78-37.94,15.52-37.74c33.59.55,130.75-50.92,203.78-45.86-3.71-21.75-7.64-76.09-7.64-76.09a528.11,528.11,0,0,0,66.59-4.48C3656.57,1620.18,3678.25,1611.21,3678.25,1611.21Z"/><path class="cls-55" d="M3369.12,1751.83c-5-23-22.14-39.41-33.11-44.64s-27.08-.4-27.08-.4-4.83,34.19,0,44.48,35.78,37.74,35.78,37.74S3373.7,1772.89,3369.12,1751.83Z"/><polygon class="cls-81" points="3150.49 1804.53 3326.35 1804.53 3338.56 1672.75 3138.27 1672.75 3150.49 1804.53"/><polygon class="cls-82" points="3138.27 1672.75 3152.88 1598.82 3268.16 1589.15 3326.1 1672.75 3138.27 1672.75"/><polygon class="cls-83" points="3138.27 1672.75 3091.44 1607.53 3114.86 1595.06 3146.77 1672.75 3138.27 1672.75"/><polygon class="cls-83" points="3338.56 1672.75 3389.45 1607.53 3373.48 1598.82 3332.73 1672.75 3338.56 1672.75"/><polygon class="cls-83" points="3146.77 1672.75 3208.11 1603.02 3322.06 1598.82 3332.73 1672.75 3146.77 1672.75"/><path class="cls-55" d="M3369.12,1792.69c-6.15,14-108.85,23.68-113.49,15.12-4-7.4,36.7-10.19,39.92-18.78s-69.28-2.78-68.2-11.37,59.57-6.09,61.58-12.53-71.25-7.09-67-18.23,58.19,4.12,61.27-3.79-46.86-25.87-38.33-36.28c5.34-6.51,33.92,11.26,53.31,19.63a132.32,132.32,0,0,0,34.5,9.2Z"/><path class="cls-55" d="M2764.43,2329.92c-8.42,9.18-53.83,67.81-57.59,68.89s-64.44-17.23-67.67-24.75,13.75-13.52,20.69-16.6,68.28-70.34,75.57-70.7S2769,2324.95,2764.43,2329.92Z"/><path class="cls-61" d="M2500.61,2254.3c33.83-5.78,108.66,61.18,118.24,76.78s33.2,48.89,31.06,61.78-8.67,33.29-16.11,32S2493.1,2255.58,2500.61,2254.3Z"/><path class="cls-84" d="M2500.61,2254.3c-23.54-2.35,117.3,161.67,133.18,170.59S2532.84,2257.52,2500.61,2254.3Z"/><path class="cls-55" d="M2669.91,2256.68c-10.45,17.36-40.22,74.91-51.05,74.39s22.36,50.94,28.86,49.91,57.1-73.55,71.6-89.93C2725.68,2283.86,2679.88,2240.11,2669.91,2256.68Z"/><g id="clock"><rect class="cls-85" x="443.54" y="615.87" width="14.14" height="216.79" transform="translate(-214.53 190.22) rotate(-19.35)"/><rect class="cls-85" x="431.28" y="772.11" width="150.79" height="14.14" transform="translate(-319.49 353.4) rotate(-29.7)"/><rect class="cls-85" x="464.42" y="613.38" width="14.14" height="49.9"/><rect class="cls-85" x="384.34" y="634.84" width="14.14" height="49.9" transform="translate(-277.46 284.1) rotate(-30)"/><rect class="cls-85" x="325.71" y="693.46" width="14.14" height="49.9" transform="translate(-455.77 647.4) rotate(-60)"/><rect class="cls-85" x="286.37" y="791.42" width="49.9" height="14.14"/><rect class="cls-85" x="307.83" y="871.51" width="49.9" height="14.14" transform="matrix(0.87, -0.5, 0.5, 0.87, -394.71, 284.1)"/><rect class="cls-85" x="366.46" y="930.14" width="49.9" height="14.14" transform="translate(-615.94 807.56) rotate(-60)"/><rect class="cls-85" x="464.42" y="933.72" width="14.14" height="49.9"/><rect class="cls-85" x="544.51" y="912.26" width="14.14" height="49.9" transform="translate(-394.71 401.35) rotate(-30)"/><rect class="cls-85" x="603.13" y="853.63" width="14.14" height="49.9" transform="translate(-455.77 967.74) rotate(-60)"/><rect class="cls-85" x="606.71" y="791.42" width="49.9" height="14.14"/><rect class="cls-85" x="585.26" y="711.34" width="49.9" height="14.14" transform="translate(-277.45 401.35) rotate(-30)"/><rect class="cls-85" x="526.63" y="652.71" width="49.9" height="14.14" transform="translate(-295.6 807.56) rotate(-60)"/></g><ellipse class="cls-86" cx="1311.66" cy="2290.68" rx="196.56" ry="41.58"/><g id="character3"><path class="cls-42" d="M1435.34,793.56c12.73-33.75,9.42-122.29-69.94-106.22-71.4-10.2-96.52,23.4-100.35,87.69a3.61,3.61,0,0,1-5.76,2.54c-11.58-8.56-34.94-1.62-38.36,26.79-11.23,93.24,144.56,147.32,210.49,71.28,12.46-14.37,23-47.4,17.82-64.15C1444.18,795.07,1433.28,799,1435.34,793.56Z"/><path class="cls-55" d="M1427.41,972.86c-16.3.8-29.27,63-13.84,99.92,21.76,52,48.68,124.34,49.09,145,.37,18.49,22.89,51.66,50.46,42.93C1539.6,1252.34,1469.81,970.79,1427.41,972.86Z"/><path class="cls-55" d="M1237.9,972.86c16.3.8,29.27,63,13.84,99.92-21.76,52-53.84,154.18-53,180.24.58,18.48-16.89,28.09-46.53,7.7C1123.81,1241.19,1195.5,970.79,1237.9,972.86Z"/><path class="cls-87" d="M1429.09,2240l31.47,59.64a10.17,10.17,0,0,1-9,14.91h-64.25a10.17,10.17,0,0,1-10.12-11.17l6.77-68Z"/><path class="cls-55" d="M1418.72,1779.47c18.16,38.88,44.73,132.13,44.73,154.88,0,37.7-44.35,213.09-39.78,290.17,26.68,55.76,25.69,77.86,3.4,81.86-45.46,8.16-41.25-37.25-42.66-63.59-4.85-90.78-36.23-236.23-36.23-281.05,0-33.36,2.3-146.15,7.35-164.21S1406.08,1752.42,1418.72,1779.47Z"/><path class="cls-87" d="M1454.77,2314.53a7.79,7.79,0,0,0,6.16-12.54c-10.54-13.89-26.9-24.68-41.8-23.1-22.32,2.37-33.34,14.61-38.59,24.09a7.78,7.78,0,0,0,6.81,11.54Z"/><path class="cls-87" d="M1229.59,2240l-31.47,59.64a10.17,10.17,0,0,0,9,14.91h64.25a10.17,10.17,0,0,0,10.12-11.17l-6.77-68Z"/><path class="cls-55" d="M1240,1779.47c-18.16,38.88-44.73,132.13-44.73,154.88,0,37.7,44.35,213.09,39.78,290.17-26.68,55.76-25.64,77.61-3.4,81.86,32.57,6.22,41.25-37.25,42.66-63.59,4.85-90.78,36.23-236.23,36.23-281.05,0-33.36-2.3-146.15-7.35-164.21S1252.6,1752.42,1240,1779.47Z"/><path class="cls-87" d="M1203.9,2314.53a7.79,7.79,0,0,1-6.16-12.54c10.54-13.89,26.9-24.68,41.8-23.1,22.32,2.37,33.34,14.61,38.59,24.09a7.78,7.78,0,0,1-6.81,11.54Z"/><path class="cls-88" d="M1420.13,1262c189.74,159.78,211.66,553.76,173,537.65-10.83-4.51-20.2,23.31-36,26.92s-44.45-13.4-64-10.82-29.7,24.74-51.48,26.35c-20.93,1.55-42.57-27.06-64.52-26.35-22.16.72-44.63,30.73-66.65,30.64-19.89-.08-38.78-29.94-57.63-30.64-23.85-.89-47.21,27.2-67.81,25.38-22-1.94-32-31.06-48.27-34-22.46-4-50.23,1.05-56.65-4.65-10.32-9.18,10.65-380.73,168.37-528.87C1264.66,1258.5,1420.13,1262,1420.13,1262Z"/><path class="cls-89" d="M1420.13,1262c1.7-15.76-6.31-91.9,2.17-119.08,2.56-8.2,18.25-14.31,22.33-47.63.73-5.93-9.92-37.24-13.39-62.63-4.38-32.1-2.07-58.94-3.84-59.84-19.74-10-73.2-44.35-94.77-44.66-21.57.31-75,34.64-94.77,44.66-1.77.9.54,27.74-3.84,59.84-3.47,25.39-14.11,56.7-13.39,62.63,4.08,33.31,19.78,39.43,22.33,47.63,8.49,27.19,5.9,114.88,5.52,130.73C1248,1295.75,1416.39,1296.77,1420.13,1262Z"/><path class="cls-59" d="M1363.35,837.54c-13.74,63.19-2.6,94.41,2.38,108.55,9.56,27.12-7.91,115.05-21.48,118-27.08,5.79-60.66-111.76-50.34-121.6,22.46-21.43,12.1-96.18,4.23-137C1293.44,781.12,1363.35,837.54,1363.35,837.54Z"/><path class="cls-55" d="M1327.43,767.8c-1.61,2.92-3.22,5.8-4.83,8.61a12.12,12.12,0,0,1-17.52,3.78c-14.76-10.2-22.5,20.81-2.31,34.41,7.28,40,44.86,83.28,83.87,75.94,19.83-3.73,57.67-74.36,32.3-141.33C1395.88,751.59,1344.29,737.25,1327.43,767.8Z"/><path class="cls-55" d="M1485.17,1191.43c-9.68-15.76-85.64-68.83-136.06-106-18.88-.6-18.88-.6-4.6,24.41,35.48,62.1,75.61,125.76,146,154.65,13.89,5.7,22.3-.86,25-5.68C1522.72,1246,1497,1210.74,1485.17,1191.43Z"/><polygon class="cls-36" points="1257.38 1154.22 1306.33 1154.22 1315.74 1043.14 1247.96 1043.14 1257.38 1154.22"/><circle class="cls-90" cx="1281.85" cy="1095.54" r="25.3"/><path class="cls-36" d="M1290.15,1080.15l-19.86,28.5a1.56,1.56,0,0,1-2.51.08c-4.66-5.83-4.65-15.13.56-22.6s13.93-10.71,21-8.36A1.57,1.57,0,0,1,1290.15,1080.15Z"/><path class="cls-36" d="M1293.33,1082.32a1.57,1.57,0,0,1,2.5-.09c4.76,5.82,4.77,15.2-.47,22.72s-14,10.76-21.15,8.31a1.57,1.57,0,0,1-.78-2.37Z"/><polygon class="cls-91" points="1242 1049.84 1321.71 1049.84 1318.57 1033.84 1245.13 1033.84 1242 1049.84"/><polygon class="cls-91" points="1248.27 1043.25 1315.43 1043.25 1312.3 1027.24 1251.41 1027.24 1248.27 1043.25"/><path class="cls-55" d="M1349.11,1085.48c-31.17-8.24-55.26-24.93-62.78-25.33s-24.11,7.89-23.55,12.24c.88,6.77,21.64-7.46,23,1-.18,1-29.52,8.33-27,13.69,2.62,5.54,22.95-2.69,23.64-1.15-3.87,2-23.23,5.15-21.42,9.23,3.13,7.06,22.48.11,23.11,1,1.63,2.3-10.69,10.55-9.28,12,4.63,4.72,9.62-2.56,15.57-3.61,5.34-.95,32.26,12.34,44.46,12.5s19.43-9.33,19.43-9.33Z"/><path class="cls-55" d="M1206.33,1265.69c8.24,16.55,7.5,99.84,21.4,154.25,6.48,25.35-13,33.61-26.68,8.25-33.9-63-56.81-129.69-53.88-205.78C1148.24,1194.66,1192.45,1237.81,1206.33,1265.69Z"/><path class="cls-55" d="M1219.25,1407.53c6,10.32,11.91,17.16,15.9,19.08,4.39,2.11,19.91,5.26,22.83,9.84s6.36,15.68,9.44,22,8,9,6.2,10.57-8.37,1.64-11.55-1.78-4-17.13-11-15.35c-5.11,1.28,27,54.05,22.66,57.15-5.29,3.8-19.11-29.59-22.45-30.41s19.54,37.72,16,40.54c-6.5,5.21-21.64-35.39-24.89-34.28-2.11.72,18.68,33,16.16,34.86-6.66,4.89-22-31.35-25.48-30.31-1.23.37-.39,6.66,2.56,12.91,2.7,5.73,7.36,9.31,5.61,11.79s-7-2.5-10.44-8.06c-4.09-6.51-4.88-9.61-8.39-15.77-2.91-5.11-15.32-23.24-17.07-29.87-3.79-14.34-.7-24.59-3.09-29.35s-7.13-14-5.17-17.17C1200.4,1408.44,1216,1402,1219.25,1407.53Z"/></g><rect class="cls-38" x="1599.05" y="2204.1" width="285.27" height="23.22"/><polygon class="cls-38" points="1509.93 2461.82 1482.24 2461.82 1630.87 2021.24 1656.7 2027.68 1509.93 2461.82"/><polygon class="cls-54" points="1905.49 2461.82 1933.18 2461.82 1784.56 2021.24 1758.72 2027.68 1796.77 2159.82 1558.03 2159.82 1596.07 2027.68 1570.24 2021.24 1530.34 2159.82 1530.34 2159.82 1530.34 2159.82 1421.61 2461.82 1449.31 2461.82 1551.34 2183.04 1803.45 2183.04 1905.49 2461.82"/><polygon class="cls-38" points="1966.12 2461.82 1993.81 2461.82 1845.19 2021.24 1819.35 2027.68 1966.12 2461.82"/><path class="cls-41" d="M1809.36,2021.24H1590c-82.73,0-189.92-62.41-189.92-139.4V1484.51a23.83,23.83,0,0,1,23.59-24.07h16.53c203.87,0,139.09,155.06,139.09,321.84S1809.36,2021.24,1809.36,2021.24Z"/><path class="cls-39" d="M1713.3,2010.66c-72.28-42.22-174.1-120.79-174.1-228.39,0-160,59.62-309.22-115.56-321.08-12.72-.86-23.53,9.51-23.53,22.52v398.13c0,74.79,59.15,159.3,138.38,164.06.75.06,1.47.23,2.24.23h387c17.09,0,30.95-14.14,30.95-31.59v-3.89Z"/><path class="cls-38" d="M3184,1686.26H1548.93v-40.73c0-11.43,8.75-20.69,19.53-20.69h1596c10.79,0,19.53,9.27,19.53,20.69Z"/><path class="cls-52" d="M2988.15,1747.68H1744.8a61.42,61.42,0,0,1-61.42-61.42H3049.57A61.42,61.42,0,0,1,2988.15,1747.68Z"/><rect class="cls-92" x="1846.11" y="1747.68" width="54.12" height="722.75"/><rect class="cls-92" x="2780.33" y="1747.68" width="54.12" height="722.75"/></g></g></g></svg>