<svg id="icons" enable-background="new 0 0 64 64" height="512" viewBox="0 0 64 64" width="512" xmlns="http://www.w3.org/2000/svg"><path d="m45.5 14h-30c-.54 0-1 .46-1 1v34.01c0 .54.46 1 1 1h30c.54 0 1-.46 1-1v-34.01c0-.54-.46-1-1-1z" fill="#ed5565"/><path d="m15.5 53.01h30c-1.66 0-3 1.34-3 3v3.99.01c0 1.65-1.34 2.99-3 2.99h-18c-1.66 0-3-1.34-3-2.99v-.01-4c0-1.65-1.34-2.99-3-2.99z" fill="#656d78"/><path d="m51.5 20.01h-2.001v7h2.001c.55 0 1-.45 1-1v-5c0-.55-.45-1-1-1z" fill="#ccd1d9"/><path d="m42.5 8.01c0 1.65 1.34 2.99 3 2.99h-30c1.66 0 3-1.34 3-3v-3.99-.01c0-1.66 1.34-3 3-3h18c1.66 0 3 1.34 3 3v.01z" fill="#656d78"/><path d="m45.5 50.01c.54 0 1-.46 1-1v-34.01c0-.54-.46-1-1-1h-30c-.54 0-1 .46-1 1v34.01c0 .54.46 1 1 1zm0-39.01c2.2 0 4 1.8 4 4v5.01 7 22c0 2.2-1.8 4-4 4h-30c-2.2 0-4-1.8-4-4v-34.01c0-2.2 1.8-4 4-4z" fill="#e6e9ed"/><path d="m21 27c.83 0 1.5.68 1.5 1.5 0 .83-.67 1.5-1.5 1.5s-1.5-.67-1.5-1.5c0-.82.67-1.5 1.5-1.5z" fill="#da4453"/><path d="m40 27c.83 0 1.5.68 1.5 1.5 0 .83-.67 1.5-1.5 1.5s-1.5-.67-1.5-1.5c0-.82.67-1.5 1.5-1.5z" fill="#da4453"/><path d="m35.03 19.94c.63.619.939 1.439.939 2.26 0 .819-.31 1.64-.939 2.27l-4.53 4.53-4.53-4.53c-1.25-1.25-1.25-3.279 0-4.529s3.28-1.25 4.53 0c1.25-1.251 3.28-1.251 4.53-.001z" fill="#f5f7fa"/><g fill="#656d78"><path d="m26.504 38.001h-7.004c-.553 0-1-.447-1-1s.447-1 1-1h7.004c.553 0 1 .447 1 1s-.447 1-1 1z"/><path d="m41.504 38.001h-7.004c-.553 0-1-.447-1-1s.447-1 1-1h7.004c.553 0 1 .447 1 1s-.447 1-1 1z"/><path d="m26.503 38.001c-.15 0-.303-.034-.446-.105-.494-.247-.694-.848-.447-1.342l1.999-3.999c.246-.494.848-.693 1.342-.447.494.247.694.848.447 1.342l-1.999 3.999c-.175.35-.529.552-.896.552z"/><path d="m32.502 41.999c-.367 0-.721-.202-.896-.553l-3.998-7.997c-.247-.494-.047-1.095.447-1.342.494-.246 1.096-.047 1.342.447l3.998 7.997c.247.494.047 1.095-.447 1.342-.143.072-.296.106-.446.106z"/><path d="m32.5 41.999c-.15 0-.303-.034-.446-.105-.494-.247-.694-.848-.447-1.342l1.999-3.998c.248-.494.848-.692 1.342-.447.494.247.694.848.447 1.342l-1.999 3.998c-.176.35-.529.552-.896.552z"/></g><path d="m36.5 46.002h-12c-.553 0-1-.447-1-1s.447-1 1-1h12c.553 0 1 .447 1 1s-.447 1-1 1z" fill="#da4453"/></svg>