<?xml version="1.0" encoding="utf-8"?>
<!-- Generator: Adobe Illustrator 21.1.0, SVG Export Plug-In . SVG Version: 6.00 Build 0)  -->
<svg version="1.1" id="Layer_1" xmlns="http://www.w3.org/2000/svg" xmlns:xlink="http://www.w3.org/1999/xlink" x="0px" y="0px"
	 viewBox="0 0 1000 500" style="enable-background:new 0 0 1000 500;" xml:space="preserve">
<style type="text/css">
	.st0{fill:#26AE8C;}
	.st1{opacity:0.3;}
	.st2{fill:#FFFFFF;}
	.st3{opacity:0.5;}
	.st4{opacity:0.7;}
	.st5{opacity:0.6;}
	.st6{opacity:0.8;}
	.st7{fill:#59C5C9;}
	.st8{fill:#005461;}
	.st9{fill:#B0E3E6;}
	.st10{fill:#A8DFD1;}
	.st11{fill:#D86459;}
	.st12{opacity:0.1;fill:#1D1D1B;}
	.st13{opacity:0.5;fill:#59C5C9;}
	.st14{opacity:8.000000e-02;fill:#1D1D1B;}
	.st15{opacity:0.1;}
	.st16{fill:#1D1D1B;}
	.st17{opacity:0.4;fill:#FFFFFF;}
	.st18{opacity:0.7;fill:#FFFFFF;}
	.st19{fill:#7DCEBA;}
</style>
<rect class="st0" width="1000" height="500"/>
<g class="st1">
	<g>
		<path class="st2" d="M749.4,132.1h-0.3c-0.8,0-1.5-0.7-1.5-1.5s0.7-1.5,1.5-1.5h0.3c0.8,0,1.5,0.7,1.5,1.5
			S750.2,132.1,749.4,132.1z"/>
	</g>
	<g>
		<path class="st2" d="M863.4,132.1h-0.5c-0.8,0-1.5-0.7-1.5-1.5s0.7-1.5,1.5-1.5h0.5c0.8,0,1.5,0.7,1.5,1.5
			S864.2,132.1,863.4,132.1z M855.8,132.1h-0.5c-0.8,0-1.5-0.7-1.5-1.5s0.7-1.5,1.5-1.5h0.5c0.8,0,1.5,0.7,1.5,1.5
			S856.6,132.1,855.8,132.1z M848.2,132.1h-0.5c-0.8,0-1.5-0.7-1.5-1.5s0.7-1.5,1.5-1.5h0.5c0.8,0,1.5,0.7,1.5,1.5
			S849,132.1,848.2,132.1z M840.6,132.1h-0.5c-0.8,0-1.5-0.7-1.5-1.5s0.7-1.5,1.5-1.5h0.5c0.8,0,1.5,0.7,1.5,1.5
			S841.4,132.1,840.6,132.1z M833,132.1h-0.5c-0.8,0-1.5-0.7-1.5-1.5s0.7-1.5,1.5-1.5h0.5c0.8,0,1.5,0.7,1.5,1.5
			S833.8,132.1,833,132.1z M825.4,132.1h-0.5c-0.8,0-1.5-0.7-1.5-1.5s0.7-1.5,1.5-1.5h0.5c0.8,0,1.5,0.7,1.5,1.5
			S826.2,132.1,825.4,132.1z M817.8,132.1h-0.5c-0.8,0-1.5-0.7-1.5-1.5s0.7-1.5,1.5-1.5h0.5c0.8,0,1.5,0.7,1.5,1.5
			S818.6,132.1,817.8,132.1z M810.2,132.1h-0.5c-0.8,0-1.5-0.7-1.5-1.5s0.7-1.5,1.5-1.5h0.5c0.8,0,1.5,0.7,1.5,1.5
			S811,132.1,810.2,132.1z M802.6,132.1h-0.5c-0.8,0-1.5-0.7-1.5-1.5s0.7-1.5,1.5-1.5h0.5c0.8,0,1.5,0.7,1.5,1.5
			S803.4,132.1,802.6,132.1z M795,132.1h-0.5c-0.8,0-1.5-0.7-1.5-1.5s0.7-1.5,1.5-1.5h0.5c0.8,0,1.5,0.7,1.5,1.5
			S795.8,132.1,795,132.1z M787.4,132.1h-0.5c-0.8,0-1.5-0.7-1.5-1.5s0.7-1.5,1.5-1.5h0.5c0.8,0,1.5,0.7,1.5,1.5
			S788.2,132.1,787.4,132.1z M779.8,132.1h-0.5c-0.8,0-1.5-0.7-1.5-1.5s0.7-1.5,1.5-1.5h0.5c0.8,0,1.5,0.7,1.5,1.5
			S780.6,132.1,779.8,132.1z M772.2,132.1h-0.5c-0.8,0-1.5-0.7-1.5-1.5s0.7-1.5,1.5-1.5h0.5c0.8,0,1.5,0.7,1.5,1.5
			S773,132.1,772.2,132.1z M764.6,132.1h-0.5c-0.8,0-1.5-0.7-1.5-1.5s0.7-1.5,1.5-1.5h0.5c0.8,0,1.5,0.7,1.5,1.5
			S765.4,132.1,764.6,132.1z M757,132.1h-0.5c-0.8,0-1.5-0.7-1.5-1.5s0.7-1.5,1.5-1.5h0.5c0.8,0,1.5,0.7,1.5,1.5
			S757.8,132.1,757,132.1z"/>
	</g>
	<g>
		<path class="st2" d="M870.7,132.4c-0.5,0-0.9-0.2-1.2-0.6c-0.3-0.3-0.6-0.7-0.6-1.2c0-0.8,0.7-1.5,1.5-1.5h0.3
			c0.8,0,1.5,0.7,1.5,1.5v0.3C872.2,131.7,871.5,132.4,870.7,132.4z"/>
	</g>
	<g>
		<path class="st2" d="M870.7,374.9c-0.8,0-1.5-0.7-1.5-1.5v-0.5c0-0.8,0.7-1.5,1.5-1.5c0.8,0,1.5,0.7,1.5,1.5v0.5
			C872.2,374.3,871.5,374.9,870.7,374.9z M870.7,367.4c-0.8,0-1.5-0.7-1.5-1.5v-0.5c0-0.8,0.7-1.5,1.5-1.5c0.8,0,1.5,0.7,1.5,1.5
			v0.5C872.2,366.7,871.5,367.4,870.7,367.4z M870.7,359.8c-0.8,0-1.5-0.7-1.5-1.5v-0.5c0-0.8,0.7-1.5,1.5-1.5
			c0.8,0,1.5,0.7,1.5,1.5v0.5C872.2,359.1,871.5,359.8,870.7,359.8z M870.7,352.2c-0.8,0-1.5-0.7-1.5-1.5v-0.5
			c0-0.8,0.7-1.5,1.5-1.5c0.8,0,1.5,0.7,1.5,1.5v0.5C872.2,351.5,871.5,352.2,870.7,352.2z M870.7,344.6c-0.8,0-1.5-0.7-1.5-1.5
			v-0.5c0-0.8,0.7-1.5,1.5-1.5c0.8,0,1.5,0.7,1.5,1.5v0.5C872.2,344,871.5,344.6,870.7,344.6z M870.7,337c-0.8,0-1.5-0.7-1.5-1.5
			V335c0-0.8,0.7-1.5,1.5-1.5c0.8,0,1.5,0.7,1.5,1.5v0.5C872.2,336.4,871.5,337,870.7,337z M870.7,329.5c-0.8,0-1.5-0.7-1.5-1.5
			v-0.5c0-0.8,0.7-1.5,1.5-1.5c0.8,0,1.5,0.7,1.5,1.5v0.5C872.2,328.8,871.5,329.5,870.7,329.5z M870.7,321.9
			c-0.8,0-1.5-0.7-1.5-1.5v-0.5c0-0.8,0.7-1.5,1.5-1.5c0.8,0,1.5,0.7,1.5,1.5v0.5C872.2,321.2,871.5,321.9,870.7,321.9z
			 M870.7,314.3c-0.8,0-1.5-0.7-1.5-1.5v-0.5c0-0.8,0.7-1.5,1.5-1.5c0.8,0,1.5,0.7,1.5,1.5v0.5C872.2,313.6,871.5,314.3,870.7,314.3
			z M870.7,306.7c-0.8,0-1.5-0.7-1.5-1.5v-0.5c0-0.8,0.7-1.5,1.5-1.5c0.8,0,1.5,0.7,1.5,1.5v0.5
			C872.2,306.1,871.5,306.7,870.7,306.7z M870.7,299.1c-0.8,0-1.5-0.7-1.5-1.5v-0.5c0-0.8,0.7-1.5,1.5-1.5c0.8,0,1.5,0.7,1.5,1.5
			v0.5C872.2,298.5,871.5,299.1,870.7,299.1z M870.7,291.6c-0.8,0-1.5-0.7-1.5-1.5v-0.5c0-0.8,0.7-1.5,1.5-1.5
			c0.8,0,1.5,0.7,1.5,1.5v0.5C872.2,290.9,871.5,291.6,870.7,291.6z M870.7,284c-0.8,0-1.5-0.7-1.5-1.5V282c0-0.8,0.7-1.5,1.5-1.5
			c0.8,0,1.5,0.7,1.5,1.5v0.5C872.2,283.3,871.5,284,870.7,284z M870.7,276.4c-0.8,0-1.5-0.7-1.5-1.5v-0.5c0-0.8,0.7-1.5,1.5-1.5
			c0.8,0,1.5,0.7,1.5,1.5v0.5C872.2,275.7,871.5,276.4,870.7,276.4z M870.7,268.8c-0.8,0-1.5-0.7-1.5-1.5v-0.5
			c0-0.8,0.7-1.5,1.5-1.5c0.8,0,1.5,0.7,1.5,1.5v0.5C872.2,268.2,871.5,268.8,870.7,268.8z M870.7,261.3c-0.8,0-1.5-0.7-1.5-1.5
			v-0.5c0-0.8,0.7-1.5,1.5-1.5c0.8,0,1.5,0.7,1.5,1.5v0.5C872.2,260.6,871.5,261.3,870.7,261.3z M870.7,253.7
			c-0.8,0-1.5-0.7-1.5-1.5v-0.5c0-0.8,0.7-1.5,1.5-1.5c0.8,0,1.5,0.7,1.5,1.5v0.5C872.2,253,871.5,253.7,870.7,253.7z M870.7,246.1
			c-0.8,0-1.5-0.7-1.5-1.5v-0.5c0-0.8,0.7-1.5,1.5-1.5c0.8,0,1.5,0.7,1.5,1.5v0.5C872.2,245.4,871.5,246.1,870.7,246.1z
			 M870.7,238.5c-0.8,0-1.5-0.7-1.5-1.5v-0.5c0-0.8,0.7-1.5,1.5-1.5c0.8,0,1.5,0.7,1.5,1.5v0.5C872.2,237.8,871.5,238.5,870.7,238.5
			z M870.7,230.9c-0.8,0-1.5-0.7-1.5-1.5v-0.5c0-0.8,0.7-1.5,1.5-1.5c0.8,0,1.5,0.7,1.5,1.5v0.5
			C872.2,230.3,871.5,230.9,870.7,230.9z M870.7,223.4c-0.8,0-1.5-0.7-1.5-1.5v-0.5c0-0.8,0.7-1.5,1.5-1.5c0.8,0,1.5,0.7,1.5,1.5
			v0.5C872.2,222.7,871.5,223.4,870.7,223.4z M870.7,215.8c-0.8,0-1.5-0.7-1.5-1.5v-0.5c0-0.8,0.7-1.5,1.5-1.5
			c0.8,0,1.5,0.7,1.5,1.5v0.5C872.2,215.1,871.5,215.8,870.7,215.8z M870.7,208.2c-0.8,0-1.5-0.7-1.5-1.5v-0.5
			c0-0.8,0.7-1.5,1.5-1.5c0.8,0,1.5,0.7,1.5,1.5v0.5C872.2,207.5,871.5,208.2,870.7,208.2z M870.7,200.6c-0.8,0-1.5-0.7-1.5-1.5
			v-0.5c0-0.8,0.7-1.5,1.5-1.5c0.8,0,1.5,0.7,1.5,1.5v0.5C872.2,199.9,871.5,200.6,870.7,200.6z M870.7,193c-0.8,0-1.5-0.7-1.5-1.5
			V191c0-0.8,0.7-1.5,1.5-1.5c0.8,0,1.5,0.7,1.5,1.5v0.5C872.2,192.4,871.5,193,870.7,193z M870.7,185.5c-0.8,0-1.5-0.7-1.5-1.5
			v-0.5c0-0.8,0.7-1.5,1.5-1.5c0.8,0,1.5,0.7,1.5,1.5v0.5C872.2,184.8,871.5,185.5,870.7,185.5z M870.7,177.9
			c-0.8,0-1.5-0.7-1.5-1.5v-0.5c0-0.8,0.7-1.5,1.5-1.5c0.8,0,1.5,0.7,1.5,1.5v0.5C872.2,177.2,871.5,177.9,870.7,177.9z
			 M870.7,170.3c-0.8,0-1.5-0.7-1.5-1.5v-0.5c0-0.8,0.7-1.5,1.5-1.5c0.8,0,1.5,0.7,1.5,1.5v0.5C872.2,169.6,871.5,170.3,870.7,170.3
			z M870.7,162.7c-0.8,0-1.5-0.7-1.5-1.5v-0.5c0-0.8,0.7-1.5,1.5-1.5c0.8,0,1.5,0.7,1.5,1.5v0.5C872.2,162,871.5,162.7,870.7,162.7z
			 M870.7,155.1c-0.8,0-1.5-0.7-1.5-1.5v-0.5c0-0.8,0.7-1.5,1.5-1.5c0.8,0,1.5,0.7,1.5,1.5v0.5C872.2,154.5,871.5,155.1,870.7,155.1
			z M870.7,147.6c-0.8,0-1.5-0.7-1.5-1.5v-0.5c0-0.8,0.7-1.5,1.5-1.5c0.8,0,1.5,0.7,1.5,1.5v0.5
			C872.2,146.9,871.5,147.6,870.7,147.6z M870.7,140c-0.8,0-1.5-0.7-1.5-1.5V138c0-0.8,0.7-1.5,1.5-1.5c0.8,0,1.5,0.7,1.5,1.5v0.5
			C872.2,139.3,871.5,140,870.7,140z"/>
	</g>
	<g>
		<path class="st2" d="M870.7,382.3h-0.3c-0.8,0-1.5-0.7-1.5-1.5c0-0.5,0.2-0.9,0.6-1.2c0.3-0.3,0.7-0.6,1.2-0.6
			c0.8,0,1.5,0.7,1.5,1.5v0.3C872.2,381.6,871.5,382.3,870.7,382.3z"/>
	</g>
	<g>
		<path class="st2" d="M863.2,382.3h-0.5c-0.8,0-1.5-0.7-1.5-1.5c0-0.8,0.7-1.5,1.5-1.5h0.5c0.8,0,1.5,0.7,1.5,1.5
			C864.7,381.6,864,382.3,863.2,382.3z M855.4,382.3h-0.5c-0.8,0-1.5-0.7-1.5-1.5c0-0.8,0.7-1.5,1.5-1.5h0.5c0.8,0,1.5,0.7,1.5,1.5
			C856.9,381.6,856.3,382.3,855.4,382.3z M847.6,382.3h-0.5c-0.8,0-1.5-0.7-1.5-1.5c0-0.8,0.7-1.5,1.5-1.5h0.5
			c0.8,0,1.5,0.7,1.5,1.5C849.1,381.6,848.5,382.3,847.6,382.3z M839.9,382.3h-0.5c-0.8,0-1.5-0.7-1.5-1.5c0-0.8,0.7-1.5,1.5-1.5
			h0.5c0.8,0,1.5,0.7,1.5,1.5C841.4,381.6,840.7,382.3,839.9,382.3z M832.1,382.3h-0.5c-0.8,0-1.5-0.7-1.5-1.5
			c0-0.8,0.7-1.5,1.5-1.5h0.5c0.8,0,1.5,0.7,1.5,1.5C833.6,381.6,832.9,382.3,832.1,382.3z M824.3,382.3h-0.5
			c-0.8,0-1.5-0.7-1.5-1.5c0-0.8,0.7-1.5,1.5-1.5h0.5c0.8,0,1.5,0.7,1.5,1.5C825.8,381.6,825.2,382.3,824.3,382.3z M816.5,382.3H816
			c-0.8,0-1.5-0.7-1.5-1.5c0-0.8,0.7-1.5,1.5-1.5h0.5c0.8,0,1.5,0.7,1.5,1.5C818,381.6,817.4,382.3,816.5,382.3z M808.8,382.3h-0.5
			c-0.8,0-1.5-0.7-1.5-1.5c0-0.8,0.7-1.5,1.5-1.5h0.5c0.8,0,1.5,0.7,1.5,1.5C810.3,381.6,809.6,382.3,808.8,382.3z M801,382.3h-0.5
			c-0.8,0-1.5-0.7-1.5-1.5c0-0.8,0.7-1.5,1.5-1.5h0.5c0.8,0,1.5,0.7,1.5,1.5C802.5,381.6,801.8,382.3,801,382.3z"/>
	</g>
	<g>
		<path class="st2" d="M793.2,382.3H793c-0.8,0-1.5-0.7-1.5-1.5c0-0.8,0.7-1.5,1.5-1.5h0.3c0.8,0,1.5,0.7,1.5,1.5
			C794.7,381.6,794.1,382.3,793.2,382.3z"/>
	</g>
</g>
<g>
	<g>
		<g>
			<path class="st2" d="M343.7,193.8c-13.6,0-24.7,11.1-24.7,24.7c0,13.6,11.1,24.7,24.7,24.7c13.6,0,24.7-11.1,24.7-24.7
				C368.3,204.9,357.3,193.8,343.7,193.8z M343.7,238.5c-11,0-20-9-20-20c0-11,9-20,20-20c11,0,20,9,20,20
				C363.6,229.5,354.7,238.5,343.7,238.5z"/>
		</g>
	</g>
	<g>
		<g>
			<rect x="338.7" y="185.6" class="st2" width="9.9" height="5.7"/>
		</g>
	</g>
	<g>
		<g>
			<path class="st2" d="M349.1,177.8h-10.9c-1.1,0-2,1.1-2,2.5c0,1.4,0.9,2.5,2,2.5h10.9c1.1,0,2-1.1,2-2.5
				C351.1,178.9,350.2,177.8,349.1,177.8z"/>
		</g>
	</g>
	<g>
		<g>
			<g>
				<ellipse class="st2" cx="343.7" cy="218.5" rx="1.7" ry="1.7"/>
			</g>
		</g>
		<g>
			<g>
				<path class="st2" d="M343.7,201.1c-0.5,0-1,0.4-1,1v5.6c0,0.5,0.4,1,1,1c0.5,0,1-0.4,1-1v-5.6
					C344.6,201.6,344.2,201.1,343.7,201.1z"/>
			</g>
		</g>
		<g>
			<g>
				<path class="st2" d="M343.7,228.3c-0.5,0-1,0.4-1,1v5.6c0,0.5,0.4,1,1,1c0.5,0,1-0.4,1-1v-5.6
					C344.6,228.7,344.2,228.3,343.7,228.3z"/>
			</g>
		</g>
		<g>
			<g>
				<path class="st2" d="M359.8,217.5h-5.5c-0.5,0-1,0.4-1,1c0,0.5,0.4,1,1,1h5.5c0.5,0,1-0.4,1-1
					C360.8,217.9,360.4,217.5,359.8,217.5z"/>
			</g>
		</g>
		<g>
			<g>
				<path class="st2" d="M333,217.5h-5.5c-0.5,0-1,0.4-1,1c0,0.5,0.4,1,1,1h5.5c0.5,0,1-0.4,1-1C334,217.9,333.5,217.5,333,217.5z"
					/>
			</g>
		</g>
		<g>
			<g>
				<path class="st2" d="M358.3,225.5l-4.9-2.7c-0.5-0.3-1.1-0.1-1.3,0.4c-0.3,0.5-0.1,1.1,0.4,1.3l4.9,2.7c0.2,0.1,0.3,0.1,0.5,0.1
					c0.3,0,0.7-0.2,0.9-0.5C359,226.3,358.8,225.7,358.3,225.5z"/>
			</g>
		</g>
		<g>
			<g>
				<path class="st2" d="M334.8,212.4l-4.9-2.7c-0.5-0.3-1.1-0.1-1.3,0.4c-0.3,0.5-0.1,1.1,0.4,1.3l4.9,2.7c0.1,0.1,0.3,0.1,0.5,0.1
					c0.3,0,0.7-0.2,0.9-0.5C335.4,213.3,335.2,212.7,334.8,212.4z"/>
			</g>
		</g>
		<g>
			<g>
				<path class="st2" d="M350.4,226.8c-0.3-0.4-0.9-0.6-1.4-0.3c-0.4,0.3-0.6,0.9-0.3,1.4l3.1,4.6c0.2,0.3,0.5,0.4,0.8,0.4
					c0.2,0,0.4-0.1,0.5-0.2c0.4-0.3,0.6-0.9,0.3-1.4L350.4,226.8z"/>
			</g>
		</g>
		<g>
			<g>
				<path class="st2" d="M335.4,204.4c-0.3-0.4-0.9-0.6-1.4-0.3c-0.4,0.3-0.6,0.9-0.3,1.4l3.1,4.6c0.2,0.3,0.5,0.4,0.8,0.4
					c0.2,0,0.4-0.1,0.5-0.2c0.4-0.3,0.6-0.9,0.3-1.4L335.4,204.4z"/>
			</g>
		</g>
		<g>
			<g>
				<path class="st2" d="M333.9,222.9l-4.8,2.7c-0.5,0.3-0.6,0.9-0.4,1.3c0.2,0.3,0.5,0.5,0.8,0.5c0.2,0,0.3,0,0.5-0.1l4.8-2.7
					c0.5-0.3,0.6-0.9,0.4-1.3C334.9,222.8,334.4,222.6,333.9,222.9z"/>
			</g>
		</g>
		<g>
			<g>
				<path class="st2" d="M357.3,209.6l-4.8,2.7c-0.5,0.3-0.6,0.9-0.4,1.3c0.2,0.3,0.5,0.5,0.8,0.5c0.2,0,0.3,0,0.5-0.1l4.8-2.7
					c0.5-0.3,0.6-0.9,0.4-1.3C358.3,209.5,357.7,209.3,357.3,209.6z"/>
			</g>
		</g>
		<g>
			<g>
				<path class="st2" d="M338.4,226.7c-0.5-0.3-1.1-0.2-1.3,0.3l-3,4.7c-0.3,0.5-0.2,1.1,0.3,1.3c0.2,0.1,0.3,0.2,0.5,0.2
					c0.3,0,0.6-0.2,0.8-0.5l3-4.7C339,227.6,338.9,227,338.4,226.7z"/>
			</g>
		</g>
		<g>
			<g>
				<path class="st2" d="M352.9,203.9c-0.5-0.3-1.1-0.2-1.3,0.3l-3,4.7c-0.3,0.5-0.2,1.1,0.3,1.3c0.2,0.1,0.3,0.2,0.5,0.2
					c0.3,0,0.6-0.2,0.8-0.5l3-4.7C353.5,204.8,353.4,204.2,352.9,203.9z"/>
			</g>
		</g>
	</g>
	<g>
		<g>
			<path class="st2" d="M319.4,193.8c-1.3,1.3-1.3,3.4,0,4.7l2.5,2.5l4.7-4.7l-2.5-2.5C322.8,192.5,320.7,192.5,319.4,193.8z"/>
		</g>
	</g>
	<g>
		<g>
			<path class="st2" d="M363.6,193.8l-2.5,2.5l4.7,4.7l2.5-2.5c1.3-1.3,1.3-3.4,0-4.7C367,192.5,364.9,192.5,363.6,193.8z"/>
		</g>
	</g>
</g>
<g class="st3">
	<g>
		<path class="st2" d="M526.5,135.4h-4.6v14.6h4.6c1,0,1.8-0.8,1.8-1.8v-10.9C528.3,136.3,527.5,135.4,526.5,135.4z"/>
		<g>
			<g>
				<g>
					<path class="st2" d="M513.6,127.8h-42.9c-3,0-5.4,2.4-5.4,5.4v19.2c0,3,2.4,5.4,5.4,5.4h42.9c3,0,5.4-2.4,5.4-5.4v-19.2
						C519,130.2,516.6,127.8,513.6,127.8z M516.1,152.3c0,1.4-1.1,2.5-2.5,2.5h-42.9c-1.4,0-2.5-1.1-2.5-2.5v-19.2
						c0-1.4,1.1-2.5,2.5-2.5h42.9c1.4,0,2.5,1.1,2.5,2.5V152.3z"/>
				</g>
			</g>
			<g>
				<rect x="472.9" y="134.2" class="st2" width="7.2" height="17.2"/>
				<rect x="483.3" y="134.2" class="st2" width="7.2" height="17.2"/>
				<rect x="493.8" y="134.2" class="st2" width="7.2" height="17.2"/>
				<rect x="504.3" y="134.2" class="st2" width="7.2" height="17.2"/>
			</g>
		</g>
	</g>
</g>
<g class="st3">
	<g>
		<g>
			<rect x="171.9" y="253.4" class="st2" width="31.8" height="6.3"/>
		</g>
		<g>
			<path class="st2" d="M164.6,238.2c-2.5,0-4.6,2.1-4.6,4.6v27.6c0,2.5,2.1,4.6,4.6,4.6c2.5,0,4.6-2.1,4.6-4.6v-27.6
				C169.1,240.2,167.1,238.2,164.6,238.2z"/>
		</g>
		<g>
			<path class="st2" d="M155.6,249.4c-0.9,0-1.6,0.7-1.6,1.6v11.1c0,0.9,0.7,1.6,1.6,1.6c0.9,0,1.6-0.7,1.6-1.6V251
				C157.2,250.1,156.5,249.4,155.6,249.4z"/>
		</g>
		<g>
			<path class="st2" d="M211,238.2c-2.5,0-4.6,2.1-4.6,4.6v27.6c0,2.5,2.1,4.6,4.6,4.6s4.6-2.1,4.6-4.6v-27.6
				C215.6,240.2,213.5,238.2,211,238.2z"/>
		</g>
		<g>
			<path class="st2" d="M219.9,249.4c-0.9,0-1.6,0.7-1.6,1.6v11.1c0,0.9,0.7,1.6,1.6,1.6c0.9,0,1.6-0.7,1.6-1.6V251
				C221.6,250.1,220.8,249.4,219.9,249.4z"/>
		</g>
	</g>
</g>
<g class="st3">
	<path class="st2" d="M696.8,279.3c-0.2-2.9-2.7-5.3-5.8-5.3l-9.6,0l0.3-6.5c0-7.7-4.3-9.3-8-9.9c-1.4-0.2-2.6,0.9-2.6,2.3v7.6
		c0,0.3-0.1,0.6-0.3,0.8l-8.2,10.9l-9.3-0.3c-0.4,0-0.8,0.1-1.1,0.4c-0.3,0.3-0.5,0.7-0.5,1.1V302c0,0.8,0.7,1.5,1.5,1.5h11.1
		c2.5,2.1,6.2,3.5,9.2,3.5h13.9c2.7,0,5-2.4,5-5.2c0-0.8-0.2-1.6-0.5-2.3c1.5-0.8,2.6-2.2,2.8-3.9c0.2-1.1,0-2.2-0.5-3.2
		c1.6-1,2.6-2.8,2.6-4.7c0-1.6-0.6-3-1.7-4C696.3,282.5,696.9,280.9,696.8,279.3z M691.5,290.3c-0.6,0.1-1.1,0.5-1.3,1.1
		c-0.1,0.6,0.1,1.2,0.6,1.6c0.7,0.5,1,1.3,0.9,2.1c-0.2,1.1-1.1,1.9-2.3,1.9h-0.2c-0.7,0-1.3,0.4-1.5,1.1c-0.2,0.6,0.1,1.3,0.6,1.7
		c0.6,0.4,1,1.1,1,1.9c0,1.2-0.9,2.2-1.9,2.2h-13.9c-2.4,0-5.7-1.4-7.6-3.1c-0.3-0.3-0.7-0.4-1-0.4h-10.1V282l8.5,0.3
		c0.5,0,1-0.2,1.3-0.6l8.7-11.5c0.6-0.8,0.9-1.7,0.9-2.7v-6.7c2.5,0.5,4.5,1.7,4.5,6.6l-0.4,8c0,0.4,0.1,0.8,0.4,1.1
		c0.3,0.3,0.7,0.5,1.1,0.5l11.2,0c1.4,0,2.6,1.1,2.7,2.4c0.1,1.3-0.8,2.5-2.1,2.7c-0.7,0.1-1.2,0.8-1.2,1.5c0,0.7,0.5,1.3,1.2,1.5
		c1.2,0.3,2.1,1.3,2.1,2.5C693.8,289,692.8,290.1,691.5,290.3z"/>
</g>
<polygon class="st2" points="323.2,334 316.9,334 323.2,311.2 308.8,336.3 305.9,341.4 312.1,341.4 318.4,341.4 312.1,364.8 
	326.6,339.1 329.4,334 "/>
<g class="st4">
	<g>
		<g>
			<path class="st2" d="M325.8,129c1.4-0.1,2.7-0.1,4.1-0.2l4.1-0.1l4.1-0.1l4.1-0.1l2.1,0l1.5,0l0.2-0.5l0.4-1l0.4-1
				c0.1-0.3,0.3-0.7,0.4-1l0.8-2.1l0.8-2.1l1.2-2.9l0.6,3.1l0.2,1l0.2,1l0.4,2l0.2,1l0.2,1l0.4,2.1l0.2,1l0.2,1l0.4,2.1l0.3,1.4
				c0.2-0.5,0.4-1,0.6-1.4l0.4-1l0.4-1l0.8-2l0.1-0.4l0.4,0l6.2-0.1l3.5,0c1.1-2.4,1.7-4.8,1.7-7.1c-0.1-7.1-5.4-12.8-11.9-12.7
				c-6.5,0.1-11.7,5.9-11.6,13c-0.1-7.1-5.4-12.8-11.9-12.7c-6.5,0.1-11.7,5.9-11.6,13c0,2.4,0.7,4.8,1.8,7.1l1.6-0.1L325.8,129z"/>
		</g>
		<g>
			<path class="st2" d="M356.4,131.2l-0.6,1.7l-0.3,1l-0.3,1c-0.2,0.7-0.5,1.4-0.7,2l-0.7,2l-0.9,2.6l-0.6-2.7
				c-0.2-0.7-0.3-1.4-0.5-2l-0.5-2l-0.4-2l-0.2-1l-0.2-1l-0.4-2l-0.2-1l-0.2-1l-0.2-1l-0.5,1.2c-0.1,0.3-0.3,0.7-0.4,1l-0.4,1
				l-0.4,1l-0.4,1l-0.2,0.5l-0.5,0l-2.1,0l-2.1,0l-4.1,0l-4.1,0l-4.1,0c-1.4,0-2.7,0-4.1-0.1l-2.1,0l-1.3,0
				c5.9,11.4,21.7,21.3,21.7,21.3s15.5-10.2,21.2-21.7l-3.1,0.1L356.4,131.2z"/>
		</g>
	</g>
</g>
<g class="st5">
	<g>
		<polygon class="st2" points="462.1,216.4 460.1,216.4 460.1,161.4 303.5,161.4 303.5,159.4 462.1,159.4 		"/>
	</g>
	<g>
		<circle class="st2" cx="303.7" cy="160.4" r="3.8"/>
	</g>
</g>
<g class="st5">
	<g>
		<polygon class="st2" points="271.4,337.3 269.4,337.3 269.4,281.4 413.5,281.4 413.5,283.4 271.4,283.4 		"/>
	</g>
	<g>
		<circle class="st2" cx="270.4" cy="337.1" r="3.8"/>
	</g>
</g>
<g class="st1">
	<path class="st2" d="M151.4,258.1h-0.5c-0.8,0-1.5-0.7-1.5-1.5c0-0.8,0.7-1.5,1.5-1.5h0.5c0.8,0,1.5,0.7,1.5,1.5
		C152.9,257.4,152.2,258.1,151.4,258.1z M143.9,258.1h-0.5c-0.8,0-1.5-0.7-1.5-1.5c0-0.8,0.7-1.5,1.5-1.5h0.5c0.8,0,1.5,0.7,1.5,1.5
		C145.4,257.4,144.7,258.1,143.9,258.1z M136.4,258.1h-0.5c-0.8,0-1.5-0.7-1.5-1.5c0-0.8,0.7-1.5,1.5-1.5h0.5c0.8,0,1.5,0.7,1.5,1.5
		C137.9,257.4,137.2,258.1,136.4,258.1z M128.9,258.1h-0.5c-0.8,0-1.5-0.7-1.5-1.5c0-0.8,0.7-1.5,1.5-1.5h0.5c0.8,0,1.5,0.7,1.5,1.5
		C130.4,257.4,129.7,258.1,128.9,258.1z M121.4,258.1h-0.5c-0.8,0-1.5-0.7-1.5-1.5c0-0.8,0.7-1.5,1.5-1.5h0.5c0.8,0,1.5,0.7,1.5,1.5
		C122.9,257.4,122.2,258.1,121.4,258.1z M113.9,258.1h-0.5c-0.8,0-1.5-0.7-1.5-1.5c0-0.8,0.7-1.5,1.5-1.5h0.5c0.8,0,1.5,0.7,1.5,1.5
		C115.4,257.4,114.7,258.1,113.9,258.1z M106.4,258.1h-0.5c-0.8,0-1.5-0.7-1.5-1.5c0-0.8,0.7-1.5,1.5-1.5h0.5c0.8,0,1.5,0.7,1.5,1.5
		C107.9,257.4,107.2,258.1,106.4,258.1z"/>
</g>
<g class="st1">
	<path class="st2" d="M409.4,258.1h-0.5c-0.8,0-1.5-0.7-1.5-1.5c0-0.8,0.7-1.5,1.5-1.5h0.5c0.8,0,1.5,0.7,1.5,1.5
		C410.9,257.4,410.2,258.1,409.4,258.1z M401.9,258.1h-0.5c-0.8,0-1.5-0.7-1.5-1.5c0-0.8,0.7-1.5,1.5-1.5h0.5c0.8,0,1.5,0.7,1.5,1.5
		C403.4,257.4,402.7,258.1,401.9,258.1z M394.4,258.1h-0.5c-0.8,0-1.5-0.7-1.5-1.5c0-0.8,0.7-1.5,1.5-1.5h0.5c0.8,0,1.5,0.7,1.5,1.5
		C395.9,257.4,395.2,258.1,394.4,258.1z M386.9,258.1h-0.5c-0.8,0-1.5-0.7-1.5-1.5c0-0.8,0.7-1.5,1.5-1.5h0.5c0.8,0,1.5,0.7,1.5,1.5
		C388.4,257.4,387.7,258.1,386.9,258.1z M379.4,258.1h-0.5c-0.8,0-1.5-0.7-1.5-1.5c0-0.8,0.7-1.5,1.5-1.5h0.5c0.8,0,1.5,0.7,1.5,1.5
		C380.9,257.4,380.2,258.1,379.4,258.1z M371.9,258.1h-0.5c-0.8,0-1.5-0.7-1.5-1.5c0-0.8,0.7-1.5,1.5-1.5h0.5c0.8,0,1.5,0.7,1.5,1.5
		C373.4,257.4,372.7,258.1,371.9,258.1z M364.4,258.1h-0.5c-0.8,0-1.5-0.7-1.5-1.5c0-0.8,0.7-1.5,1.5-1.5h0.5c0.8,0,1.5,0.7,1.5,1.5
		C365.9,257.4,365.2,258.1,364.4,258.1z M356.9,258.1h-0.5c-0.8,0-1.5-0.7-1.5-1.5c0-0.8,0.7-1.5,1.5-1.5h0.5c0.8,0,1.5,0.7,1.5,1.5
		C358.4,257.4,357.7,258.1,356.9,258.1z M349.4,258.1h-0.5c-0.8,0-1.5-0.7-1.5-1.5c0-0.8,0.7-1.5,1.5-1.5h0.5c0.8,0,1.5,0.7,1.5,1.5
		C350.9,257.4,350.2,258.1,349.4,258.1z M341.9,258.1h-0.5c-0.8,0-1.5-0.7-1.5-1.5c0-0.8,0.7-1.5,1.5-1.5h0.5c0.8,0,1.5,0.7,1.5,1.5
		C343.4,257.4,342.7,258.1,341.9,258.1z M334.4,258.1h-0.5c-0.8,0-1.5-0.7-1.5-1.5c0-0.8,0.7-1.5,1.5-1.5h0.5c0.8,0,1.5,0.7,1.5,1.5
		C335.9,257.4,335.2,258.1,334.4,258.1z M326.9,258.1h-0.5c-0.8,0-1.5-0.7-1.5-1.5c0-0.8,0.7-1.5,1.5-1.5h0.5c0.8,0,1.5,0.7,1.5,1.5
		C328.4,257.4,327.7,258.1,326.9,258.1z M319.4,258.1h-0.5c-0.8,0-1.5-0.7-1.5-1.5c0-0.8,0.7-1.5,1.5-1.5h0.5c0.8,0,1.5,0.7,1.5,1.5
		C320.9,257.4,320.2,258.1,319.4,258.1z M311.9,258.1h-0.5c-0.8,0-1.5-0.7-1.5-1.5c0-0.8,0.7-1.5,1.5-1.5h0.5c0.8,0,1.5,0.7,1.5,1.5
		C313.4,257.4,312.7,258.1,311.9,258.1z M304.4,258.1h-0.5c-0.8,0-1.5-0.7-1.5-1.5c0-0.8,0.7-1.5,1.5-1.5h0.5c0.8,0,1.5,0.7,1.5,1.5
		C305.9,257.4,305.2,258.1,304.4,258.1z M296.9,258.1h-0.5c-0.8,0-1.5-0.7-1.5-1.5c0-0.8,0.7-1.5,1.5-1.5h0.5c0.8,0,1.5,0.7,1.5,1.5
		C298.4,257.4,297.7,258.1,296.9,258.1z M289.4,258.1h-0.5c-0.8,0-1.5-0.7-1.5-1.5c0-0.8,0.7-1.5,1.5-1.5h0.5c0.8,0,1.5,0.7,1.5,1.5
		C290.9,257.4,290.2,258.1,289.4,258.1z M281.9,258.1h-0.5c-0.8,0-1.5-0.7-1.5-1.5c0-0.8,0.7-1.5,1.5-1.5h0.5c0.8,0,1.5,0.7,1.5,1.5
		C283.4,257.4,282.7,258.1,281.9,258.1z M274.4,258.1h-0.5c-0.8,0-1.5-0.7-1.5-1.5c0-0.8,0.7-1.5,1.5-1.5h0.5c0.8,0,1.5,0.7,1.5,1.5
		C275.9,257.4,275.2,258.1,274.4,258.1z M266.9,258.1h-0.5c-0.8,0-1.5-0.7-1.5-1.5c0-0.8,0.7-1.5,1.5-1.5h0.5c0.8,0,1.5,0.7,1.5,1.5
		C268.4,257.4,267.7,258.1,266.9,258.1z M259.4,258.1h-0.5c-0.8,0-1.5-0.7-1.5-1.5c0-0.8,0.7-1.5,1.5-1.5h0.5c0.8,0,1.5,0.7,1.5,1.5
		C260.9,257.4,260.2,258.1,259.4,258.1z M251.9,258.1h-0.5c-0.8,0-1.5-0.7-1.5-1.5c0-0.8,0.7-1.5,1.5-1.5h0.5c0.8,0,1.5,0.7,1.5,1.5
		C253.4,257.4,252.7,258.1,251.9,258.1z M244.4,258.1h-0.5c-0.8,0-1.5-0.7-1.5-1.5c0-0.8,0.7-1.5,1.5-1.5h0.5c0.8,0,1.5,0.7,1.5,1.5
		C245.9,257.4,245.2,258.1,244.4,258.1z M236.9,258.1h-0.5c-0.8,0-1.5-0.7-1.5-1.5c0-0.8,0.7-1.5,1.5-1.5h0.5c0.8,0,1.5,0.7,1.5,1.5
		C238.4,257.4,237.7,258.1,236.9,258.1z M229.4,258.1h-0.5c-0.8,0-1.5-0.7-1.5-1.5c0-0.8,0.7-1.5,1.5-1.5h0.5c0.8,0,1.5,0.7,1.5,1.5
		C230.9,257.4,230.2,258.1,229.4,258.1z"/>
</g>
<g class="st3">
	<g>
		<polygon class="st2" points="320,219.2 248.5,219.2 248.5,170.6 143.5,170.6 143.5,128.8 145.5,128.8 145.5,168.6 250.5,168.6 
			250.5,217.2 320,217.2 		"/>
	</g>
	<g>
		<circle class="st2" cx="144.5" cy="129" r="3.8"/>
	</g>
</g>
<g class="st5">
	<g>
		<rect x="366.4" y="217.2" class="st2" width="59.3" height="2"/>
	</g>
	<g>
		<circle class="st2" cx="425.5" cy="218.2" r="3.8"/>
	</g>
</g>
<g class="st3">
	<g>
		<rect x="320" y="397.7" class="st2" width="121.9" height="2"/>
	</g>
	<g>
		<circle class="st2" cx="320.2" cy="398.7" r="3.8"/>
	</g>
</g>
<g class="st6">
	<g>
		<rect x="553.4" y="388.1" class="st2" width="75.3" height="2"/>
	</g>
	<g>
		<circle class="st2" cx="628.5" cy="389.1" r="3.8"/>
	</g>
</g>
<g class="st1">
	<g>
		<rect x="553.4" y="380.1" class="st2" width="130.7" height="2"/>
	</g>
	<g>
		<circle class="st2" cx="683.8" cy="381.1" r="3.8"/>
	</g>
</g>
<g class="st3">
	<g>
		<path class="st2" d="M632.2,246.6C632.2,246.6,632.2,246.6,632.2,246.6l-0.5,0c-0.8,0-1.5-0.7-1.5-1.5c0-0.8,0.7-1.5,1.5-1.5
			l0.5,0c0.8,0,1.5,0.7,1.5,1.5C633.7,245.9,633,246.6,632.2,246.6z M639.2,246.4c-0.8,0-1.4-0.6-1.5-1.4c-0.1-0.8,0.6-1.5,1.4-1.6
			l0.5,0c0.8-0.1,1.5,0.6,1.6,1.4c0.1,0.8-0.6,1.5-1.4,1.6L639.2,246.4C639.3,246.4,639.3,246.4,639.2,246.4z M624.7,246.1
			c-0.1,0-0.1,0-0.2,0L624,246c-0.8-0.1-1.4-0.8-1.3-1.7c0.1-0.8,0.8-1.4,1.7-1.3l0.5,0.1c0.8,0.1,1.4,0.8,1.3,1.7
			C626.1,245.5,625.4,246.1,624.7,246.1z M646.7,245.6c-0.7,0-1.4-0.5-1.5-1.3c-0.1-0.8,0.4-1.6,1.2-1.7l0.5-0.1
			c0.8-0.1,1.6,0.4,1.7,1.2c0.1,0.8-0.4,1.6-1.2,1.7l-0.5,0.1C646.9,245.6,646.8,245.6,646.7,245.6z M617.2,244.8
			c-0.1,0-0.2,0-0.3,0l-0.5-0.1c-0.8-0.2-1.3-1-1.1-1.8c0.2-0.8,1-1.3,1.8-1.1l0.5,0.1c0.8,0.2,1.3,1,1.2,1.8
			C618.5,244.4,617.9,244.8,617.2,244.8z M654.1,244.1c-0.7,0-1.3-0.5-1.5-1.1c-0.2-0.8,0.3-1.6,1.1-1.8l0.5-0.1
			c0.8-0.2,1.6,0.3,1.8,1.1c0.2,0.8-0.3,1.6-1.1,1.8l-0.5,0.1C654.4,244.1,654.2,244.1,654.1,244.1z M609.9,242.9
			c-0.1,0-0.3,0-0.4-0.1l-0.5-0.2c-0.8-0.3-1.2-1.1-1-1.9c0.3-0.8,1.1-1.2,1.9-1l0.5,0.1c0.8,0.2,1.2,1.1,1,1.9
			C611.2,242.5,610.6,242.9,609.9,242.9z M661.3,241.8c-0.6,0-1.2-0.4-1.4-1c-0.3-0.8,0.1-1.6,0.9-1.9l0.5-0.2
			c0.8-0.3,1.6,0.1,1.9,0.9s-0.1,1.6-0.9,1.9l-0.5,0.2C661.7,241.8,661.5,241.8,661.3,241.8z M602.8,240.3c-0.2,0-0.4,0-0.6-0.1
			l-0.5-0.2c-0.8-0.3-1.1-1.2-0.8-2c0.3-0.8,1.2-1.1,2-0.8l0.5,0.2c0.8,0.3,1.1,1.2,0.8,2C604,240,603.4,240.3,602.8,240.3z
			 M668.3,239c-0.6,0-1.1-0.3-1.4-0.9c-0.4-0.8,0-1.6,0.7-2l0.4-0.2c0.7-0.4,1.6,0,2,0.7c0.4,0.7,0,1.6-0.7,2l-0.5,0.2
			C668.7,238.9,668.5,239,668.3,239z M596,237.1c-0.2,0-0.5-0.1-0.7-0.2l-0.5-0.2c-0.7-0.4-1-1.3-0.6-2c0.4-0.7,1.3-1,2-0.6l0.4,0.2
			c0.7,0.4,1,1.3,0.6,2C597.1,236.8,596.6,237.1,596,237.1z M675,235.4c-0.5,0-1-0.3-1.3-0.7c-0.4-0.7-0.2-1.6,0.5-2.1l0.4-0.3
			c0.7-0.4,1.6-0.2,2.1,0.5c0.4,0.7,0.2,1.6-0.5,2.1l-0.4,0.3C675.5,235.4,675.2,235.4,675,235.4z M589.6,233.2
			c-0.3,0-0.6-0.1-0.8-0.3l-0.4-0.3c-0.7-0.5-0.9-1.4-0.4-2.1c0.5-0.7,1.4-0.9,2.1-0.4l0.4,0.3c0.7,0.5,0.9,1.4,0.4,2.1
			C590.5,233,590,233.2,589.6,233.2z M681.3,231.3c-0.5,0-0.9-0.2-1.2-0.6c-0.5-0.7-0.3-1.6,0.3-2.1l0.4-0.3
			c0.7-0.5,1.6-0.3,2.1,0.3c0.5,0.7,0.3,1.6-0.3,2.1l-0.4,0.3C681.9,231.2,681.6,231.3,681.3,231.3z M583.5,228.7
			c-0.3,0-0.7-0.1-0.9-0.3l-0.4-0.3c-0.6-0.5-0.7-1.5-0.2-2.1c0.5-0.6,1.5-0.7,2.1-0.2l0.4,0.3c0.6,0.5,0.7,1.5,0.2,2.1
			C584.3,228.5,583.9,228.7,583.5,228.7z M687.2,226.6c-0.4,0-0.8-0.2-1.1-0.5c-0.5-0.6-0.5-1.6,0.1-2.1l0.4-0.3
			c0.6-0.6,1.6-0.5,2.1,0.1c0.6,0.6,0.5,1.6-0.1,2.1l-0.4,0.3C687.9,226.5,687.5,226.6,687.2,226.6z M577.8,223.7
			c-0.4,0-0.8-0.1-1-0.4l-0.4-0.4c-0.6-0.6-0.6-1.5,0-2.1c0.6-0.6,1.5-0.6,2.1,0l0.4,0.3c0.6,0.6,0.6,1.5,0,2.1
			C578.6,223.6,578.2,223.7,577.8,223.7z M692.6,221.3c-0.4,0-0.7-0.1-1-0.4c-0.6-0.6-0.6-1.5-0.1-2.1l0.3-0.4
			c0.6-0.6,1.5-0.6,2.1-0.1c0.6,0.6,0.6,1.5,0.1,2.1l-0.3,0.4C693.4,221.2,693,221.3,692.6,221.3z M572.7,218.2
			c-0.4,0-0.8-0.2-1.1-0.5l-0.3-0.4c-0.5-0.6-0.4-1.6,0.2-2.1c0.6-0.5,1.6-0.4,2.1,0.2l0.3,0.4c0.5,0.6,0.5,1.6-0.2,2.1
			C573.4,218.1,573,218.2,572.7,218.2z M697.5,215.6c-0.3,0-0.6-0.1-0.9-0.3c-0.7-0.5-0.8-1.5-0.3-2.1l0.3-0.4
			c0.5-0.7,1.4-0.8,2.1-0.3c0.7,0.5,0.8,1.4,0.3,2.1l-0.3,0.4C698.4,215.4,698,215.6,697.5,215.6z M568.1,212.2
			c-0.5,0-0.9-0.2-1.2-0.6l-0.3-0.4c-0.5-0.7-0.3-1.6,0.4-2.1c0.7-0.5,1.6-0.3,2.1,0.4l0.3,0.4c0.5,0.7,0.3,1.6-0.4,2.1
			C568.7,212.1,568.4,212.2,568.1,212.2z M701.9,209.5c-0.3,0-0.6-0.1-0.8-0.2c-0.7-0.4-0.9-1.4-0.5-2.1l0.3-0.4
			c0.4-0.7,1.4-0.9,2.1-0.5c0.7,0.4,0.9,1.4,0.5,2.1l-0.3,0.4C702.8,209.2,702.4,209.5,701.9,209.5z M564,205.9
			c-0.5,0-1-0.3-1.3-0.8l-0.3-0.4c-0.4-0.7-0.1-1.6,0.6-2c0.7-0.4,1.6-0.1,2,0.6l0.2,0.4c0.4,0.7,0.2,1.6-0.6,2
			C564.5,205.8,564.3,205.9,564,205.9z M705.6,202.9c-0.2,0-0.5-0.1-0.7-0.2c-0.7-0.4-1-1.3-0.6-2l0.2-0.4c0.4-0.7,1.3-1,2-0.7
			c0.7,0.4,1,1.3,0.7,2l-0.2,0.5C706.7,202.6,706.2,202.9,705.6,202.9z M560.6,199.1c-0.6,0-1.1-0.3-1.4-0.9l-0.2-0.5
			c-0.3-0.8,0-1.6,0.8-2c0.8-0.3,1.6,0,2,0.8l0.2,0.5c0.3,0.8,0,1.6-0.8,2C561,199.1,560.8,199.1,560.6,199.1z M708.8,196
			c-0.2,0-0.4,0-0.5-0.1c-0.8-0.3-1.2-1.1-0.9-1.9l0.2-0.5c0.3-0.8,1.2-1.1,1.9-0.8c0.8,0.3,1.2,1.2,0.8,1.9l-0.2,0.4
			C710,195.6,709.4,196,708.8,196z M557.8,192.1c-0.6,0-1.2-0.4-1.4-1l-0.2-0.5c-0.3-0.8,0.2-1.6,0.9-1.9c0.8-0.3,1.6,0.2,1.9,0.9
			l0.2,0.5c0.3,0.8-0.1,1.6-0.9,1.9C558.2,192.1,558,192.1,557.8,192.1z M711.3,188.9c-0.1,0-0.3,0-0.4-0.1c-0.8-0.2-1.2-1.1-1-1.9
			l0.1-0.5c0.2-0.8,1.1-1.3,1.9-1c0.8,0.2,1.3,1.1,1,1.9l-0.1,0.5C712.5,188.5,711.9,188.9,711.3,188.9z M555.7,184.9
			c-0.7,0-1.3-0.5-1.5-1.2l-0.1-0.5c-0.2-0.8,0.3-1.6,1.1-1.8c0.8-0.2,1.6,0.3,1.8,1.1l0.1,0.5c0.2,0.8-0.3,1.6-1.1,1.8
			C556,184.9,555.9,184.9,555.7,184.9z M713,181.6c-0.1,0-0.2,0-0.3,0c-0.8-0.2-1.3-1-1.2-1.8l0.1-0.5c0.2-0.8,0.9-1.3,1.8-1.2
			c0.8,0.2,1.3,0.9,1.2,1.8l-0.1,0.5C714.4,181.1,713.7,181.6,713,181.6z M554.3,177.5c-0.7,0-1.4-0.5-1.5-1.3l-0.1-0.5
			c-0.1-0.8,0.5-1.6,1.3-1.7c0.8-0.1,1.6,0.5,1.7,1.3l0.1,0.5c0.1,0.8-0.5,1.6-1.3,1.7C554.5,177.5,554.4,177.5,554.3,177.5z
			 M714.1,174.1c-0.1,0-0.1,0-0.2,0c-0.8-0.1-1.4-0.8-1.3-1.6l0-0.5c0.1-0.8,0.8-1.4,1.6-1.4c0.8,0.1,1.4,0.8,1.4,1.6l0,0.5
			C715.6,173.6,714.9,174.1,714.1,174.1z M553.6,170c-0.8,0-1.5-0.6-1.5-1.4l0-0.5c0-0.8,0.6-1.5,1.4-1.6c0.9,0,1.5,0.6,1.6,1.4
			l0,0.5C555.2,169.2,554.5,169.9,553.6,170C553.7,170,553.7,170,553.6,170z M714.5,166.6C714.5,166.6,714.5,166.6,714.5,166.6
			c-0.8,0-1.5-0.7-1.5-1.5l0-0.7c0-0.8,0.7-1.5,1.5-1.5c0.8,0,1.5,0.7,1.5,1.5l0,0.7C716,165.9,715.4,166.6,714.5,166.6z
			 M553.6,162.4C553.6,162.4,553.6,162.4,553.6,162.4c-0.9,0-1.5-0.7-1.5-1.6l0-0.5c0-0.8,0.8-1.5,1.6-1.4c0.8,0,1.5,0.7,1.4,1.6
			l0,0.5C555.1,161.8,554.4,162.4,553.6,162.4z M714.2,158.9c-0.8,0-1.4-0.6-1.5-1.4l0-0.5c-0.1-0.8,0.5-1.6,1.4-1.6
			c0.8-0.1,1.6,0.5,1.6,1.4l0,0.5c0.1,0.8-0.5,1.6-1.4,1.6C714.3,158.9,714.3,158.9,714.2,158.9z M554.3,154.9c-0.1,0-0.1,0-0.2,0
			c-0.8-0.1-1.4-0.9-1.3-1.7l0.1-0.5c0.1-0.8,0.9-1.4,1.7-1.3c0.8,0.1,1.4,0.9,1.3,1.7l-0.1,0.5C555.7,154.4,555,154.9,554.3,154.9z
			 M713.2,151.4c-0.7,0-1.3-0.5-1.5-1.2l-0.1-0.5c-0.2-0.8,0.4-1.6,1.2-1.8c0.8-0.2,1.6,0.4,1.8,1.2l0.1,0.5
			c0.1,0.8-0.4,1.6-1.2,1.7C713.4,151.4,713.3,151.4,713.2,151.4z M555.7,147.5c-0.1,0-0.2,0-0.4,0c-0.8-0.2-1.3-1-1.1-1.8l0.1-0.5
			c0.2-0.8,1-1.3,1.8-1.1c0.8,0.2,1.3,1,1.1,1.8l-0.1,0.5C557,147,556.4,147.5,555.7,147.5z M711.5,144.1c-0.7,0-1.3-0.4-1.4-1.1
			l-0.1-0.5c-0.2-0.8,0.2-1.6,1-1.9c0.8-0.2,1.6,0.2,1.9,1l0.1,0.5c0.2,0.8-0.2,1.6-1,1.9C711.8,144,711.6,144.1,711.5,144.1z
			 M557.8,140.2c-0.2,0-0.3,0-0.5-0.1c-0.8-0.3-1.2-1.1-0.9-1.9l0.1-0.4c0.3-0.8,1.1-1.2,1.9-1c0.8,0.3,1.2,1.1,0.9,1.9l-0.2,0.5
			C559,139.8,558.4,140.2,557.8,140.2z M709.1,136.9c-0.6,0-1.2-0.4-1.4-1l-0.2-0.5c-0.3-0.8,0.1-1.6,0.8-1.9
			c0.8-0.3,1.6,0.1,1.9,0.8l0.2,0.5c0.3,0.8-0.1,1.6-0.8,1.9C709.5,136.9,709.3,136.9,709.1,136.9z M560.5,133.2
			c-0.2,0-0.4,0-0.6-0.1c-0.8-0.3-1.1-1.2-0.8-2l0.2-0.5c0.3-0.8,1.2-1.1,2-0.7c0.8,0.3,1.1,1.2,0.7,2l-0.2,0.4
			C561.7,132.9,561.1,133.2,560.5,133.2z M706,130c-0.5,0-1.1-0.3-1.3-0.8l-0.2-0.4c-0.4-0.7-0.1-1.6,0.7-2c0.7-0.4,1.6-0.1,2,0.7
			l0.2,0.5c0.4,0.7,0.1,1.6-0.7,2C706.5,130,706.2,130,706,130z M563.9,126.5c-0.3,0-0.5-0.1-0.7-0.2c-0.7-0.4-1-1.3-0.6-2l0.3-0.4
			c0.4-0.7,1.3-1,2-0.5c0.7,0.4,1,1.3,0.5,2l-0.2,0.4C565,126.2,564.5,126.5,563.9,126.5z M702.3,123.4c-0.5,0-1-0.2-1.3-0.7
			l-0.3-0.4c-0.4-0.7-0.2-1.6,0.5-2.1c0.7-0.4,1.6-0.2,2.1,0.5l0.3,0.4c0.4,0.7,0.2,1.6-0.5,2.1
			C702.9,123.4,702.6,123.4,702.3,123.4z M568,120.1c-0.3,0-0.6-0.1-0.9-0.3c-0.7-0.5-0.8-1.4-0.4-2.1l0.3-0.4
			c0.5-0.7,1.4-0.8,2.1-0.4c0.7,0.5,0.8,1.4,0.4,2.1l-0.3,0.4C568.9,119.9,568.4,120.1,568,120.1z M698,117.2
			c-0.5,0-0.9-0.2-1.2-0.6l-0.3-0.4c-0.5-0.7-0.4-1.6,0.3-2.1c0.7-0.5,1.6-0.4,2.1,0.3l0.3,0.4c0.5,0.7,0.4,1.6-0.3,2.1
			C698.7,117.1,698.3,117.2,698,117.2z M572.6,114.1c-0.3,0-0.7-0.1-1-0.4c-0.6-0.5-0.7-1.5-0.2-2.1l0.3-0.4
			c0.5-0.6,1.5-0.7,2.1-0.2c0.6,0.5,0.7,1.5,0.2,2.1l-0.3,0.4C573.4,113.9,573,114.1,572.6,114.1z M693.2,111.5
			c-0.4,0-0.8-0.2-1.1-0.5l-0.3-0.4c-0.6-0.6-0.5-1.6,0.1-2.1c0.6-0.6,1.6-0.5,2.1,0.1l0.3,0.4c0.6,0.6,0.5,1.6-0.1,2.1
			C693.9,111.3,693.5,111.5,693.2,111.5z M577.7,108.6c-0.4,0-0.8-0.2-1.1-0.5c-0.6-0.6-0.6-1.5,0-2.1l0.4-0.4
			c0.6-0.6,1.5-0.6,2.1,0c0.6,0.6,0.6,1.5,0,2.1l-0.4,0.3C578.5,108.4,578.1,108.6,577.7,108.6z M687.8,106.2c-0.4,0-0.7-0.1-1-0.4
			l-0.4-0.3c-0.6-0.5-0.7-1.5-0.1-2.1c0.5-0.6,1.5-0.7,2.1-0.1l0.4,0.3c0.6,0.6,0.7,1.5,0.1,2.1C688.6,106,688.2,106.2,687.8,106.2z
			 M583.3,103.6c-0.4,0-0.9-0.2-1.2-0.6c-0.5-0.6-0.4-1.6,0.2-2.1l0.4-0.3c0.6-0.5,1.6-0.4,2.1,0.2c0.5,0.6,0.4,1.6-0.2,2.1
			l-0.4,0.3C584,103.4,583.7,103.6,583.3,103.6z M681.9,101.4c-0.3,0-0.6-0.1-0.9-0.3l-0.4-0.3c-0.7-0.5-0.8-1.4-0.3-2.1
			c0.5-0.7,1.4-0.8,2.1-0.3l0.4,0.3c0.7,0.5,0.8,1.4,0.3,2.1C682.9,101.2,682.4,101.4,681.9,101.4z M589.4,99.1
			c-0.5,0-1-0.2-1.3-0.7c-0.5-0.7-0.3-1.6,0.4-2.1l0.4-0.3c0.7-0.5,1.6-0.3,2.1,0.4c0.5,0.7,0.3,1.6-0.4,2.1l-0.4,0.3
			C590,99,589.7,99.1,589.4,99.1z M675.7,97.2c-0.3,0-0.5-0.1-0.8-0.2l-0.4-0.3c-0.7-0.4-0.9-1.3-0.5-2.1c0.4-0.7,1.3-0.9,2.1-0.5
			l0.4,0.3c0.7,0.4,0.9,1.4,0.5,2.1C676.7,96.9,676.2,97.2,675.7,97.2z M595.9,95.2c-0.5,0-1-0.3-1.3-0.8c-0.4-0.7-0.1-1.6,0.6-2
			l0.5-0.2c0.7-0.4,1.6-0.1,2,0.6c0.4,0.7,0.1,1.6-0.6,2l-0.4,0.2C596.4,95.1,596.1,95.2,595.9,95.2z M669,93.6
			c-0.2,0-0.4,0-0.7-0.2l-0.4-0.2c-0.7-0.4-1.1-1.3-0.7-2c0.4-0.7,1.3-1.1,2-0.7l0.5,0.2c0.7,0.4,1.1,1.3,0.7,2
			C670.1,93.3,669.6,93.6,669,93.6z M602.7,91.9c-0.6,0-1.1-0.3-1.4-0.9c-0.3-0.8,0-1.6,0.8-2l0.5-0.2c0.8-0.3,1.6,0,2,0.8
			c0.3,0.8,0,1.6-0.8,2l-0.5,0.2C603.1,91.9,602.9,91.9,602.7,91.9z M662.1,90.6c-0.2,0-0.4,0-0.5-0.1l-0.5-0.2
			c-0.8-0.3-1.2-1.1-0.9-1.9c0.3-0.8,1.1-1.2,1.9-0.9l0.5,0.2c0.8,0.3,1.2,1.2,0.9,1.9C663.3,90.3,662.7,90.6,662.1,90.6z
			 M609.8,89.3c-0.6,0-1.2-0.4-1.4-1.1c-0.2-0.8,0.2-1.6,1-1.9l0.5-0.2c0.8-0.2,1.6,0.2,1.9,1c0.2,0.8-0.2,1.6-1,1.9l-0.5,0.1
			C610.1,89.3,609.9,89.3,609.8,89.3z M654.9,88.3c-0.1,0-0.3,0-0.4-0.1l-0.5-0.1c-0.8-0.2-1.3-1-1.1-1.8c0.2-0.8,1-1.3,1.8-1.1
			l0.5,0.1c0.8,0.2,1.3,1,1.1,1.8C656.2,87.9,655.6,88.3,654.9,88.3z M617,87.4c-0.7,0-1.3-0.5-1.5-1.2c-0.2-0.8,0.3-1.6,1.2-1.8
			l0.5-0.1c0.8-0.2,1.6,0.4,1.8,1.2c0.2,0.8-0.4,1.6-1.2,1.8l-0.5,0.1C617.3,87.4,617.1,87.4,617,87.4z M647.5,86.7
			c-0.1,0-0.2,0-0.3,0l-0.5-0.1c-0.8-0.1-1.4-0.9-1.2-1.7c0.1-0.8,0.9-1.4,1.7-1.2l0.5,0.1c0.8,0.1,1.4,0.9,1.2,1.7
			C648.9,86.2,648.3,86.7,647.5,86.7z M624.5,86.2c-0.8,0-1.4-0.6-1.5-1.3c-0.1-0.8,0.5-1.6,1.3-1.7l0.4,0c0.8-0.1,1.6,0.5,1.7,1.3
			c0.1,0.8-0.4,1.6-1.3,1.7l-0.5,0.1C624.6,86.1,624.5,86.2,624.5,86.2z M640.1,85.8c0,0-0.1,0-0.1,0l-0.5,0
			c-0.8-0.1-1.5-0.8-1.4-1.6c0.1-0.8,0.8-1.5,1.6-1.4l0.5,0c0.8,0.1,1.4,0.8,1.4,1.6C641.5,85.2,640.8,85.8,640.1,85.8z M632,85.6
			c-0.8,0-1.5-0.6-1.5-1.5c0-0.8,0.6-1.5,1.5-1.5l0.5,0c0,0,0,0,0,0c0.8,0,1.5,0.7,1.5,1.5c0,0.8-0.6,1.5-1.5,1.5L632,85.6
			C632,85.6,632,85.6,632,85.6z"/>
	</g>
</g>
<g class="st1">
	<polygon class="st2" points="731.5,288.5 703,288.5 703,286.5 729.5,286.5 729.5,244.4 731.5,244.4 	"/>
</g>
<g class="st1">
	<rect x="580.4" y="286.5" class="st2" width="65.2" height="2"/>
</g>
<g class="st3">
	<path class="st2" d="M762.7,323.5c-0.8,0-1.5-0.7-1.5-1.5c0-0.8,0.6-1.5,1.5-1.5h0.1c0.8,0,1.5,0.7,1.5,1.5
		C764.2,322.8,763.5,323.5,762.7,323.5z M755.7,323.5h-0.5c-0.8,0-1.5-0.7-1.5-1.5c0-0.8,0.7-1.5,1.5-1.5h0.5c0.8,0,1.5,0.7,1.5,1.5
		C757.2,322.8,756.5,323.5,755.7,323.5z M748.2,323.5h-0.5c-0.8,0-1.5-0.7-1.5-1.5c0-0.8,0.7-1.5,1.5-1.5h0.5c0.8,0,1.5,0.7,1.5,1.5
		C749.7,322.8,749,323.5,748.2,323.5z M740.7,323.5h-0.5c-0.8,0-1.5-0.7-1.5-1.5c0-0.8,0.7-1.5,1.5-1.5h0.5c0.8,0,1.5,0.7,1.5,1.5
		C742.2,322.8,741.5,323.5,740.7,323.5z M733.2,323.5h-0.5c-0.8,0-1.5-0.7-1.5-1.5c0-0.8,0.7-1.5,1.5-1.5h0.5c0.8,0,1.5,0.7,1.5,1.5
		C734.7,322.8,734,323.5,733.2,323.5z M725.7,323.5h-0.5c-0.8,0-1.5-0.7-1.5-1.5c0-0.8,0.7-1.5,1.5-1.5h0.5c0.8,0,1.5,0.7,1.5,1.5
		C727.2,322.8,726.5,323.5,725.7,323.5z M718.2,323.5h-0.5c-0.8,0-1.5-0.7-1.5-1.5c0-0.8,0.7-1.5,1.5-1.5h0.5c0.8,0,1.5,0.7,1.5,1.5
		C719.7,322.8,719,323.5,718.2,323.5z M710.7,323.5h-0.5c-0.8,0-1.5-0.7-1.5-1.5c0-0.8,0.7-1.5,1.5-1.5h0.5c0.8,0,1.5,0.7,1.5,1.5
		C712.2,322.8,711.5,323.5,710.7,323.5z M703.2,323.5h-0.5c-0.8,0-1.5-0.7-1.5-1.5c0-0.8,0.7-1.5,1.5-1.5h0.5c0.8,0,1.5,0.7,1.5,1.5
		C704.7,322.8,704,323.5,703.2,323.5z M695.7,323.5h-0.5c-0.8,0-1.5-0.7-1.5-1.5c0-0.8,0.7-1.5,1.5-1.5h0.5c0.8,0,1.5,0.7,1.5,1.5
		C697.2,322.8,696.5,323.5,695.7,323.5z M688.2,323.5h-0.5c-0.8,0-1.5-0.7-1.5-1.5c0-0.8,0.7-1.5,1.5-1.5h0.5c0.8,0,1.5,0.7,1.5,1.5
		C689.7,322.8,689,323.5,688.2,323.5z M680.7,323.5h-0.5c-0.8,0-1.5-0.7-1.5-1.5c0-0.8,0.7-1.5,1.5-1.5h0.5c0.8,0,1.5,0.7,1.5,1.5
		C682.2,322.8,681.5,323.5,680.7,323.5z M673.2,323.5h-0.5c-0.8,0-1.5-0.7-1.5-1.5c0-0.8,0.7-1.5,1.5-1.5h0.5c0.8,0,1.5,0.7,1.5,1.5
		C674.7,322.8,674,323.5,673.2,323.5z M665.7,323.5h-0.5c-0.8,0-1.5-0.7-1.5-1.5c0-0.8,0.7-1.5,1.5-1.5h0.5c0.8,0,1.5,0.7,1.5,1.5
		C667.2,322.8,666.5,323.5,665.7,323.5z M658.2,323.5h-0.5c-0.8,0-1.5-0.7-1.5-1.5c0-0.8,0.7-1.5,1.5-1.5h0.5c0.8,0,1.5,0.7,1.5,1.5
		C659.7,322.8,659,323.5,658.2,323.5z M650.7,323.5h-0.5c-0.8,0-1.5-0.7-1.5-1.5c0-0.8,0.7-1.5,1.5-1.5h0.5c0.8,0,1.5,0.7,1.5,1.5
		C652.2,322.8,651.5,323.5,650.7,323.5z M643.2,323.5h-0.5c-0.8,0-1.5-0.7-1.5-1.5c0-0.8,0.7-1.5,1.5-1.5h0.5c0.8,0,1.5,0.7,1.5,1.5
		C644.7,322.8,644,323.5,643.2,323.5z M635.7,323.5h-0.5c-0.8,0-1.5-0.7-1.5-1.5c0-0.8,0.7-1.5,1.5-1.5h0.5c0.8,0,1.5,0.7,1.5,1.5
		C637.2,322.8,636.5,323.5,635.7,323.5z M628.2,323.5h-0.5c-0.8,0-1.5-0.7-1.5-1.5c0-0.8,0.7-1.5,1.5-1.5h0.5c0.8,0,1.5,0.7,1.5,1.5
		C629.7,322.8,629,323.5,628.2,323.5z M620.7,323.5h-0.5c-0.8,0-1.5-0.7-1.5-1.5c0-0.8,0.7-1.5,1.5-1.5h0.5c0.8,0,1.5,0.7,1.5,1.5
		C622.2,322.8,621.5,323.5,620.7,323.5z M613.2,323.5h-0.5c-0.8,0-1.5-0.7-1.5-1.5c0-0.8,0.7-1.5,1.5-1.5h0.5c0.8,0,1.5,0.7,1.5,1.5
		C614.7,322.8,614,323.5,613.2,323.5z M605.7,323.5h-0.5c-0.8,0-1.5-0.7-1.5-1.5c0-0.8,0.7-1.5,1.5-1.5h0.5c0.8,0,1.5,0.7,1.5,1.5
		C607.2,322.8,606.5,323.5,605.7,323.5z M598.2,323.5h-0.5c-0.8,0-1.5-0.7-1.5-1.5c0-0.8,0.7-1.5,1.5-1.5h0.5c0.8,0,1.5,0.7,1.5,1.5
		C599.7,322.8,599,323.5,598.2,323.5z M590.7,323.5h-0.5c-0.8,0-1.5-0.7-1.5-1.5c0-0.8,0.7-1.5,1.5-1.5h0.5c0.8,0,1.5,0.7,1.5,1.5
		C592.2,322.8,591.5,323.5,590.7,323.5z M583.2,323.5h-0.5c-0.8,0-1.5-0.7-1.5-1.5c0-0.8,0.7-1.5,1.5-1.5h0.5c0.8,0,1.5,0.7,1.5,1.5
		C584.7,322.8,584,323.5,583.2,323.5z"/>
</g>
<g class="st3">
	<g>
		<polygon class="st2" points="855.9,355.9 572.1,355.9 572.1,353.9 853.9,353.9 853.9,189.7 855.9,189.7 		"/>
	</g>
	<g>
		<circle class="st2" cx="572.3" cy="354.9" r="3.8"/>
	</g>
</g>
<g>
	<g>
		<g>
			<path class="st7" d="M861.4,206.1H814c-1.5,0-2.8-1.2-2.8-2.8v-96.2c0-1.5,1.2-2.8,2.8-2.8h47.4c1.5,0,2.8,1.2,2.8,2.8v96.2
				C864.1,204.9,862.9,206.1,861.4,206.1z"/>
		</g>
		<g>
			<rect x="815.8" y="115.5" class="st8" width="43.9" height="39.7"/>
		</g>
		<g>
			<polygon class="st2" points="829.5,196.4 845.9,185.7 829.5,175 			"/>
		</g>
		<g>
			<polygon class="st2" points="822.3,87.1 827.8,87.1 828.4,104.2 821.7,104.2 			"/>
		</g>
		<g>
			<path class="st2" d="M929.5,204.6h-26.2c-11.2,0-20.3-9.1-20.3-20.3v-12.2c0-7.2,3.8-13.6,9.5-17.2v-46.5
				c0-13,10.5-23.5,23.5-23.5v2.7c-11.5,0-20.8,9.3-20.8,20.8v45.1c2.5-1.1,5.2-1.7,8.1-1.7h15.4c11.2,0,20.3,9.1,20.3,20.3
				c0,11.2-9.1,20.3-20.3,20.3h-5.9c-11.2,0-20.3-9.1-20.3-20.3v-13.9c-4.1,3.2-6.8,8.3-6.8,13.9v12.2c0,9.7,7.9,17.6,17.6,17.6
				h26.2c9.7,0,17.6-7.9,17.6-17.6V87.8c0-17.4-14.1-31.5-31.5-31.5h-57.7c-17.4,0-31.5,14.1-31.5,31.5v7.8h-2.7v-7.8
				c0-18.9,15.3-34.2,34.2-34.2h57.7c18.9,0,34.2,15.3,34.2,34.2v96.5C949.9,195.5,940.7,204.6,929.5,204.6z M895.1,156.4v15.6
				c0,9.7,7.9,17.6,17.6,17.6h5.9c9.7,0,17.6-7.9,17.6-17.6c0-9.7-7.9-17.6-17.6-17.6h-15.4C900.3,154.4,897.6,155.2,895.1,156.4z"
				/>
		</g>
		<g>
			<path class="st2" d="M895.1,145.4h-2.7v-10.5c0-9.2,7.5-16.6,16.6-16.6h6.4v2.7h-6.4c-7.7,0-13.9,6.2-13.9,13.9V145.4z"/>
		</g>
		<g>
			<g>
				<path class="st9" d="M925.7,115.8h-6.3c-2.6,0-4.7,1.8-4.7,4.1s2.1,4.1,4.7,4.1h6.3c2.6,0,4.7-1.8,4.7-4.1
					S928.3,115.8,925.7,115.8z"/>
			</g>
			<g>
				<g>
					<path class="st2" d="M926.6,114.6c-1.3,0-2.5-0.2-3.4,0.6v9.2c0.9,0.8,2.1,0.6,3.4,0.6c2.9,0,5.2-2.3,5.2-5.2
						S929.4,114.6,926.6,114.6z"/>
				</g>
			</g>
		</g>
		<g>
			<g>
				<path class="st9" d="M925.7,82.5h-6.3c-2.6,0-4.7,1.8-4.7,4.1c0,2.2,2.1,4.1,4.7,4.1h6.3c2.6,0,4.7-1.8,4.7-4.1
					C930.4,84.4,928.3,82.5,925.7,82.5z"/>
			</g>
			<g>
				<g>
					<path class="st2" d="M926.6,81.4c-1.3,0-2.5-0.2-3.4,0.6v9.2c0.9,0.8,2.1,0.6,3.4,0.6c2.9,0,5.2-2.3,5.2-5.2
						C931.8,83.7,929.4,81.4,926.6,81.4z"/>
				</g>
			</g>
		</g>
		<g>
			<path class="st9" d="M895,135.7l-2.6,0.4l0,4.3c0.4,0.1,0.9,0.2,1.4,0.2c0.5,0,0.9-0.1,1.4-0.2l0-2L895,135.7z"/>
		</g>
		<g>
			<circle class="st2" cx="893.8" cy="134.8" r="4.3"/>
		</g>
	</g>
	<polygon class="st9" points="895.1,156.4 895.1,153.4 896,153 896.1,155.9 	"/>
	<path class="st9" d="M857.7,166.8h-15.4c-1.1,0-1.9-0.9-1.9-1.9v0c0-1.1,0.9-1.9,1.9-1.9h15.4c1.1,0,1.9,0.9,1.9,1.9v0
		C859.6,165.9,858.8,166.8,857.7,166.8z"/>
	<path class="st9" d="M833.1,166.8h-15.4c-1.1,0-1.9-0.9-1.9-1.9v0c0-1.1,0.9-1.9,1.9-1.9h15.4c1.1,0,1.9,0.9,1.9,1.9v0
		C835.1,165.9,834.2,166.8,833.1,166.8z"/>
</g>
<g>
	<g>
		<g>
			<g>
				<polygon class="st2" points="188.8,178.6 186.1,176.1 188.8,173.6 186.1,171 188.8,168.5 186.1,166 188.8,163.5 186.1,160.9 
					188.8,158.4 186.1,155.9 188.8,153.3 186.1,150.8 181.4,150.8 181.4,181.2 186.1,181.2 				"/>
			</g>
			<g>
				<polygon class="st2" points="54.2,150.8 51.5,153.3 54.2,155.9 51.5,158.4 54.2,160.9 51.5,163.5 54.2,166 51.5,168.5 
					54.2,171.1 51.5,173.6 54.2,176.1 51.5,178.7 54.2,181.2 58.9,181.2 58.9,150.8 				"/>
			</g>
			<path class="st7" d="M181.4,150.8c0,0-14.9,1.5-66.8,1.5c-42.5,0-55.8-1.5-55.8-1.5v30.4c0,0,4.3-1.8,55.8-1.8
				c47.9,0,66.8,1.8,66.8,1.8V150.8z"/>
			<path class="st8" d="M76.4,174.2c2.8-5.4,7.5-9.7,12.5-13.1c6.5-4.4,14.3-6.8,21.9-8.8c-39.4-0.1-51.9-1.5-51.9-1.5v30.4
				c0,0,1.7-0.7,15.2-1.2C74.7,178,75.4,176.1,76.4,174.2z"/>
			<path class="st2" d="M172.9,166.1c0-4.6-3.1-8.4-6.8-8.4h-56.1c-3.8,0-6.8,3.8-6.8,8.4c0,4.6,3.1,8.4,6.8,8.4H166
				C169.8,174.5,172.9,170.8,172.9,166.1z"/>
		</g>
	</g>
</g>
<g>
	<g>
		<path class="st10" d="M91.3,242.1c-1.4,0-2.5-0.9-2.8-2.2c-0.1-0.5-2.2-12.4,5.2-21.5c4.6-5.6,13.9-11.1,23.3-11.8
			c0.8-0.1,0.9,12.1-2.2,19.2c-4.2,9.8-12.3,15.4-23.2,16.3C91.5,242.1,91.4,242.1,91.3,242.1z"/>
	</g>
	<path class="st8" d="M86,240.6c0,0,7.7-16.3-9.8-27.9c0,0-0.6-3.6,2.7-2.9c3.4,0.7,10.6,11.6,11.3,18.3c0.4,4-1.2,9.8-2.6,12.1
		C86.8,241.7,86,240.6,86,240.6z"/>
	<path class="st11" d="M126.2,256.2c-0.7-21.9-15.4-26.8-26.6-23.3c-3.3,1-7.8,2-10.7,2.1c-2.9-0.1-7.4-1-10.7-2.1
		c-11.2-3.5-25.9,1.4-26.6,23.3c-0.8,24.3,15.8,42.1,25,43.7c6.6,1.1,9.1-0.5,12.4-0.7c3.3,0.1,5.8,1.8,12.4,0.7
		C110.3,298.3,126.9,280.5,126.2,256.2z"/>
	<path class="st12" d="M125,247.7c-2,5.3-5.1,10.4-9.1,15.1c-13.2,15.4-34.3,25.1-54.5,25.4c0,0,0,0,0,0c5,6.7,10.8,11,15,11.7
		c6.6,1.1,9.1-0.5,12.4-0.7c3.3,0.1,5.8,1.8,12.4,0.7c9.1-1.5,25.7-19.4,25-43.7C126.1,253,125.7,250.2,125,247.7z"/>
</g>
<g>
	<rect x="87.6" y="105.6" class="st2" width="101.2" height="15.5"/>
	<g>
		
			<ellipse transform="matrix(1 -9.491800e-03 9.491800e-03 1 -1.068 1.7625)" class="st8" cx="185.2" cy="113.4" rx="4.8" ry="4.8"/>
		
			<rect x="184.2" y="104.9" transform="matrix(1 -9.495226e-03 9.495226e-03 1 -1.068 1.7944)" class="st8" width="8.4" height="16.9"/>
	</g>
	<g>
		<g>
			<g>
				<path class="st2" d="M87.6,121.1c-19.2,0.7-35.4-14.4-36.2-33.6c-0.7-19.2,14.4-35.4,33.6-36.2c19.2-0.7,35.4,14.4,36.2,33.6
					C121.9,104.2,106.9,120.4,87.6,121.1z M85.9,73.1c-7.3,0.3-13,6.4-12.7,13.7c0.3,7.3,6.4,13,13.7,12.7c7.3-0.3,13-6.4,12.7-13.7
					C99.3,78.5,93.1,72.8,85.9,73.1z"/>
			</g>
		</g>
		<g>
			<path class="st13" d="M87.2,109.5c-12.8,0.5-23.6-9.6-24.1-22.4C62.7,74.3,72.7,63.5,85.5,63c12.8-0.5,23.6,9.6,24.1,22.4
				C110.1,98.2,100,109,87.2,109.5z M85.5,63.8c-12.4,0.5-22.1,10.9-21.6,23.3c0.5,12.4,10.9,22.1,23.3,21.6
				c12.4-0.5,22.1-10.9,21.6-23.3C108.4,73,97.9,63.3,85.5,63.8z"/>
		</g>
		<g>
			<path class="st13" d="M87.1,106.4C76,106.8,66.6,98.1,66.2,87s8.3-20.5,19.4-20.9c11.1-0.4,20.5,8.3,20.9,19.4
				C106.9,96.6,98.2,106,87.1,106.4z M85.6,66.9C75,67.3,66.6,76.3,67,87s9.4,19,20.1,18.6c10.7-0.4,19-9.4,18.6-20.1
				C105.3,74.9,96.3,66.5,85.6,66.9z"/>
		</g>
		<g>
			<path class="st13" d="M87,103.3c-9.4,0.3-17.3-7-17.7-16.4c-0.3-9.4,7-17.3,16.4-17.7c9.4-0.3,17.3,7,17.7,16.4
				C103.7,95,96.4,102.9,87,103.3z M85.8,70c-9,0.3-16,7.9-15.7,16.9c0.3,9,7.9,16,16.9,15.7c9-0.3,16-7.9,15.7-16.9
				C102.3,76.7,94.7,69.7,85.8,70z"/>
		</g>
		<g>
			<path class="st13" d="M87.3,112.6c-14.5,0.5-26.8-10.8-27.3-25.4c-0.5-14.5,10.8-26.8,25.4-27.3c14.5-0.5,26.8,10.8,27.3,25.4
				C113.2,99.8,101.8,112,87.3,112.6z M85.4,60.7c-14.1,0.5-25.1,12.4-24.6,26.5c0.5,14.1,12.4,25.1,26.5,24.6
				c14.1-0.5,25.1-12.4,24.6-26.5C111.4,71.2,99.5,60.2,85.4,60.7z"/>
		</g>
		<g>
			<path class="st13" d="M87.4,115.7c-16.2,0.6-29.9-12.1-30.5-28.3c-0.6-16.2,12.1-29.9,28.3-30.5c16.2-0.6,29.9,12.1,30.5,28.3
				C116.4,101.4,103.7,115.1,87.4,115.7z M85.3,57.6c-15.8,0.6-28.2,13.9-27.6,29.7c0.6,15.8,13.9,28.2,29.7,27.6
				c15.8-0.6,28.2-13.9,27.6-29.7C114.4,69.4,101.1,57,85.3,57.6z"/>
		</g>
		<g>
			<path class="st13" d="M87.6,118.8c-17.9,0.7-33.1-13.4-33.7-31.3c-0.7-17.9,13.4-33.1,31.3-33.7c17.9-0.7,33.1,13.4,33.7,31.3
				C119.5,103,105.5,118.1,87.6,118.8z M85.2,54.5C67.7,55.2,54,69.9,54.6,87.4c0.6,17.5,15.4,31.2,32.9,30.6
				c17.5-0.6,31.2-15.4,30.6-32.9C117.5,67.6,102.7,53.9,85.2,54.5z"/>
		</g>
	</g>
	<g>
		<rect x="118.9" y="105.6" class="st13" width="1.4" height="9.3"/>
		<rect x="127.4" y="105.6" class="st13" width="1.4" height="9.3"/>
		<rect x="135.8" y="105.6" class="st13" width="1.4" height="9.3"/>
		<rect x="144.3" y="105.6" class="st13" width="1.4" height="9.3"/>
		<rect x="152.8" y="105.6" class="st13" width="1.4" height="9.3"/>
		<rect x="161.3" y="105.6" class="st13" width="1.4" height="9.3"/>
		<rect x="169.7" y="105.6" class="st13" width="1.4" height="9.3"/>
	</g>
</g>
<g>
	<g>
		<rect x="724.2" y="53.9" class="st7" width="11.8" height="12"/>
		<path class="st9" d="M718.4,82.6h-14.9c-4.2,0-7.7-4-7.7-8.9c0-4.9,3.4-8.9,7.7-8.9h22.5v2.2h-22.5c-3.2,0-5.8,3-5.8,6.7
			c0,3.7,2.6,6.7,5.8,6.7h14.9V82.6z"/>
		<rect x="711" y="76.3" class="st7" width="38.1" height="8.1"/>
		<path class="st9" d="M750.7,78.7h-41.2v-7.3c0-3.6,2.9-6.4,6.4-6.4h28.3c3.6,0,6.4,2.9,6.4,6.4V78.7z"/>
		<path class="st9" d="M736.5,55.2h-12.8c-0.9,0-1.6-0.7-1.6-1.6v-0.8c0-0.9,0.7-1.6,1.6-1.6h12.8c0.9,0,1.6,0.7,1.6,1.6v0.8
			C738.1,54.5,737.4,55.2,736.5,55.2z"/>
		<path class="st9" d="M758.8,130.3c0-10.8,0.9-19.7,5.8-21.5V96.4c0-6.8-5.5-12.3-12.3-12.3h-44.6c-6.8,0-12.3,5.5-12.3,12.3v12.5
			c4.9,1.7,5.8,10.7,5.8,21.5c0,10.8-0.9,19.7-5.8,21.5v74c0,6.8,5.5,12.3,12.3,12.3h44.6c6.8,0,12.3-5.5,12.3-12.3v-74
			C759.7,150.1,758.8,141.1,758.8,130.3z"/>
		<path class="st7" d="M764.6,108.9c0,0-65-0.5-69.1-0.2v0.2c4.9,1.7,5.8,10.7,5.8,21.5c0,10.8-0.9,19.7-5.8,21.5h69.1
			c-4.9-1.7-5.8-10.7-5.8-21.5S759.7,110.6,764.6,108.9z"/>
		<path class="st7" d="M709.1,236c0,0,22.1-11.8,42.7,0.1L709.1,236z"/>
	</g>
	<path class="st14" d="M764.6,108.9V96.4c0-6.8-5.5-12.3-12.3-12.3h-3.2v-5.5h1.5v-7.3c0-3.6-2.9-6.4-6.4-6.4H736v-9.7h0.5
		c0.9,0,1.6-0.7,1.6-1.6v-0.8c0-0.9-0.7-1.6-1.6-1.6H731v186.9h21.4c6.8,0,12.3-5.5,12.3-12.3v-74c-4.9-1.7-5.8-10.7-5.8-21.5
		C758.8,119.6,759.7,110.6,764.6,108.9z"/>
</g>
<g class="st1">
	<polygon class="st2" points="381.5,160.4 379.5,160.4 379.5,79.2 448.3,79.2 448.3,81.2 381.5,81.2 	"/>
</g>
<g>
	<g>
		<path class="st11" d="M569.5,101.4c0,0-52.9,1.2-71,1.2c-17.7,0-69.1-1.2-69.1-1.2V64.2c0,0,51.6-1.2,69.1-1.2
			c18.3,0,71,1.2,71,1.2V101.4z"/>
		<path class="st12" d="M569.5,102.2c0,0-52.9,0.4-71,0.4c-17.7,0-69.1-0.4-69.1-0.4v-12c0,0,4.9-26.1,15.3-26.2c1.1,0,4.9,26,6,26
			c16.3-0.1,37.7-0.2,47.8-0.2c18.3,0,71,0.4,71,0.4V102.2z"/>
		<g>
			<path class="st11" d="M581.9,50.3h-14.6c-7.7,0-14,6.2-14,13.8v37.2c0,7.6,6.2,13.8,14,13.8h14.6c7.7,0,14-6.2,14-13.8V64.2
				C595.8,56.5,589.6,50.3,581.9,50.3z"/>
		</g>
		<g>
			<path class="st11" d="M430.9,50.3h-14.6c-7.7,0-14,6.2-14,13.8v37.2c0,7.6,6.2,13.8,14,13.8h14.6c7.7,0,14-6.2,14-13.8V64.2
				C444.9,56.5,438.6,50.3,430.9,50.3z"/>
		</g>
		<g class="st15">
			<path class="st16" d="M404.5,95.6v5.2c0,6.8,5.6,12.4,12.5,12.4h13.1c6.9,0,12.5-5.5,12.5-12.4v-5.2H404.5z"/>
		</g>
		<g class="st15">
			<path class="st16" d="M555.5,95.6v5.2c0,6.8,5.6,12.4,12.5,12.4h13.1c6.9,0,12.5-5.5,12.5-12.4v-5.2H555.5z"/>
		</g>
	</g>
</g>
<g class="st6">
	<g>
		<rect x="586.3" y="312.3" class="st2" width="142.2" height="2"/>
	</g>
	<g>
		<circle class="st2" cx="728.3" cy="313.3" r="3.8"/>
	</g>
</g>
<g>
	<g>
		<path class="st2" d="M817.1,329.4c-19.4,0-38.4-3.7-48.5-8.3c-2.5-1.1-24.1-11.7-20.6-34.1c0.3-1.7,0.8-3.4,1.7-4.9
			c2.3-7.6,6.6-12.7,14.2-17c10-5.7,17.9-5.6,28-5.5c2.2,0,4.5,0.1,6.9,0c0.2,0,0.4,0,0.6,0c14.3,0,58.6,6.3,71.7,9.4
			c0.8,0.2,1.3,1,1.1,1.8c-0.2,0.8-1,1.3-1.8,1.1c-13.2-3.1-58.1-9.6-71.5-9.4c-2.5,0-4.8,0-7,0c-10-0.1-17.2-0.2-26.5,5.1
			c-1.2,0.7-2.3,1.4-3.3,2.1c4.3-2.8,9.2-4.2,14-4c7.1,0.3,13.9,4.1,18.6,10.3c4.8,6.3,6.7,13.9,5.1,21c-1.4,6.5-5.8,12.4-12,16.1
			c-6.2,3.8-13.4,5-19.8,3.3c-1.3-0.3-2.6-0.8-3.8-1.4c2.7,1.9,5,3,5.7,3.3c9.9,4.5,27.9,7.8,44.8,8.1c20.6,0.3,37.6-3.5,47.7-10.9
			c0.7-0.5,1.6-0.3,2.1,0.3c0.5,0.7,0.3,1.6-0.3,2.1C852.5,326.3,834.7,329.4,817.1,329.4z M757.4,278c-3.8,4.9-5.4,10.8-4.5,16.4
			c1.4,8.4,8.1,15.6,16.4,17.7c6.9,1.7,14.3-0.3,18.9-5.1c1.2-1.2,4-7.6,3.5-14.8c-0.5-6.1-3.1-11.1-8-14.8
			c-5.2-4-14.2-4.7-21.9-1.6C760.2,276.4,758.7,277.1,757.4,278z M771.8,270.8c5.2,0,10.1,1.4,13.6,4.2c5.5,4.2,8.6,10.1,9.2,17
			c0.4,5-0.7,9.8-2,13.1c2.1-2.6,3.6-5.6,4.3-8.7c1.4-6.2-0.3-12.9-4.6-18.5c-4.2-5.5-10.2-8.9-16.4-9.2c-3.9-0.2-7.8,0.9-11.4,3
			C766.9,271.1,769.4,270.8,771.8,270.8z"/>
	</g>
	<path class="st11" d="M941.5,269.5l-55-7.8c-1.5-0.2-3.1,0-4.5,0.6l-3.4,1.4c-3,1.2-6.4,0.7-8.9-1.4l-3.6-3c-1.2-1-2.8-1.7-4.4-1.9
		l-6.5-0.9c-4.8-0.7-9.2,2.7-9.9,7.5l-0.2,1.1l-0.6,4.6l-0.2,1.1c-0.7,4.8,2.7,9.2,7.5,9.9l6.5,0.9c1.6,0.2,3.2,0,4.7-0.6l4.3-1.9
		c3-1.3,6.4-0.8,8.9,1.1l2.8,2.2c1.2,1,2.7,1.6,4.2,1.8l55,7.8c4.8,0.7,9.2-2.7,9.9-7.5l0-0.3l0.6-4.6l0-0.3
		C949.7,274.6,946.3,270.2,941.5,269.5z"/>
	<path class="st12" d="M846.5,266.9c-0.5-0.2-1-0.4-1.4-0.7l-0.5,3.4l-0.2,1.1c-0.7,4.8,2.7,9.2,7.5,9.9l6.5,0.9
		c1.6,0.2,3.2,0,4.7-0.6l4.3-1.9c3-1.3,6.4-0.8,8.9,1.1l2.8,2.2c1.2,1,2.7,1.6,4.2,1.8l55,7.8c4.8,0.7,9.2-2.7,9.9-7.5l0-0.3
		l0.3-1.8C935.6,280.3,866.5,274.3,846.5,266.9z"/>
	<path class="st11" d="M929.3,298.8l-55,7.8c-1.5,0.2-3,0.8-4.2,1.8l-2.8,2.2c-2.5,2-6,2.4-8.9,1.2l-4.3-1.9
		c-1.5-0.6-3.1-0.9-4.7-0.6l-6.5,0.9c-4.8,0.7-8.1,5.1-7.5,9.9l0.2,1.1l0.6,4.6l0.2,1.1c0.7,4.8,5.1,8.1,9.9,7.5l6.5-0.9
		c1.6-0.2,3.1-0.9,4.4-1.9l3.6-3c2.5-2.1,5.9-2.6,8.9-1.4l3.4,1.4c1.4,0.6,3,0.8,4.5,0.6l55-7.8c4.8-0.7,8.1-5.1,7.5-9.9l0-0.3
		l-0.6-4.6l0-0.3C938.6,301.4,934.1,298.1,929.3,298.8z"/>
	<path class="st12" d="M851.8,309.3c-0.8-0.1-1.7-0.1-2.6,0l-4.4,0.6C847.2,309.7,849.5,309.5,851.8,309.3z"/>
	<path class="st12" d="M939.9,311l-0.2-1.7c-17.2,4-75.5,11.4-103.6,15.9l0.1,0.6l0.2,1.1c0.7,4.8,5.1,8.1,9.9,7.5l6.5-0.9
		c1.6-0.2,3.1-0.9,4.4-1.9l3.6-3c2.5-2.1,5.9-2.6,8.9-1.4l3.4,1.4c1.4,0.6,3,0.8,4.5,0.6l55-7.8c4.8-0.7,8.1-5.1,7.5-9.9L939.9,311z
		"/>
</g>
<g class="st1">
	<path class="st2" d="M414.8,302.2h-0.5c-0.8,0-1.5-0.7-1.5-1.5c0-0.8,0.7-1.5,1.5-1.5h0.5c0.8,0,1.5,0.7,1.5,1.5
		C416.3,301.6,415.6,302.2,414.8,302.2z M407.3,302.2h-0.5c-0.8,0-1.5-0.7-1.5-1.5c0-0.8,0.7-1.5,1.5-1.5h0.5c0.8,0,1.5,0.7,1.5,1.5
		C408.8,301.6,408.1,302.2,407.3,302.2z M399.8,302.2h-0.5c-0.8,0-1.5-0.7-1.5-1.5c0-0.8,0.7-1.5,1.5-1.5h0.5c0.8,0,1.5,0.7,1.5,1.5
		C401.3,301.6,400.6,302.2,399.8,302.2z M392.3,302.2h-0.5c-0.8,0-1.5-0.7-1.5-1.5c0-0.8,0.7-1.5,1.5-1.5h0.5c0.8,0,1.5,0.7,1.5,1.5
		C393.8,301.6,393.1,302.2,392.3,302.2z M384.8,302.2h-0.5c-0.8,0-1.5-0.7-1.5-1.5c0-0.8,0.7-1.5,1.5-1.5h0.5c0.8,0,1.5,0.7,1.5,1.5
		C386.3,301.6,385.6,302.2,384.8,302.2z M377.3,302.2h-0.5c-0.8,0-1.5-0.7-1.5-1.5c0-0.8,0.7-1.5,1.5-1.5h0.5c0.8,0,1.5,0.7,1.5,1.5
		C378.8,301.6,378.1,302.2,377.3,302.2z M369.8,302.2h-0.5c-0.8,0-1.5-0.7-1.5-1.5c0-0.8,0.7-1.5,1.5-1.5h0.5c0.8,0,1.5,0.7,1.5,1.5
		C371.3,301.6,370.6,302.2,369.8,302.2z M362.3,302.2h-0.5c-0.8,0-1.5-0.7-1.5-1.5c0-0.8,0.7-1.5,1.5-1.5h0.5c0.8,0,1.5,0.7,1.5,1.5
		C363.8,301.6,363.1,302.2,362.3,302.2z M354.8,302.2h-0.5c-0.8,0-1.5-0.7-1.5-1.5c0-0.8,0.7-1.5,1.5-1.5h0.5c0.8,0,1.5,0.7,1.5,1.5
		C356.3,301.6,355.6,302.2,354.8,302.2z M347.3,302.2h-0.5c-0.8,0-1.5-0.7-1.5-1.5c0-0.8,0.7-1.5,1.5-1.5h0.5c0.8,0,1.5,0.7,1.5,1.5
		C348.8,301.6,348.1,302.2,347.3,302.2z M339.8,302.2h-0.5c-0.8,0-1.5-0.7-1.5-1.5c0-0.8,0.7-1.5,1.5-1.5h0.5c0.8,0,1.5,0.7,1.5,1.5
		C341.3,301.6,340.6,302.2,339.8,302.2z M332.3,302.2h-0.5c-0.8,0-1.5-0.7-1.5-1.5c0-0.8,0.7-1.5,1.5-1.5h0.5c0.8,0,1.5,0.7,1.5,1.5
		C333.8,301.6,333.1,302.2,332.3,302.2z M324.8,302.2h-0.5c-0.8,0-1.5-0.7-1.5-1.5c0-0.8,0.7-1.5,1.5-1.5h0.5c0.8,0,1.5,0.7,1.5,1.5
		C326.3,301.6,325.6,302.2,324.8,302.2z M317.3,302.2h-0.5c-0.8,0-1.5-0.7-1.5-1.5c0-0.8,0.7-1.5,1.5-1.5h0.5c0.8,0,1.5,0.7,1.5,1.5
		C318.8,301.6,318.1,302.2,317.3,302.2z M309.8,302.2h-0.5c-0.8,0-1.5-0.7-1.5-1.5c0-0.8,0.7-1.5,1.5-1.5h0.5c0.8,0,1.5,0.7,1.5,1.5
		C311.3,301.6,310.6,302.2,309.8,302.2z M302.3,302.2h-0.5c-0.8,0-1.5-0.7-1.5-1.5c0-0.8,0.7-1.5,1.5-1.5h0.5c0.8,0,1.5,0.7,1.5,1.5
		C303.8,301.6,303.1,302.2,302.3,302.2z M294.8,302.2h-0.5c-0.8,0-1.5-0.7-1.5-1.5c0-0.8,0.7-1.5,1.5-1.5h0.5c0.8,0,1.5,0.7,1.5,1.5
		C296.3,301.6,295.6,302.2,294.8,302.2z M287.3,302.2h-0.5c-0.8,0-1.5-0.7-1.5-1.5c0-0.8,0.7-1.5,1.5-1.5h0.5c0.8,0,1.5,0.7,1.5,1.5
		C288.8,301.6,288.1,302.2,287.3,302.2z M279.8,302.2h-0.5c-0.8,0-1.5-0.7-1.5-1.5c0-0.8,0.7-1.5,1.5-1.5h0.5c0.8,0,1.5,0.7,1.5,1.5
		C281.3,301.6,280.6,302.2,279.8,302.2z M272.3,302.2h-0.5c-0.8,0-1.5-0.7-1.5-1.5c0-0.8,0.7-1.5,1.5-1.5h0.5c0.8,0,1.5,0.7,1.5,1.5
		C273.8,301.6,273.1,302.2,272.3,302.2z M264.8,302.2h-0.5c-0.8,0-1.5-0.7-1.5-1.5c0-0.8,0.7-1.5,1.5-1.5h0.5c0.8,0,1.5,0.7,1.5,1.5
		C266.3,301.6,265.6,302.2,264.8,302.2z M257.3,302.2h-0.5c-0.8,0-1.5-0.7-1.5-1.5c0-0.8,0.7-1.5,1.5-1.5h0.5c0.8,0,1.5,0.7,1.5,1.5
		C258.8,301.6,258.1,302.2,257.3,302.2z M249.8,302.2h-0.5c-0.8,0-1.5-0.7-1.5-1.5c0-0.8,0.7-1.5,1.5-1.5h0.5c0.8,0,1.5,0.7,1.5,1.5
		C251.3,301.6,250.6,302.2,249.8,302.2z"/>
</g>
<g class="st3">
	<g>
		<path class="st2" d="M424.4,387.5h-0.3c-0.8,0-1.5-0.7-1.5-1.5c0-0.8,0.7-1.5,1.5-1.5h0.3c0.8,0,1.5,0.7,1.5,1.5
			C425.9,386.8,425.2,387.5,424.4,387.5z"/>
	</g>
	<g>
		<path class="st2" d="M417.1,387.5h-0.5c-0.8,0-1.5-0.7-1.5-1.5c0-0.8,0.7-1.5,1.5-1.5h0.5c0.8,0,1.5,0.7,1.5,1.5
			C418.6,386.8,417.9,387.5,417.1,387.5z M409.6,387.5h-0.5c-0.8,0-1.5-0.7-1.5-1.5c0-0.8,0.7-1.5,1.5-1.5h0.5
			c0.8,0,1.5,0.7,1.5,1.5C411.1,386.8,410.4,387.5,409.6,387.5z M402,387.5h-0.5c-0.8,0-1.5-0.7-1.5-1.5c0-0.8,0.7-1.5,1.5-1.5h0.5
			c0.8,0,1.5,0.7,1.5,1.5C403.5,386.8,402.9,387.5,402,387.5z M394.5,387.5H394c-0.8,0-1.5-0.7-1.5-1.5c0-0.8,0.7-1.5,1.5-1.5h0.5
			c0.8,0,1.5,0.7,1.5,1.5C396,386.8,395.3,387.5,394.5,387.5z M387,387.5h-0.5c-0.8,0-1.5-0.7-1.5-1.5c0-0.8,0.7-1.5,1.5-1.5h0.5
			c0.8,0,1.5,0.7,1.5,1.5C388.5,386.8,387.8,387.5,387,387.5z M379.4,387.5h-0.5c-0.8,0-1.5-0.7-1.5-1.5c0-0.8,0.7-1.5,1.5-1.5h0.5
			c0.8,0,1.5,0.7,1.5,1.5C380.9,386.8,380.3,387.5,379.4,387.5z M371.9,387.5h-0.5c-0.8,0-1.5-0.7-1.5-1.5c0-0.8,0.7-1.5,1.5-1.5
			h0.5c0.8,0,1.5,0.7,1.5,1.5C373.4,386.8,372.7,387.5,371.9,387.5z M364.4,387.5h-0.5c-0.8,0-1.5-0.7-1.5-1.5
			c0-0.8,0.7-1.5,1.5-1.5h0.5c0.8,0,1.5,0.7,1.5,1.5C365.9,386.8,365.2,387.5,364.4,387.5z M356.8,387.5h-0.5
			c-0.8,0-1.5-0.7-1.5-1.5c0-0.8,0.7-1.5,1.5-1.5h0.5c0.8,0,1.5,0.7,1.5,1.5C358.3,386.8,357.7,387.5,356.8,387.5z M349.3,387.5
			h-0.5c-0.8,0-1.5-0.7-1.5-1.5c0-0.8,0.7-1.5,1.5-1.5h0.5c0.8,0,1.5,0.7,1.5,1.5C350.8,386.8,350.1,387.5,349.3,387.5z
			 M341.8,387.5h-0.5c-0.8,0-1.5-0.7-1.5-1.5c0-0.8,0.7-1.5,1.5-1.5h0.5c0.8,0,1.5,0.7,1.5,1.5C343.3,386.8,342.6,387.5,341.8,387.5
			z M334.3,387.5h-0.5c-0.8,0-1.5-0.7-1.5-1.5c0-0.8,0.7-1.5,1.5-1.5h0.5c0.8,0,1.5,0.7,1.5,1.5
			C335.8,386.8,335.1,387.5,334.3,387.5z M326.7,387.5h-0.5c-0.8,0-1.5-0.7-1.5-1.5c0-0.8,0.7-1.5,1.5-1.5h0.5
			c0.8,0,1.5,0.7,1.5,1.5C328.2,386.8,327.6,387.5,326.7,387.5z M319.2,387.5h-0.5c-0.8,0-1.5-0.7-1.5-1.5c0-0.8,0.7-1.5,1.5-1.5
			h0.5c0.8,0,1.5,0.7,1.5,1.5C320.7,386.8,320,387.5,319.2,387.5z"/>
	</g>
	<g>
		<path class="st2" d="M311.7,387.5h-0.3c-0.8,0-1.5-0.7-1.5-1.5c0-0.8,0.7-1.5,1.5-1.5h0.3c0.8,0,1.5,0.7,1.5,1.5
			C313.2,386.8,312.5,387.5,311.7,387.5z"/>
	</g>
</g>
<g class="st1">
	<g>
		<path class="st2" d="M420.4,429.5h-0.3c-0.8,0-1.5-0.7-1.5-1.5c0-0.8,0.7-1.5,1.5-1.5h0.3c0.8,0,1.5,0.7,1.5,1.5
			C421.9,428.8,421.2,429.5,420.4,429.5z"/>
	</g>
	<g>
		<path class="st2" d="M413.3,429.5h-0.5c-0.8,0-1.5-0.7-1.5-1.5c0-0.8,0.7-1.5,1.5-1.5h0.5c0.8,0,1.5,0.7,1.5,1.5
			C414.8,428.8,414.1,429.5,413.3,429.5z M405.9,429.5h-0.5c-0.8,0-1.5-0.7-1.5-1.5c0-0.8,0.7-1.5,1.5-1.5h0.5
			c0.8,0,1.5,0.7,1.5,1.5C407.4,428.8,406.7,429.5,405.9,429.5z M398.5,429.5H398c-0.8,0-1.5-0.7-1.5-1.5c0-0.8,0.7-1.5,1.5-1.5h0.5
			c0.8,0,1.5,0.7,1.5,1.5C400,428.8,399.4,429.5,398.5,429.5z M391.2,429.5h-0.5c-0.8,0-1.5-0.7-1.5-1.5c0-0.8,0.7-1.5,1.5-1.5h0.5
			c0.8,0,1.5,0.7,1.5,1.5C392.7,428.8,392,429.5,391.2,429.5z M383.8,429.5h-0.5c-0.8,0-1.5-0.7-1.5-1.5c0-0.8,0.7-1.5,1.5-1.5h0.5
			c0.8,0,1.5,0.7,1.5,1.5C385.3,428.8,384.6,429.5,383.8,429.5z M376.4,429.5h-0.5c-0.8,0-1.5-0.7-1.5-1.5c0-0.8,0.7-1.5,1.5-1.5
			h0.5c0.8,0,1.5,0.7,1.5,1.5C377.9,428.8,377.2,429.5,376.4,429.5z M369,429.5h-0.5c-0.8,0-1.5-0.7-1.5-1.5c0-0.8,0.7-1.5,1.5-1.5
			h0.5c0.8,0,1.5,0.7,1.5,1.5C370.5,428.8,369.9,429.5,369,429.5z M361.7,429.5h-0.5c-0.8,0-1.5-0.7-1.5-1.5c0-0.8,0.7-1.5,1.5-1.5
			h0.5c0.8,0,1.5,0.7,1.5,1.5C363.2,428.8,362.5,429.5,361.7,429.5z M354.3,429.5h-0.5c-0.8,0-1.5-0.7-1.5-1.5
			c0-0.8,0.7-1.5,1.5-1.5h0.5c0.8,0,1.5,0.7,1.5,1.5C355.8,428.8,355.1,429.5,354.3,429.5z M346.9,429.5h-0.5
			c-0.8,0-1.5-0.7-1.5-1.5c0-0.8,0.7-1.5,1.5-1.5h0.5c0.8,0,1.5,0.7,1.5,1.5C348.4,428.8,347.8,429.5,346.9,429.5z M339.6,429.5
			h-0.5c-0.8,0-1.5-0.7-1.5-1.5c0-0.8,0.7-1.5,1.5-1.5h0.5c0.8,0,1.5,0.7,1.5,1.5C341.1,428.8,340.4,429.5,339.6,429.5z
			 M332.2,429.5h-0.5c-0.8,0-1.5-0.7-1.5-1.5c0-0.8,0.7-1.5,1.5-1.5h0.5c0.8,0,1.5,0.7,1.5,1.5C333.7,428.8,333,429.5,332.2,429.5z
			 M324.8,429.5h-0.5c-0.8,0-1.5-0.7-1.5-1.5c0-0.8,0.7-1.5,1.5-1.5h0.5c0.8,0,1.5,0.7,1.5,1.5C326.3,428.8,325.6,429.5,324.8,429.5
			z M317.4,429.5H317c-0.8,0-1.5-0.7-1.5-1.5c0-0.8,0.7-1.5,1.5-1.5h0.5c0.8,0,1.5,0.7,1.5,1.5C318.9,428.8,318.3,429.5,317.4,429.5
			z M310.1,429.5h-0.5c-0.8,0-1.5-0.7-1.5-1.5c0-0.8,0.7-1.5,1.5-1.5h0.5c0.8,0,1.5,0.7,1.5,1.5
			C311.6,428.8,310.9,429.5,310.1,429.5z"/>
	</g>
	<g>
		<path class="st2" d="M302.7,429.5h-0.3c-0.8,0-1.5-0.7-1.5-1.5c0-0.8,0.7-1.5,1.5-1.5h0.3c0.8,0,1.5,0.7,1.5,1.5
			C304.2,428.8,303.5,429.5,302.7,429.5z"/>
	</g>
</g>
<g class="st1">
	<g>
		<path class="st2" d="M806.5,429.5h-0.3c-0.8,0-1.5-0.7-1.5-1.5c0-0.8,0.7-1.5,1.5-1.5h0.3c0.8,0,1.5,0.7,1.5,1.5
			C808,428.8,807.3,429.5,806.5,429.5z"/>
	</g>
	<g>
		<path class="st2" d="M799.2,429.5h-0.5c-0.8,0-1.5-0.7-1.5-1.5c0-0.8,0.7-1.5,1.5-1.5h0.5c0.8,0,1.5,0.7,1.5,1.5
			C800.7,428.8,800,429.5,799.2,429.5z M791.6,429.5h-0.5c-0.8,0-1.5-0.7-1.5-1.5c0-0.8,0.7-1.5,1.5-1.5h0.5c0.8,0,1.5,0.7,1.5,1.5
			C793.1,428.8,792.4,429.5,791.6,429.5z M784.1,429.5h-0.5c-0.8,0-1.5-0.7-1.5-1.5c0-0.8,0.7-1.5,1.5-1.5h0.5
			c0.8,0,1.5,0.7,1.5,1.5C785.6,428.8,784.9,429.5,784.1,429.5z M776.5,429.5H776c-0.8,0-1.5-0.7-1.5-1.5c0-0.8,0.7-1.5,1.5-1.5h0.5
			c0.8,0,1.5,0.7,1.5,1.5C778,428.8,777.3,429.5,776.5,429.5z M769,429.5h-0.5c-0.8,0-1.5-0.7-1.5-1.5c0-0.8,0.7-1.5,1.5-1.5h0.5
			c0.8,0,1.5,0.7,1.5,1.5C770.5,428.8,769.8,429.5,769,429.5z M761.4,429.5h-0.5c-0.8,0-1.5-0.7-1.5-1.5c0-0.8,0.7-1.5,1.5-1.5h0.5
			c0.8,0,1.5,0.7,1.5,1.5C762.9,428.8,762.2,429.5,761.4,429.5z M753.9,429.5h-0.5c-0.8,0-1.5-0.7-1.5-1.5c0-0.8,0.7-1.5,1.5-1.5
			h0.5c0.8,0,1.5,0.7,1.5,1.5C755.4,428.8,754.7,429.5,753.9,429.5z M746.3,429.5h-0.5c-0.8,0-1.5-0.7-1.5-1.5
			c0-0.8,0.7-1.5,1.5-1.5h0.5c0.8,0,1.5,0.7,1.5,1.5C747.8,428.8,747.1,429.5,746.3,429.5z M738.8,429.5h-0.5
			c-0.8,0-1.5-0.7-1.5-1.5c0-0.8,0.7-1.5,1.5-1.5h0.5c0.8,0,1.5,0.7,1.5,1.5C740.3,428.8,739.6,429.5,738.8,429.5z M731.2,429.5
			h-0.5c-0.8,0-1.5-0.7-1.5-1.5c0-0.8,0.7-1.5,1.5-1.5h0.5c0.8,0,1.5,0.7,1.5,1.5C732.7,428.8,732,429.5,731.2,429.5z M723.7,429.5
			h-0.5c-0.8,0-1.5-0.7-1.5-1.5c0-0.8,0.7-1.5,1.5-1.5h0.5c0.8,0,1.5,0.7,1.5,1.5C725.2,428.8,724.5,429.5,723.7,429.5z
			 M716.1,429.5h-0.5c-0.8,0-1.5-0.7-1.5-1.5c0-0.8,0.7-1.5,1.5-1.5h0.5c0.8,0,1.5,0.7,1.5,1.5C717.6,428.8,716.9,429.5,716.1,429.5
			z M708.6,429.5h-0.5c-0.8,0-1.5-0.7-1.5-1.5c0-0.8,0.7-1.5,1.5-1.5h0.5c0.8,0,1.5,0.7,1.5,1.5
			C710.1,428.8,709.4,429.5,708.6,429.5z M701,429.5h-0.5c-0.8,0-1.5-0.7-1.5-1.5c0-0.8,0.7-1.5,1.5-1.5h0.5c0.8,0,1.5,0.7,1.5,1.5
			C702.5,428.8,701.8,429.5,701,429.5z M693.5,429.5H693c-0.8,0-1.5-0.7-1.5-1.5c0-0.8,0.7-1.5,1.5-1.5h0.5c0.8,0,1.5,0.7,1.5,1.5
			C695,428.8,694.3,429.5,693.5,429.5z M685.9,429.5h-0.5c-0.8,0-1.5-0.7-1.5-1.5c0-0.8,0.7-1.5,1.5-1.5h0.5c0.8,0,1.5,0.7,1.5,1.5
			C687.4,428.8,686.7,429.5,685.9,429.5z M678.4,429.5h-0.5c-0.8,0-1.5-0.7-1.5-1.5c0-0.8,0.7-1.5,1.5-1.5h0.5
			c0.8,0,1.5,0.7,1.5,1.5C679.9,428.8,679.2,429.5,678.4,429.5z M670.8,429.5h-0.5c-0.8,0-1.5-0.7-1.5-1.5c0-0.8,0.7-1.5,1.5-1.5
			h0.5c0.8,0,1.5,0.7,1.5,1.5C672.3,428.8,671.6,429.5,670.8,429.5z M663.3,429.5h-0.5c-0.8,0-1.5-0.7-1.5-1.5
			c0-0.8,0.7-1.5,1.5-1.5h0.5c0.8,0,1.5,0.7,1.5,1.5C664.8,428.8,664.1,429.5,663.3,429.5z M655.7,429.5h-0.5
			c-0.8,0-1.5-0.7-1.5-1.5c0-0.8,0.7-1.5,1.5-1.5h0.5c0.8,0,1.5,0.7,1.5,1.5C657.2,428.8,656.5,429.5,655.7,429.5z M648.2,429.5
			h-0.5c-0.8,0-1.5-0.7-1.5-1.5c0-0.8,0.7-1.5,1.5-1.5h0.5c0.8,0,1.5,0.7,1.5,1.5C649.7,428.8,649,429.5,648.2,429.5z M640.6,429.5
			h-0.5c-0.8,0-1.5-0.7-1.5-1.5c0-0.8,0.7-1.5,1.5-1.5h0.5c0.8,0,1.5,0.7,1.5,1.5C642.1,428.8,641.4,429.5,640.6,429.5z
			 M633.1,429.5h-0.5c-0.8,0-1.5-0.7-1.5-1.5c0-0.8,0.7-1.5,1.5-1.5h0.5c0.8,0,1.5,0.7,1.5,1.5C634.6,428.8,633.9,429.5,633.1,429.5
			z M625.5,429.5H625c-0.8,0-1.5-0.7-1.5-1.5c0-0.8,0.7-1.5,1.5-1.5h0.5c0.8,0,1.5,0.7,1.5,1.5C627,428.8,626.4,429.5,625.5,429.5z
			 M618,429.5h-0.5c-0.8,0-1.5-0.7-1.5-1.5c0-0.8,0.7-1.5,1.5-1.5h0.5c0.8,0,1.5,0.7,1.5,1.5C619.5,428.8,618.8,429.5,618,429.5z
			 M610.4,429.5h-0.5c-0.8,0-1.5-0.7-1.5-1.5c0-0.8,0.7-1.5,1.5-1.5h0.5c0.8,0,1.5,0.7,1.5,1.5C611.9,428.8,611.3,429.5,610.4,429.5
			z M602.9,429.5h-0.5c-0.8,0-1.5-0.7-1.5-1.5c0-0.8,0.7-1.5,1.5-1.5h0.5c0.8,0,1.5,0.7,1.5,1.5
			C604.4,428.8,603.7,429.5,602.9,429.5z M595.3,429.5h-0.5c-0.8,0-1.5-0.7-1.5-1.5c0-0.8,0.7-1.5,1.5-1.5h0.5
			c0.8,0,1.5,0.7,1.5,1.5C596.8,428.8,596.2,429.5,595.3,429.5z M587.8,429.5h-0.5c-0.8,0-1.5-0.7-1.5-1.5c0-0.8,0.7-1.5,1.5-1.5
			h0.5c0.8,0,1.5,0.7,1.5,1.5C589.3,428.8,588.6,429.5,587.8,429.5z M580.2,429.5h-0.5c-0.8,0-1.5-0.7-1.5-1.5
			c0-0.8,0.7-1.5,1.5-1.5h0.5c0.8,0,1.5,0.7,1.5,1.5C581.7,428.8,581.1,429.5,580.2,429.5z M572.7,429.5h-0.5
			c-0.8,0-1.5-0.7-1.5-1.5c0-0.8,0.7-1.5,1.5-1.5h0.5c0.8,0,1.5,0.7,1.5,1.5C574.2,428.8,573.5,429.5,572.7,429.5z M565.1,429.5
			h-0.5c-0.8,0-1.5-0.7-1.5-1.5c0-0.8,0.7-1.5,1.5-1.5h0.5c0.8,0,1.5,0.7,1.5,1.5C566.6,428.8,566,429.5,565.1,429.5z M557.6,429.5
			h-0.5c-0.8,0-1.5-0.7-1.5-1.5c0-0.8,0.7-1.5,1.5-1.5h0.5c0.8,0,1.5,0.7,1.5,1.5C559.1,428.8,558.4,429.5,557.6,429.5z M550,429.5
			h-0.5c-0.8,0-1.5-0.7-1.5-1.5c0-0.8,0.7-1.5,1.5-1.5h0.5c0.8,0,1.5,0.7,1.5,1.5C551.5,428.8,550.9,429.5,550,429.5z M542.5,429.5
			H542c-0.8,0-1.5-0.7-1.5-1.5c0-0.8,0.7-1.5,1.5-1.5h0.5c0.8,0,1.5,0.7,1.5,1.5C544,428.8,543.3,429.5,542.5,429.5z M534.9,429.5
			h-0.5c-0.8,0-1.5-0.7-1.5-1.5c0-0.8,0.7-1.5,1.5-1.5h0.5c0.8,0,1.5,0.7,1.5,1.5C536.4,428.8,535.8,429.5,534.9,429.5z
			 M527.4,429.5h-0.5c-0.8,0-1.5-0.7-1.5-1.5c0-0.8,0.7-1.5,1.5-1.5h0.5c0.8,0,1.5,0.7,1.5,1.5C528.9,428.8,528.2,429.5,527.4,429.5
			z M519.8,429.5h-0.5c-0.8,0-1.5-0.7-1.5-1.5c0-0.8,0.7-1.5,1.5-1.5h0.5c0.8,0,1.5,0.7,1.5,1.5
			C521.3,428.8,520.7,429.5,519.8,429.5z M512.3,429.5h-0.5c-0.8,0-1.5-0.7-1.5-1.5c0-0.8,0.7-1.5,1.5-1.5h0.5
			c0.8,0,1.5,0.7,1.5,1.5C513.8,428.8,513.1,429.5,512.3,429.5z M504.7,429.5h-0.5c-0.8,0-1.5-0.7-1.5-1.5c0-0.8,0.7-1.5,1.5-1.5
			h0.5c0.8,0,1.5,0.7,1.5,1.5C506.2,428.8,505.6,429.5,504.7,429.5z M497.2,429.5h-0.5c-0.8,0-1.5-0.7-1.5-1.5
			c0-0.8,0.7-1.5,1.5-1.5h0.5c0.8,0,1.5,0.7,1.5,1.5C498.7,428.8,498,429.5,497.2,429.5z M489.6,429.5h-0.5c-0.8,0-1.5-0.7-1.5-1.5
			c0-0.8,0.7-1.5,1.5-1.5h0.5c0.8,0,1.5,0.7,1.5,1.5C491.1,428.8,490.5,429.5,489.6,429.5z M482.1,429.5h-0.5
			c-0.8,0-1.5-0.7-1.5-1.5c0-0.8,0.7-1.5,1.5-1.5h0.5c0.8,0,1.5,0.7,1.5,1.5C483.6,428.8,482.9,429.5,482.1,429.5z M474.5,429.5H474
			c-0.8,0-1.5-0.7-1.5-1.5c0-0.8,0.7-1.5,1.5-1.5h0.5c0.8,0,1.5,0.7,1.5,1.5C476,428.8,475.4,429.5,474.5,429.5z M467,429.5h-0.5
			c-0.8,0-1.5-0.7-1.5-1.5c0-0.8,0.7-1.5,1.5-1.5h0.5c0.8,0,1.5,0.7,1.5,1.5C468.5,428.8,467.8,429.5,467,429.5z M459.4,429.5h-0.5
			c-0.8,0-1.5-0.7-1.5-1.5c0-0.8,0.7-1.5,1.5-1.5h0.5c0.8,0,1.5,0.7,1.5,1.5C460.9,428.8,460.3,429.5,459.4,429.5z M451.9,429.5
			h-0.5c-0.8,0-1.5-0.7-1.5-1.5c0-0.8,0.7-1.5,1.5-1.5h0.5c0.8,0,1.5,0.7,1.5,1.5C453.4,428.8,452.7,429.5,451.9,429.5z"/>
	</g>
	<g>
		<path class="st2" d="M444.3,429.5h-0.3c-0.8,0-1.5-0.7-1.5-1.5c0-0.8,0.7-1.5,1.5-1.5h0.3c0.8,0,1.5,0.7,1.5,1.5
			C445.8,428.8,445.2,429.5,444.3,429.5z"/>
	</g>
</g>
<g>
	<g>
		<path class="st8" d="M229.5,321.6c8-7.1,12-13.7,11.8-19.6c-0.2-5.1-3.4-7.7-3.6-7.8l-0.8,1.1c0,0,2.9,2.3,3,6.8
			c0.2,5.4-3.8,11.8-11.3,18.5L229.5,321.6z"/>
	</g>
	<g>
		<path class="st2" d="M207.4,393.9c1,0,1.8-0.7,1.9-1.7c1.4-12.4,7.6-23.5,17.4-31.3c9.8-7.8,22-11.3,34.4-9.9
			c8.7,1,16.9,4.4,23.8,9.9c0.8,0.7,2,0.5,2.7-0.3c0.7-0.8,0.5-2-0.3-2.7c-7.4-5.9-16.3-9.6-25.7-10.7c-13.4-1.5-26.6,2.3-37.2,10.7
			c-10.6,8.4-17.3,20.4-18.8,33.9c-0.1,1,0.6,2,1.7,2.1C207.3,393.9,207.4,393.9,207.4,393.9z"/>
	</g>
	<g>
		<path class="st2" d="M149.3,393.9c0.1,0,0.1,0,0.2,0c1-0.1,1.8-1.1,1.7-2.1c-1.5-13.4-8.2-25.4-18.8-33.9
			c-10.6-8.4-23.8-12.2-37.2-10.7c-9.4,1.1-18.3,4.8-25.7,10.7c-0.8,0.7-1,1.9-0.3,2.7c0.7,0.8,1.9,1,2.7,0.3
			c6.8-5.5,15.1-8.9,23.8-9.9c12.4-1.4,24.6,2.1,34.4,9.9c9.8,7.8,16,18.9,17.4,31.3C147.5,393.2,148.3,393.9,149.3,393.9z"/>
	</g>
	<g>
		<polygon class="st2" points="55.7,397.6 55.8,395.7 95.7,397 59.5,380.1 60.3,378.4 96.3,395.2 69.4,366.5 69.2,366.2 70.6,364.9 
			97.9,394 84.4,356.9 84.2,356.5 86.1,355.8 99.6,393.1 100.9,353.9 100.9,353.5 102.8,353.5 101.5,393.5 118.4,357.3 120.2,358.1 
			103.4,394 132,367.2 132.3,366.9 133.7,368.3 104.5,395.6 141.7,382.1 142.1,382 142.7,383.8 105.4,397.3 144.7,398.6 
			145.1,398.7 145,400.6 105.1,399.3 141.3,416.2 140.5,417.9 104.5,401.1 131.4,429.8 131.6,430.1 130.2,431.4 102.9,402.2 
			116.4,439.4 116.6,439.8 114.7,440.5 101.2,403.2 99.9,442.4 99.9,442.8 98,442.8 99.3,402.8 82.4,439 80.6,438.2 97.4,402.3 
			68.7,429.1 68.5,429.4 67.1,428 96.3,400.7 59.1,414.2 58.7,414.3 58.1,412.5 95.4,398.9 56.1,397.7 		"/>
		<polygon class="st2" points="211.6,397.6 211.7,395.7 251.6,397 215.4,380.1 216.2,378.4 252.2,395.2 225.4,366.5 225.1,366.2 
			226.5,364.9 253.8,394 240.3,356.9 240.2,356.5 242,355.8 255.5,393.1 256.8,353.9 256.8,353.5 258.7,353.5 257.4,393.5 
			274.3,357.3 276.1,358.1 259.3,394 288,367.2 288.3,366.9 289.6,368.3 260.4,395.6 297.6,382.1 298,382 298.6,383.8 261.3,397.3 
			300.6,398.6 301,398.7 300.9,400.6 261,399.3 297.2,416.2 296.4,417.9 260.4,401.1 287.3,429.8 287.5,430.1 286.1,431.4 
			258.8,402.2 272.3,439.4 272.5,439.8 270.7,440.5 257.1,403.2 255.8,442.4 255.8,442.8 253.9,442.8 255.2,402.8 238.3,439 
			236.5,438.2 253.3,402.3 224.7,429.1 224.4,429.4 223,428 252.2,400.7 215,414.2 214.7,414.3 214,412.5 251.3,398.9 212,397.7 		
			"/>
		<g>
			<g>
				<path class="st8" d="M100.2,446.7c-26.9,0-48.7-21.9-48.7-48.7s21.9-48.7,48.7-48.7c26.9,0,48.7,21.9,48.7,48.7
					S127,446.7,100.2,446.7z M100.2,354.4c-24,0-43.6,19.5-43.6,43.6c0,24,19.5,43.6,43.6,43.6s43.6-19.5,43.6-43.6
					C143.7,373.9,124.2,354.4,100.2,354.4z"/>
			</g>
		</g>
		<g>
			<g>
				<g>
					<path class="st8" d="M250.6,447c-26.7-3.1-45.9-27.3-42.8-53.9c3.1-26.7,27.3-45.9,53.9-42.8c26.7,3.1,45.9,27.3,42.8,53.9
						C301.4,430.9,277.2,450.1,250.6,447z M261.1,355.4c-23.9-2.7-45.5,14.4-48.2,38.3c-2.7,23.9,14.4,45.5,38.3,48.2
						c23.9,2.7,45.5-14.4,48.2-38.3C302.1,379.7,284.9,358.1,261.1,355.4z"/>
				</g>
			</g>
		</g>
		<g>
			<g>
				<polygon class="st11" points="166.9,399.8 103.8,400.1 100.4,392.9 148.8,334.9 151.6,337.1 104.6,393.4 106.1,396.5 167,396.1 
									"/>
			</g>
		</g>
		<g>
			<g>
				<polygon class="st11" points="180.4,388.7 176.9,384.9 228.9,340.7 228.3,339.1 147.9,339.1 147.9,333.9 231.7,333.9 235.1,342 
									"/>
			</g>
		</g>
		<g>
			<g>
				<path class="st8" d="M228.5,321.1c-1-0.1-1.9-0.9-2-2l-1.5-10.7c-0.8-5.3,1.1-7.2,3.6-8.9c0.3-0.2,0.6-0.4,0.9-0.7
					c0.3-0.2,0.5-0.4,0.8-0.6c1.7-1.3,4.2-3.2,3.8-4.8c-0.1-0.3-0.2-0.6-0.5-0.8c-0.3-0.2-0.8-0.1-0.8-0.1c-0.1,0-0.3,0.1-0.4,0.1
					l-0.7-4.6c0.7-0.2,2.5-0.4,4.1,0.5c0.9,0.5,2.1,1.5,2.7,3.6c1.3,4.6-2.9,7.8-5.4,9.7c-0.3,0.2-0.5,0.4-0.8,0.6
					c-0.4,0.3-0.7,0.6-1.1,0.8c-1.7,1.2-2.2,1.5-1.7,4.4l1.6,10.7c0.2,1.3-0.7,2.4-2,2.6C228.9,321.1,228.7,321.1,228.5,321.1z"/>
			</g>
		</g>
		<g>
			<g>
				<path class="st8" d="M150.8,345.2c-0.7-0.1-1.4-0.5-1.6-1.3l-7.5-25.4c-0.3-1,0.2-2,1.2-2.3c1-0.3,2,0.2,2.3,1.2l7.5,25.4
					c0.3,1-0.2,2-1.2,2.3C151.3,345.2,151.1,345.2,150.8,345.2z"/>
			</g>
		</g>
		<g>
			<g>
				<path class="st8" d="M100,406.5c-4.4,0-8-3.6-8-8c0-4.4,3.6-8,8-8c4.4,0,8,3.6,8,8C108,402.9,104.4,406.5,100,406.5z M100,394.1
					c-2.4,0-4.4,2-4.4,4.4c0,2.4,2,4.4,4.4,4.4c2.4,0,4.4-2,4.4-4.4C104.4,396,102.4,394.1,100,394.1z"/>
			</g>
		</g>
		<g>
			<g>
				<path class="st8" d="M168,380.8l-70.5,10.4c-1,0.2-1.6,1.1-1.5,2.1c0.2,0.9,0.9,1.5,1.8,1.5c0.1,0,0.2,0,0.3,0l71-10.5
					C168.5,383.2,168.2,382,168,380.8z"/>
			</g>
		</g>
		<g>
			<g>
				<path class="st8" d="M164.1,407.6l-63.9-4.9c-1-0.1-1.9,0.6-2,1.6c-0.1,1,0.6,1.9,1.6,2l65.1,5
					C164.4,410.1,164.1,408.9,164.1,407.6z"/>
			</g>
		</g>
		<g>
			<g>
				<path class="st11" d="M254.1,400.7l-10.2-17.2c-2.7-4.4-4.7-9.1-6-14.1l-12-52.3l5-1.3l11.1,48.7c1.8,6.8,4.5,13.4,8.1,19.4
					l8.4,14L254.1,400.7z"/>
			</g>
		</g>
		<g>
			<g>
				
					<rect x="152.1" y="330.5" transform="matrix(0.9605 -0.2784 0.2784 0.9605 -93.2594 57.1698)" class="st11" width="5.2" height="52.8"/>
			</g>
		</g>
		<g>
			<g>
				<path class="st9" d="M168,412.5c-8.9,0-16.1-7.2-16.1-16.1c0-8.9,7.2-16.1,16.1-16.1c8.9,0,16.1,7.2,16.1,16.1
					C184.1,405.3,176.9,412.5,168,412.5z"/>
			</g>
		</g>
		<g>
			<g>
				<g>
					<path class="st8" d="M157,423.4c-0.4-0.3-0.7-0.8-0.6-1.4c0.1-0.9,0.8-1.6,1.7-1.6l12.9,0.7c0.9,0.1,1.6,0.8,1.6,1.7
						c0,0.9-0.8,1.6-1.7,1.6l-12.9-0.7C157.6,423.8,157.3,423.6,157,423.4z"/>
				</g>
			</g>
		</g>
		<g>
			<path class="st9" d="M133.1,309.7c7.1,0.7,28.5-1.7,28.5-1.7c1.9-0.2,2.7,2.3,1.1,3.3l-21.1,9.7c-7.3,4.3-12.3,0.3-12.7-0.7
				l-1.7-6.4C126.8,312.7,127.6,309.2,133.1,309.7z"/>
		</g>
		<g>
			<g>
				
					<ellipse transform="matrix(0.1139 -0.9935 0.9935 0.1139 -168.9964 607.8409)" class="st2" cx="256.3" cy="398.7" rx="4.4" ry="4.4"/>
			</g>
		</g>
		<g>
			<circle class="st8" cx="100" cy="398.5" r="6.2"/>
		</g>
		<g>
			<path class="st8" d="M164.5,424.5c-0.1,0-0.2,0-0.3,0c-1.1-0.1-1.9-1.2-1.7-2.3l3.5-26.1c0.1-1.1,1.2-1.9,2.3-1.7
				c1.1,0.1,1.9,1.2,1.7,2.3l-3.5,26.1C166.3,423.8,165.5,424.5,164.5,424.5z"/>
		</g>
		<g>
			<path class="st2" d="M248,339.2c0,0.6-0.4,1.1-1,1.2l-5.6,0.4c-2.9,0.2-5.5-2-5.7-4.9l0,0c-0.2-2.9,2-5.5,4.9-5.7l5.6-0.4
				c0.6,0,1.1,0.4,1.2,1L248,339.2z"/>
		</g>
		<g>
			<polygon class="st2" points="228.8,333.9 238.7,333.9 239.7,339.1 228.3,339.1 			"/>
		</g>
	</g>
	<path class="st9" d="M230.9,293.7l-12.4-2.7c-1.9-0.4-3-2.2-2.6-4.1l0,0c0.4-1.9,2.2-3,4.1-2.6l12.4,2.7c1.9,0.4,3,2.2,2.6,4.1l0,0
		C234.6,293,232.8,294.1,230.9,293.7z"/>
	<g>
		<path class="st2" d="M133.4,342.8H79.9c-0.2,0-0.3-0.1-0.3-0.3v-3.1c0-0.2,0.1-0.3,0.3-0.3h53.4c0.2,0,0.3,0.1,0.3,0.3v3.1
			C133.7,342.6,133.6,342.8,133.4,342.8z"/>
	</g>
	<g>
		
			<rect x="128.1" y="338.6" transform="matrix(0.685 -0.7285 0.7285 0.685 -211.0491 203.7368)" class="st2" width="4" height="14.6"/>
	</g>
</g>
<g>
	<g>
		<path class="st2" d="M507.9,295c0,0-7.7-18.2-3.5-44.4c5.4-32.9,15.1-49.4,16.2-51.9s4.6-6.1,7.8-7.4c3.2-1.3,20.4-5.1,33.2,1.7
			c12.8,6.9,24,27.8,32.8,51.5c6.5,17.4,1.5,54.5-0.6,61.8s-4.2,21.7-4.5,25.4c-2,25.7-0.7,55.3-1.4,59.3c-0.8,4,4,52.8-38,57.1
			c-42.1,4.3-39.8-64.8-39.8-64.8l0.7-33.7L507.9,295z"/>
		<path class="st11" d="M511.9,345.1l-2.3-52.1c0,0-6.3-28,1.1-58.6c7.4-30.6,14-41.2,19.5-42.3c5.4-1.1,23.7-4,33.2,4.3
			c9.4,8.3,26.9,38.2,29.2,68c2.3,29.8-2.9,50.2-4.3,67.6c-1.4,17.5-1.6,42.7-2,52.6c-0.9,18.9-1.4,48.6-20,58.1
			c-18,9.2-52.6,9.6-56.4-43.8C508.2,374.3,511.9,345.1,511.9,345.1z"/>
		<path class="st9" d="M580.2,291.7c-0.3-1.4-0.2-2.9,0.2-4.1c-0.1-0.4-0.1-0.7-0.1-1.1c0-8.8-1.1-17.8-4.9-25.2
			c-3.6-6.9-8.9-11.8-16.1-15.3c-0.2-0.1-0.4-0.2-0.5-0.3c-0.1,0-0.1,0-0.2-0.1c-0.5-0.2-0.9-0.4-1.4-0.5c-0.8-0.3-1.6-0.5-2.4-0.8
			c-0.9-0.3-1.9-0.5-2.8-0.7c-0.3-0.1-0.7-0.1-1-0.2c-0.2,0-0.3,0-0.3-0.1c-1.8-0.2-3.6-0.3-5.5-0.2c-0.8,0-1.6,0.1-2.4,0.2
			c-1.4,0.1-0.5,0.1-0.2,0c-0.4,0.1-0.9,0.1-1.3,0.2c-1.7,0.3-3.5,0.8-5.1,1.4c-0.3,0.1-0.7,0.3-1,0.4c-0.1,0-0.2,0.1-0.4,0.2
			c-0.7,0.3-1.4,0.7-2,1.1c-0.9,0.5-1.7,1-2.5,1.6c-0.3,0.2-0.5,0.4-0.8,0.6c0,0,0,0-0.1,0c0,0-0.1,0.1-0.1,0.1
			c-1.3,1.1-2.5,2.2-3.6,3.4c-0.2,0.3-1.2,1.5-1.2,1.4c-0.5,0.7-0.9,1.4-1.4,2.1c-0.5,0.8-0.9,1.6-1.3,2.4c-0.2,0.3-0.3,0.6-0.4,0.9
			c0,0.1-0.1,0.1-0.1,0.2c0,0,0,0.1,0,0.1c-1.5,3.7-2,6.8-2.2,10.2c-0.1,1.1-0.4,2.2-0.9,3.2c0.1,0.4,0.1,0.9,0.1,1.4
			c-0.1,5.7-1.3,10.8-4.5,15.4c-0.8,1.7-2.4,2.8-4.1,3.2c0,0.1,0,0.2,0,0.2l2.3,52.1c0,0-3.7,29.2-2,53.8
			c3.7,53.3,38.3,52.9,56.4,43.8c18.6-9.5,19.2-39.2,20-58.1c0.5-9.9,0.6-35.2,2-52.6c0.7-8,2.1-16.5,3.2-26.4
			C586.1,302.4,581.7,298,580.2,291.7z"/>
		<path class="st11" d="M573.5,333.7c-1.4-1-3-1.8-4.6-2.5c-3.8-1.7-6.5-5.5-8.3-9.3c-5.6-0.7-11.2-1.1-16.7-0.7
			c-8,1.5-15.6,4.3-23.2,7.1c-0.9,2.6-2.4,4.9-4.3,7.3c0.6-0.8,0.6-1.6,1.3-2.5c-2,2.7-2.9,5.6-4.3,8.7c-0.6,1.4-1.2,2.8-1.8,4.2
			c-0.6,5.5-3.4,30.9-1.9,52.7c3.7,53.3,38.3,52.9,56.4,43.8c18.6-9.5,19.2-39.2,20-58.1C586.6,376.8,583.5,338.8,573.5,333.7z"/>
		<path class="st7" d="M570.9,332.5c-1.3-0.9-10-6.9-11.6-10.6c-5.1-0.6-10.2-1.1-15.3-0.6c-7.3,1.4-14.2,4.2-21.1,6.9
			c-0.9,2.5-3.3,5.5-2.7,4.7c-1.8,2.7-2.7,5.5-3.9,8.5c-0.5,1.4-1.1,2.7-1.6,4.1c-0.6,5.3-3.1,30.1-1.7,51.3
			c3.4,51.9,35,51.5,51.5,42.6c17-9.2,17.5-38.1,18.3-56.5C583,375.2,580.1,337.5,570.9,332.5z"/>
		<path class="st2" d="M514.5,289.6c0,0-4.9-20.3-3.1-36.6c1.7-16.3,12.7-46.5,18.9-48.5c10.1-3.3,24.9-3.3,33.8,11.6
			c8.9,14.9,14.6,30,17.7,40.9c3.1,10.9,5.1,24,4.9,25.5c-0.3,1.4-5.1,12.3-5.1,12.3s-8.6-16.9-9.2-19.7c-0.6-2.9,1.1-16-12.3-20.3
			c-13.4-4.3-34.3-4-36.6,6.3C521,271.3,519.9,281.6,514.5,289.6z"/>
		<g>
			<g>
				
					<ellipse transform="matrix(0.1718 -0.9851 0.9851 0.1718 168.4252 745.9211)" class="st8" cx="527.9" cy="272.8" rx="1.9" ry="1.9"/>
				
					<ellipse transform="matrix(0.1718 -0.9851 0.9851 0.1718 153.7727 754.931)" class="st8" cx="525.9" cy="286" rx="1.9" ry="1.9"/>
				
					<ellipse transform="matrix(0.1718 -0.9851 0.9851 0.1718 140.8243 762.1289)" class="st8" cx="523.7" cy="297.3" rx="1.9" ry="1.9"/>
				
					<ellipse transform="matrix(0.1718 -0.9851 0.9851 0.1718 127.7443 770.3154)" class="st8" cx="522" cy="309.2" rx="1.9" ry="1.9"/>
				
					<ellipse transform="matrix(0.1718 -0.9851 0.9851 0.1718 115.5129 778.9349)" class="st8" cx="521" cy="320.8" rx="1.9" ry="1.9"/>
				
					<ellipse transform="matrix(0.1718 -0.9851 0.9851 0.1718 157.5283 828.9127)" class="st8" cx="571.8" cy="320.8" rx="1.9" ry="1.9"/>
			</g>
			<g>
				
					<ellipse transform="matrix(0.9851 -0.1718 0.1718 0.9851 -38.6241 101.0763)" class="st8" cx="564.6" cy="273.7" rx="1.9" ry="1.9"/>
				
					<ellipse transform="matrix(0.9851 -0.1718 0.1718 0.9851 -40.715 101.6721)" class="st8" cx="566.9" cy="286" rx="1.9" ry="1.9"/>
				
					<ellipse transform="matrix(0.9851 -0.1718 0.1718 0.9851 -42.6529 102.2069)" class="st8" cx="569.1" cy="297.5" rx="1.9" ry="1.9"/>
				
					<ellipse transform="matrix(0.9851 -0.1718 0.1718 0.9851 -44.6406 102.6833)" class="st8" cx="570.8" cy="309.2" rx="1.9" ry="1.9"/>
			</g>
		</g>
		<path class="st8" d="M519.5,352.2c0,0-5.1,33.6,1.1,55.1c6.3,21.6,14.3,29.8,24.8,30.5c10.5,0.8,19.1-3.2,24.8-18.3
			c2.7-7.2,9.2-37.6-1.7-64.7L519.5,352.2z"/>
		<g>
			<path class="st8" d="M560.7,194.9c-0.2,0-0.3,0-0.5-0.1c-16.9-6.6-32.3-1-32.5-1c-0.7,0.3-1.6-0.1-1.8-0.8
				c-0.3-0.7,0.1-1.6,0.8-1.8c0.7-0.2,16.6-6,34.5,1c0.7,0.3,1.1,1.1,0.8,1.9C561.8,194.5,561.2,194.9,560.7,194.9z"/>
		</g>
		<path class="st11" d="M573.2,349l-3.2-11.5c-1.6-6.3-14.5-55.4-15-60.9c-0.5-4.7-2-7.6-7.2-8.7c0,0-1.5-0.4-2.1-0.3
			c-0.7-0.1-2.1,0.3-2.1,0.3c-5.1,1.1-6.7,4-7.2,8.7c-0.6,5.9-15.2,61.6-15.2,61.6l-2.4,10.9c0,0-1.4,7,11.2,7.5
			c8.8,0.4,23.2,0.4,32,0C574.6,356,573.2,349,573.2,349z"/>
		<path class="st11" d="M539.7,272.9c0-1.3-0.9-0.3-1-1.6c0-0.4,0-0.7,0.1-1c-1.4,1.5-2.1,3.6-2.3,6.3c-0.4,4.2-8,33.8-12.3,50.4
			c1.7-1.2,3.5-2.3,5.4-3.2C532.1,307.5,537,289.1,539.7,272.9z"/>
		<path class="st11" d="M555.1,276.6c-0.3-2.9-1-5.2-2.7-6.7c0.1,0.3,0.1,0.5,0.1,0.8c0.7,1-0.8,0.5-0.7,2
			c0.3,10.8,4.5,23.1,6.3,33.8c1.1,6.4,1.9,12.9,2.6,19.3c1,0.4,1.9,0.9,2.8,1.5c1.5,1,3.1,2,4.7,2.9
			C564.1,314.6,555.5,281,555.1,276.6z"/>
		<g>
			<path class="st7" d="M557.7,267.3c-4.7-1-11.6-0.8-11.6-0.8c0,0-6.9-0.3-11.6,0.8c-6.8,1.5-6.7,6.9-6.7,6.9
				c2.5-1.9,6.3-1.5,6.3-1.5h12h0h12c0,0,3.8-0.4,6.3,1.5C564.3,274.1,564.4,268.8,557.7,267.3z"/>
			<path class="st7" d="M525.9,286c0,0,0-3.7,1.9-4.9c1.9-1.1,18.3-8.7,18.3-8.7h13.7l-27.3,13.2C532.5,285.6,529,287.4,525.9,286z"
				/>
			<path class="st7" d="M523.5,297.6c0,0,0-3.7,1.9-4.9c1.9-1.1,24.9-12,24.9-12l7.2,3.3L530,297.2C530,297.2,526.6,299,523.5,297.6
				z"/>
			<path class="st7" d="M522,309.2c0,0,0-3.7,1.9-4.9c1.9-1.1,26.7-13,26.7-13l7.1,3.1l-29,14.3C528.6,308.7,525.2,310.6,522,309.2z
				"/>
			<path class="st7" d="M521,320.8c0,0,0-3.7,1.9-4.9c1.9-1.1,28-13.5,28-13.5l7.2,3.3l-30.4,14.6
				C527.6,320.3,524.2,322.2,521,320.8z"/>
			<path class="st7" d="M515.7,336.6c0,0-0.1-5,4.3-9.2c1.6-1.5,30.1-14.5,30.1-14.5l6.9,3.3l-32.3,14.6
				C524.7,330.9,519.4,333.8,515.7,336.6z"/>
			<g>
				<path class="st7" d="M566.9,286c0,0,0-3.7-1.9-4.9c-1.9-1.1-18.3-8.7-18.3-8.7H533l27.3,13.2C560.3,285.6,563.8,287.4,566.9,286
					z"/>
				<path class="st7" d="M569.3,297.6c0,0,0-3.7-1.9-4.9c-1.9-1.1-24.4-12.2-24.4-12.2l-7.6,3.5l27.3,13.2
					C562.8,297.2,566.2,299,569.3,297.6z"/>
				<path class="st7" d="M570.8,309.2c0,0,0-3.7-1.9-4.9c-1.9-1.1-27.6-12.5-27.6-12.5l-6.3,3l29.1,14
					C564.2,308.7,567.6,310.6,570.8,309.2z"/>
				<path class="st7" d="M571.8,320.8c0,0,0-3.7-1.9-4.9c-1.9-1.1-28.8-13.4-28.8-13.4l-6.2,3.1l30.2,14.6
					C565.2,320.3,568.6,322.2,571.8,320.8z"/>
			</g>
			<path class="st7" d="M576.7,336.5c0,0-0.8-5.4-4.6-9c-1.6-1.5-30.1-14.5-30.1-14.5l-6.9,3.3l32.3,14.6
				C567.5,330.9,573.1,333.6,576.7,336.5z"/>
		</g>
	</g>
	<path class="st8" d="M530.1,416.3c0.8,0.8,1.7,0.7-0.6-0.6C529.7,415.9,529.9,416.1,530.1,416.3z"/>
	<g>
		<path class="st2" d="M492.1,295c0,0,8.2-18.2,3.5-44.4c-6.5-35.9-15.1-49.4-16.2-51.9c-1.1-2.5-4.6-6.1-7.8-7.4
			c-3.2-1.3-20.4-5.1-33.2,1.7c-12.8,6.9-24,27.8-32.8,51.5c-6.5,17.4-1.5,54.5,0.6,61.8c2.1,7.2,4.2,21.7,4.5,25.4
			c2,25.7,0.7,55.3,1.4,59.3c0.8,4-4,52.8,38,57.1c42.1,4.3,39.8-64.8,39.8-64.8l-0.7-33.7L492.1,295z"/>
		<path class="st11" d="M488.1,345.1l2.3-52.1c0,0,6.3-28-1.1-58.6c-7.4-30.6-14-41.2-19.5-42.3c-5.4-1.1-23.7-4-33.2,4.3
			c-9.4,8.3-26.9,38.2-29.2,68c-2.3,29.8,2.9,50.2,4.3,67.6c1.4,17.5,1.6,42.7,2,52.6c0.9,18.9,1.4,48.6,20,58.1
			c18,9.2,52.6,9.6,56.4-43.8C491.8,374.3,488.1,345.1,488.1,345.1z"/>
		<path class="st9" d="M419.8,291.7c0.3-1.4,0.2-2.9-0.2-4.1c0.1-0.4,0.1-0.7,0.1-1.1c0-8.8,1.1-17.8,4.9-25.2
			c3.6-6.9,8.9-11.8,16.1-15.3c0.2-0.1,0.4-0.2,0.5-0.3c0.1,0,0.1,0,0.2-0.1c0.5-0.2,0.9-0.4,1.4-0.5c0.8-0.3,1.6-0.5,2.4-0.8
			c0.9-0.3,1.9-0.5,2.8-0.7c0.3-0.1,0.7-0.1,1-0.2c0.2,0,0.3,0,0.3-0.1c1.8-0.2,3.6-0.3,5.5-0.2c0.8,0,1.6,0.1,2.4,0.2
			c1.4,0.1,0.5,0.1,0.2,0c0.4,0.1,0.9,0.1,1.3,0.2c1.7,0.3,3.5,0.8,5.1,1.4c0.3,0.1,0.7,0.3,1,0.4c0.1,0,0.2,0.1,0.4,0.2
			c0.7,0.3,1.4,0.7,2,1.1c0.9,0.5,1.7,1,2.5,1.6c0.3,0.2,0.5,0.4,0.8,0.6c0,0,0,0,0.1,0c0,0,0.1,0.1,0.1,0.1
			c1.3,1.1,2.5,2.2,3.6,3.4c0.2,0.3,1.2,1.5,1.2,1.4c0.5,0.7,0.9,1.4,1.4,2.1c0.5,0.8,0.9,1.6,1.3,2.4c0.2,0.3,0.3,0.6,0.4,0.9
			c0,0.1,0.1,0.1,0.1,0.2c0,0,0,0.1,0,0.1c1.5,3.7,2,6.8,2.2,10.2c0.1,1.1,0.4,2.2,0.9,3.2c-0.1,0.4-0.1,0.9-0.1,1.4
			c0.1,5.7,1.3,10.8,4.5,15.4c0.8,1.7,2.4,2.8,4.1,3.2c0,0.1,0,0.2,0,0.2l-2.3,52.1c0,0,3.7,29.2,2,53.8
			c-3.7,53.3-38.3,52.9-56.4,43.8c-18.6-9.5-19.2-39.2-20-58.1c-0.5-9.9-0.6-35.2-2-52.6c-0.7-8-2.1-16.5-3.2-26.4
			C413.9,302.4,418.3,298,419.8,291.7z"/>
		<path class="st11" d="M426.5,333.7c1.4-1,3-1.8,4.6-2.5c3.8-1.7,6.5-5.5,8.3-9.3c5.6-0.7,11.2-1.1,16.7-0.7
			c8,1.5,15.6,4.3,23.2,7.1c0.9,2.6,2.4,4.9,4.3,7.3c-0.6-0.8-0.6-1.6-1.3-2.5c2,2.7,2.9,5.6,4.3,8.7c0.6,1.4,1.2,2.8,1.8,4.2
			c0.6,5.5,3.4,30.9,1.9,52.7c-3.7,53.3-38.3,52.9-56.4,43.8c-18.6-9.5-19.2-39.2-20-58.1C413.4,376.8,416.5,338.8,426.5,333.7z"/>
		<path class="st7" d="M429.7,332.3c1.3-0.9,1.8-2,3.3-2.7c3.5-1.6,6.2-4,7.8-7.7c5.1-0.6,10.2-1.1,15.3-0.6
			c7.3,1.4,14.2,4.2,21.1,6.9c0.9,2.5,3.3,5.5,2.7,4.7c1.8,2.7,2.7,5.5,3.9,8.5c0.5,1.4,1.1,2.7,1.6,4.1c0.6,5.3,3.1,30.1,1.7,51.3
			c-3.4,51.9-35,51.5-51.5,42.6c-17-9.2-17.5-38.1-18.3-56.5C417,375.2,420.5,337.2,429.7,332.3z"/>
		<path class="st2" d="M485.5,289.6c0,0,4.9-20.3,3.1-36.6c-1.7-16.3-12.7-46.5-18.9-48.5c-10.1-3.3-24.9-3.3-33.8,11.6
			c-8.9,14.9-14.6,30-17.7,40.9c-3.1,10.9-5.1,24-4.9,25.5c0.3,1.4,5.1,12.3,5.1,12.3s8.6-16.9,9.2-19.7c0.6-2.9-1.1-16,12.3-20.3
			c13.4-4.3,34.3-4,36.6,6.3C479,271.3,480.1,281.6,485.5,289.6z"/>
		<g>
			<g>
				
					<ellipse transform="matrix(0.9851 -0.1718 0.1718 0.9851 -39.8493 85.1821)" class="st8" cx="472.1" cy="272.8" rx="1.9" ry="1.9"/>
				
					<ellipse transform="matrix(0.9851 -0.1718 0.1718 0.9851 -42.0953 85.7254)" class="st8" cx="474.1" cy="286" rx="1.9" ry="1.9"/>
				
					<ellipse transform="matrix(0.9851 -0.1718 0.1718 0.9851 -44.0047 86.2707)" class="st8" cx="476.3" cy="297.3" rx="1.9" ry="1.9"/>
				
					<ellipse transform="matrix(0.9851 -0.1718 0.1718 0.9851 -46.021 86.7364)" class="st8" cx="478" cy="309.2" rx="1.9" ry="1.9"/>
				
					<ellipse transform="matrix(0.9851 -0.1718 0.1718 0.9851 -47.9912 87.0672)" class="st8" cx="479" cy="320.8" rx="1.9" ry="1.9"/>
				
					<ellipse transform="matrix(0.9851 -0.1718 0.1718 0.9851 -48.7457 78.3503)" class="st8" cx="428.2" cy="320.8" rx="1.9" ry="1.9"/>
			</g>
			<g>
				
					<ellipse transform="matrix(0.1718 -0.9851 0.9851 0.1718 91.0184 655.5856)" class="st8" cx="435.4" cy="273.7" rx="1.9" ry="1.9"/>
				
					<ellipse transform="matrix(0.1718 -0.9851 0.9851 0.1718 76.9222 663.5143)" class="st8" cx="433.1" cy="286" rx="1.9" ry="1.9"/>
				
					<ellipse transform="matrix(0.1718 -0.9851 0.9851 0.1718 63.7954 670.8796)" class="st8" cx="430.9" cy="297.5" rx="1.9" ry="1.9"/>
				
					<ellipse transform="matrix(0.1718 -0.9851 0.9851 0.1718 50.894 678.8987)" class="st8" cx="429.2" cy="309.2" rx="1.9" ry="1.9"/>
			</g>
		</g>
		<path class="st8" d="M480.5,352.2c0,0,5.1,33.6-1.1,55.1c-6.3,21.6-14.3,29.8-24.8,30.5c-10.5,0.8-19.1-3.2-24.8-18.3
			c-2.7-7.2-9.2-37.6,1.7-64.7L480.5,352.2z"/>
		<g>
			<path class="st8" d="M439.3,194.9c0.2,0,0.3,0,0.5-0.1c16.9-6.6,32.3-1,32.5-1c0.7,0.3,1.6-0.1,1.8-0.8c0.3-0.7-0.1-1.6-0.8-1.8
				c-0.7-0.2-16.6-6-34.5,1c-0.7,0.3-1.1,1.1-0.8,1.9C438.2,194.5,438.8,194.9,439.3,194.9z"/>
		</g>
		<path class="st11" d="M437.9,356.5c8.8,0.4,23.2,0.4,32,0c12.6-0.6,11.2-7.5,11.2-7.5l-2.4-10.9c0,0-14.6-55.7-15.2-61.6
			c-0.5-4.7-2-7.6-7.2-8.7c0,0-1.5-0.4-2.1-0.3c-0.7-0.1-2.1,0.3-2.1,0.3c-5.1,1.1-6.7,4-7.2,8.7c-0.5,5.5-13.4,54.7-15,60.9
			l-3.2,11.5C426.8,349,425.4,356,437.9,356.5z"/>
		<path class="st11" d="M460.3,272.9c0-1.3,0.9-0.3,1-1.6c0-0.4,0-0.7-0.1-1c1.4,1.5,2.1,3.6,2.3,6.3c0.4,4.2,8,33.8,12.3,50.4
			c-1.7-1.2-3.5-2.3-5.4-3.2C467.9,307.5,463,289.1,460.3,272.9z"/>
		<path class="st11" d="M444.9,276.6c0.3-2.9,1-5.2,2.7-6.7c-0.1,0.3-0.1,0.5-0.1,0.8c-0.7,1,0.8,0.5,0.7,2
			c-0.3,10.8-4.5,23.1-6.3,33.8c-1.1,6.4-1.9,12.9-2.6,19.3c-1,0.4-1.9,0.9-2.8,1.5c-1.5,1-3.1,2-4.7,2.9
			C435.9,314.6,444.5,281,444.9,276.6z"/>
		<g>
			<path class="st7" d="M442.3,267.3c4.7-1,11.6-0.8,11.6-0.8s6.9-0.3,11.6,0.8c6.8,1.5,6.7,6.9,6.7,6.9c-2.5-1.9-6.3-1.5-6.3-1.5
				h-12h0h-12c0,0-3.8-0.4-6.3,1.5C435.7,274.1,435.6,268.8,442.3,267.3z"/>
			<path class="st7" d="M474.1,286c0,0,0-3.7-1.9-4.9c-1.9-1.1-18.3-8.7-18.3-8.7h-13.7l27.3,13.2C467.5,285.6,471,287.4,474.1,286z
				"/>
			<path class="st7" d="M476.5,297.6c0,0,0-3.7-1.9-4.9c-1.9-1.1-24.9-12-24.9-12l-7.2,3.3l27.3,13.2
				C470,297.2,473.4,299,476.5,297.6z"/>
			<path class="st7" d="M478,309.2c0,0,0-3.7-1.9-4.9c-1.9-1.1-26.7-13-26.7-13l-7.1,3.1l29,14.3C471.4,308.7,474.8,310.6,478,309.2
				z"/>
			<path class="st7" d="M479,320.8c0,0,0-3.7-1.9-4.9c-1.9-1.1-28-13.5-28-13.5l-7.2,3.3l30.4,14.6
				C472.4,320.3,475.8,322.2,479,320.8z"/>
			<path class="st7" d="M484.3,336.6c0,0,0.1-5-4.3-9.2c-1.6-1.5-30.1-14.5-30.1-14.5l-6.9,3.3l32.3,14.6
				C475.3,330.9,480.6,333.8,484.3,336.6z"/>
			<g>
				<path class="st7" d="M433.1,286c0,0,0-3.7,1.9-4.9c1.9-1.1,18.3-8.7,18.3-8.7H467l-27.3,13.2C439.7,285.6,436.2,287.4,433.1,286
					z"/>
				<path class="st7" d="M430.7,297.6c0,0,0-3.7,1.9-4.9c1.9-1.1,24.4-12.2,24.4-12.2l7.6,3.5l-27.3,13.2
					C437.2,297.2,433.8,299,430.7,297.6z"/>
				<path class="st7" d="M429.2,309.2c0,0,0-3.7,1.9-4.9c1.9-1.1,27.6-12.5,27.6-12.5l6.3,3l-29.1,14
					C435.8,308.7,432.4,310.6,429.2,309.2z"/>
				<path class="st7" d="M428.2,320.8c0,0,0-3.7,1.9-4.9c1.9-1.1,28.8-13.4,28.8-13.4l6.2,3.1l-30.2,14.6
					C434.8,320.3,431.4,322.2,428.2,320.8z"/>
			</g>
			<path class="st7" d="M423.3,336.5c0,0,0.8-5.4,4.6-9c1.6-1.5,30.1-14.5,30.1-14.5l6.9,3.3l-32.3,14.6
				C432.5,330.9,426.9,333.6,423.3,336.5z"/>
		</g>
	</g>
</g>
<g>
	<rect x="770" y="397.9" class="st9" width="180" height="15.9"/>
	<g>
		<g>
			<path class="st8" d="M784,439.4L784,439.4c-5,0-9-4-9-9v-49.2c0-5,4-9,9-9l0,0c5,0,9,4,9,9v49.2C793,435.4,788.9,439.4,784,439.4
				z"/>
			<path class="st8" d="M802,448.3L802,448.3c-5,0-9-4-9-9v-66.9c0-5,4-9,9-9l0,0c5,0,9,4,9,9v66.9C811,444.2,807,448.3,802,448.3z"
				/>
			<path class="st8" d="M918.8,448.3L918.8,448.3c-5,0-9-4-9-9v-66.9c0-5,4-9,9-9h0c5,0,9,4,9,9v66.9
				C927.8,444.2,923.7,448.3,918.8,448.3z"/>
		</g>
		<g>
			<path class="st8" d="M936,372.2L936,372.2c5,0,9,4,9,9v49.2c0,5-4,9-9,9l0,0c-5,0-9-4-9-9v-49.2C927,376.3,931.1,372.2,936,372.2
				z"/>
		</g>
	</g>
	<rect x="770" y="393" class="st9" width="5" height="25.5"/>
	<rect x="945" y="393" class="st9" width="5" height="25.5"/>
</g>
<g class="st6">
	<circle class="st17" cx="423.9" cy="148.8" r="4.5"/>
	<circle class="st18" cx="408.5" cy="148.8" r="4.5"/>
	<circle class="st2" cx="393.2" cy="148.8" r="4.5"/>
</g>
<g class="st6">
	<circle class="st17" cx="608.8" cy="345.9" r="4.5"/>
	<circle class="st18" cx="624.2" cy="345.9" r="4.5"/>
	<circle class="st2" cx="639.5" cy="345.9" r="4.5"/>
</g>
<g class="st6">
	<circle class="st17" cx="359.8" cy="272.8" r="4.5"/>
	<circle class="st18" cx="375.2" cy="272.8" r="4.5"/>
	<circle class="st2" cx="390.5" cy="272.8" r="4.5"/>
</g>
<g class="st6">
	<circle class="st17" cx="608.8" cy="70" r="4.5"/>
	<circle class="st18" cx="624.2" cy="70" r="4.5"/>
	<circle class="st2" cx="639.5" cy="70" r="4.5"/>
</g>
<g>
	<g>
		<g>
			<g>
				<path class="st2" d="M293.5,59.5c0-4.7-3.6-8.5-8-8.5l-67.3,0c-4.4,0-8,3.8-8,8.5l0,140.2c0,4.7,3.6,8.5,8,8.5l67.3,0
					c4.4,0,8-3.8,8-8.5L293.5,59.5z"/>
				<rect x="217.1" y="70.6" class="st8" width="69.8" height="118.1"/>
				<path class="st2" d="M260.8,61.5h-17.6c-0.6,0-1-0.5-1-1v-0.3c0-0.6,0.5-1,1-1h17.6c0.6,0,1,0.5,1,1v0.3
					C261.8,61,261.3,61.5,260.8,61.5z"/>
			</g>
			<g>
				<g>
					<path class="st11" d="M251.9,126.7c-12.8,0-23.2-10.4-23.2-23.2c0-12.8,10.4-23.2,23.2-23.2c12.8,0,23.2,10.4,23.2,23.2
						C275.1,116.3,264.7,126.7,251.9,126.7z M251.9,82.3c-11.7,0-21.2,9.5-21.2,21.2c0,11.7,9.5,21.2,21.2,21.2
						c11.7,0,21.2-9.5,21.2-21.2C273.1,91.8,263.6,82.3,251.9,82.3z"/>
				</g>
				<g>
					<g>
						<path class="st11" d="M242.8,104.6c0.7,0,1.4,0,2.1-0.1l2.1,0l2.1,0l2.1,0l1,0l0.7,0l0.1-0.3l0.2-0.5l0.2-0.5
							c0.1-0.2,0.1-0.3,0.2-0.5l0.4-1l0.4-1L255,99l0.3,1.6l0.1,0.5l0.1,0.5l0.2,1l0.1,0.5l0.1,0.5l0.2,1l0.1,0.5l0.1,0.5l0.2,1
							l0.1,0.7c0.1-0.2,0.2-0.5,0.3-0.7l0.2-0.5l0.2-0.5l0.4-1l0.1-0.2h0.2h3.1l1.8,0c0.5-1.2,0.9-2.4,0.9-3.6
							c0-3.6-2.7-6.5-5.9-6.5c-3.3,0-5.9,2.9-5.9,6.5c0-3.6-2.7-6.5-5.9-6.5c-3.3,0-5.9,2.9-5.9,6.5c0,1.2,0.3,2.4,0.9,3.6l0.8,0
							L242.8,104.6z"/>
					</g>
					<g>
						<path class="st11" d="M258.2,105.8l-0.3,0.9l-0.2,0.5l-0.2,0.5c-0.1,0.3-0.2,0.7-0.4,1l-0.4,1l-0.5,1.3l-0.3-1.4
							c-0.1-0.3-0.1-0.7-0.2-1l-0.2-1l-0.2-1l-0.1-0.5l-0.1-0.5l-0.2-1l-0.1-0.5l-0.1-0.5l-0.1-0.5l-0.3,0.6
							c-0.1,0.2-0.1,0.3-0.2,0.5l-0.2,0.5l-0.2,0.5l-0.2,0.5l-0.1,0.3l-0.3,0l-1,0l-1,0l-2.1,0l-2.1,0l-2.1,0c-0.7,0-1.4,0-2.1-0.1
							l-1,0l-0.6,0c2.9,5.8,10.8,10.9,10.8,10.9s7.9-5.1,10.8-10.8l-1.6,0.1L258.2,105.8z"/>
					</g>
				</g>
			</g>
			<rect x="217.1" y="177" class="st11" width="69.8" height="11.6"/>
			<g>
				<rect x="225.4" y="156.4" class="st7" width="4.8" height="13.2"/>
				<rect x="233.4" y="151.3" class="st7" width="4.8" height="18.3"/>
				<rect x="241.5" y="145.7" class="st7" width="4.8" height="23.9"/>
				<rect x="249.5" y="133.7" class="st7" width="4.8" height="35.8"/>
				<rect x="257.6" y="139.3" class="st7" width="4.8" height="30.2"/>
				<rect x="265.7" y="152.3" class="st7" width="4.8" height="17.3"/>
				<rect x="273.7" y="145.7" class="st7" width="4.8" height="23.9"/>
			</g>
		</g>
	</g>
</g>
<g>
	<path class="st10" d="M604.9,201.2l23.2-6.4c1.3-0.4,2.4-1.4,2.8-2.8l0.1-0.2l3.9-12.7l9.4,9.8l10,23.4c0.7,1.6,2.5,2.4,4.2,1.9
		c1.8-0.6,2.7-2.5,2.1-4.3l-8.3-25.2c-0.2-0.5-0.5-1-0.8-1.4l-0.1-0.1l-13.2-13.7c0.3-0.5,0.6-1.1,0.8-1.8l5.3-16.6l3.1,6.3l0.1,0.3
		c0.6,1.2,1.9,2,3.3,2l14.2-0.8c1.4-0.1,2.5-1.1,2.7-2.5c0.2-1.5-1-2.9-2.5-3.1l-11.6-1.2l-7.3-15c-0.2-0.4-0.5-0.8-0.8-1.1
		c-0.9-1.1-2.1-1.9-3.5-2.3c-0.8-0.2-1.6-0.3-2.4-0.3c-0.6-0.1-1.3,0-1.9,0.3l0,0c-0.6,0.2-1.1,0.4-1.6,0.7l-15.2,6.7l-0.2,0.1
		c-0.5,0.2-1,0.6-1.4,1.2l-9.6,14.8c-0.8,1.2-0.5,2.8,0.5,3.7c1.2,1,3,0.9,4-0.3l10.6-12.6l5.7-2.5l-5.7,17.9
		c-1,3.3,0.4,6.7,3.1,8.5l-4.6,15.3l-20.3,7.7c-1.6,0.6-2.5,2.4-2.1,4.1C601.2,200.6,603.1,201.7,604.9,201.2z"/>
	<circle class="st10" cx="645.1" cy="123.3" r="8.4"/>
</g>
<g>
	<circle class="st19" cx="723" cy="385.1" r="5.6"/>
	<path class="st19" d="M743.3,364.2H743c-1.3,0-2.4,1.1-2.4,2.4v4.4h-2.2l0.1-1c0.1-0.9-0.6-1.8-1.5-2c-1-0.2-2,0.5-2.2,1.5
		l-0.3,1.5h-23l-0.3-1.5c-0.2-0.9-1-1.6-2-1.5c-1,0.1-1.8,1-1.7,2l0.1,1h-2.2v-4.4c0-1.3-1.1-2.4-2.4-2.4h-0.3
		c-1.3,0-2.4,1.1-2.4,2.4v11.7c0,1.3,1.1,2.4,2.4,2.4h0.3c1.3,0,2.4-1.1,2.4-2.4v-4.8h2.5l1.2,12.1c0,0.2,0.1,0.4,0.2,0.6l0,0.1
		l5.4,11.9c0.1,0.1,0.1,0.3,0.2,0.4l0.7,11.1l-0.3,28.5l-0.1,7.9c0,1.2,0.9,2.2,2.1,2.3c1.2,0.1,2.3-0.9,2.3-2.1l0.3-7.5l1-21.8h4
		l1,21.8l0.3,7.5c0.1,1.2,1.1,2.1,2.3,2.1c1.2,0,2.2-1,2.2-2.3l-0.1-7.9l-0.3-28.5l0.7-11.1c0.1-0.1,0.2-0.3,0.2-0.4l5.4-11.9l0-0.1
		c0.1-0.2,0.1-0.4,0.2-0.6l1.2-12.1h2.5v4.8c0,1.3,1.1,2.4,2.4,2.4h0.3c1.3,0,2.4-1.1,2.4-2.4v-11.7
		C745.6,365.3,744.6,364.2,743.3,364.2z M731.9,384.3l-4,8.8h-9.7l-4-8.8l-2.1-10.9h22L731.9,384.3z"/>
</g>
<g>
	
		<ellipse transform="matrix(5.234884e-02 -0.9986 0.9986 5.234884e-02 31.2852 678.6176)" class="st19" cx="373.2" cy="322.8" rx="4.3" ry="4.3"/>
	<path class="st19" d="M381,339.3L381,339.3l-5.6-9.6c-0.4-0.7-1.2-1.1-2-1c-0.1,0-0.3-0.1-0.4-0.1l-6.4-0.3l0.1-10l11.9-4.4
		c0.7-0.3,1.1-1,0.9-1.7c-0.2-0.8-1-1.2-1.8-1L364,315c-0.8,0.2-1.4,1-1.4,1.8l0,0.1l-0.1,12.3l-3.2,13.1c-0.1,0.2-0.1,0.3-0.2,0.5
		L354,364l-1.4,5.7c-0.2,0.9,0.3,1.8,1.2,2.1c0.9,0.3,1.9-0.3,2.1-1.2l1.6-5.7l5.3-18.6l1.9,0.1l4.4,18.4l1.6,6.5
		c0.2,0.9,1.1,1.5,2,1.3c0.9-0.2,1.5-1.1,1.4-2l-1.3-6.6l-3.2-16.6l10.6-5.4c0,0,0.1,0,0.1,0C381.2,341.4,381.5,340.2,381,339.3z
		 M370.8,343.1l3.2-7.8l2.5,4.2L370.8,343.1z"/>
</g>
<g>
	<circle class="st19" cx="791.7" cy="66.4" r="4.9"/>
	<path class="st19" d="M795.1,51.8c-0.5-0.6-1.5-0.8-2.2-0.3c-0.8,0.5-1,1.5-0.5,2.3l7.2,11l-3.5,8.4h-10.9l0,0
		c-0.5,0.1-1,0.4-1.4,0.8l-5.9,7.3l-0.1,0.1c-0.6,0.8-0.6,1.9,0,2.7l6.8,8.2c0.1,0.1,0.1,0.1,0.2,0.2l3.6,29.3c0.1,1,1,1.8,2.1,1.7
		c1.1-0.1,1.9-1,1.8-2.1l-0.9-10.9c0.1,0,0.1-0.1,0.2-0.1l8.5-7.1c0.6-0.5,0.9-1.3,0.7-2.1l0-0.1l-2.4-10.7l0.8-13.1l4.9-11.9l0-0.1
		c0.3-0.7,0.2-1.5-0.3-2.1L795.1,51.8z M782.7,82.8l2.9-3.6l0.4,8.7L782.7,82.8z M791.3,105.6l-0.9-10.8h4.4l1.7,6.1L791.3,105.6z"
		/>
</g>
<g>
	<path class="st19" d="M364.5,69.5l-15.7-2.2c0.5-0.6,0.6-1.4,0.3-2.2c-0.5-1-1.7-1.4-2.7-1l-12.8,6.1l-6.6-4
		c-0.6-0.4-1.3-0.5-1.9-0.3c-1.3-0.1-2.6,0.3-3.7,1.2c-2.3,1.9-2.6,5.3-0.7,7.5l12.2,14.9c1.5,1.8,3.9,2.4,6,1.6
		c1.4,0.1,2.7-0.6,3.3-1.9l6.6-15.7l15.2,0.7c1.2,0.1,2.3-0.8,2.5-2.1C366.8,70.9,365.8,69.7,364.5,69.5z M339.1,80.2l-3.7-4.5
		l7.6-4.6L339.1,80.2z"/>
	
		<ellipse transform="matrix(0.5543 -0.8323 0.8323 0.5543 96.7993 295.6488)" class="st19" cx="324.4" cy="57.4" rx="6.4" ry="6.4"/>
</g>
<circle class="st2" cx="931.2" cy="86.5" r="6.5"/>
<circle class="st9" cx="931.2" cy="86.5" r="5"/>
<circle class="st2" cx="931.2" cy="120.2" r="6.5"/>
<circle class="st9" cx="931.2" cy="120.2" r="5"/>
</svg>
