<svg height="512pt" viewBox="-123 0 512 512" width="512pt" xmlns="http://www.w3.org/2000/svg"><path d="m225.828125 512h-76.800781v-290.753906c-.046875-18.589844-5.617188-36.75-16-52.175782-10.378906 15.425782-15.949219 33.585938-16 52.175782v290.753906h-76.796875l-20.480469-92.128906c-9.652344-43.707032-9.308594-89.035156 1.007812-132.589844l-18.707031-123.394531c-8.730469-58.359375 10.679688-117.40625 52.335938-159.199219l4.691406-4.6875h147.902344l4.6875 4.6875c41.65625 41.792969 61.070312 100.839844 52.335937 159.199219l-18.671875 123.394531c10.316407 43.554688 10.660157 88.882812 1.007813 132.589844zm0 0" fill="#b0bec5"/><path d="m117.027344 0h32v32h-32zm0 0" fill="#90a4ae"/><g fill="#78909c"><path d="m33.09375 480 7.101562 32h76.832032v-32zm0 0"/><path d="m149.027344 480v32h76.832031l7.105469-32zm0 0"/></g></svg>