<svg height="512" viewBox="0 0 58 59" width="512" xmlns="http://www.w3.org/2000/svg"><g id="024---Rollerblade" fill="none"><path id="Shape" d="m58 34.5c-.0055104-4.692136-3.807864-8.4944896-8.5-8.5-8.74 0-10.07.22-13.07-.83.4155316-1.0967889.1537958-2.335151-.67-3.17l-2.83-2.83c-1.1653011-1.1369092-3.0246989-1.1369092-4.19 0-1.169167-1.8139396-1.926916-3.8619097-2.22-6l.7-.06c.5416312-.0545172 1.0376382-.3274599 1.3735436-.7558337.3359054-.4283737.4826828-.9751617.4064564-1.5141663l-.18-2c-.08522-1.09369543-1.0355303-1.9146208-2.13-1.84l-.87.08-.82-7.08c-15 0-19 4-19 4 0 1.67-.06 3.31-.15 4.89l-1.07.11c-1.08222669.11572231-1.87324119 1.0756051-1.78 2.16l.18 2c.08525548 1.089541 1.02930279 1.9089028 2.12 1.84-.43 3.51-.93 6.21-1.17 7.38-.16.83 0 .25-1.38 3.46-1.78959299 3.9979728-2.14285682 8.4914887-1 12.72l.82 3c.25289557.8677392 1.05633933 1.4580244 1.96 1.44h.47v4.21c1.74624457-.5033173 3.62838566-.111538 5.0287534 1.0467662 1.4003678 1.1583042 2.1381578 2.9335822 1.9712466 4.7432338h4c0-3.0375661 2.4624339-5.5 5.5-5.5s5.5 2.4624339 5.5 5.5h4c0-3.0375661 2.4624339-5.5 5.5-5.5s5.5 2.4624339 5.5 5.5h4c-.171926-1.8110789.5644724-3.5897122 1.9662953-4.7492199 1.4018228-1.1595077 3.2869986-1.5492909 5.0337047-1.0407801v-5c3.0285608-1.3739148 4.9809012-4.3844237 5-7.71z" fill="#56595e"/><g fill="#bdc3c7"><path id="Shape" d="m12 52.5c.0007764 2.841824-2.16356338 5.2163042-4.99330203 5.4781126-2.82973865.2618083-5.39298558-1.675274-5.91361228-4.4690013s1.17281982-5.5240682 3.90691431-6.2991113c1.65824063-.4700671 3.44094308-.1356022 4.81602556.9035673 1.37508254 1.0391695 2.18350354 2.6628536 2.18397444 4.3864327z"/><circle id="Oval" cx="21.5" cy="52.5" r="5.5"/><circle id="Oval" cx="36.5" cy="52.5" r="5.5"/><path id="Shape" d="m57 52.5c0 3.0375661-2.4624339 5.5-5.5 5.5s-5.5-2.4624339-5.5-5.5 2.4624339-5.5 5.5-5.5c1.4586907 0 2.8576372.5794626 3.8890873 1.6109127s1.6109127 2.4303966 1.6109127 3.8890873z"/></g><path id="Shape" d="m6 54c-.40626507.0023626-.77358004-.2413038-.92937095-.6165185s-.069089-.807391.21937095-1.0934815l1-1c.39212218-.3921221 1.02787781-.3921221 1.41999996 0 .39212216.3921222.39212218 1.0278778.00000004 1.42-1.06 1.06-1.19 1.29-1.71 1.29z" fill="#7f8c8d"/><path id="Shape" d="m21 54c-.4062651.0023626-.77358-.2413038-.929371-.6165185-.1557909-.3752147-.0690889-.807391.219371-1.0934815l1-1c.3921222-.3921221 1.0278778-.3921221 1.42 0 .3921221.3921222.3921221 1.0278778 0 1.42-1.06 1.06-1.19 1.29-1.71 1.29z" fill="#7f8c8d"/><path id="Shape" d="m36 54c-.4062651.0023626-.77358-.2413038-.929371-.6165185-.1557909-.3752147-.0690889-.807391.219371-1.0934815l1-1c.3921222-.3921222 1.0278778-.3921222 1.42 0s.3921222 1.0278778 0 1.42c-1.06 1.06-1.19 1.29-1.71 1.29z" fill="#7f8c8d"/><path id="Shape" d="m51 54c-.4062651.0023626-.77358-.2413038-.929371-.6165185-.1557909-.3752147-.0690889-.807391.219371-1.0934815l1-1c.3921222-.3921221 1.0278778-.3921221 1.42 0 .3921221.3921222.3921221 1.0278778 0 1.42-1.06 1.06-1.19 1.29-1.71 1.29z" fill="#7f8c8d"/><path id="Shape" d="m6.5 59c-3.58985087 0-6.5-2.9101491-6.5-6.5s2.91014913-6.5 6.5-6.5c3.5898509 0 6.5 2.9101491 6.5 6.5-.0055066 3.5875675-2.9124325 6.4944934-6.5 6.5zm0-11c-2.48528137 0-4.5 2.0147186-4.5 4.5s2.01471863 4.5 4.5 4.5c2.4852813-.0000001 4.4999998-2.0147187 4.4999998-4.5s-2.0147185-4.4999999-4.4999998-4.5z" fill="#95a5a5"/><path id="Shape" d="m21.5 59c-3.5898509 0-6.5-2.9101491-6.5-6.5s2.9101491-6.5 6.5-6.5 6.5 2.9101491 6.5 6.5c.0080235 1.7263544-.6742192 3.3843207-1.8949492 4.6050508-1.2207301 1.22073-2.8786964 1.9029727-4.6050508 1.8949492zm0-11c-2.4295549.0101072-4.4124107 1.9469399-4.4795607 4.3755876-.0671499 2.4286478 1.805655 4.472086 4.2309396 4.6164252 2.4252845.1443391 4.5272387-1.6625441 4.7486211-4.0820128.1155436-1.2627654-.3070456-2.5156734-1.1638057-3.4504938-.85676-.9348204-2.0681647-1.4647813-3.3361943-1.4595062z" fill="#95a5a5"/><path id="Shape" d="m36.5 59c-3.5898509 0-6.5-2.9101491-6.5-6.5s2.9101491-6.5 6.5-6.5 6.5 2.9101491 6.5 6.5c.0080235 1.7263544-.6742192 3.3843207-1.8949492 4.6050508-1.2207301 1.22073-2.8786964 1.9029727-4.6050508 1.8949492zm0-11c-2.4295549.0101072-4.4124107 1.9469399-4.4795607 4.3755876-.0671499 2.4286478 1.805655 4.472086 4.2309396 4.6164252 2.4252845.1443391 4.5272387-1.6625441 4.7486211-4.0820128.1155436-1.2627654-.3070456-2.5156734-1.1638057-3.4504938-.85676-.9348204-2.0681647-1.4647813-3.3361943-1.4595062z" fill="#95a5a5"/><path id="Shape" d="m51.5 59c-3.5898509 0-6.5-2.9101491-6.5-6.5s2.9101491-6.5 6.5-6.5 6.5 2.9101491 6.5 6.5c.0080235 1.7263544-.6742192 3.3843207-1.8949492 4.6050508-1.2207301 1.22073-2.8786964 1.9029727-4.6050508 1.8949492zm0-11c-2.4852814 0-4.5 2.0147186-4.5 4.5s2.0147186 4.5 4.5 4.5 4.5-2.0147186 4.5-4.5-2.0147186-4.5-4.5-4.5z" fill="#95a5a5"/><path id="Shape" d="m11 43h-6.47c-.90101039.0006771-1.69123243-.6012018-1.93-1.47l-.82-3c-1.14285683-4.2285113-.78959299-8.7220272 1-12.72 1.41-3.25 1.22-2.63 1.35-3.46 3.71 2.65 10.61 9.42 6.87 20.65z" fill="#285680"/><path id="Shape" d="m58 34.5c-.0055104 4.692136-3.807864 8.4944896-8.5 8.5h-18c-.8786395.0072512-1.7427437-.2243288-2.5-.67-4.78-2.81-10.36-3.31-14.89-.19-.9131386.6224841-2.0067793.9249057-3.11.86 3.74-11.23-3.16-18-6.87-20.65.24-1.17.74-3.87 1.17-7.38.66 0-2.32.21 8-.71.1004026 1.0985266 1.0712871 1.9083427 2.17 1.81l4-.36c.5293844-.0457271 1.0188124-.3002356 1.3602681-.7073558.3414556-.4071202.5068684-.9333834.4597319-1.4626442l5.27-.47c.293084 2.1380903 1.050833 4.1860604 2.22 6-.1.05-1 1-5.2 5.19-1.2647202 1.2629339-1.7596027 3.1046531-1.29823 4.8313998.4613727 1.7267468 1.8089071 3.0761872 3.535 3.5400001 1.726093.4638128 3.5685098-.028466 4.83323-1.2913999 5.51-5.5 5.5-5.38 5.82-6.18 3.15 1.1 5 .83 13.07.83 4.6804053.0274999 8.4600808 3.829514 8.46 8.51z" fill="#2980ba"/><path id="Shape" d="m25.82 7.11-5.11.46c-.0457271-.52938442-.3002356-1.0188124-.7073558-1.36026806s-.9333834-.50686841-1.4626442-.45973194l-4 .36c-.5293844.04572715-1.0188124.30023561-1.3602681.70735582-.3414556.40712021-.5068684.93338339-.4597319 1.46264418l-6.89.61c.11-1.58.17-3.22.17-4.89 0 0 4-4 19-4z" fill="#285680"/><path id="Shape" d="m21.25 13.54c.0471365.5292608-.1182763 1.055524-.4597319 1.4626442-.3414557.4071202-.8308837.6616287-1.3602681.7073558l-4 .36c-1.0987129.0983427-2.0695974-.7114734-2.17-1.81l-.54-6c-.0471365-.52926079.1182763-1.05552397.4597319-1.46264418.3414557-.40712021.8308837-.66162867 1.3602681-.70735582l4-.36c.5292608-.04713647 1.055524.11827628 1.4626442.45973194s.6616287.83088364.7073558 1.36026806z" fill="#f0c419"/><path id="Shape" d="m29 10.84c.0932412 1.0843949-.6977733 2.0442777-1.78 2.16l-6 .53-.54-6 6-.54c1.0987129-.09834268 2.0695974.71147341 2.17 1.81z" fill="#f3d55b"/><path id="Shape" d="m13.28 14.26c-10.55.94-7.39.71-8 .71-1.09498048.0925152-2.05950759-.7157228-2.16-1.81l-.18-2c-.04417523-.5308161.12521715-1.0573252.47062352-1.46280219.34540636-.40547704.83828853-.65642071 1.36937648-.69719781l8-.71z" fill="#f3d55b"/><path id="Shape" d="m36.43 25.17c-.34.84-.32.68-5.82 6.18-1.2647202 1.2629339-3.107137 1.7552127-4.83323 1.2913999-1.7260929-.4638129-3.0736273-1.8132533-3.535-3.5400001-.4613727-1.7267467.0335098-3.5684659 1.29823-4.8313998l5.15-5.15c1.1712702-1.1698135 3.0687298-1.1698135 4.24 0l2.83 2.88c.8237958.834849 1.0855316 2.0732111.67 3.17z" fill="#84b5cb"/></g></svg>