<?xml version="1.0" encoding="utf-8"?>
<!-- Generator: Adobe Illustrator 21.1.0, SVG Export Plug-In . SVG Version: 6.00 Build 0)  -->
<svg version="1.1" id="_x3C_Layer_x3E_" xmlns="http://www.w3.org/2000/svg" xmlns:xlink="http://www.w3.org/1999/xlink" x="0px"
	 y="0px" viewBox="0 0 4000 4000" style="enable-background:new 0 0 4000 4000;" xml:space="preserve">
<style type="text/css">
	.st0{fill-rule:evenodd;clip-rule:evenodd;fill:#FEB67C;}
	.st1{fill-rule:evenodd;clip-rule:evenodd;fill:#F2AA70;}
	.st2{fill-rule:evenodd;clip-rule:evenodd;fill:#AEDBF1;}
	.st3{fill-rule:evenodd;clip-rule:evenodd;fill:#9FD0E8;}
	.st4{fill-rule:evenodd;clip-rule:evenodd;fill:#40494C;}
	.st5{fill-rule:evenodd;clip-rule:evenodd;fill:#323B3F;}
</style>
<path class="st0" d="M692.5,1813.7h768.3c9.9-118.2,78.8-167.5,157.6-226.5c226.5-187.2,394-275.8,482.6-659.9
	c59.1-265.9-206.8-610.7,177.3-531.9c9.8,0,19.7,0,39.4,9.9c630.4,256.1,137.9,994.8,167.5,1181.9h876.6
	c334.9,0,334.9,502.3,0,502.3h187.1c334.9,0,334.9,512.2,0,512.2h-69c334.9,0,334.9,502.3,0,502.3h-118.2
	c334.9,0,334.9,502.3,0,502.3H1707c-128,0-236.4-98.5-246.2-226.5H692.5V1813.7z"/>
<path class="st1" d="M3135.2,1587.1h226.5c334.9,0,334.9,502.3,0,502.3h187.1c334.9,0,334.9,512.2,0,512.2h-69
	c334.9,0,334.9,502.3,0,502.3h-118.2c334.9,0,334.9,502.3,0,502.3H1707c-128,0-236.4-98.5-246.2-226.5H692.5v-177.3h591
	c384.1,0,334.9,187.1,650.1,187.1c364.4,0,728.9,0,1103.1,0C3381.4,3389.6,3332.1,2000.8,3135.2,1587.1L3135.2,1587.1z"/>
<path class="st2" d="M1106.1,1685.6h246.2c19.7,0,29.6,9.9,29.6,29.6v1772.9c0,9.9-9.9,29.6-29.6,29.6h-246.2V1685.6z"/>
<path class="st3" d="M1381.9,3172.9v315.2c0,9.9-9.9,29.6-29.6,29.6h-246.2v-344.7H1381.9z"/>
<path class="st4" d="M1076.6,1587.1H200v2029h876.6c19.7,0,29.5-19.7,29.5-29.6V1616.7C1106.1,1597,1096.3,1587.1,1076.6,1587.1
	L1076.6,1587.1z"/>
<path class="st5" d="M200,3172.9v443.2h876.6c19.7,0,29.5-19.7,29.5-29.6v-413.7H200z"/>
</svg>
