<?xml version="1.0" encoding="utf-8"?>
<!-- Generator: Adobe Illustrator 21.1.0, SVG Export Plug-In . SVG Version: 6.00 Build 0)  -->
<svg version="1.1" xmlns="http://www.w3.org/2000/svg" xmlns:xlink="http://www.w3.org/1999/xlink" x="0px" y="0px"
	 viewBox="0 0 333.1 287.2" style="enable-background:new 0 0 333.1 287.2;" xml:space="preserve">
<style type="text/css">
	.st0{fill:#FFFFFF;}
	.st1{fill:#002E38;}
	.st2{fill:#CE6040;}
	.st3{opacity:0.6;fill:#750E00;}
	.st4{fill:#FF8863;}
	.st5{fill:#FFB88A;}
	.st6{opacity:0.6;fill:#B53E00;}
	.st7{fill:#FFAA00;}
	.st8{fill:#FEC425;}
	.st9{fill:#58BAF7;}
	.st10{fill:#1B94E0;}
	.st11{opacity:0.4;fill:#0A3E5E;}
	.st12{fill:#F4E0C8;}
	.st13{fill:#1B94A4;}
</style>
<g id="Ñëîé_4">
	<rect x="0" y="0" class="st0" width="333.1" height="287.2"/>
</g>
<g id="Ñëîé_2">
	<path class="st1" d="M244.7,93.7C244.7,93.7,244.7,93.7,244.7,93.7c-2.4,60.2,36.7,89.4,38.3,90.6c-0.7-11.3-3.7-26.5-11-48.4
		C264.7,114.2,253.8,101.2,244.7,93.7z"/>
	<g>
		<path class="st2" d="M220.1,162.1c0,0-20.6-29.8-23-33c-2.4-3.3-8.1-7-8.1-7L170,109.6c0,0-33.7-3.8-29.1-6.7
			c4.6-3,14-10.6,23.4-16c1.8-1,3.4-2.1,4.9-3.1c0,0-24.9,4.4-35.7,6.3c-10.8,1.9-30.8,11.6-30.8,11.6l-19.5-7L79.4,94l-19.2,65.7
			l2.4,2.2c0,0,23.5,15.4,29.8,22.7c22.4,25.7,65.5,43.3,69.5,44.6c4.1,1.4,14.1-5.1,14.9-6.8c0.8-1.6-0.5-3.2-1.6-7.6
			c3,3.8,6.8,5.1,9.5,4.1c2.7-1.1,8.4-5.7,8.9-7.8c0.5-2.2-4.9-10.8-4.9-10.8s6.2,6.5,10.5,7.6c4.3,1.1,11.6-6.5,12.7-9.2
			c1.1-2.7-7.7-14.3-7.7-14.3s11.2,10.8,14.2,10.3c3-0.5,10.8-8.7,10.5-13.5C228.7,176.2,220.1,162.1,220.1,162.1z"/>
		<path class="st3" d="M140.5,186.6c-3.2-3.4-8.7-3.1-12.2,1.1c-3.4,4.1-8.7,11.9-11.5,17.5c5.7,3.9,10.3,6.7,15.8,9.8
			c1-1.2,2.3-2.7,3.4-4.6C145.4,194,143,189.2,140.5,186.6z"/>
		<path class="st3" d="M119.3,174.4c-3.3-1.1-7.9-1.6-19.7,13.5c-0.6,0.8-1.2,1.5-1.6,2.3c4.6,4.5,8.6,7.9,14,11.7
			c3.4-2.4,9.4-11.7,11.5-16.4C125.7,180.6,123.6,175.8,119.3,174.4z"/>
		<path class="st3" d="M154.4,200.1c-8-2-15,12.9-15,12.9c-1,1.7-1.7,3.2-2.1,4.6c6.9,3.7,11.8,6.1,16.4,8c1.1-1.5,2.4-3,3.6-5.4
			C161.4,212.1,162.5,202.2,154.4,200.1z"/>
		<path class="st3" d="M101.7,167.9c-5.1-6.1-12.9-1.5-18.8,5.2c-0.5,0.6-1,1.2-1.5,1.8c4.7,3.6,9.1,7.1,11.3,9.7
			c1,1.1,0.8,1.3,1.9,2.4c0.4-0.5,1.9-1.6,2.3-2.3C96.9,184.7,106.8,173.9,101.7,167.9z"/>
		<path class="st3" d="M254.3,156.8c10.2-5.8,20.9-10.4,32.3-12.8l-17.9-48.8l-25.7,9.2c0,0-21.9-11.4-25.7-13.5
			c-3.8-2.2-21.1-8.9-29.5-10.8c-6.8-1.5-11.1,2.1-17.5,6.4c-1.5,1-3.1,2-4.9,3.1c-9.5,5.4-22,12.1-26.6,15.1
			c-4.6,3-11.9,33.8-11.4,37.6c0.6,3.8,11.4,4.9,19-1.6c7.2-6.2,10-20.3,10-20.3l14.6-8.1l18.9,12.4c0,0,5.7,3.7,8.1,7
			c2.4,3.3,23,31.9,23,31.9s3.4,6.4,6,11.7C234.6,167,244.7,162.2,254.3,156.8z"/>
		<path class="st4" d="M267.7,92.6l-25.7,9.2c0,0-21.9-11.4-25.7-13.5c-3.8-2.2-21.1-8.9-29.5-10.8c-6.8-1.5-11.1,2.1-17.5,6.4
			c-1.5,1-3.1,2-4.9,3.1c-9.5,5.4-22,12.1-26.6,15.1c-4.6,3-10,34.7-10.5,38.4c-0.5,3.8,10.6,4.1,18.1-2.4c7.2-6.2,10-20.3,10-20.3
			l14.6-8.1l18.9,12.4c0,0,5.7,3.7,8.1,7c2.4,3.3,23,33,23,33s8.7,14.1,8.9,18.9c0,0,24.1-16,26.5-17.9c2.4-1.9,34.1-10.8,34.1-10.8
			L267.7,92.6z"/>
	</g>
	<path class="st5" d="M189,164.8c0,0,1.1,1.3,2.7,3.2c0.8,1,1.7,2.1,2.7,3.4c1,1.2,2,2.6,3.1,3.9c1,1.3,2.1,2.7,3,3.9
		c1,1.3,1.9,2.4,2.6,3.5c1.5,2,2.5,3.4,2.5,3.4s-1.1-1.3-2.7-3.2c-0.8-1-1.7-2.1-2.7-3.4c-1-1.2-2-2.6-3.1-3.9c-1-1.3-2.1-2.7-3-3.9
		c-1-1.3-1.8-2.4-2.6-3.5C189.9,166.2,189,164.8,189,164.8z"/>
	<path class="st5" d="M175.4,185.6c0,0,1,0.9,2.4,2.4c0.7,0.7,1.5,1.6,2.4,2.5c0.9,0.9,1.8,1.9,2.7,2.9c0.9,1,1.8,2,2.6,2.9
		c0.8,0.9,1.6,1.8,2.3,2.6c1.3,1.5,2.1,2.6,2.1,2.6s-1-0.9-2.4-2.4c-0.7-0.7-1.5-1.6-2.4-2.5c-0.9-0.9-1.8-1.9-2.7-2.9
		c-0.9-1-1.8-2-2.6-2.9c-0.8-0.9-1.6-1.8-2.3-2.6C176.3,186.7,175.4,185.6,175.4,185.6z"/>
	<path class="st5" d="M163.3,201.4c0,0,0.9,0.9,2.1,2.2c0.6,0.7,1.4,1.5,2.1,2.3c0.8,0.9,1.6,1.8,2.4,2.7c0.8,0.9,1.6,1.9,2.4,2.7
		c0.8,0.9,1.4,1.7,2,2.4c1.2,1.4,1.9,2.4,1.9,2.4s-0.9-0.9-2.1-2.2c-0.6-0.7-1.4-1.4-2.1-2.3c-0.8-0.9-1.6-1.8-2.4-2.7
		c-0.8-0.9-1.6-1.9-2.4-2.7c-0.8-0.9-1.4-1.7-2-2.4C164,202.4,163.3,201.4,163.3,201.4z"/>
	<path class="st6" d="M267.7,92.6l-19.6,7c6.6,7.9,12.6,19.5,18.2,36.3c2.7,8.1,4.6,15.2,5.9,21.6c8.6-2.6,17.3-5.1,17.3-5.1
		L267.7,92.6z"/>
	<path class="st3" d="M89.9,97.2l-9.2-3L76.9,94l-19.2,65.7l2.4,0.5c0,0,5.1,3,9,5.7c3.7-6.3,6.5-11.7,10.4-22.9
		C83.9,130.2,89.6,108.9,89.9,97.2z"/>
	<g>
		<path class="st7" d="M0,113.6v45.6l50,25.2c0,0,0,0,0.1,0c1-0.8,12.2-15.1,23.1-40.7L0,113.6z"/>
		<path class="st8" d="M73.5,142.9c5.7-13.4,15-46.2,14.9-49.2c0,0,0,0-0.1,0C71.5,86,0,58.2,0,58.2v55.3l73.2,30
			C73.3,143.4,73.4,143.1,73.5,142.9z"/>
	</g>
	<g>
		<path class="st9" d="M333.1,58.2c0,0-71.5,27.8-88.4,35.4c9.1,7.6,20,20.6,27.3,42.2c0.3,0.8,0.5,1.6,0.8,2.4l60.3-24.7V58.2z"/>
		<path class="st10" d="M272.8,138.3c6.8,20.6,9.6,35.1,10.2,46c0,0,0.1,0,0.1,0l50-25.2v-45.6L272.8,138.3z"/>
	</g>
	<circle class="st11" cx="45.2" cy="163.7" r="5.2"/>
	<circle class="st12" cx="44.4" cy="162.6" r="5.2"/>
	<g>
		<path class="st13" d="M161.8,247.2v25.5h3v-25.5c-0.6,0-1.2,0-1.8,0C162.6,247.2,162.2,247.2,161.8,247.2z"/>
		<path class="st13" d="M212.7,261.8l2.7-1.3l-11.1-23.1c-0.9,0.5-1.8,0.9-2.7,1.3L212.7,261.8z"/>
		<path class="st13" d="M111.1,260.5l2.7,1.3l11-22.9c-0.9-0.4-1.8-0.9-2.7-1.3L111.1,260.5z"/>
		<path class="st13" d="M113.8,49.2l-2.7,1.3l11.1,23.1c0.9-0.4,1.8-0.9,2.7-1.3L113.8,49.2z"/>
		<path class="st13" d="M215.4,50.5l-2.7-1.3l-11.2,23.3c0.9,0.4,1.8,0.9,2.7,1.3L215.4,50.5z"/>
		<path class="st13" d="M164.8,64V38.3h-3V64c0.4,0,0.8,0,1.2,0C163.6,64,164.2,64,164.8,64z"/>
	</g>
	<g>
		<path class="st4" d="M113.9,207.2c2.3-5.6,8.8-15.3,12.7-20.1c3.5-4.2,8.9-4.5,12.2-1.1c2.5,2.6,5,6.7-3.7,24.4
			c-6.4,13.1-13.3,8.1-16,6.7C116.4,215.7,112.5,210.7,113.9,207.2z"/>
		<path class="st4" d="M109.6,204.4c3.9-4.3,9.6-14.1,12.2-19.5c2.2-4.8,0.2-9.7-4.2-11.1c-3.3-1.1-7.9-1.6-19.7,13.5
			c-8.7,11.1-1.4,15,0.9,16.7C101.1,205.8,107.2,207,109.6,204.4z"/>
		<path class="st4" d="M137.7,212.5c0,0,7-14.9,15-12.9c8,2,7.3,11.4,3.7,20.1c-3.7,8.7-7.2,11.6-14.4,7.9
			C134.8,224,133.3,219.6,137.7,212.5z"/>
		<path class="st4" d="M95.2,185.6c0,0,9.9-12.2,4.9-18.3c-5.1-6.1-12.9-1.5-18.8,5.2c-5.9,6.7-6.9,11-0.8,15.7
			C86.5,192.8,90.9,192.4,95.2,185.6z"/>
	</g>
</g>
</svg>
