<?xml version="1.0" encoding="utf-8"?>
<!-- Generator: Adobe Illustrator 21.1.0, SVG Export Plug-In . SVG Version: 6.00 Build 0)  -->
<svg version="1.1" xmlns="http://www.w3.org/2000/svg" xmlns:xlink="http://www.w3.org/1999/xlink" x="0px" y="0px"
	 viewBox="0 0 800 500" style="enable-background:new 0 0 800 500;" xml:space="preserve">
<style type="text/css">
	.st0{fill:#413D42;}
	.st1{fill:#7B747C;}
	.st2{fill:#F4B7A6;}
	.st3{fill:#D1C5BC;}
	.st4{fill:#B5ACA5;}
	.st5{fill:#0C020F;}
	.st6{fill:#F9C0B4;}
	.st7{fill:#F4B7A6;stroke:#D8938D;stroke-width:0.7211;}
	.st8{fill:#FFFFFF;stroke:#0C020F;stroke-width:0.6597;}
	.st9{fill:#573C5C;}
	.st10{fill:#D8938D;}
	.st11{fill:#8D1C3F;}
	.st12{fill:#701037;}
	.st13{fill:#A01C48;}
	.st14{fill:#A09893;}
</style>
<g id="bg">
	<rect class="st0" width="800" height="500"/>
	<polygon class="st1" points="131.5,500 709,500 524.3,0 286.7,0 	"/>
	<path class="st2" d="M233,493c-4.7,3-30.9-56.5-30.9-56.5s-34.8-126.4-40.7-133.6c-5.9-7.3-37.7-12.9-37.9,15.9
		c-1.3,34.1,56,156.1,56,156.1s5.8,12.7,16.4,25.1h60C245.2,497.8,234.5,495.6,233,493z"/>
	<polygon class="st3" points="239.8,381.5 587.5,384.9 688.8,456.5 125.3,455.9 	"/>
	<path class="st4" d="M456.3,390.3c0,0,98.4-1.8,108.5,0.6c10.1,2.4,37.6,6.6,37.6,6.6l23.3,16.7c0,0-72.7,4.2-87.7-1.2
		C523.1,407.6,456.3,390.3,456.3,390.3z"/>
	<path class="st4" d="M154.5,437l68.6,8.1l42.9-5.6L278,438l32.6-20.7l49.3-11.9c0,0-111.3,0.8-123.2,0.8c-11.9,0-33.1-0.9-33.1-0.9
		L154.5,437z"/>
</g>
<g id="woman2">
	<path class="st5" d="M518.2,239.4c0,0,8.7,15.5,8,22.3c-0.8,6.8-2,8.7-2,8.7l22.3-29.8l-12.3-18.7L518.2,239.4z"/>
	<path class="st6" d="M605.7,303.8c0,0-4.4-4-13.5-2.9c-10.6,1.2-19.1,6.8-24.8,9.6C561.7,313.2,595.1,297.6,605.7,303.8z"/>
	<path class="st7" d="M453.3,158.5c0,0-3.2,22.2,1.3,29c4.5,6.8,9.4,8.1,9.4,8.1s2.3,6-1.9,12c-4.2,6-3.8,6.4-3.3,7.9
		c0.4,1.6,10.1,3.6,11.5,5.2c1.4,1.6,1.9,10.5,1.9,10.5l3.7,1.5c0,0-0.7,6.5,11.7,14c12.4,7.5,17.1,11,19.1,8.9
		c2-2,22.8-19.7,22.8-19.7s41.4,26.5,48.4,34.1c7,7.6,13.2,25.7,13.2,25.7l53-37.9l-74.7-49.1l-13.2-13.9l1.9-27.1l-24.2-26.7
		l-50.1-5.3C483.7,135.9,446.4,138,453.3,158.5z"/>
	<g>
		<path class="st8" d="M470,192.1c0,0,6.3-1.8,11.7-0.7c5.4,1.2,8.6,3.6,8.6,3.6s-2.2,3.3-6.1,6.4c-4,3.1-7.5,3.3-7.5,3.3
			S471.1,198.7,470,192.1z"/>
		<g>
			<path class="st9" d="M474.9,191.5c0,0,3.8,4.3,2.5,9.4c-0.7,2.8-2.2,2.5-2.2,2.5s-3.9-5-5.4-10.4
				C469.5,191.5,474.9,191.5,474.9,191.5z"/>
			<path class="st5" d="M470.7,193.5c0.9-0.3,2.1,0.8,2.8,2.6c0.7,1.8,0.5,3.5-0.4,3.8c-0.1,0.1-0.3,0.1-0.4,0
				c-0.9-1.7-1.9-3.7-2.6-5.9C470.3,193.8,470.5,193.6,470.7,193.5z"/>
		</g>
	</g>
	<g>
		<path class="st7" d="M377,197.4c0,0-3.9,7.8,6.6,11.3c1.1,0.4,10.3,3,11.3,3.9c-2,1.1-22.7-8.8-26.2,2.4
			c-10.1,32.2,16.6,42.3,16.6,42.3s16.4,50.6,30.7,78.7c22.8,45.1,42.3,55.2,42.3,55.2s125.3-49.8,147.7-75.4
			c19.6-21.1-7.4-38.8-16.7-37.6c-9.3,1.2-121.2,69.5-121.2,69.5l-58.7-80.3c0,0-8.8-9.5-3.8-21.1c1.5-3.5,4.9-1.5,5.4-10.1
			c0.4-6.4-1-13.7-1.8-14.6c-1-1.1-5.4-13.1-5.4-13.1L377,197.4z"/>
		<path class="st10" d="M575.3,320.3c0,0-23.9,24.6-35,31.4c-11.1,6.8-81.5,37-85.1,34.2c-2.9-2.2-26.7-31.9-35.8-43.3
			c21.3,39.4,38.8,48.6,38.8,48.6s73.6-29.2,118-54.4L575.3,320.3z M401.6,236.8l-22.7,4.8c0,0-1.5,3.9-3.4,9.1
			c4.8,4.7,9.8,6.5,9.8,6.5s4.8,14.7,11.4,32.7c-0.1-2.9-0.3-5.6-0.7-7.7c-1.2-8,2-18.3,2.8-20.3c0.5-1.2,3.3-4.4,5.3-6.7
			c-0.2-2.2,0-4.6,0.8-7.1L401.6,236.8z"/>
	</g>
	<g>
		<path class="st10" d="M458.6,130.4c14.6-26.3,39.4-35.2,71.1-34.1c14.3,0.5,30.4,5.5,41.8,46.9c11.4,41.3-6.6,71.7-17.5,76.9
			c-3.3,1.6-6.4,2.5-9.5,3l-39.4,32.8c0,0,30.5-27.8,33.6-32.2c3.1-4.4,3.4-15.1,3.4-15.1c1.1-5.6-0.5-12.8-0.5-12.8s11-1,15.4-4.8
			c4.4-3.8,0.6-12.3-3.8-20.2c-4.5-7.9-19.2-17.1-26.4-15.4c-7.3,1.7-8.5,27-8.5,27c-4,4.1-22.3-10-28.3-17.9
			c-5.9-7.9-13.6-11.9-23.5-9.1c-9.9,2.8-14.2,8.2-14.2,8.2S444,156.6,458.6,130.4z"/>
		<path class="st10" d="M536.3,171.8c6.4,1.3,8.3,6.1,9.3,9.5c1,3.4-0.4,4.9-0.4,4.9s0.8-8.4-6.5-10.4c0.3,0.6,0.6,1.7,0.1,3.5
			c-0.9,3.5-3.1,4.8-3.1,4.8s4.3-6.8-0.3-8.7c-4.6-1.8-6.8,2.8-7.4,3.8c-0.5,1-1.6-0.3-1.6-0.3S528.6,170.2,536.3,171.8z"/>
		<path class="st10" d="M491,194.3c0,0-7.2,5.3-10.8,6.6c-3.5,1.3-6.9,2.1-6.9,2.1l3.3,3.4C476.6,206.4,488.2,201.9,491,194.3z"/>
		<path class="st10" d="M472.1,212.8c0,0,3.6-0.2,4.1,2.5c0.5,2.6,0,3.7,0,3.7s2.4-3.2,0.5-5.1C474.8,212.1,473.4,212.1,472.1,212.8
			z"/>
	</g>
	<path class="st10" d="M606.7,234.5c-0.4-6.8-43.3,23.1-43.3,23.1l1.1,2c2.4,1.7,4.6,3.3,6.6,4.8
		C580.1,258.4,607.1,240.1,606.7,234.5z"/>
	<g>
		<path class="st11" d="M729.1,428.9c-11.5-11.4-14.1-10.8-11.8-27c4.4-31.1,5.4-56.2-2.7-87.1c-6.3-23.8-14-52.8-37.7-64.3
			c-17.5-8.5-41.6-14.1-61.2-11.9c-5.8,12.7-15,27.1-28.2,34c-8.4,4.4-8.3,5.4-9.5,12.1c-2.9,15.9-5.8,28.9-8.8,44.8
			c-2.7,14.2-13.6,24.9-2.8,40c5.5,7.7,14.9,11.8,23.8,14.1c1.7,0.4,8.7,0.7,9.7,2c7.1,9.2,14.2,18.4,21.3,27.5
			c2,2.6,17.8,19.2,16.5,22.2c-6.5,14.8-11.7,29.5-16.6,44.9c-2.3,7.2-8.1,13.8-14.2,19.9h179.4C786.2,500,751,450.6,729.1,428.9z"
			/>
		<path class="st12" d="M599.1,366.4c0,0,6.5,10.1,19.5,9.4c13-0.7,23.8-11.5,23.8-11.5S621.5,376.5,599.1,366.4z"/>
		<path class="st13" d="M622.1,294.5l-41.8,7.2c0,0-4.3,23.1-5.8,28.8c-1.4,5.8-17.3,15.9-2.9,15.9
			C586,346.4,610.5,310.4,622.1,294.5z"/>
	</g>
	<path class="st5" d="M519.5,181.3c0,0,0.3-14.3,7.5-16c7.2-1.7,15.4,0.6,19.9,8.4c4.4,7.9,2.9,14.6-1.5,18.4
		c-4.4,3.8-6.3,2.8-6.3,2.8s12.7,70.1,7.9,74.8c-4.9,4.7,53.4-24.1,65.7-41.3c19.7-27.6-4.6-54.6-23.8-92.5
		c-20.3-40.1-47.3-43.8-61.4-44.3c-31.4-1.1-65.9,18-80.4,44c-14.5,26,4,29.8,4,29.8s7.4-8,17.2-10.8c9.8-2.8,17.4,1.2,23.3,9
		C497.4,171.3,515.5,185.3,519.5,181.3z"/>
	<g>
		<path class="st12" d="M469.1,218.1c0,0,6.2-1.4,4.9,0.4C472.7,220.4,469.1,218.1,469.1,218.1z"/>
		<path class="st12" d="M472.1,231.3c0,0,13.2-1.5,16.4-0.6c3.2,0.9,1.6,1.8,1.6,1.8s-9.5-1-12.5,0.2
			C474.7,233.9,472.1,231.3,472.1,231.3z"/>
	</g>
	<path class="st5" d="M475.7,183.4c0,0-0.9,5.6-6.4,9.8c-4.2,3.2-6.3,2.1-6.7,1.9C469.8,191.4,475.7,183.4,475.7,183.4z"/>
	<g>
		<ellipse class="st12" cx="537.1" cy="197.1" rx="5.1" ry="7.8"/>
		<ellipse class="st13" cx="535.1" cy="197.4" rx="1.8" ry="4.5"/>
	</g>
</g>
<g id="woman1">
	<path class="st5" d="M271,239.4c0,0-8.7,15.5-8,22.3c0.8,6.8,2,8.7,2,8.7l-22.3-29.8l12.3-18.7L271,239.4z"/>
	<path class="st7" d="M335.8,158.5c0,0,3.2,22.2-1.3,29c-4.5,6.8-9.4,8.1-9.4,8.1s-2.3,6,1.9,12c4.2,6,3.8,6.4,3.3,7.9
		c-0.4,1.6-10.1,3.6-11.5,5.2c-1.4,1.6-1.9,10.5-1.9,10.5l-3.7,1.5c0,0,0.7,6.5-11.7,14c-12.4,7.5-17.1,11-19.1,8.9
		c-2-2-22.8-19.7-22.8-19.7s-41.4,26.5-48.4,34.1c-7,7.6-13.2,25.7-13.2,25.7l-53-37.9l74.7-49.1l13.2-13.9l-1.9-27.1l24.2-26.7
		l50.1-5.3C305.4,135.9,342.8,138,335.8,158.5z"/>
	<g>
		<path class="st8" d="M319.1,192.1c0,0-6.3-1.8-11.7-0.7c-5.4,1.2-8.6,3.6-8.6,3.6s2.2,3.3,6.1,6.4c4,3.1,7.5,3.3,7.5,3.3
			S318.1,198.7,319.1,192.1z"/>
		<g>
			<path class="st9" d="M314.2,191.5c0,0-3.8,4.3-2.5,9.4c0.7,2.8,2.2,2.5,2.2,2.5s3.9-5,5.4-10.4
				C319.7,191.5,314.2,191.5,314.2,191.5z"/>
			<path class="st5" d="M318.4,193.5c-0.9-0.3-2.1,0.8-2.8,2.6c-0.7,1.8-0.5,3.5,0.4,3.8c0.1,0.1,0.3,0.1,0.4,0
				c0.9-1.7,1.9-3.7,2.6-5.9C318.8,193.8,318.7,193.6,318.4,193.5z"/>
		</g>
	</g>
	<g>
		<path class="st10" d="M330.5,130.4c-14.6-26.3-39.4-35.2-71.1-34.1c-14.3,0.5-30.4,5.5-41.8,46.9c-11.4,41.3,6.6,71.7,17.5,76.9
			c3.3,1.6,6.4,2.5,9.5,3l39.4,32.8c0,0-30.5-27.8-33.6-32.2c-3.1-4.4-3.4-15.1-3.4-15.1c-1.1-5.6,0.5-12.8,0.5-12.8s-11-1-15.4-4.8
			c-4.4-3.8-0.6-12.3,3.8-20.2c4.5-7.9,19.2-17.1,26.4-15.4c7.3,1.7,8.5,27,8.5,27c4,4.1,22.3-10,28.3-17.9
			c5.9-7.9,13.6-11.9,23.5-9.1c9.9,2.8,14.2,8.2,14.2,8.2S345.1,156.6,330.5,130.4z"/>
		<path class="st10" d="M252.8,171.8c-6.4,1.3-8.3,6.1-9.3,9.5c-1,3.4,0.4,4.9,0.4,4.9s-0.8-8.4,6.5-10.4c-0.3,0.6-0.6,1.7-0.1,3.5
			c0.9,3.5,3.1,4.8,3.1,4.8s-4.3-6.8,0.3-8.7c4.6-1.8,6.8,2.8,7.4,3.8c0.5,1,1.6-0.3,1.6-0.3S260.6,170.2,252.8,171.8z"/>
		<path class="st10" d="M298.1,194.3c0,0,7.2,5.3,10.8,6.6c3.5,1.3,6.9,2.1,6.9,2.1l-3.3,3.4C312.5,206.4,300.9,201.9,298.1,194.3z"
			/>
		<path class="st10" d="M317,212.8c0,0-3.6-0.2-4.1,2.5c-0.5,2.6,0,3.7,0,3.7s-2.4-3.2-0.5-5.1C314.3,212.1,315.7,212.1,317,212.8z"
			/>
	</g>
	<path class="st10" d="M182.4,234.5c0.4-6.8,43.3,23.1,43.3,23.1l-1.1,2c-2.4,1.7-4.6,3.3-6.6,4.8
		C209,258.4,182.1,240.1,182.4,234.5z"/>
	<g>
		<path class="st11" d="M60,428.9c11.5-11.4,14.1-10.8,11.8-27C67.4,370.8,69,351,73,325c3.7-24.3,18-46,41-67
			c14.4-13.1,39.9-21.6,59.5-19.4c5.8,12.7,15,27.1,28.2,34c8.4,4.4,8.3,5.4,9.5,12.1c2.9,15.9,5.8,28.9,8.8,44.8
			c2.7,14.2,13.6,24.9,2.8,40c-5.5,7.7-14.9,11.8-23.8,14.1c-1.7,0.4-8.7,0.7-9.7,2c-7.1,9.2-14.2,18.4-21.3,27.5
			c-2,2.6-17.8,19.2-16.5,22.2c6.5,14.8,11.7,29.5,16.6,44.9c2.3,7.2,8.1,13.8,14.2,19.9H2.9C2.9,500,38.1,450.6,60,428.9z"/>
		<path class="st12" d="M190,366.4c0,0-6.5,10.1-19.5,9.4c-13-0.7-23.8-11.5-23.8-11.5S167.7,376.5,190,366.4z"/>
		<path class="st13" d="M167.1,294.5l41.8,7.2c0,0,4.3,23.1,5.8,28.8c1.4,5.8,17.3,15.9,2.9,15.9
			C203.1,346.4,178.6,310.4,167.1,294.5z"/>
	</g>
	<path class="st5" d="M269.6,181.3c0,0-0.3-14.3-7.5-16c-7.2-1.7-15.4,0.6-19.9,8.4c-4.4,7.9-2.9,14.6,1.5,18.4
		c4.4,3.8,6.3,2.8,6.3,2.8s-12.7,70.1-7.9,74.8c4.9,4.7-53.4-24.1-65.7-41.3c-19.7-27.6,4.6-54.6,23.8-92.5
		c20.3-40.1,47.3-43.8,61.4-44.3c31.4-1.1,65.9,18,80.4,44c14.5,26-4,29.8-4,29.8s-7.4-8-17.2-10.8c-9.8-2.8-17.4,1.2-23.3,9
		C291.7,171.3,273.6,185.3,269.6,181.3z"/>
	<g>
		<path class="st12" d="M320,218.1c0,0-6.2-1.4-4.9,0.4C316.4,220.4,320,218.1,320,218.1z"/>
		<path class="st12" d="M317,231.3c0,0-13.2-1.5-16.4-0.6c-3.2,0.9-1.6,1.8-1.6,1.8s9.5-1,12.5,0.2C314.4,233.9,317,231.3,317,231.3
			z"/>
	</g>
	<path class="st5" d="M313.4,183.4c0,0,0.9,5.6,6.4,9.8c4.2,3.2,6.3,2.1,6.7,1.9C319.3,191.4,313.4,183.4,313.4,183.4z"/>
	<g>
		<ellipse class="st12" cx="252" cy="197.1" rx="5.1" ry="7.8"/>
		<ellipse class="st13" cx="254.1" cy="197.4" rx="1.8" ry="4.5"/>
	</g>
	<path class="st7" d="M370.8,212.6c0,0-0.7,16.4-1.7,17.6c-0.9,1-1.2-0.1-0.7,7.2c0.5,7.2,1.2,10.8,2.6,14.3c5.4,13.1-4.9,29-4.9,29
		L302,367c0,0-52.8-33.4-85-53c-32.2-19.6-39.1-25.3-48.8-24.3c-17.3,1.8-35.3,27.7-7.2,51.3c23.7,28.8,147,73,147,73
		s24.6-13.1,49-62c18-36,36.9-89.6,36.9-89.6s21.8-10,20.7-18.7c-1.7-13.2-3.2-31.6-9.2-34.6c-3.4-1.6-27.4,1.2-27.4,1.2
		L370.8,212.6z"/>
	<g>
		<path class="st7" d="M370,209.7c-0.9,2.1,0.1,4.5,2.2,5.4l16.2,6.7c2.1,0.9,4.5-0.1,5.4-2.2l0,0c0.9-2.1-0.1-4.5-2.2-5.4
			l-16.2-6.7C373.3,206.6,370.9,207.6,370,209.7L370,209.7z"/>
		<path class="st7" d="M359.9,230.5c-0.9,2.1,0.1,4.5,2.2,5.4l15.2,6.4c2.1,0.9,4.5-0.1,5.4-2.2l0,0c0.9-2.1-0.1-4.5-2.2-5.4
			l-15.2-6.4C363.2,227.4,360.8,228.4,359.9,230.5L359.9,230.5z"/>
		<path class="st7" d="M365.3,215.6c-0.9,2.1,0.1,4.5,2.2,5.4l19,7.9c2.1,0.9,4.5-0.1,5.4-2.2l0,0c0.9-2.1-0.1-4.5-2.2-5.4l-19-7.9
			C368.6,212.5,366.2,213.5,365.3,215.6L365.3,215.6z"/>
		<path class="st7" d="M362.4,223.4c-1,2.4,0.1,5.1,2.5,6.1l16.2,6.7c2.4,1,5.1-0.1,6.1-2.5l0,0c1-2.4-0.1-5.1-2.5-6.1l-16.2-6.7
			C366.1,219.9,363.4,221.1,362.4,223.4L362.4,223.4z"/>
	</g>
</g>
<g id="front_table">
	<path class="st5" d="M598.7,463.4V500h21.5v-36.6H598.7z M179.3,500h21.5v-36.6h-21.5V500z"/>
	<rect x="127.2" y="454.7" class="st14" width="564.1" height="23.9"/>
	<polygon class="st3" points="691.3,454.7 639.3,424.3 607.1,454.7 	"/>
	<path class="st4" d="M469,430.2c0,0-8,4.2-2.6,7.2c5.4,3,39.4,1.8,42.9,3.6c3.6,1.8,84.1,10.7,106.7,10.7s41.7-12.6,41.7-12.6
		L469,430.2z"/>
	<polygon class="st3" points="190.9,413.5 127.2,454.7 178.9,454.7 	"/>
	<g>
		<path class="st10" d="M488.4,390c0,0-10.7-7.8-14.9-6.9c-4.2,1-16.5,12.9-16.5,12.9l10.1,10.3C467,406.3,495,395.3,488.4,390z"/>
		<path class="st7" d="M447.4,392.2c0,0,3.1,6.7,6.1,5c1-0.5,1.9-0.5,3.2-1c0,0.8,0,4.3,0.3,8.7c0.3,3.1-5,7.7,0.8,11.9
			c-2.5,3,2.2,4.6,3,6.6c1.3,3.1,2.7,3.6,5,5.3c6.2,4.6,36.3,6.3,36.3,6.3s52.1,10.7,83.6,12.2c50.5,2.4,68.9-9.5,68.9-9.5
			s35.6-141.7,24.3-173.9c-8.7-27.5-34.7-13.8-38.2-5.1c-3.5,8.7-8.5,17.5-8.3,53.1s-10.8,95.9-10.8,95.9l-98.8,11.4
			c0,0-12.6,3-20.2-7.1c-2-2.7-0.6-12.2-6-15.7c-5.3-3.5-11.4-9.9-12.6-9.6c-1.4,0.3-21.3-2.4-21.3-2.4L447.4,392.2z M456.9,396
			c2.6-1.1,5.2-1.9,5.2-1.9l11,2.8c0,0,0.7,0.2,1.9,0.5c-0.1,0.1-0.2,0.1-0.2,0.1C470.4,400.5,458.7,396.7,456.9,396z"/>
		<path class="st6" d="M469.2,387.5l15.5,2.4c0,0,11.9,4.8,8.9,6.6c-3,1.8-16.7-1.8-21.5-3.6C467.4,391.1,465,386.3,469.2,387.5z"/>
	</g>
	<polygon class="st4" points="190.9,413.5 172,425.8 152.5,438 183.1,440.4 	"/>
</g>
</svg>
