<?xml version="1.0" encoding="utf-8"?>
<!-- Generator: Adobe Illustrator 21.1.0, SVG Export Plug-In . SVG Version: 6.00 Build 0)  -->
<svg version="1.1" id="Capa_1" xmlns="http://www.w3.org/2000/svg" xmlns:xlink="http://www.w3.org/1999/xlink" x="0px" y="0px"
	 viewBox="0 0 425.2 386.6" style="enable-background:new 0 0 425.2 386.6;" xml:space="preserve">
<style type="text/css">
	.st0{fill:#FFFFFF;}
	.st1{fill:none;stroke:#352E35;stroke-width:2;stroke-linecap:round;stroke-linejoin:round;stroke-dasharray:0,7.871;}
	.st2{fill:#F9BB8D;}
	.st3{opacity:0.3;fill:#FFFFFF;}
	.st4{fill:#FBCEA4;}
	.st5{fill:#C13A2A;}
	.st6{fill:#AD3525;}
	.st7{fill:#C34637;}
	.st8{fill:none;stroke:#FFFFFF;stroke-width:0.8626;stroke-miterlimit:10;}
	.st9{fill:#45BABD;}
	.st10{fill:#B089BD;}
	.st11{fill:#F39200;}
	.st12{fill:#95C11F;}
</style>
<g>
	<rect class="st0" width="425.2" height="386.6"/>
	<g>
		<circle class="st1" cx="221.5" cy="194.3" r="144.1"/>
	</g>
	<g>
		<path class="st2" d="M158.9,259.2c5.7,10.1,33.5,43.3,33.5,43.3l-6,84.1h68.5l-2.5-83.3c0,0,12.3-19.2,12.3-35.6
			c0-18.6-0.6-75.3-0.7-97.9c-0.1-9-2.9-12.1-6.7-12.2c-3.3-0.1-5.8,2.1-6.3,7.5c-1.8,19.6-4.9,38.7-4.9,38.7s-0.4-43.4,0.1-59.5
			c0.2-6.3-1.6-9.3-6.8-10.1c-6.1-0.9-8.9,1.7-9.6,7.6c-3,25.9-5.9,62-5.9,62s-0.8-51.9-1.7-71.9c-0.4-9.7-3.4-11.7-9-11.6
			c-5.3,0.1-8.7,2.3-8.7,11.6c0,26.7-1.2,71.9-1.2,71.9s-2.9-42.1-4.4-58.1c-0.7-7.6-4.7-9.5-8.6-9.4c-3.9,0.1-7.7,2.2-8.1,10.1
			c-0.8,15.8-3.6,87.9-3.6,87.9S171,220,167,212.4c-4.1-7.6-21.8-8-19.6,0.7C151.5,230.1,153.2,249.1,158.9,259.2z"/>
		<path class="st3" d="M150.5,228c5.1-3.2,9.9-2.9,9.9-2.9s-2.9-12.3-6.4-13.7c-4.3-1.7-6.7,1.7-6.7,1.7S150.2,226.3,150.5,228z"/>
		<path class="st3" d="M150.5,228c3.4-2.2,7.3-2.7,7.3-2.7s-3.4-2.3-7.9-0.3C150.2,226,150.4,227.1,150.5,228z"/>
		<path class="st3" d="M197.1,151.7c0.1-0.8,0.1-1.6,0.1-2.4c0-7.3-3-11.3-6.7-11.3c-3.7,0-6.7,4-6.7,11.3c0,0.8,0,1.6,0.1,2.4
			c0,0,0.4-0.2,1.1-0.4c1.1-0.3,2.9-0.7,5.5-0.7c2.4,0,4.2,0.3,5.3,0.6C196.6,151.5,197.1,151.7,197.1,151.7z"/>
		<path class="st3" d="M189.7,148.9c-3.7,0-5.5,2.7-4.8,2.4c1.1-0.3,2.9-0.7,5.5-0.7c2.4,0,4.2,0.3,5.3,0.6
			C196.6,151.5,193.4,148.9,189.7,148.9z"/>
		<path class="st3" d="M220.2,135.4c0.1-0.8,0.1-1.6,0.1-2.4c0-7.3-3.1-11.3-6.9-11.3c-3.8,0-6.9,4-6.9,11.3c0,0.8,0,1.6,0.1,2.4
			c0,0,0.4-0.2,1.1-0.4c1.1-0.3,3-0.7,5.7-0.7c2.5,0,4.3,0.3,5.4,0.6C219.8,135.2,220.2,135.4,220.2,135.4z"/>
		<path class="st3" d="M212.6,132.6c-3.8,0-5.7,2.6-4.9,2.4c1.1-0.3,3-0.7,5.7-0.7c2.5,0,4.3,0.3,5.4,0.6
			C219.8,135.2,216.5,132.6,212.6,132.6z"/>
		<path class="st3" d="M244.6,149.1c0.1-0.8,0.1-1.6,0.1-2.4c0-7.3-3.1-11.3-6.9-11.3c-3.8,0-6.9,4-6.9,11.3c0,0.8,0,1.6,0.1,2.4
			c0,0,0.4-0.2,1.1-0.4c1.1-0.3,3-0.7,5.7-0.7c2.5,0,4.3,0.3,5.4,0.6C244.2,148.9,244.6,149.1,244.6,149.1z"/>
		<path class="st3" d="M237,146.3c-3.8,0-5.7,2.6-4.9,2.4c1.1-0.3,3-0.7,5.7-0.7c2.5,0,4.3,0.3,5.4,0.6
			C244.2,148.9,240.9,146.3,237,146.3z"/>
		<path class="st3" d="M262.4,168.9c0.1-0.6,0.1-1.1,0.1-1.7c0-5.2-2.2-8.1-5-8.1c-2.8,0-5,2.9-5,8.1c0,0.6,0,1.2,0.1,1.7
			c0,0,0.3-0.1,0.8-0.3c0.8-0.2,2.1-0.5,4.1-0.5c1.8,0,3.1,0.2,3.9,0.4C262,168.7,262.4,168.9,262.4,168.9z"/>
		<path class="st3" d="M256.9,166.8c-2.8,0-4.1,1.9-3.5,1.8c0.8-0.2,2.1-0.5,4.1-0.5c1.8,0,3.1,0.2,3.9,0.4
			C262,168.7,259.7,166.8,256.9,166.8z"/>
		<path class="st4" d="M262.2,182.6c0,0-2.1,0.5-4.7,0.5c-2.6,0-4.7-0.5-4.7-0.5s2.1-0.5,4.7-0.5
			C260.2,182.2,262.2,182.6,262.2,182.6z"/>
		<path class="st4" d="M262,185c0,0-2.1,0.5-4.7,0.5s-4.7-0.5-4.7-0.5s2.1-0.5,4.7-0.5S262,185,262,185z"/>
		<path class="st4" d="M242.9,173.8c0,0-2.5,0.5-5.6,0.5c-3.1,0-5.6-0.5-5.6-0.5s2.5-0.5,5.6-0.5
			C240.4,173.4,242.9,173.8,242.9,173.8z"/>
		<path class="st4" d="M242.6,176.2c0,0-2.5,0.5-5.6,0.5c-3.1,0-5.6-0.5-5.6-0.5s2.5-0.5,5.6-0.5
			C240.1,175.8,242.6,176.2,242.6,176.2z"/>
		<path class="st4" d="M219.2,169.3c0,0-2.5,0.5-5.6,0.5c-3.1,0-5.6-0.5-5.6-0.5s2.5-0.5,5.6-0.5
			C216.6,168.9,219.2,169.3,219.2,169.3z"/>
		<path class="st4" d="M218.9,171.8c0,0-2.5,0.5-5.6,0.5c-3.1,0-5.6-0.5-5.6-0.5s2.5-0.5,5.6-0.5
			C216.4,171.3,218.9,171.8,218.9,171.8z"/>
		<path class="st4" d="M196.2,176.7c0,0-2.5,0.5-5.6,0.5c-3.1,0-5.6-0.5-5.6-0.5s2.5-0.5,5.6-0.5
			C193.7,176.2,196.2,176.7,196.2,176.7z"/>
		<path class="st4" d="M195.9,179.1c0,0-2.5,0.5-5.6,0.5s-5.6-0.5-5.6-0.5s2.5-0.5,5.6-0.5S195.9,179.1,195.9,179.1z"/>
	</g>
	<g>
		<path class="st5" d="M239.9,206.8c-13.2,0-21.8,14.7-21.8,14.7s-8.5-14.7-21.8-14.7c-13.2,0-23.9,10.7-23.9,23.9
			c0,26.2,45.7,52.9,45.7,52.9s45.7-26.7,45.7-52.9C263.8,217.5,253.1,206.8,239.9,206.8z"/>
		<path class="st6" d="M262.7,223.5c-1.1,6.5-3.1,12.9-6.3,18.7c-6.3,11.9-17,24.2-30.7,27.3c-5.1,1.2-11.7,2-16.7-0.2
			c-3.5-1.6-6.7-3.7-10-5.6c-1.2-0.7-10.5-6.7-16.7-9.9c13.4,16.8,35.7,29.9,35.7,29.9s45.7-26.7,45.7-52.9
			C263.8,228.2,263.4,225.8,262.7,223.5z"/>
		<path class="st7" d="M221.7,218.5c1.8-0.8,3.5-1.7,5.3-2.6c4.8-2.4,9.1-5.4,14.4-6.3c4.4-0.8,9.1,0.2,13.3,2.3
			c-4.1-3.2-9.2-5.2-14.8-5.2c-9.9,0-17.2,8.2-20.2,12.3C220.3,219,221,218.8,221.7,218.5z"/>
		<path class="st7" d="M213.3,215.5c0.7,0.7,1.3,1.4,1.9,2c-3.5-4.3-10.2-10.7-18.9-10.7c-6.4,0-12.3,2.5-16.6,6.7
			c0.6-0.2,8.9-3.3,16.5-3.2C204.4,210.4,211.8,213.8,213.3,215.5z"/>
		<polyline class="st8" points="170.2,241 184.7,241 189.8,232.6 192.4,241 202.5,241 202.5,242.5 205,241 209.5,241 212.3,230.3 
			213.2,249.1 217.5,227 218.1,241 220.8,241 223.1,236.9 224.8,241 228.4,238.1 229.7,241 233.7,238.1 237.4,246.8 238.9,241 
			245.2,241 250.2,231.8 253.3,246.6 255.6,234.9 257.1,241 266,241 		"/>
	</g>
	<circle class="st9" cx="339.7" cy="268.7" r="43.2"/>
	<circle class="st10" cx="340.6" cy="122.1" r="40.6"/>
	<g>
		<circle class="st0" cx="322.7" cy="269.7" r="4.5"/>
		<path class="st0" d="M342.2,268.3c1.5-0.2,2.5,0.5,2.5,4.8c0,2.7-0.8,2.9-2.1,2.9c-4.3,0.1-11.1,0-11.9,0c-1.8,0-3.2-2-3.2-5.4
			c0-4,4.3-3.5,4.6-3.5C332.9,267.1,340.1,268.5,342.2,268.3z"/>
		<path class="st0" d="M314.1,285.6c0,1-0.8,1.9-1.9,1.9l0,0c-1,0-1.9-0.8-1.9-1.9v-25.5c0-1,0.8-1.9,1.9-1.9l0,0
			c1,0,1.9,0.8,1.9,1.9V285.6z"/>
		<path class="st0" d="M370.4,285.6c0,1-0.8,1.9-1.9,1.9l0,0c-1,0-1.9-0.8-1.9-1.9V272c0-1,0.8-1.9,1.9-1.9l0,0c1,0,1.9,0.8,1.9,1.9
			V285.6z"/>
		<path class="st0" d="M369.7,279c0,1.1-0.9,2-2,2h-54.2c-1.1,0-2-0.9-2-2l0,0c0-1.1,0.9-2,2-2h54.2
			C368.8,277,369.7,277.9,369.7,279L369.7,279z"/>
		<path class="st0" d="M325.7,274.5c0,0.9-0.6,1.7-1.4,1.7h-7.6c-0.8,0-1.4-0.7-1.4-1.7l0,0c0-0.9,0.6-1.7,1.4-1.7h7.6
			C325.1,272.8,325.7,273.6,325.7,274.5L325.7,274.5z"/>
		<path class="st0" d="M363.2,270.1c0-2.9-27.2-3.6-27.2-3.6v16.3h27.2C363.2,282.8,363.2,273,363.2,270.1z"/>
		<g>
			<path class="st0" d="M334.3,274.1c-1.5,0-3.1-0.3-4.7-1c-1.1-0.5-1.6-1.8-1.1-2.9c0.5-1.1,1.8-1.6,2.9-1.1
				c5.3,2.4,9.6-2.6,9.7-2.8c0.8-0.9,2.2-1,3.1-0.3c0.9,0.8,1.1,2.1,0.3,3.1C342.8,271.1,339,274.1,334.3,274.1z"/>
		</g>
	</g>
	<g>
		<g>
			<path class="st0" d="M326.3,259.2l1.7-6.3l-3.3,1.1l-0.3-0.9l5.1-1.8l-1.7,6.3l3.4-1.2l0.3,0.9L326.3,259.2z"/>
		</g>
		<g>
			<path class="st0" d="M333.4,252.1l2.9-10.7l-5.5,1.9l-0.5-1.5l8.6-3l-2.9,10.7l5.8-2l0.5,1.5L333.4,252.1z"/>
		</g>
		<g>
			<path class="st0" d="M346.4,249.7l3.6-13.6l-7,2.4l-0.7-1.9l10.9-3.7l-3.6,13.6l7.4-2.5l0.7,1.9L346.4,249.7z"/>
		</g>
	</g>
	<circle class="st5" cx="206.6" cy="54.4" r="45.8"/>
	<g>
		<path class="st0" d="M235.8,51.3c0,14.4-14,42.3-28.4,33.1c-11.4,9.5-28.4-18.7-28.4-33.1c0-14.4,5.8-23.3,28.4-19
			C230.3,27.5,235.8,36.9,235.8,51.3z"/>
		<path class="st0" d="M207.7,33.2h-1.2c0,0,2.4-6.7,1.8-11.8c-0.2-1.4,2.6-2.3,3-1.5C211.2,26.7,207.7,33.2,207.7,33.2z"/>
		<path class="st0" d="M222,22.1c0,0-1.3,4.5-4.8,6.2c-3.5,1.7-7.9,0-7.9,0s1.3-4.5,4.8-6.2C217.6,20.4,222,22.1,222,22.1z"/>
		<path class="st0" d="M208.6,28.9c0,0-3.7-0.1-5.6-2.5c-2-2.3-1.4-6-1.4-6s3.7,0.1,5.6,2.5C209.1,25.3,208.6,28.9,208.6,28.9z"/>
	</g>
	<circle class="st11" cx="88.9" cy="249.6" r="41.9"/>
	<g>
		<g>
			<path class="st0" d="M69.7,268.7c-6.8,0-12.4-5.6-12.4-12.4c0-6.8,5.6-12.4,12.4-12.4c6.8,0,12.4,5.6,12.4,12.4
				C82.1,263.1,76.5,268.7,69.7,268.7z M69.7,245.8c-5.8,0-10.4,4.7-10.4,10.4c0,5.8,4.7,10.4,10.4,10.4s10.4-4.7,10.4-10.4
				C80.1,250.5,75.4,245.8,69.7,245.8z"/>
		</g>
		<g>
			<path class="st0" d="M69.7,266.1c-5.4,0-9.8-4.4-9.8-9.8s4.4-9.8,9.8-9.8c5.4,0,9.8,4.4,9.8,9.8S75.1,266.1,69.7,266.1z
				 M69.7,247c-5.1,0-9.3,4.2-9.3,9.3c0,5.1,4.2,9.3,9.3,9.3c5.1,0,9.3-4.2,9.3-9.3C78.9,251.2,74.8,247,69.7,247z"/>
		</g>
		<g>
			<circle class="st0" cx="69.7" cy="256.3" r="2.1"/>
		</g>
		<g>
			<circle class="st0" cx="88.3" cy="257.4" r="3"/>
		</g>
		<g>
			<path class="st0" d="M110.5,267.6c-6.8,0-12.4-5.6-12.4-12.4c0-6.8,5.6-12.4,12.4-12.4c6.8,0,12.4,5.6,12.4,12.4
				C122.9,262,117.3,267.6,110.5,267.6z M110.5,244.8c-5.8,0-10.4,4.7-10.4,10.4c0,5.8,4.7,10.4,10.4,10.4c5.7,0,10.4-4.7,10.4-10.4
				C120.9,249.4,116.2,244.8,110.5,244.8z"/>
		</g>
		<g>
			<path class="st0" d="M110.5,265c-5.4,0-9.8-4.4-9.8-9.8c0-5.4,4.4-9.8,9.8-9.8c5.4,0,9.8,4.4,9.8,9.8
				C120.3,260.6,115.9,265,110.5,265z M110.5,245.9c-5.1,0-9.3,4.2-9.3,9.3s4.2,9.3,9.3,9.3c5.1,0,9.3-4.2,9.3-9.3
				S115.6,245.9,110.5,245.9z"/>
		</g>
		<g>
			<circle class="st0" cx="110.5" cy="255.2" r="2.1"/>
		</g>
		<g>
			
				<rect x="65.6" y="247.6" transform="matrix(0.6175 -0.7866 0.7866 0.6175 -165.8751 154.7899)" class="st0" width="21.2" height="0.7"/>
		</g>
		<g>
			
				<rect x="83.4" y="227.5" transform="matrix(0.9551 -0.2964 0.2964 0.9551 -68.1927 35.7261)" class="st0" width="0.7" height="30.6"/>
		</g>
		<g>
			<polygon class="st0" points="82.8,239.9 82.7,239.3 106.3,236.4 106.4,237.1 			"/>
		</g>
		<g>
			
				<rect x="84.5" y="248.4" transform="matrix(0.7152 -0.6989 0.6989 0.7152 -146.0558 139.0823)" class="st0" width="26.2" height="0.7"/>
		</g>
		<g>
			
				<rect x="107.4" y="230.5" transform="matrix(0.9756 -0.2197 0.2197 0.9756 -50.7628 29.617)" class="st0" width="0.7" height="25"/>
		</g>
		<g>
			
				<rect x="78.6" y="247.8" transform="matrix(8.807287e-02 -0.9961 0.9961 8.807287e-02 -184.087 313.1235)" class="st0" width="0.7" height="18.7"/>
		</g>
		<g>
			<path class="st0" d="M85.2,228.6c0,0-0.6,0.2-1.6,0.3c-0.5,0.1-1,0.2-1.6,0.3c-0.3,0-0.6,0.1-0.9,0.1c-0.3,0-0.6,0.1-0.9,0.1
				c-0.6,0.1-1.3,0.3-1.9,0.3c-0.3,0-0.6-0.1-0.8-0.2c-0.3-0.1-0.5-0.2-0.7-0.3c-0.2-0.1-0.4-0.3-0.6-0.4c-0.2-0.1-0.3-0.3-0.5-0.4
				c-0.1-0.1-0.2-0.2-0.3-0.3c-0.1-0.1-0.1-0.1-0.1-0.1l0-0.3c0,0,0,0,0.1-0.1c0.1-0.1,0.2-0.2,0.3-0.3c0.1-0.1,0.3-0.2,0.5-0.3
				c0.2-0.1,0.4-0.2,0.7-0.3c0.2-0.1,0.5-0.2,0.8-0.2c0.3-0.1,0.6-0.1,0.8-0.1c0.6,0,1.2,0.4,1.8,0.5c0.3,0.1,0.6,0.1,0.9,0.2
				c0.3,0.1,0.6,0.2,0.9,0.2c0.6,0.2,1.1,0.3,1.6,0.5c0.9,0.3,1.5,0.5,1.5,0.5L85.2,228.6z"/>
		</g>
		<g>
			<path class="st0" d="M93.1,253.3c0,0-0.3,0.1-0.7,0.1c-0.2,0-0.5,0.1-0.7,0.1c-0.3,0-0.6,0.1-0.9,0.1c-0.3,0-0.6,0.1-0.9,0.1
				c-0.3,0-0.5-0.1-0.7-0.2c-0.2-0.1-0.4-0.2-0.5-0.3c-0.1-0.1-0.2-0.2-0.2-0.2l0-0.1c0,0,0.1-0.1,0.2-0.2c0.1-0.1,0.3-0.2,0.5-0.3
				c0.2-0.1,0.5-0.1,0.7-0.1c0.3,0,0.6,0.2,0.8,0.2c0.3,0.1,0.6,0.1,0.8,0.2c0.3,0.1,0.5,0.1,0.7,0.2c0.4,0.1,0.7,0.2,0.7,0.2
				L93.1,253.3z"/>
		</g>
		<g>
			<path class="st0" d="M88.9,262.5c0,0-0.3,0.1-0.7,0.1c-0.2,0-0.5,0.1-0.7,0.1c-0.3,0-0.6,0.1-0.9,0.1c-0.3,0-0.6,0.1-0.9,0.1
				c-0.3,0-0.5-0.1-0.7-0.2c-0.2-0.1-0.4-0.2-0.5-0.3c-0.1-0.1-0.2-0.2-0.2-0.2l0-0.1c0,0,0.1-0.1,0.2-0.2c0.1-0.1,0.3-0.2,0.5-0.3
				c0.2-0.1,0.5-0.1,0.7-0.1c0.3,0,0.5,0.2,0.8,0.2c0.3,0.1,0.6,0.1,0.8,0.2c0.3,0.1,0.5,0.1,0.7,0.2c0.4,0.1,0.7,0.2,0.7,0.2
				L88.9,262.5z"/>
		</g>
		<g>
			<path class="st0" d="M109.2,235.7c-0.1,0-0.3-0.1-0.3-0.2c0-0.2,0.1-0.4,0.2-0.4c2.1-0.5,3.6-2,4.1-3.8c0.3-1.1,0.1-2.2-0.5-2.8
				c-0.5-0.4-1.2-0.6-2-0.3c-1,0.3-1.9,0.5-2.8,0.8c-0.7,0.2-1.4,0.4-2.1,0.6c-0.7,0.2-0.7,0.7-0.5,1.5l0,0.2c0,0.2-0.1,0.4-0.2,0.4
				c-0.2,0-0.4-0.1-0.4-0.2l0-0.2c-0.2-0.7-0.5-1.9,0.9-2.3c0.7-0.2,1.4-0.4,2.1-0.6c0.9-0.2,1.8-0.5,2.7-0.8c1.1-0.3,2-0.2,2.6,0.5
				c0.8,0.7,1,2,0.7,3.4C113.3,233.4,111.6,235.1,109.2,235.7C109.2,235.7,109.2,235.7,109.2,235.7z"/>
		</g>
		<g>
			<path class="st0" d="M86.6,262.7c0,0-0.1,0-0.1,0c-0.2-0.1-0.3-0.3-0.2-0.4l3.5-9.2c0.1-0.2,0.3-0.3,0.4-0.2
				c0.2,0.1,0.3,0.3,0.2,0.4l-3.5,9.2C86.9,262.6,86.7,262.7,86.6,262.7z"/>
		</g>
	</g>
	<g>
		<path class="st0" d="M341.1,121.9h0.8l1.8-3.2l1.2,2.8l2.2-1.8l0.8,1.8l2.5-1.8l1.9,4.5l0.6-2.5h4l3.7-6.6l1.6,7.9l1.4-7l1.4,5.7
			h2.6c0.7-1.9,1.1-3.9,1.1-5.8c0-8.1-6.6-14.7-14.7-14.7c-8.1,0-13.4,9-13.4,9s0,0,0,0L341.1,121.9z"/>
		<path class="st0" d="M319.8,121.9l3.6-5.9l1.8,5.9h6.4v0.5l0.9-0.5h2.5l2.5-9.5l0.5,10.7l2.5-12.9c-1-1.6-6-8.7-13.2-8.7
			c-8.1,0-14.7,6.6-14.7,14.7c0,1.9,0.4,3.9,1.1,5.8H319.8z"/>
		<path class="st0" d="M364.2,123l-0.5-1.8l-1.5,7.4l-2.1-10.3l-2.6,4.7h-3.8l-1.2,4.7l-2.6-6.3l-2.5,1.8l-0.8-1.8l-2.2,1.8
			l-0.9-2.2l-1,1.8h-2.5l-0.2-4.7l-2.7,13.6l-0.6-12.5l-0.9,3.6h-3l-2.2,1.3V123h-6.1l-1.4-4.4l-2.7,4.4H314
			c5.9,13.6,26.6,25.8,26.6,25.8s20.7-12.1,26.6-25.8H364.2z"/>
	</g>
	<circle class="st12" cx="96.6" cy="123.2" r="38.4"/>
	<g>
		<path class="st0" d="M104,102.8c0,7.7-7.8,10-7.8,10s-7.8-2.3-7.8-10s0.8-14,7.8-14C103.2,88.9,104,95.1,104,102.8z"/>
		<path class="st0" d="M101.4,118.6H91.1c0,0,2-3.1,1.9-9.7c-0.2-6.5,7-5.6,6.4,0C98.8,114.6,101.4,118.6,101.4,118.6z"/>
		<path class="st0" d="M107.4,117.8c-0.5-2.7-6.7-2.8-7.9-4.5c-1.2-1.8-5.8-2-6.7,0c-1,2-7.1,2-7.9,4.5c-0.7,2.6,4.9,21.6,2.8,23.3
			c-2.1,1.7,19.9,4.7,17.1-0.1C102.1,136.1,107.9,120.3,107.4,117.8z"/>
		<ellipse class="st0" cx="96.3" cy="146.3" rx="11" ry="8.3"/>
		<path class="st0" d="M105.9,142.3c0,0,11,3,14.6,4.5c2.5,1.1,2.8,4.3-0.2,5.9c-2.9,1.6-19.4,1.1-19.4,1.1L105.9,142.3z"/>
		<path class="st0" d="M98.6,152.4c6.1,0.5,14.4-5.7,20.2-5.1c2.8,0.3,4.6,2,2.6,4.7c-1.8,2.4-22.6,3.1-22.6,3.1s-4.8,1.7-8.3,2.3
			c-0.7,0.1-2.2-1.2-1.3-1.7c1.8-0.9,4.4-1.7,5.3-2.6C95.4,152.2,97.6,152.3,98.6,152.4z"/>
		<g>
			<path class="st0" d="M99.8,139.7c-2.1,0.2-2.5-2.3-0.3-2.3c4.8,0,8.3-5.1,10.7-3.8c0.2-1.4-3.5-8.1-4-10
				c-0.6-1.9-2.7-7.4,0.7-6.8c2.3,0.4,5.1,7.1,6.4,12.6c0.6,2.6,0.7,5.2,0.6,6.2c0,0.4-0.6,0.5-0.9,0.8c-0.3,0.3-0.7,0.9-1.5,1.3
				C107.3,140,101.7,139.5,99.8,139.7z"/>
		</g>
		<path class="st0" d="M98.2,139.9c0,0-1.1-0.2-1.2-1.1c-0.1-1-0.2-3,0-3.3c0.2-0.3,0.2-0.5,0.2-0.5s-0.3-2.7-0.3-3.7
			c0-1.1,0.9-0.7,0.9,0c0,0.7,0.7,3.3,0.7,3.3s0.6,1.9,1.5,2.2c0.9,0.3,1.7,0.5,1.7,0.5l0.4,2.2L98.2,139.9z"/>
		<path class="st0" d="M97.4,134.8l1.8,1.2c-0.2-0.4-0.4-1.9-0.4-1.9s-0.7-2.6-0.7-3.3c0-0.7-0.9-1.1-0.9,0c0,1.1,0.3,3.7,0.3,3.7
			S97.4,134.7,97.4,134.8z"/>
		<path class="st0" d="M98.8,135.3c0,0-1.3-0.9-1.4-1.1c-0.1-0.3-0.4-0.6-0.7-1.1c-0.3-0.4-0.8,0.1-0.5,0.7c0.2,0.6,0.9,2.1,0.7,2.4
			"/>
		<path class="st0" d="M87.4,142.3c0,0-11,3-14.7,4.5c-2.5,1.1-2.8,4.3,0.2,5.9c2.9,1.6,19.4,1.1,19.4,1.1L87.4,142.3z"/>
		<path class="st0" d="M94.7,152.4c-6.1,0.5-14.4-5.7-20.2-5.1c-2.8,0.3-4.6,2-2.6,4.7c1.8,2.4,22.6,3.1,22.6,3.1s4.8,1.7,8.3,2.3
			c0.7,0.1,2.2-1.2,1.3-1.7c-1.8-0.9-4.4-1.7-5.3-2.6C97.8,152.2,95.7,152.3,94.7,152.4z"/>
		<g>
			<path class="st0" d="M93.5,139.7c2.1,0.2,2.5-2.3,0.3-2.3c-4.8,0-8.3-5.1-10.7-3.8c-0.2-1.4,3.5-8.1,4-10
				c0.6-1.9,2.7-7.4-0.7-6.8c-2.3,0.4-5.1,7.1-6.4,12.6c-0.6,2.6-0.7,5.2-0.6,6.2c0,0.4,0.6,0.5,0.9,0.8c0.3,0.3,0.7,0.9,1.5,1.3
				C86,140,91.6,139.5,93.5,139.7z"/>
		</g>
		<path class="st0" d="M95.1,139.9c0,0,1.1-0.2,1.2-1.1c0.1-1,0.2-3,0-3.3c-0.2-0.3-0.2-0.5-0.2-0.5s0.3-2.7,0.3-3.7
			c0-1.1-0.9-0.7-0.9,0c0,0.7-0.7,3.3-0.7,3.3s-0.6,1.9-1.5,2.2c-0.9,0.3-1.7,0.5-1.7,0.5l-0.4,2.2L95.1,139.9z"/>
		<path class="st0" d="M95.9,134.8l-1.8,1.2c0.2-0.4,0.4-1.9,0.4-1.9s0.7-2.6,0.7-3.3c0-0.7,0.9-1.1,0.9,0c0,1.1-0.3,3.7-0.3,3.7
			S95.9,134.7,95.9,134.8z"/>
		<path class="st0" d="M94.5,135.3c0,0,1.3-0.9,1.4-1.1c0.1-0.3,0.4-0.6,0.7-1.1c0.3-0.4,0.8,0.1,0.5,0.7c-0.2,0.6-0.9,2.1-0.7,2.4"
			/>
	</g>
</g>
</svg>
