<?xml version="1.0" encoding="utf-8"?>
<!-- Generator: Adobe Illustrator 22.0.1, SVG Export Plug-In . SVG Version: 6.00 Build 0)  -->
<svg version="1.1" id="Layer_1" xmlns="http://www.w3.org/2000/svg" xmlns:xlink="http://www.w3.org/1999/xlink" x="0px" y="0px"
	 viewBox="0 0 3000 2000" style="enable-background:new 0 0 3000 2000;" xml:space="preserve">
<style type="text/css">
	.st0{opacity:0.37;fill:url(#SVGID_1_);}
	.st1{fill:#F7B7D2;}
	.st2{fill:#18898D;}
	.st3{fill:#B3D9C2;}
	.st4{fill:#0B3C5C;}
	.st5{fill:#17C5CC;}
	.st6{fill:#FFFFFF;}
	.st7{fill-rule:evenodd;clip-rule:evenodd;fill:#FFBB9B;}
	.st8{fill-rule:evenodd;clip-rule:evenodd;fill:#803A3A;}
	.st9{fill-rule:evenodd;clip-rule:evenodd;fill:#E23945;}
	.st10{fill-rule:evenodd;clip-rule:evenodd;fill:#67C0EC;}
	.st11{fill:#C6EEFA;}
	.st12{fill:#09BBFB;}
	.st13{fill:#9FD8EC;}
	.st14{fill:#77D6F4;}
	.st15{fill:#00ACE9;}
	.st16{fill:#5AC4EC;}
	.st17{fill:#FEF4EA;}
	.st18{fill:#FFBB9B;}
	.st19{fill:#FCB671;}
	.st20{fill:#DB1D77;}
	.st21{fill:none;stroke:#FFFFFF;stroke-width:4.1928;stroke-linecap:round;stroke-linejoin:round;stroke-miterlimit:10;}
	.st22{fill:#E23945;}
	.st23{fill:#00AEE0;}
	.st24{fill:#D2D5E8;}
	.st25{fill-rule:evenodd;clip-rule:evenodd;fill:#FFFFFF;}
</style>
<g>
	<linearGradient id="SVGID_1_" gradientUnits="userSpaceOnUse" x1="1201.8127" y1="351.0865" x2="2200.5989" y2="2716.627">
		<stop  offset="0" style="stop-color:#FCA29B"/>
		<stop  offset="1" style="stop-color:#F70143"/>
	</linearGradient>
	<path class="st0" d="M1032,1617.6c-62.7-1.1-134.7-6.8-171.8-57.3c-45.8-62.4-16.7-150.1-53.6-217.3
		c-32.3-59-96.5-103.5-105.5-173.9c-5.3-41.4,11.8-82.5,32.8-118.6c21-36.1,46.6-70,61.1-109.2c35.2-94.9,0-200.6,7.3-301.6
		c2.1-29.2,8.2-58.9,24.1-83.5c21.2-32.7,57.3-52.5,93.7-66.5c71.6-27.4,148.8-36.8,225.4-39.2c59-1.8,121.2-0.7,174.5-29.9
		c58-31.7,110.3-65.2,174.7-84.1c130.9-38.5,270.3-26.8,398.6,16.1c83.6,27.9,167.2,69.4,218.5,141c53.1,74.1,58.6,182.1-7.3,250.7
		c-24.7,25.7-57.6,45-72.8,77.3c-18,38.2-5.2,84.9,19.6,119.2c24.7,34.2,59.8,59.3,92.2,86.4c72.3,60.5,101.8,126.3,113.8,218.3
		c9.4,71.9,12.6,148-17.9,213.7c-42.5,91.6-142.5,144.2-241.8,162.3c-111.8,20.4-228.9,11-341.9,7c-133.1-4.7-266.6-4.9-399.8-7.2
		C1181.3,1620.2,1106.7,1618.9,1032,1617.6z"/>
	<path class="st1" d="M2153.1,976.5c-21.4,1.6-38.5-8.8-53.7-26.9c-19.6-23.2-32-53.7-33.7-84c-0.8-15.6,1.4-31.5,7.5-45.9
		c10.4-24.5,32.3-39.2,56.8-23.1c25.2,16.5,39.1,49.2,42.8,78c2,15.5,3.8,31.1,5.7,46.7c0.9,7.8,1.8,15.6,2.7,23.4
		c0.7,6.1,2.9,12.8,0.3,18.6c-2.5,5.5-8.3,8.9-14.2,10.6C2162.4,975.2,2157.6,976.1,2153.1,976.5z"/>
	<path class="st2" d="M2245.4,1425.5c-60.5,74.5-152.3,108.5-241.1,98.6c-28-84.9-13.4-181.8,47.1-256.2
		c60.5-74.5,152.4-108.6,241.2-98.6C2320.4,1254.1,2305.9,1351,2245.4,1425.5z"/>
	<path class="st3" d="M2189.1,1601.1c-72.4,7.5-139.8-23.5-182.1-76.4c30.5-60.5,90.2-104.6,162.6-112.1
		c72.4-7.5,139.9,23.5,182.2,76.4C2321.2,1549.4,2261.5,1593.6,2189.1,1601.1z"/>
	<path class="st4" d="M2089.6,1327.1c7.5,72.4-23.5,139.8-76.4,182.1c-60.5-30.5-104.6-90.2-112.1-162.6
		c-7.5-72.4,23.5-139.9,76.4-182.2C2037.9,1195,2082.1,1254.7,2089.6,1327.1z"/>
	<polygon class="st2" points="2351.9,1490.6 2351.5,1487.3 2171.2,1507.1 2240.5,1418.2 2237.8,1416.2 2166.6,1507.6 2084.9,1516.6 
		2132.4,1421 2129.5,1419.6 2081,1517 2016.4,1524.1 2016.8,1527.4 2127.8,1515.2 2224.2,1595.3 2226.3,1592.8 2132.4,1514.7 
		2209,1506.3 2282.7,1567.8 2284.8,1565.2 2213.6,1505.8 	"/>
	<path class="st3" d="M2306.4,1252.2l-0.2-1.6l0,0h0l1.7-0.1l-0.8-1.3c-0.9-0.6-1.5-0.9-109.6,40.1l96.3-119l-2.6-2.1l-145.2,179.4
		l4.9-145.6l-3.3-0.1l-5.1,150l-116.2,143.6l2.6,2.1l75.6-93.5l179.4-32.2l-0.6-3.3l-175.7,31.5l85.6-105.7
		C2237.2,1277.8,2303.2,1252.9,2306.4,1252.2z"/>
	<g>
		<path class="st5" d="M1493.3,591.4h-335.1c-33.6,0-60.9,27.2-60.9,60.9v885.3c0,33.6,27.3,60.9,60.9,60.9h335.1h345.8
			c33.6,0,60.9-27.3,60.9-60.9V652.3c0-33.6-27.3-60.9-60.9-60.9H1493.3z"/>
	</g>
	<path class="st5" d="M1603.8,540.5h-57c0-26.6-21.6-48.2-48.1-48.2c-1.9,0-3.7,0.3-5.5,0.5c-24,2.7-42.7,22.9-42.7,47.6h-57.1
		c-23,0-41.6,18.6-41.6,41.6v9.3h141.3h152.3v-9.3C1645.4,559.1,1626.8,540.5,1603.8,540.5z M1498.6,564.4c-1.9,0-3.7-0.3-5.5-0.7
		c-10.5-2.5-18.4-11.9-18.4-23.2c0-11.3,7.9-20.7,18.4-23.2c1.8-0.4,3.6-0.7,5.5-0.7c13.2,0,23.9,10.7,23.9,23.9
		C1522.5,553.7,1511.8,564.4,1498.6,564.4z"/>
	<g>
		<polygon class="st6" points="1493.7,635.6 1144,635.6 1144,1556.5 1493.7,1556.5 1853.2,1556.5 1853.2,635.6 		"/>
	</g>
	<path class="st7" d="M1001.3,663.9c0,7.7-4.7,15.5-8,22c-1.4,2.7-5.1,4.7-6.1,6.7c-1.4,2.8-8.1,5.8-5.8,10.4
		c1.6,3.2,6.5,2.4,9.8,2.4c0.3,0,3.9-0.2,4,0c0.5,1-1.2,5.1-1.5,6.1c-1.6,4.7-2.4,17.8,1.5,21.7c1.7,1.7,7.8,1.9,10.4,0.6
		c0.8-0.4,3.1,0.6,3.7,0c0.1-0.1,3.6-1,4-0.6c2.7,2.7,0.4,10.2,3.1,12.9c1.5,1.5,8.4-1.2,10.4-1.2c8.5,0,19.6-2.8,27.5-5.5
		c2.8-0.9,8.2,0.7,10.1-1.2c0.5-0.5-0.2-2.7,0-3.4c0.9-2.8,0.5-5.7,1.8-8.3c2.4-4.8,3.3-11,5.5-15.3c0.4-0.8,2.2-4.2,1.8-4.9
		c-0.6-1.2-4.1-0.7-5.2-1.2c-4.6-2.3-17.7-2.3-20.2-7.3c-4.5-9-6.5-18.4-11-27.5c-1.6-3.2-6.7-4.2-9.8-5.2c-7.3-2.4-18.1,0-25.4,0"
		/>
	<path class="st8" d="M1070.2,715c0-4.5,4.2-8.5,6-11.9c7.2-13.8,26.6-27.7,16.8-46.5c-3.2-6.1-10.4-3.3-14-6.7
		c-1.4-1.3-1.2-4.7-1.9-6.7c-1.6-4.5-5.1-6.5-9.5-8c-9.1-2.9-19,4-27.9,1.8c-3.6-0.9-6.7-2.9-10.2-4c-6-1.9-13.1-1.2-19.4-2.8
		c-3.1-0.8-8.3-1.5-11.1,0.3c-10,6.4-9.5,22.1-4.8,31.2c2.5,4.9,8.6,7.2,10.5,12.6c3.4,9.8,10,20.2,18.4,26.6
		c5.3,4.1,11.7,7.8,17.8,9.8c8.9,2.9,18.9,0.3,26.6-1.5c1.8-0.4,8.2-1.1,8.2-2.8"/>
	<path class="st9" d="M1021.6,745c-14.9,0-28.2,10.2-38.6,20.7c-2.4,2.4-6.3,6.3-7.4,9.7c-3,9.1-2.7,18.8-5.1,28.1
		c-3.2,12.8,5.5,25.9,2.3,38.6c-5.3,21.2-35.5,32.1-29.2,57.3c8.8,35.2,48.6,39,79.9,39c12.7,0,25.7,0.3,37-3.5
		c9.9-3.3,22.3-0.4,31.6-5.1c7.7-3.9,2.2-11.4,0.8-18.7c-1.5-7.5-0.3-18.8,1.2-26.1c3.4-16.8,2-35.1,3.9-52.2
		c0.8-7.4,3.2-14.5,4.3-21.8c1.5-10.4-0.3-22.7-2.3-32.8c-2.6-12.8-3.1-30.2-15.2-38.2c-16.4-10.9-35.6-2.4-52.2,3.1
		c-3.3,1.1-9,2.3-11.3,4.7c-0.6,0.6-4.7,0.6-4.7,1.2"/>
	<path class="st10" d="M964.5,921.2c0,0.1-8.4-1.4-10-1.3c-6.6,0.5-13-1-19.5-0.7c-6.7,0.2-13.5-2.9-20.3-2.6
		c-18,0.6-48.1-0.8-55.2,20.1c-8.3,24.5-6.3,49.3,3.5,72.8c9.5,22.7,29.4,41,42.1,62c8,13.2,12.5,29.3,17,43.8
		c1.5,4.8,2.8,9.8,3.9,14.7c0.4,1.8,1.3,3.4,1.6,5.2c0,0.1,0,3,0.3,2.5c8-11.1,15.7-23.1,24.8-33.8c3.3-3.9,10.5-10.6,11.3-15.7
		c0.5-3-5.3-10.7-6.5-13.7c-1.9-4.9-3.7-10.4-4.8-15.5c-0.8-3.6-4-6.5-5-9.9c-3.2-10.4-6.9-25.1,1.8-34.4c13.5-14.5,29.2-13.3,47-13
		c16,0.3,31.8,3.8,47.7,6.4c13.1,2.1,28.4,10.2,39.3-0.2c21.4-20.5,23.6-60.3,6.7-83.8c-7.8-10.9-27.3-12.9-39.3-14.9
		c-5.7-0.9-11.2-2.2-17-1.4c-16.7,2.3-36.6,1.6-52.5,7.9c-8.6,3.4-20.1,7.6-29.4,6"/>
	<path class="st10" d="M883.3,1007.8c-0.2,1.1,2.8,2.6,3.6,3.7c2.5,3.4,4.8,6.8,7.4,10.3c6.7,9.3,17.1,18.8,22.7,26.5
		c1.8,2.6,4.5,4.1,5.5,7.2c0.3,0.9-2.1,3.7-2.5,4.5c-1.9,3.6-3.5,7.1-5.6,10.7c-6,9.9-9,21.6-14.3,31.7c-2.7,5.1-4.1,12-6.6,16.8
		c-2.4,4.5,0.2,9.7-4.6,11.2c-8.1,2.5-20.5-4.4-28.9-5.8c-3.1-0.5-8.1-0.7-9.7-3c-0.8-1.1,0.5-4.2,1.2-5.1c3-4.2,3.9-11,6.4-15.8
		c5.8-10.9,5.3-26.2,5.6-38.4c0.2-10.2,2.7-20.2,2.9-30.4c0.1-7.2,3-14.2,5.1-20.6c0.3-0.7,1.8-6.4,2.5-7c0.2-0.2,6.2,3.1,7.5,3.3"
		/>
	<path class="st8" d="M860.8,1118c-0.2,0,0.2,1.5,0.3,2.5c0.2,1.9-0.7,4.3-1,6.1c-0.8,4.8-4,6-7.9,7.8c-14,6.4-30.7,9.7-44,13.8
		c-5.5,1.7-5,17.8-2.4,21.3c1.5,2.1,6.5,2.1,9.1,2.5c8.1,1.3,16.5,3.7,24.5,0.5c12.4-4.9,33.9-0.6,42.4-12.3c3.6-5,5.5-20,4.6-25.9
		c-0.4-2.4,1.5-7.1,0.1-9.1c-4.9-6.8-17.6-8.1-24.4-3.3"/>
	<g>
		<path class="st11" d="M2057.7,1407.6v73.3c-32.8,5.1-65.6,8.7-98.3,10.5v137H1804c-28.7,0-52-23.2-52-52v-167.2
			c66.7,9.6,135.9,11.9,207.3,7.8C1991.7,1415.2,2024.5,1412,2057.7,1407.6z"/>
		<path class="st12" d="M1959.3,1027.4v116.9h-166.6v-80.2c0-20.3,16.4-36.7,36.7-36.7H1959.3z"/>
		<path class="st13" d="M1959.3,1144.3v29.8H1804c-3.9,0-7.6,0.4-11.2,1.2c-4.5,1-8.8,2.6-12.8,4.7v-35.8H1959.3z"/>
		<path class="st11" d="M1959.3,1417v-242.9H1804c-3.9,0-7.6,0.4-11.2,1.2c-4.5,1-8.8,2.6-12.8,4.7c-16.6,8.6-27.9,26-27.9,46v183.2
			v72.2c69.1,10.6,138.2,14,207.3,10c32.8-1.8,65.6-5.4,98.3-10.5v-73.3C2024.5,1412,1991.7,1415.2,1959.3,1417z"/>
		<path class="st14" d="M2057.7,1480.9v95.5c0,28.7-23.3,52-52,52h-46.4v-137C1992.1,1489.6,2024.9,1486.1,2057.7,1480.9z"/>
		<path class="st15" d="M2014.9,1064.1v80.2h-55.6v-116.9h18.9C1998.4,1027.4,2014.9,1043.8,2014.9,1064.1z"/>
		<path class="st16" d="M2028.2,1144.3v35c-4.2-2-8.6-3.5-13.3-4.3c-3-0.5-6.1-0.9-9.2-0.9h-46.4v-29.8H2028.2z"/>
		<path class="st14" d="M2028.2,1179.2c-4.2-2-8.6-3.5-13.3-4.3c-3-0.5-6.1-0.9-9.2-0.9h-46.4V1417v74.4
			c32.8-1.8,65.6-5.4,98.3-10.5v-73.3V1226C2057.7,1205.4,2045.6,1187.6,2028.2,1179.2z"/>
		<path class="st17" d="M1919.8,1411.4h-13.5c-0.8,0-1.4-0.6-1.4-1.4v-128.3c0-0.8,0.6-1.4,1.4-1.4h13.5c0.8,0,1.4,0.6,1.4,1.4V1410
			C1921.1,1410.8,1920.5,1411.4,1919.8,1411.4z"/>
	</g>
	<polygon class="st18" points="893.5,785 889.8,769.1 907.7,763.4 914.1,785 	"/>
	<path class="st19" d="M925.3,747.5c-3.3,13.7-15.6,23.8-30.3,23.8c-17.2,0-31.2-13.9-31.2-31.2c0-17.2,13.9-31.2,31.2-31.2
		c4.4,0,8.6,0.9,12.4,2.6c-1,3.8-2,10.9,4.2,12.5c5.4,1.4,6.3,5.5,5.7,8.8c-0.4,1.9-1.2,3.6-2,4.4c-1.3,1.2,0.4,5.6,4.8,8.3
		C921.4,746.5,923.2,747.2,925.3,747.5z"/>
	<path class="st20" d="M914.1,742.9c-0.3,0.4-0.6,0.8-0.9,1.3c-5.2,6.7-12.2,19.3-17,13.9c-4.9-5.4-13.5,3.6-16.2-0.9
		c-2.7-4.4-0.8-6.9-1.3-13.3c-0.5-6.4-8.6-4.3-7.3-10.4c1.3-6.2,8.4-2,9.2-4.6c1.3-4.3-1.9-8.5,4.6-9.5c6.4-1,12.5,3.2,12.7,6.4
		c0.2,3.3,12-0.8,12.8,3.9c0.2,1,0.6,1.9,1.1,2.7c-0.3,1.6-1,3-1.7,3.6C909,737,910.4,740.6,914.1,742.9z"/>
	
		<ellipse transform="matrix(0.9249 -0.3802 0.3802 0.9249 -214.2018 395.8752)" class="st6" cx="895" cy="740.1" rx="10.6" ry="10.6"/>
	<path class="st21" d="M869.6,740.1c0,0-4.6,8.7,6.5,16.5"/>
	<path class="st9" d="M977,773c-0.9,1.8-4.2,4-5.8,5.8c-1.7,1.9-2.5,4.6-4,6.7c-6.3,8.8-13.3,16.7-16.8,27.5
		c-1.4,4.4-3.8,15.8-8.8,17.4c-1,0.3-3.3-1.4-3.9-2c-3.3-3.4-4-8.9-6.2-12.9c-1.5-2.8-1.8-7.5-2.3-10.8c-2-12.3-9.4-40.4-26.7-31
		c-1.6,0.9-3.9,1.5-5.3,2.7c-2.3,2.2-8.2,6-8.8,9.4c-0.4,2.2,2.1,7.8,2.6,10.2c0.6,2.6-0.3,5.3,0,8c0.7,6.8,2.4,13.6,3.1,20.3
		c1.6,15,0.7,30.3,8.1,43.9c4.4,8,7.6,15.4,13.7,21.7c0.6,0.7,2.7,2.6,3.9,2.6c8.1,0.1,15.9-1.9,23.5-6.1c2.3-1.2,5.1-1.7,7.4-3
		c18.8-11.5,33.8-27.1,39.7-49.1c1.8-6.9,3.4-13.9,2.4-21c-0.5-3.7,0.3-7.5-0.5-11.2c-1.9-9.6-6.2-23.6-15.2-28.3"/>
	<g>
		<path d="M1794.2,1368.6h10.5v67h-10.5V1368.6z"/>
		<path d="M1821.8,1387.1v48.5h-9.5v-67h13.2l10.8,40.1v-40.1h9.4v67h-10.8L1821.8,1387.1z"/>
		<path d="M1867.5,1367.9c10.2,0,15.5,6.1,15.5,16.9v2.1h-10v-2.8c0-4.8-1.9-6.6-5.3-6.6c-3.4,0-5.3,1.8-5.3,6.6
			c0,13.8,20.6,16.4,20.6,35.5c0,10.7-5.4,16.9-15.7,16.9c-10.3,0-15.7-6.1-15.7-16.9v-4.1h10v4.8c0,4.8,2.1,6.5,5.5,6.5
			c3.4,0,5.5-1.7,5.5-6.5c0-13.8-20.6-16.4-20.6-35.5C1852,1374,1857.2,1367.9,1867.5,1367.9z"/>
		<path d="M1899.2,1368.6v51.7c0,4.8,2.1,6.5,5.5,6.5c3.4,0,5.5-1.7,5.5-6.5v-51.7h10v51c0,10.7-5.4,16.9-15.7,16.9
			c-10.3,0-15.7-6.1-15.7-16.9v-51H1899.2z"/>
		<path d="M1927.2,1368.6h10.5v57.5h17.3v9.6h-27.9V1368.6z"/>
		<path d="M1959.7,1368.6h10.5v67h-10.5V1368.6z"/>
		<path d="M1987.2,1387.1v48.5h-9.5v-67h13.2l10.8,40.1v-40.1h9.4v67h-10.8L1987.2,1387.1z"/>
	</g>
	<g>
		<path class="st22" d="M1272.6,695h27.1c17.1,0,25.5,9.5,25.5,26.9V777c0,17.4-8.4,26.9-25.5,26.9h-27.1V695z M1289.7,710.6v77.8
			h9.6c5.4,0,8.7-2.8,8.7-10.6v-56.6c0-7.8-3.3-10.6-8.7-10.6H1289.7z"/>
		<path class="st22" d="M1336.1,695h17.1V804h-17.1V695z"/>
		<path class="st22" d="M1421,804h-17.3l-3-19.8h-21l-3,19.8h-15.7l17.4-108.9h25L1421,804z M1382,769.4h16.5l-8.2-55.1L1382,769.4z
			"/>
		<path class="st22" d="M1480.2,720.1v3.9c0,11.2-3.4,18.4-11,21.9c9.2,3.6,12.8,11.8,12.8,23.3v8.9c0,16.8-8.9,25.8-26,25.8H1429
			V695h25.8C1472.5,695,1480.2,703.3,1480.2,720.1z M1446.1,710.6v28.8h6.7c6.4,0,10.3-2.8,10.3-11.5v-6.1c0-7.8-2.6-11.2-8.7-11.2
			H1446.1z M1446.1,754.9v33.4h9.8c5.8,0,8.9-2.6,8.9-10.7v-9.5c0-10.1-3.3-13.2-11-13.2H1446.1z"/>
		<path class="st22" d="M1509.3,740.9h23.5v15.6h-23.5v31.9h29.6V804h-46.7V695h46.7v15.6h-29.6V740.9z"/>
		<path class="st22" d="M1544.4,695h52.9v15.6h-17.9V804h-17.1v-93.4h-17.9V695z"/>
		<path class="st22" d="M1621.9,740.9h23.5v15.6h-23.5v31.9h29.6V804h-46.7V695h46.7v15.6h-29.6V740.9z"/>
		<path class="st22" d="M1685.1,693.8c16.7,0,25.2,10,25.2,27.4v3.4h-16.2v-4.5c0-7.8-3.1-10.7-8.6-10.7c-5.4,0-8.6,3-8.6,10.7
			c0,22.4,33.5,26.6,33.5,57.7c0,17.4-8.7,27.4-25.5,27.4c-16.8,0-25.5-10-25.5-27.4v-6.7h16.2v7.8c0,7.8,3.4,10.6,8.9,10.6
			c5.4,0,8.9-2.8,8.9-10.6c0-22.4-33.5-26.6-33.5-57.7C1659.9,703.8,1668.5,693.8,1685.1,693.8z"/>
	</g>
	<polygon class="st23" points="1015.8,1446 979.6,1552.4 952.5,1552.4 984.8,1447.9 	"/>
	<polygon class="st23" points="984.8,1447.9 952.5,1552.4 930.2,1552.4 964.2,1449.1 	"/>
	<path class="st24" d="M1257.8,1119.7l-81.1,246.4c-29.4,85.2-122.4,130.4-207.6,101c-9.3-3.2-18.1-7.2-26.3-11.8
		c-67.9-37.8-101-119.9-74.7-195.8l81.1-246.4c5.9-16.9,24.3-25.9,41.2-20l111.8,38.6l135.7,46.8
		C1254.7,1084.4,1263.7,1102.8,1257.8,1119.7z"/>
	<rect x="1205.6" y="892.4" class="st24" width="514.3" height="15"/>
	<rect x="1205.6" y="941.9" class="st24" width="514.3" height="15"/>
	<rect x="1205.6" y="991.3" class="st24" width="514.3" height="15"/>
	<rect x="1205.6" y="1040.7" class="st24" width="514.3" height="15"/>
	<rect x="1266.3" y="1155.1" class="st24" width="453.6" height="15"/>
	<rect x="1266.3" y="1204.5" class="st24" width="453.6" height="15"/>
	<rect x="1266.3" y="1253.9" class="st24" width="453.6" height="15"/>
	<rect x="1266.3" y="1303.3" class="st24" width="453.6" height="15"/>
	<path class="st6" d="M942.8,1455.3c-67.9-37.8-101-119.9-74.7-195.8l81.1-246.4c5.9-16.9,24.3-25.9,41.2-20l111.8,38.6
		C1043.7,1125,933.7,1320.6,942.8,1455.3z"/>
	<path class="st23" d="M991.6,1434.6L991.6,1434.6c-65-20.1-101.4-89.1-81.3-154.1l69.7-235.2c2.8-9.1,12.5-14.2,21.6-11.4
		l202.3,62.6c9.1,2.8,14.2,12.5,11.4,21.6l-69.7,235.2C1125.6,1418.3,1056.6,1454.7,991.6,1434.6z"/>
	<path class="st6" d="M1126.2,1290.2l-169.6-52.4c-2.6-0.8-4-3.5-3.2-6.1l45.2-146.3c0.8-2.6,3.5-4,6.1-3.2l169.6,52.4
		c2.6,0.8,4,3.5,3.2,6.1l-45.2,146.3C1131.5,1289.5,1128.7,1291,1126.2,1290.2z"/>
	<path class="st6" d="M988.2,1379l-55.2-17.1c-4.5-1.4-7-6.1-5.6-10.6l12.4-40l63.3,19.6L988.2,1379z"/>
	<polygon class="st4" points="984.4,1334.5 975,1364 949.9,1337.1 	"/>
	<path class="st6" d="M1019.5,1388.5l55.4,16.4c4.5,1.3,9.2-1.2,10.5-5.7l11.9-40.2l-63.5-18.8L1019.5,1388.5z"/>
	<polygon class="st4" points="1047.3,1353.6 1038.8,1383.3 1074.6,1374.9 	"/>
	<g>
		<g>
			<path class="st4" d="M1040.5,1205.1c-4.7,15.8-14.5,22.3-29.8,17.7c-14.5-4.3-19.5-15.1-15-30.1l0.7-2.4l14,4.1l-1,3.4
				c-2,6.7,0.2,10.1,4.9,11.5c5.2,1.6,8.9-0.1,11.6-9.1l5.1-17.2c-4.1,4.6-9.6,6.2-16.2,4.3c-10.9-3.2-14.1-12.5-10-26.3l5.1-17.2
				c4.5-15,14.9-21.3,29.4-17c14.5,4.3,19.9,15.2,15.4,30.3L1040.5,1205.1z M1035.3,1168.7l5-16.9c2-6.7-0.2-10-4.9-11.4
				c-4.7-1.4-8.4,0.1-10.4,6.9l-5,16.9c-2,6.7,0.2,10.1,4.9,11.5C1029.6,1177,1033.3,1175.4,1035.3,1168.7z"/>
			<path class="st4" d="M1061.8,1221.4l-4.2,14.2l-14.2-4.2l4.2-14.2L1061.8,1221.4z"/>
			<path class="st4" d="M1090.6,1212.4l-2.6,8.7c-2,6.7,0.2,10,4.9,11.4c4.7,1.4,8.4-0.1,10.4-6.9l6.1-20.7c2-6.7-0.2-10.1-4.9-11.5
				c-4.7-1.4-8.4,0.3-10.4,7l-0.8,2.8l-14-4.1l18.9-53.7l38.9,11.6l-4,13.4l-25.6-7.6l-7.9,22.1c4-3.6,9-4.8,14.9-3
				c10.9,3.2,14.1,12.5,10,26.3l-6.2,20.9c-4.5,15-14.5,21.4-29,17.1c-14.5-4.3-19.5-15.1-15-30.1l2.3-7.8L1090.6,1212.4z"/>
		</g>
	</g>
	<g>
		<path class="st24" d="M1283,1584.3c0,56.6-45.8,102.4-102.4,102.4c-32.4,0-61.2-15.1-79.9-38.6H702.4c-30,0-54.3-24.3-54.3-54.3
			v-7c0-0.8,0-1.7,0.1-2.5c1.3-28.8,25.1-51.8,54.3-51.8h389.9c17.8-30.3,50.6-50.6,88.2-50.6
			C1237.2,1481.9,1283,1527.8,1283,1584.3z"/>
		<path class="st25" d="M1283,1584.3c0,56.6-45.8,102.4-102.4,102.4c-32.4,0-61.2-15.1-79.9-38.6H702.4c-30,0-54.3-24.3-54.3-54.3
			v-7c0-0.8,0-1.7,0.1-2.5H1283z"/>
		<path class="st22" d="M1180.6,1548.4c-17.5,0-32.1,12.5-35.2,29.1h-444c-5.4,0-9.8,4.4-9.8,9.8v1.3c0,5.4,4.4,9.8,9.8,9.8h446.2
			c5.5,12.9,18.2,21.9,33.1,21.9c19.8,0,35.9-16.1,35.9-35.9C1216.5,1564.5,1200.4,1548.4,1180.6,1548.4z"/>
	</g>
</g>
</svg>
