<?xml version="1.0" encoding="utf-8"?>
<!-- Generator: Adobe Illustrator 22.0.1, SVG Export Plug-In . SVG Version: 6.00 Build 0)  -->
<svg version="1.1" id="Layer_1" xmlns="http://www.w3.org/2000/svg" xmlns:xlink="http://www.w3.org/1999/xlink" x="0px" y="0px"
	 viewBox="0 0 760 800" style="enable-background:new 0 0 760 800;" xml:space="preserve">
<style type="text/css">
	.st0{fill:url(#SVGID_1_);}
	.st1{fill:url(#SVGID_2_);}
	.st2{fill:url(#SVGID_3_);}
	.st3{fill:url(#SVGID_4_);}
	.st4{fill:url(#SVGID_5_);}
	.st5{fill:url(#SVGID_6_);}
	.st6{fill:url(#SVGID_7_);}
	.st7{fill:url(#SVGID_8_);}
	.st8{fill:url(#SVGID_9_);}
	.st9{fill:url(#SVGID_10_);}
	.st10{fill:url(#SVGID_11_);}
	.st11{fill:none;}
	.st12{fill:url(#SVGID_12_);}
	.st13{fill:url(#SVGID_13_);}
	.st14{fill:url(#SVGID_14_);}
	.st15{fill:url(#SVGID_15_);}
	.st16{fill:url(#SVGID_16_);}
	.st17{fill:url(#SVGID_17_);}
	.st18{fill:url(#SVGID_18_);}
	.st19{fill:url(#SVGID_19_);}
	.st20{fill:url(#SVGID_20_);}
	.st21{fill:url(#SVGID_21_);}
	.st22{fill:url(#SVGID_22_);}
	.st23{fill:url(#SVGID_23_);}
	.st24{fill:url(#SVGID_24_);}
	.st25{fill:url(#SVGID_25_);}
	.st26{fill:url(#SVGID_26_);}
	.st27{fill:url(#SVGID_27_);}
	.st28{fill:#292637;}
	.st29{fill:url(#SVGID_28_);}
	.st30{fill:url(#SVGID_29_);}
	.st31{fill:url(#SVGID_30_);}
	.st32{fill:#FFFFFF;}
	.st33{fill:url(#SVGID_31_);}
	.st34{fill:url(#SVGID_32_);}
</style>
<g>
	<linearGradient id="SVGID_1_" gradientUnits="userSpaceOnUse" x1="402.942" y1="748.9999" x2="357.058" y2="51.0001">
		<stop  offset="0" style="stop-color:#49C0B8"/>
		<stop  offset="0.9964" style="stop-color:#179A91"/>
	</linearGradient>
	<path class="st0" d="M729,377C716.3,184.3,549.8,38.3,357,51C164.3,63.7,18.3,230.2,31,423c12.6,192.8,179.2,338.7,372,326
		C595.7,736.4,741.7,569.8,729,377z"/>
	<g>
		<linearGradient id="SVGID_2_" gradientUnits="userSpaceOnUse" x1="379.9856" y1="788.662" x2="379.9856" y2="496.305">
			<stop  offset="0" style="stop-color:#49C0B8"/>
			<stop  offset="0.9964" style="stop-color:#179A91"/>
		</linearGradient>
		<path class="st1" d="M71.7,565.1C134.5,682.3,261.6,758.3,403,749c125-8.2,230.2-81.1,285.3-183.9H71.7z"/>
	</g>
	<g>
		<g>
			<g>
				<g>
					<linearGradient id="SVGID_3_" gradientUnits="userSpaceOnUse" x1="252.9911" y1="758.8572" x2="207.1072" y2="60.8569">
						<stop  offset="0" style="stop-color:#49C0B8"/>
						<stop  offset="0.9964" style="stop-color:#179A91"/>
					</linearGradient>
					<path class="st2" d="M351.8,610.9H136.3c-2.8,8.7-4.2,20.8-4.5,35.5c59.2,59.5,139.3,97.5,227.3,102.7
						C362.1,686.2,361.9,633.2,351.8,610.9z"/>
					<linearGradient id="SVGID_4_" gradientUnits="userSpaceOnUse" x1="246.3573" y1="708.5735" x2="246.3573" y2="598.4788">
						<stop  offset="0" style="stop-color:#2A3477"/>
						<stop  offset="0.9892" style="stop-color:#13163F"/>
					</linearGradient>
					<path class="st3" d="M351.8,610.9H136.3c-2.8,8.7-4.2,20.8-4.5,35.5c59.2,59.5,139.3,97.5,227.3,102.7
						C362.1,686.2,361.9,633.2,351.8,610.9z"/>
				</g>
				<g>
					<g>
						<g>
							<linearGradient id="SVGID_5_" gradientUnits="userSpaceOnUse" x1="108.4028" y1="710.7653" x2="280.5955" y2="525.7645">
								<stop  offset="0" style="stop-color:#FBAF28"/>
								<stop  offset="0.9964" style="stop-color:#F4832C"/>
							</linearGradient>
							<path class="st4" d="M346.3,475.2l-7.4,0.5c0,0,0,0,0,0c0.4-0.9,6.3-11.6-17.4-9.7v-4.3C321.8,461.8,352.9,457.7,346.3,475.2
								z"/>
						</g>
						
							<linearGradient id="SVGID_6_" gradientUnits="userSpaceOnUse" x1="349.2252" y1="581.7609" x2="128.3709" y2="210.7635" gradientTransform="matrix(0.968 -0.2508 0.2508 0.968 -122.7923 161.2652)">
							<stop  offset="0" style="stop-color:#FBAF28"/>
							<stop  offset="0.9964" style="stop-color:#F4832C"/>
						</linearGradient>
						<path class="st5" d="M147.1,444c1.2-1.7,3-3.3,5.3-4.8c0.1,0,0.1-0.1,0.2-0.1c0.4-0.2,0.8-0.5,1.2-0.7
							c0.4-0.3,0.9-0.5,1.4-0.8c0.3-0.1,0.6-0.3,0.9-0.4c0.1-0.1,0.3-0.1,0.4-0.2l0,0c7.9-3.7,20.1-6.7,37.9-8.6l-6-4.7
							c0,0-44-4.5-48.2,27.6c-0.5,3.7,0.3,7.7,1.9,11.7C141.5,457.1,142.3,449.9,147.1,444z"/>
						<g>
							<linearGradient id="SVGID_7_" gradientUnits="userSpaceOnUse" x1="360.3742" y1="467.0663" x2="128.0296" y2="467.0663">
								<stop  offset="3.584670e-03" style="stop-color:#E6E6E6"/>
								<stop  offset="1" style="stop-color:#F1F1F1"/>
							</linearGradient>
							<path class="st6" d="M349.1,619.7c14-4.2,11.6-22.6,10.3-55.5c-2.7-70.4-33.6-49-15.8-124.2c9.7-41.1,6.4-32-1.4-66.3
								c-4.5-19.7-2.7-40.9,4.9-59.6l-41.4-14.3c-21.8,90-102.2,87.2-123.3,0l-41.4,14.3c7.6,18.7,9.4,39.8,4.9,59.6
								c-8.2,36-10.8,26.5-1.4,66.3c17.9,75.5-13.1,53-15.8,124.2c-0.6,15-1.6,29.3,0.2,43.5c0.7,5.7,4.9,10.4,10.5,11.9
								C210.9,638.5,280.8,640.1,349.1,619.7z"/>
						</g>
						
							<linearGradient id="SVGID_8_" gradientUnits="userSpaceOnUse" x1="1024.4568" y1="616.5291" x2="1024.4568" y2="396.0675" gradientTransform="matrix(-1 0 0 1 1304.1484 0)">
							<stop  offset="0" style="stop-color:#FBD2C3"/>
							<stop  offset="0.9964" style="stop-color:#F8AF9B"/>
						</linearGradient>
						<path class="st7" d="M273.2,548.5c18.7,15.6,22.5,8.4,22-5.6c0,0-10-3.9-21.2-7.3C256.5,530.2,266.4,546.1,273.2,548.5z"/>
						<g>
							<linearGradient id="SVGID_9_" gradientUnits="userSpaceOnUse" x1="96.9965" y1="766.1703" x2="293.6414" y2="554.8986">
								<stop  offset="0" style="stop-color:#FBAF28"/>
								<stop  offset="0.9964" style="stop-color:#F4832C"/>
							</linearGradient>
							<path class="st8" d="M346.3,475.2c-19.4,28.3-61.5,63.5-74.7,75.4c-19.5,17.7-46.6,121-46.6,121l-9.2,1.6
								c0,0,23-98,44.3-125.2c9.9-12.7,57.6-44.7,78.8-72.4c0,0,0,0,0,0c2.3-3,6-5.3,7.5-8.1C347.5,469.4,347.5,471.9,346.3,475.2z"
								/>
						</g>
						<linearGradient id="SVGID_10_" gradientUnits="userSpaceOnUse" x1="229.2759" y1="614.3493" x2="229.2759" y2="390.7897">
							<stop  offset="0" style="stop-color:#FBD2C3"/>
							<stop  offset="0.9964" style="stop-color:#F8AF9B"/>
						</linearGradient>
						<path class="st9" d="M238.3,545.9c-18.7,15.6-25,7.2-24.4-6.8c0,0,9.9-3.6,21.1-7.1C250.5,527.2,244.3,543.7,238.3,545.9z"/>
						<g>
							<path class="st11" d="M155.9,437.2c-0.3,0.1-0.6,0.3-0.9,0.4C155.4,437.5,155.7,437.4,155.9,437.2z"/>
							<path class="st11" d="M147.1,444c1.4-1.7,3.1-3.4,5.3-4.8C150,440.8,148.3,442.4,147.1,444z"/>
							<path class="st11" d="M153.7,438.4c-0.4,0.2-0.8,0.5-1.2,0.7C152.9,438.9,153.3,438.7,153.7,438.4z"/>
							
								<linearGradient id="SVGID_11_" gradientUnits="userSpaceOnUse" x1="200.8403" y1="562.1512" x2="200.8403" y2="665.339" gradientTransform="matrix(0.968 -0.2508 0.2508 0.968 -122.7923 161.2652)">
								<stop  offset="0" style="stop-color:#FBAF28"/>
								<stop  offset="0.9964" style="stop-color:#F4832C"/>
							</linearGradient>
							<path class="st10" d="M155.9,437.2c0.1-0.1,0.3-0.1,0.4-0.2l0,0C156.2,437.1,156.1,437.2,155.9,437.2z"/>
							
								<linearGradient id="SVGID_12_" gradientUnits="userSpaceOnUse" x1="198.9079" y1="562.1267" x2="198.9079" y2="665.3032" gradientTransform="matrix(0.968 -0.2508 0.2508 0.968 -122.7923 161.2652)">
								<stop  offset="0" style="stop-color:#FBAF28"/>
								<stop  offset="0.9964" style="stop-color:#F4832C"/>
							</linearGradient>
							<path class="st12" d="M155.1,437.7c-0.5,0.2-0.9,0.5-1.4,0.8C154.1,438.2,154.6,437.9,155.1,437.7z"/>
							
								<linearGradient id="SVGID_13_" gradientUnits="userSpaceOnUse" x1="340.5019" y1="627.3048" x2="93.0394" y2="211.6104" gradientTransform="matrix(0.968 -0.2508 0.2508 0.968 -122.7923 161.2652)">
								<stop  offset="0" style="stop-color:#FBAF28"/>
								<stop  offset="0.9964" style="stop-color:#F4832C"/>
							</linearGradient>
							<path class="st13" d="M248.9,544.2C230.1,522.6,128,470.4,147.1,444c-4.7,5.9-5.5,13-5.1,19c12.9,30.7,80,69.4,95.4,83.8
								c24.6,23,57.8,93,57.8,93l11,0.1C306.3,639.8,277.6,577.4,248.9,544.2z"/>
							
								<linearGradient id="SVGID_14_" gradientUnits="userSpaceOnUse" x1="196.7246" y1="562.1199" x2="196.7246" y2="665.2933" gradientTransform="matrix(0.968 -0.2508 0.2508 0.968 -122.7923 161.2652)">
								<stop  offset="0" style="stop-color:#FBAF28"/>
								<stop  offset="0.9964" style="stop-color:#F4832C"/>
							</linearGradient>
							<path class="st14" d="M152.5,439.1c-0.1,0-0.1,0.1-0.2,0.1C152.4,439.2,152.5,439.2,152.5,439.1z"/>
						</g>
					</g>
				</g>
			</g>
			<g>
				<g>
					<linearGradient id="SVGID_15_" gradientUnits="userSpaceOnUse" x1="352.5609" y1="619.4111" x2="352.5609" y2="259.7271">
						<stop  offset="0" style="stop-color:#FBD2C3"/>
						<stop  offset="0.9964" style="stop-color:#F8AF9B"/>
					</linearGradient>
					<path class="st15" d="M422.9,450.3c-10.4,56.5-78.4,92.3-130,118l-10.7-20.5c108.2-80.6,86.3-103.8,87.6-105.7
						c-5.2-9.9-12.5-19-21-27.2c2.1-14.3-1.1-16.6-6.7-41.2c-4.4-19.3-2.8-40,4.5-58.5C433.6,396.3,421.8,428.3,422.9,450.3z"/>
				</g>
				<g>
					<linearGradient id="SVGID_16_" gradientUnits="userSpaceOnUse" x1="149.1254" y1="609.8928" x2="149.1254" y2="405.6446">
						<stop  offset="0" style="stop-color:#FBD2C3"/>
						<stop  offset="0.9964" style="stop-color:#F8AF9B"/>
					</linearGradient>
					<path class="st16" d="M225,542.4l-8.8,21.4C161.9,543,85.9,510.7,74.7,455.2c-9.5-47.2,28.5-98.3,66.5-140.7
						c7.5,18.6,9.2,39.6,4.8,59.2c-6.6,29.2-9.6,28.5-5.4,48.5c-9.2,11.3-12.8,20.2-12.8,28.1C127.9,482.2,197.8,525.8,225,542.4z"
						/>
				</g>
			</g>
			<g>
				<linearGradient id="SVGID_17_" gradientUnits="userSpaceOnUse" x1="244.0923" y1="612.8064" x2="244.0923" y2="258.0017">
					<stop  offset="0" style="stop-color:#FBD2C3"/>
					<stop  offset="0.9964" style="stop-color:#F8AF9B"/>
				</linearGradient>
				<path class="st17" d="M305.7,299.8c-21.8,90-102.2,87.2-123.3,0C221,290.3,262.1,290.5,305.7,299.8z"/>
			</g>
			<g>
				<linearGradient id="SVGID_18_" gradientUnits="userSpaceOnUse" x1="244.0923" y1="612.8062" x2="244.0923" y2="258.0016">
					<stop  offset="0" style="stop-color:#FBD2C3"/>
					<stop  offset="0.9964" style="stop-color:#F8AF9B"/>
				</linearGradient>
				<rect x="213.6" y="224.5" class="st18" width="61" height="105"/>
			</g>
			<g>
				<g>
					
						<linearGradient id="SVGID_19_" gradientUnits="userSpaceOnUse" x1="274.571" y1="271.1914" x2="274.571" y2="96.9189" gradientTransform="matrix(0.9979 -6.550000e-02 6.550000e-02 0.9979 -24.0881 42.3318)">
						<stop  offset="0" style="stop-color:#FBD2C3"/>
						<stop  offset="0.9964" style="stop-color:#F8AF9B"/>
					</linearGradient>
					<path class="st19" d="M299.4,149.9l-77.7,13c-18.1,44.9,2.5,101.1,58.7,114.2c5.6,1.3,11.4-1.6,13.7-6.9
						C310.3,233.5,310.6,181.4,299.4,149.9z"/>
				</g>
				<g>
					
						<linearGradient id="SVGID_20_" gradientUnits="userSpaceOnUse" x1="210.3449" y1="414.3581" x2="210.3449" y2="130.2543" gradientTransform="matrix(0.993 0.1177 -0.1177 0.993 52.0645 -66.7302)">
						<stop  offset="1.100000e-07" style="stop-color:#383647"/>
						<stop  offset="0.9928" style="stop-color:#272535"/>
					</linearGradient>
					<path class="st20" d="M301.7,157.8C286.9,168,266,143.1,260,173.5c-3.8,18.8-12.3,2.5-13.5,1.9c-32.2-14.4-0.2,123.2-3.8,140.3
						c-4.9,34.9-29.1,54-56.8,50.7c-27.6-3.3-46.6-34.9-43.3-62.5c2.3-19.2,52.4-73.9,32.9-140c-3.9-13.2-2.8-27.5,3.6-39.7
						c12.8-24.3,39-28.2,79.8-33.4C304.2,85,339.3,131.7,301.7,157.8z"/>
				</g>
			</g>
		</g>
		<g>
			<linearGradient id="SVGID_21_" gradientUnits="userSpaceOnUse" x1="229.2751" y1="608.4362" x2="229.2751" y2="403.9791">
				<stop  offset="0" style="stop-color:#FBD2C3"/>
				<stop  offset="0.9964" style="stop-color:#F8AF9B"/>
			</linearGradient>
			<path class="st21" d="M225,546.7c-3.8,1.5,6.3-2,6.3-2s20.8-3.1,23,8s-5.8,21.7-23.2,18.8c-17.5-2.9-27.3-18.1-27.3-18.1"/>
		</g>
		<g>
			<g>
				
					<linearGradient id="SVGID_22_" gradientUnits="userSpaceOnUse" x1="1024.4198" y1="612.2256" x2="1024.4198" y2="407.7685" gradientTransform="matrix(-1 0 0 1 1304.1484 0)">
					<stop  offset="0" style="stop-color:#FBD2C3"/>
					<stop  offset="0.9964" style="stop-color:#F8AF9B"/>
				</linearGradient>
				<path class="st22" d="M284,550.5c3.8,1.5-6.3-2-6.3-2s-20.8-3.1-23,8c-2.1,11.1,5.8,21.7,23.2,18.8
					c17.5-2.9,27.3-18.1,27.3-18.1"/>
			</g>
		</g>
	</g>
	<g>
		<linearGradient id="SVGID_23_" gradientUnits="userSpaceOnUse" x1="541.5178" y1="225.8573" x2="541.5178" y2="115.4669">
			<stop  offset="0" style="stop-color:#ED5B5A"/>
			<stop  offset="0.9928" style="stop-color:#E24026"/>
		</linearGradient>
		<circle class="st23" cx="541.5" cy="161.5" r="85.9"/>
		<g>
			<g>
				<path class="st28" d="M577.3,133.6c7.9,10.8-4.2,22.8-15,15c-0.2-0.1-0.4-0.3-0.5-0.5c-7.9-10.8,4.2-22.8,15-15
					C577,133.2,577.1,133.4,577.3,133.6z"/>
				<path class="st28" d="M521.2,133.6c7.9,10.8-4.2,22.8-15,15c-0.2-0.1-0.4-0.3-0.5-0.5c-7.9-10.8,4.2-22.8,15-15
					C520.9,133.2,521.1,133.4,521.2,133.6z"/>
			</g>
			<g>
				<path class="st28" d="M508.7,197.9c2.1,1.7,4.9,1.9,6.5,0.3c14.7-14,39.4-13.8,53.7,0.5c1.3,1.3,3.5,1.2,5.1-0.2
					c2.3-1.9,2.8-5,1.1-6.8c-8.3-8.9-20.5-13.7-33.4-13.7c-13.2,0-25.7,5.1-34.1,14.4C506.4,193.8,506.9,196.4,508.7,197.9z"/>
			</g>
		</g>
	</g>
	<g>
		<g>
			<g>
				<g>
					<linearGradient id="SVGID_24_" gradientUnits="userSpaceOnUse" x1="604.3124" y1="559.9217" x2="604.3124" y2="600.2798">
						<stop  offset="0" style="stop-color:#FBAF28"/>
						<stop  offset="0.9964" style="stop-color:#F4832C"/>
					</linearGradient>
					<path class="st24" d="M666.5,548.7L666.5,548.7H542.2l0,0c0,9.1,7.4,16.4,16.4,16.4H650C659.1,565.1,666.5,557.8,666.5,548.7z"
						/>
				</g>
				<g>
					<linearGradient id="SVGID_25_" gradientUnits="userSpaceOnUse" x1="604.3125" y1="502.7433" x2="604.3125" y2="532.9521">
						<stop  offset="0" style="stop-color:#FBAF28"/>
						<stop  offset="0.9964" style="stop-color:#F4832C"/>
					</linearGradient>
					<path class="st25" d="M666.5,530.6H542.1c0-34.3,27.8-62.1,62.2-62.1C638.6,468.5,666.5,496.3,666.5,530.6z"/>
				</g>
				<g>
					<linearGradient id="SVGID_26_" gradientUnits="userSpaceOnUse" x1="604.3124" y1="528.2583" x2="604.3124" y2="564.6484">
						<stop  offset="1.100000e-07" style="stop-color:#6F2E15"/>
						<stop  offset="0.9928" style="stop-color:#481D0F"/>
					</linearGradient>
					<path class="st26" d="M542.7,530.6h123.2c4.8,0,8.6,4,8.6,9l0,0c0,5-3.9,9-8.6,9H542.7c-4.8,0-8.6-4-8.6-9l0,0
						C534.1,534.7,537.9,530.6,542.7,530.6z"/>
				</g>
			</g>
			<g>
				<polygon class="st32" points="601.9,530.6 582.9,558.1 564,530.6 				"/>
			</g>
		</g>
		<g>
			<g>
				<path class="st32" d="M579.6,497.7c-1.8-0.1-3.3,1.2-3.4,3l0,0l0,0C578,500.9,579.5,499.5,579.6,497.7L579.6,497.7L579.6,497.7z
					"/>
			</g>
			<g>
				<path class="st32" d="M568.8,500.9c-1.8-0.1-3.3,1.2-3.4,3l0,0l0,0C567.3,504,568.8,502.7,568.8,500.9L568.8,500.9L568.8,500.9z
					"/>
			</g>
			<g>
				<path class="st32" d="M604.5,490.9c-1.8-0.1-3.3,1.2-3.4,3l0,0l0,0C602.9,494.1,604.4,492.7,604.5,490.9L604.5,490.9
					L604.5,490.9z"/>
			</g>
			<g>
				<path class="st32" d="M643.7,489.8c-1.8-0.1-3.3,1.2-3.4,3l0,0l0,0C642.1,492.9,643.6,491.6,643.7,489.8L643.7,489.8
					L643.7,489.8z"/>
			</g>
			<g>
				<path class="st32" d="M626.4,509c-1.8-0.1-3.3,1.2-3.4,3l0,0l0,0C624.8,512.1,626.4,510.8,626.4,509L626.4,509L626.4,509z"/>
			</g>
			<g>
				<path class="st32" d="M610.6,476c-1.8-0.1-3.3,1.2-3.4,3l0,0l0,0C609,479.2,610.5,477.8,610.6,476L610.6,476L610.6,476z"/>
			</g>
			<g>
				<path class="st32" d="M576.1,485.6c-1.8-0.1-3.3,1.2-3.4,3l0,0l0,0C574.5,488.7,576,487.4,576.1,485.6L576.1,485.6L576.1,485.6z
					"/>
			</g>
			<g>
				<path class="st32" d="M590.1,485.6c-1.6-0.8-3.5-0.2-4.3,1.3l0,0l0,0C587.3,487.8,589.3,487.2,590.1,485.6L590.1,485.6
					L590.1,485.6z"/>
			</g>
			<g>
				<path class="st32" d="M627,492.6c-1.6-0.8-3.5-0.2-4.3,1.3l0,0l0,0C624.2,494.8,626.2,494.2,627,492.6L627,492.6L627,492.6z"/>
			</g>
			<g>
				<path class="st32" d="M595,500.6c-1.6-0.8-3.5-0.2-4.3,1.3l0,0l0,0C592.2,502.8,594.2,502.2,595,500.6L595,500.6L595,500.6z"/>
			</g>
			<g>
				<path class="st32" d="M622.8,480.3c-1.6-0.8-3.5-0.2-4.3,1.3l0,0l0,0C620,482.5,621.9,481.9,622.8,480.3L622.8,480.3
					L622.8,480.3z"/>
			</g>
			<g>
				<path class="st32" d="M608.4,511.4c-1.6-0.8-3.5-0.2-4.3,1.3l0,0l0,0C605.7,513.6,607.6,513,608.4,511.4L608.4,511.4
					L608.4,511.4z"/>
			</g>
			<g>
				<path class="st32" d="M645.4,504.9c-1.6-0.8-3.5-0.2-4.3,1.3l0,0l0,0C642.7,507.1,644.6,506.5,645.4,504.9L645.4,504.9
					L645.4,504.9z"/>
			</g>
			<g>
				<path class="st32" d="M584.1,512.1c-1.6-0.8-3.5-0.2-4.3,1.3l0,0l0,0C581.4,514.3,583.3,513.7,584.1,512.1L584.1,512.1
					L584.1,512.1z"/>
			</g>
		</g>
	</g>
	<g>
		<g>
			<g>
				<g>
					<polygon class="st32" points="501.9,473.3 507.6,430.1 532.3,413.5 529.3,409.1 502.6,427.1 496.4,473.3 					"/>
				</g>
			</g>
			<g>
				<g>
					<linearGradient id="SVGID_27_" gradientUnits="userSpaceOnUse" x1="482.1041" y1="558.2045" x2="482.1041" y2="464.0945">
						<stop  offset="0" style="stop-color:#ED5B5A"/>
						<stop  offset="0.9928" style="stop-color:#E24026"/>
					</linearGradient>
					<path class="st27" d="M523,463l-13.8,96.3c-0.4,3.3-3.3,5.7-6.7,5.7h-40.8c-3.4,0-6.2-2.4-6.7-5.7L441.2,463H523z"/>
				</g>
				<polygon class="st32" points="517,504.8 447.2,504.8 448.8,515.7 515.4,515.7 				"/>
				<g>
					<g>
						<linearGradient id="SVGID_28_" gradientUnits="userSpaceOnUse" x1="482.1137" y1="475.5965" x2="482.1137" y2="446.2852">
							<stop  offset="1.100000e-07" style="stop-color:#383647"/>
							<stop  offset="0.9928" style="stop-color:#272535"/>
						</linearGradient>
						<path class="st29" d="M522.3,459.1v-1.1c0-1.8-1.5-3.3-3.3-3.3h-73.7c-1.8,0-3.3,1.5-3.3,3.3v1.1H522.3z"/>
					</g>
				</g>
				<g>
					<path class="st32" d="M506.2,510.2c0,10.9-10.8,19.6-24.1,19.6c-13.3,0-24.2-8.7-24.2-19.6c0-10.8,10.8-19.6,24.2-19.6
						C495.5,490.6,506.2,499.4,506.2,510.2z"/>
				</g>
			</g>
		</g>
		<g>
			<path class="st32" d="M527.3,463c0,2.7-2.2,4.9-4.9,4.9h-80.5c-2.7,0-4.9-2.2-4.9-4.9s2.2-4.9,4.9-4.9h80.5
				C525,458.1,527.3,460.3,527.3,463z"/>
		</g>
	</g>
</g>
</svg>
