<svg xmlns="http://www.w3.org/2000/svg" xmlns:xlink="http://www.w3.org/1999/xlink" viewBox="0 0 500 493.33"><defs><style>.cls-1{isolation:isolate;}.cls-2{fill:#fff;}.cls-3{fill:url(#Áåçûìÿííûé_ãðàäèåíò_3);}.cls-4{fill:url(#Áåçûìÿííûé_ãðàäèåíò_3-2);}.cls-5{fill:#1c2c57;}.cls-6{fill:#006769;}.cls-7{fill:#58c4c5;}.cls-8{fill:#ffd052;}.cls-9{fill:url(#Áåçûìÿííûé_ãðàäèåíò_7);}.cls-10{fill:#118c8c;}.cls-11{fill:#ffd874;}.cls-12{fill:url(#Áåçûìÿííûé_ãðàäèåíò_17);}.cls-13{fill:#faa525;}.cls-14{fill:#f68b27;}.cls-15{fill:#004060;}.cls-16{fill:#fab08a;}.cls-17{fill:#52b8b9;}.cls-18{fill:#f79c82;}.cls-19{fill:#33aaa7;}.cls-20{fill:url(#Áåçûìÿííûé_ãðàäèåíò_3-3);}.cls-21{fill:url(#Áåçûìÿííûé_ãðàäèåíò_3-4);}.cls-22{fill:url(#Áåçûìÿííûé_ãðàäèåíò_3-5);}.cls-23{fill:url(#Áåçûìÿííûé_ãðàäèåíò_3-6);}.cls-24{mix-blend-mode:multiply;}.cls-25{fill:#b1e1ea;}.cls-26{fill:url(#Áåçûìÿííûé_ãðàäèåíò_3-7);}.cls-27{fill:#a2d7c5;}.cls-28{fill:url(#Áåçûìÿííûé_ãðàäèåíò_3-8);}.cls-29{fill:url(#Áåçûìÿííûé_ãðàäèåíò_14);}.cls-30{fill:url(#Áåçûìÿííûé_ãðàäèåíò_3-9);}.cls-31{fill:url(#Áåçûìÿííûé_ãðàäèåíò_17-2);}.cls-32{fill:url(#Áåçûìÿííûé_ãðàäèåíò_3-10);}</style><linearGradient id="Áåçûìÿííûé_ãðàäèåíò_3" x1="357.31" y1="148.4" x2="440.21" y2="148.4" gradientUnits="userSpaceOnUse"><stop offset="0" stop-color="#d6ede5"/><stop offset="1" stop-color="#b1e1ea"/></linearGradient><linearGradient id="Áåçûìÿííûé_ãðàäèåíò_3-2" x1="-31.86" y1="118.8" x2="89.19" y2="118.8" gradientTransform="translate(71.36)" xlink:href="#Áåçûìÿííûé_ãðàäèåíò_3"/><linearGradient id="Áåçûìÿííûé_ãðàäèåíò_7" x1="148.85" y1="121.75" x2="511.51" y2="582.53" gradientUnits="userSpaceOnUse"><stop offset="0" stop-color="#eaf6f3"/><stop offset="1" stop-color="#b1e1ea"/></linearGradient><linearGradient id="Áåçûìÿííûé_ãðàäèåíò_17" x1="39.04" y1="146.28" x2="70.8" y2="146.28" gradientTransform="matrix(1.03, -0.15, -0.15, 0.99, 261.83, 63.58)" gradientUnits="userSpaceOnUse"><stop offset="0.22" stop-color="#d6ede5"/><stop offset="0.76" stop-color="#b1e1ea"/></linearGradient><linearGradient id="Áåçûìÿííûé_ãðàäèåíò_3-3" x1="391.1" y1="305.19" x2="413.97" y2="305.19" xlink:href="#Áåçûìÿííûé_ãðàäèåíò_3"/><linearGradient id="Áåçûìÿííûé_ãðàäèåíò_3-4" x1="433.37" y1="299.18" x2="416.56" y2="341.22" xlink:href="#Áåçûìÿííûé_ãðàäèåíò_3"/><linearGradient id="Áåçûìÿííûé_ãðàäèåíò_3-5" x1="406.5" y1="288.43" x2="389.69" y2="330.48" xlink:href="#Áåçûìÿííûé_ãðàäèåíò_3"/><linearGradient id="Áåçûìÿííûé_ãðàäèåíò_3-6" x1="390.92" y1="282.21" x2="374.11" y2="324.25" xlink:href="#Áåçûìÿííûé_ãðàäèåíò_3"/><linearGradient id="Áåçûìÿííûé_ãðàäèåíò_3-7" x1="223.5" y1="50.39" x2="324.01" y2="50.39" gradientTransform="matrix(-1, 0, 0, 1, 641.02, 0)" xlink:href="#Áåçûìÿííûé_ãðàäèåíò_3"/><linearGradient id="Áåçûìÿííûé_ãðàäèåíò_3-8" x1="62.87" y1="50.18" x2="96.98" y2="50.18" gradientTransform="translate(94.38 -45.96) rotate(33.22)" xlink:href="#Áåçûìÿííûé_ãðàäèåíò_3"/><linearGradient id="Áåçûìÿííûé_ãðàäèåíò_14" x1="75.29" y1="55.84" x2="96.98" y2="55.84" gradientTransform="translate(94.38 -45.96) rotate(33.22)" gradientUnits="userSpaceOnUse"><stop offset="0.24" stop-color="#d6ede5"/><stop offset="0.48" stop-color="#cfebe6"/><stop offset="0.82" stop-color="#bde5e8"/><stop offset="1" stop-color="#b1e1ea"/></linearGradient><linearGradient id="Áåçûìÿííûé_ãðàäèåíò_3-9" x1="257.15" y1="30.12" x2="299.32" y2="30.12" xlink:href="#Áåçûìÿííûé_ãðàäèåíò_3"/><linearGradient id="Áåçûìÿííûé_ãðàäèåíò_17-2" x1="257.42" y1="33.07" x2="307.1" y2="33.07" gradientTransform="matrix(1, 0, 0, 1, 0, 0)" xlink:href="#Áåçûìÿííûé_ãðàäèåíò_17"/><linearGradient id="Áåçûìÿííûé_ãðàäèåíò_3-10" x1="652.07" y1="330.35" x2="654.13" y2="330.35" gradientTransform="translate(-507.4)" xlink:href="#Áåçûìÿííûé_ãðàäèåíò_3"/></defs><title>Image 29.A [Converted]</title><g class="cls-1"><g id="Ñëîé_1" data-name="Ñëîé 1"><rect class="cls-2" width="500" height="493.33"/><path class="cls-3" d="M357.51,150.13c-3,13.14,28,14.83,40.73,15a50.11,50.11,0,0,0,10.53-1c10.8-2.19,34.43-7.94,31.12-15.76-4.28-10.09-17.12-3.05-17.12-3.05s1.61-7.62-20.25-12.65-21.77,11.73-21.77,11.73S361.31,133.62,357.51,150.13Z"/><path class="cls-4" d="M39.5,129.67s85.92,8.51,113.95.92c5.34-1.45,8.58-7.3,6.44-12.4-1.14-2.7-3.7-5-9.38-6.61-6.61-1.86-12.36,1.46-16,4.56a2.78,2.78,0,0,1-4.45-1.4c-.78-2.48-2.66-5.16-6.91-6.71-6.3-2.29-15.24,3-20.49,6.8A2,2,0,0,1,99.4,113c.3-4.74-1.55-10.71-13.54-8.78S69.23,113,67.3,117.91a3.25,3.25,0,0,1-5,1.4c-2.94-2.29-7.45-4.14-12.93-.87C39.5,124.35,39.5,129.67,39.5,129.67Z"/><path class="cls-5" d="M158.44,197.55S147.54,132,100,121.34c-46.5,69.73,22.2,115.28,22.2,115.28Z"/><path class="cls-6" d="M100,121.34l-.48.73,31.75,71.62L84.59,179.27q.12.81.26,1.61l47.21,14.58,9.16,20.67,1.08-1.16L124,173.77h0l15.16-23.93-.9-1.3-15,23.62-22.43-50.6-.89-.22Z"/><path class="cls-7" d="M136.42,192.56S87.06,148.29,43.14,164C33.86,219.37,94,239.09,94,239.09l57.81-4.48Z"/><path class="cls-6" d="M94.79,167.22l.12,29.4L44.18,163.68l-1,.35c0,.22-.06.43-.1.65l27.17,17.64-26.3,7.36c.06.25.13.5.2.75l.18.66,27.55-7.71,45.27,29.4-45.75,14.4,1.52,1.05,45.82-14.42,32.15,20.88,1-.08-.5-1.35-55-35.69-.12-29.77Z"/><path class="cls-8" d="M134.89,224.25s-55-6.27-72.28,26.63c38.52,65.4,124.42,21,124.42,21Z"/><path class="cls-2" d="M62.62,250.88l.45.75,74.9,2.73-26.61,30.92,1.69.28,26.79-31.13,29.25,1.07L167.42,254l-57-2.08L89.23,229.29l-1.48.56,20.64,22L63,250.17c-.13.24-.27.47-.4.72Z"/><path class="cls-8" d="M343.05,255.54s7.79-66,54.77-78.89c49.75,67.45-16.72,116.21-16.72,116.21Z"/><path class="cls-2" d="M397.83,176.65l.51.7L370,250.4,416,233.79q-.08.81-.18,1.62l-46.47,16.8-8.17,21.08L360,272.17l16.29-42h0L360,207l.84-1.34,16.07,22.89,20-51.6.88-.26Z"/><path class="cls-6" d="M364.82,249.51S412,203,456.65,216.61C468.53,271.44,409.38,294,409.38,294l-58-1.74Z"/><path class="cls-7" d="M405.2,222.23l1.28,29.37,49.11-35.3,1.06.3c0,.22.08.43.13.64l-26.3,18.91,26.62,6.11c-.05.25-.11.5-.16.76l-.15.67-27.88-6.4L385.07,268.8,431.45,281,430,282.13,383.53,269.9l-31.12,22.37-1,0,.43-1.37,53.2-38.25-1.29-29.74Z"/><path class="cls-7" d="M367.84,281.09s54.63-8.86,73.45,23.18C405.92,371.43,318,331.16,318,331.16Z"/><path class="cls-2" d="M441.3,304.28l-.41.77-74.69,6.27,28,29.63-1.67.36-28.24-29.83-29.17,2.45,1.59-1.6,56.8-4.77L413.69,284l1.5.49-19.58,22.92,45.25-3.8c.14.23.29.46.43.7Z"/><path class="cls-6" d="M119.35,99.13l-.5,312.81A14.16,14.16,0,0,0,133,426.12H372.78a14.16,14.16,0,0,0,14.16-14.06L389,98.74A14.16,14.16,0,0,0,374.8,84.49L133.48,85A14.16,14.16,0,0,0,119.35,99.13Z"/><polygon class="cls-9" points="129.65 98.03 129.14 413.08 376.7 413.08 378.77 97.5 129.65 98.03"/><polygon class="cls-10" points="129.65 98.03 129.14 117.16 378.94 117.16 378.77 97.5 129.65 98.03"/><polygon class="cls-2" points="153.7 132.44 153.24 139.1 241.68 139.1 243.49 133.22 153.7 132.44"/><polygon class="cls-11" points="248.11 377.31 247.65 383.97 336.09 383.97 337.89 378.09 248.11 377.31"/><polygon class="cls-2" points="153.51 148.54 153.58 153.62 288.23 153.62 289.61 149.13 153.51 148.54"/><polygon class="cls-7" points="246.06 270.76 246.37 304.81 343.06 304.81 342.31 270.76 246.06 270.76"/><polygon class="cls-6" points="246.6 316.69 343.72 316.69 342.81 322.23 246.28 322.23 246.6 316.69"/><polygon class="cls-2" points="247.54 327.77 344.65 327.77 343.74 333.31 247.21 333.31 247.54 327.77"/><polygon class="cls-6" points="153.21 162.56 250.32 162.56 249.41 168.1 152.88 168.1 153.21 162.56"/><polygon class="cls-7" points="154.14 176.41 251.26 176.41 250.34 181.96 153.82 181.96 154.14 176.41"/><polygon class="cls-7" points="154.14 189.62 251.26 189.62 250.34 195.16 153.82 195.16 154.14 189.62"/><polygon class="cls-6" points="246.6 338.86 343.71 338.86 342.8 344.4 246.27 344.4 246.6 338.86"/><polygon class="cls-10" points="222.24 266.37 222.1 321.26 162.23 321.26 164.41 266.37 222.24 266.37"/><polygon class="cls-2" points="171.37 310.45 174.11 310.45 174.14 309.13 172.49 309.14 172.54 307.16 171.44 307.16 171.37 310.45"/><path class="cls-2" d="M178.06,309.13H182l0,1.33H178Zm7.91,0h4l0,1.34h-4Zm8,0h4l0,1.34h-4Zm8.1,0h4.09v1.35h-4.09Z"/><polygon class="cls-2" points="210.28 310.45 213.19 310.45 213.21 307.06 212.04 307.06 212.03 309.1 210.29 309.1 210.28 310.45"/><path class="cls-2" d="M212.11,296h1.16l0,5.55h-1.16Zm.07-11,1.15,0,0,5.49-1.16,0Z"/><polygon class="cls-2" points="212.21 279.48 213.36 279.45 213.38 276.15 210.51 276.22 210.5 277.54 212.22 277.5 212.21 279.48"/><path class="cls-2" d="M178.72,277l3.89-.1,0,1.29-3.89.1Zm7.81-.2,3.94-.1,0,1.3-3.94.1Zm7.9-.2,4-.1,0,1.31-4,.1Zm8-.2,4-.1v1.32l-4,.1Z"/><polygon class="cls-2" points="172.07 280.4 173.15 280.38 173.19 278.45 174.82 278.41 174.85 277.13 172.14 277.2 172.07 280.4"/><path class="cls-2" d="M171.69,296.39h1.09l-.12,5.38h-1.09Zm.25-10.68,1.09,0-.12,5.33-1.09,0Z"/><polygon class="cls-10" points="222.24 202.34 222.1 257.23 162.23 257.23 164.41 202.34 222.24 202.34"/><polygon class="cls-2" points="171.37 246.43 174.11 246.43 174.14 245.11 172.49 245.11 172.54 243.14 171.44 243.14 171.37 246.43"/><path class="cls-2" d="M178.06,245.11H182l0,1.33H178Zm7.91,0h4l0,1.34h-4Zm8,0h4l0,1.34h-4Zm8.1,0h4.09v1.35h-4.09Z"/><polygon class="cls-2" points="210.28 246.43 213.19 246.43 213.21 243.04 212.04 243.04 212.03 245.07 210.29 245.08 210.28 246.43"/><path class="cls-2" d="M212.11,231.93h1.16l0,5.55h-1.16Zm.07-11,1.15,0,0,5.49-1.16,0Z"/><polygon class="cls-2" points="212.21 215.46 213.36 215.43 213.38 212.13 210.51 212.2 210.5 213.52 212.22 213.47 212.21 215.46"/><path class="cls-2" d="M178.72,213l3.89-.1,0,1.29-3.89.1Zm7.81-.2,3.94-.1,0,1.3-3.94.1Zm7.9-.2,4-.1,0,1.31-4,.1Zm8-.2,4-.1v1.32l-4,.1Z"/><polygon class="cls-2" points="172.07 216.38 173.15 216.36 173.19 214.43 174.82 214.39 174.85 213.11 172.14 213.18 172.07 216.38"/><path class="cls-2" d="M171.69,232.36h1.09l-.12,5.38h-1.09Zm.25-10.68,1.09,0-.12,5.33-1.09,0Z"/><path class="cls-8" d="M215.88,194.57a77.1,77.1,0,0,0-6-5c-3,16.74-12.61,36.55-16.42,35.67-3.33-.77-8.38-5.75-13-15.65-2.18,1.73-4.33,3.62-6.28,5.39-.65,13.67,14.64,26.35,19.49,27.48C198.71,243.67,219.8,212.41,215.88,194.57Z"/><path class="cls-8" d="M215.88,257a77.1,77.1,0,0,0-6-5c-3,16.74-12.61,36.55-16.42,35.67-3.33-.77-8.38-5.75-13-15.65-2.18,1.73-4.33,3.62-6.28,5.39-.65,13.67,14.64,26.35,19.49,27.48C198.71,306.15,219.8,274.89,215.88,257Z"/><polygon class="cls-10" points="163.82 331.25 162.23 386.14 222.1 386.14 221.64 331.25 163.82 331.25"/><polygon class="cls-2" points="213.3 375.34 210.56 375.34 210.57 374.02 212.21 374.02 212.23 372.05 213.33 372.05 213.3 375.34"/><path class="cls-2" d="M206.63,375.34h-3.95l0-1.33h3.94Zm-7.92,0h-4l0-1.34h4Zm-8,0h-4l0-1.34h4Zm-8.11,0h-4.09l0-1.35h4.09Z"/><polygon class="cls-2" points="174.39 375.34 171.48 375.34 171.57 371.94 172.73 371.95 172.68 373.98 174.42 373.99 174.39 375.34"/><path class="cls-2" d="M172.87,366.38h-1.16l.14-5.55H173Zm.28-11.06-1.16,0,.14-5.49,1.15,0Z"/><polygon class="cls-2" points="173.43 344.37 172.28 344.34 172.37 341.03 175.24 341.11 175.2 342.43 173.48 342.38 173.43 344.37"/><path class="cls-2" d="M207,343.2l-3.89-.1,0-1.29,3.89.1Zm-7.8-.19-3.94-.1,0-1.3,3.93.1Zm-7.9-.19-4-.1,0-1.31,4,.1Zm-8-.2-4-.1,0-1.32,4,.1Z"/><polygon class="cls-2" points="213.55 345.29 212.47 345.27 212.48 343.34 210.86 343.3 210.87 342.01 213.57 342.08 213.55 345.29"/><path class="cls-2" d="M213.37,366.65h-1.09l0-5.38h1.09Zm.09-10.73-1.09,0,0-5.33,1.08,0Z"/><polygon class="cls-2" points="247.74 361.82 248.14 371.32 347.69 371.32 347.87 361.82 247.74 361.82"/><polygon class="cls-7" points="301.62 132.44 297.58 198.21 365.98 198.18 365.88 132.44 301.62 132.44"/><path class="cls-6" d="M356.53,198.79c.05-.72.11-1.43.11-2.16.12-16.43-11.48-29.1-25.62-28.77-13.84.33-25.54,13.06-26.41,28.85,0,.7,0,1.39,0,2.07Z"/><path class="cls-6" d="M346.14,151.34c.14-8.27-6.23-14.58-14.15-14.21s-14.39,7.14-14.76,15.24S323,167.22,331,167,346,159.75,346.14,151.34Z"/><path class="cls-2" d="M305.33,218.08,284.1,219a5.63,5.63,0,0,1-6.08-6.13l2.1-24.68a7.35,7.35,0,0,1,7.23-6.51h21.38a5.62,5.62,0,0,1,5.68,6.27l-2.25,23.76A7.33,7.33,0,0,1,305.33,218.08Z"/><path class="cls-12" d="M286.95,184c-2.86.16-4.16,2-4.8,4.54-1.54,6.09-3,18.55.79,24,4.07,5.75,15.77,4.28,22.57,3.47a5.36,5.36,0,0,0,4.92-4.48c1.42-7.4,3.5-22.25-2.39-25.27C302.82,183.54,292.79,183.65,286.95,184Z"/><path class="cls-7" d="M309.19,206.2l-.72-.32-1.2-.36c-6.88-1.19-13.75-2.38-20.61-3.41-2.06-.31-4.1-.67-6.13-1.08-.05,4.46.55,8.83,2.41,11.47,4.07,5.75,15.77,4.28,22.57,3.47a5.36,5.36,0,0,0,4.92-4.48c.24-1.27.51-2.78.75-4.42Z"/><path class="cls-5" d="M293.72,214.34c1.39-.24,7.65-1.56,9-5.88.68-2.19-.67-5.66-2.45-6.47-5.43-2.46-7.57,11.05-7.57,11.05l.66,1.21Z"/><path class="cls-6" d="M293.19,214.22c1.28-2.69,5.45-10.74,9.11-9.79l-.17-.36c-3.93-1-8.17,7.63-9.28,10.08Z"/><path class="cls-6" d="M287.17,201.78a63.94,63.94,0,0,1,3.67,12,22.07,22.07,0,0,1,2.86.52c1.21-4.28,3.53-14.21.67-19.75-1.64-3.18-3.39-4.42-4.85-4.84-2.67-.78-4.65,2-4,6.14A28,28,0,0,0,287.17,201.78Z"/><path class="cls-10" d="M287.66,213.74a18,18,0,0,1,3.36.1c-.16-3.51-1.13-11.38-6.7-14.32-1.48-.78-2.83.61-2.63,2.87C282.2,208,285.84,212.06,287.66,213.74Z"/><path class="cls-2" d="M292,214l.28,0c.49-4.64,1.14-16.34-3.51-24.41h-.26C293.09,197.64,292.42,209.46,292,214Z"/><path class="cls-6" d="M289.54,213.72h.3c-1.14-3.38-4.2-11.68-7.63-13.72l-.18.3C285.26,202.23,288.34,210.28,289.54,213.72Z"/><path class="cls-13" d="M300.54,189.74a4.76,4.76,0,0,0,3,3.84c1.7.68,3.05,0,3-1.43a4.8,4.8,0,0,0-3.06-3.79C301.89,187.7,300.54,188.31,300.54,189.74Z"/><path class="cls-2" d="M343.11,242.54h-98c-2.11,0-3.31-1.73-2.66-3.84h0a5.66,5.66,0,0,1,5-3.84h98c2.11,0,3.31,1.73,2.66,3.84h0A5.66,5.66,0,0,1,343.11,242.54Z"/><path class="cls-14" d="M303.77,234.87H247.46a5.66,5.66,0,0,0-5,3.84c-.65,2.11.55,3.84,2.66,3.84h51.12Z"/><path class="cls-2" d="M345,257.18h-98c-2.11,0-3.31-1.73-2.66-3.84h0a5.66,5.66,0,0,1,5-3.84h98c2.11,0,3.31,1.73,2.66,3.84h0A5.66,5.66,0,0,1,345,257.18Z"/><path class="cls-14" d="M320.07,249.51H249.3a5.66,5.66,0,0,0-5,3.84c-.65,2.11.55,3.84,2.66,3.84h65.95Z"/><polygon class="cls-15" points="201.48 68.41 198.02 110.91 297.87 110.91 297.73 68.41 201.48 68.41"/><polygon class="cls-14" points="199.47 93.08 198.02 110.91 297.87 110.91 297.81 93.08 199.47 93.08"/><path class="cls-15" d="M260.92,54.11h-25.3a4.87,4.87,0,0,0-4.86,4.58l-.68,11.56a4.87,4.87,0,0,0,4.86,5.15h26a4.87,4.87,0,0,0,4.87-4.88l0-11.56A4.87,4.87,0,0,0,260.92,54.11ZM239.87,65.88h0a4.87,4.87,0,0,1,4.86-4.58h6.44A4.87,4.87,0,0,1,256,66.16h0A4.87,4.87,0,0,1,251.17,71h-6.44A4.87,4.87,0,0,1,239.87,65.88Z"/><path class="cls-8" d="M215.88,326.21a77.07,77.07,0,0,0-6-5c-3,16.74-12.61,36.55-16.42,35.67-3.33-.77-8.38-5.75-13-15.65-2.18,1.73-4.33,3.62-6.28,5.39-.65,13.67,14.64,26.35,19.49,27.48C198.71,375.31,219.8,344,215.88,326.21Z"/><path class="cls-16" d="M97.78,282.53a6.37,6.37,0,0,0-.27,4.54l.83,5.89,1,.68,3.77,1.56a4.06,4.06,0,0,1,0-2.36l1.66-6.1s2.57-10.29-4.41-9.85c0-8.38-2.3-7-2.3-7l-.16,7.25Z"/><path class="cls-17" d="M80.4,302.91s4.88,18.64,9,19,8.5-29.53,8.5-29.53l5.66.68s2.2,42.94-10.5,43.72S78.72,328,78.72,328Z"/><path class="cls-7" d="M79.87,353.86H46.63V303.38C56.13,288.89,68,292.84,68,292.84s10.76.19,12.44,10.06C80.4,310,79.87,353.86,79.87,353.86Z"/><path class="cls-18" d="M64.08,286.14l-.49,7.14.23.22a6.19,6.19,0,0,0,8.41.12h0l.11-5.37Z"/><path class="cls-16" d="M61.47,271.23l.6,11.8a1.82,1.82,0,0,1,1.64,2.32,2.2,2.2,0,0,1,.2.87,13.53,13.53,0,0,0,10.51,2.45c7.47-1.43,3-15.86,3-15.86Z"/><path class="cls-5" d="M57.72,280.09a7.23,7.23,0,0,0-1.89-3.27c-4.23-3.66-.45-6.32.9-7.18s1.19-3.64,3.11-5.15c2.93-2.3,5.76.08,7.64-.26s3-2.85,5.77-1.52,2.43,3.47,3.3,4.37,2.48-1.6,5.15,1.26c4.05,4.34-3.89,6.2-3.89,6.2a14.42,14.42,0,0,1-10.11-.46,1.89,1.89,0,0,0-2.23.55c-1.37,1.88-1.39,11.72-1.39,11.72l-1.92-1.6S58,284,57.72,280.09Z"/><circle class="cls-16" cx="63.87" cy="280.37" r="1.81" transform="translate(-101.46 45.1) rotate(-22.26)"/><path class="cls-5" d="M72.34,449s1.87,2.59,10.7,4.84c1.94.5,4,.83,4,4H78.36l-8.91-1.54v1.54H64.64s-1.34-7.87,1.47-8.88Z"/><path class="cls-16" d="M72.79,443.39,72.34,449h0a5.45,5.45,0,0,1-5.9.2l-.33-.2v-5.65Z"/><path class="cls-5" d="M47.58,449s1.87,2.59,10.7,4.84c1.94.5,4,.83,4,4H53.6l-8.91-1.54v1.54H39.88s-1.34-7.87,1.47-8.88Z"/><path class="cls-16" d="M48,443.39,47.58,449h0a5.45,5.45,0,0,1-5.9.2l-.33-.2v-5.65Z"/><path class="cls-7" d="M58.78,329.5c-5-10.43,2-19.45,2-19.45l-14.12-6.66s-10,23,2.75,34.74,30,9.75,30,9.75v-6.62S63.77,339.93,58.78,329.5Z"/><path class="cls-16" d="M78.35,347l8,.17c3.23-.18,5.38-5,5.92-8.59a.73.73,0,0,0-1-.79c-2.7.94-9.64,3.4-11.44,4.51Z"/><path class="cls-5" d="M79.87,353.86c9.91,28-5.58,90-5.58,90H65.46s4.16-87.88-7.33-90Z"/><path class="cls-7" d="M57,322.54a17.91,17.91,0,0,0,1.77,7c5,10.43,21.41,11.81,21.41,11.81V348s-18.07,1.87-30.78-9.87c-4.61-4.26-6.23-10-6.43-15.58Z"/><path class="cls-16" d="M99.31,283.41s-1.83-.55-2.12-3.9-1.87-2.31-1.87-2.31.82,13.19,2.92,13.69S99.31,283.41,99.31,283.41Z"/><path class="cls-15" d="M70.1,353.86c2.7,34.32-19.21,90-19.21,90H40.39s7.13-35.58,7.28-69a178.44,178.44,0,0,0-1-21Z"/><path class="cls-19" d="M80.1,342.42c-.65-.05-15.94-1.46-21-12s2-19.88,2.06-20l.79.61c-.07.09-6.74,8.91-1.94,18.93s20,11.45,20.19,11.46Z"/><path class="cls-19" d="M77,349c-5.52,0-17.84-1.1-27.46-10-12.82-11.85-3-35.07-2.87-35.3l.92.4c-.1.23-9.67,22.8,2.63,34.17s29.4,9.64,29.57,9.62l.12,1S78.8,349,77,349Z"/><polygon class="cls-18" points="414.79 289.06 415.46 297.53 423.78 297.89 420.43 284.75 414.79 289.06"/><path class="cls-16" d="M391.39,295.62c-.13-.4-.72-1.71-3-3.51-2.09-1.61-7.4-3.69-5.1-5.29,2.85.23,6.22.15,6.22.15,1.71.31,3.72,2.44,4.71,4l2.49,5.18s-1.14,2.54-1.18,2.67l-1.19-.23A13.51,13.51,0,0,0,391.39,295.62Z"/><path class="cls-16" d="M391.26,294.17a2.11,2.11,0,0,0-.07-.42c.37.07.74.12,1.1.16,1.17.72,2.37,1.4,3.55,2.1-.5.62-1.21,1.49-1.24,1.56l-8.66-3.07s-.1-1.18,1.83-1.14A9.14,9.14,0,0,1,391.26,294.17Z"/><polygon class="cls-20" points="404.45 313.19 391.1 300.78 395.71 293.89 413.98 302.52 406.02 316.49 404.45 313.19"/><path class="cls-21" d="M419.28,292.48c19-3.95,15.72,59.1,15.72,59.1H404.88s-.43-11-1.53-24.9C402.42,314.88,409,301.55,419.28,292.48Z"/><path class="cls-5" d="M409.36,455.89s-3,2.75-9.73,4.48c-1.49.38-3.1-.13-3.1,2.33h8.21l6.83-1.18v1.18h3.69s1-6-1.13-6.8Z"/><path class="cls-16" d="M409.78,451.56l-.42,4.33h0a4.17,4.17,0,0,0,4.52.15l.25-.15.77-4.33Z"/><path class="cls-16" d="M366.66,312.23c-.42,0-1.83-.32-4.1-2.18-2-1.67-5.25-6.39-6.3-3.79.86,2.73,1.54,6,1.54,6,.68,1.6,3.21,3.08,5,3.7l5.6,1.27s2.22-1.68,2.34-1.74l-.49-1.11A13.51,13.51,0,0,1,366.66,312.23Z"/><path class="cls-16" d="M365.21,312.44a2.11,2.11,0,0,1-.43,0c.15.34.28.69.4,1,1,1,1.89,2,2.84,3,.49-.63,1.18-1.51,1.24-1.56l-4.93-7.75s-1.17.17-.71,2A9.14,9.14,0,0,0,365.21,312.44Z"/><path class="cls-5" d="M438.35,449.83s-3,2.75-9.73,4.47c-1.49.38-3.09-.13-3.09,2.33h8.21l6.83-1.18v1.18h3.69s1-6-1.13-6.8Z"/><path class="cls-16" d="M438.77,445.49l-.42,4.33h0a4.17,4.17,0,0,0,4.52.15l.25-.15.77-4.33Z"/><path class="cls-5" d="M435,351.58s-2.41,12.77-.25,39.2a48.27,48.27,0,0,0,3.14,13.62c5.8,14.87,6.6,42.31,6.6,42.31h-6.64l-23.39-66.88Z"/><path class="cls-22" d="M423.78,313.29s-5.21,19.4-19.33,21.19S367.1,318.4,367.1,318.4l2.55-5.11,24.51,6.86a8.31,8.31,0,0,0,9.54-4l7.38-13.6Z"/><path class="cls-15" d="M404.88,351.58l4.38,101.13h5.94s6.66-23.58,6.16-42.17a43,43,0,0,1,3-17.22A158.79,158.79,0,0,0,435,351.58Z"/><polygon class="cls-2" points="353.06 302.52 374.38 318.56 398.76 299.51 378.85 284.75 353.06 302.52"/><path class="cls-23" d="M381.39,322.57a15.27,15.27,0,0,1,1.29-5.63l-13-3.65-2.55,5.11A123.23,123.23,0,0,0,382,327.93,18.88,18.88,0,0,1,381.39,322.57Z"/><g class="cls-24"><path class="cls-25" d="M423.41,313.19c-.05.19-5.31,19.17-19,20.91-12.78,1.62-33.46-13.32-36.64-15.69l-.49.59c3.06,2.3,21.84,16,35.09,16a17.12,17.12,0,0,0,2.14-.13c14.21-1.8,19.59-21.27,19.65-21.47Z"/></g><path class="cls-16" d="M363,316.06l4.59,1a15.21,15.21,0,0,1,1.68-3.11,13.74,13.74,0,0,1-2.63-1.75c-.41,0-1.83-.32-4.09-2.17a18.79,18.79,0,0,1,.52,5.06Q363.07,315.59,363,316.06Z"/><path class="cls-16" d="M369,314.46l-4.63-7.28s-1.17.17-.71,2a9.14,9.14,0,0,0,1.58,3.22,2.11,2.11,0,0,1-.43,0c.15.34.28.69.4,1,.92.95,1.82,1.92,2.73,2.88A15.19,15.19,0,0,1,369,314.46Z"/><path class="cls-16" d="M389.92,291.45h-.16a6.65,6.65,0,0,1,1.8,2.44,14,14,0,0,1,1.53,1.33c.05-.47.14-.93.23-1.39A15.75,15.75,0,0,1,389.92,291.45Z"/><path class="cls-16" d="M390.75,292.17a9,9,0,0,0-2.81-.54c-1.92,0-1.83,1.14-1.83,1.14l7,2.47c.06-.48.14-.94.23-1.4A15.46,15.46,0,0,1,390.75,292.17Z"/><polygon class="cls-2" points="414.79 296.99 414.79 292.82 421.75 289.93 424.28 293.14 414.79 296.99"/><path class="cls-16" d="M411,292.39a4.7,4.7,0,0,1-2.88-.43c-3.93-5-1.66-19.78-1.66-19.78l12.39.87,1.43,9.6a8.15,8.15,0,0,1-2.32,7h0A13.07,13.07,0,0,1,411,292.39Z"/><path class="cls-5" d="M413.13,273.92a26.16,26.16,0,0,1-8.28.89c-4.33-.3-2.11-5.27-2.11-5.27s3.3,1.1,8.79-.33c3.71-1,4.64-1.8,7.2-.78,3.47,1.4,3.32,7.42,3.32,7.42l-.46,12.75-.69.89s-1-8.26-1.23-10.8c-.83-1.08-1.6-1-2.17-.64a1.91,1.91,0,0,0-.82,1.83l1.41,13s-7.92,4.47-10.1,4.05-1.81-10.23-1.81-10.23a3.9,3.9,0,0,1,4.44.59c2.1,1.89,4.13-.53,4.13-.53Z"/><path class="cls-16" d="M418.52,277.6a2.13,2.13,0,0,0-1.79,2.21c0,1.2.68,2.15,1.62,2.13a2.13,2.13,0,0,0,1.79-2.21C420.18,278.53,419.46,277.58,418.52,277.6Z"/><path class="cls-26" d="M417.52,66.18H319.38s-5.32-6.73,0-11.26a9.29,9.29,0,0,1,8.92-1.51,2.94,2.94,0,0,0,3.64-2.3c.6-2.77,2.44-6.39,7.72-8.53s8.48,1.11,10.39,4.41a1.48,1.48,0,0,0,2.67-.27c1.65-5.22,7.39-12.13,26.25-12.13,24,0,21.33,12.76,19.18,18.06a1.22,1.22,0,0,0,1.39,1.67c3.7-.79,10.57-1.82,13.65.6C417.52,58.32,417.52,66.18,417.52,66.18Z"/><polygon class="cls-27" points="119.38 41.12 114.51 48.57 123.14 47.57 152.94 41.66 119.38 41.12"/><polygon class="cls-7" points="114.51 48.57 128.91 49.25 125.6 47.08 114.51 48.57"/><polygon class="cls-28" points="119.38 41.12 117.72 33.17 152.94 41.66 119.38 41.12"/><polygon class="cls-29" points="152.94 41.66 123.14 47.57 126.21 59.12 152.94 41.66"/><path class="cls-7" d="M115.26,53.16a.68.68,0,0,1,.34-1.07,19,19,0,0,1,3.44-.68.68.68,0,1,1,.14,1.35,17.66,17.66,0,0,0-3.2.63A.68.68,0,0,1,115.26,53.16Z"/><path class="cls-7" d="M93.12,124.67l0,0a20.39,20.39,0,0,1-2.92-6.4.68.68,0,0,1,1.31-.35,19,19,0,0,0,2.72,6,.68.68,0,0,1-1.09.81Zm-3.53-10.23a.67.67,0,0,1-.14-.36,25.55,25.55,0,0,1,.35-7,.68.68,0,1,1,1.33.25A24.22,24.22,0,0,0,90.8,114a.68.68,0,0,1-1.2.48ZM91,103.69a.68.68,0,0,1-.1-.66l.12-.31a32.69,32.69,0,0,1,3.08-5.89.68.68,0,0,1,1.13.74,31.25,31.25,0,0,0-3,5.65l-.11.29a.68.68,0,0,1-1.16.18Zm5.56-9.36a.68.68,0,0,1,0-.85,50.42,50.42,0,0,1,4.78-5,.68.68,0,1,1,.92,1,49.24,49.24,0,0,0-4.65,4.88.68.68,0,0,1-1,.09Zm7.82-7.63a.68.68,0,0,1,.1-.94l.39-.31a22,22,0,0,1-2-2.73.68.68,0,1,1,1.15-.71A20.56,20.56,0,0,0,106,84.6c1.24-1,2.57-2,4-3a.68.68,0,0,1,.78,1.11c-1.42,1-2.71,2-3.91,2.89q.71.73,1.49,1.38a.68.68,0,1,1-.87,1,22.66,22.66,0,0,1-1.69-1.57l-.44.36a.68.68,0,0,1-1-.1Zm-3.24-7.61a.66.66,0,0,1-.11-.19,18.36,18.36,0,0,1-1.07-7,.68.68,0,0,1,1.35.05,17,17,0,0,0,1,6.46.68.68,0,0,1-1.17.65Zm9.6,11.18a.68.68,0,0,1,.86-1,19.79,19.79,0,0,0,6.18,2.27.68.68,0,0,1-.24,1.33,21.15,21.15,0,0,1-6.6-2.42A.68.68,0,0,1,110.78,90.26Zm-10-21.94a.68.68,0,0,1-.13-.59,21.9,21.9,0,0,1,2.86-6.42.68.68,0,1,1,1.13.74,20.54,20.54,0,0,0-2.69,6,.68.68,0,0,1-1.18.25Zm20.49,24.57a.68.68,0,0,1,.5-1.1,16.56,16.56,0,0,0,1.69-.16A13.11,13.11,0,0,0,128,90.06a.68.68,0,0,1,.67,1.18,14.46,14.46,0,0,1-5,1.73,17.7,17.7,0,0,1-1.83.17A.68.68,0,0,1,121.25,92.89Zm-8-12.61,0-.06a.68.68,0,0,1,.21-.94,26.43,26.43,0,0,1,6.27-3.1.68.68,0,0,1,.41,1.29,25.12,25.12,0,0,0-5.95,2.95A.68.68,0,0,1,113.27,80.27Zm-7.2-21.39a.68.68,0,0,1,0-.89,23,23,0,0,1,2.37-2.17,22,22,0,0,1,3.2-2.12.68.68,0,0,1,.64,1.19,20.7,20.7,0,0,0-3,2,21.74,21.74,0,0,0-2.23,2,.68.68,0,0,1-1,0Zm24.83,29.58a.68.68,0,0,1,0-.84,6.11,6.11,0,0,0,1.45-4.22,5.51,5.51,0,0,0-.31-1.55.68.68,0,0,1,1.28-.45,6.87,6.87,0,0,1,.39,1.93A7.52,7.52,0,0,1,132,88.46a.68.68,0,0,1-1,.11Zm-7.49-11.89a.68.68,0,0,1,.53-1.1,10.93,10.93,0,0,1,6.76,2.36.68.68,0,0,1-.85,1.06,9.69,9.69,0,0,0-5.91-2.06A.68.68,0,0,1,123.42,76.57Z"/><polygon class="cls-30" points="257.15 35.56 279.89 25.79 291.12 24.67 299.32 26.72 257.15 35.56"/><polyline class="cls-27" points="257.15 35.56 298.56 29.17 299.32 26.72"/><polygon class="cls-7" points="299.03 36.21 298.97 36.29 296.65 42.39 257.25 35.58 299.03 36.21"/><polygon class="cls-31" points="307.1 33.3 301.8 28.05 257.42 35.52 294.74 38.09 307.1 33.3"/><path class="cls-7" d="M390.05,122.27a30.38,30.38,0,0,1-3.72-2.07.59.59,0,0,0-.64,1,31.52,31.52,0,0,0,3.86,2.15q.72.34,1.45.64a.59.59,0,1,0,.45-1.09Q390.75,122.59,390.05,122.27Z"/><path class="cls-7" d="M319.33,30.09c-1.85.05-3.79.17-5.92.35a.59.59,0,1,0,.1,1.18c2.11-.18,4-.29,5.85-.34a.59.59,0,1,0,0-1.18Z"/><path class="cls-7" d="M329.08,31.5a.59.59,0,0,0-.24-1.09c-1.88-.2-3.88-.32-5.94-.35a.59.59,0,0,0,0,1.18c2,0,4,.15,5.83.34A.59.59,0,0,0,329.08,31.5Z"/><path class="cls-7" d="M379.43,114.08a.58.58,0,0,0-.83-.07.59.59,0,0,0-.07.83,32.86,32.86,0,0,0,4.26,4.22.59.59,0,0,0,.68.05.57.57,0,0,0,.15-.13.59.59,0,0,0-.08-.83A31.85,31.85,0,0,1,379.43,114.08Z"/><path class="cls-7" d="M377.18,112.12a.59.59,0,0,0,.16-.82q-.44-.66-.84-1.33a30.57,30.57,0,0,1-1.91-3.75.59.59,0,0,0-.77-.31.6.6,0,0,0-.31.77,31.68,31.68,0,0,0,2,3.89q.42.7.88,1.38a.59.59,0,0,0,.79.18Z"/><path class="cls-7" d="M373,103.69l.13-.06a.59.59,0,0,0,.26-.68,40.24,40.24,0,0,1-1.24-5.67.59.59,0,1,0-1.17.17,41.1,41.1,0,0,0,1.28,5.83A.59.59,0,0,0,373,103.69Z"/><path class="cls-7" d="M362.4,52.09q.64,1,1.24,2c.6,1,1.16,2,1.68,3.07a.59.59,0,0,0,.79.27l0,0a.59.59,0,0,0,.22-.77c-.53-1.06-1.11-2.12-1.72-3.15q-.61-1-1.27-2a.56.56,0,0,0-.82-.16A.59.59,0,0,0,362.4,52.09Z"/><path class="cls-7" d="M366.76,60.31a43,43,0,0,1,1.8,5.52.59.59,0,0,0,.72.43l.16-.07a.59.59,0,0,0,.27-.65,44,44,0,0,0-1.85-5.68.59.59,0,1,0-1.09.44Z"/><path class="cls-7" d="M356.5,44.91a48,48,0,0,1,3.86,4.36.59.59,0,0,0,.77.14l.06,0a.59.59,0,0,0,.1-.83,49.35,49.35,0,0,0-4-4.47.59.59,0,0,0-.84.83Z"/><path class="cls-7" d="M346.34,37.16a.59.59,0,0,0,.58-1,46.7,46.7,0,0,0-5.37-2.6.59.59,0,1,0-.44,1.09A45.54,45.54,0,0,1,346.34,37.16Z"/><path class="cls-7" d="M370.81,85a.59.59,0,0,0,.58-.6v-.75c0-1.72-.05-3.44-.11-5.16a.59.59,0,1,0-1.18,0c.06,1.71.08,3.43.11,5.14v.75A.59.59,0,0,0,370.81,85Z"/><path class="cls-7" d="M353.94,42.53a.59.59,0,1,0,.77-.89A49,49,0,0,0,350,38a.59.59,0,0,0-.66,1A47.57,47.57,0,0,1,353.94,42.53Z"/><path class="cls-7" d="M370.85,87.38a.59.59,0,0,0-.57.61c.06,2.31.16,4.2.31,5.92a.59.59,0,0,0,1.18-.1c-.15-1.7-.25-3.56-.31-5.85A.59.59,0,0,0,370.85,87.38Z"/><path class="cls-7" d="M394.73,124a.59.59,0,0,0-.34,1.13,47.59,47.59,0,0,0,5.81,1.34.59.59,0,1,0,.2-1.16A46.89,46.89,0,0,1,394.73,124Z"/><path class="cls-7" d="M369.75,68.57a.59.59,0,0,0-.49.68c.29,1.77.5,3.67.65,5.8a.59.59,0,1,0,1.18-.08c-.15-2.17-.36-4.1-.66-5.91A.59.59,0,0,0,369.75,68.57Z"/><path class="cls-7" d="M422.67,127.56a.59.59,0,1,0-.17,1.17,55.56,55.56,0,0,1,5.73,1.09.59.59,0,0,0,.29-1.14A56.74,56.74,0,0,0,422.67,127.56Z"/><path class="cls-7" d="M334.41,31.31q-1-.22-2-.4a.59.59,0,0,0-.2,1.16q1,.17,2,.39c1.23.27,2.46.6,3.66,1a.59.59,0,1,0,.36-1.12C336.94,31.93,335.67,31.59,334.41,31.31Z"/><path class="cls-7" d="M403.87,125.85a.59.59,0,0,0-.14,1.17c2.12.25,4.26.43,5.89.55a.59.59,0,0,0,.63-.54.59.59,0,0,0-.54-.63C408.09,126.27,406,126.1,403.87,125.85Z"/><path class="cls-7" d="M413.24,126.65a.59.59,0,1,0-.09,1.18c1.78.13,3.85.28,5.86.48a.59.59,0,1,0,.12-1.17C417.11,126.94,415,126.78,413.24,126.65Z"/><polygon class="cls-8" points="365.31 329.46 375.74 336.11 380.14 326.95 366.67 311.5 365.31 329.46"/><polygon class="cls-16" points="310.26 268.38 323.03 301.75 331.19 295.68 312.97 264.96 310.26 268.38"/><path class="cls-16" d="M309.52,257.06a5.26,5.26,0,0,1,1.88,3.25L313,265l-.5.88-2.21,2.54a3.35,3.35,0,0,0-.87-1.74l-3.47-3.89s-5.7-6.65-.38-8.9c-3.12-6.17-.89-6-.89-6l2.79,5.29Z"/><path class="cls-16" d="M308.72,258.27s1.15-1.08.13-3.66.53-2.4.53-2.4,4.26,10,2.89,11.18S308.72,258.27,308.72,258.27Z"/><path class="cls-8" d="M346.86,308.61l-3.82.3-13-15.15-7,8a212,212,0,0,0,15.86,24.74c.54,2.56,3.33,28.3,3.33,28.3h22.53s-3.59-18.89,2.75-29.4S346.86,308.61,346.86,308.61Z"/><path class="cls-16" d="M364.19,408.17s-.12,52.47-.12,52.2-3.4,0-3.4,0-5-27.45-6.1-39.82,0-13.2,0-13.2Z"/><path class="cls-16" d="M353.25,408.17s-.12,52.47-.12,52.2-3.4,0-3.4,0-5-27.45-6.1-39.82,0-13.2,0-13.2Z"/><path class="cls-16" d="M346.29,282.63,360,287.41l-1.35,10.21c0,.14-.06.28-.08.43-.26,0-.53.1-.79.16l-.13,0-.12,0a9.36,9.36,0,0,0-6.39,6.4,16.14,16.14,0,0,1-5.92-.08,5.93,5.93,0,0,1-3.11-1.34C339.2,297,346.29,282.63,346.29,282.63Z"/><path class="cls-5" d="M345.94,291.22a9,9,0,0,1,.28,7.86c-1.86,3.93-1.69,8.35-.46,10.77.84,1.65,3.05,3.3,5,4.52a7.73,7.73,0,0,1,3.63,5.85c.3,3.32.62,7.4,3.46,8.37,8.25,2.84,11.28,2.57,12.38-4.31a14,14,0,0,0-.71-6.74,12.05,12.05,0,0,1,.25-9,15.74,15.74,0,0,0,1.56-5.39c0-1.56-1.43-3.75-2.93-5.62a11.56,11.56,0,0,1-2.43-8.28c.26-3-.15-6.78-3.17-9.36-5.64-4.81-18.15,2.76-18.15,2.76S343.46,286.27,345.94,291.22Z"/><path class="cls-16" d="M380.14,326.95l5,5.19c3.33,3.45,4.36,8.24.36,10.88l-16.37,13,1.5,2.82a6.87,6.87,0,0,1-.6,7.41l-1.73,2.27-3.83-13.15,11.87-14.82a2.84,2.84,0,0,0-.61-4.42h0Z"/><path class="cls-15" d="M342.22,354.79a55,55,0,0,0-3.3,17.23c0,4.76,4.13,40.69,4.13,40.69h21.45c-1.45-26.53,6.59-29.79,6.59-41.26,0-8.09-6.34-16.67-6.34-16.67Z"/><path class="cls-5" d="M364.07,456.38s1.88,1.47,1.53,3.35-.83,6.28-.83,6.28h-1.93l.06-4.1c0-.27-4.14,4.1-4.83,4.1h-10.2s-.68-2.77,5.31-3.66S364.07,456.38,364.07,456.38Z"/><path class="cls-5" d="M353.18,456.38s1.88,1.47,1.53,3.35-.83,6.28-.83,6.28H352l.06-4.1c0-.27-4.14,4.1-4.83,4.1H337s-.68-2.77,5.31-3.66S353.18,456.38,353.18,456.38Z"/><polygon class="cls-16" points="139.53 307.91 148.16 324.17 138.65 323.71 137.98 307.38 139.53 307.91"/><polygon class="cls-2" points="125.98 300.7 133.95 300.69 137.25 352.23 122.97 352.23 125.98 300.7"/><path class="cls-15" d="M111.34,452s-2,1.55-1.61,3.52.87,6.6.87,6.6h2l-.06-4.31c0-.28,4.35,4.31,5.08,4.31h10.72s.71-2.91-5.58-3.84S111.34,452,111.34,452Z"/><path class="cls-16" d="M116,450l1.45,3.78a4.86,4.86,0,0,0,2,2.51,19,19,0,0,0,5,2.27c-2.91,2.49-7.55-.11-10.2-1.95a6.49,6.49,0,0,1-2.59-3.76L111,450Z"/><path class="cls-15" d="M131.76,452s-2,1.55-1.61,3.52.87,6.6.87,6.6h2l-.06-4.31c0-.28,4.35,4.31,5.08,4.31h10.72s.71-2.91-5.58-3.84S131.76,452,131.76,452Z"/><path class="cls-16" d="M136.41,450l1.45,3.78a4.86,4.86,0,0,0,2,2.51,19,19,0,0,0,5,2.27c-2.91,2.49-7.55-.11-10.2-1.95a6.49,6.49,0,0,1-2.59-3.76l-.61-2.87Z"/><path class="cls-10" d="M119.86,352.23s-1.34,7.7,6.36,45.56C120,417.52,130,450.53,130,450.53h7.28l5-98.3Z"/><path class="cls-11" d="M133.07,300.7l2.59,62.53,8.57-3.67a92,92,0,0,1-3.49-28c-1.31-11.79,5.38-5.58-2.82-28.28C134.87,300.69,133.07,300.7,133.07,300.7Z"/><path class="cls-18" d="M134.19,294.25l-1,5.27a3.35,3.35,0,0,1-5.08,2.22l-3.52-2.2,6.28-14.19Z"/><path class="cls-7" d="M112.86,352.23s-9.54,7.7-1.83,45.56c-6.24,19.73-.73,52.74-.73,52.74h6.53l18.38-98.3Z"/><path class="cls-11" d="M126,295.4s-8,4.52-10.55,8.56c-2.38,3.85-3.21,12.61-3.44,20.41-.31,10.71-5.49,38.85-5.49,38.85h21.58l.54-61.26Z"/><path class="cls-5" d="M141.86,278.43c-4.88-1.24-9.58,3.77-9.58,3.77L128.62,302l-5.65-8.7s-.32-11.82,5.14-19.66c3.91-4.74,11.41-3.38,15.2,1.23,1.84,2.24,2.23,5.34,2.05,8.19-.24,3.83-1.32,25.78-1.32,25.78l-11.18-8.28a52,52,0,0,1,1.34-6.29C136,287.26,145.14,279.26,141.86,278.43Z"/><path class="cls-16" d="M130.83,281.9a1.76,1.76,0,0,1,2.08,1.09,1.52,1.52,0,0,1-.53,2.15A1.76,1.76,0,0,1,130.3,284,1.52,1.52,0,0,1,130.83,281.9Z"/><path class="cls-16" d="M136.06,295.17a3.89,3.89,0,0,0,2.39.31c4.24-3.08,5.78-15.36,5.78-15.36l-3.36-3.57L134.17,278l-3.3,7.32a6.74,6.74,0,0,0,.27,6.08h0A10.8,10.8,0,0,0,136.06,295.17Z"/><path class="cls-5" d="M143,278.18c-.35,3.72-10.69,4-10.69,4l-.54-5,6-3.32,4.77,2.87A3.17,3.17,0,0,1,143,278.18Z"/><path class="cls-5" d="M142.76,278.9c-.34,1.38,1.06,3.79,1.06,3.79l.82-1.49,0-1.29-.81-1S143.1,277.52,142.76,278.9Z"/><path class="cls-16" d="M117.63,304c-10.44,1.22-5.51,28.15-3.27,39.21a4.68,4.68,0,0,0,6,3.55C129.43,343.86,142.7,332,142.7,332l-2.1-2.65L123,333.43S129.73,302.56,117.63,304Z"/><path class="cls-2" d="M138.51,323l-3.41,21.1a1,1,0,0,0,1,1.17h13.5a1,1,0,0,0,1-.85l3.35-21.1a1,1,0,0,0-1-1.16H139.51A1,1,0,0,0,138.51,323Z"/><path class="cls-16" d="M153.5,332.34a9.21,9.21,0,0,0-.24-2.74c-.32-2-.24-5.12-2.28-3.56a10.26,10.26,0,0,0-2.15,5c-.39,1.42.48,3.39,1.29,4.46l1.4,3.05A8.83,8.83,0,0,0,153.5,332.34Z"/><circle class="cls-32" cx="145.7" cy="330.35" r="1.03"/></g></g></svg>