<svg height="512pt" viewBox="0 -18 512.00021 512" width="512pt" xmlns="http://www.w3.org/2000/svg"><path d="m451.109375 198.488281c-4.203125 0-7.609375-3.40625-7.609375-7.609375v-86.363281c0-46.308594-37.675781-83.984375-83.984375-83.984375-18.023437 0-35.203125 5.625-49.675781 16.261719-3.386719 2.488281-8.152344 1.761719-10.640625-1.625-2.492188-3.390625-1.761719-8.152344 1.625-10.644531 17.105469-12.570313 37.402343-19.214844 58.6875-19.214844 54.703125 0 99.210937 44.503906 99.210937 99.207031v86.363281c0 4.203125-3.410156 7.609375-7.613281 7.609375zm0 0" fill="#336686"/><path d="m472.445312 243.949219h-42.671874v-40.503907c0-6.941406 5.625-12.566406 12.566406-12.566406h17.539062c6.941406 0 12.566406 5.625 12.566406 12.566406zm0 0" fill="#38aaff"/><path d="m512 319.566406c0-52.261718-27.261719-94.628906-60.890625-94.628906s-60.890625 42.367188-60.890625 94.628906c0 52.265625 27.261719 94.632813 60.890625 94.632813s60.890625-42.367188 60.890625-94.632813zm0 0" fill="#4c78a0"/><path d="m512 319.5625c0 52.265625-27.257812 94.636719-60.890625 94.636719-4.710937 0-9.296875-.832031-13.703125-2.40625 27.035156-9.660157 47.191406-47.28125 47.191406-92.230469 0-44.9375-20.15625-82.558594-47.191406-92.21875 4.40625-1.574219 8.992188-2.40625 13.703125-2.40625 33.632813 0 60.890625 42.371094 60.890625 94.625zm0 0" fill="#336686"/><path d="m321.605469 468.277344h-161.976563c-15.292968 0-27.691406-12.394532-27.691406-27.6875v-319.007813c0-15.292969 12.398438-27.6875 27.691406-27.6875h161.976563c15.292969 0 27.691406 12.394531 27.691406 27.6875v319.007813c0 15.292968-12.398437 27.6875-27.691406 27.6875zm0 0" fill="#4c78a0"/><path d="m349.292969 121.585938v319c0 15.300781-12.398438 27.699218-27.6875 27.699218h-31.902344c15.292969 0 27.6875-12.398437 27.6875-27.699218v-319c0-15.292969-12.394531-27.6875-27.6875-27.6875h31.902344c15.289062 0 27.6875 12.394531 27.6875 27.6875zm0 0" fill="#336686"/><path d="m349.296875 121.582031v14.148438c0 15.292969-12.402344 27.6875-27.6875 27.6875h-161.980469c-15.113281 0-27.390625-12.097657-27.664062-27.148438-.023438-.175781-.023438-.355469-.023438-.539062v-14.148438c0-.183593 0-.363281.023438-.535156.273437-15.050781 12.550781-27.148437 27.664062-27.148437h161.980469c15.285156 0 27.6875 12.390624 27.6875 27.683593zm0 0" fill="#628fb1"/><path d="m349.292969 121.585938v14.144531c0 15.289062-12.398438 27.6875-27.6875 27.6875h-4.214844v-41.832031c0-15.292969-12.394531-27.6875-27.6875-27.6875h31.902344c15.289062 0 27.6875 12.394531 27.6875 27.6875zm0 0" fill="#4c78a0"/><path d="m310.328125 128.65625c0 4.203125-3.402344 7.613281-7.613281 7.613281h-170.75c-.023438-.175781-.023438-.355469-.023438-.539062v-14.148438c0-.183593 0-.363281.023438-.535156h170.75c4.210937 0 7.613281 3.398437 7.613281 7.609375zm0 0" fill="#4c78a0"/><path d="m317.683594 70.582031c0 38.976563-31.601563 70.578125-70.582032 70.578125-38.980468 0-70.578124-31.601562-70.578124-70.578125 0-38.980469 31.597656-70.582031 70.578124-70.582031 38.980469 0 70.582032 31.601562 70.582032 70.582031zm0 0" fill="#d9efec"/><path d="m295.0625 70.582031c0 26.484375-21.472656 47.960938-47.960938 47.960938-26.488281 0-47.960937-21.476563-47.960937-47.960938 0-26.488281 21.472656-47.964843 47.960937-47.964843 26.488282 0 47.960938 21.476562 47.960938 47.964843zm0 0" fill="#38aaff"/><path d="m247.101562 59.476562c-4.203124 0-7.609374-3.40625-7.609374-7.609374v-9.507813c0-4.203125 3.40625-7.609375 7.609374-7.609375 4.203126 0 7.613282 3.40625 7.613282 7.609375v9.507813c0 4.203124-3.410156 7.609374-7.613282 7.609374zm0 0" fill="#f55"/><path d="m274.925781 78.191406c-.023437 0-.046875 0-.070312 0h-.113281c-4.203126-.035156-7.578126-3.472656-7.542969-7.675781.035156-4.203125 3.5-7.609375 7.675781-7.546875h.113281c4.203125.039062 7.582031 3.476562 7.546875 7.679688-.035156 4.179687-3.4375 7.542968-7.609375 7.542968zm0 0" fill="#d9efec"/><path d="m247.160156 103.574219c-.023437 0-.046875 0-.066406 0h-.117188c-4.203124-.035157-7.578124-3.472657-7.542968-7.675781.035156-4.183594 3.4375-7.546876 7.609375-7.546876h.066406.117187c4.203126.039063 7.578126 3.476563 7.542969 7.679688-.035156 4.179688-3.4375 7.542969-7.609375 7.542969zm0 0" fill="#d9efec"/><path d="m222.246094 78.191406c-.023438 0-.046875 0-.070313 0h-.113281c-4.203125-.035156-7.582031-3.472656-7.542969-7.675781.035157-4.203125 3.464844-7.609375 7.675781-7.546875h.113282c4.203125.039062 7.582031 3.476562 7.546875 7.679688-.035157 4.179687-3.4375 7.542968-7.609375 7.542968zm0 0" fill="#d9efec"/><path d="m216.285156 242.933594c0-24.828125-20.125-44.957032-44.953125-44.957032-16.597656 0-31.085937 9.003907-38.871093 22.382813-7.789063-13.378906-22.273438-22.382813-38.871094-22.382813-24.828125 0-44.957032 20.128907-44.957032 44.957032 0 62.910156 83.828126 117.082031 83.828126 117.082031s83.824218-54.171875 83.824218-117.082031zm0 0" fill="#f55"/><path d="m216.285156 242.933594c0 62.910156-83.832031 117.085937-83.832031 117.085937s-7.304687-4.722656-17.609375-13c24.585938-19.753906 66.21875-59.753906 66.21875-104.085937 0-18.578125-11.273438-34.523438-27.355469-41.375 5.414063-2.296875 11.367188-3.578125 17.625-3.578125 24.820313 0 44.953125 20.128906 44.953125 44.953125zm0 0" fill="#f72b2b"/><path d="m451.109375 386.207031c-4.203125 0-7.609375-3.410156-7.609375-7.613281v-119.699219c0-4.203125 3.40625-7.613281 7.609375-7.613281s7.613281 3.410156 7.613281 7.613281v119.699219c0 4.203125-3.410156 7.613281-7.613281 7.613281zm0 0" fill="#336686"/><path d="m288.632812 475.894531c-4.203124 0-7.613281-3.40625-7.613281-7.609375v-303.390625c0-4.203125 3.410157-7.609375 7.613281-7.609375 4.203126 0 7.613282 3.40625 7.613282 7.609375v303.390625c-.003906 4.203125-3.410156 7.609375-7.613282 7.609375zm0 0" fill="#d9efec"/><g fill="#f55"><path d="m19.257812 255.058594c-.019531 0-.039062 0-.054687 0l-11.648437-.089844c-4.203126-.03125-7.585938-3.464844-7.554688-7.667969.03125-4.183593 3.433594-7.554687 7.609375-7.554687h.058594l11.648437.089844c4.203125.03125 7.585938 3.464843 7.554688 7.667968-.03125 4.183594-3.433594 7.554688-7.613282 7.554688zm0 0"/><path d="m13.96875 288.703125c-2.652344 0-5.226562-1.386719-6.628906-3.855469-2.074219-3.65625-.789063-8.300781 2.867187-10.375l10.128907-5.75c3.65625-2.070312 8.300781-.789062 10.375 2.867188 2.074218 3.65625.792968 8.300781-2.863282 10.375l-10.128906 5.746094c-1.1875.671874-2.476562.992187-3.75.992187zm0 0"/><path d="m24.503906 227.234375c-1.308594 0-2.636718-.335937-3.847656-1.046875l-10.042969-5.902344c-3.625-2.128906-4.835937-6.792968-2.707031-10.417968 2.132812-3.621094 6.796875-4.835938 10.417969-2.707032l10.042969 5.898438c3.625 2.128906 4.835937 6.796875 2.707031 10.417968-1.417969 2.414063-3.960938 3.757813-6.570313 3.757813zm0 0"/><path d="m247.390625 255.058594c-4.179687 0-7.582031-3.371094-7.613281-7.554688-.03125-4.203125 3.351562-7.636718 7.554687-7.667968l11.648438-.089844h.058593c4.175782 0 7.578126 3.371094 7.609376 7.554687.03125 4.203125-3.351563 7.636719-7.554688 7.667969l-11.648438.089844c-.019531 0-.035156 0-.054687 0zm0 0"/><path d="m252.679688 288.703125c-1.273438 0-2.5625-.320313-3.75-.992187l-10.128907-5.746094c-3.65625-2.074219-4.9375-6.722656-2.863281-10.375 2.074219-3.660156 6.71875-4.941406 10.375-2.867188l10.128906 5.746094c3.65625 2.074219 4.941406 6.722656 2.867188 10.378906-1.402344 2.46875-3.976563 3.855469-6.628906 3.855469zm0 0"/><path d="m242.144531 227.234375c-2.613281 0-5.152343-1.339844-6.570312-3.753906-2.128907-3.625-.917969-8.289063 2.707031-10.417969l10.042969-5.902344c3.625-2.128906 8.289062-.914062 10.417969 2.710938 2.128906 3.621094.917968 8.289062-2.707032 10.417968l-10.042968 5.898438c-1.210938.710938-2.539063 1.046875-3.847657 1.046875zm0 0"/></g></svg>