<?xml version="1.0" encoding="utf-8"?>
<!-- Generator: Adobe Illustrator 22.0.1, SVG Export Plug-In . SVG Version: 6.00 Build 0)  -->
<svg version="1.1" id="Ñëîé_1" xmlns="http://www.w3.org/2000/svg" xmlns:xlink="http://www.w3.org/1999/xlink" x="0px" y="0px"
	 viewBox="0 0 8972.4 5824.4" style="enable-background:new 0 0 8972.4 5824.4;" xml:space="preserve">
<style type="text/css">
	.st0{clip-path:url(#SVGID_2_);fill:#3C3754;}
	.st1{clip-path:url(#SVGID_2_);}
	.st2{fill:#574370;}
	.st3{opacity:0.5;}
	.st4{fill:#453360;}
	.st5{clip-path:url(#SVGID_2_);fill:#91471D;}
	.st6{clip-path:url(#SVGID_2_);fill:#823B17;}
	.st7{fill:url(#SVGID_3_);}
	.st8{fill:#FFB689;}
	.st9{fill:#91471D;}
	.st10{opacity:0.9;fill:url(#SVGID_4_);}
	.st11{opacity:0.3;fill:#91471D;}
	.st12{fill:#E08451;}
	.st13{fill:none;stroke:#8E2403;stroke-width:11.5162;stroke-miterlimit:10;}
	.st14{fill:#B55445;}
	.st15{fill:#5B2E1D;}
	.st16{clip-path:url(#SVGID_2_);fill:#79679E;}
	.st17{clip-path:url(#SVGID_2_);fill:#5C4C87;}
	.st18{clip-path:url(#SVGID_2_);fill:#9C8CB5;}
	.st19{opacity:0.3;clip-path:url(#SVGID_2_);fill:#9C8CB5;}
	.st20{opacity:0.3;clip-path:url(#SVGID_2_);fill:#B4CEDC;stroke:#9C8CB5;stroke-width:11.6716;stroke-miterlimit:10;}
	.st21{opacity:0.2;clip-path:url(#SVGID_2_);fill:#B4CEDC;stroke:#9C8CB5;stroke-width:11.6716;stroke-miterlimit:10;}
	.st22{clip-path:url(#SVGID_2_);fill:#99C0CE;}
	.st23{opacity:0.4;clip-path:url(#SVGID_2_);fill:#79679E;}
	.st24{clip-path:url(#SVGID_2_);fill:#5E3A2A;}
	.st25{opacity:0.4;clip-path:url(#SVGID_2_);fill:#3F2C4F;}
	.st26{opacity:0.5;clip-path:url(#SVGID_2_);}
	.st27{fill:#7F386A;}
	.st28{opacity:0.7;}
	.st29{opacity:0.6;}
	.st30{fill:#8E438A;}
	.st31{opacity:0.5;fill:#3B1840;}
	.st32{opacity:0.7;fill:#8E438A;}
	.st33{fill:#693882;}
	.st34{fill:#4C4A70;}
	.st35{opacity:0.4;fill:#4C4A70;}
	.st36{fill:#E7493C;}
	.st37{fill:#F2714A;}
	.st38{fill:#A53924;}
	.st39{opacity:0.5;fill:#A53924;}
	.st40{opacity:0.3;fill:#A53924;}
	.st41{opacity:0.7;fill:#F2714A;}
	.st42{fill:#515191;}
	.st43{opacity:0.49;}
	.st44{fill:#3D387F;}
	.st45{fill:#8D4489;}
	.st46{opacity:0.7;fill:#6969A3;}
	.st47{fill:#3A183F;}
	.st48{opacity:0.5;fill:#3A183F;}
	.st49{opacity:0.3;fill:#3A183F;}
	.st50{opacity:0.42;fill:#CBCBEF;}
	.st51{fill:#693881;}
	.st52{fill:#873D1D;}
	.st53{opacity:0.3;fill:#873D1D;}
	.st54{opacity:0.3;}
	.st55{opacity:0.2;fill:#873D1D;}
	.st56{fill:#6D2D13;}
	.st57{opacity:0.5;fill:#6D2D13;}
	.st58{opacity:0.3;fill:#6D2D13;}
	.st59{fill:#EF5023;}
	.st60{opacity:0.7;fill:#EF5023;}
	.st61{opacity:0.5;fill:#EF5023;}
	.st62{opacity:0.7;fill:#EE4523;}
	.st63{fill:#FFFFFF;}
	.st64{fill:#FBC3A5;}
	.st65{fill:#5C2E10;}
	.st66{opacity:0.7;fill:#5C2E10;}
	.st67{fill:none;stroke:#EC2224;stroke-width:11.8204;stroke-linecap:round;stroke-miterlimit:10;}
	.st68{opacity:0.6;fill:#EF5023;}
	.st69{fill:#7C5249;}
	.st70{opacity:0.2;fill:#7C5249;}
	.st71{opacity:0.4;fill:#7C5249;}
	.st72{opacity:0.3;fill:#7C5249;}
	.st73{opacity:0.3;fill:#684035;}
	.st74{fill:#6D4741;}
	.st75{opacity:0.5;fill:#6D4741;}
	.st76{opacity:0.3;fill:#6D4741;}
	.st77{fill:#AF6654;}
	.st78{opacity:0.7;fill:#AF6654;}
	.st79{opacity:0.5;fill:#AF6654;}
	.st80{fill:#E8C6BF;}
	.st81{fill:#543429;}
	.st82{fill:#B5776B;}
	.st83{opacity:0.6;fill:#B5776B;}
	.st84{opacity:0.5;fill:#7C5249;}
	.st85{fill:#F5E9FF;}
	.st86{opacity:0.7;fill:#F5E9FF;}
	.st87{clip-path:url(#SVGID_2_);fill:#6F60A5;}
	.st88{clip-path:url(#SVGID_2_);fill:#8372B2;}
</style>
<g>
	<defs>
		<rect id="SVGID_1_" y="0" width="8972.4" height="5824.4"/>
	</defs>
	<clipPath id="SVGID_2_">
		<use xlink:href="#SVGID_1_"  style="overflow:visible;"/>
	</clipPath>
	<rect y="0" class="st0" width="8972.4" height="5824.4"/>
	<g class="st1">
		<path class="st2" d="M8658.8,3150.9c-2184.2-1317.6-4286.6-1326.8-6305.6-0.7c-63.4,41.6-103.3,121.1-103.2,208l0.3,1377.7
			c0,130.3,87.8,236,196.1,236l6126-1.3c108.3,0,196.1-105.7,196-236l-0.3-1372C8768,3272.7,8725.5,3191.1,8658.8,3150.9z"/>
		<g class="st3">
			<path class="st2" d="M2359.2,3146.2c-67.1,44-109.3,128.2-109.3,220.3l0.1,405.6c0-222.7,102.7-427.8,267.2-529.7
				c1915.5-1186.9,3905.7-1177.9,5969.1,4c172.3,98.7,281.7,308.6,281.7,538.2l-0.1-413.4c0-95.1-45-181.5-115.7-224.1
				C6472.7,1834.6,4374.4,1825.4,2359.2,3146.2z"/>
		</g>
		<path class="st4" d="M8486.3,3162c-2063.5-1182-4053.7-1190.9-5969.1-4c-164.5,101.9-267.3,307-267.2,529.7l0,84.4
			c0-222.7,102.7-427.8,267.2-529.7c1915.5-1186.9,3905.7-1177.9,5969.1,4c172.3,98.7,281.7,308.6,281.7,538.2l0-84.4
			C8768,3470.5,8658.6,3260.6,8486.3,3162z"/>
	</g>
	<path class="st5" d="M5801.4,4516.6c-6,2.3-12.4,4.7-18.8,7.1c-3.8,1.4-7.6,2.8-11.5,4.2c-2.2,0.8-4.4,1.6-6.6,2.4
		c-10.6,3.9-21.5,7.8-33,11.8c-25.3,8.9-52.7,18.1-81.5,27.2c-2.9,0.9-5.9,1.8-8.8,2.8c-10.8,3.4-21.9,6.7-33,10
		c-4,1.2-8,2.4-12,3.5c-14.2,4.1-28.6,8.2-43.2,12.1c-0.2,0-0.3,0.1-0.5,0.1c-21.9,5.8-44.2,11.3-66.7,16.5c0,0-0.1,0-0.1,0
		c-18.4,4.2-36.9,8-55.3,11.5c-2.1,0.4-4.2,0.8-6.2,1.1c-17.7,3.3-35.3,6.3-52.8,8.8c-0.7,0.1-1.3,0.2-2,0.3
		c-17.2,2.4-34.3,4.3-51.1,5.8c-3.7,0.3-7.3,0.6-10.9,0.9c-16.8,1.3-33.5,2.3-49.7,2.6h0c-8.2,0.1-16,0.2-23.6,0.2
		c-7.7,0-15.1-0.1-22.3-0.2c-1.2,0-2.4-0.1-3.6-0.1c-5.7-0.1-11.3-0.2-16.6-0.4c-0.9,0-1.8-0.1-2.7-0.1c-5.5-0.2-10.9-0.4-16.1-0.6
		c-0.9,0-1.7-0.1-2.6-0.2c-11.1-0.6-21.6-1.3-31.5-2.1c-21.4-1.8-40.1-4-57.6-6.4c-8.7-1.2-17.2-2.4-25.5-3.7
		c-16.2-2.4-32.1-4.8-48.8-6.8c-0.5-0.1-1-0.1-1.4-0.2l0,0c-99.6-12-157.9,32.1-314.2-43.4c-16.8-8.1-32.1-40-40.4-60.1
		c-2.2-9-4.3-15.7-6.5-17c52,5.9,114.7,18.7,246.9-32.2c150.2-57.8,134.9-252.6,126.7-321.4l0,0c0.6,4.1,1.1,8.2,1.7,12.2
		c0.5,3.4,0.9,6.8,1.3,10.2c0.8,6.7,1.6,13.1,2.3,19.4c0.3,2.3,0.5,4.7,0.7,7c0.8,7.4,1.4,14.5,2,21.3c0.1,1.1,0.2,2.3,0.3,3.4
		c0.3,4,0.6,7.9,0.9,11.7c0,0.2,0,0.4,0,0.6c0.5,7.2,0.9,13.9,1.2,20c0.1,1,0.1,1.9,0.1,2.9c0.2,5,0.4,9.6,0.6,13.7
		c0,1.1,0.1,2.2,0.1,3.3c0.1,3.1,0.2,5.8,0.2,8.3c0,1.4,0.1,2.8,0.1,4c0,1.3,0,2.4,0,3.5c0,1.6,0,3.1,0,4.1c0,0.6,0,1.1,0,1.4
		c0,0.4,0,1.1,0,1.1l0,0l0,0c0,0,27.9,8.6,68.7,18.5c40.8,9.9,94.4,21,145.9,26.2s122.3,5.6,180.3,4.7c57.9-0.9,103-3,103-3
		l46.5,8.5l108,19.9l212,9.9c0,59-36.2,111.9-91.3,133C5802,4516.4,5801.6,4516.5,5801.4,4516.6z"/>
	<path class="st6" d="M5454.2,4347.4l0.1,0c42.5-1,72.7-2.4,72.7-2.4l154.5,28.4l212,9.9c0,59-36.2,111.9-91.3,133
		c-125.9,48.1-358.5,126.4-544.8,129.2c-115.5,1.7-170.2-9.2-229-17.5c122.3-21.1,253-50.5,308.8-86.2
		C5454.9,4466.3,5454.2,4347.4,5454.2,4347.4z"/>
	<g class="st1">
		<g>
			
				<linearGradient id="SVGID_3_" gradientUnits="userSpaceOnUse" x1="2945.8403" y1="1956.4032" x2="2883.0886" y2="3255.7705" gradientTransform="matrix(0 -1 1 0 4161.7954 6777.7559)">
				<stop  offset="0" style="stop-color:#F5905B"/>
				<stop  offset="0.1252" style="stop-color:#F69662"/>
				<stop  offset="0.5397" style="stop-color:#F7A675"/>
				<stop  offset="0.8282" style="stop-color:#F8AC7C"/>
			</linearGradient>
			<path class="st7" d="M6020,4105c0,0,201.5-28.8,354.1-18.7c57.1,3.8,199,5.5,323.1,105.8c88.9,71.9,195.5,526.5,267.1,613
				c95.6,115.7,189.3,109.4,189.3,109.4l140-1931.4c0,0-261.9-213.1-342.6-115c-125.9,153-150.5,198.1-249.8,295.4
				c-156.2,153-263,148.7-329,151.2c-149.7,5.8-393.2-12.8-393.2-12.8L6020,4105z"/>
			<path class="st8" d="M4826.6,3177.7c0,0,1081-42.2,1069.5-49.9c-11.5-7.7,401.5,346.1,403.1,575.8
				c2.3,330.1-364.7,598.9-364.7,598.9s-1024.9-11.6-1024.9-0.1C4909.5,4314,4808.2,3179.3,4826.6,3177.7z"/>
			<path class="st9" d="M5070.7,4131.7c0,7.7,89.7,98.6,226,115.9c136.3,17.3,124.6,33.8,265,20.4c140.4-13.4,351-70.2,347.8-191.1
				c-3.8-145.9-88.2-255.4-88.2-255.4l26.9-28.8c0,0,103.1,162.6,197,169.2c82.5,5.8,123.7-26,135.1-63.6
				c21.2-70-46.1-102.7-61.5-117.1c-15.4-14.4-22.8-153.5-2.1-164.9c13.8-9.7,72.3-33.8,62.7-89.5c-9.6-55.7-98.2-116.5-178.5-110.1
				c-119,9.6-158,171.9-158,171.9l-30.3-17.2c0,0,32.1-115.3,18.7-215.1c-13.4-99.8-84.1-177.2-205.1-181.1
				c-120.9-3.8-311.8,4.5-311.8,4.5l-86.4-105.6c0,0,660.3-15.4,706.3,0s211.1,174.7,289.8,257.2c78.7,82.5,164.1,205.7,172.7,255.3
				c14,80.6,25,215-5.8,287.9s-117.1,191.9-201.5,274.5c-84.5,82.5-172.7,178.5-215,193.9c-20.3,7.4-223.5,28.9-441.4,35.5
				c-256,7.7-487.6-58.5-487.6-58.5L5070.7,4131.7z"/>
			
				<linearGradient id="SVGID_4_" gradientUnits="userSpaceOnUse" x1="2988.1694" y1="1413.0939" x2="3173.4897" y2="1413.0939" gradientTransform="matrix(0 -1 1 0 4161.7954 6777.7559)">
				<stop  offset="0" style="stop-color:#F75F2E"/>
				<stop  offset="1.667076e-02" style="stop-color:#F76231"/>
				<stop  offset="0.1902" style="stop-color:#FA8051"/>
				<stop  offset="0.3709" style="stop-color:#FC986A"/>
				<stop  offset="0.5597" style="stop-color:#FEA97B"/>
				<stop  offset="0.7618" style="stop-color:#FFB386"/>
				<stop  offset="1" style="stop-color:#FFB689"/>
			</linearGradient>
			<path class="st10" d="M5799.4,3622.4c0,0,30.7-30.7,49.1-12.3c18.4,18.4,40.9,153.5,18.4,173.9c-22.5,20.5-145.7-21.6-315.1-38.9
				c-120.7-12.3-278.3-8.2-278.3-8.2L5799.4,3622.4z"/>
			<path class="st9" d="M5348.7,3173.9c12.1-18-69.7-110.7-107.7-122.9c-77.2-24.9-205.3-27.2-220.7,3.5
				c-15.4,30.7-0.4,66.7-29.2,73.3c-34.7,7.9-57.6-58.3-206.3-28.7c-144,28.7-198,104.6-236.1,167c-53.9,88.2,69.1,882.2,238,1082.5
				c82.5,97.9,150.2,117.3,208.3,126.7c79.8,12.9,146.8,5.8,158.3-14.4c11.5-20.2-68.1-76.8-76.8-148.8s62.4-206.2,51.8-318.6
				c-17.3-184.3-303.9-353.2-216.9-609.4C4996.2,3134.4,5325.9,3207.9,5348.7,3173.9z"/>
			<path class="st11" d="M5076.5,4312.1c-8.6-72,62.4-206.2,51.8-318.6c-17.3-184.3-303.9-353.2-216.9-609.4
				c24.2-71.1,56.2-96.4,89.3-125.2c0,0-124.2-79.3-176.4,88.7c-52.2,168,148.9,422.8,191.1,547.6c42.2,124.8-53.3,303.9-37.9,407.5
				c15.4,103.6,151.8,170.7,175.7,158.3C5164.8,4440.7,5085.1,4384.1,5076.5,4312.1z"/>
			<path class="st11" d="M4628.2,3250.2c0,0-52.9,59.1-54.7,97.4c-8.6,180.5,83.5,276.7,115.2,409.2
				c31.7,132.5,40.5,358.5,60.5,433.5c58.3,218.8,193.7,210.2,193.7,210.2s-167-119.5-127.1-251.2c39.9-131.7,25.9-348.6-26.3-452.3
				s-173-263.7-169.9-343.1C4621,3317.9,4628.2,3250.2,4628.2,3250.2z"/>
			<path class="st11" d="M5030.7,3147c11.4-40.7,33.3-57.1,42.8-60.4c37.1-12.6,230.2,12.8,230.2,12.8s19.2,29.9,24.8,32.8
				c14.8,7.7-104.6-19.1-132.1-18c-122.6,5-170.8,73.1-170.8,73.1L5030.7,3147z"/>
			<path class="st9" d="M5273.4,3104.1"/>
			<path class="st11" d="M5934.4,3074.1c-21.2-7.1-171.8-7.6-328.6-6.2c136,23.8,264.6,50.4,290.2,59.9
				c160.2,59.5,404.9,382.9,422.2,422.1c17.3,39.2,23,168.1,24.3,275.4c1.2,107.3-324.1,414.1-375.5,450.3
				c-74.9,52.8-431.9,85.3-624.7,96.1c59.6,5.5,124.5,8.5,191.1,6.5c217.9-6.5,421.2-28.1,441.4-35.5
				c42.2-15.4,130.5-111.3,215-193.9c84.5-82.5,170.8-201.5,201.5-274.5c30.7-72.9,19.8-207.3,5.8-287.9
				c-8.6-49.5-94-172.7-172.7-255.3C6145.6,3248.8,5980.5,3089.4,5934.4,3074.1z"/>
			<path class="st8" d="M5364.4,3137.4c0,0-69.4-23.1-66.9-90.2c2.5-67.1,70.9-70.1,137.9-59.5c170.8,26.9,202,154.6,213.8,158.5
				c11.8,3.8-113.2-8.4-161.2-8.4C5440.1,3137.8,5364.4,3137.4,5364.4,3137.4z"/>
			<g>
				<path class="st12" d="M5555.2,3119.3c-4.8,0-8.7-3.8-8.9-8.6c-0.1-2.1-1.3-21-19.2-22.5c-12.9-1.1-15.8,2-20.2,6.7
					c-3.7,3.9-8.7,9.2-18.3,10.9c-35.4,6-109.9,1.5-121.9-35.6c-4.3-13.3-3.6-25.1,2.1-34.9c9.2-15.8,28.1-19.8,28.9-20
					c4.8-1,9.5,2.1,10.5,6.9c1,4.8-2.1,9.4-6.9,10.4c-0.2,0.1-12.1,2.7-17.2,11.6c-3,5.3-3.2,12.1-0.5,20.4
					c7.3,22.4,66,29.7,102.1,23.6c3.6-0.6,5.2-2.1,8.4-5.5c7-7.4,14.9-13.9,34.7-12.2c27.3,2.4,35.1,27,35.4,39.7
					c0.1,4.9-3.8,9-8.6,9.1C5555.3,3119.3,5555.2,3119.3,5555.2,3119.3z"/>
			</g>
			<path class="st8" d="M5364.4,4317c0,0-69.4,23.1-66.9,90.2c2.5,67.1,70.9,70.1,137.9,59.5c170.8-26.9,202-154.6,213.8-158.5
				s-113.2,8.4-161.2,8.4C5440.1,4316.6,5364.4,4317,5364.4,4317z"/>
			<g>
				<path class="st12" d="M5399.4,4439.3c-0.6,0-1.2-0.1-1.8-0.2c-0.8-0.2-19.7-4.2-28.9-20c-5.7-9.8-6.4-21.5-2.1-34.9
					c12-37.1,86.5-41.6,121.9-35.6c9.6,1.6,14.7,7,18.3,10.9c4.4,4.7,7.4,7.8,20.2,6.7c18-1.6,19.2-20.4,19.2-22.6
					c0.2-4.9,4.3-8.7,9.1-8.6c4.9,0.1,8.7,4.2,8.6,9c-0.3,12.7-8.1,37.4-35.4,39.7c-19.8,1.7-27.7-4.8-34.7-12.2
					c-3.2-3.4-4.8-4.9-8.4-5.5c-36.1-6.1-94.8,1.2-102.1,23.6c-2.7,8.3-2.5,15.1,0.5,20.4c5.1,8.9,17.1,11.6,17.2,11.6
					c4.8,1,7.8,5.7,6.8,10.5C5407.1,4436.4,5403.5,4439.3,5399.4,4439.3z"/>
			</g>
			<path class="st11" d="M6181.2,3895.9c-10.1,35.6-43.4,72-131.3,66.3v-0.8c0,0,56.6,17.4,99.3,0c27.1-11.1,73.5-63.1,47.7-123.3
				c-11.3-26.4-78.1-56.9-78.1-56.9C6134.2,3795.5,6200.4,3828.4,6181.2,3895.9z"/>
			<path class="st11" d="M6199.6,3551.1c16.6-60.5-10.8-106.3-57.6-122.8c-46.8-16.6-137.1-11.8-137.1-11.8s30.9-2.1,67.1,10.4
				c45,15.5,90.5,52.8,103.2,85.4c24.2,62.2-40.1,91.5-53.9,101.2C6121.3,3613.4,6183,3611.5,6199.6,3551.1z"/>
			<g>
				<path class="st13" d="M4963.2,3211.3"/>
			</g>
			<path class="st9" d="M5189.2,3553.1c27.5-33.3-16.9-56.1-14.9-126.7c2.5-88.9,42.7-169.7,31.4-173.9
				c-11.3-4.2-56.9,97.2-65.4,177.8C5131.8,3512.8,5149.8,3600.8,5189.2,3553.1z"/>
			<g>
				<path class="st13" d="M4951.9,3202.5"/>
			</g>
			<path class="st14" d="M5988.1,3805.5c-7.6-7.9,25-42.7,14.9-104.8c-16.9-104.2-76.8-133.6-71.4-145.1
				c8.5-18.1,88.6,47.2,107.7,129.9C6059.7,3772.9,5995.5,3813.1,5988.1,3805.5z"/>
			<path class="st9" d="M5189.2,3858.8c27.5,33.3-16.9,56.1-14.9,126.7c2.5,88.9,42.7,169.7,31.4,173.9
				c-11.3,4.2-56.9-97.2-65.4-177.8C5131.8,3899.1,5149.8,3811.1,5189.2,3858.8z"/>
		</g>
		<path class="st15" d="M5438.8,4106c-9.1-10.4,34.9-42,34.9-103.6c0-75.2-47.9-109.4-41.8-118.5s69.9,29.5,73.5,105.2
			C5509.6,4078,5447.9,4116.4,5438.8,4106z"/>
		<path class="st15" d="M5438.8,3336.7c-9.1,10.4,34.9,42,34.9,103.6c0,75.2-47.9,109.4-41.8,118.5c6.1,9.1,69.9-29.5,73.5-105.2
			C5509.6,3364.6,5447.9,3326.3,5438.8,3336.7z"/>
	</g>
	<path class="st16" d="M12042.9,6158.1v-522c0-217.3-176.2-393.5-393.5-393.5H3641.7c-217.3,0-393.5,176.2-393.5,393.5v522
		c0,217.3,176.2,393.5,393.5,393.5h8007.8C11866.8,6551.6,12042.9,6375.4,12042.9,6158.1z"/>
	<path class="st17" d="M11649.5,5242.7H3641.7c-217.3,0-393.5,176.2-393.5,393.5v278.1c0-217.3,176.2-393.5,393.5-393.5h8007.8
		c217.3,0,393.5,176.2,393.5,393.5v-278.1C12042.9,5418.8,11866.8,5242.7,11649.5,5242.7z"/>
	<path class="st18" d="M3640.6,5129.4c144.2,267.8,587.2,236.9,927.2,236.9c340,0,248.7-123.6,799.1-123.6s879.1,86.8,1122.2,89.3
		c341.7,3.4,664.5-140.8,664.5-429.2c0-288.5-87.9-789.5-422.4-785.1c-564,7.4-900.5,184.1-1247.1,218.5
		c-346.6,34.5-1032.7-256.9-1318-215.1C3647.5,4197,3496.4,4861.5,3640.6,5129.4z"/>
	<path class="st19" d="M6489.1,5332c-243.1-2.4-571.8-89.3-1122.2-89.3s-459.2,123.6-799.1,123.6c-340,0-782.9,30.9-927.2-236.9
		c-25.5-47.4-41.6-107.3-48.2-174c-11.2,123.8,5.3,238.6,48.2,318.2c144.2,267.8,587.2,236.9,927.2,236.9
		c340,0,248.7-123.6,799.1-123.6s879.1,86.8,1122.2,89.3c341.7,3.4,664.5-140.8,664.5-429.2c0-30.2-1-62.9-3.2-97
		C7117.1,5206.8,6811.6,5335.2,6489.1,5332z"/>
	<path class="st20" d="M6489.1,5175.6c-243.1-2.4-571.8-89.3-1122.2-89.3S4907.8,5210,4567.8,5210c-340,0-782.9,30.9-927.2-236.9
		c-24.8-46.1-40.6-104-47.6-168.5c-12.4,126.4,4,243.8,47.6,324.8c144.2,267.8,587.2,236.9,927.2,236.9
		c340,0,248.7-123.6,799.1-123.6s879.1,86.8,1122.2,89.3c341.7,3.4,664.5-140.8,664.5-429.2c0-32.5-1.2-67.7-3.6-104.6
		C7113.6,5052.1,6809.7,5178.8,6489.1,5175.6z"/>
	<path class="st21" d="M4166,4212.7c285.3-41.8,971.4,249.5,1318,215.1c346.6-34.5,683.1-211.2,1247.1-218.5
		c311.8-4.1,409.3,430.9,421.1,723.6c0.8-9.8,1.3-19.8,1.3-30.1c0-288.5-87.9-789.5-422.4-785.1c-564,7.4-900.5,184.1-1247.1,218.5
		c-346.6,34.5-1032.7-256.9-1318-215.1c-415,60.8-594.4,498.4-575.7,808.1C3608,4631.1,3790.6,4267.7,4166,4212.7z"/>
	<path class="st22" d="M12042.9,3619.2c0,0-1184.7-792.7-1782.2-833.9c-597.5-41.2-754.8,136-1099.4,112.2
		c-576.9-39.9-625.8-154-961.4-172.8c-526.2-29.5-1195.4,194.4-1303.2,609.5c-88.3,339.9-27.4,549.3-83.5,728.1
		c-82.1,261.9-174.2,313.6-133.6,655.2c41.9,352.4,459.6,476.3,773.4,543.9c830.6,178.9,4589.9-75.7,4589.9-75.7V3619.2z"/>
	<path class="st23" d="M7453.1,5261.4c-313.7-67.6-731.4-191.5-773.4-543.9c-4.7-39.7-7.6-75.4-9-108.1c-2.5,52.8-0.1,114.5,9,190.5
		c41.9,352.4,459.6,476.3,773.4,543.9c830.6,178.9,4589.9-75.7,4589.9-75.7v-82.4C12042.9,5185.6,8283.7,5440.3,7453.1,5261.4z"/>
	<path class="st24" d="M0,6607.6h4117.3V5235.9c0-196.6-159.4-356-356-356H0V6607.6z"/>
	<path class="st25" d="M0,6607.6h4117.3V5235.9c0-196.6-159.4-356-356-356H0V6607.6z"/>
	<g class="st26">
		<path class="st27" d="M2244.2,1734.5l-279.3-340.1l0,0c-47.9-58.8-119.4-92.4-196.6-82.4c-110.6,14.3-197.9,118.5-203.1,243.3
			c-3.1,73.7,20.9,140.2,61.4,188.9l-0.7,0.7l279.3,340.1c-48.8,229.4,28,525.9,216.6,770.3c12.1,15.6,33.3,17.2,46.8,3.1
			l741.2-766.4c13.6-14,13.9-37.8,1-52.6C2709.1,1808.7,2452,1698.7,2244.2,1734.5z"/>
		<g class="st28">
			<path class="st27" d="M1565.2,1555.3c5.2-124.7,92.6-229,203.1-243.3c77.1-9.9,148.7,23.6,196.6,82.4l0,0l21.5,26.2
				c-0.7,0.7-1.4,1.4-2.1,2.1c-47.1-47.9-111.8-74-180.9-65.1c-110.6,14.3-197.9,118.5-203.1,243.3c-2.8,66,16.3,126.1,49.3,172.9
				l-23.7-28.9l0.7-0.7C1586.1,1695.5,1562.1,1629,1565.2,1555.3z"/>
		</g>
		<g class="st29">
			<path class="st30" d="M2214,1698.2l-256.2-311.9c2.4,2.7,4.8,5.4,7,8.2l0,0l249.5,303.7C2214.3,1698.2,2214.1,1698.2,2214,1698.2
				z"/>
			<path class="st27" d="M2138.5,2822.2l741.2-766.4c11-11.4,13.2-29.1,6.8-43.3c8.2,8.8,16.4,17.8,24.4,27
				c12.9,14.8,12.5,38.6-1,52.6l-741.2,766.4c-13.6,14-34.7,12.5-46.8-3.1c-7.2-9.3-14.1-18.7-21-28.1
				C2112.8,2834.5,2128,2833.1,2138.5,2822.2z"/>
		</g>
		<g>
			<g>
				<path class="st27" d="M1915.6,1941.1c-5.7,0-11.5-2.6-15.7-7.7l-184.8-224.9c-8-9.7-7.4-24.8,1.2-33.8c8.7-9,22.1-8.3,30.1,1.4
					l184.8,224.9c8,9.7,7.4,24.8-1.2,33.8C1926,1939,1920.8,1941.1,1915.6,1941.1z"/>
			</g>
		</g>
		<path class="st31" d="M1716,1675.2c-3,8.3-1.7,18.1,4,25.1l184.8,224.9c4.2,5.1,9.9,7.7,15.7,7.7c5.2,0,10.3-2.1,14.4-6.3
			c0.2-0.2,0.3-0.4,0.4-0.5c-1.1,3.2-2.9,6.2-5.3,8.7c-4.1,4.2-9.3,6.3-14.4,6.3c-5.7,0-11.5-2.6-15.7-7.7l-184.8-224.9
			C1707.4,1698.9,1707.8,1684.2,1716,1675.2z"/>
		<g>
			<g>
				<path class="st27" d="M2008.3,1845.3c-5.7,0-11.5-2.6-15.7-7.7l-184.8-224.9c-8-9.7-7.4-24.8,1.2-33.8c8.7-9,22.1-8.3,30.1,1.4
					l184.8,224.9c8,9.7,7.4,24.8-1.2,33.8C2018.6,1843.2,2013.5,1845.3,2008.3,1845.3z"/>
			</g>
		</g>
		<g>
			<g>
				<path class="st27" d="M2101,1749.4c-5.7,0-11.5-2.6-15.7-7.7l-184.8-224.9c-8-9.7-7.4-24.8,1.2-33.8c8.7-9,22.1-8.3,30.1,1.4
					l184.8,224.9c8,9.7,7.4,24.8-1.2,33.8C2111.3,1747.4,2106.1,1749.4,2101,1749.4z"/>
			</g>
		</g>
		<path class="st27" d="M1908.4,4610.6h-93.7v-113c0-17.7,14.3-32,32-32h29.7c17.7,0,32,14.3,32,32V4610.6z"/>
		<path class="st27" d="M1844.9,4465.6h33.3c16.7,0,30.2,15.2,30.2,33.9v20c0-18.7-13.5-33.9-30.2-33.9h-33.3
			c-16.7,0-30.2,15.2-30.2,33.9v-20C1814.7,4480.8,1828.2,4465.6,1844.9,4465.6z"/>
		<path class="st27" d="M1724.7,1836.6L683.4,2988.9L814,3137.5l1041.3-1152.3L1724.7,1836.6z M925.2,2935
			c-16.7,18.5-43.7,18.3-60.2-0.5c-16.5-18.8-16.3-49.1,0.4-67.6l315.4-349c16.7-18.5,43.7-18.3,60.2,0.5
			c16.5,18.8,16.3,49.1-0.4,67.6L925.2,2935z M1370,2442.8c-16.7,18.5-43.7,18.3-60.2-0.5c-16.5-18.8-16.3-49.1,0.4-67.6l315.4-349
			c16.7-18.5,43.7-18.3,60.2,0.5c16.5,18.8,16.3,49.1-0.4,67.6L1370,2442.8z"/>
		<path class="st27" d="M1459.2,4591L786.8,3133.8l-165.2,96L1294,4687L1459.2,4591z M761,3408.9c-10.8-23.4-2.6-52.3,18.2-64.4
			c20.9-12.1,46.6-3,57.4,20.5l203.7,441.4c10.8,23.4,2.6,52.3-18.2,64.4c-20.9,12.1-46.6,3-57.4-20.5L761,3408.9z M1048.3,4031.4
			c-10.8-23.4-2.6-52.3,18.2-64.4c20.9-12.1,46.6-3,57.4,20.5l203.7,441.4c10.8,23.4,2.6,52.3-18.2,64.4s-46.6,3-57.4-20.5
			L1048.3,4031.4z"/>
		<path class="st27" d="M2009.1,4586.7h-910c-102.8,0-186.1,83.3-186.1,186.1v119.8h1282.2v-119.8
			C2195.2,4670,2111.9,4586.7,2009.1,4586.7z"/>
		<path class="st27" d="M1088.7,4586.7h930.8c97,0,175.7,88.3,175.7,197.1v43.6c0-108.9-78.7-197.1-175.7-197.1h-930.8
			c-97,0-175.7,88.3-175.7,197.1v-43.6C913,4675,991.7,4586.7,1088.7,4586.7z"/>
		<polygon class="st32" points="1838.5,2003.7 1712.4,1850.2 1668.3,1899 1793.3,2053.8 		"/>
		<path class="st27" d="M908.6,3033.2c0,0,18.5-23.8-40-95c-58.5-71.2-86.1-58.6-86.1-58.6l-44.1,48.8l125,154.8L908.6,3033.2z"/>
		<path class="st27" d="M682.8,3362.7c0,0,15.4,26.4,92.3-17.6c76.9-44,77.3-69,77.3-69l-33.8-69.1L652,3300.3L682.8,3362.7z"/>
		<path class="st31" d="M1809.5,1579.4c-3,8.3-1.7,18.1,4,25.1l184.8,224.9c4.2,5.1,9.9,7.7,15.7,7.7c5.2,0,10.3-2.1,14.4-6.3
			c0.2-0.2,0.3-0.4,0.4-0.5c-1.1,3.2-2.9,6.2-5.3,8.7c-4.1,4.2-9.3,6.3-14.4,6.3c-5.7,0-11.5-2.6-15.7-7.7l-184.8-224.9
			C1800.8,1603.1,1801.3,1588.4,1809.5,1579.4z"/>
		<path class="st31" d="M1902.2,1483.6c-3,8.3-1.7,18.1,4,25.1l184.8,224.9c4.2,5.1,9.9,7.7,15.7,7.7c5.2,0,10.3-2.1,14.4-6.3
			c0.2-0.2,0.3-0.4,0.4-0.5c-1.1,3.2-2.9,6.2-5.3,8.7c-4.1,4.2-9.3,6.3-14.4,6.3c-5.7,0-11.5-2.6-15.7-7.7l-184.8-224.9
			C1893.5,1507.3,1894,1492.6,1902.2,1483.6z"/>
		<ellipse class="st27" cx="701.5" cy="3117.6" rx="181.8" ry="203.9"/>
		<path class="st33" d="M701.5,2943.4c-95.9,0-174.3,83.4-181.1,189.1c-0.3-4.9-0.7-9.8-0.7-14.9c0-112.6,81.4-203.9,181.8-203.9
			c100.4,0,181.7,91.3,181.7,203.9c0,5-0.4,9.9-0.7,14.9C875.8,3026.8,797.4,2943.4,701.5,2943.4z"/>
		<ellipse class="st27" cx="701.5" cy="3117.6" rx="107.9" ry="121.1"/>
		<path class="st27" d="M701.5,3223.2c57.3,0,104-50.1,107.6-113.3c0.1,2.6,0.4,5.2,0.4,7.8c0,66.9-48.3,121.1-107.9,121.1
			c-59.6,0-107.9-54.2-107.9-121.1c0-2.6,0.2-5.2,0.4-7.8C597.5,3173.1,644.2,3223.2,701.5,3223.2z"/>
		<polygon class="st27" points="1457.2,4586.7 1427.4,4522 1217.9,4522 1247.8,4586.7 		"/>
	</g>
	<path class="st16" d="M12042.9,3619.2c0,0-1184.7-792.7-1782.2-833.9c-597.5-41.2-754.8,136-1099.4,112.2
		c-576.9-39.9-626.5-144.3-961.4-172.8c-635.4-54.1-1454.8-167.9-1562.5,247.2c-88.3,339.9,68.7,506.2-13.7,969.7
		c-48,270.2,15.4,434.4,56,775.9c41.9,352.4,459.6,476.3,773.4,543.9c830.6,178.9,4589.9-75.7,4589.9-75.7V3619.2z"/>
	<g class="st1">
		<g>
			<ellipse class="st34" cx="2469.7" cy="2412.1" rx="198.2" ry="222.3"/>
			<path class="st35" d="M2585.2,2549.7c73.8-76.3,84-200.9,28-290.7c0.7,0.9,1.5,1.6,2.3,2.5c74.2,90.3,69.1,231-11.4,314.2
				c-80.5,83.2-205.8,77.5-280-12.8c-6.1-7.5-11.5-15.4-16.6-23.4C2381.9,2627.1,2505.5,2632.1,2585.2,2549.7z"/>
			<path class="st36" d="M2238.2,1736.7l-278.4-338.9l0,0c-47.7-58.6-119-92-195.9-82.1c-110.2,14.2-197.2,118.1-202.4,242.4
				c-3.1,73.4,20.9,139.7,61.2,188.3l-0.7,0.7l278.4,338.9c-48.6,228.7,27.9,524.1,215.9,767.7c12,15.6,33.1,17.1,46.7,3.1
				l738.6-763.7c13.5-14,13.9-37.7,1-52.4C2701.5,1810.5,2445.3,1700.9,2238.2,1736.7z"/>
			<g class="st28">
				<path class="st36" d="M1561.5,1558.1c5.2-124.3,92.2-228.2,202.4-242.4c76.9-9.9,148.2,23.5,195.9,82.1l0,0l21.4,26.1
					c-0.7,0.7-1.4,1.4-2.1,2.1c-47-47.7-111.4-73.7-180.3-64.8c-110.2,14.2-197.2,118.1-202.4,242.4
					c-2.8,65.7,16.3,125.6,49.2,172.3l-23.7-28.8l0.7-0.7C1582.3,1697.8,1558.4,1631.5,1561.5,1558.1z"/>
			</g>
			<g class="st29">
				<path class="st37" d="M2208.1,1700.5l-255.3-310.8c2.4,2.7,4.7,5.3,7,8.1l0,0l248.6,302.7
					C2208.3,1700.4,2208.2,1700.5,2208.1,1700.5z"/>
				<path class="st37" d="M2132.8,2820.6l738.6-763.7c11-11.3,13.1-29,6.8-43.1c8.2,8.8,16.3,17.7,24.4,26.9
					c12.9,14.7,12.5,38.5-1,52.4l-738.6,763.7c-13.5,14-34.6,12.5-46.7-3.1c-7.1-9.3-14.1-18.6-20.9-28
					C2107.2,2832.9,2122.3,2831.5,2132.8,2820.6z"/>
			</g>
			<g>
				<g>
					<path class="st38" d="M1910.7,1942.5c-5.7,0-11.4-2.6-15.6-7.7L1711,1710.7c-7.9-9.7-7.4-24.7,1.2-33.7c8.6-8.9,22-8.3,30,1.4
						l184.1,224.2c7.9,9.7,7.4,24.7-1.2,33.7C1921,1940.4,1915.9,1942.5,1910.7,1942.5z"/>
				</g>
			</g>
			<path class="st39" d="M1711.8,1677.5c-2.9,8.3-1.7,18,4,25l184.1,224.2c4.2,5.1,9.9,7.7,15.6,7.7c5.1,0,10.3-2.1,14.4-6.3
				c0.2-0.2,0.3-0.4,0.4-0.5c-1.1,3.2-2.8,6.2-5.3,8.7c-4.1,4.2-9.2,6.3-14.4,6.3c-5.7,0-11.4-2.6-15.6-7.7L1711,1710.7
				C1703.2,1701.2,1703.6,1686.5,1711.8,1677.5z"/>
			<g>
				<g>
					<path class="st38" d="M2003.1,1847c-5.7,0-11.4-2.6-15.6-7.7l-184.1-224.1c-7.9-9.7-7.4-24.7,1.2-33.7c8.6-8.9,22.1-8.3,30,1.4
						l184.1,224.1c7.9,9.7,7.4,24.7-1.2,33.7C2013.4,1844.9,2008.2,1847,2003.1,1847z"/>
				</g>
			</g>
			<g>
				<g>
					<path class="st38" d="M2095.4,1751.5c-5.7,0-11.4-2.6-15.6-7.7l-184.1-224.1c-7.9-9.7-7.4-24.7,1.2-33.7
						c8.6-8.9,22.1-8.3,30,1.4l184.1,224.1c7.9,9.7,7.4,24.7-1.2,33.7C2105.7,1749.4,2100.6,1751.5,2095.4,1751.5z"/>
				</g>
			</g>
			<path class="st38" d="M1903.5,4602.9h-93.4v-112.6c0-17.6,14.3-31.9,31.9-31.9h29.6c17.6,0,31.9,14.3,31.9,31.9V4602.9z"/>
			<path class="st40" d="M1840.2,4458.4h33.2c16.6,0,30.1,15.1,30.1,33.8v19.9c0-18.6-13.5-33.8-30.1-33.8h-33.2
				c-16.6,0-30.1,15.1-30.1,33.8v-19.9C1810.1,4473.6,1823.6,4458.4,1840.2,4458.4z"/>
			<path class="st36" d="M1720.4,1838.4L682.7,2986.8l130.2,148.1l1037.7-1148.4L1720.4,1838.4z M923.6,2933
				c-16.7,18.5-43.6,18.3-60-0.5c-16.5-18.7-16.3-48.9,0.4-67.4l314.3-347.8c16.7-18.5,43.6-18.3,60,0.5
				c16.5,18.7,16.3,48.9-0.4,67.4L923.6,2933z M1366.9,2442.5c-16.7,18.5-43.6,18.3-60-0.5c-16.5-18.7-16.3-48.9,0.4-67.4
				l314.3-347.8c16.7-18.5,43.6-18.3,60,0.5c16.5,18.7,16.3,48.9-0.4,67.4L1366.9,2442.5z"/>
			<path class="st36" d="M1455.8,4583.4L785.7,3131.2l-164.6,95.6L1291.2,4679L1455.8,4583.4z M760,3405.3
				c-10.8-23.4-2.6-52.1,18.2-64.2c20.8-12.1,46.4-3,57.2,20.4l203,439.9c10.8,23.4,2.6,52.1-18.2,64.2c-20.8,12.1-46.4,3-57.2-20.4
				L760,3405.3z M1046.3,4025.7c-10.8-23.4-2.6-52.1,18.2-64.2c20.8-12.1,46.4-3,57.2,20.4l203,439.9c10.8,23.4,2.6,52.1-18.2,64.2
				c-20.8,12.1-46.4,3-57.2-20.4L1046.3,4025.7z"/>
			<path class="st36" d="M2003.8,4579.1H1097c-102.4,0-185.5,83-185.5,185.5v119.3h1277.8v-119.3
				C2189.3,4662.1,2106.3,4579.1,2003.8,4579.1z"/>
			<path class="st36" d="M1086.6,4579.1h927.6c96.7,0,175.1,88,175.1,196.5v43.4c0-108.5-78.4-196.5-175.1-196.5h-927.6
				c-96.7,0-175.1,88-175.1,196.5v-43.4C911.5,4667.1,989.9,4579.1,1086.6,4579.1z"/>
			<polygon class="st41" points="1833.8,2005 1708.1,1851.9 1664.2,1900.6 1788.7,2054.8 			"/>
			<path class="st36" d="M907.1,3030.9c0,0,18.4-23.7-39.9-94.6c-58.3-71-85.8-58.4-85.8-58.4l-43.9,48.6L862,3080.8L907.1,3030.9z"
				/>
			<path class="st36" d="M682.1,3359.2c0,0,15.4,26.3,92-17.6c76.6-43.9,77-68.8,77-68.8l-33.7-68.8l-166,93L682.1,3359.2z"/>
			<path class="st39" d="M1804.9,1582.1c-2.9,8.3-1.7,18,4,25l184.1,224.2c4.2,5.1,9.9,7.7,15.6,7.7c5.1,0,10.3-2.1,14.4-6.3
				c0.2-0.2,0.3-0.4,0.4-0.5c-1.1,3.2-2.8,6.2-5.3,8.7c-4.1,4.2-9.2,6.3-14.4,6.3c-5.7,0-11.4-2.6-15.6-7.7l-184.1-224.2
				C1796.3,1605.7,1796.7,1591,1804.9,1582.1z"/>
			<path class="st39" d="M1897.3,1486.6c-2.9,8.3-1.7,18,4,25l184.1,224.2c4.2,5.1,9.9,7.7,15.6,7.7c5.1,0,10.3-2.1,14.4-6.3
				c0.2-0.2,0.3-0.4,0.4-0.5c-1.1,3.2-2.8,6.2-5.3,8.7c-4.1,4.2-9.2,6.3-14.4,6.3c-5.7,0-11.4-2.6-15.6-7.7l-184.1-224.2
				C1888.6,1510.2,1889.1,1495.5,1897.3,1486.6z"/>
			<ellipse class="st36" cx="700.7" cy="3115" rx="181.1" ry="203.2"/>
			<path class="st36" d="M700.7,2941.4c-95.6,0-173.7,83.1-180.5,188.4c-0.3-4.9-0.7-9.8-0.7-14.8c0-112.2,81.1-203.2,181.1-203.2
				c100,0,181.1,91,181.1,203.2c0,5-0.3,9.9-0.7,14.8C874.4,3024.6,796.3,2941.4,700.7,2941.4z"/>
			<ellipse class="st38" cx="700.7" cy="3115" rx="107.5" ry="120.7"/>
			<path class="st39" d="M700.7,3220.2c57.1,0,103.6-49.9,107.2-112.9c0.1,2.6,0.3,5.1,0.3,7.8c0,66.6-48.2,120.7-107.5,120.7
				c-59.4,0-107.5-54-107.5-120.7c0-2.6,0.2-5.2,0.3-7.8C597.1,3170.3,643.6,3220.2,700.7,3220.2z"/>
			<polygon class="st36" points="1453.8,4579.1 1424.1,4514.6 1215.3,4514.6 1245.1,4579.1 			"/>
		</g>
		<g class="st3">
			<path class="st42" d="M2238.2,1736.7l-278.4-338.9l0,0c-47.7-58.6-119-92-195.9-82.1c-110.2,14.2-197.2,118.1-202.4,242.4
				c-3.1,73.4,20.9,139.7,61.2,188.3l-0.7,0.7l278.4,338.9c-48.6,228.7,27.9,524.1,215.9,767.7c12,15.6,33.1,17.1,46.7,3.1
				l738.6-763.7c13.5-14,13.9-37.7,1-52.4C2701.5,1810.5,2445.3,1700.9,2238.2,1736.7z"/>
			<g class="st43">
				<path class="st44" d="M1561.5,1558.1c5.2-124.3,92.2-228.2,202.4-242.4c76.9-9.9,148.2,23.5,195.9,82.1l0,0l21.4,26.1
					c-0.7,0.7-1.4,1.4-2.1,2.1c-47-47.7-111.4-73.7-180.3-64.8c-110.2,14.2-197.2,118.1-202.4,242.4
					c-2.8,65.7,16.3,125.6,49.2,172.3l-23.7-28.8l0.7-0.7C1582.3,1697.8,1558.4,1631.5,1561.5,1558.1z"/>
			</g>
			<g class="st29">
				<path class="st45" d="M2208.1,1700.5l-255.3-310.8c2.4,2.7,4.7,5.3,7,8.1l0,0l248.6,302.7
					C2208.3,1700.4,2208.2,1700.5,2208.1,1700.5z"/>
				<path class="st46" d="M2132.8,2820.6l738.6-763.7c11-11.3,13.1-29,6.8-43.1c8.2,8.8,16.3,17.7,24.4,26.9
					c12.9,14.7,12.5,38.5-1,52.4l-738.6,763.7c-13.5,14-34.6,12.5-46.7-3.1c-7.1-9.3-14.1-18.6-20.9-28
					C2107.2,2832.9,2122.3,2831.5,2132.8,2820.6z"/>
			</g>
			<g>
				<g>
					<path class="st47" d="M1910.7,1942.5c-5.7,0-11.4-2.6-15.6-7.7L1711,1710.7c-7.9-9.7-7.4-24.7,1.2-33.7c8.6-8.9,22-8.3,30,1.4
						l184.1,224.2c7.9,9.7,7.4,24.7-1.2,33.7C1921,1940.4,1915.9,1942.5,1910.7,1942.5z"/>
				</g>
			</g>
			<path class="st48" d="M1711.8,1677.5c-2.9,8.3-1.7,18,4,25l184.1,224.2c4.2,5.1,9.9,7.7,15.6,7.7c5.1,0,10.3-2.1,14.4-6.3
				c0.2-0.2,0.3-0.4,0.4-0.5c-1.1,3.2-2.8,6.2-5.3,8.7c-4.1,4.2-9.2,6.3-14.4,6.3c-5.7,0-11.4-2.6-15.6-7.7L1711,1710.7
				C1703.2,1701.2,1703.6,1686.5,1711.8,1677.5z"/>
			<g>
				<g>
					<path class="st47" d="M2003.1,1847c-5.7,0-11.4-2.6-15.6-7.7l-184.1-224.1c-7.9-9.7-7.4-24.7,1.2-33.7c8.6-8.9,22.1-8.3,30,1.4
						l184.1,224.1c7.9,9.7,7.4,24.7-1.2,33.7C2013.4,1844.9,2008.2,1847,2003.1,1847z"/>
				</g>
			</g>
			<g>
				<g>
					<path class="st47" d="M2095.4,1751.5c-5.7,0-11.4-2.6-15.6-7.7l-184.1-224.1c-7.9-9.7-7.4-24.7,1.2-33.7
						c8.6-8.9,22.1-8.3,30,1.4l184.1,224.1c7.9,9.7,7.4,24.7-1.2,33.7C2105.7,1749.4,2100.6,1751.5,2095.4,1751.5z"/>
				</g>
			</g>
			<path class="st47" d="M1903.5,4602.9h-93.4v-112.6c0-17.6,14.3-31.9,31.9-31.9h29.6c17.6,0,31.9,14.3,31.9,31.9V4602.9z"/>
			<path class="st49" d="M1840.2,4458.4h33.2c16.6,0,30.1,15.1,30.1,33.8v19.9c0-18.6-13.5-33.8-30.1-33.8h-33.2
				c-16.6,0-30.1,15.1-30.1,33.8v-19.9C1810.1,4473.6,1823.6,4458.4,1840.2,4458.4z"/>
			<path class="st42" d="M1720.4,1838.4L682.7,2986.8l130.2,148.1l1037.7-1148.4L1720.4,1838.4z M923.6,2933
				c-16.7,18.5-43.6,18.3-60-0.5c-16.5-18.7-16.3-48.9,0.4-67.4l314.3-347.8c16.7-18.5,43.6-18.3,60,0.5
				c16.5,18.7,16.3,48.9-0.4,67.4L923.6,2933z M1366.9,2442.5c-16.7,18.5-43.6,18.3-60-0.5c-16.5-18.7-16.3-48.9,0.4-67.4
				l314.3-347.8c16.7-18.5,43.6-18.3,60,0.5c16.5,18.7,16.3,48.9-0.4,67.4L1366.9,2442.5z"/>
			<path class="st42" d="M1455.8,4583.4L785.7,3131.2l-164.6,95.6L1291.2,4679L1455.8,4583.4z M760,3405.3
				c-10.8-23.4-2.6-52.1,18.2-64.2c20.8-12.1,46.4-3,57.2,20.4l203,439.9c10.8,23.4,2.6,52.1-18.2,64.2c-20.8,12.1-46.4,3-57.2-20.4
				L760,3405.3z M1046.3,4025.7c-10.8-23.4-2.6-52.1,18.2-64.2c20.8-12.1,46.4-3,57.2,20.4l203,439.9c10.8,23.4,2.6,52.1-18.2,64.2
				c-20.8,12.1-46.4,3-57.2-20.4L1046.3,4025.7z"/>
			<path class="st42" d="M2003.8,4579.1H1097c-102.4,0-185.5,83-185.5,185.5v119.3h1277.8v-119.3
				C2189.3,4662.1,2106.3,4579.1,2003.8,4579.1z"/>
			<path class="st50" d="M1086.6,4579.1h927.6c96.7,0,175.1,88,175.1,196.5v43.4c0-108.5-78.4-196.5-175.1-196.5h-927.6
				c-96.7,0-175.1,88-175.1,196.5v-43.4C911.5,4667.1,989.9,4579.1,1086.6,4579.1z"/>
			<polygon class="st46" points="1833.8,2005 1708.1,1851.9 1664.2,1900.6 1788.7,2054.8 			"/>
			<path class="st46" d="M907.1,3030.9c0,0,18.4-23.7-39.9-94.6c-58.3-71-85.8-58.4-85.8-58.4l-43.9,48.6L862,3080.8L907.1,3030.9z"
				/>
			<path class="st46" d="M682.1,3359.2c0,0,15.4,26.3,92-17.6c76.6-43.9,77-68.8,77-68.8l-33.7-68.8l-166,93L682.1,3359.2z"/>
			<path class="st48" d="M1804.9,1582.1c-2.9,8.3-1.7,18,4,25l184.1,224.2c4.2,5.1,9.9,7.7,15.6,7.7c5.1,0,10.3-2.1,14.4-6.3
				c0.2-0.2,0.3-0.4,0.4-0.5c-1.1,3.2-2.8,6.2-5.3,8.7c-4.1,4.2-9.2,6.3-14.4,6.3c-5.7,0-11.4-2.6-15.6-7.7l-184.1-224.2
				C1796.3,1605.7,1796.7,1591,1804.9,1582.1z"/>
			<path class="st48" d="M1897.3,1486.6c-2.9,8.3-1.7,18,4,25l184.1,224.2c4.2,5.1,9.9,7.7,15.6,7.7c5.1,0,10.3-2.1,14.4-6.3
				c0.2-0.2,0.3-0.4,0.4-0.5c-1.1,3.2-2.8,6.2-5.3,8.7c-4.1,4.2-9.2,6.3-14.4,6.3c-5.7,0-11.4-2.6-15.6-7.7l-184.1-224.2
				C1888.6,1510.2,1889.1,1495.5,1897.3,1486.6z"/>
			<ellipse class="st42" cx="700.7" cy="3115" rx="181.1" ry="203.2"/>
			<path class="st51" d="M700.7,2941.4c-95.6,0-173.7,83.1-180.5,188.4c-0.3-4.9-0.7-9.8-0.7-14.8c0-112.2,81.1-203.2,181.1-203.2
				c100,0,181.1,91,181.1,203.2c0,5-0.3,9.9-0.7,14.8C874.4,3024.6,796.3,2941.4,700.7,2941.4z"/>
			<ellipse class="st47" cx="700.7" cy="3115" rx="107.5" ry="120.7"/>
			<path class="st48" d="M700.7,3220.2c57.1,0,103.6-49.9,107.2-112.9c0.1,2.6,0.3,5.1,0.3,7.8c0,66.6-48.2,120.7-107.5,120.7
				c-59.4,0-107.5-54-107.5-120.7c0-2.6,0.2-5.2,0.3-7.8C597.1,3170.3,643.6,3220.2,700.7,3220.2z"/>
			<polygon class="st46" points="1453.8,4579.1 1424.1,4514.6 1215.3,4514.6 1245.1,4579.1 			"/>
		</g>
	</g>
	<g class="st1">
		<g>
			<path class="st52" d="M3225.7,4181.5c0,0,2.8-4.6,7.8-12.6c5.1-7.9,12.3-19.3,21-32.9c8.9-13.5,19.3-29.2,30.4-46.1
				c11-16.9,23.5-34.6,35.6-52.4c12.3-17.7,24.3-35.6,36.1-52.1c11.7-16.5,23-31.7,32.9-44.5c19.7-25.7,34.3-42,34.3-42
				c9.1-10.2,8.2-25.8-1.9-34.8c-10.2-9.1-25.8-8.2-34.8,1.9c-1.7,1.9-3.1,4.2-4.1,6.4c0,0-8.9,19.9-24.3,48.4
				c-7.7,14.3-16.9,30.8-27.2,48.2c-10.2,17.5-21.7,35.7-32.8,54.2c-11.3,18.4-22.3,36.9-33.2,53.9c-10.8,17.1-21,33-29.6,46.6
				c-8.9,13.5-16.3,24.8-21.5,32.6c-5.3,7.8-8.3,12.3-8.3,12.3c-3.7,5.4-2.3,12.8,3.1,16.4c5.4,3.7,12.8,2.3,16.4-3.1
				C3225.5,4181.8,3225.6,4181.6,3225.7,4181.5z"/>
			<polygon class="st53" points="3259.3,4128.6 3243.2,4111.8 3254.2,4094.9 3273.2,4107.6 			"/>
			<g>
				<path class="st52" d="M3257,4871.4l-81.3-83.1c-21-21.5-20.6-55.9,0.8-76.9c21.5-21,55.9-20.6,76.9,0.8
					c5.8,5.9,10,13.1,12.6,20.4l37.8,110c5.1,14.7-2.8,30.7-17.5,35.8C3275.7,4882,3264.3,4878.9,3257,4871.4z"/>
			</g>
			<g class="st54">
				<path class="st52" d="M3261.3,4722.5c-24.2,26.4-52.5,49.3-83.7,67.7l-1.9-1.9c-21-21.5-20.7-55.9,0.8-77
					c21.4-21,55.9-20.7,76.8,0.8C3256.5,4715.2,3259.1,4718.8,3261.3,4722.5z"/>
			</g>
			<g>
				<path class="st52" d="M2723.8,4871.4l81.3-83.1c21-21.5,20.6-55.9-0.8-76.9c-21.5-21-55.9-20.6-76.9,0.8
					c-5.8,5.9-10,13.1-12.6,20.4l-37.8,110c-5.1,14.7,2.8,30.7,17.5,35.8C2705.2,4882,2716.5,4878.9,2723.8,4871.4z"/>
			</g>
			<g class="st54">
				<path class="st52" d="M2805.2,4788.3l-3.8,3.8c-31-18-59.2-40.3-83.7-66.1c2.4-5,5.7-9.7,9.7-13.8c21-21.5,55.4-21.9,77-0.8
					C2825.7,4732.4,2826.2,4766.8,2805.2,4788.3z"/>
			</g>
			<path class="st55" d="M2805.2,4788.3l-3.8,3.8c-31-18-59.2-40.3-83.7-66.1c2.4-5,5.7-9.7,9.7-13.8c21-21.5,55.4-21.9,77-0.8
				C2825.7,4732.4,2826.2,4766.8,2805.2,4788.3z"/>
			<path class="st55" d="M3261.3,4722.5c-24.2,26.4-52.5,49.3-83.7,67.7l-1.9-1.9c-21-21.5-20.7-55.9,0.8-77
				c21.4-21,55.9-20.7,76.8,0.8C3256.5,4715.2,3259.1,4718.8,3261.3,4722.5z"/>
			<path class="st52" d="M2752.1,4181.5c0,0-2.8-4.6-7.8-12.6c-5.1-7.9-12.3-19.3-21-32.9c-8.9-13.5-19.3-29.2-30.4-46.1
				c-11-16.9-23.5-34.6-35.6-52.4c-12.3-17.7-24.3-35.6-36.1-52.1c-11.7-16.5-23-31.7-32.9-44.5c-19.7-25.7-34.3-42-34.3-42
				c-9.1-10.2-8.2-25.8,1.9-34.8c10.2-9.1,25.8-8.2,34.8,1.9c1.7,1.9,3.1,4.2,4.1,6.4c0,0,8.9,19.9,24.3,48.4
				c7.7,14.3,16.9,30.8,27.2,48.2c10.2,17.5,21.7,35.7,32.8,54.2c11.3,18.4,22.3,36.9,33.2,53.9c10.8,17.1,21,33,29.6,46.6
				c8.9,13.5,16.3,24.8,21.5,32.6c5.3,7.8,8.3,12.3,8.3,12.3c3.7,5.4,2.3,12.8-3.1,16.4c-5.4,3.7-12.8,2.3-16.4-3.1
				C2752.3,4181.8,2752.2,4181.6,2752.1,4181.5z"/>
			<polygon class="st53" points="2718.4,4128.6 2734.5,4111.8 2723.6,4094.9 2704.5,4107.6 			"/>
			<path class="st53" d="M2574.9,3923.9l33.2-23.8l-2.6-5.5c-11.1,10.2-22.6,18.7-34.4,24.7L2574.9,3923.9z"/>
			<polygon class="st53" points="2578.4,3928 2588.3,3940.9 2619.8,3918.4 2609.8,3904.7 			"/>
			<g>
				<rect x="2973.8" y="3946.5" class="st52" width="27.2" height="136.2"/>
			</g>
			<rect x="2973.8" y="4048.4" class="st53" width="27.6" height="14.8"/>
			<rect x="2973.8" y="3975.8" class="st53" width="27.6" height="14.8"/>
			<g>
				<path class="st56" d="M3038.5,3986.3h-101.2c-14,0-25.3-15.5-25.3-34.7c0-19.2,11.3-34.7,25.3-34.7h101.2
					c14,0,25.3,15.5,25.3,34.7C3063.8,3970.8,3052.5,3986.3,3038.5,3986.3z"/>
			</g>
			<path class="st57" d="M2937.3,3923.8h101.2c13.1,0,23.8,13.7,25,31.3c0.1-1.2,0.3-2.3,0.3-3.4c0-19.2-11.3-34.7-25.3-34.7h-101.2
				c-14,0-25.3,15.5-25.3,34.7c0,1.2,0.2,2.3,0.3,3.4C2913.5,3937.5,2924.2,3923.8,2937.3,3923.8z"/>
			<path class="st58" d="M2937.3,3979.4h101.2c13.1,0,23.8-13.7,25-31.3c0.1,1.2,0.3,2.3,0.3,3.4c0,19.2-11.3,34.7-25.3,34.7h-101.2
				c-14,0-25.3-15.5-25.3-34.7c0-1.2,0.2-2.3,0.3-3.4C2913.5,3965.7,2924.2,3979.4,2937.3,3979.4z"/>
			
				<ellipse transform="matrix(0.7071 -0.7071 0.7071 0.7071 -2256.2065 3409.8032)" class="st59" cx="2987.9" cy="4428.4" rx="372.3" ry="372.3"/>
			<path class="st60" d="M2987.9,4788.9c-203.7,0-369-163.5-372.2-366.4c0,2-0.2,3.9-0.2,5.9c0,205.6,166.7,372.3,372.3,372.3
				s372.3-166.7,372.3-372.3c0-2-0.1-3.9-0.2-5.9C3356.9,4625.4,3191.6,4788.9,2987.9,4788.9z"/>
			<path class="st61" d="M2987.9,4067.9c203.7,0,369,163.5,372.2,366.4c0-2,0.2-3.9,0.2-5.9c0-205.6-166.7-372.3-372.3-372.3
				s-372.3,166.7-372.3,372.3c0,2,0.1,3.9,0.2,5.9C2618.9,4231.4,2784.2,4067.9,2987.9,4067.9z"/>
			<circle class="st62" cx="2987.9" cy="4428.4" r="323.4"/>
			
				<ellipse transform="matrix(0.7071 -0.7071 0.7071 0.7071 -2256.2065 3409.8032)" class="st63" cx="2987.9" cy="4428.4" rx="315.2" ry="315.2"/>
			<path class="st64" d="M2987.9,4113.2c-174.1,0-315.2,141.1-315.2,315.2c0,174.1,141.1,315.2,315.2,315.2
				c174.1,0,315.2-141.1,315.2-315.2C3303.1,4254.3,3162,4113.2,2987.9,4113.2z M2987.9,4733.7c-168.6,0-305.4-136.7-305.4-305.4
				s136.7-305.4,305.4-305.4c168.6,0,305.4,136.7,305.4,305.4S3156.5,4733.7,2987.9,4733.7z"/>
			<g>
				<path class="st65" d="M2987.9,4191.5c-4.9,0-8.9-4-8.9-8.9v-43.3c0-4.9,4-8.9,8.9-8.9c4.9,0,8.9,4,8.9,8.9v43.3
					C2996.8,4187.5,2992.8,4191.5,2987.9,4191.5z"/>
				<path class="st66" d="M2987.9,4184.8c-1.2,0-2.2-1-2.2-2.2v-43.3c0-1.2,1-2.2,2.2-2.2s2.2,1,2.2,2.2v43.3
					C2990,4183.8,2989.1,4184.8,2987.9,4184.8z"/>
			</g>
			<g>
				<path class="st65" d="M2865,4224.4c-3.1,0-6-1.6-7.7-4.4l-21.7-37.5c-2.4-4.2-1-9.7,3.2-12.1c4.3-2.5,9.7-1,12.1,3.2l21.7,37.5
					c2.4,4.2,1,9.7-3.2,12.1C2868,4224,2866.5,4224.4,2865,4224.4z"/>
				<path class="st66" d="M2865,4217.7c-0.8,0-1.5-0.4-1.9-1.1l-21.7-37.5c-0.6-1-0.2-2.4,0.8-3c0.4-0.1,0.8-0.1,1.1-0.1
					c0.9,0,1.5,0.3,1.8,0.9l21.7,37.5c0.5,0.9,0.1,2.4-0.8,3L2865,4217.7z"/>
			</g>
			<g>
				<path class="st65" d="M2775,4314.4c-1.5,0-3-0.4-4.4-1.2l-37.5-21.7c-4.2-2.4-5.7-7.9-3.2-12.1c2.4-4.2,7.8-5.7,12.1-3.2
					l37.5,21.7c4.2,2.4,5.7,7.9,3.2,12.1C2781.1,4312.8,2778.1,4314.4,2775,4314.4z"/>
				<path class="st66" d="M2775,4307.7c-0.4,0-0.7-0.1-1.1-0.3l-37.5-21.7c-0.9-0.5-1.3-2.1-0.8-3c0.5-0.8,1.3-1.1,1.9-1.1l38.6,22
					c0.9,0.5,1.3,2.1,0.8,3C2776.5,4307.3,2775.8,4307.7,2775,4307.7z"/>
			</g>
			<g>
				<path class="st65" d="M2742.1,4437.3h-43.3c-4.9,0-8.9-4-8.9-8.9c0-4.9,4-8.9,8.9-8.9h43.3c4.9,0,8.9,4,8.9,8.9
					C2751,4433.3,2747,4437.3,2742.1,4437.3z"/>
				<path class="st66" d="M2698.8,4430.5c-1.2,0-2.2-1-2.2-2.2s1-2.2,2.2-2.2h43.3c1.2,0,2.2,1,2.2,2.2s-1,2.2-2.2,2.2H2698.8z"/>
			</g>
			<g>
				<path class="st65" d="M2737.5,4581.8c-3.1,0-6-1.6-7.7-4.4c-2.4-4.2-1-9.7,3.2-12.1l37.5-21.7c4.3-2.5,9.7-1,12.1,3.2
					c2.4,4.2,1,9.7-3.2,12.1l-37.5,21.7C2740.6,4581.4,2739,4581.8,2737.5,4581.8z"/>
				<path class="st66" d="M2737.5,4575.1c-0.8,0-1.5-0.4-1.9-1.1c-0.6-1-0.2-2.4,0.8-3l37.5-21.7c0.4-0.1,0.8-0.1,1.1-0.1
					c0.9,0,1.5,0.3,1.8,0.9c0.5,0.9,0.1,2.4-0.8,3l-37.5,21.7L2737.5,4575.1z"/>
			</g>
			<g>
				<path class="st65" d="M2843.3,4687.6c-1.5,0-3-0.4-4.4-1.2c-4.2-2.4-5.7-7.9-3.2-12.1l21.7-37.5c2.4-4.2,7.9-5.7,12.1-3.2
					c4.2,2.4,5.7,7.9,3.2,12.1l-21.7,37.5C2849.4,4686,2846.4,4687.6,2843.3,4687.6z"/>
				<path class="st66" d="M2843.3,4680.9c-0.4,0-0.7-0.1-1.1-0.3c-1-0.6-1.4-1.9-0.8-3l21.7-37.5c0.5-0.8,1.3-1.1,1.9-1.1
					c2.1,0.9,2.5,2.2,1.9,3.3l-21.7,37.5C2844.8,4680.5,2844.1,4680.9,2843.3,4680.9z"/>
			</g>
			<line class="st67" x1="2987.9" y1="4717.5" x2="2987.9" y2="4674.1"/>
			<g>
				<path class="st65" d="M3132.5,4687.6c-3.1,0-6-1.6-7.7-4.4l-21.7-37.5c-2.4-4.2-1-9.7,3.2-12.1c4.2-2.5,9.7-1,12.1,3.2
					l21.7,37.5c2.4,4.2,1,9.7-3.2,12.1C3135.5,4687.2,3134,4687.6,3132.5,4687.6z"/>
				<path class="st66" d="M3132.5,4680.9c-0.8,0-1.5-0.4-1.9-1.1l-21.7-37.5c-0.6-1-0.2-2.4,0.8-3c0.4-0.1,0.8-0.1,1.1-0.1
					c0.9,0,1.5,0.3,1.8,0.9l21.7,37.5c0.6,1,0.2,2.4-0.8,3L3132.5,4680.9z"/>
			</g>
			<g>
				<path class="st65" d="M3238.3,4581.8c-1.5,0-3-0.4-4.4-1.2l-37.5-21.7c-4.2-2.4-5.7-7.9-3.2-12.1c2.4-4.2,7.8-5.7,12.1-3.2
					l37.5,21.7c4.2,2.4,5.7,7.9,3.2,12.1C3244.3,4580.2,3241.3,4581.8,3238.3,4581.8z"/>
				<path class="st66" d="M3238.3,4575.1c-0.4,0-0.7-0.1-1.1-0.3l-37.5-21.7c-1-0.6-1.4-1.9-0.8-3c0.5-0.8,1.3-1.1,1.9-1.1l38.6,22
					c0.9,0.5,1.3,2.1,0.8,3C3239.7,4574.7,3239,4575.1,3238.3,4575.1z"/>
			</g>
			<g>
				<path class="st65" d="M3277,4437.3h-43.3c-4.9,0-8.9-4-8.9-8.9c0-4.9,4-8.9,8.9-8.9h43.3c4.9,0,8.9,4,8.9,8.9
					C3285.9,4433.3,3281.9,4437.3,3277,4437.3z"/>
				<path class="st66" d="M3233.7,4430.5c-1.2,0-2.2-1-2.2-2.2s1-2.2,2.2-2.2h43.3c1.2,0,2.2,1,2.2,2.2s-1,2.2-2.2,2.2H3233.7z"/>
			</g>
			<g>
				<path class="st65" d="M3200.7,4314.4c-3.1,0-6-1.6-7.7-4.4c-2.4-4.2-1-9.7,3.2-12.1l37.5-21.7c4.2-2.5,9.7-1,12.1,3.2
					c2.4,4.2,1,9.7-3.2,12.1l-37.5,21.7C3203.8,4314,3202.2,4314.4,3200.7,4314.4z"/>
				<path class="st66" d="M3200.7,4307.7c-0.8,0-1.5-0.4-1.9-1.1c-0.6-1-0.2-2.4,0.8-3l37.5-21.7c0.4-0.1,0.8-0.1,1.1-0.1
					c0.9,0,1.5,0.3,1.8,0.9c0.5,0.9,0.1,2.4-0.8,3l-37.5,21.7L3200.7,4307.7z"/>
			</g>
			<g>
				<path class="st65" d="M3110.8,4224.4c-1.5,0-3-0.4-4.4-1.2c-4.2-2.4-5.7-7.9-3.2-12.1l21.7-37.5c2.4-4.2,7.9-5.7,12.1-3.2
					c4.2,2.4,5.7,7.9,3.2,12.1l-21.7,37.5C3116.8,4222.8,3113.8,4224.4,3110.8,4224.4z"/>
				<path class="st66" d="M3110.8,4217.7c-0.4,0-0.7-0.1-1.1-0.3c-0.9-0.5-1.3-2.1-0.8-3l21.7-37.5c0.5-0.8,1.3-1.1,1.9-1.1
					c2.1,0.9,2.5,2.2,1.9,3.3l-21.7,37.5C3112.3,4217.3,3111.6,4217.7,3110.8,4217.7z"/>
			</g>
			<g>
				<path class="st65" d="M2987.9,4727.8c-4.9,0-8.9-4-8.9-8.9v-43.3c0-4.9,4-8.9,8.9-8.9c4.9,0,8.9,4,8.9,8.9v43.3
					C2996.8,4723.9,2992.8,4727.8,2987.9,4727.8z"/>
				<path class="st66" d="M2987.9,4721.1c-1.2,0-2.2-1-2.2-2.2v-43.3c0-1.2,1-2.2,2.2-2.2s2.2,1,2.2,2.2v43.3
					C2990,4720.2,2989.1,4721.1,2987.9,4721.1z"/>
			</g>
			<path class="st59" d="M2558.7,4214.8l335.9-229.6c-1.9-3.2-3.9-6.5-6-9.6c-36.6-54.2-98.7-89.9-169.1-89.9
				c-112.6,0-203.9,91.3-203.9,203.9c0,42.2,12.8,81.5,34.8,114C2553.1,4207.4,2555.9,4211.1,2558.7,4214.8z"/>
			
				<ellipse transform="matrix(0.3827 -0.9239 0.9239 0.3827 -2246.8176 5494.166)" class="st56" cx="2987.9" cy="4428.4" rx="31.4" ry="31.4"/>
			<path class="st56" d="M2846.3,4341l153.2,67.2c11.8,5.2,17.2,19,12,30.9c-5.2,11.8-19,17.2-30.9,12c-1.5-0.6-3-1.5-4.2-2.4
				l-136-97.4c-2.7-1.9-3.3-5.6-1.4-8.3C2840.7,4340.6,2843.7,4339.9,2846.3,4341z"/>
			<path class="st56" d="M3162.8,4333.5l-163.1,115c-10.6,7.4-25.2,4.9-32.6-5.6c-7.4-10.6-4.9-25.1,5.6-32.6c1.1-0.8,2.4-1.5,3.5-2
				l180.6-85c3-1.4,6.5-0.1,7.9,2.8C3165.9,4328.8,3165.1,4331.9,3162.8,4333.5z"/>
			<path class="st58" d="M2986.2,4442.7c-4.3,0-8.4-2.1-10.9-5.7c-4.2-6-2.8-14.3,3.2-18.6c0.6-0.4,1.3-0.8,2-1.2l138-64.9
				l-124.6,87.9C2991.5,4441.9,2988.9,4442.7,2986.2,4442.7z"/>
			<path class="st68" d="M2612.5,3916c0,0,68.8-30.4,153.5,6.8c53.6,23.5,97.3,83.8,97.3,83.8l-3.7,2.5c0,0-20.6-24.7-115.8-66.5
				C2683.2,3916.1,2612.5,3916,2612.5,3916z"/>
			<path class="st53" d="M3402.8,3923.9l-33.2-23.8l2.6-5.5c11.1,10.2,22.6,18.7,34.4,24.7L3402.8,3923.9z"/>
			<polygon class="st53" points="3399.3,3928 3389.5,3940.9 3358,3918.4 3367.9,3904.7 			"/>
			<path class="st59" d="M3419,4214.8l-335.9-229.6c1.9-3.2,3.9-6.5,6-9.6c36.6-54.2,98.7-89.9,169.1-89.9
				c112.6,0,203.9,91.3,203.9,203.9c0,42.2-12.8,81.5-34.8,114C3424.6,4207.4,3421.9,4211.1,3419,4214.8z"/>
			<path class="st68" d="M3365.3,3916c0,0-68.8-30.4-153.5,6.8c-53.6,23.5-97.3,83.8-97.3,83.8l3.7,2.5c0,0,20.6-24.7,115.8-66.5
				C3294.6,3916.1,3365.3,3916,3365.3,3916z"/>
			<path class="st52" d="M3416.8,3932.1L3416.8,3932.1c-0.1-0.1-10.5-8-28.8-21.8c-9-6.9-20.5-15.5-32.1-25.2
				c-11-9.6-20.4-24.2-29.3-41.2c-4.4-8.5-8.9-17.6-13.2-27.1c-2.1-4.8-4.3-9.7-6.5-14.7c-1.2-2.7-1.9-4.6-3.5-8
				c-0.9-2.1-3.2-5.9-5.1-8.6c-16.1-21.2-38.9-33-62.1-43.5c-47.1-20.1-100.4-29.4-153.2-35.2c-26.5-2.7-53.1-4.2-79.2-4.9
				c-3.4,0-6.7-0.1-10.1-0.1v-0.1c-1.6,0-3.3,0-4.9,0.1c-1.6,0-3.3,0-4.9-0.1v0.1c-3.4,0-6.7,0.1-10.1,0.1
				c-26.1,0.7-52.7,2.2-79.2,4.9c-52.9,5.8-106.1,15.1-153.2,35.2c-23.2,10.5-46,22.3-62.1,43.5c-1.9,2.7-4.2,6.5-5.1,8.6
				c-1.7,3.4-2.3,5.3-3.5,8c-2.2,5-4.4,9.8-6.5,14.7c-4.3,9.6-8.8,18.6-13.2,27.1c-8.9,17-18.3,31.6-29.3,41.2
				c-11.6,9.7-23.1,18.3-32.1,25.2c-18.3,13.8-28.7,21.7-28.7,21.7l-0.1,0.1c-2.5,1.9-3.1,5.4-1.3,8c1.8,2.7,5.5,3.4,8.2,1.6
				c0,0,11-7.3,30.1-20.2c9.6-6.7,20.8-14.3,34.2-24.6c13.7-11,24.8-26.9,35-44.3c5.1-8.7,9.8-18.1,14.6-27.7
				c2.3-4.8,4.7-9.8,7.1-14.8c1.1-2.3,2.5-5.5,3.4-7.1c1.5-2.9,2.3-3.8,3.6-5.7c11.7-14.9,32.7-26.2,54.4-34.9
				c44.3-17.2,95.6-26.7,147.1-31.6c25.8-2.4,51.7-3.6,77.3-4c4.8,0,9.7-0.1,14.5-0.1c4.8,0,9.6,0.1,14.5,0.1
				c25.6,0.4,51.5,1.7,77.3,4c51.5,4.8,102.8,14.4,147.1,31.6c21.7,8.7,42.6,20,54.4,34.9c1.4,1.9,2.2,2.8,3.6,5.7
				c0.9,1.5,2.3,4.8,3.4,7.1c2.4,5,4.7,9.9,7.1,14.8c4.8,9.7,9.5,19,14.6,27.7c10.2,17.3,21.3,33.3,35,44.3
				c13.4,10.3,24.6,17.9,34.2,24.6c19.2,12.8,30.1,20.2,30.1,20.2c2.7,1.8,6.4,1.1,8.2-1.6
				C3419.8,3937.4,3419.2,3933.9,3416.8,3932.1z"/>
			<path class="st58" d="M2990,4443c-1.8,0-3.6-0.4-5.4-1.1c-0.8-0.4-1.7-0.9-2.5-1.4l-103.9-74.5l117.1,51.4
				c6.8,3,9.8,10.9,6.9,17.6C3000.1,4439.8,2995.3,4443,2990,4443z"/>
		</g>
		<path class="st69" d="M3225.7,4181.5c0,0,2.8-4.6,7.8-12.6c5.1-7.9,12.3-19.3,21-32.9c8.9-13.5,19.3-29.2,30.4-46.1
			c11-16.9,23.5-34.6,35.6-52.4c12.3-17.7,24.3-35.6,36.1-52.1c11.7-16.5,23-31.7,32.9-44.5c19.7-25.7,34.3-42,34.3-42
			c9.1-10.2,8.2-25.8-1.9-34.8c-10.2-9.1-25.8-8.2-34.8,1.9c-1.7,1.9-3.1,4.2-4.1,6.4c0,0-8.9,19.9-24.3,48.4
			c-7.7,14.3-16.9,30.8-27.2,48.2c-10.2,17.5-21.7,35.7-32.8,54.2c-11.3,18.4-22.3,36.9-33.2,53.9c-10.8,17.1-21,33-29.6,46.6
			c-8.9,13.5-16.3,24.8-21.5,32.6c-5.3,7.8-8.3,12.3-8.3,12.3c-3.7,5.4-2.3,12.8,3.1,16.4c5.4,3.7,12.8,2.3,16.4-3.1
			C3225.5,4181.8,3225.6,4181.6,3225.7,4181.5z"/>
		<polygon class="st53" points="3259.3,4128.6 3243.2,4111.8 3254.2,4094.9 3273.2,4107.6 		"/>
		<g>
			<path class="st69" d="M3257,4871.4l-81.3-83.1c-21-21.5-20.6-55.9,0.8-76.9c21.5-21,55.9-20.6,76.9,0.8
				c5.8,5.9,10,13.1,12.6,20.4l37.8,110c5.1,14.7-2.8,30.7-17.5,35.8C3275.7,4882,3264.3,4878.9,3257,4871.4z"/>
		</g>
		<g class="st54">
			<path class="st52" d="M3261.3,4722.5c-24.2,26.4-52.5,49.3-83.7,67.7l-1.9-1.9c-21-21.5-20.7-55.9,0.8-77
				c21.4-21,55.9-20.7,76.8,0.8C3256.5,4715.2,3259.1,4718.8,3261.3,4722.5z"/>
		</g>
		<g>
			<path class="st69" d="M2723.8,4871.4l81.3-83.1c21-21.5,20.6-55.9-0.8-76.9c-21.5-21-55.9-20.6-76.9,0.8
				c-5.8,5.9-10,13.1-12.6,20.4l-37.8,110c-5.1,14.7,2.8,30.7,17.5,35.8C2705.2,4882,2716.5,4878.9,2723.8,4871.4z"/>
		</g>
		<g class="st54">
			<path class="st52" d="M2805.2,4788.3l-3.8,3.8c-31-18-59.2-40.3-83.7-66.1c2.4-5,5.7-9.7,9.7-13.8c21-21.5,55.4-21.9,77-0.8
				C2825.7,4732.4,2826.2,4766.8,2805.2,4788.3z"/>
		</g>
		<path class="st70" d="M2805.2,4788.3l-3.8,3.8c-31-18-59.2-40.3-83.7-66.1c2.4-5,5.7-9.7,9.7-13.8c21-21.5,55.4-21.9,77-0.8
			C2825.7,4732.4,2826.2,4766.8,2805.2,4788.3z"/>
		<path class="st70" d="M3261.3,4722.5c-24.2,26.4-52.5,49.3-83.7,67.7l-1.9-1.9c-21-21.5-20.7-55.9,0.8-77
			c21.4-21,55.9-20.7,76.8,0.8C3256.5,4715.2,3259.1,4718.8,3261.3,4722.5z"/>
		<path class="st69" d="M2752.1,4181.5c0,0-2.8-4.6-7.8-12.6c-5.1-7.9-12.3-19.3-21-32.9c-8.9-13.5-19.3-29.2-30.4-46.1
			c-11-16.9-23.5-34.6-35.6-52.4c-12.3-17.7-24.3-35.6-36.1-52.1c-11.7-16.5-23-31.7-32.9-44.5c-19.7-25.7-34.3-42-34.3-42
			c-9.1-10.2-8.2-25.8,1.9-34.8c10.2-9.1,25.8-8.2,34.8,1.9c1.7,1.9,3.1,4.2,4.1,6.4c0,0,8.9,19.9,24.3,48.4
			c7.7,14.3,16.9,30.8,27.2,48.2c10.2,17.5,21.7,35.7,32.8,54.2c11.3,18.4,22.3,36.9,33.2,53.9c10.8,17.1,21,33,29.6,46.6
			c8.9,13.5,16.3,24.8,21.5,32.6c5.3,7.8,8.3,12.3,8.3,12.3c3.7,5.4,2.3,12.8-3.1,16.4c-5.4,3.7-12.8,2.3-16.4-3.1
			C2752.3,4181.8,2752.2,4181.6,2752.1,4181.5z"/>
		<path class="st71" d="M2594.9,3872.4c-1-2.2-2.4-4.5-4.1-6.4c-9.1-10.2-24.7-11-34.8-1.9c-8.7,7.8-10.5,20.2-5.2,30
			c-2.5-8.8-0.1-18.6,7.2-25.1c10.2-9.1,25.8-8.2,34.8,1.9c1.7,1.9,3.1,4.2,4.1,6.4c0,0,1.2,2.6,3.3,7c0.1-0.1,0.2-0.1,0.3-0.2
			C2596.9,3876.8,2594.9,3872.4,2594.9,3872.4z"/>
		<path class="st71" d="M3382.9,3872.4c1-2.2,2.4-4.5,4.1-6.4c9.1-10.2,24.7-11,34.8-1.9c8.7,7.8,10.5,20.2,5.2,30
			c2.5-8.8,0.1-18.6-7.2-25.1c-10.2-9.1-25.8-8.2-34.8,1.9c-1.7,1.9-3.1,4.2-4.1,6.4c0,0-1.2,2.6-3.3,7c-0.1-0.1-0.2-0.1-0.3-0.2
			C3380.9,3876.8,3382.9,3872.4,3382.9,3872.4z"/>
		<polygon class="st72" points="2718.4,4128.6 2734.5,4111.8 2723.6,4094.9 2704.5,4107.6 		"/>
		<path class="st72" d="M2574.9,3923.9l33.2-23.8l-2.6-5.5c-11.1,10.2-22.6,18.7-34.4,24.7L2574.9,3923.9z"/>
		<polygon class="st72" points="2578.4,3928 2588.3,3940.9 2619.8,3918.4 2609.8,3904.7 		"/>
		<g>
			<rect x="2973.8" y="3946.5" class="st69" width="27.2" height="136.2"/>
		</g>
		<rect x="2973.8" y="4048.4" class="st73" width="27.6" height="14.8"/>
		<rect x="2973.8" y="3975.8" class="st73" width="27.6" height="14.8"/>
		<g>
			<path class="st74" d="M3038.5,3986.3h-101.2c-14,0-25.3-15.5-25.3-34.7c0-19.2,11.3-34.7,25.3-34.7h101.2
				c14,0,25.3,15.5,25.3,34.7C3063.8,3970.8,3052.5,3986.3,3038.5,3986.3z"/>
		</g>
		<path class="st75" d="M2937.3,3923.8h101.2c13.1,0,23.8,13.7,25,31.3c0.1-1.2,0.3-2.3,0.3-3.4c0-19.2-11.3-34.7-25.3-34.7h-101.2
			c-14,0-25.3,15.5-25.3,34.7c0,1.2,0.2,2.3,0.3,3.4C2913.5,3937.5,2924.2,3923.8,2937.3,3923.8z"/>
		<path class="st76" d="M2937.3,3979.4h101.2c13.1,0,23.8-13.7,25-31.3c0.1,1.2,0.3,2.3,0.3,3.4c0,19.2-11.3,34.7-25.3,34.7h-101.2
			c-14,0-25.3-15.5-25.3-34.7c0-1.2,0.2-2.3,0.3-3.4C2913.5,3965.7,2924.2,3979.4,2937.3,3979.4z"/>
		
			<ellipse transform="matrix(0.7071 -0.7071 0.7071 0.7071 -2256.2065 3409.8032)" class="st77" cx="2987.9" cy="4428.4" rx="372.3" ry="372.3"/>
		<path class="st78" d="M2987.9,4788.9c-203.7,0-369-163.5-372.2-366.4c0,2-0.2,3.9-0.2,5.9c0,205.6,166.7,372.3,372.3,372.3
			s372.3-166.7,372.3-372.3c0-2-0.1-3.9-0.2-5.9C3356.9,4625.4,3191.6,4788.9,2987.9,4788.9z"/>
		<path class="st79" d="M2987.9,4067.9c203.7,0,369,163.5,372.2,366.4c0-2,0.2-3.9,0.2-5.9c0-205.6-166.7-372.3-372.3-372.3
			s-372.3,166.7-372.3,372.3c0,2,0.1,3.9,0.2,5.9C2618.9,4231.4,2784.2,4067.9,2987.9,4067.9z"/>
		<circle class="st78" cx="2987.9" cy="4428.4" r="323.4"/>
		
			<ellipse transform="matrix(0.7071 -0.7071 0.7071 0.7071 -2256.2065 3409.8032)" class="st80" cx="2987.9" cy="4428.4" rx="315.2" ry="315.2"/>
		<path class="st64" d="M2987.9,4113.2c-174.1,0-315.2,141.1-315.2,315.2c0,174.1,141.1,315.2,315.2,315.2
			c174.1,0,315.2-141.1,315.2-315.2C3303.1,4254.3,3162,4113.2,2987.9,4113.2z M2987.9,4733.7c-168.6,0-305.4-136.7-305.4-305.4
			s136.7-305.4,305.4-305.4c168.6,0,305.4,136.7,305.4,305.4S3156.5,4733.7,2987.9,4733.7z"/>
		<g>
			<path class="st81" d="M2987.9,4191.5c-4.9,0-8.9-4-8.9-8.9v-43.3c0-4.9,4-8.9,8.9-8.9c4.9,0,8.9,4,8.9,8.9v43.3
				C2996.8,4187.5,2992.8,4191.5,2987.9,4191.5z"/>
			<path class="st66" d="M2987.9,4184.8c-1.2,0-2.2-1-2.2-2.2v-43.3c0-1.2,1-2.2,2.2-2.2s2.2,1,2.2,2.2v43.3
				C2990,4183.8,2989.1,4184.8,2987.9,4184.8z"/>
		</g>
		<g>
			<path class="st81" d="M2865,4224.4c-3.1,0-6-1.6-7.7-4.4l-21.7-37.5c-2.4-4.2-1-9.7,3.2-12.1c4.3-2.5,9.7-1,12.1,3.2l21.7,37.5
				c2.4,4.2,1,9.7-3.2,12.1C2868,4224,2866.5,4224.4,2865,4224.4z"/>
			<path class="st66" d="M2865,4217.7c-0.8,0-1.5-0.4-1.9-1.1l-21.7-37.5c-0.6-1-0.2-2.4,0.8-3c0.4-0.1,0.8-0.1,1.1-0.1
				c0.9,0,1.5,0.3,1.8,0.9l21.7,37.5c0.5,0.9,0.1,2.4-0.8,3L2865,4217.7z"/>
		</g>
		<g>
			<path class="st81" d="M2775,4314.4c-1.5,0-3-0.4-4.4-1.2l-37.5-21.7c-4.2-2.4-5.7-7.9-3.2-12.1c2.4-4.2,7.8-5.7,12.1-3.2
				l37.5,21.7c4.2,2.4,5.7,7.9,3.2,12.1C2781.1,4312.8,2778.1,4314.4,2775,4314.4z"/>
			<path class="st66" d="M2775,4307.7c-0.4,0-0.7-0.1-1.1-0.3l-37.5-21.7c-0.9-0.5-1.3-2.1-0.8-3c0.5-0.8,1.3-1.1,1.9-1.1l38.6,22
				c0.9,0.5,1.3,2.1,0.8,3C2776.5,4307.3,2775.8,4307.7,2775,4307.7z"/>
		</g>
		<g>
			<path class="st81" d="M2742.1,4437.3h-43.3c-4.9,0-8.9-4-8.9-8.9c0-4.9,4-8.9,8.9-8.9h43.3c4.9,0,8.9,4,8.9,8.9
				C2751,4433.3,2747,4437.3,2742.1,4437.3z"/>
			<path class="st66" d="M2698.8,4430.5c-1.2,0-2.2-1-2.2-2.2s1-2.2,2.2-2.2h43.3c1.2,0,2.2,1,2.2,2.2s-1,2.2-2.2,2.2H2698.8z"/>
		</g>
		<g>
			<path class="st81" d="M2737.5,4581.8c-3.1,0-6-1.6-7.7-4.4c-2.4-4.2-1-9.7,3.2-12.1l37.5-21.7c4.3-2.5,9.7-1,12.1,3.2
				c2.4,4.2,1,9.7-3.2,12.1l-37.5,21.7C2740.6,4581.4,2739,4581.8,2737.5,4581.8z"/>
			<path class="st66" d="M2737.5,4575.1c-0.8,0-1.5-0.4-1.9-1.1c-0.6-1-0.2-2.4,0.8-3l37.5-21.7c0.4-0.1,0.8-0.1,1.1-0.1
				c0.9,0,1.5,0.3,1.8,0.9c0.5,0.9,0.1,2.4-0.8,3l-37.5,21.7L2737.5,4575.1z"/>
		</g>
		<g>
			<path class="st81" d="M2843.3,4687.6c-1.5,0-3-0.4-4.4-1.2c-4.2-2.4-5.7-7.9-3.2-12.1l21.7-37.5c2.4-4.2,7.9-5.7,12.1-3.2
				c4.2,2.4,5.7,7.9,3.2,12.1l-21.7,37.5C2849.4,4686,2846.4,4687.6,2843.3,4687.6z"/>
			<path class="st66" d="M2843.3,4680.9c-0.4,0-0.7-0.1-1.1-0.3c-1-0.6-1.4-1.9-0.8-3l21.7-37.5c0.5-0.8,1.3-1.1,1.9-1.1
				c2.1,0.9,2.5,2.2,1.9,3.3l-21.7,37.5C2844.8,4680.5,2844.1,4680.9,2843.3,4680.9z"/>
		</g>
		<line class="st67" x1="2987.9" y1="4717.5" x2="2987.9" y2="4674.1"/>
		<g>
			<path class="st81" d="M3132.5,4687.6c-3.1,0-6-1.6-7.7-4.4l-21.7-37.5c-2.4-4.2-1-9.7,3.2-12.1c4.2-2.5,9.7-1,12.1,3.2l21.7,37.5
				c2.4,4.2,1,9.7-3.2,12.1C3135.5,4687.2,3134,4687.6,3132.5,4687.6z"/>
			<path class="st66" d="M3132.5,4680.9c-0.8,0-1.5-0.4-1.9-1.1l-21.7-37.5c-0.6-1-0.2-2.4,0.8-3c0.4-0.1,0.8-0.1,1.1-0.1
				c0.9,0,1.5,0.3,1.8,0.9l21.7,37.5c0.6,1,0.2,2.4-0.8,3L3132.5,4680.9z"/>
		</g>
		<g>
			<path class="st81" d="M3238.3,4581.8c-1.5,0-3-0.4-4.4-1.2l-37.5-21.7c-4.2-2.4-5.7-7.9-3.2-12.1c2.4-4.2,7.8-5.7,12.1-3.2
				l37.5,21.7c4.2,2.4,5.7,7.9,3.2,12.1C3244.3,4580.2,3241.3,4581.8,3238.3,4581.8z"/>
			<path class="st66" d="M3238.3,4575.1c-0.4,0-0.7-0.1-1.1-0.3l-37.5-21.7c-1-0.6-1.4-1.9-0.8-3c0.5-0.8,1.3-1.1,1.9-1.1l38.6,22
				c0.9,0.5,1.3,2.1,0.8,3C3239.7,4574.7,3239,4575.1,3238.3,4575.1z"/>
		</g>
		<g>
			<path class="st81" d="M3277,4437.3h-43.3c-4.9,0-8.9-4-8.9-8.9c0-4.9,4-8.9,8.9-8.9h43.3c4.9,0,8.9,4,8.9,8.9
				C3285.9,4433.3,3281.9,4437.3,3277,4437.3z"/>
			<path class="st66" d="M3233.7,4430.5c-1.2,0-2.2-1-2.2-2.2s1-2.2,2.2-2.2h43.3c1.2,0,2.2,1,2.2,2.2s-1,2.2-2.2,2.2H3233.7z"/>
		</g>
		<g>
			<path class="st81" d="M3200.7,4314.4c-3.1,0-6-1.6-7.7-4.4c-2.4-4.2-1-9.7,3.2-12.1l37.5-21.7c4.2-2.5,9.7-1,12.1,3.2
				c2.4,4.2,1,9.7-3.2,12.1l-37.5,21.7C3203.8,4314,3202.2,4314.4,3200.7,4314.4z"/>
			<path class="st66" d="M3200.7,4307.7c-0.8,0-1.5-0.4-1.9-1.1c-0.6-1-0.2-2.4,0.8-3l37.5-21.7c0.4-0.1,0.8-0.1,1.1-0.1
				c0.9,0,1.5,0.3,1.8,0.9c0.5,0.9,0.1,2.4-0.8,3l-37.5,21.7L3200.7,4307.7z"/>
		</g>
		<g>
			<path class="st81" d="M3110.8,4224.4c-1.5,0-3-0.4-4.4-1.2c-4.2-2.4-5.7-7.9-3.2-12.1l21.7-37.5c2.4-4.2,7.9-5.7,12.1-3.2
				c4.2,2.4,5.7,7.9,3.2,12.1l-21.7,37.5C3116.8,4222.8,3113.8,4224.4,3110.8,4224.4z"/>
			<path class="st66" d="M3110.8,4217.7c-0.4,0-0.7-0.1-1.1-0.3c-0.9-0.5-1.3-2.1-0.8-3l21.7-37.5c0.5-0.8,1.3-1.1,1.9-1.1
				c2.1,0.9,2.5,2.2,1.9,3.3l-21.7,37.5C3112.3,4217.3,3111.6,4217.7,3110.8,4217.7z"/>
		</g>
		<g>
			<path class="st81" d="M2987.9,4727.8c-4.9,0-8.9-4-8.9-8.9v-43.3c0-4.9,4-8.9,8.9-8.9c4.9,0,8.9,4,8.9,8.9v43.3
				C2996.8,4723.9,2992.8,4727.8,2987.9,4727.8z"/>
			<path class="st66" d="M2987.9,4721.1c-1.2,0-2.2-1-2.2-2.2v-43.3c0-1.2,1-2.2,2.2-2.2s2.2,1,2.2,2.2v43.3
				C2990,4720.2,2989.1,4721.1,2987.9,4721.1z"/>
		</g>
		<path class="st82" d="M2558.7,4214.8l335.9-229.6c-1.9-3.2-3.9-6.5-6-9.6c-36.6-54.2-98.7-89.9-169.1-89.9
			c-112.6,0-203.9,91.3-203.9,203.9c0,42.2,12.8,81.5,34.8,114C2553.1,4207.4,2555.9,4211.1,2558.7,4214.8z"/>
		
			<ellipse transform="matrix(0.3827 -0.9239 0.9239 0.3827 -2246.8176 5494.166)" class="st81" cx="2987.9" cy="4428.4" rx="31.4" ry="31.4"/>
		<path class="st81" d="M3128.1,4340.9L2975,4408c-11.8,5.2-17.2,19-12,30.9c5.2,11.8,19,17.2,30.9,12c1.5-0.6,3-1.5,4.2-2.4
			l136-97.4c2.7-1.9,3.3-5.6,1.4-8.3C3133.7,4340.5,3130.7,4339.8,3128.1,4340.9z"/>
		<path class="st81" d="M2811.7,4333.4l163.1,115c10.6,7.4,25.1,4.9,32.6-5.6c7.4-10.6,4.9-25.1-5.6-32.6c-1.1-0.8-2.4-1.5-3.5-2
			l-180.6-84.9c-3-1.4-6.5-0.1-7.9,2.8C2808.5,4328.7,2809.3,4331.8,2811.7,4333.4z"/>
		<path class="st58" d="M2988.2,4442.6c4.3,0,8.4-2.1,10.9-5.7c4.2-6,2.8-14.3-3.2-18.6c-0.6-0.4-1.3-0.8-2-1.2l-138-64.9
			l124.6,87.9C2982.9,4441.8,2985.5,4442.6,2988.2,4442.6z"/>
		<path class="st83" d="M2612.5,3916c0,0,68.8-30.4,153.5,6.8c53.6,23.5,97.3,83.8,97.3,83.8l-3.7,2.5c0,0-20.6-24.7-115.8-66.5
			C2683.2,3916.1,2612.5,3916,2612.5,3916z"/>
		<path class="st72" d="M3402.8,3923.9l-33.2-23.8l2.6-5.5c11.1,10.2,22.6,18.7,34.4,24.7L3402.8,3923.9z"/>
		<polygon class="st72" points="3399.3,3928 3389.5,3940.9 3358,3918.4 3367.9,3904.7 		"/>
		<path class="st82" d="M3419,4214.8l-335.9-229.6c1.9-3.2,3.9-6.5,6-9.6c36.6-54.2,98.7-89.9,169.1-89.9
			c112.6,0,203.9,91.3,203.9,203.9c0,42.2-12.8,81.5-34.8,114C3424.6,4207.4,3421.9,4211.1,3419,4214.8z"/>
		<path class="st83" d="M3365.3,3916c0,0-68.8-30.4-153.5,6.8c-53.6,23.5-97.3,83.8-97.3,83.8l3.7,2.5c0,0,20.6-24.7,115.8-66.5
			C3294.6,3916.1,3365.3,3916,3365.3,3916z"/>
		<path class="st69" d="M3416.8,3932.1L3416.8,3932.1c-0.1-0.1-10.5-8-28.8-21.8c-9-6.9-20.5-15.5-32.1-25.2
			c-11-9.6-20.4-24.2-29.3-41.2c-4.4-8.5-8.9-17.6-13.2-27.1c-2.1-4.8-4.3-9.7-6.5-14.7c-1.2-2.7-1.9-4.6-3.5-8
			c-0.9-2.1-3.2-5.9-5.1-8.6c-16.1-21.2-38.9-33-62.1-43.5c-47.1-20.1-100.4-29.4-153.2-35.2c-26.5-2.7-53.1-4.2-79.2-4.9
			c-3.4,0-6.7-0.1-10.1-0.1v-0.1c-1.6,0-3.3,0-4.9,0.1c-1.6,0-3.3,0-4.9-0.1v0.1c-3.4,0-6.7,0.1-10.1,0.1
			c-26.1,0.7-52.7,2.2-79.2,4.9c-52.9,5.8-106.1,15.1-153.2,35.2c-23.2,10.5-46,22.3-62.1,43.5c-1.9,2.7-4.2,6.5-5.1,8.6
			c-1.7,3.4-2.3,5.3-3.5,8c-2.2,5-4.4,9.8-6.5,14.7c-4.3,9.6-8.8,18.6-13.2,27.1c-8.9,17-18.3,31.6-29.3,41.2
			c-11.6,9.7-23.1,18.3-32.1,25.2c-18.3,13.8-28.7,21.7-28.7,21.7l-0.1,0.1c-2.5,1.9-3.1,5.4-1.3,8c1.8,2.7,5.5,3.4,8.2,1.6
			c0,0,11-7.3,30.1-20.2c9.6-6.7,20.8-14.3,34.2-24.6c13.7-11,24.8-26.9,35-44.3c5.1-8.7,9.8-18.1,14.6-27.7
			c2.3-4.8,4.7-9.8,7.1-14.8c1.1-2.3,2.5-5.5,3.4-7.1c1.5-2.9,2.3-3.8,3.6-5.7c11.7-14.9,32.7-26.2,54.4-34.9
			c44.3-17.2,95.6-26.7,147.1-31.6c25.8-2.4,51.7-3.6,77.3-4c4.8,0,9.7-0.1,14.5-0.1c4.8,0,9.6,0.1,14.5,0.1
			c25.6,0.4,51.5,1.7,77.3,4c51.5,4.8,102.8,14.4,147.1,31.6c21.7,8.7,42.6,20,54.4,34.9c1.4,1.9,2.2,2.8,3.6,5.7
			c0.9,1.5,2.3,4.8,3.4,7.1c2.4,5,4.7,9.9,7.1,14.8c4.8,9.7,9.5,19,14.6,27.7c10.2,17.3,21.3,33.3,35,44.3
			c13.4,10.3,24.6,17.9,34.2,24.6c19.2,12.8,30.1,20.2,30.1,20.2c2.7,1.8,6.4,1.1,8.2-1.6
			C3419.8,3937.4,3419.2,3933.9,3416.8,3932.1z"/>
		<path class="st72" d="M3418.1,3936c-1.8,2.7-5.5,3.4-8.2,1.6c0,0-11-7.3-30.1-20.2c-9.6-6.7-20.8-14.3-34.2-24.6
			c-13.7-11-24.8-26.9-35-44.3c-5.1-8.7-9.8-18.1-14.6-27.7c-2.3-4.8-4.7-9.8-7.1-14.8c-1.1-2.3-2.5-5.5-3.4-7.1
			c-1.5-2.9-2.3-3.8-3.6-5.7c-11.7-14.9-32.7-26.2-54.4-34.9c-44.3-17.2-95.6-26.7-147.1-31.6c-25.8-2.4-51.7-3.6-77.3-4
			c-4.8,0-9.7-0.1-14.5-0.1c-4.8,0-9.6,0.1-14.5,0.1c-25.6,0.4-51.5,1.7-77.3,4c-51.5,4.8-102.8,14.4-147.1,31.6
			c-21.7,8.7-42.6,20-54.4,34.9c-1.4,1.9-2.2,2.8-3.6,5.7c-0.9,1.5-2.3,4.8-3.4,7.1c-2.4,5-4.7,9.9-7.1,14.8
			c-4.8,9.7-9.5,19-14.6,27.7c-10.2,17.3-21.3,33.3-35,44.3c-13.4,10.3-24.6,17.9-34.2,24.6c-19.2,12.8-30.1,20.2-30.1,20.2
			c-2.7,1.8-6.4,1.1-8.2-1.6c-0.3-0.4-0.4-0.8-0.5-1.3c-0.6,1.7-0.6,3.7,0.5,5.3c1.8,2.7,5.5,3.4,8.2,1.6c0,0,11-7.3,30.1-20.2
			c9.6-6.7,20.8-14.3,34.2-24.6c13.7-11,24.8-26.9,35-44.3c5.1-8.7,9.8-18.1,14.6-27.7c2.3-4.8,4.7-9.8,7.1-14.8
			c1.1-2.3,2.5-5.5,3.4-7.1c1.5-2.9,2.3-3.8,3.6-5.7c11.7-14.9,32.7-26.2,54.4-34.9c44.3-17.2,95.6-26.7,147.1-31.6
			c25.8-2.4,51.7-3.6,77.3-4c4.8,0,9.7-0.1,14.5-0.1c4.8,0,9.6,0.1,14.5,0.1c25.6,0.4,51.5,1.7,77.3,4
			c51.5,4.8,102.8,14.4,147.1,31.6c21.7,8.7,42.6,20,54.4,34.9c1.4,1.9,2.2,2.8,3.6,5.7c0.9,1.5,2.3,4.8,3.4,7.1
			c2.4,5,4.7,9.9,7.1,14.8c4.8,9.7,9.5,19,14.6,27.7c10.2,17.3,21.3,33.3,35,44.3c13.4,10.3,24.6,17.9,34.2,24.6
			c19.2,12.8,30.1,20.2,30.1,20.2c2.7,1.8,6.4,1.1,8.2-1.6c1.1-1.6,1.2-3.6,0.5-5.3C3418.5,3935.2,3418.4,3935.6,3418.1,3936z"/>
		<path class="st84" d="M2560.5,3937.6L2560.5,3937.6c0.1-0.1,10.5-8,28.8-21.8c9-6.9,20.5-15.5,32.1-25.2
			c11-9.6,20.4-24.2,29.3-41.2c4.4-8.5,8.9-17.6,13.2-27.1c2.1-4.8,4.3-9.7,6.5-14.7c1.2-2.7,1.9-4.6,3.5-8c0.9-2.1,3.2-5.9,5.1-8.6
			c16.1-21.2,38.9-33,62.1-43.5c47.1-20.1,100.4-29.4,153.2-35.2c26.5-2.7,53.1-4.2,79.2-4.9c3.4,0,6.7-0.1,10.1-0.1v-0.1
			c1.6,0,3.3,0,4.9,0.1c1.6,0,3.3,0,4.9-0.1v0.1c3.4,0,6.7,0.1,10.1,0.1c26.1,0.7,52.7,2.2,79.2,4.9c52.9,5.8,106.1,15.1,153.2,35.2
			c23.2,10.5,46,22.3,62.1,43.5c1.9,2.7,4.2,6.5,5.1,8.6c1.7,3.4,2.3,5.3,3.5,8c2.2,5,4.4,9.8,6.5,14.7c4.3,9.6,8.8,18.6,13.2,27.1
			c8.9,17,18.3,31.6,29.3,41.2c11.6,9.7,23.1,18.3,32.1,25.2c18.3,13.8,28.7,21.7,28.7,21.7l0.1,0.1c0.7,0.5,1.2,1.2,1.6,1.9
			c1.3-2.5,0.7-5.7-1.6-7.4l-0.1-0.1c0,0-10.5-7.9-28.7-21.7c-9-6.9-20.5-15.5-32.1-25.2c-11-9.6-20.4-24.2-29.3-41.2
			c-4.4-8.5-8.9-17.6-13.2-27.1c-2.1-4.8-4.3-9.7-6.5-14.7c-1.2-2.7-1.9-4.6-3.5-8c-0.9-2.1-3.2-5.9-5.1-8.6
			c-16.1-21.2-38.9-33-62.1-43.5c-47.1-20.1-100.4-29.4-153.2-35.2c-26.5-2.7-53.1-4.2-79.2-4.9c-3.4,0-6.7-0.1-10.1-0.1v-0.1
			c-1.6,0-3.3,0-4.9,0.1c-1.6,0-3.3,0-4.9-0.1v0.1c-3.4,0-6.7,0.1-10.1,0.1c-26.1,0.7-52.7,2.2-79.2,4.9
			c-52.9,5.8-106.1,15.1-153.2,35.2c-23.2,10.5-46,22.3-62.1,43.5c-1.9,2.7-4.2,6.5-5.1,8.6c-1.7,3.4-2.3,5.3-3.5,8
			c-2.2,5-4.4,9.8-6.5,14.7c-4.3,9.6-8.8,18.6-13.2,27.1c-8.9,17-18.3,31.6-29.3,41.2c-11.6,9.7-23.1,18.3-32.1,25.2
			c-18.3,13.8-28.7,21.7-28.7,21.7l-0.1,0.1c-2.3,1.7-2.9,4.9-1.6,7.4C2559.3,3938.7,2559.8,3938.1,2560.5,3937.6z"/>
		<path class="st58" d="M2984.4,4442.9c1.8,0,3.6-0.4,5.4-1.1c0.8-0.4,1.7-0.9,2.5-1.4l103.9-74.5l-117.1,51.4
			c-6.8,3-9.8,10.9-6.9,17.6C2974.3,4439.7,2979.1,4442.9,2984.4,4442.9z"/>
	</g>
	<g class="st1">
		<g class="st29">
			<path class="st85" d="M6615.4,2288v4.9c0,4.8-1.7,9.4-4.7,13l-91,108.1c-11.1,13.1-42,46.8-5.3,46.6l84.2,4.9
				c11.1,1.4,17.1,7.6,20.7,26.6c2.3,12.4-11.1,17.3-22.2,17.3h-159.8c-11.1,0-36.3-2.2-36.3-13.3c0,0-5.2-15.5,14.1-30.5l110-124.1
				c19-19.5,17.3-32.8-15.4-33.2h-74.2c-11.2,0-20.3-9.1-20.2-20.3l0,0c0.1-11.1,8.3-15.2,19.4-15.2l164.8-10.2
				C6610.5,2262.4,6615.4,2276.8,6615.4,2288z"/>
		</g>
		<g class="st29">
			<path class="st85" d="M6645.2,1740.2v7.3c0,7.1-2.5,14-7.1,19.4L6502.3,1928c-16.5,19.6-62.6,69.8-8,69.5l125.5,7.3
				c16.6,2,25.6,11.3,30.9,39.6c3.5,18.5-16.5,25.8-33.1,25.8h-238.2c-16.6,0-54.2-3.2-54.2-19.9c0,0-7.8-23.1,21-45.4l164.1-185.1
				c28.4-29.1,25.7-49-23-49.5h-110.6c-16.7,0-30.2-13.6-30.1-30.3v0c0.1-16.5,12.3-22.6,28.9-22.6l245.8-15.2
				C6637.9,1702.1,6645.2,1723.6,6645.2,1740.2z"/>
		</g>
		<g class="st29">
			<path class="st85" d="M6952.8,2031.9v6.2c0,6-2.1,11.8-6,16.4l-115.1,136.7c-14,16.6-53.1,59.2-6.7,58.9l106.5,6.2
				c14,1.7,21.7,9.6,26.2,33.6c2.9,15.7-14,21.9-28.1,21.9h-202.1c-14.1,0-46-2.7-46-16.8c0,0-6.6-19.6,17.8-38.5l139.1-157
				c24.1-24.7,21.8-41.5-19.5-42h-93.8c-14.2,0-25.6-11.6-25.5-25.7l0,0c0.1-14,10.5-19.2,24.5-19.2l208.5-12.9
				C6946.6,1999.6,6952.8,2017.8,6952.8,2031.9z"/>
		</g>
		<path class="st86" d="M6314.5,2509.2c0,18.8-15.2,34-34,34c-18.8,0-34-15.2-34-34c0-18.8,15.2-34,34-34
			C6299.2,2475.2,6314.5,2490.4,6314.5,2509.2z"/>
		
			<ellipse transform="matrix(0.9239 -0.3827 0.3827 0.9239 -515.9006 2566.9851)" class="st86" cx="6194.6" cy="2580.3" rx="24.2" ry="24.2"/>
		
			<ellipse transform="matrix(0.9239 -0.3827 0.3827 0.9239 -543.5576 2547.0081)" class="st86" cx="6130.6" cy="2639.8" rx="18.5" ry="18.5"/>
	</g>
	<path class="st87" d="M12047.3,5027.5l-223.7-55.7c0,0-976.5-362.5-2278.5-91.9c-1302,270.6-890.8,191.9-1791.6,52.9
		c-900.7-139-1136.3-678.9-1136.3-678.9v0c13.1,131.9,43.6,268.9,66.8,463.6c41.9,352.4,459.6,476.3,773.4,543.9
		c830.6,178.9,4589.9-75.7,4589.9-75.7V5027.5z"/>
	<path class="st88" d="M12047.3,3619.2c0,0-1184.7-792.7-1782.2-833.9c-597.5-41.2-754.8,136-1099.4,112.2
		c-576.9-39.9-626.5-144.3-961.4-172.8c-635.4-54.1-1454.8-167.9-1562.5,247.2c-19.7,75.9-27.1,143.2-27.8,207.1
		c49.6-86.4,170.8-203.3,465.4-227.1c478.4-38.6,1386.4,401.8,2114.5,322.9s376.9-399.8,1207.8-157.9
		c830.9,241.8,1645.6,588.2,1645.6,588.2v0V3619.2z"/>
</g>
</svg>
