<?xml version="1.0" encoding="utf-8"?>
<!-- Generator: Adobe Illustrator 21.1.0, SVG Export Plug-In . SVG Version: 6.00 Build 0)  -->
<svg version="1.1" id="Layer_1" xmlns="http://www.w3.org/2000/svg" xmlns:xlink="http://www.w3.org/1999/xlink" x="0px" y="0px"
	 viewBox="0 0 800 600" style="enable-background:new 0 0 800 600;" xml:space="preserve">
<style type="text/css">
	.st0{fill:url(#SVGID_1_);}
	.st1{fill:#D1D3D4;}
	.st2{fill:#F5A637;}
	.st3{fill:#FFB752;}
	.st4{fill:#FFCF8F;}
	.st5{fill:#FFC77A;}
	.st6{fill:#414042;}
	.st7{fill:#3BDBED;}
	.st8{fill:#21C6D9;}
	.st9{fill:#37E2F5;}
	.st10{fill:#04A4B5;}
	.st11{fill:#87A4A8;}
	.st12{fill:#69E9F7;}
	.st13{fill:#E3FCFF;}
	.st14{fill:#F53737;}
	.st15{fill:#FF4D4D;}
	.st16{fill:#FF8A8A;}
	.st17{fill:#FF7A7A;}
	.st18{fill:#DB3030;}
	.st19{fill:#373638;}
	.st20{fill:#58595B;}
	.st21{fill:#FFFFFF;}
	.st22{fill:#083136;}
	.st23{fill:#062529;}
	.st24{fill:#E03333;}
	.st25{fill:#C92D2D;}
	.st26{fill:#B82929;}
	.st27{fill:#942121;}
	.st28{fill:#2D2D2E;}
	.st29{fill:#1A1C1C;}
	.st30{fill:#E2E3E3;}
	.st31{fill:#2D2C2E;}
	.st32{fill:#56036E;}
	.st33{fill:#CDCECF;}
	.st34{fill:#6E038C;}
	.st35{fill:#F1F2F2;}
	.st36{fill:#E6E7E8;}
	.st37{fill:#E6972C;}
	.st38{fill:#FF6161;}
</style>
<g>
	<linearGradient id="SVGID_1_" gradientUnits="userSpaceOnUse" x1="400" y1="26.9088" x2="400" y2="820.4028">
		<stop  offset="0" style="stop-color:#FFFFFF"/>
		<stop  offset="3.354140e-02" style="stop-color:#FEFEFE"/>
		<stop  offset="1" style="stop-color:#E0E0E0"/>
	</linearGradient>
	<rect x="0" y="0" class="st0" width="800" height="600"/>
	<g>
		<path class="st1" d="M154,408.2c0,0-73.1,5.4-78.3,13.7c-5.2,8.3,117.4,16.3,255.5,11l-101.4-32.4L172.4,412L154,408.2z"/>
	</g>
	<g>
		<path class="st1" d="M357,442.1l-15.6,6.4c0,0-93.8,4.4-108.4,15.7c-14.6,11.3,45.7,19.2,45.7,19.2s-89.6,0.1-105.8,15
			c-16.2,14.9,78.3,36.1,179.9,21.1c0,0-4.7,4.7,10.5,5.1s85.6,0.9,170.9-12.1l-95.1-65l-31.5,4.8L357,442.1z"/>
	</g>
	<g>
		<path class="st1" d="M739.5,430.1c0,0,14.5,0.9,12,8c-2.5,7.1-21.2,8.9-21.2,8.9s12.1-0.6,8.5,5.8c-3.6,6.3-44.3,27.1-155.4,16.1
			c-94.3-9.3,59.9-41.5,59.9-41.5l51,3.2L739.5,430.1z"/>
	</g>
	<g>
		<ellipse class="st1" cx="394" cy="407.3" rx="285.5" ry="26.2"/>
	</g>
	<g>
		<g>
			<g>
				<circle class="st2" cx="489.8" cy="316.7" r="93.6"/>
			</g>
		</g>
		<g>
			<g>
				<circle class="st3" cx="502.5" cy="299.2" r="59.3"/>
			</g>
		</g>
		<g>
			<g>
				
					<ellipse transform="matrix(0.9287 -0.3709 0.3709 0.9287 -63.0184 210.7448)" class="st4" cx="516.4" cy="269.2" rx="13" ry="18.3"/>
			</g>
		</g>
		<g>
			<g>
				
					<ellipse transform="matrix(0.9287 -0.3709 0.3709 0.9287 -72.8406 217.0097)" class="st5" cx="527.8" cy="297.9" rx="4.8" ry="6.7"/>
			</g>
		</g>
		<g>
			<path class="st6" d="M396.3,316.7c0,0.5,0,1,0,1.4h187.1c0-0.5,0-1,0-1.4c0-0.5,0-1,0-1.4H396.3
				C396.3,315.7,396.3,316.2,396.3,316.7z"/>
		</g>
		<g>
			<path class="st6" d="M556.3,250.8c-10.4,22-26.6,44-66.5,45c-35.8,0.9-58.3-22.8-67.1-44.2c-0.7,0.7-1.5,1.5-2.2,2.3
				c9.4,21.6,31.8,44.9,67.3,44.9c0.7,0,1.3,0,2,0c40.8-1,57.8-23.2,68.5-45.6C557.7,252.2,557,251.5,556.3,250.8z"/>
		</g>
		<g>
			<path class="st6" d="M557.2,381.6c-9.6-20.1-28.8-43.1-66-43.1c-40.3,0-59.4,26.8-67.5,44.2c0.7,0.7,1.5,1.4,2.2,2.1
				c7.6-16.8,25.9-43.5,65.3-43.5c36.4,0,54.8,22.8,63.9,42.4C555.7,383.1,556.4,382.4,557.2,381.6z"/>
		</g>
	</g>
	<g>
		<g>
			<polygon class="st7" points="607.8,279.1 591.9,284.5 598.8,408.2 647.4,408.2 650.8,284.5 620.2,280.4 608.6,280.4 			"/>
		</g>
		<g>
			<polygon class="st8" points="595.6,295.5 646,294.2 644.3,405.3 601.3,405.3 			"/>
		</g>
		<g>
			<polygon class="st9" points="614.7,254.1 614.8,261.8 618.8,264.7 626.4,263.5 627.2,261.8 627.2,252.3 622.3,251.9 618.4,252.8 
							"/>
		</g>
		<g>
			<polygon class="st10" points="611.2,256.4 631,256.4 633,241.4 609.7,242.5 			"/>
		</g>
		<g>
			<polygon class="st10" points="593.3,310.5 650.1,308.9 650.2,306 593.1,306 			"/>
		</g>
		<g>
			<polygon class="st10" points="594,322.3 649.8,321.6 649.8,319.5 593.8,318.1 			"/>
		</g>
		<g>
			<g>
				<path class="st11" d="M619.9,380.9l-0.8-96.5c0,0-5.3-1.9-5.7-2.2c-0.4-0.3-6.3,0-6.3,0l-6.6,2.2l5.2,97.4L619.9,380.9z"/>
			</g>
			<g>
				<polygon class="st11" points="605.9,387 607,408.2 620.1,408.2 620,388.4 				"/>
			</g>
		</g>
		<g>
			<polygon class="st12" points="627.2,261.8 614.8,261.8 591.9,284.5 650.8,284.5 			"/>
		</g>
		<g>
			<polygon class="st13" points="617.5,261.8 600.4,284.5 619.1,284.5 621,261.8 			"/>
		</g>
	</g>
	<g>
		<g>
			<g>
				<circle class="st14" cx="243.4" cy="245.6" r="154.3"/>
			</g>
		</g>
		<g>
			<g>
				<circle class="st15" cx="254.3" cy="217.8" r="109.3"/>
			</g>
		</g>
		<g>
			<g>
				
					<ellipse transform="matrix(0.9287 -0.3709 0.3709 0.9287 -40.1459 116.3116)" class="st16" cx="282.3" cy="162.5" rx="24" ry="33.6"/>
			</g>
		</g>
		<g>
			<g>
				
					<ellipse transform="matrix(0.9287 -0.3709 0.3709 0.9287 -58.2437 127.8569)" class="st17" cx="303.3" cy="215.4" rx="8.8" ry="12.3"/>
			</g>
		</g>
		<g>
			<path class="st18" d="M393.5,281.1c-0.2,0.6-24.7,63.3-150.1,63.4c-0.1,0-0.1,0-0.2,0c-103.6,0-138.7-38.5-145.3-47.2
				c1.4,4,3.1,8,4.8,11.9c16.3,15.1,56,39.8,140.4,39.8c0.1,0,0.1,0,0.2,0c91.1,0,130-31.8,145.3-51.4
				C390.6,292.2,392.2,286.7,393.5,281.1L393.5,281.1z"/>
		</g>
		<g>
			<path class="st18" d="M384.7,183.5c-0.8-1.8-1.6-3.5-2.4-5.2c-6.6,15.3-35.3,64-133.3,65.1c-1.2,0-2.3,0-3.4,0
				c-107.1,0-134.1-58.8-138.4-70.5c-0.9,1.7-1.8,3.4-2.6,5.2c7.9,17.9,39.7,69.7,141,69.7c1.1,0,2.3,0,3.5,0
				C342.8,246.7,375.1,202.6,384.7,183.5z"/>
		</g>
		<g>
			<path class="st18" d="M330.7,118.3c-4,10.6-20.8,39.1-86.5,39.1c-57.9,0-77.2-32.7-81.9-43.2c-1.2,0.8-2.5,1.6-3.7,2.4
				c5.7,11.8,27.1,45.2,85.6,45.2c66.7,0,85.3-28.2,90.3-40.9C333.2,120.1,332,119.2,330.7,118.3z"/>
		</g>
	</g>
	<g>
		<g>
			<circle class="st6" cx="215.3" cy="351.8" r="66.4"/>
		</g>
		<g>
			<path class="st6" d="M250.3,300.4c0,0,15.6-27.3,8.5-52.3c-7.1-25.1-74.8-29.6-84.3,1.9c-8.9,29.4,14.3,56.4,14.3,56.4l16.5-14.6
				c0,0-18.3-20.3-10.5-35.4c7.8-15.1,40.2-14.3,44.5,2.2c4.3,16.5-10.5,34.3-10.5,34.3L250.3,300.4z"/>
		</g>
		<g>
			<path class="st19" d="M273,384.6c-20.8,5.9-73.4,17.1-92-12.9c-23.3-37.7-1.9-75.4-1.8-75.5c-18.2,11.8-30.3,32.4-30.3,55.7
				c0,36.7,29.7,66.4,66.4,66.4C240.1,418.2,261.6,404.7,273,384.6z"/>
		</g>
		<g>
			<g>
				<path class="st20" d="M272.6,335.4c-1-3.7-2.2-7.5-3.9-11.4c-11.3-25.5-44.6-33.1-44.6-33.1c20.7,12.3,32.9,32.9,39.9,50.4
					L272.6,335.4z"/>
			</g>
			<g>
				<path class="st20" d="M266,346.4c5.4,15,7,26.7,7,26.7s4-13.6,1.1-31.3L266,346.4z"/>
			</g>
		</g>
		<g>
			<g>
				<polygon class="st21" points="186.8,331.1 189,340 195.1,336.7 195.1,369.4 205.1,369.4 205.1,325.4 197.6,325.4 				"/>
			</g>
			<g>
				<path class="st21" d="M230.1,324.7c-9.8,0-16.1,9-16.1,22.8c0.2,16.6,8.1,22.5,15.4,22.5c10.2,0,16.1-8.4,16.1-23.1
					C245.5,333,239.7,324.7,230.1,324.7z M229.7,361.1c-3.4,0-5.5-5.3-5.5-13.6c0-8.3,2.2-13.9,5.6-13.9c5,0,5.5,9.5,5.5,13.6
					C235.3,351.4,234.8,361.1,229.7,361.1z"/>
			</g>
		</g>
	</g>
	<g>
		<g>
			<path class="st22" d="M359.9,235.9l-6,4.2c0,0-25.9,15.5-29.5,36.2c-2.9,17,0.8,141.9,0.8,141.9H438c0,0,2.4-118,0-142.5
				c-2-20.6-30.5-35.6-30.5-35.6l-23.3-6.6l-15.3,2.5L359.9,235.9z"/>
		</g>
		<g>
			<path class="st8" d="M324.1,375.9l114.5,1.5c0.4-27.1,0.6-61.7,0.1-83.9l-115.3-2C323,312.1,323.5,347.7,324.1,375.9z"/>
		</g>
		<g>
			<g>
				<path class="st22" d="M360.6,272.9c6.1-24.3,9.4-35.4,9.4-35.4h-5.4c0,0-13.4,15.9-20.7,33.2L360.6,272.9z"/>
			</g>
			<g>
				<path class="st22" d="M359.5,277.4c0,0,0-0.1,0-0.1l-17.1-2.5c-0.9,2.4-1.6,4.8-2.1,7.1c-4.7,20.9,4.5,136.4,4.5,136.4H360
					C360,418.2,352.7,304.8,359.5,277.4z"/>
			</g>
		</g>
		<g>
			<path class="st23" d="M352.5,225.8l1.4,14.3h53.7v-15.9c0,0-22,4.1-25.5,3.6c-3.5-0.5-13.8-1-15.7-1.2c-1.3-0.2-6.8-1.2-10-1.9
				c-1.4-0.3-2.4-0.5-2.4-0.5L352.5,225.8z"/>
		</g>
		<g>
			<polygon class="st12" points="347.3,229.5 344.7,212.7 414.3,212.7 414.3,231.9 			"/>
		</g>
	</g>
	<g>
		<g>
			<path class="st14" d="M420.8,403.4l42.8-18.8L677.7,445c-62.3,31.5-131,71-152.7,66.2c-13.9-2.8-64.7-37.9-104.3-63.2
				L420.8,403.4z"/>
		</g>
		<g>
			<path class="st24" d="M541.3,505l-16.2,6.1c17.7,5.7,92.9-34,152.7-66.2l-14.4-4.1c-12.6,9.5-31.4,21.3-50.6,24.1
				c-32.6,4.8-43.1-0.3-43.1-0.3c-0.8,9-3.2,17.3-7.8,24.5c-3.4,5.5-7.1,9.3-13.6,12.9L541.3,505z"/>
		</g>
		<g>
			<path class="st25" d="M341.4,448.6c0,0-24.4-46.7,23.5-70.4l188.8,52.5c-8-2.8-18-1.2-27.3,4.2c-10.7,9.2-17.2,20.2-20.2,32.7
				c-5.3,25.6,1.2,40,18.8,43.6L341.4,448.6z"/>
		</g>
		<g>
			<path class="st26" d="M524.4,510.2c-13-0.5-19.7-10.7-21-29.2c-26.5-2.6-96.7-12.3-123.2-42.1c-32.9-37.1-8.5-58.8-8.5-58.8
				l-6.8-1.9c-47.9,23.8-23.5,70.4-23.5,70.4l182.7,62.2L524.4,510.2z"/>
		</g>
		<g>
			<path class="st27" d="M547.2,435.4l-14.1-2.4c0,0-7.3,0.1-14.7,8.8c-7.3,8.8-12,20-13.2,33.5c-1.1,13.5-2.2,21.1,2.1,24.4
				c0,0,20.3,7.5,24.8,7.6l-6.2-4l-7.8-9.8l-2.1-19l2.2-13.3l3.7-9.5l9.2-9.8l7.9-4.5l7.6-1.3L547.2,435.4z"/>
		</g>
		<g>
			<polygon class="st27" points="534.1,497.1 517.3,491.7 516.1,477 517.9,459.9 525.9,447.5 528.1,445.5 546.7,449 545.9,450.8 
				536.8,454.2 531.4,460.4 526.8,471.8 525,482.4 528.1,489.5 			"/>
		</g>
		<g>
			<path class="st27" d="M543.4,462.5l-12.6-1.9c0,0-3,3.3-4.2,8.2s-1.5,13.6-1.5,13.6l15.2,3.8l-1.4-1.8c0,0-2.4-3.7-2.4-4
				c0-0.3,0.1-4.9,0.2-5.4s1.3-5,1.3-5l1.5-3.2l2.7-2.7L543.4,462.5z"/>
		</g>
		<g>
			<polygon class="st27" points="543.5,471.1 539.1,469.3 541,465.4 543.5,464.2 545.1,465.8 545.1,467.6 544.6,470.1 			"/>
		</g>
		<g>
			<g>
				<path class="st21" d="M530.7,512.6c-5.9,0-11.1-1.1-15.3-3.4c-6.7-3.6-10.7-9.9-11.9-18.6c-2.3-17.1,3.4-37.1,14.2-49.8
					c6.7-7.8,14.7-12,23-12.1c11.4-0.2,19.8,2.9,24.9,9.3c6.4,7.9,7.5,20.8,3.4,38.2c-4.9,20.6-23.3,32.9-36.9,31.1
					c-5.6-0.8-18.6-5.3-17.7-31.3c0.9-25.2,14.5-34.7,20.2-37.7c8-4,16.7-3.9,22.8,0.3c5.4,3.7,8,10.1,7.2,17.9
					c-3.8,38-21.2,41.3-28.5,41c-4.2-0.2-7.6-2.5-9.8-6.7c-4.3-8.1-3.1-21.6,2.6-30.6c5.1-8,13.5-12.5,20.1-10.7
					c4.6,1.3,7.3,5.4,7.4,11.4c0.2,9.5-3.1,18.4-8.5,22.8c-2.7,2.2-5.7,3.1-8.5,2.4c-4-0.9-5.4-5.9-3.9-13.1
					c1.2-5.6,4.2-11.2,7.7-10.5c1.4,0.3,2.5,1.1,3.1,2.2c1.5,2.8-0.2,7-0.4,7.4l-2.6-1.1l1.3,0.5l-1.3-0.5c0.5-1.3,1.1-3.8,0.5-5
					c-0.1-0.3-0.4-0.6-1.2-0.8c-0.7-0.1-3.1,2.8-4.3,8.3c-0.9,4.3-0.8,9.1,1.7,9.7c2.4,0.6,4.6-0.7,6-1.8c3.6-3,7.8-10.1,7.5-20.6
					c-0.1-4.7-2-7.8-5.4-8.8c-4.5-1.2-12,1.7-17,9.5c-5.1,8.1-6.2,20.5-2.4,27.8c1.7,3.3,4.2,5.1,7.4,5.2
					c13.7,0.6,23-13.4,25.5-38.4c0.7-6.7-1.4-12.1-6-15.2c-5.3-3.6-12.9-3.7-19.9-0.1c-5.3,2.7-17.8,11.5-18.7,35.2
					c-0.6,16.6,5,27,15.3,28.4c12.3,1.7,29.3-10.4,33.7-29c3.9-16.5,3-28.5-2.8-35.7c-4.5-5.6-12.2-8.4-22.6-8.2
					c-7.5,0.1-14.8,4-20.9,11.2c-10.3,12.1-15.8,31.2-13.5,47.6c1.1,7.8,4.6,13.4,10.4,16.5c11.9,6.4,30.8,1.6,44.5-5
					c23.3-11.2,115.5-56.5,116.4-57l1.3,2.5c-0.9,0.5-93.1,45.8-116.4,57C551.1,509.7,540.1,512.6,530.7,512.6z"/>
			</g>
		</g>
	</g>
	<g>
		<g>
			<path class="st6" d="M293.8,520.5c-10.2,0-21.1-0.8-32.4-2.7c-28.9-4.9-49.7-19-55.5-37.7c-1.2-3.9-1.7-7.9-1.5-11.8
				c-0.8-5.2-0.2-10.5,2.1-15.8c4.2-10.1,13.5-18.9,26.1-25c13.3-6.4,29.1-9,44.7-7.4c28.8,3,49.5,13.5,56.6,28.9
				c4.1,8.8,3.2,18.7-2.5,27c-5.3,7.9-13.6,14.3-23.5,19c13.8-2.3,29.5-6.4,47.3-12.9l0.7,1.9c-21.4,7.8-39.9,12.2-55.7,14.2
				c-3,1.6-6.1,3-9.5,4.2c-24.4,8.5-52.9,3.7-72.5-12.3c-5.1-4.2-8.9-8.7-11.3-13.5c0.2,1,0.5,2,0.8,3c5.6,18,25.7,31.5,53.9,36.3
				c51.7,8.8,95.7-7.1,96.1-7.3l0.7,1.9C358.2,510.5,330.8,520.5,293.8,520.5z M206.4,468.1c1.2,7.3,5.6,14.3,13.1,20.4
				c17.6,14.4,42.6,19.5,65.1,13.6c-11,1.8-22.6,1.7-33.9-0.5c-19.9-3.9-35.3-14-40.1-26.2c-1-2.6-1.5-5.1-1.6-7.7l-0.4-1.2l0.4,0.6
				c0.1-4.6,1.6-9,4.7-13.3c12.9-17.9,33.6-25.6,63.3-23.8c6.6,0.4,13,1.5,18.9,3.2c-24.6-9.3-59-8.3-76,8.2
				C211.6,449.6,207,458.8,206.4,468.1z M244,497.9c2.3,0.7,4.7,1.3,7.2,1.7c12.7,2.5,25.9,2.2,38-0.4c-2.9,0.2-5.6,0.3-8.3,0.3
				c-6.7,1-13.8,1.3-21.2,0.8C253.8,499.9,248.6,499,244,497.9z M219,481.6c6.2,6.7,18.4,15.1,40.9,16.7c0.4,0,0.7,0,1.1,0.1
				c-7.2-1-13.3-2.5-18.5-4.2C231.5,490.5,223.9,485.7,219,481.6z M211.4,470.4l1.6,2.4c0.1,0.1,8.6,12.3,30.2,19.5
				c9,3,21.2,5.4,37.1,5.2c12.8-1.9,24.1-6.2,32.5-11.4c5.1-5.5,8.5-11.9,10.1-18.9c2-9.3-1.7-18-10.5-25
				c-9.4-5.5-21.8-9.3-35.2-10.1c-28.9-1.8-49.1,5.7-61.6,23C211.9,459.9,210.6,465.2,211.4,470.4z M306.1,492.1
				c-3.9,1.8-8.3,3.5-12.9,4.8c2.1-0.2,4.2-0.4,6.4-0.7C302,495,304.1,493.6,306.1,492.1z M313.9,487.9c-1.4,1.5-2.9,2.9-4.6,4.3
				c8.6-4.4,15.7-10.3,20.5-17.2c5.3-7.9,6.2-16.8,2.3-25.1c-6.8-14.7-26.9-24.8-55-27.7c-33.5-3.5-61.3,13.1-68.8,31.2
				c-0.3,0.8-0.7,1.7-0.9,2.5c2.4-5.5,6.2-10.8,11.3-15.8c19.8-19.2,62.6-18.1,87.5-4.3c2.9,1.6,5.4,3.3,7.6,5.1
				c9.9,6,16.5,13.9,17.6,22.4c0.7,5.1-1.7,10.7-6.9,16.2C321.7,482.4,318.1,485.2,313.9,487.9z M321.2,448.8
				c3.8,5.7,5,12.1,3.6,18.8c-1.1,5.2-3.3,10.1-6.3,14.5c1.7-1.3,3.2-2.7,4.5-4.1c4.7-5,7-10.2,6.4-14.6
				C328.8,458.3,325.8,453.3,321.2,448.8z"/>
		</g>
		<g>
			<path class="st28" d="M356.9,518.1l-4-16.4l68.2-22.9c0,0,11.1,9.3,7.2,26.3L356.9,518.1z"/>
		</g>
		<g>
			<path class="st12" d="M366.6,516.3l7.8-1.4l-7.9-17.8l-4.5,1.5C362.8,502.1,365.2,511,366.6,516.3z"/>
		</g>
		<g>
			<path class="st29" d="M356.2,515.1l0.7,3l71.4-12.9c3.9-17-7.2-26.3-7.2-26.3l-3.7,1.2C413,508,364,514.2,356.2,515.1z"/>
		</g>
		<g>
			<path class="st28" d="M357.5,491.4l-5.5-15.9l65.8-29c0,0,11.9,8.3,9.6,25.6L357.5,491.4z"/>
		</g>
		<g>
			<path class="st12" d="M367,488.8l7.6-2.1l-9.5-17l-4.4,1.9C362,475,365.1,483.7,367,488.8z"/>
		</g>
		<g>
			<path class="st29" d="M356.5,488.5l1,2.9l69.9-19.4c2.3-17.3-9.6-25.6-9.6-25.6l-3.6,1.6C412.4,476.3,364.2,487,356.5,488.5z"/>
		</g>
	</g>
	<g>
		<path class="st30" d="M661.3,440.3L661.3,440.3h-38.2l-21.9,4.3l-8,2.4c0,0-0.3,1.1-9.7,4.1c-9.3,2.9-19.1,8.8,6.7,9.8
			c19.5,0.8,35-0.2,52.3,1.1c10.6-5.2,21.3-10.4,31.3-15.5L661.3,440.3z"/>
	</g>
	<g>
		<g>
			<g>
				<path class="st31" d="M605.4,412.7c0,0,0.1-22.2,19.4-39c0,0,10.4,11.3,19.4,14.3c9,3,20.9-5.9,20.9-5.9s20.1,16.7,37.5,26.2
					c17.4,9.4,36.1,4.6,40.9,12.6l-17.2,9.3l-32.1,6.8l-31-5.9l-30.8-7.8l-14.9-2.9c0,0-7.9-5.2-8.3-5.4c-0.3-0.2-3.2-2.5-3.2-2.5
					L605.4,412.7z"/>
			</g>
			<g>
				<path class="st32" d="M717,432.1l9.5-2l17.2-9.3c-2.7-4.5-9.9-4.9-18.8-6.2C721.4,418,717.7,423.6,717,432.1z"/>
			</g>
			<g>
				<path class="st32" d="M640.3,417.4c-4.9-20.2-20.8-25.4-28.8-26.7c-6,11.8-6.1,22-6.1,22l0.7-0.3c0,0,2.9,2.2,3.2,2.5
					c0.3,0.2,5.9,3.9,7.7,5.1L640.3,417.4z"/>
			</g>
			<g>
				
					<rect x="667.7" y="394.7" transform="matrix(0.6268 -0.7792 0.7792 0.6268 -56.3623 673.0294)" class="st21" width="13.2" height="1.4"/>
			</g>
			<g>
				
					<rect x="676.4" y="400.7" transform="matrix(0.6268 -0.7792 0.7792 0.6268 -57.8117 681.9635)" class="st21" width="13.2" height="1.4"/>
			</g>
			<g>
				
					<rect x="684.5" y="406.2" transform="matrix(0.6268 -0.7792 0.7792 0.6268 -59.0945 690.35)" class="st21" width="13.2" height="1.4"/>
			</g>
			<g>
				
					<rect x="695.9" y="411.4" transform="matrix(0.5018 -0.865 0.865 0.5018 -6.9395 812.0145)" class="st21" width="11.2" height="1.4"/>
			</g>
			<g>
				<path class="st14" d="M639.3,402.7l2.8,6c0,0,10.8-1.4,22.9,3.3c13.2,5.1,34,15.1,50,6.8c0,0-12.2,3.4-25.7-1.1
					C674.8,412.7,664.3,402,639.3,402.7z"/>
			</g>
			<g>
				<path class="st30" d="M604.4,412.5c-7.2,2.4-15,21.1-2.3,25.5c12.7,4.3,29-3.4,41.1-4c12.1-0.6,33.4,5.2,44.3,6.7
					c17.4,2.4,33.3,2.8,50.9-6.3c20.7-10.7,9.4-20.7,2.3-14c-8,7.5-22.5,12.4-46.3,10.2c-20.4-1.9-40.7-13.1-59.3-16.8
					C612.6,409.2,609.4,410.8,604.4,412.5z"/>
			</g>
			<g>
				<path class="st33" d="M750,421c-15.4,18.8-37.3,16.9-78.3,10.8c-42.7-6.3-41.3,1.6-57.4,2.6c-16.1,1-17.5-13.1-17.5-13.1
					c-2.5,6.3-2.3,14.1,5.3,16.6c12.7,4.3,29-3.4,41.1-4c12.1-0.6,33.4,5.2,44.3,6.7c17.4,2.4,33.3,2.8,50.9-6.3
					C748.5,429.1,751,424,750,421z"/>
			</g>
		</g>
		<g>
			<path class="st32" d="M665.2,382.1c0,0-11.9,8.9-20.9,5.9c-9-3-19.4-14.3-19.4-14.3c-1.2,1.1-2.4,2.2-3.5,3.3
				c4.2,5.2,15.7,17.2,31.1,14.6c6.9-1.2,12-3.9,15.7-7.1C666.3,383,665.2,382.1,665.2,382.1z"/>
		</g>
	</g>
	<g>
		<g>
			<g>
				<path class="st6" d="M583.7,428.1c0,0,0.1-22.2,19.4-39c0,0,10.4,11.3,19.4,14.3c9,3,20.9-5.9,20.9-5.9s20.1,16.7,37.5,26.2
					c17.4,9.4,36.1,4.6,40.9,12.6l-17.2,9.3l-32.1,6.8l-31-5.9l-30.8-7.8l-14.9-2.9c0,0-7.9-5.2-8.3-5.4c-0.3-0.2-3.2-2.5-3.2-2.5
					L583.7,428.1z"/>
			</g>
			<g>
				<path class="st34" d="M695.3,447.6l9.5-2l17.2-9.3c-2.7-4.5-9.9-4.9-18.8-6.2C699.6,433.5,696,439,695.3,447.6z"/>
			</g>
			<g>
				<path class="st34" d="M618.5,432.9c-4.9-20.2-20.8-25.4-28.8-26.7c-6,11.8-6.1,22-6.1,22l0.7-0.3c0,0,2.9,2.2,3.2,2.5
					c0.3,0.2,5.9,3.9,7.7,5.1L618.5,432.9z"/>
			</g>
			<g>
				
					<rect x="646" y="410.1" transform="matrix(0.6268 -0.7792 0.7792 0.6268 -76.5556 661.8169)" class="st21" width="13.2" height="1.4"/>
			</g>
			<g>
				
					<rect x="654.7" y="416.1" transform="matrix(0.6268 -0.7792 0.7792 0.6268 -77.9889 670.793)" class="st21" width="13.2" height="1.4"/>
			</g>
			<g>
				
					<rect x="662.7" y="421.7" transform="matrix(0.6268 -0.7792 0.7792 0.6268 -79.272 679.1829)" class="st21" width="13.2" height="1.4"/>
			</g>
			<g>
				
					<rect x="674.2" y="426.8" transform="matrix(0.5018 -0.865 0.865 0.5018 -31.159 800.9191)" class="st21" width="11.2" height="1.4"/>
			</g>
			<g>
				<path class="st14" d="M617.6,418.2l2.8,6c0,0,10.8-1.4,22.9,3.3c13.2,5.1,34,15.1,50,6.8c0,0-12.2,3.4-25.7-1.1
					C653.1,428.2,642.5,417.5,617.6,418.2z"/>
			</g>
			<g>
				<path class="st35" d="M582.7,428c-7.2,2.4-15,21.1-2.3,25.5c12.7,4.3,29-3.4,41.1-4c12.1-0.6,33.4,5.2,44.3,6.7
					c17.4,2.4,33.3,2.8,50.9-6.3c20.7-10.7,9.4-20.7,2.3-14c-8,7.5-22.5,12.4-46.3,10.2c-20.4-1.9-40.7-13.1-59.3-16.8
					C590.8,424.7,587.7,426.3,582.7,428z"/>
			</g>
			<g>
				<path class="st36" d="M728.2,436.5c-15.4,18.8-37.3,16.9-78.3,10.8c-42.7-6.3-41.3,1.6-57.4,2.6c-16.1,1-17.5-13.1-17.5-13.1
					c-2.5,6.3-2.3,14.1,5.3,16.6c12.7,4.3,29-3.4,41.1-4c12.1-0.6,33.4,5.2,44.3,6.7c17.4,2.4,33.3,2.8,50.9-6.3
					C726.8,444.6,729.2,439.5,728.2,436.5z"/>
			</g>
		</g>
		<g>
			<path class="st34" d="M643.4,397.6c0,0-11.9,8.9-20.9,5.9c-9-3-19.4-14.3-19.4-14.3c-1.2,1.1-2.4,2.2-3.5,3.3
				c4.2,5.2,15.7,17.2,31.1,14.6c6.9-1.2,12-3.9,15.7-7.1C644.5,398.5,643.4,397.6,643.4,397.6z"/>
		</g>
	</g>
	<g>
		<path class="st10" d="M438.7,377.4c0.4-27.1,0.6-61.7,0.1-83.9l-5.1-0.1c-2.3,18.6-12.8,64.9-61,83.1L438.7,377.4z"/>
	</g>
	<g>
		<path class="st37" d="M477.9,226.2c0,0-31.6,6.8-45,25.1c-11.7,16,20.1-5.8,37.5-11.9c15.3-5.3,29.5-8,29.5-8l-2.8-7.3H493
			l-15.1,4.4V226.2z"/>
	</g>
	<g>
		<g>
			<path class="st6" d="M487.9,167.8l-3.2-0.1c0.4-15.9,8.7-23.9,9-24.2l2.2,2.3l-1.1-1.2l1.1,1.2
				C495.9,145.9,488.3,153.3,487.9,167.8z"/>
		</g>
		<g>
			<path class="st8" d="M458.3,123.8c0,0,33-2.4,28.1,29.7C486.4,153.5,458.5,158.5,458.3,123.8z"/>
		</g>
		<g>
			<path class="st14" d="M486.4,167.8c0,0,16-17.6,37-4.8c21.6,13.2-4.2,80.9-33.5,66.4c0,0-6,4.9-12.1,3.3
				c-8.8-2.4-28.4-21-28.3-49.6C449.5,152.1,480.9,157.8,486.4,167.8z"/>
		</g>
		<g>
			<path class="st25" d="M490.4,220.8c0,0-14.5,17.2-28.5-13.5c-14-30.6-2.9-44.8-2.9-44.9c-5.5,3.2-9.6,9.5-9.6,20.7
				c0,28.6,19.5,47.2,28.3,49.6c6,1.6,12.1-3.3,12.1-3.3c5.7,2.8,11.4,2.5,16.5,0C494.9,229.6,490.4,220.8,490.4,220.8z"/>
		</g>
		<g>
			<g>
				<path class="st38" d="M525.9,179.2c-0.7-6.3-3.1-11.7-8.6-14.4c-12.7-6.3-26.9,4.2-26.9,4.2s12-5.1,23.8,2
					c3.1,1.9,4.9,6,5.7,10.9L525.9,179.2z"/>
			</g>
			<g>
				<path class="st38" d="M520.5,187c0.7,11-1.6,23.2-1.6,23.2c3.3-5.8,7.2-17.3,7.2-27.5L520.5,187z"/>
			</g>
		</g>
	</g>
</g>
</svg>
