<svg id="Layer_1" data-name="Layer 1" xmlns="http://www.w3.org/2000/svg" viewBox="0 0 239.9 485.52"><defs><style>.cls-1{fill:#ffc490;}.cls-2{fill:#00a4d6;}.cls-3{fill:#a6a6a6;}.cls-4{fill:red;}.cls-5{fill:#68be00;}</style></defs><title>Image 27.A [Converted]</title><path class="cls-1" d="M627.83,648.21c-22.82,0-124.53.48-124.53.48s9.44-39.14-28.4-77.22c-8.28-8.33-29.59-38.3-29.59-50.07C473.47,541,501.13,540,520.47,539.77c18.72-.19,55.77-12.18,60.4-22.17,0-43.81-13.18-82.6-6-121.28,1.3-7,10.67-17.91,14.19-20.06,3.92-2.39,8.56-3.29,14.75-.38,11,5.17,9,21.11,9.74,41.59.42,11.54,1.19,12.83,3.45,22,1.63,6.64,11,19.84,11,43.13C628.06,533.45,600.25,573.12,627.83,648.21ZM421.77,467.41A11.21,11.21,0,0,0,406,468.84h0a11.22,11.22,0,0,0,.74,15.83l20,17.45a11.21,11.21,0,0,0,15.78-1.44h0a11.21,11.21,0,0,0-.74-15.82Zm2.92-41.56c-5.93-5.16-14.73-4.76-19.67.9h0c-4.93,5.66-4.13,14.44,1.8,19.61l26.05,22.69c5.93,5.17,14.73,4.77,19.67-.9h0c4.93-5.66,4.13-14.44-1.8-19.6ZM428.83,381a15,15,0,0,0-21.11,1.12h0a15,15,0,0,0,1.79,21.06l27.77,24.2a15,15,0,0,0,21.11-1.11h0a15,15,0,0,0-1.79-21.07Zm-11-60.75-1.94-1.68a16.75,16.75,0,0,0-22,25.26l24,20.87Z" transform="translate(-388.15 -163.17)"/><path class="cls-2" d="M447.07,504.63c5.81-6.67,5.92-16.11.23-21.06L440.89,478c.41,0,.82.05,1.24.05a18.94,18.94,0,0,0,13.42-5.59c8.75,12.82,29.5,25.07,49.11,25.31V477.14s.43-8.42-7.56-8.42a144,144,0,0,1-36.53-5.21,19,19,0,0,0-6-18.71l-5.67-4.94a233.07,233.07,0,0,0,117.64,1.4c.59,6.82,1.41,13.7,2.29,20.67-7.31,2.29-24,6.79-42,6.79-8,0-7.57,8.42-7.57,8.42v20.62c20.8-.26,42.88-14,50.58-27.64,1.72,13.53,3.4,27.43,3.77,41.73-16.6,12.12-39.1,18.28-61.67,18.42-25.36-.16-50.64-7.91-67.54-23.18A18.34,18.34,0,0,0,447.07,504.63Zm-15-128.74,13.28,11.57V319.25a233.06,233.06,0,0,1,130,0v61c3.53-4.67,7.47-8.57,10-10.09a20.08,20.08,0,0,1,14.54-2.94V316.49c0-17.24-17.43-27.63-37.91-31.21-9-1.57-17.08-2.7-24.55-3.48v1.85a9.3,9.3,0,0,1-9.27,9.27H495.81a9.29,9.29,0,0,1-9.26-9.27V281.8c-7.47.78-15.61,1.91-24.56,3.48-20.48,3.58-37.91,14-37.91,31.21v55.08A20.76,20.76,0,0,1,432.07,375.89Z" transform="translate(-388.15 -163.17)"/><path class="cls-3" d="M495.27,163.17V286.74h33.44V163.17Zm29.3,29.32h-25v-25h25Z" transform="translate(-388.15 -163.17)"/><rect class="cls-4" x="114.11" y="7.01" width="19.66" height="19.66"/><path class="cls-5" d="M520.81,347.78a61.68,61.68,0,0,1,4.76,4.75v16.19a63.37,63.37,0,0,1-4.76,4.76c-.14,0-.66-.53-1.59-1.59V349.36C519.22,349.23,519.75,348.7,520.81,347.78Zm0,27.29a61,61,0,0,1,4.76,4.76V396a63.37,63.37,0,0,1-4.76,4.76c-.14,0-.66-.53-1.59-1.59V376.65C519.22,376.52,519.75,376,520.81,375.07ZM527,396.33h16.19a61,61,0,0,1,4.76,4.76c0,.13-.53.66-1.59,1.58H523.82c-.13,0-.66-.53-1.58-1.58A59.51,59.51,0,0,1,527,396.33ZM524,346h22.53q.19,0,1.59,1.59a63.37,63.37,0,0,1-4.76,4.76H527.15a63.37,63.37,0,0,1-4.76-4.76C522.39,347.48,522.92,347,524,346Zm25.55,1.59c.13,0,.66.53,1.58,1.58v22.53c0,.14-.53.66-1.58,1.59a61.08,61.08,0,0,1-4.76-4.76V352.38A58.85,58.85,0,0,1,549.53,347.62Zm0,27.6c.13,0,.66.53,1.58,1.59v22.53c0,.13-.53.66-1.58,1.59a61.08,61.08,0,0,1-4.76-4.76V380A63.24,63.24,0,0,1,549.53,375.22Z" transform="translate(-388.15 -163.17)"/><path class="cls-5" d="M515.65,398.71V399q0,.24-6.58,11.55h-.32q-.24,0-1-11.55v-.31a33.45,33.45,0,0,1,3.81-3.81h.31A33.45,33.45,0,0,1,515.65,398.71Z" transform="translate(-388.15 -163.17)"/><path class="cls-5" d="M472.77,347.78a61.68,61.68,0,0,1,4.76,4.75v16.19a61,61,0,0,1-4.76,4.76c-.13,0-.66-.53-1.58-1.59V349.36C471.19,349.23,471.71,348.7,472.77,347.78ZM479,396.33h16.18a58.85,58.85,0,0,1,4.76,4.76c0,.13-.53.66-1.58,1.58H475.79c-.14,0-.66-.53-1.59-1.58A61.08,61.08,0,0,1,479,396.33ZM476,346h22.53c.13,0,.66.53,1.58,1.59a61,61,0,0,1-4.76,4.76H479.12a63.37,63.37,0,0,1-4.76-4.76C474.36,347.48,474.89,347,476,346Zm1.58,24.91h18.72a28,28,0,0,1,3.18,3.17v.16a28.65,28.65,0,0,1-3.18,3.18H477.53a28.17,28.17,0,0,1-3.17-3.18v-.16A28.5,28.5,0,0,1,477.53,370.94Zm24,4.28q.19,0,1.59,1.59v22.53q0,.2-1.59,1.59a63.37,63.37,0,0,1-4.76-4.76V380A65.83,65.83,0,0,1,501.49,375.22Z" transform="translate(-388.15 -163.17)"/></svg>