<svg height="464pt" viewBox="0 -72 464 464" width="464pt" xmlns="http://www.w3.org/2000/svg"><path d="m0 8v51.152344c0 18.019531 9.007812 34.851562 24 44.847656v152c0 8.835938 7.164062 16 16 16s16-7.164062 16-16v-152c14.992188-9.996094 24-26.828125 24-44.847656v-51.152344zm0 0" fill="#d9d9d9"/><path d="m376 176c0 79.527344-64.472656 144-144 144s-144-64.472656-144-144 64.472656-144 144-144 144 64.472656 144 144zm0 0" fill="#6cbae5"/><path d="m344 176c0 61.855469-50.144531 112-112 112s-112-50.144531-112-112 50.144531-112 112-112 112 50.144531 112 112zm0 0" fill="#d9d9d9"/><path d="m420.070312 8.183594c-20.867187 2.597656-36.421874 20.507812-36.070312 41.535156v14.28125c.015625 15.890625 9.433594 30.265625 24 36.625v155.375c0 8.835938 7.164062 16 16 16s16-7.164062 16-16v-155.375c14.566406-6.359375 23.984375-20.734375 24-36.625v-16c.003906-11.292969-4.769531-22.0625-13.136719-29.648438-8.367187-7.582031-19.550781-11.277343-30.792969-10.167968zm0 0" fill="#d9d9d9"/><path d="m24 72c-4.417969 0-8-3.582031-8-8v-56c0-4.417969 3.582031-8 8-8s8 3.582031 8 8v56c0 4.417969-3.582031 8-8 8zm0 0" fill="#b9b9b9"/><path d="m56 72c-4.417969 0-8-3.582031-8-8v-56c0-4.417969 3.582031-8 8-8s8 3.582031 8 8v56c0 4.417969-3.582031 8-8 8zm0 0" fill="#b9b9b9"/><g fill="#428dc5"><path d="m200 216c-3.234375 0-6.152344-1.949219-7.390625-4.9375s-.550781-6.429688 1.734375-8.71875l29.65625-29.65625v-60.6875c0-4.417969 3.582031-8 8-8s8 3.582031 8 8v64c0 2.121094-.84375 4.15625-2.34375 5.65625l-32 32c-1.5 1.5-3.535156 2.34375-5.65625 2.34375zm0 0"/><path d="m224 264h16v24h-16zm0 0"/><path d="m320 168h24v16h-24zm0 0"/><path d="m120 168h24v16h-24zm0 0"/><path d="m224 64h16v24h-16zm0 0"/></g><path d="m428.121094 86.855469-8.242188-13.710938 5.273438-3.160156c4.332031-3.351563 6.867187-8.523437 6.867187-14s-2.535156-10.648437-6.867187-14l-5.273438-3.160156 8.242188-13.710938 5.261718 3.160157c9.375 6.058593 14.914063 16.566406 14.617188 27.726562.285156 11.148438-5.25 21.640625-14.617188 27.695312zm0 0" fill="#b9b9b9"/></svg>