<svg id="Ñëîé_1" data-name="Ñëîé 1" xmlns="http://www.w3.org/2000/svg" viewBox="0 0 1500 1500"><defs><style>.cls-1{fill:#41c9c5;}.cls-2{fill:#ecc19c;}.cls-3{fill:#f0d0b4;}.cls-4{fill:#e4b69d;}.cls-5{fill:#989999;}.cls-6{fill:#fff;}.cls-7{fill:#f1f2f2;}.cls-8{fill:#d1d1d1;}.cls-9{fill:#d1d3d4;}.cls-10{fill:#aaa;}.cls-11{fill:#e67e22;}.cls-12{fill:#d6d8d8;}.cls-13{fill:#e8eaea;}.cls-14{fill:#bcbec0;}.cls-15{fill:#231f20;}.cls-16{fill:#d3d3d3;}.cls-17{fill:#e2e5da;}.cls-18{fill:#d4dbc8;}.cls-19{fill:#c9ccc0;}.cls-20{fill:#cf000f;}</style></defs><title>Image 25.A [Converted]</title><g id="_Group_" data-name="&lt;Group&gt;"><rect id="_Rectangle_" data-name="&lt;Rectangle&gt;" class="cls-1" width="1500" height="1500"/><path id="_Path_" data-name="&lt;Path&gt;" class="cls-2" d="M479.68,1186.92c24-28.47,75-145.44,54.26-173.79C510.68,981.32,328.07,839.56,322,884.49c-1.7,12.7,4.3,47.34,16.47,56.67,57.56,44.15,37.24,68.19,42.49,94.44,8.81,44-18.66,82.48,15.21,122.15C419.42,1184.94,448.17,1186.53,479.68,1186.92Z" transform="translate(0 0)"/><path id="_Path_2" data-name="&lt;Path&gt;" class="cls-3" d="M920.21,1217.05c-1.11,1.35-3.78,1-5.29,1.23l-7.27,1q-7.26,1-14.52,2-14.52,2-29,4.1c-18.87,2.73-37.76,5.24-56.65,7.79q-26.49,3.59-53,7.06-24.74,3.22-49.47,6.32-22.56,2.82-45.13,5.48-20,2.35-40,4.53-17,1.85-34,3.47c-9.09.85-18.19,1.64-27.29,2.28-6.58.46-13.16.86-19.75,1a72,72,0,0,1-10.69-.31c-22.19-2.88-401.06-9.29-408.46-63.73-.36-2.63-1.24-5.11-1.2-7.76q.89-57.4,6.08-114.6c1.06-11.62,2.32-23.51,7.24-33.95,5.22-11.09,14.16-19.68,23.51-27.11,66-52.48,154.9-56.93,237.16-51.25,17.7,1.22,36.57-4,53.79-7.53,27.53-5.69,54.89-12.32,82.22-19,38.18-9.32,79.3-25.89,118.95-19.35,6.7,1.11,13.42,3,19.09,6.92s10.21,10.18,11,17.33c1,8.85-3.53,18.17-8.42,25-12.54,17.55-31.79,28-50.61,37.22-32,15.71-64.79,29.38-97.91,42.18-22.65,8.59-50.54,17.41-59.82,43.94-3.22,9.41-3.2,19.84-1.19,29.62,6.71,32.53,37.28,57.51,68.59,56,32.33-1.5,243.19-13.27,302.79-14.12,19.06-.28,38.68-1.19,56.54,5.84,14.6,5.75,28.36,18.26,31.9,34.91a53.58,53.58,0,0,1,1.08,12.89A1,1,0,0,1,920.21,1217.05Z" transform="translate(0 0)"/><path id="_Path_3" data-name="&lt;Path&gt;" class="cls-4" d="M861.16,1218.08c0-2.9,14.9-3.68,31.87-3.68s31.17,2.38,30.71,5.24c-.91,5.66-52.2,8.49-57.16,6.73C864.64,1225.69,861.16,1218.89,861.16,1218.08Z" transform="translate(0 0)"/><path id="_Path_4" data-name="&lt;Path&gt;" class="cls-4" d="M382.08,905c-1.29,2.55-14.77-4.25-29.71-12.79S326,874.38,327.66,872.09c3.32-4.53,49.75,18.79,53.34,22.83C382.4,896.5,382.44,904.24,382.08,905Z" transform="translate(0 0)"/><path id="_Path_5" data-name="&lt;Path&gt;" class="cls-4" d="M607.71,946.44c-.11,5.12,2.24,11.42,3.58,16.19,1.29,4.58,2.32,10.71,4.91,14.71,3.88,6,11.51,5.22,17.6,4.17,17.75-3.06,40-12.12,47.89-30.8,3.26-7.7,2.37-13.38-4.23-18.36-7-5.27-16.17-7.13-24.6-6.89-10.21.29-21.06,3.3-30.49,7.36-5.15,2.22-14.51,6.4-14.66,13.62C607.67,948.09,607.89,937.85,607.71,946.44Z" transform="translate(0 0)"/><g id="_Group_2" data-name="&lt;Group&gt;"><path id="_Rectangle_2" data-name="&lt;Rectangle&gt;" class="cls-5" d="M799.23,1157.68h65.38a0,0,0,0,1,0,0v11.06a6.35,6.35,0,0,1-6.35,6.35H805.58a6.35,6.35,0,0,1-6.35-6.35v-11.06A0,0,0,0,1,799.23,1157.68Z"/><g id="_Group_3" data-name="&lt;Group&gt;"><path id="_Path_6" data-name="&lt;Path&gt;" class="cls-5" d="M845,464.42H818.85a18.63,18.63,0,0,1-18.63-18.63v-78.4a18.62,18.62,0,0,1,18.63-18.63H845a18.63,18.63,0,0,1,18.63,18.63v78.4A18.63,18.63,0,0,1,845,464.42Z" transform="translate(0 0)"/></g><g id="_Group_4" data-name="&lt;Group&gt;"><rect id="_Rectangle_3" data-name="&lt;Rectangle&gt;" class="cls-5" x="782.44" y="988.69" width="98.99" height="109.39"/></g><g id="_Group_5" data-name="&lt;Group&gt;"><path id="_Path_7" data-name="&lt;Path&gt;" class="cls-6" d="M889.9,725.52c.1-4-8.31-16.33-11.54-20.92l-4.29-269.09c-.12-7.94-6-14.3-13.12-14.3h-58a12.47,12.47,0,0,0-9.2,4.17,15.35,15.35,0,0,0-3.93,10.13l-4.24,266.56c-3.2,5.22-11.68,19.45-11.58,23.45l6.71,281.9L780.4,1025c-.13,8.13,5.78,14.81,13.12,14.81h76.83c7.34,0,13.25-6.68,13.12-14.81l-.28-17.56Z" transform="translate(0 0)"/></g><g id="_Group_6" data-name="&lt;Group&gt;"><path id="_Path_8" data-name="&lt;Path&gt;" class="cls-7" d="M864.53,534.36c-.1-4.52-4.62-8.15-10.15-8.15H809.49a11.37,11.37,0,0,0-7.11,2.38,7.66,7.66,0,0,0-3,5.77l-4.59,212.51,4.59,212.52a7.66,7.66,0,0,0,3,5.77,11.37,11.37,0,0,0,7.11,2.38h44.89c5.53,0,10-3.63,10.15-8.15l4.59-212.52Z" transform="translate(0 0)"/><path id="_Compound_Path_" data-name="&lt;Compound Path&gt;" class="cls-5" d="M854.38,969.61H809.49a13.46,13.46,0,0,1-8.41-2.83,9.66,9.66,0,0,1-3.81-7.35l-4.6-212.56v0l4.6-212.51a9.66,9.66,0,0,1,3.81-7.35,13.4,13.4,0,0,1,8.41-2.83h44.89c6.73,0,12.1,4.47,12.22,10.18l4.6,212.55v0l-4.6,212.51C866.48,965.14,861.11,969.61,854.38,969.61ZM796.82,746.87l4.6,212.47a5.54,5.54,0,0,0,2.26,4.2,9.25,9.25,0,0,0,5.81,1.92h44.89c4.38,0,8-2.74,8.07-6.12l4.6-212.47-4.6-212.46c-.07-3.38-3.69-6.12-8.07-6.12H809.49a9.25,9.25,0,0,0-5.81,1.92,5.54,5.54,0,0,0-2.26,4.2Z" transform="translate(0 0)"/></g><g id="_Group_7" data-name="&lt;Group&gt;"><rect id="_Rectangle_4" data-name="&lt;Rectangle&gt;" class="cls-8" x="818.39" y="863.33" width="27.64" height="56.41" rx="12.23" ry="12.23"/></g><g id="_Group_8" data-name="&lt;Group&gt;"><path id="_Path_9" data-name="&lt;Path&gt;" class="cls-9" d="M831.93,1056.5Z" transform="translate(0 0)"/></g><g id="_Group_9" data-name="&lt;Group&gt;"><path id="_Path_10" data-name="&lt;Path&gt;" class="cls-6" d="M878.23,1165s5.46-92.09,6.74-113.91a2.48,2.48,0,0,0-3.64-2.24c-10.41,5.08-29.9,7.65-49.4,7.7h0c-19.5,0-39-2.43-49.42-7.44a2.49,2.49,0,0,0-3.62,2.26c1.28,21.72,6.75,113.63,6.75,113.63.1,1.64,1,2.9,2.08,2.9h88.43C877.23,1167.85,878.13,1166.59,878.23,1165Z" transform="translate(0 0)"/></g><g id="_Group_10" data-name="&lt;Group&gt;"><path id="_Path_11" data-name="&lt;Path&gt;" class="cls-10" d="M805.67,354.22l-.48.5h53.49a18.61,18.61,0,0,0-13.66-6H818.85A18.54,18.54,0,0,0,805.67,354.22Z" transform="translate(0 0)"/></g><g id="_Group_11" data-name="&lt;Group&gt;"><g id="_Group_12" data-name="&lt;Group&gt;"><g id="_Group_13" data-name="&lt;Group&gt;"><path id="_Compound_Path_2" data-name="&lt;Compound Path&gt;" class="cls-5" d="M799.17,1065.89a5.92,5.92,0,0,1-2.1,3.64c-2.3,2.19-3.47,3.28-5.83,5.44,2.78.28,4.17.41,7,.65-.08.89-.12,1.33-.19,2.22-4.1-.34-6.15-.54-10.25-1l.23-2c2.79-2.58,4.16-3.88,6.87-6.5a5.07,5.07,0,0,0,1.75-2.73,2.27,2.27,0,0,0-.5-1.72,2.64,2.64,0,0,0-3.49-.3,2.86,2.86,0,0,0-.93,1.67l-2.54-.27a4.58,4.58,0,0,1,2.09-3.39,5,5,0,0,1,3.37-.79,5.15,5.15,0,0,1,3.49,1.61A4.5,4.5,0,0,1,799.17,1065.89Z" transform="translate(0 0)"/></g><g id="_Group_14" data-name="&lt;Group&gt;"><path id="_Compound_Path_3" data-name="&lt;Compound Path&gt;" class="cls-5" d="M837.13,1074.44a4.6,4.6,0,0,1-2.13,4.11,6,6,0,0,1-3.45,1,5.28,5.28,0,0,1-3.45-1.18,4.29,4.29,0,0,1-1.58-3l2.6,0a1.82,1.82,0,0,0,.78,1.34,2.69,2.69,0,0,0,1.64.51,3.11,3.11,0,0,0,2.12-.74,2.36,2.36,0,0,0,.84-1.89c0-1.81-1-2.71-2.92-2.71h-.9c0-.85,0-1.27,0-2.12h1.12a2.54,2.54,0,0,0,1.78-.68,2.18,2.18,0,0,0,.72-1.64,2.71,2.71,0,0,0-.62-1.8,2.27,2.27,0,0,0-1.8-.8,2.68,2.68,0,0,0-1.76.57,2.25,2.25,0,0,0-.79,1.54l-2.55,0a4.42,4.42,0,0,1,1.5-3.14,5,5,0,0,1,3.44-1.22,5.26,5.26,0,0,1,3.67,1.34,4.57,4.57,0,0,1,1.49,3.43,3.55,3.55,0,0,1-2,3.38v.07A3.71,3.71,0,0,1,837.13,1074.44Z" transform="translate(0 0)"/></g><g id="_Group_15" data-name="&lt;Group&gt;"><path id="_Compound_Path_4" data-name="&lt;Compound Path&gt;" class="cls-5" d="M876.41,1074.37l-1.61.17c.1,1,.15,1.49.26,2.48l-2.65.27-.25-2.47c-2.83.28-4.24.41-7.08.64l-.17-2.11c2.1-4.93,3.11-7.4,5.06-12.35l2.7-.27c-1.91,5-2.91,7.44-5,12.38,1.7-.15,2.55-.23,4.25-.4-.19-1.93-.29-2.89-.48-4.82l2.59-.26c.21,1.92.31,2.88.51,4.81l1.61-.17C876.27,1073.11,876.32,1073.53,876.41,1074.37Z" transform="translate(0 0)"/></g></g></g><g id="_Group_16" data-name="&lt;Group&gt;"><rect id="_Rectangle_5" data-name="&lt;Rectangle&gt;" class="cls-11" x="820.45" y="866.46" width="23.52" height="50.16" rx="10.64" ry="10.64"/></g></g><path id="_Path_12" data-name="&lt;Path&gt;" class="cls-3" d="M183.41,1028.33c-49.18,3.5-116.88,1.25-183.41-3.06v189l208.15,22.32S223.6,1025.47,183.41,1028.33Z" transform="translate(0 0)"/><g id="_Group_17" data-name="&lt;Group&gt;"><g id="_Group_18" data-name="&lt;Group&gt;"><g id="_Group_19" data-name="&lt;Group&gt;"><path id="_Path_13" data-name="&lt;Path&gt;" class="cls-6" d="M1341.74,1094.66S1330.28,926.48,1329,870.32c-1.12-48.7,2.14-194.84,2.14-194.84-1.06-42.21-36.94-75.89-80.83-75.89H1089.13c-43.9,0-79.77,33.68-80.84,75.89,0,0,3.26,146.14,2.15,194.84-1.29,56.16-12.74,224.34-12.74,224.34-1.11,43.68,35.4,79.66,80.83,79.66H1260.9C1306.33,1174.32,1342.84,1138.34,1341.74,1094.66Z" transform="translate(0 0)"/><path id="_Path_14" data-name="&lt;Path&gt;" class="cls-6" d="M1341.74,1094.66S1330.28,926.48,1329,870.32c-1.12-48.7,2.14-194.84,2.14-194.84-1.06-42.21-36.94-75.89-80.83-75.89H1089.13c-43.9,0-79.77,33.68-80.84,75.89,0,0,3.26,146.14,2.15,194.84-1.29,56.16-12.74,224.34-12.74,224.34-1.11,43.68,35.4,79.66,80.83,79.66H1260.9C1306.33,1174.32,1342.84,1138.34,1341.74,1094.66Z" transform="translate(0 0)"/><path id="_Path_15" data-name="&lt;Path&gt;" class="cls-6" d="M1329,1094.66s-10.64-168.18-11.84-224.34c-1-48.7,2-194.84,2-194.84-.45-19.1-4.2-37.16-15.58-50.44-13.77-16.07-37.18-25.45-59.51-25.45H1094.85c-22.32,0-45.74,9.38-59.51,25.45-11.38,13.28-15.13,31.34-15.58,50.44,0,0,3,146.14,2,194.84-1.19,56.16-11.84,224.34-11.84,224.34-1,43.68,32.89,79.66,75.09,79.66h168.93C1296.14,1174.32,1330.05,1138.34,1329,1094.66Z" transform="translate(0 0)"/><g id="_Group_20" data-name="&lt;Group&gt;"><g id="_Group_21" data-name="&lt;Group&gt;"><path id="_Path_16" data-name="&lt;Path&gt;" class="cls-7" d="M1301.58,698.27l1.33,304.72a33.24,33.24,0,0,1-33.2,33.2H1070.29a33.24,33.24,0,0,1-33.2-33.18l1.33-304.74a33.22,33.22,0,0,1,33.18-33.2h196.79A33.22,33.22,0,0,1,1301.58,698.27Z" transform="translate(0 0)"/></g><g id="_Group_22" data-name="&lt;Group&gt;"><path id="_Compound_Path_5" data-name="&lt;Compound Path&gt;" class="cls-12" d="M1306.86,698.27l1.31,304.71a38.51,38.51,0,0,1-38.46,38.48H1070.29a38.52,38.52,0,0,1-38.47-38.47l1.32-304.74a38.5,38.5,0,0,1,38.46-38.46h196.79A38.51,38.51,0,0,1,1306.86,698.27ZM1302.91,1003l-1.33-304.72a33.22,33.22,0,0,0-33.19-33.2H1071.6a33.22,33.22,0,0,0-33.18,33.2L1037.09,1003a33.24,33.24,0,0,0,33.2,33.18h199.42A33.24,33.24,0,0,0,1302.91,1003Z" transform="translate(0 0)"/></g><g id="_Group_23" data-name="&lt;Group&gt;"><g id="_Group_24" data-name="&lt;Group&gt;"><path id="_Path_17" data-name="&lt;Path&gt;" class="cls-13" d="M1238.46,1103a30.75,30.75,0,0,0-30.75-30.75h-32.1a7.23,7.23,0,0,1-11.22,0h-32.11a30.75,30.75,0,0,0-30.75,30.75h0c0,.09,0,.17,0,.26s0,.17,0,.26h0a30.75,30.75,0,0,0,30.75,30.75h32.11a7.23,7.23,0,0,1,11.22,0h32.1a30.75,30.75,0,0,0,30.75-30.75h0V1103Z" transform="translate(0 0)"/></g><g id="_Group_25" data-name="&lt;Group&gt;"><path id="_Path_18" data-name="&lt;Path&gt;" class="cls-6" d="M1172.88,1076.17a2.94,2.94,0,0,1-5.75,0h0v53.67h0a2.95,2.95,0,0,1,5.75,0h0v-53.67Z" transform="translate(0 0)"/></g></g><g id="_Group_26" data-name="&lt;Group&gt;"><g id="_Group_27" data-name="&lt;Group&gt;"><path id="_Path_19" data-name="&lt;Path&gt;" class="cls-8" d="M1216,1025.82h-92c-13.46,0-24.38-11.2-24.38-25h0a25.23,25.23,0,0,1,8.63-19.1A23.94,23.94,0,0,1,1124,975.8h92c13.47,0,24.38,11.19,24.38,25h0C1240.36,1014.62,1229.45,1025.82,1216,1025.82Z" transform="translate(0 0)"/></g><g id="_Group_28" data-name="&lt;Group&gt;"><path id="_Path_20" data-name="&lt;Path&gt;" class="cls-11" d="M1212.81,1023.5h-85.62a22.69,22.69,0,0,1-22.7-22.69h0a22.7,22.7,0,0,1,22.7-22.7h85.62a22.69,22.69,0,0,1,22.69,22.7h0A22.69,22.69,0,0,1,1212.81,1023.5Z" transform="translate(0 0)"/></g><g id="_Group_29" data-name="&lt;Group&gt;"><g id="_Group_30" data-name="&lt;Group&gt;"><path id="_Path_21" data-name="&lt;Path&gt;" class="cls-6" d="M1170,1004.39h0a1.77,1.77,0,0,1-1.78-1.78V985.27a1.78,1.78,0,0,1,1.78-1.79h0a1.79,1.79,0,0,1,1.78,1.79v17.34A1.78,1.78,0,0,1,1170,1004.39Z" transform="translate(0 0)"/></g><path id="_Path_22" data-name="&lt;Path&gt;" class="cls-6" d="M1175.12,991.36l-.39-.15v3l.16.08a11.25,11.25,0,0,1-4.25,21.37,11.27,11.27,0,0,1-11.9-11.25,11.32,11.32,0,0,1,6.36-10.12l.16-.08v-3l-.38.15a14,14,0,0,0,3.51,27,15,15,0,0,0,1.63.09,13.83,13.83,0,0,0,9.31-3.57,14,14,0,0,0-4.21-23.48Z" transform="translate(0 0)"/></g></g><g id="_Group_31" data-name="&lt;Group&gt;"><rect id="_Rectangle_6" data-name="&lt;Rectangle&gt;" class="cls-14" x="1088.61" y="599.59" width="44.24" height="12"/></g><g id="_Group_32" data-name="&lt;Group&gt;"><g id="_Group_33" data-name="&lt;Group&gt;"><g id="_Group_34" data-name="&lt;Group&gt;"><rect id="_Rectangle_7" data-name="&lt;Rectangle&gt;" class="cls-15" x="1093.4" y="467.26" width="34.47" height="142.05"/></g><g id="_Group_35" data-name="&lt;Group&gt;"><rect id="_Rectangle_8" data-name="&lt;Rectangle&gt;" class="cls-16" x="1093.4" y="483.8" width="34.47" height="125.52"/></g></g><g id="_Group_36" data-name="&lt;Group&gt;"><g id="_Group_37" data-name="&lt;Group&gt;"><polygon id="_Path_23" data-name="&lt;Path&gt;" class="cls-15" points="1096.86 597.24 1095.65 597.24 1097.71 603.89 1099.77 597.24 1098.57 597.24 1098.57 589.07 1096.87 589.07 1096.86 597.24"/></g><g id="_Group_38" data-name="&lt;Group&gt;"><g id="_Group_39" data-name="&lt;Group&gt;"><polygon id="_Path_24" data-name="&lt;Path&gt;" class="cls-15" points="1103.32 597.24 1102.12 597.24 1104.17 603.89 1106.23 597.24 1105.03 597.24 1105.03 589.07 1103.33 589.07 1103.32 597.24"/></g></g><g id="_Group_40" data-name="&lt;Group&gt;"><g id="_Group_41" data-name="&lt;Group&gt;"><polygon id="_Path_25" data-name="&lt;Path&gt;" class="cls-15" points="1109.79 597.24 1108.58 597.24 1110.64 603.89 1112.69 597.24 1111.49 597.24 1111.49 589.07 1109.79 589.07 1109.79 597.24"/></g></g><g id="_Group_42" data-name="&lt;Group&gt;"><g id="_Group_43" data-name="&lt;Group&gt;"><polygon id="_Path_26" data-name="&lt;Path&gt;" class="cls-15" points="1116.25 597.24 1115.04 597.24 1117.1 603.89 1119.16 597.24 1117.95 597.24 1117.95 589.07 1116.26 589.07 1116.25 597.24"/></g></g><g id="_Group_44" data-name="&lt;Group&gt;"><g id="_Group_45" data-name="&lt;Group&gt;"><polygon id="_Path_27" data-name="&lt;Path&gt;" class="cls-15" points="1122.71 597.24 1121.5 597.24 1123.56 603.89 1125.62 597.24 1124.41 597.24 1124.41 589.07 1122.72 589.07 1122.71 597.24"/></g></g></g></g><g id="_Group_46" data-name="&lt;Group&gt;"><g id="_Group_47" data-name="&lt;Group&gt;"><path id="_Path_28" data-name="&lt;Path&gt;" class="cls-13" d="M1261.07,965.08H1078.93a26.27,26.27,0,0,1-26.26-26.25V762.43a26.26,26.26,0,0,1,26.26-26.25h182.14a26.25,26.25,0,0,1,26.25,26.25v176.4A26.25,26.25,0,0,1,1261.07,965.08Z" transform="translate(0 0)"/></g><g id="_Group_48" data-name="&lt;Group&gt;"><path id="_Path_29" data-name="&lt;Path&gt;" class="cls-17" d="M1264.86,950.36H1075.13a7.36,7.36,0,0,1-6.2-3.4,7.28,7.28,0,0,1-1.16-4V758.26a7.36,7.36,0,0,1,7.36-7.36h189.73a7.37,7.37,0,0,1,7.37,7.36V943A7.37,7.37,0,0,1,1264.86,950.36Z" transform="translate(0 0)"/></g><g id="_Group_49" data-name="&lt;Group&gt;"><path id="_Path_30" data-name="&lt;Path&gt;" class="cls-18" d="M1258.9,944.09H1081.1a6.92,6.92,0,0,1-6.91-6.91V764.07a6.91,6.91,0,0,1,6.91-6.9h177.8a6.9,6.9,0,0,1,6.9,6.9V937.18A6.9,6.9,0,0,1,1258.9,944.09Z" transform="translate(0 0)"/><path id="_Compound_Path_6" data-name="&lt;Compound Path&gt;" class="cls-19" d="M1258.9,945.48H1081.1a8.29,8.29,0,0,1-8.3-8.3V764.07a8.31,8.31,0,0,1,8.3-8.3h177.8a8.32,8.32,0,0,1,8.3,8.3V937.18A8.31,8.31,0,0,1,1258.9,945.48ZM1081.1,758.57a5.51,5.51,0,0,0-5.51,5.5V937.18a5.51,5.51,0,0,0,5.51,5.51h177.8a5.51,5.51,0,0,0,5.5-5.51V764.07a5.51,5.51,0,0,0-5.5-5.5Z" transform="translate(0 0)"/></g><g id="_Group_50" data-name="&lt;Group&gt;"><g id="_Group_51" data-name="&lt;Group&gt;"><g id="_Group_52" data-name="&lt;Group&gt;"><path id="_Compound_Path_7" data-name="&lt;Compound Path&gt;" class="cls-15" d="M1152.72,859.47h-6.31v10.79h-10.27V859.47h-27.56v-9.15l24.3-51.26h10.92l-24.31,51.26h16.65v-21h10.27v21h6.31Z" transform="translate(0 0)"/></g><g id="_Group_53" data-name="&lt;Group&gt;"><path id="_Compound_Path_8" data-name="&lt;Compound Path&gt;" class="cls-15" d="M1175.5,870.26h-10.27V859.47h10.27Z" transform="translate(0 0)"/></g><g id="_Group_54" data-name="&lt;Group&gt;"><path id="_Compound_Path_9" data-name="&lt;Compound Path&gt;" class="cls-15" d="M1229.82,850.52q0,9.06-5.09,14.75-5.38,6-14.24,6-8.64,0-14.14-4.52t-6.1-13.07h10.14c.87,5.15,4,7.73,9.42,7.73a8.88,8.88,0,0,0,7.4-3.34,12.08,12.08,0,0,0,2.34-7.77v-7.68a12,12,0,0,0-2.39-7.68,8.3,8.3,0,0,0-6.94-3q-6.69,0-9.52,5.7H1192V799.06h36.11v9.86h-25.84V825.2a16.62,16.62,0,0,1,9.83-3.16q8.42,0,13.28,5.7,4.46,5.38,4.46,13.94Z" transform="translate(0 0)"/></g></g><g id="_Group_55" data-name="&lt;Group&gt;"><g id="_Group_56" data-name="&lt;Group&gt;"><path id="_Compound_Path_10" data-name="&lt;Compound Path&gt;" class="cls-15" d="M1143.69,915.89H1141v-8.61a2.64,2.64,0,1,0-5.28,0v8.61H1133v-8.61a2.65,2.65,0,0,0-2.64-2.65,2.66,2.66,0,0,0-2.64,2.65v8.61h-2.69V902.14h2.69v1.46a4.73,4.73,0,0,1,3.71-1.69,3.82,3.82,0,0,1,3.53,1.88,4.56,4.56,0,0,1,3.71-1.88,5.07,5.07,0,0,1,3.63,1.29,4.67,4.67,0,0,1,1.36,3.57Z" transform="translate(0 0)"/></g><g id="_Group_57" data-name="&lt;Group&gt;"><path id="_Compound_Path_11" data-name="&lt;Compound Path&gt;" class="cls-15" d="M1166.25,915.89h-2.69v-8.61a2.64,2.64,0,0,0-4.51-1.87,2.56,2.56,0,0,0-.77,1.87v8.61h-2.69v-8.61a2.64,2.64,0,1,0-5.28,0v8.61h-2.69V902.14h2.69v1.46a4.73,4.73,0,0,1,3.71-1.69,3.83,3.83,0,0,1,3.53,1.88,4.56,4.56,0,0,1,3.71-1.88,5.07,5.07,0,0,1,3.63,1.29,4.67,4.67,0,0,1,1.36,3.57Z" transform="translate(0 0)"/></g><g id="_Group_58" data-name="&lt;Group&gt;"><path id="_Compound_Path_12" data-name="&lt;Compound Path&gt;" class="cls-15" d="M1181,909q0,7.1-5.78,7.1a5.15,5.15,0,0,1-4.89-2.61,9.37,9.37,0,0,1-.89-4.49q0-7.1,5.78-7.1T1181,909Zm-2.7,0q0-4.38-3.08-4.38t-3.09,4.38q0,4.38,3.09,4.38T1178.34,909Z" transform="translate(0 0)"/></g><g id="_Group_59" data-name="&lt;Group&gt;"><path id="_Compound_Path_13" data-name="&lt;Compound Path&gt;" class="cls-15" d="M1188.92,915.89h-1a3.74,3.74,0,0,1-2.83-.9,4.14,4.14,0,0,1-.85-2.89V896.41h2.7v15.21a2.21,2.21,0,0,0,.32,1.35,1.57,1.57,0,0,0,1.25.39h.39Z" transform="translate(0 0)"/></g><g id="_Group_60" data-name="&lt;Group&gt;"><path id="_Compound_Path_14" data-name="&lt;Compound Path&gt;" class="cls-15" d="M1199.25,896.24l-8.08,19.65h-2.25l8.08-19.65Z" transform="translate(0 0)"/></g><g id="_Group_61" data-name="&lt;Group&gt;"><path id="_Compound_Path_15" data-name="&lt;Compound Path&gt;" class="cls-15" d="M1213.33,915.89h-12.26V896.24h3v16.92h9.29Z" transform="translate(0 0)"/></g></g></g></g><g id="_Group_62" data-name="&lt;Group&gt;"><path id="_Path_31" data-name="&lt;Path&gt;" class="cls-5" d="M1199,650.24h-53.56a3.84,3.84,0,0,1-3.84-3.84h0a3.84,3.84,0,0,1,3.84-3.84H1199a3.84,3.84,0,0,1,3.84,3.84h0A3.84,3.84,0,0,1,1199,650.24Z" transform="translate(0 0)"/></g></g></g><g id="_Group_63" data-name="&lt;Group&gt;"><g id="_Group_64" data-name="&lt;Group&gt;"><g id="_Group_65" data-name="&lt;Group&gt;"><path id="_Path_32" data-name="&lt;Path&gt;" class="cls-5" d="M1203.67,1074.74h-27.15v56.54h27.15c16.4,0,29.69-12.66,29.69-28.27h0C1233.36,1087.4,1220.07,1074.74,1203.67,1074.74Z" transform="translate(0 0)"/></g></g><g id="_Group_66" data-name="&lt;Group&gt;"><path id="_Path_33" data-name="&lt;Path&gt;" class="cls-5" d="M1163.48,1074.74h-27.15a30.55,30.55,0,0,0-17.95,5.75,27.8,27.8,0,0,0-11.74,22.52h0c0,15.61,13.29,28.27,29.69,28.27h27.15Z" transform="translate(0 0)"/></g><g id="_Group_67" data-name="&lt;Group&gt;"><g id="_Group_68" data-name="&lt;Group&gt;"><path id="_Compound_Path_16" data-name="&lt;Compound Path&gt;" class="cls-6" d="M1204.28,1113.32a2.3,2.3,0,0,1-2-1.07l-9.9-16.34a2.06,2.06,0,0,1,0-2.14,2.26,2.26,0,0,1,2-1.07h19.81a2.26,2.26,0,0,1,2,1.07,2.06,2.06,0,0,1,0,2.14h0l-9.91,16.34A2.27,2.27,0,0,1,1204.28,1113.32Zm-9-18,9,14.78,9-14.78Z" transform="translate(0 0)"/></g></g><g id="_Group_69" data-name="&lt;Group&gt;"><g id="_Group_70" data-name="&lt;Group&gt;"><path id="_Compound_Path_17" data-name="&lt;Compound Path&gt;" class="cls-6" d="M1146.07,1113.32h-19.81a2.28,2.28,0,0,1-2-1.07,2.08,2.08,0,0,1,0-2.15l9.91-16.33a2.3,2.3,0,0,1,3.89,0l9.91,16.33a2.08,2.08,0,0,1,0,2.15A2.28,2.28,0,0,1,1146.07,1113.32Zm-18.87-2.66h17.93l-9-14.78Z" transform="translate(0 0)"/></g></g></g></g><circle id="_Path_34" data-name="&lt;Path&gt;" class="cls-20" cx="1110.73" cy="528.54" r="9.75" transform="translate(-48.41 940.21) rotate(-45)"/></g></g></svg>