<?xml version="1.0" encoding="utf-8"?>
<!-- Generator: Adobe Illustrator 21.1.0, SVG Export Plug-In . SVG Version: 6.00 Build 0)  -->
<svg version="1.1" id="Layer_1" xmlns="http://www.w3.org/2000/svg" xmlns:xlink="http://www.w3.org/1999/xlink" x="0px" y="0px"
	 viewBox="0 0 354.9 242.8" style="enable-background:new 0 0 354.9 242.8;" xml:space="preserve">
<style type="text/css">
	.st0{fill:#FFFFFF;}
	.st1{fill:#9CCFF0;}
	.st2{fill:#96BEE5;}
	.st3{opacity:0.5;fill:#D1D3D4;}
	.st4{fill:#FCC79E;}
	.st5{fill:url(#SVGID_1_);}
	.st6{fill:#3F110E;}
	.st7{fill:#D86E62;}
	.st8{fill:#EDE8DE;}
	.st9{fill:url(#SVGID_2_);}
	.st10{fill:#FFDCAE;}
	.st11{fill:#D87263;}
	.st12{fill:#3F1D18;}
	.st13{fill:url(#SVGID_3_);}
	.st14{fill:url(#SVGID_4_);}
	.st15{fill:#4B2B22;}
	.st16{fill:#55392D;}
	.st17{fill:#4E9DD6;}
	.st18{fill:#6AB2E2;}
	.st19{fill:#FCBF91;}
	.st20{fill:url(#SVGID_5_);}
	.st21{fill:url(#SVGID_6_);}
	.st22{fill:url(#SVGID_7_);}
	.st23{fill:#A97C50;}
	.st24{fill:#FCC59D;}
	.st25{fill:#F69B95;}
	.st26{fill:#E8978E;}
	.st27{fill:url(#SVGID_8_);}
	.st28{fill:#F1A97A;}
	.st29{fill:url(#SVGID_9_);}
	.st30{fill:#F7941D;}
	.st31{fill:#E18326;}
	.st32{fill:url(#SVGID_10_);}
</style>
<rect x="0" y="0" class="st0" width="354.9" height="242.8"/>
<g>
	<polygon class="st1" points="29.4,211.2 325.5,211.2 289.4,165 68.6,165 	"/>
	<g>
		<g>
			<path class="st2" d="M61.4,210.1c6.9,0,261,0,261,0s0.7,0,1.9,0l1.1,1.2H29.4l1.3-1.6C33.6,210.8,45.7,210.1,61.4,210.1z"/>
		</g>
	</g>
</g>
<path class="st3" d="M92.2,186.2c-0.1-0.2,0-0.5,0.5-0.7c2.2-1.1,6.7-0.5,10-0.3c4.5,0.2,9.6,0.1,14.1,0.1
	c20.8-0.2,36.2-1.9,56.8-2.4c8.9-0.2,17.8-0.6,26.9-0.5c7.3,0.1,38.5,0.3,45.2,2c3.6,0.9,23.6,12.1-49,12.1
	c-9.1,0-31.3,0.1-40.5-0.1c-9.7-0.2-62.9-2.8-64.2-3.2C89.2,192.3,92.4,186.7,92.2,186.2z"/>
<g>
	<path class="st4" d="M213.4,110.4c-2.8-6.2-6.9-8.7-12.5-8c-5.7,0.7-12.2,6.9-16.8,9.4c-4.7,2.5-19.7,10.8-21.9,11.7
		c-2.2,0.8-2.3,0.7-5.7,1.1c-3.4,0.4-13.8,6.4-17.9,8.1c-3.7,1.6-19.3,8.6-21.8,9.7c-0.2-0.1-0.4-0.1-0.4-0.1s-7.9,0.5-9.9,0.8
		c-2,0.3-4.4,1.9-5.8,2.8s-4.7,4.2-5,4.9c-0.3,0.7,0.4,1,1.2,0.9c0.4-0.1,0.7-0.5,1.2-0.9c0,0.6,0.1,1.2,0.3,1.5
		c0.4,0.8,4.7-1.2,6.7-2.1c1.1-0.5,3.2-1.1,4.8-1.5c1.4,0,2.7,0.1,3.3,0c1.8,0,3.7-0.8,3.7-0.8c0.3-0.1,0.5-0.3,0.8-0.5
		c2.9-0.7,13.6-3.2,22.1-5.2c9.9-2.3,17.4-5.4,19.9-6.8c2.4-1.4,10-3.5,19.7-6.4C189.1,126,216.3,116.6,213.4,110.4z"/>
	<g>
		
			<linearGradient id="SVGID_1_" gradientUnits="userSpaceOnUse" x1="-7091.105" y1="-3484.2813" x2="-7064.9883" y2="-3484.2813" gradientTransform="matrix(0.2622 0.965 -0.965 0.2622 -1380.8853 7921.272)">
			<stop  offset="0" style="stop-color:#FFDCAE"/>
			<stop  offset="1" style="stop-color:#FCC89E"/>
		</linearGradient>
		<path class="st5" d="M147,169.4c0,0-17.5,0.7-24.9,0.5c-7.4-0.2-13.5-1.5-13.5-1.5s-7.6,3.9-6.9,7.9c0.8,4,3.5,5,3.5,5
			s5.3-1.9,7.3-1.9c2,0.1,19.4,3.2,26.4,4.7c3,0.7,8,0.4,11.4,0C149.3,176.5,147,169.4,147,169.4z"/>
		<g>
			<path class="st6" d="M210.6,183.6c10.6,1.5,32.2,2.8,37.5-12.6c1.4-4,2-7.5,2.2-10.7c-16.1,0.7-71.7,2.1-74.8,1.8
				c-3.4-0.3-11.6,2.6-14,3.5c-2.4,0.9-14.4,3.7-14.4,3.7s1.5,3.1,3.3,14.8c0,0,6.1-0.1,9-0.8c2.9-0.7,5-3.5,8-3.5
				C170.2,180,199.9,182.1,210.6,183.6z"/>
		</g>
	</g>
	<g>
		<path class="st7" d="M100.8,143.2c0,0,3.5-0.5,4.2,1.5c0.6,2-0.6,6.9-0.4,8.4c0.2,1.4,0.6,6.9,1.8,8.9c1.2,2,4.8,7.8,4.8,8.5
			c0,0.7-0.2,2.2-1.1,2.7c-0.8,0.5-4.6-0.2-6.1,0.5c-3.1,1.6-2.8,6.4-2.5,7.4c0.4,1,1.8,1.4,1.8,1.4s-2.9,2.3-5.6,2.7
			c-1.7,0.2-4.9-0.3-7.2-0.6c-1.3-0.1-2.2-0.3-2.4-0.6c-0.6-0.7,0-7.5,1-9.7c1-2.2,2.5-3.1,2.4-5.6c-0.1-2.5-0.4-10.7,0.5-13.9
			C92.8,151.5,97.1,144.9,100.8,143.2z"/>
		<g>
			<path class="st8" d="M92.1,174.4c1-1.8,1.5-4,1.3-6.7c-0.2-2.7-0.4-5.9,0.1-9.6c0.5-3.8,6.6-9,7.7-10.7c1.1-1.7,2.9-1.1,3.1-1.4
				c0.1-0.1,0.3-0.9,0.8-1.5c-0.8-1.7-4.5-1.7-4.5-1.7c-3.7,1.7-8.2,8.4-9.1,11.7c-0.8,3.2-0.6,11.3-0.5,13.8
				c0.1,2.5-1.3,3.7-2.3,5.8c-1,2.1-1.2,9.1-0.8,9.8c0.2,0.3,1.4,0.7,2.5,0.6C89.7,181.9,91.2,176,92.1,174.4z"/>
		</g>
	</g>
	<linearGradient id="SVGID_2_" gradientUnits="userSpaceOnUse" x1="104.6575" y1="150.0789" x2="101.3676" y2="147.1854">
		<stop  offset="0" style="stop-color:#FED8AB"/>
		<stop  offset="1" style="stop-color:#FCC89E"/>
	</linearGradient>
	<path class="st9" d="M110.5,146.6c0,0-5.6,1.2-7.7,2c-2.8,1.1-5.8,3.7-6.2,2.9c-0.5-0.7-0.5-3.6-0.2-4.2c0.4-0.5,4-2.3,4.5-2.4
		C101.4,144.9,110.5,146.6,110.5,146.6z"/>
	<g>
		<g>
			<g>
				<g>
					<path class="st10" d="M146.9,177.3c0,0-19.9,0.8-28.2,0.6c-8.4-0.2-15.3-1.7-15.3-1.7s-8.7,4.4-7.8,9c0.9,4.5,4,5.7,4,5.7
						s6-2.2,8.2-2.1c2.3,0.1,22,3.6,29.9,5.3c3.4,0.7,9,0.4,12.9,0C149.5,185.4,146.9,177.3,146.9,177.3z"/>
					<g>
						<path class="st11" d="M96.7,148.4c0,0,3.7-0.7,4.5,1.4c0.8,2.1-0.3,7.4,0.1,8.9c0.3,1.5,1,7.3,2.4,9.3c1.4,2.1,5.6,8,5.6,8.8
							c0,0.7-0.1,2.4-1,2.9c-0.8,0.6-4.9,0-6.5,0.9c-3.2,1.8-2.6,7-2.2,8c0.5,1,2,1.3,2,1.3s-3,2.6-5.8,3.1c-1.8,0.4-5.3,0-7.6-0.2
							c-1.3-0.1-2.4-0.2-2.6-0.5c-0.7-0.7-0.4-8,0.5-10.3c0.9-2.4,2.5-3.4,2.2-6.1c-0.3-2.7-1-11.3-0.3-14.9
							C88.7,157.7,92.9,150.5,96.7,148.4z"/>
						<g>
							<path class="st8" d="M89.3,182.1c1-2,1.3-4.3,1-7.2c-0.3-2.8-0.8-6.2-0.5-10.2c0.3-4,6.5-9.9,7.6-11.8c1-1.9,3-1.4,3.2-1.7
								c0.1-0.1,0.3-0.9,0.8-1.7c-1-1.8-4.9-1.5-4.9-1.5c-3.9,2-8.3,9.4-9,12.9c-0.7,3.5,0,12.1,0.3,14.7c0.3,2.7-1.2,4-2.1,6.3
								c-0.9,2.3-0.8,9.7-0.2,10.5c0.2,0.3,1.6,0.7,2.7,0.5C87.1,190.2,88.4,183.9,89.3,182.1z"/>
						</g>
					</g>
				</g>
				<path class="st12" d="M150.6,194c0,0,6.9-0.1,10.2-0.9c3.3-0.8,5.7-3.9,9-3.9c3.3,0,37,2.4,49.1,4.1c12,1.8,36.5,3.1,42.4-14.2
					c6-17.4-0.3-28.1-0.3-28.1l-31.9-0.1c0,0,4.1,9.3-0.5,10c-4.6,0.7-45.6,8.5-49.5,8.2c-3.9-0.3-13.1,3-15.9,4
					c-2.8,1-16.3,4.2-16.3,4.2S148.5,180.8,150.6,194z"/>
				<g>
					
						<linearGradient id="SVGID_3_" gradientUnits="userSpaceOnUse" x1="14432.8574" y1="12768.5859" x2="14432.8574" y2="12778.4521" gradientTransform="matrix(-0.2135 -0.9769 0.9769 -0.2135 -9161.6563 16983.4668)">
						<stop  offset="0" style="stop-color:#3F110E"/>
						<stop  offset="1" style="stop-color:#3F1D18"/>
					</linearGradient>
					<path class="st13" d="M227.6,161.1c4.3-0.3,6.7-0.9,9.3-1.3c6.7-1.1,10.1-1.3,10.1-1.3l1.3-7.5l-19.8,3.1
						C228.7,154.1,230.6,159.1,227.6,161.1z"/>
				</g>
			</g>
		</g>
		<path class="st10" d="M242,120.1c12.7,13.9,16.3,23.9,19,31c2.8,7.1-32.2,3.4-32.2,3.4c-0.1,0-0.5-1.4-0.5-1.5
			c-0.2-0.6-0.1-3.7-0.1-4c0-0.3-0.1-0.6-0.3-0.8c-0.2-0.2-0.4-0.4-0.6-0.6c-0.8-0.8-2.3-2.5-2.8-3.5c-0.6-1.1-0.8-1.1-1.4-2.1
			c-1.2-1.9-2.7-3.8-4.5-5.1c-5.6-3.9-9.6-2.4-9.6-2.4S230.2,107.1,242,120.1z"/>
		<g>
			
				<linearGradient id="SVGID_4_" gradientUnits="userSpaceOnUse" x1="-7110.9082" y1="-3603.3911" x2="-7065.3628" y2="-3603.3911" gradientTransform="matrix(0.2622 0.965 -0.965 0.2622 -1380.8853 7921.272)">
				<stop  offset="0" style="stop-color:#FFDCAE"/>
				<stop  offset="1" style="stop-color:#FCC89E"/>
			</linearGradient>
			<path class="st14" d="M261.1,151c-2.8-7.1-6-18.3-18.7-32.2c-7.3-8-20.8-3-27,5.5l4.2,6.2c2.2,0.2,2.9,10.2,4.3,11.8
				c1.4,1.7,3.5-4.8,5.2-3.4c0.9,0.8,2.2,3.7,3,4.7c0.8,1,0.3,2.8,0.6,4c0.5,2.1,1.5,1.6,1.3,3.8c-0.1,0.8-0.3,1.7-0.1,2.5
				c0.1,0.5-0.4,1,1.7,1.2C244.9,156.1,263.2,156.4,261.1,151z"/>
		</g>
		<g>
			<g>
				<path class="st15" d="M189.1,101.8c-11.1-8.6-14-8.4-16.9-5.9c0,0-4.3-6.5-2.8-10.6c1.5-4.1,7.6-7.3,16.7,0.4
					c14.3,12.1,23.5,28.2,23.5,28.2s-4.6-2-9.1-5.7C196.6,104.9,191.6,103.8,189.1,101.8z"/>
				<g>
					<path class="st16" d="M171.3,88c0.2,2.1,1.9,2.7,3.3,5c-1,0.8-1.8,2.9-2.2,3.6c0,0-4.5-7.3-3-11.3c0.9-2.5,7.2-8.8,16.7,0.4
						C174.5,81.1,171.1,85.7,171.3,88z"/>
				</g>
				<g>
					<g>
						<path class="st17" d="M171.5,87.2c3.3-0.3,4.4,0.5,4.5,1.8c-2.7-0.6-5.5-0.5-8.5,0.6C167.9,88.6,168.9,87.4,171.5,87.2z"/>
					</g>
					<g>
						<path class="st18" d="M168.6,91.6c-0.1,0.5-0.3,1.1-0.4,1.6c-0.5,0.2-1,0.4-1.5,0.7C166.8,93.2,167.4,92.3,168.6,91.6z"/>
					</g>
				</g>
				<g>
					<path class="st19" d="M161.5,115.5c0,0,0.3,0,0.6-0.9c0.3-0.9,1.9-3.6,4-5c2.1-1.3,5.6-3.3,5.6-3.3s-6.6,2-8.6,4.8
						C161,114.1,161.5,115.5,161.5,115.5z"/>
					
						<linearGradient id="SVGID_5_" gradientUnits="userSpaceOnUse" x1="-5414.4907" y1="-3744.2791" x2="-5406.8779" y2="-3750.8989" gradientTransform="matrix(0.5083 0.8612 -0.8612 0.5083 -288.2239 6673.8115)">
						<stop  offset="0" style="stop-color:#FFDCAE"/>
						<stop  offset="1" style="stop-color:#FCC89E"/>
					</linearGradient>
					<path class="st20" d="M179.8,103.9l7.8,10.8c0,0,6.6-1.2,8.5,1.5c0.7,0.9,4.8,5.7,8.6,10.5c1.9,2.4,4,2.2,4.8,0.7
						c2.8-5.4-11.2-14.3-12.1-18.9c-0.9-4.6,3.2-8.2,3.2-8.2s-4.2,2-8.4,1.1c-4.2-1-7.9-3.1-7.9-3.1L179.8,103.9z"/>
					<g>
						<polygon class="st4" points="184,99.2 184,99.2 184,99.2 						"/>
						<path class="st10" d="M185.1,97.8l-1.1,1.4c0,0,0.5-0.5,1.2-1.3C185.2,97.9,185.1,97.8,185.1,97.8z"/>
					</g>
					<g>
						
							<linearGradient id="SVGID_6_" gradientUnits="userSpaceOnUse" x1="4283.2329" y1="17192.8418" x2="4288.0464" y2="17197.7246" gradientTransform="matrix(-0.9553 -0.2957 0.2957 -0.9553 -796.4827 17802.1895)">
							<stop  offset="0" style="stop-color:#FFDCAE"/>
							<stop  offset="1" style="stop-color:#FCC89E"/>
						</linearGradient>
						<path class="st21" d="M184.4,98.3c-0.1-0.1-0.2-0.1-0.2-0.1l-4.4,5.7l7.8,10.8c0,0,1.9-0.3,3.9-0.2
							c-2.8-3.9-7.8-11.3-6.9-11.8c1-0.7,6.8-0.1,12.8,1.3c0.1-0.7,0.3-1.3,0.5-1.9c0-0.2,0.3-0.6,0.4-0.8c0.3-0.9,2.9-0.8,3.3-1.4
							c-0.9,0.9-6,2.2-9.5,1.5c-3.2-0.7-6.2-2.2-7.4-2.8c0,0-0.1,0-0.1,0C184.6,98.4,184.5,98.3,184.4,98.3z"/>
					</g>
					<g>
						
							<linearGradient id="SVGID_7_" gradientUnits="userSpaceOnUse" x1="-5416.2822" y1="-3733.1929" x2="-5407.1636" y2="-3733.1929" gradientTransform="matrix(0.5083 0.8612 -0.8612 0.5083 -288.2239 6673.8115)">
							<stop  offset="0" style="stop-color:#FFDCAE"/>
							<stop  offset="1" style="stop-color:#FCC89E"/>
						</linearGradient>
						<path class="st22" d="M171.5,106.7c-6.6,2.4-9.4,6.2-9.5,7.4c-0.2,1.6-0.6,1.5-0.8,1.4c1.4,1,3.8,2.2,5.7,2.8
							c1,0.3,1.6,0.4,2,0.4c0.9,0,1.1-0.1,2.4,1.1c2,1.9,2.9,3.3,3.5,3.3c0.6,0,1.3-1.4,1.3-1.4s0.6,0.2,1.6,0.2l0.3,0.3
							c0,0,0.6,0.3,0.9,0.4c0.3,0.1,0.6-0.1,0.6-0.1s1-1.5,1.3-2.1c0.5-0.8-0.7,2-0.5,2.3c0.2,0.3,0.3,0.4,0.8,0.1
							c0.5-0.4,1.4-0.5,1.6-0.6c0.2,0,3.1,0.4,3.4,0.5c2.6,0.4,2.7-8.8,1-13c-1.9-2.5-4.5-5.3-4.5-5.3c-1.2,0.2-1.7-0.3-3.1-0.6
							c-1.2,0.2-3.4,1.1-4.9,1.3C173.2,105.4,172.9,106.1,171.5,106.7z"/>
					</g>
					<path class="st16" d="M176.4,105.4c-1.3,0.4-2.7,1.1-4.4,1.3c-1.3,0.2-2.2,0.5-3.3,1c-5.4,2.3-7,5.9-7,6.9
						c-0.1,1.6-0.6,1.2-0.6,1.2s-6.9-5.8-4.8-14.9c1.9-8.5,7.2-11.9,13.4-12.8c10.4-1.5,17.6,11.1,17.6,11.1
						S182.5,103.7,176.4,105.4z"/>
					<path class="st23" d="M173.4,100.3c-0.7-0.3-0.6-1.4-1.2-1.8c-0.6,0.7-0.4,1.8-1,2.6c-0.4-0.4-0.4-1.2-0.5-1.7
						c0-0.4-0.2-0.8-0.3-1.2c-0.1-0.2,0-0.6-0.2-0.8c-0.1,0.1-0.2,0.5-0.2,0.7c-0.1,0.6-0.2,1.2-0.3,1.8c-0.1,0.8,0,1.5,0,2.3
						c0,0.7,0.1,1.6-0.1,2.2l0.1-0.1c-0.1,0.1-0.1,0.5,0.1,0.6c0.3,0.2,0.3-0.1,0.5-0.2c0.4-0.4,0.7-0.8,1.1-1.2
						c0.4,0.3,0.3,1.1,0.5,1.5c0.2-0.3,0.9-1.4,1.2-1.3c0.3,0.1,0.3,0.8,0.6,1c0.5-1.1,0.7-2.2,0.8-3.3c0-0.5,0.1-1.1,0.1-1.6
						c0-0.2,0.2-0.8,0-0.9C174.2,99.4,173.8,99.9,173.4,100.3z"/>
					<g>
						<path class="st23" d="M165.4,103.7c-0.5-0.4-0.4-1.2-1-1.5c-0.1,0.6,0.2,1.4-0.2,1.9c-1.3-0.8-0.5-3.1-1.6-3.9
							c-0.7,1-1,2.9-0.9,4.2c0.1,1,1.5,3.3,0.7,4.1c-0.6-0.4-0.9-1.3-1.2-1.9c-0.3-0.6-0.4-1.6-0.9-2.1c-0.4,0.4,0.1,1-0.6,0.7
							c-0.4-0.2-0.6-0.7-1-0.9c-0.2,0.4,0,1.8-0.6,1.4c-0.6-0.3-0.3-1.6-0.7-2c-0.6,1.4-0.6,3.1-0.1,4.5c0.6,1.6,1.5,4.3,3,5.4
							c-0.3-1-1.2-2.6-0.6-3.4c0.7,0.4,0.7,1.7,1.5,1.9c0-0.6-0.3-1.4,0-1.9c0.4-0.7,1,0.3,1.4,0.2c0.4-0.1,0.9-2.8,1.5-2.4
							c0.7-0.6,0.6-1.8,1.2-2.5c0.8,0.5,1.1,0.8,1.3-0.3c0.2-1,0.1-2.5-0.4-3.5C165.8,102.3,165.9,103.2,165.4,103.7z"/>
					</g>
					<g>
						<path class="st24" d="M178.7,122.5c-0.3-0.1-0.8-0.8-0.8-0.8l-1.5-0.6l-0.3,0.7c0,0,0.6,0.2,1.6,0.2l0.3,0.3
							c0,0,0.3,0.1,0.5,0.3C178.7,122.6,178.8,122.6,178.7,122.5z"/>
					</g>
					<path class="st24" d="M176.6,120.6c0,0-0.3-0.5-0.9-0.4c-0.6,0.2-0.9,0.4-0.9,0.4s0.4-1.3,1.1-1
						C176.4,119.9,176.6,120.6,176.6,120.6z"/>
					<g>
						<g>
							<path class="st19" d="M170.4,113.9c0.7-0.5,1.4-0.7,1.4-0.7s0.8,1.8,0.4,2.9c-0.4,1.1-0.8,1.2-0.8,1.2s-0.9-0.2-1.7-0.1
								c0,0,0,0,0.1,0c0.4,0.2,1.8,0.5,1.8,0.5s0.4-0.2,0.9-1.6c0.5-1.4-1-3.4-1-3.4S171,112.9,170.4,113.9z"/>
						</g>
						<g>
							<g>
								<path class="st16" d="M172.2,117.9c0,0-0.5-0.1-0.5-0.1c0.2-0.4,0.5-1.3,0.5-2.4c0-1.8-0.7-2.7-0.7-2.7s1.2,1.2,1.2,3.2
									C172.7,117,172.5,117.6,172.2,117.9z"/>
							</g>
						</g>
						<g>
							<path class="st16" d="M169,118.3c0,0,0.2-0.7,0.2-1.5c0-0.8-0.3-3.1-0.1-3.6c0.1-0.5,0.7-1.9,0.7-1.9s-0.6,0.8-0.9,1.6
								c-0.2,0.8-0.7,3.7-0.7,4.8C168.2,118.6,168.8,118.4,169,118.3z"/>
						</g>
					</g>
					<path class="st25" d="M179.2,122.8c0,0-0.2-0.3-0.1-0.6c0.1-0.3,1.9-1.8,1.9-1.8l-1.5,2.3C179.6,122.6,179.3,122.8,179.2,122.8
						z"/>
					<path class="st26" d="M180.8,122.9c0,0,0.2-0.8,0.2-1.3c0-0.5,0-1.3,0-1.3s-0.9,1.8-0.7,2.4C180.4,123,180.7,123.2,180.8,122.9
						z"/>
					<path class="st4" d="M188.4,118.2c0,0,0.5-4.6-0.3-7.1c-0.7-2.4-5.4-6.7-5.4-6.7s4.8,6.3,5.1,6.9
						C188.2,111.9,188.4,118.2,188.4,118.2z"/>
					<g>
						
							<linearGradient id="SVGID_8_" gradientUnits="userSpaceOnUse" x1="-5416.2827" y1="-3742.8162" x2="-5407.1641" y2="-3742.8162" gradientTransform="matrix(0.5083 0.8612 -0.8612 0.5083 -288.2239 6673.8115)">
							<stop  offset="0" style="stop-color:#FFDCAE"/>
							<stop  offset="1" style="stop-color:#FCC89E"/>
						</linearGradient>
						<path class="st27" d="M183,104.8c-0.1-0.8-0.4-1.8-2.2-3.8c-1.8-2-3.6-0.6-3.9-0.3c-0.3,0.3-0.6,2.5,2.7,4.5l2.9,0.9
							C182.4,106.2,183.1,105.5,183,104.8z"/>
						<path class="st28" d="M178.5,102.4c0,0,1.2,0.6,1.5,0.5c0.6-0.1,0.8,0.6,0.8,0.6s-0.5,0-0.6-0.1
							C180,103.4,178.5,102.4,178.5,102.4z"/>
						<path class="st28" d="M181.6,105.1c0-0.2-0.4-1.6-0.8-1.6c0,0-0.1,0-0.1,0c-0.3,0-0.3,0-0.7-0.2c-0.1-0.1-0.3-0.2-0.6-0.4
							c-0.6-0.4-1.4-0.9-1.3-1.1c0-0.1,0.1-0.2,0.2-0.2c0.3-0.2,0.8-0.2,1.2,0.1c0.6,0.4,0.6,0.8,0.6,0.8s0.1-0.5-0.5-0.9
							c-0.4-0.3-1-0.2-1.3-0.1c-0.2,0.1-0.3,0.2-0.3,0.3c-0.1,0.3,0.1,0.4,1.4,1.3c0.2,0.2,0.4,0.3,0.6,0.4c0.4,0.3,0.5,0.3,0.8,0.3
							c0,0,0.1,0,0.1,0c0.2,0,0.4,0.7,0.5,1.1L181.6,105.1z"/>
					</g>
				</g>
			</g>
			
				<linearGradient id="SVGID_9_" gradientUnits="userSpaceOnUse" x1="-6442.5791" y1="-3709.8594" x2="-6434.7856" y2="-3705.2947" gradientTransform="matrix(0.3628 0.9319 -0.9319 0.3628 -909.406 7462.6929)">
				<stop  offset="0" style="stop-color:#FFDCAE"/>
				<stop  offset="1" style="stop-color:#FCC89E"/>
			</linearGradient>
			<path class="st29" d="M227.7,107.7c0,0-11,16.1-20.9,15.1c-9.9-1-13.4-9.9-11.9-14.7c1.5-4.8,4.6-8.9,9.9-8.9
				C211,99.2,227.7,107.7,227.7,107.7z"/>
			<path class="st30" d="M224.5,144c0,0-0.4-0.7,1.6-4.9c2.6-5.5,10.2-21.6,10.2-21.6s-10.7-4.4-12.4-5.5c-1-0.4-3.2-0.5-3.2-0.5
				c-1.8,2.9-7.1,10.4-12.4,9.6c-6.6-1-8.2-1.6-9.6-3.1c-1.4-1.5-2.4-11.3-1.4-13.3c1-2,3-4.2,3-4.2s-5.6,2.8-5.1,9.3
				c0.3,4.8,1.7,12.1,2.7,15.7c1,3.6,2,12.2,7.1,14.2c5.1,2.1,8.4,1,10.7,0.9C218.3,140.4,224.5,144,224.5,144z"/>
			<path class="st31" d="M227.5,136.2c3.3-6.5,14.4-18,14.4-18s-8.1-7.4-14.8-11c-6.7-3.6-16-8.5-21.9-8.5c-0.7,0-3.7,0.6-5.6,1.8
				c-2.6,1.8-4.3,4.3-4.4,9.2c-0.1,3.4,1.1,6.8,2.1,10.1c1.1,3.3,4.7,9.6,7.8,12.5c3.4,3.2,7.5,3.8,12.5,3.2
				c2.1-0.3,3.9,0.1,5.9,0.8C224.6,136.7,226.7,137.8,227.5,136.2z M208.9,119.1c-6.6,0.9-8.9,0.3-10.3-1.2
				c-1.4-1.5-2.4-11.3-1.4-13.3c0.5-1,1.3-2.3,2-3.3c1.3-1,2.9-1.7,4.9-1.7c2.1,0,5.3,1,8.8,2.4c3,1.2,5,5.6,4.5,7.9
				C216.1,115.8,213.5,118.4,208.9,119.1z"/>
			<g>
				<path class="st31" d="M222.5,138c0.6-2.4,0.9-3.5,1.1-4c-0.4,0.9-1.3,3-1.8,4.9c-0.2,1-0.5,2.3-0.7,3.4c0.1,0.1,0.2,0.1,0.3,0.2
					C221.7,141.3,222,139.8,222.5,138z"/>
				<path class="st31" d="M219.5,141.5c0.2,0.1,0.4,0.2,0.6,0.2c0.4-1.9,1-4.6,1-4.6S220.1,139.7,219.5,141.5z"/>
			</g>
		</g>
	</g>
	<g>
		<linearGradient id="SVGID_10_" gradientUnits="userSpaceOnUse" x1="95.9486" y1="145.8125" x2="97.4055" y2="147.3699">
			<stop  offset="0" style="stop-color:#FED8AB"/>
			<stop  offset="1" style="stop-color:#FCC89E"/>
		</linearGradient>
		<path class="st32" d="M102.2,142.2c0,0-3.7,1.2-4.9,2.2c-1.2,1-4.2,3.8-4.8,5.4c-0.7,1.7-0.6,2.2,0.1,2.3c0.3,0,0.8-0.4,1.7-1.8
			c0.8-1.4,3.1-2.9,4.2-3.9C99.5,145.5,102.2,142.2,102.2,142.2z"/>
		<path class="st10" d="M115.5,145.9c0,0-1.9,0.8-3.7,0.8c-1.8,0-8.5-0.2-9.4-0.1c-0.8,0.1-1.5-0.2-3.4,0.5
			c-1.9,0.7-3.1,2.4-3.7,2.9c-1.6,1.3-2.1,0.7-1.8,0c0.3-0.7,4.5-5.2,5.9-6.1c1.4-0.9,3.8-2.6,5.8-2.8c2-0.3,9.9-0.8,9.9-0.8
			s2.2,0.6,2.4,2C117.5,143.9,116.8,145.5,115.5,145.9z"/>
		<path class="st10" d="M115.1,140.7c0,0,18-8.1,22.1-9.8c4-1.7,14.5-7.7,17.9-8.1c3.4-0.4,3.5-0.3,5.7-1.1
			c2.2-0.8,17.3-9.2,21.9-11.7c4.7-2.5,11.2-8.7,16.8-9.4c5.7-0.7,9.7,1.8,12.5,8c2.8,6.2-24.4,15.6-34.1,18.5
			c-9.7,2.9-17.2,5-19.7,6.4c-2.4,1.4-9.9,4.5-19.9,6.8c-9.9,2.3-22.9,5.4-22.9,5.4L115.1,140.7z"/>
	</g>
</g>
</svg>
