<?xml version="1.0" encoding="utf-8"?>
<!-- Generator: Adobe Illustrator 21.1.0, SVG Export Plug-In . SVG Version: 6.00 Build 0)  -->
<svg version="1.1" id="Layer_1" xmlns="http://www.w3.org/2000/svg" xmlns:xlink="http://www.w3.org/1999/xlink" x="0px" y="0px"
	 viewBox="0 0 2500 1677.7" style="enable-background:new 0 0 2500 1677.7;" xml:space="preserve">
<style type="text/css">
	.st0{fill:#FFFFFF;}
	.st1{fill:#ECAE84;}
	.st2{fill:#E0DCD3;}
	.st3{fill:#D05E58;}
	.st4{fill:#4B2B22;}
	.st5{fill:#55392D;}
	.st6{fill:#509BD4;}
	.st7{fill:#6BB0E1;}
	.st8{fill:#FFDCAE;}
	.st9{fill:url(#SVGID_1_);}
	.st10{fill:#FCCA9F;}
	.st11{fill:#502928;}
	.st12{fill:#4B2723;}
	.st13{fill:#FBBE8E;}
	.st14{fill:#FBC69C;}
	.st15{fill:#A77C4F;}
	.st16{fill:#FBC49C;}
	.st17{fill:#F49993;}
	.st18{fill:#E6968C;}
	.st19{fill:#EFA77A;}
	.st20{fill:#F59120;}
	.st21{fill:#E78724;}
	.st22{fill:url(#SVGID_2_);}
	.st23{fill:#ECE7DD;}
	.st24{fill:#D77163;}
	.st25{fill:#D7625E;}
	.st26{fill:#DF8126;}
	.st27{fill:url(#SVGID_3_);}
	.st28{fill:url(#SVGID_4_);}
	.st29{fill:url(#SVGID_5_);}
	.st30{fill:#E0DBD2;}
	.st31{fill:#D67263;}
	.st32{fill:url(#SVGID_6_);}
	.st33{fill:url(#SVGID_7_);}
	.st34{fill:url(#SVGID_8_);}
	.st35{fill:url(#SVGID_9_);}
	.st36{fill:#E9E4DC;}
	.st37{fill:url(#SVGID_10_);}
	.st38{fill:url(#SVGID_11_);}
	.st39{fill:#F49021;}
	.st40{fill:url(#SVGID_12_);}
	.st41{fill:#509AD3;}
	.st42{fill:#6CAFE0;}
	.st43{fill:#FBBD8D;}
	.st44{fill:#A67D4F;}
	.st45{fill:#F29892;}
	.st46{fill:#E5958B;}
	.st47{fill:url(#SVGID_13_);}
	.st48{fill:#FCC89E;}
	.st49{fill:url(#SVGID_14_);}
</style>
<rect y="0" class="st0" width="2500" height="1677.7"/>
<g>
	<g>
		<path class="st1" d="M771.3,1180.1c0,0-6,79.7-8.2,145.7c-2.1,60.8,10.3,84,16.1,95.1c2.1,4.1-29.5,9.3-41.5,6.5
			c-12-2.8-11.5-4.1-8.8-25.9c3.7-29.3-14-167.7,5-207.9C752.7,1153.2,771.3,1180.1,771.3,1180.1z"/>
		<g>
			<g>
				<path class="st2" d="M723.5,1450.8c0,0-2.3,13.3-1.5,14.5c0.8,1.2,19.8,3.2,31.2,1.9c11.5-1.3,18.7-2.3,18.7-2.3l2.3-4.3
					c0,0,25.2,13,43.3,11.2c18.1-1.8,36.6-12.9,41.8-16.4c8.7-5.9,2.8-21.1-6.9-19.3c-9.7,1.7-44.3,18.8-55.6,14.5
					c-11.3-4.3-28.2-7.7-38-6.7C749,1444.9,723.5,1450.8,723.5,1450.8z"/>
				<path class="st3" d="M726.1,1407.6c0,0-6,22.2-5.1,29.7c0.9,7.5,2.5,13.5,2.5,13.5s10.8,0.8,23.4-0.9
					c12.7-1.6,22.1-2.8,30.3,0.4c8.2,3.2,31.5,10.9,42.9,9.9c16.7-1.5,30.1-9.5,35.5-14.6c5.4-5.1-3-9.6-3-9.6s-15.6,0.5-22.5-2.9
					c-6.9-3.4-59.8-32.4-59.8-32.4S754.4,1419.4,726.1,1407.6z"/>
			</g>
		</g>
	</g>
	<g>
		<g>
			<path class="st4" d="M663.6,287.4c7.9-12.6,19.2-11.6,24.8-8c-0.6,1.8-9.9,13.9-10.2,16.1c-4.8,26.3,5.4,24.8,17.4,19
				c2.2,12.8,5.8,30.5,11.8,54.4c10,39.5-6.4,79.6-21.9,103c-1.3-31.8-15.7-79-20.5-100.5C657.7,338.4,652.9,304.6,663.6,287.4z"/>
		</g>
		<g>
			<path class="st5" d="M665.1,371.5c-7.4-33.1-12.2-66.9-1.4-84.1c7.9-12.6,19.2-11.6,24.8-8c-0.3,0.7-2,3.2-3.9,6
				c-4.7,0.4-9.1,1.7-10.8,4.9c-4.1,7.9-10.9,28.1,0,58.1c21,57.7,17.1,115.7,11.9,123.5C684.3,440.2,669.9,393,665.1,371.5z"/>
		</g>
		<path class="st6" d="M689.8,276.8c-0.2,0-0.3,0.1-0.5,0.1C689.5,276.9,689.6,276.9,689.8,276.8z"/>
		<path class="st6" d="M691.7,276.5c-0.2,0-0.3,0-0.5,0.1C691.3,276.6,691.5,276.6,691.7,276.5z"/>
		<path class="st6" d="M693.9,276.4c-0.1,0-0.3,0-0.4,0C693.7,276.4,693.8,276.4,693.9,276.4z"/>
		<path class="st6" d="M695.2,276.5c0,0-0.1,0-0.1,0C695.1,276.5,695.1,276.5,695.2,276.5z"/>
		<path class="st6" d="M694.7,276.4c-0.1,0-0.2,0-0.3,0C694.5,276.4,694.6,276.4,694.7,276.4z"/>
		<path class="st6" d="M692.9,276.4c-0.2,0-0.3,0-0.5,0C692.6,276.4,692.8,276.4,692.9,276.4z"/>
		<path class="st6" d="M692.5,285.4c0,0-0.1-0.1-0.2-0.2c0.4-0.8,0.8-1.5,1.1-2.1c2.2-0.2,4.3-0.1,5.9,0.4l-4.1-7l16.3,28
			c0,0-7.6,6-16,10.1C692,293.1,692.5,285.4,692.5,285.4z"/>
		<path class="st6" d="M674.7,295.6c0.4-2.2,0.9-4.2,1.5-5.9c4.6-0.8,9.4-0.3,13.7,0.6c0.6-1.5,1.5-3.4,2.4-5.1
			c0.1,0.1,0.2,0.2,0.2,0.2s-0.5,7.7,3.1,29.2C683.6,320.4,669.9,322,674.7,295.6z"/>
		<path class="st6" d="M685,278.6c-0.3,0.1-0.5,0.3-0.8,0.4C684.5,278.9,684.8,278.8,685,278.6z"/>
		<path class="st6" d="M686.7,277.8c-0.2,0.1-0.5,0.2-0.7,0.3C686.2,278.1,686.4,277.9,686.7,277.8z"/>
		<path class="st6" d="M688.3,277.2c-0.2,0.1-0.4,0.2-0.7,0.2C687.8,277.4,688.1,277.3,688.3,277.2z"/>
		<path class="st6" d="M683.4,279.7c-0.3,0.2-0.5,0.4-0.8,0.6C682.9,280,683.1,279.9,683.4,279.7z"/>
		<path class="st6" d="M681.6,281.1L681.6,281.1C681.6,281.1,681.7,281.1,681.6,281.1C681.7,281.1,681.6,281.1,681.6,281.1z"/>
		<path class="st6" d="M693.5,283.1c-0.3,0.6-0.7,1.4-1.1,2.1c-0.3-0.3-1.1-1-2.3-1.7C691.2,283.4,692.4,283.2,693.5,283.1z"/>
		<path class="st6" d="M678.2,285.4c-0.3,0.4-0.5,0.9-0.7,1.4C677.7,286.3,678,285.8,678.2,285.4z"/>
		<path class="st6" d="M680.5,282.3c0.4-0.4,0.7-0.8,1.1-1.1h0C681.3,281.5,680.9,281.9,680.5,282.3z"/>
		<path class="st6" d="M692.3,285.2c-0.9,1.7-1.8,3.6-2.4,5.1c-4.3-1-9.1-1.4-13.7-0.6c0.3-0.8,0.6-1.6,1-2.4
			c3.6-1.4,8.4-3,12.9-3.8C691.3,284.3,692,284.9,692.3,285.2z"/>
		<path class="st6" d="M679.6,283.3c-0.3,0.3-0.5,0.7-0.8,1.1C679.1,284.1,679.3,283.7,679.6,283.3z"/>
		<path class="st7" d="M693.5,276.4c-0.2,0-0.4,0-0.6,0C693.2,276.4,693.4,276.4,693.5,276.4z"/>
		<path class="st7" d="M692.4,276.5c-0.2,0-0.5,0-0.8,0.1C691.9,276.5,692.2,276.5,692.4,276.5z"/>
		<path class="st7" d="M691.2,276.6c-0.4,0.1-0.9,0.1-1.4,0.2C690.3,276.7,690.7,276.7,691.2,276.6z"/>
		<path class="st7" d="M688.5,277.2c0.3-0.1,0.6-0.2,0.9-0.2C689,277,688.8,277.1,688.5,277.2C688.5,277.2,688.5,277.2,688.5,277.2z
			"/>
		<path class="st7" d="M695.3,276.5c0,0-0.1,0-0.2,0C695.3,276.5,695.3,276.5,695.3,276.5z"/>
		<path class="st7" d="M695,276.5c-0.1,0-0.2,0-0.3,0C694.8,276.4,694.9,276.5,695,276.5z"/>
		<path class="st7" d="M694.4,276.4c-0.1,0-0.3,0-0.5,0C694.1,276.4,694.3,276.4,694.4,276.4z"/>
		<path class="st7" d="M688.3,277.2c0.1,0,0.1,0,0.2-0.1c0,0,0,0,0,0C688.4,277.2,688.3,277.2,688.3,277.2z"/>
		<path class="st7" d="M682.6,280.2c-0.3,0.3-0.6,0.5-0.9,0.8C682,280.8,682.3,280.5,682.6,280.2z"/>
		<path class="st7" d="M685.9,278.2c-0.3,0.1-0.6,0.3-0.9,0.5C685.3,278.5,685.6,278.3,685.9,278.2z"/>
		<path class="st7" d="M687.6,277.5c-0.3,0.1-0.6,0.2-0.9,0.4C687,277.7,687.3,277.6,687.6,277.5z"/>
		<path class="st7" d="M684.3,279.1c-0.3,0.2-0.6,0.4-0.9,0.6C683.7,279.5,684,279.3,684.3,279.1z"/>
		<path class="st7" d="M680.5,282.3c-0.3,0.3-0.6,0.7-0.9,1.1C679.9,283,680.2,282.6,680.5,282.3z"/>
		<path class="st7" d="M678.8,284.5c-0.2,0.3-0.4,0.6-0.6,1C678.4,285.1,678.6,284.8,678.8,284.5z"/>
		<path class="st7" d="M677.2,287.4c0.1-0.2,0.2-0.4,0.3-0.6C677.4,287,677.3,287.2,677.2,287.4
			C677.2,287.4,677.2,287.4,677.2,287.4z"/>
		<path class="st7" d="M693.5,283.1c0.6-1.2,1.1-2,1.1-2s-2.2-2.1-6.1-3.9c0.3-0.1,0.6-0.2,0.8-0.2c0.2,0,0.3-0.1,0.5-0.1
			c0.5-0.1,0.9-0.2,1.4-0.2c0.2,0,0.3,0,0.5-0.1c0.3,0,0.5-0.1,0.8-0.1c0.2,0,0.3,0,0.5,0c0.2,0,0.4,0,0.6,0c0.1,0,0.3,0,0.4,0
			c0.2,0,0.3,0,0.5,0c0.1,0,0.2,0,0.3,0c0.1,0,0.3,0,0.3,0c0,0,0.1,0,0.1,0c0.1,0,0.2,0,0.2,0l4.1,7
			C697.8,283,695.7,282.9,693.5,283.1z"/>
		<path class="st7" d="M681.6,281.1C681.6,281.1,681.7,281.1,681.6,281.1c0.3-0.3,0.7-0.6,1-0.9c0.2-0.2,0.5-0.4,0.8-0.6
			c0.3-0.2,0.6-0.4,0.9-0.6c0.3-0.2,0.5-0.3,0.8-0.4c0.3-0.2,0.6-0.3,0.9-0.5c0.2-0.1,0.5-0.2,0.7-0.3c0.3-0.1,0.6-0.2,0.9-0.4
			c0.2-0.1,0.4-0.2,0.7-0.2c0.1,0,0.1,0,0.2-0.1c3.9,1.8,6.1,3.9,6.1,3.9s-0.5,0.8-1.1,2c-1.1,0.1-2.2,0.3-3.4,0.5
			C688.2,282.5,685.4,281.3,681.6,281.1z"/>
		<path class="st7" d="M681.6,281.1c3.8,0.2,6.6,1.4,8.4,2.5c-4.5,0.8-9.2,2.4-12.9,3.8c0.1-0.2,0.2-0.4,0.3-0.6
			c0.2-0.5,0.5-1,0.7-1.4c0.2-0.3,0.4-0.6,0.6-1c0.3-0.4,0.5-0.8,0.8-1.1c0.3-0.4,0.6-0.7,0.9-1.1
			C680.9,281.9,681.3,281.5,681.6,281.1z"/>
	</g>
	<path class="st8" d="M781.7,1133.7c0,0-8.8,71.6-16.8,165.4c-3.9,46.4-3.7,79-4.3,98.4c-0.4,14.4,13,14.9,14.2,19.2
		c1.6,5.6-44.6,13-59.7,8.5c-15.1-4.5-1.1-10.5,4.1-38.1c7-37-36-195.6-8.7-245.3C737.9,1092,781.7,1133.7,781.7,1133.7z"/>
	<g>
		<linearGradient id="SVGID_1_" gradientUnits="userSpaceOnUse" x1="766.7352" y1="721.4971" x2="623.7208" y2="727.5927">
			<stop  offset="0" style="stop-color:#FFDCAE"/>
			<stop  offset="1" style="stop-color:#FBC79D"/>
		</linearGradient>
		<path class="st9" d="M681.5,648.6h123.8c0,0.1,0,0.2,0,0.3c1.3,11-2.6,28.4-3.1,46.9c-1.2,45.8-2.3,100.8-2.3,100.8l-131.5-6
			c0,0,3.4-12.7,11.8-29.3C697.5,727.1,684.1,665.1,681.5,648.6z"/>
	</g>
	<g>
		<path class="st10" d="M792.1,681.4c-0.8-10.3,0-23.8,0.7-32.8h12.5c0,0.1,0,0.2,0,0.3c2.6,14.6-1.3,35.9-1.3,57.2
			c-0.1,43.6,3.5,88.8,3.5,88.8l-13.4,1.3c-3.1-10.5-4.8-27.2-5.6-38.4c-1.3-17.1,4.7-33.9,5.8-44.1
			C795.4,703.5,793.3,698.5,792.1,681.4z"/>
	</g>
	<g>
		<path class="st11" d="M790.9,1094c0,0,0.1-0.5,0.3-1.4c3.7-14.5,14.9-107.9,12.3-153.3c-2.7-48.2-9.5-89.9-10.4-102.6
			c-0.9-12.7,8.9-58.7,8.9-58.7s-10.1,1.6-61.8-7c-51.6-8.6-60.5-11-60.5-11s-22.8,26.2-22.8,67.7c0,46.1,36,77.6,43.1,115
			c7.1,37.3,7.2,40.9,10.7,65.7c3.5,24.7,5.7,99.2,5.7,99.2s0,11.1-4,22c-4,10.9-6,17-6,17s23.9-8.5,38.8-4.5
			c14.8,4.1,34.8,11.4,34.8,11.4s2.4-11.9,3.7-20.4C783.9,1133.3,794.5,1117.6,790.9,1094z"/>
		<path class="st12" d="M790.9,1094c0,0,14.9-100.3,18.6-145.6c1.4-17.1,2.7-38.4,3.7-55.2c4.6-71.5-6.7-131.6-6.7-131.6
			s-9.5,3.7-60.3,2.7c-55.5-1.1-66.4-4.2-66.4-4.2S657.7,790,663.3,838c4.7,39.6,36.3,77,43.4,114.3c7.1,37.3,5.9,41.5,9.3,66.3
			c3.5,24.8,9.9,76.1,9.9,76.1s0.7,24.4-3.3,35.4c-4,10.9-5.9,13.3-5.9,13.3s9.9-1.7,26.9,0.3c15.3,1.8,36.6,10,36.6,10
			s2.4-11.9,3.7-20.4C783.9,1133.3,794.5,1117.6,790.9,1094z"/>
	</g>
	<g>
		<path class="st13" d="M827.7,290.2c0,0-0.4,1.5-4.9,1.5c-4.5,0.1-19.8,3.6-29.1,11.7c-9.3,8.1-23.4,21.6-23.4,21.6
			s18.9-28.6,35.1-34C821.6,285.6,827.7,290.2,827.7,290.2z"/>
		<path class="st8" d="M741.5,357.5l45.8,50c0,0-3.5-0.5-7,5.6c-7.5,13-14.3,35.1-8,49.2c4.3,9.6,11,31.7,23.9,44.3
			c13,12.6,26.6,33.3,14.5,41.3c-12.1,8.1-14-43-20.1-45.5c-6.1-2.5-66-32.9-74.1-34.8c-8.1-1.9-31.7-2.8-31.7-2.8s22.3-34,28.5-55
			c7.5-24.9-3.2-42.1-3.2-42.1L741.5,357.5z"/>
		<g>
			<path class="st14" d="M706.2,367.2l35.3-9.6l45,47.5c-0.1,3.6-8.5,10.5-14.6,27.4l-64.8-61.9
				C706.6,368.4,706.2,367.2,706.2,367.2z"/>
		</g>
		<g>
			<path class="st8" d="M771.6,324.8c20.7-28,42.6-35.6,48.8-34.4c7.8,1.6,8-0.8,7.8-1.8c2.8,8.2,4.9,20.9,5,30.7
				c0.1,5.1-0.5,8.1-1,10.1c-1.1,4.3-2.2,4.8,1.9,13.1c6.2,12.3,11.3,18.6,10.7,21.3c-0.6,2.8-8.3,4.1-8.3,4.1s-0.1,3.2-1.4,8.1
				l1,1.9c0,0,0.7,3.2,0.9,4.8c0.1,1.6-1.3,2.9-1.3,2.9s-8.6,2.3-12.1,3.3c-4.6,1.4,10.6-0.4,11.5,1c0.9,1.4,1.6,2-0.9,4
				c-2.6,1.9-4.5,6-5,7c-0.5,0.9-2.4,15.4-2.6,17c-1.7,12.8-45.6,0.3-62.7-13.9c-9.2-12.5-18.8-28.7-18.8-28.7
				c2.8-5.1,1.1-8.5,1.6-15.6c2.9-5.5,10.3-14.7,13.2-21.5C763.1,331,767.1,330.5,771.6,324.8z"/>
		</g>
		<path class="st5" d="M758.6,346.1c3.5-5.6,8.8-11.2,12.5-18.8c2.9-5.9,5.7-9.8,9.6-14.3c18.3-22.1,37.6-24.6,42.7-23.3
			c7.9,2,6.4-1.4,6.4-1.4s-17.6-40.8-63.6-43.9c-43-3-66.5,16.9-79.6,45.3c-21.7,47.2,28.9,104,28.9,104S742,372.4,758.6,346.1z"/>
		<path class="st15" d="M739,324.5c-0.5-3.5-5.9-4.7-6.7-8.3c4.1-2,9.3,0.8,13.6-1c-1.2-2.6-5-3.6-7.5-4.6c-2-0.8-3.6-2.1-5.4-3.1
			c-1.1-0.6-2.9-0.7-3.3-2c0.9-0.5,2.6-0.1,3.7-0.1c3,0.1,6,0.6,8.9,1.2c3.8,0.7,7.3,2.2,10.9,3.3c3.3,1,7.4,2.6,10.7,2.7l-0.6,0.4
			c0.7-0.1,2.4,0.4,2.7,1.2c0.5,1.4-0.7,1.3-1.5,1.9c-2.3,1.5-4.7,2.2-7.2,3.3c1.1,2.2,4.7,3.2,6.4,4.7c-1.5,0.6-8,2.1-8,3.6
			c0,1.5,3.5,2.8,3.8,4.4c-5.7,0.6-11.3,0.4-16.9-0.7c-2.6-0.5-5.2-1.2-7.8-1.7c-1.1-0.2-4-0.2-4.3-1.5
			C733.4,326.9,736.2,325.8,739,324.5z"/>
		<g>
			<path class="st15" d="M766.5,291.8c-1.1-2.9-5.1-3.7-5.6-6.7c2.8,0.4,6.5,2.9,9.4,1.7c-1.8-7.4-13.9-6.5-16.1-13
				c5.8-2.1,15.2-0.6,21,1.5c4.7,1.7,13.7,11.7,18.6,9.4c-0.9-3.3-4.9-6-7.3-8.3c-2.4-2.2-7.1-4.3-8.6-7c2.6-1.1,4.6,2,4-1.9
				c-0.3-2.2-2.3-3.6-2.9-5.9c2.4-0.4,8.3,2.6,7.7-0.8c-0.6-3.4-7-3.8-8.6-6.3c7.4-1,15.4,1.5,21.5,6.1c6.9,5.2,18,13.1,21.1,21.9
				c-4.2-3-10.3-9.4-15.3-7.7c0.7,3.9,6.9,5.8,6.9,9.8c-2.7-0.8-6.3-3.4-9.2-2.6c-3.9,1,0.1,5.3-1.1,6.8c-1.2,1.5-14.6,0.5-13.2,3.5
				c-3.7,2.3-9.4,0.2-13.6,2c1.4,4.3,2.3,6.3-3.3,5.8c-5.1-0.5-12.1-3.2-15.9-7C759.1,291.4,763.4,293.3,766.5,291.8z"/>
		</g>
		<g>
			<path class="st16" d="M836.5,381.3c-0.1-1.4-2.7-4.7-2.7-4.7l-0.7-8.2l3.6-0.5c0,0-0.1,3.2-1.4,8.1l1,1.9c0,0,0.3,1.4,0.6,2.9
				C836.6,381.5,836.5,381.8,836.5,381.3z"/>
		</g>
		<path class="st16" d="M830.5,368.7c0,0-2-2.4-0.5-4.8c1.6-2.4,3.1-3.9,3.1-3.9s-6.6,0.3-6.2,3.7
			C827.3,366.7,830.5,368.7,830.5,368.7z"/>
		<g>
			<g>
				<path class="st13" d="M807.5,334.5c-3.1,2.9-4.5,6.6-4.5,6.6s8.4,4.9,14.1,3.6c5.7-1.2,6.5-3,6.5-3s-0.4-4.6,0.4-8.3
					c0.1,0.1,0.2,0.2,0.2,0.3c0.6,1.9,1.4,9.4,1.4,9.4s-1.2,1.8-8.6,3.2c-7.4,1.4-16.2-7.2-16.2-7.2S802,336.7,807.5,334.5z"/>
			</g>
			<g>
				<g>
					<path class="st5" d="M825.7,345.7c0.2-0.2-0.2-2.6-0.2-2.6c-2.3,0.7-6.5,1.6-12,1c-8.6-1-12.8-5-12.8-5s4.9,6.6,15.1,8.1
						C821.2,348.1,824.2,347,825.7,345.7z"/>
				</g>
			</g>
			<g>
				<path class="st5" d="M830.5,328.3c0,0-3.6,0.6-7.7-0.4c-4-0.9-14.9-3.8-17.6-3.5c-2.7,0.2-10.1,1.8-10.1,1.8s4.4-2.4,8.5-3
					c4.1-0.5,18.7-0.4,23.8,0.5C832.5,324.7,831.5,327.4,830.5,328.3z"/>
			</g>
		</g>
		<path class="st17" d="M836.8,384.2c0,0-1.2-1.6-2.7-1.3c-1.6,0.3-11.4,6.5-11.4,6.5l13.2-2.5C835.8,386.9,837.1,384.6,836.8,384.2
			z"/>
		<path class="st18" d="M835.4,392.1c0,0-4-0.2-6.5-0.8c-2.4-0.6-6.3-1.9-6.3-1.9s9.8-2.4,12.3-0.6
			C835.8,389.4,836.9,391.6,835.4,392.1z"/>
		<path class="st14" d="M802.2,421.3c0,0-22.5-4.3-33.1-11.3c-10.5-7-24.1-35.1-24.1-35.1s22.9,31.8,25.4,34
			C772.8,411,802.2,421.3,802.2,421.3z"/>
		<g>
			<path class="st8" d="M751.8,374.3c0,0-3.7,2.2-6.6,0.8c-3.2-1.5-7.4-4.1-13.6-14.7c-6.2-10.6,2.1-16.8,3.8-17.6
				c1.7-0.9,11.8,0.7,16.4,17.8"/>
			<path class="st19" d="M739.3,352.2c0,0,1,6.7,0.4,7.9c-1.2,2.8,1.8,4.6,1.8,4.6s0.7-2.3,0.5-3.2
				C741.7,360.6,739.3,352.2,739.3,352.2z"/>
			<path class="st19" d="M747.4,370.6c-0.7-0.2-7.2-4.3-6.4-6.2c0.1-0.2,0.2-0.4,0.2-0.6c0.5-1.1,0.6-1.4-0.2-3.7
				c-0.3-0.6-0.6-1.8-1-3.2c-1-3.2-2.4-7.8-3.5-7.9c-0.4,0-0.9,0.2-1.3,0.7c-1.1,1.1-2,3.3-1.4,5.7c0.9,3.4,2.7,3.9,2.8,3.9
				c0,0-2.5-0.3-3.4-3.7c-0.7-2.5,0.3-5,1.5-6.3c0.6-0.6,1.3-1,2-0.9c1.3,0.1,1.9,1,4,8.3c0.4,1.4,0.8,2.5,1,3.2
				c0.9,2.3,0.7,2.7,0.2,4.1c-0.1,0.2-0.2,0.4-0.2,0.6c-0.4,1.1,2.8,3,4.8,3.8L747.4,370.6z"/>
		</g>
		<path class="st20" d="M782,477.4c26.6,32.2,51.7,55.8,56.3,79.1c3.1,15.7-4.7,41.2-22.8,59.1c-8,13.1-7,18.7-8.5,25.2
			c-0.5,2.2-0.8,12.2-0.8,12.2H681.8c0,0-28.3-117.9-5.2-171.4c0,0,19.8-60.3,64.6-44.2C755.2,442.4,766.4,458.6,782,477.4z"/>
		<g>
			<path class="st21" d="M671.8,496.8C658.3,554.7,681.8,653,681.8,653h62.7c0,0,1.7-12.9,1.7-34c0.1-21.1-1.7-57.2-1.7-57.2
				L671.8,496.8z"/>
		</g>
		<path class="st8" d="M779.6,543.8c-9,23.3-28.3,23.5-58.1,24.7c-29.7,1.3-50-35.5-48.8-61.5c1-23.5,21.1-72.6,59.2-64.6
			C769.9,450.5,793,509,779.6,543.8z"/>
		<g>
			
				<linearGradient id="SVGID_2_" gradientUnits="userSpaceOnUse" x1="-13154.8447" y1="520.6994" x2="-13153.2109" y2="562.2147" gradientTransform="matrix(-1 0 0 1 -12427.1475 0)">
				<stop  offset="0" style="stop-color:#FFDCAE"/>
				<stop  offset="1" style="stop-color:#FBC79D"/>
			</linearGradient>
			<path class="st22" d="M732.2,502.5c0,0,15.5-3.2,30.4,2.9c16.6,6.8,19.8,27.3,19.8,27.3c-0.6,3.9-1.5,7.7-2.9,11.2
				c-9,23.3-28.3,23.5-58.1,24.7c-2.6,0.1-11.1,0-15.8-3c-29.1-12.5-33-49.9-33-49.9L732.2,502.5z"/>
		</g>
		<g>
			<path class="st23" d="M707,1465c0,0-3.1,15.5-2.2,17c0.9,1.4,23.2,4.3,36.7,3.2c13.5-1.1,22.1-2.1,22.1-2.1l2.9-5
				c0,0,29.3,16.1,50.7,14.5c21.4-1.6,43.4-14,49.7-18.1c10.4-6.7,3.9-24.7-7.5-23c-11.4,1.8-52.8,20.8-65.9,15.4
				c-13.2-5.4-32.9-9.9-44.6-9C737.2,1458.8,707,1465,707,1465z"/>
			<path class="st24" d="M709.1,1413.4c0,0-5.5,26.8-4.7,35.6c0.9,8.9,2.6,15.9,2.6,15.9s12.6,1.2,27.6-0.3
				c15-1.5,26.1-2.6,35.7,1.4c9.6,4,36.7,13.8,50.2,13c19.7-1.2,35.8-10.3,42.2-16.1c6.5-5.8-3.3-11.4-3.3-11.4s-18.4,0.1-26.4-4.1
				c-8-4.2-69.4-40-69.4-40S742,1428.1,709.1,1413.4z"/>
			<g>
				<path class="st25" d="M807.2,1459c-11-4.8-20.9-12.5-32.2-16.2c-9-3-17.2-4.4-25.2-9.4c-4.2-2.6-6.5-5.1-9.3-9.5
					c-0.8-1.3-1.8-3-2.8-4.8c16.6-1.5,25.8-11.7,25.8-11.7c0,0,0,0,0,0c0.8,0.5,61.4,35.8,69.4,39.9c8,4.2,26.4,4.1,26.4,4.1
					s9.7,5.5,3.3,11.4C859.7,1465.6,819.5,1464.3,807.2,1459z"/>
			</g>
		</g>
		<g>
			<path class="st26" d="M767.2,638.7c4.9-1.4,36-1.1,40.3-1.1c-0.4,2.7-0.7,5.6-0.9,7.2c-0.9-1-2.3-2.1-4.2-2.6
				C798.6,641.1,761.8,640.2,767.2,638.7z"/>
		</g>
	</g>
	<path class="st8" d="M680.6,509.2c0.5-42.3,30.9-56,30.9-56l56.9,55.5c0,0-16.1,5.4-21.2,32.4c-3.3,17.5-5.8,62.4-6.6,84.8
		c-0.7,18.5-7.6,56.3-7.6,56.3c0.1,4.1,7.8,27.2,8.6,31.8c4.3,27.1,6.9,43.1,5.2,73.6c-1.5,27.1,3.5,68.8,3.5,68.8l-31.5,4.1
		c0,0-35-152.9-34.4-170.6C684.5,687.9,680,551.5,680.6,509.2z"/>
	<g>
		<path class="st14" d="M761.2,896c0,0,7.8,13.2,7.5,16.9c-0.3,3.8-3.7,16.6-3.7,16.6L761.2,896z"/>
		<path class="st8" d="M750.3,856.2c0,0,14.2,50.5,14.3,54.4c0.2,3.9,1.4,36.6,1.4,36.6l-11,32.7c0,0-4-2-3.2-9.3
			c0.9-7.8,5.1-25.5,4.6-27.3c-0.5-1.7-3.8-25.3-3.8-25.3l-1.2,25.3c0,0-5.6,24.6-6.7,28.6c-1.2,4-5.2,12.4-7.4,12.1
			c-2.2-0.4-2.6-9.1-2.4-13.4c0.3-4.4,3.7-31.1,3.7-31.1l-2.5-19.1l-3.8,27.2c0,0-2.2,21-2.9,23.7c-0.8,2.6-5.5,3.3-6.8-6.7
			c-1.3-10,0.7-27.9,0.5-32.7c-0.2-4.8-0.2-16.6-0.2-16.6s-3.5,17-3.7,22.2c-0.2,5.2-1.4,16.5-1.3,20.7c0.1,6.9-5.5,4.6-5.5,4.6
			l-2.3-24.3l3.3-35.5c0,0,0.1-13.2,0.6-24.6c0.4-11.4,4.8-23.2,4.8-23.2L750.3,856.2z"/>
		<g>
			<path class="st14" d="M745.2,943.8c4.4,0.6,6.3-0.4,6.3-0.4s-5.6,24.6-6.7,28.6c-1.2,4-5.2,12.4-7.4,12.1
				c-2.2-0.4-2.6-9.1-2.4-13.4c0.3-4.4,3.7-31.1,3.7-31.1S740.8,943.2,745.2,943.8z"/>
			<path class="st14" d="M727.1,943.4c2.8,1.5,6.2-1.7,6.2-1.7l0,0l-0.8,5.9c0,0-2.2,21-2.9,23.7c-0.8,2.6-5.5,3.3-6.8-6.7
				c-0.9-6.9-0.2-17.5,0.2-25C722.9,939.5,724.2,941.9,727.1,943.4z"/>
			<path class="st14" d="M751.9,970.7c0.7-6.5,3.9-21.4,4.6-27.3c2.4,1.5,6.9,4.1,9.5,3.8l-11,32.7
				C755.1,979.9,751.1,977.9,751.9,970.7z"/>
			<path class="st14" d="M719.1,938.8c-0.3,5.6-1.3,15.5-1.2,19.4c0.1,6.9-5.5,4.6-5.5,4.6l-2.3-24.3l0.1-1c1.7,1.1,3.3,2.1,4.1,2.2
				C716.4,940.2,719.1,938.8,719.1,938.8z"/>
		</g>
	</g>
</g>
<g>
	<path class="st8" d="M1554.8,389.8c0,0-4,47.3,0,57c4,9.7,10.7,13.7,10.7,13.7l-79.2,3.5l-17.2-1.9c0,0,14.1-5,20.2-13.4
		c11.2-15.2,2.8-84.8,2.8-84.8L1554.8,389.8z"/>
	<g>
		<path class="st14" d="M1554.8,390.2l-0.6-0.7l-45.5-25.5l-16.6,3.7c0,1.4,0.1,2.8,0.1,4.4l61,63.6
			C1552.5,419.5,1554.6,393.3,1554.8,390.2z"/>
	</g>
	
		<linearGradient id="SVGID_3_" gradientUnits="userSpaceOnUse" x1="2907.2981" y1="719.7115" x2="2822.4739" y2="662.7202" gradientTransform="matrix(-1 0 0 1 4399.6079 0)">
		<stop  offset="0" style="stop-color:#FFDCAE"/>
		<stop  offset="1" style="stop-color:#FBC79D"/>
	</linearGradient>
	<path class="st27" d="M1457.5,630.4c0,0,2.8,30.5,3.5,51c0.7,20.5-5.7,72.2-5.7,72.2s37,9.1,71,8.5c34-0.6,80.7-6.9,80.7-6.9
		s2.1-83.2,1.7-93.1C1608.3,652.3,1457.5,630.4,1457.5,630.4z"/>
	<g>
		<path class="st8" d="M1575.5,1144.3c0,0-10.9,66.9-18.8,160.9c-3.9,46.5-8.8,71.3-6.3,97.2c1.4,14.3,16.6,27.2,26.1,33.6
			c4.9,3.3-56,0.2-71-4.3c-15.1-4.5-2.1-6.8,3.1-34.5c7-37.1-33.6-200.1-6.2-250C1529.8,1097.4,1575.5,1144.3,1575.5,1144.3z"/>
		<g>
			
				<linearGradient id="SVGID_4_" gradientUnits="userSpaceOnUse" x1="2881.0649" y1="1228.2136" x2="2881.0649" y2="1142.2811" gradientTransform="matrix(1 0 0 1 -1326.1987 0)">
				<stop  offset="0" style="stop-color:#FFDCAE"/>
				<stop  offset="1" style="stop-color:#FBC79D"/>
			</linearGradient>
			<path class="st28" d="M1534.2,1124.3l9.9,27.3l15.8,117.8c7.4-74.7,15.5-125.1,15.5-125.1S1555.6,1123.9,1534.2,1124.3z"/>
		</g>
		<g>
			
				<linearGradient id="SVGID_5_" gradientUnits="userSpaceOnUse" x1="2859.7053" y1="943.0404" x2="2780.8645" y2="846.7245" gradientTransform="matrix(1 0 0 1 -1326.1987 0)">
				<stop  offset="0" style="stop-color:#3C1511"/>
				<stop  offset="1" style="stop-color:#4B2723"/>
			</linearGradient>
			<path class="st29" d="M1585.3,1098.4c0,0,15.5-104.8,19.4-152.1c1.5-17.9,2.8-40.1,3.9-57.6c4.8-74.7-5.1-115-5.1-115l-65.3-5.4
				l-70-4.6c0,0-24.9,16.3-22.2,66.7c2.7,50,40.3,91.7,40.3,91.7s7.1,80.7,10.4,111.3c3.3,30.6,13,83.7,8.8,95.1
				c-4.2,11.4-8.4,24.9-8.4,24.9s24.2-2.9,39.7,1.3c15.5,4.2,37.2,5.9,37.2,5.9s2.5-12.4,3.9-21.3
				C1578,1139.4,1589.1,1123.1,1585.3,1098.4z"/>
		</g>
		<g>
			<g>
				<path class="st30" d="M1496.4,1470.2c0,0-2.5,14.5-1.6,15.8c0.9,1.3,21.6,3.4,34.2,2.1c12.6-1.4,20.5-2.5,20.5-2.5l2.6-4.7
					c0,0,27.6,14.2,47.4,12.2c19.8-2,40-14.1,45.7-18c9.5-6.5,3-23-7.5-21.1c-10.6,1.9-48.5,20.6-60.8,15.9
					c-12.4-4.7-30.8-8.4-41.6-7.3C1524.3,1463.8,1496.4,1470.2,1496.4,1470.2z"/>
				<path class="st31" d="M1499.2,1422.3c0,0-8,12.2-6.3,32.4c0.7,8.2,3.4,15.5,3.4,15.5s11.8,0.8,25.6-1
					c13.9-1.8,24.2-3.1,33.1,0.4c9,3.5,34.4,12,46.9,10.8c18.2-1.6,33-10.4,38.8-16c5.9-5.5-3.3-10.5-3.3-10.5s-17.1,0.5-24.6-3.2
					c-7.6-3.7-58.4-37-58.4-37S1530.1,1435.2,1499.2,1422.3z"/>
				<g>
					<path class="st25" d="M1637.5,1454.1c0,0-17.1,0.5-24.6-3.2c-7.6-3.7-58.4-37-58.4-37s-2.1,4.1-10.5,7.8
						c6.4,5.8,15.6,13.4,24.1,17.9c14.9,7.9,34,10.6,39.3,16.2c4,4.3,15.4,8.2,33.5,8.6C1646.5,1458.9,1637.5,1454.1,1637.5,1454.1z
						"/>
				</g>
			</g>
		</g>
	</g>
	
		<linearGradient id="SVGID_6_" gradientUnits="userSpaceOnUse" x1="2844.0503" y1="842.0022" x2="2917.6392" y2="843.9388" gradientTransform="matrix(-1 0 0 1 4399.6079 0)">
		<stop  offset="0" style="stop-color:#3C1511"/>
		<stop  offset="1" style="stop-color:#4B2723"/>
	</linearGradient>
	<path class="st32" d="M1598.1,752c0,0-33,9.3-95.4,3.2c-39.4-3.9-47.4-9.2-47.4-9.2s-40.4,84.4-23.5,136.9
		c15.9,49.4,40.6,56.6,68.7,59.1C1528.5,944.5,1598.1,752,1598.1,752z"/>
	<path class="st8" d="M1554.7,449.2c0,0,33.4-4.8,54.7,20.9c21.3,25.7,101.5,141.2,101.5,141.2l-33.9,19.2c0,0-58.6-67.3-70.1-81
		C1595.5,535.8,1554.7,449.2,1554.7,449.2z"/>
	
		<linearGradient id="SVGID_7_" gradientUnits="userSpaceOnUse" x1="1775.0222" y1="721.2538" x2="1868.3789" y2="692.6445" gradientTransform="matrix(0.9959 9.010000e-02 -9.010000e-02 0.9959 40.4738 -200.2171)">
		<stop  offset="0" style="stop-color:#FFDCAE"/>
		<stop  offset="1" style="stop-color:#FBC79D"/>
	</linearGradient>
	<path class="st33" d="M1705.3,606.4c15.3,5.5,42.9,43.4,62,65.9c19.1,22.5,23.1,28.1,26.4,36.6c5.7,14.5,3.5,56.7-13.1,46.1
		c-16.6-10.7-90.3-96.4-100.5-115.8c-7.9-14.8-2.3-35.1-2.3-35.1S1690,600.9,1705.3,606.4z"/>
	
		<linearGradient id="SVGID_8_" gradientUnits="userSpaceOnUse" x1="2682.1912" y1="840.1398" x2="2737.4153" y2="819.3755" gradientTransform="matrix(-1 0 0 1 4399.6079 0)">
		<stop  offset="0" style="stop-color:#3C1511"/>
		<stop  offset="1" style="stop-color:#4B2723"/>
	</linearGradient>
	<path class="st34" d="M1504.8,814.4c0,0,186.8-142.2,220.5-152.3c33.7-10.1,28.9,46.7,31,56.2c2.1,9.5-54.5,69.3-106.2,132.1
		c-51.7,62.8-106.4,91.5-137.4,92.1c-22.2,0.4-60.1-5.7-77.4-57.9C1435.3,884.7,1463.6,845.3,1504.8,814.4z"/>
	<g>
		<path class="st8" d="M1756.1,962.7c0,0,3.9-22.8-2.2-40c-12.7-35.9-29.8-93.5-38.2-124.4c-10.6-39-9-49-4.5-70.1
			c3.5-16.6,25.4-55.9,25.4-55.9L1780,743c0,0,5.8,116.9,11.4,144.3c5.5,27.4,6,75.9,11.5,83c5.5,7.1,0.1,17.2-12.4,23
			C1777.4,999.4,1756.1,962.7,1756.1,962.7z"/>
		<linearGradient id="SVGID_9_" gradientUnits="userSpaceOnUse" x1="1689.5985" y1="900.2565" x2="1735.1031" y2="784.9485">
			<stop  offset="0" style="stop-color:#FFDCAE"/>
			<stop  offset="1" style="stop-color:#FBC79D"/>
		</linearGradient>
		<path class="st35" d="M1742.5,840.7c-8.3-56.1,13.8-107.2,13.8-107.2s-21.1-22-34.5-32.3c-4.7,10-9.1,20.3-10.6,27
			c-4.5,21.2-6.1,31.1,4.5,70.1c5.9,21.8,16.2,57,26.2,88.5C1744.4,874.7,1745.3,859.3,1742.5,840.7z"/>
		<g>
			<path class="st31" d="M1852.9,1093.2c0,0,12.1-8.2,8.6-16c-3.5-7.8-13.6-22-16.8-27c-3.2-5.1-15.3-30.3-17.1-39.7
				c-1.9-9.4-11.4-34.2-13.3-36.3c-1.9-2.1-8-8.1-11.9-7.3c-3.8,0.8-7.4,12.3-14.2,14.1c-13.8,3.6-26.3-11.9-27.8-15.9
				c-1.5-4-5.8-7.6-5.8-7.6s-7.7-0.4-16.8,5.7c-5.9,3.9-14.3,14.4-20.4,21.2c-3.5,3.9-5.9,7-5.8,8.3c0.1,3.7,20.5,23,29.4,27
				c8.9,4,16.1,2.5,22.6,10.6c6.5,8.1,28,33.6,39.5,41.4C1814.7,1079.5,1836.7,1098.1,1852.9,1093.2z"/>
			<g>
				<path class="st25" d="M1838.3,1074.8c-4.2-3.2-8.1-6.5-12-9.9c-3.5-3.1-9.1-6.6-10-11.6c-0.3-1.5,0.3-1.9,0.3-3.2
					c-0.1-1.7-1.2-3.2-1.7-4.7c-1.9-4.9-3.4-10.6-3.9-15.7c-0.3-3.7-0.2-5.6-2.1-8.6c-3.2-5-4.8-12.4-9.5-16.1
					c-1.9-1.5-3.9-2.9-5.7-4.4c-4.5-3.7-6.4-8.4-8.6-13.7c-0.7-1.8-1.5-3.7-2.3-5.5c1.8,0.1,3.6,0,5.5-0.5
					c6.9-1.8,10.4-13.4,14.2-14.1c3.8-0.8,9.6,4.1,11.5,6.3c1.9,2.1,11.8,27.9,13.7,37.4c1.9,9.4,15.2,34,18.4,39.1
					c3.2,5.1,12,19.9,15.5,27.7c0.2,0.4,0.3,0.8,0.4,1.2c0,0.2,0.1,0.3,0.1,0.5c0.1,0.3,0.1,0.6,0.1,0.8c0,0.1,0,0.3,0,0.4
					c0,1.8-0.7,3.5-1.6,5.1c-5.9-2-13.4-4.6-14.6-5.2C1843.2,1078.7,1840.7,1076.7,1838.3,1074.8z"/>
			</g>
			<g>
				<path class="st36" d="M1749.8,1011.2c8.2,2.8,15.4,8.2,22.3,16.8c6.8,8.7,14.7,19.1,26.6,29.2c11.9,10.1,35.3,21,43.3,23.3
					c7.9,2.3,16.6-2.4,20-1.7c2.3,7.5-9.1,17.3-9.1,17.3c-16.1,4.9-38.7-15-50.2-22.6c-11.4-7.6-32.8-32.8-39.3-40.9
					c-6.4-8-14.2-7.7-23-11.7c-8.8-3.9-28.6-24.4-29.2-28c-0.3-1.6,2.5-6.1,6.1-8.7C1722,995.1,1742.7,1008.8,1749.8,1011.2z"/>
			</g>
		</g>
		<path class="st12" d="M1703.5,740.3c1.1,11.2,3.6,21.8,3.6,21.8s9.7,1.8,48.8-7.7c14.4-3.5,26.5-7.5,26.5-7.5s-4.4-20.2-4.7-28.4
			c0,0,1.7-12.4-6.1-34c0,0-7.8-24.5-33.5-24.8C1703.2,659.1,1700.4,709.2,1703.5,740.3z"/>
	</g>
	<g>
		<g>
			<path class="st4" d="M1437.7,284.8c8.8-12.8,20.6-11.2,26.3-7.2c-0.7,1.8-11,14.1-11.4,16.4c-6.3,27.3,4.5,26.2,17.3,20.7
				c1.7,13.5,4.6,32.1,9.9,57.3c8.6,41.7-10.3,82.8-27.6,106.5c0.1-33.2-12.8-83.2-16.8-105.9
				C1429.2,337.8,1425.7,302.3,1437.7,284.8z"/>
		</g>
		<g>
			<path class="st5" d="M1435.4,372.7c-6.2-34.9-9.6-70.4,2.3-87.9c8.8-12.8,20.6-11.2,26.3-7.2c-0.3,0.7-2.2,3.3-4.4,6.1
				c-4.9,0.2-9.6,1.4-11.5,4.6c-4.7,8.1-12.7,28.9-2.7,60.7c19.2,61.2,12.5,121.5,6.7,129.5C1452.3,445.3,1439.4,395.3,1435.4,372.7
				z"/>
		</g>
	</g>
	
		<linearGradient id="SVGID_10_" gradientUnits="userSpaceOnUse" x1="2915.9478" y1="538.091" x2="2890.1028" y2="617.9451" gradientTransform="matrix(-1 0 0 1 4399.6079 0)">
		<stop  offset="0" style="stop-color:#FFDCAE"/>
		<stop  offset="1" style="stop-color:#FBC79D"/>
	</linearGradient>
	<path class="st37" d="M1451.5,603.2c0,0-20.6-83.3-15.7-104s16.4-34.2,33.8-32.5c17.4,1.8,61.6,60.1,70.2,80.8
		c8.6,20.6,2,45.1-10.6,55.7c-12.6,10.6-45.7,17.4-57,16C1461,617.8,1451.5,603.2,1451.5,603.2z"/>
	<linearGradient id="SVGID_11_" gradientUnits="userSpaceOnUse" x1="1532.3411" y1="486.6471" x2="1564.7725" y2="601.8641">
		<stop  offset="0" style="stop-color:#FFDCAE"/>
		<stop  offset="1" style="stop-color:#FBBE8E"/>
	</linearGradient>
	<path class="st38" d="M1561,448.8c0,0,37.8,32.5,47.7,63.6c9.9,31.1,0,47.1-24.5,48.4c-24.5,1.3-48-25.5-59.3-40.1
		c-11.3-14.6-31.8-44.3-45.2-49.2c-13.4-4.9-22.2-4.9-22.2-4.9s9-2.7,26.2-5.6C1500.9,458.1,1561,448.8,1561,448.8z"/>
	<g>
		<path class="st13" d="M1506.8,494c0,0,31.6,2.8,29.1,3.6c-2.6,0.8-28.5-0.3-28.5-0.3L1506.8,494z"/>
		<path class="st13" d="M1577.6,459.3c0,0-8.6,30-7.1,27.7c1.5-2.2,10-25.3,10-25.3L1577.6,459.3z"/>
	</g>
	<path class="st39" d="M1606.5,499.4c0,0,11.9,25.2,17.2,36.7c5.3,11.5,19.9,40.6,20.3,57.9c0.4,17.2-28.3,42.4-30.9,53.5
		s-2.6,20.3-2.6,20.3s-33.1,4-83.9-2.7c-50.8-6.6-69.1-17.5-69.1-17.5l-6-44.4c0,0,33.6,14.1,59.6,4c26.1-10.2,31.4-42.9,18.6-68
		c-12.8-25.2-45.5-62.9-55.7-67.7c-10.2-4.8-22.5,0-22.5,0l10.2-8.3c0,0,10.4-6.2,22.1,2.7c9.2,7,53,61.4,58.8,70.2
		c5.7,8.8,25.2,19,41.1,16.3c15.9-2.7,23.9-18.3,22.5-27.2c-1.3-8.8-11.7-34.2-21.6-47.1c-16.5-21.2-27.8-29.2-27.8-29.2l10.7-0.2
		C1567.3,448.8,1580.6,451.5,1606.5,499.4z"/>
	<g>
		<linearGradient id="SVGID_12_" gradientUnits="userSpaceOnUse" x1="1561.6335" y1="665.6201" x2="1562.9589" y2="637.7872">
			<stop  offset="0" style="stop-color:#F49021"/>
			<stop  offset="1" style="stop-color:#DE8027"/>
		</linearGradient>
		<path class="st40" d="M1612.5,634.2c-12.8-2.4-13.7-1.5-21.4,0.3c-7.7,1.8-16.1,9.8-38.7,5.1c-15.9-3.3-34.8,12.9-49.2,21.8
			c6.9,1.3,14.6,2.6,23.4,3.7c50.8,6.6,83.9,2.7,83.9,2.7s0-9.3,2.6-20.3c0.8-3.5,4.3-8.5,8.7-14.2
			C1619.1,634.3,1615.9,634.9,1612.5,634.2z"/>
	</g>
	<g>
		<path class="st41" d="M1467.9,284.1c0,0-0.1-0.1-0.2-0.2c0.5-0.8,0.9-1.5,1.3-2.2c2.3-0.1,4.5,0.1,6.2,0.7l-3.9-7.5l15.8,30
			c0,0-8.2,5.9-17.2,9.8C1467.1,292.1,1467.9,284.1,1467.9,284.1z"/>
		<path class="st41" d="M1448.9,294c0.5-2.3,1.1-4.3,1.9-6.1c4.8-0.6,9.8,0.1,14.3,1.3c0.7-1.5,1.7-3.5,2.7-5.2
			c0.1,0.1,0.2,0.2,0.2,0.2s-0.9,8,1.9,30.6C1457,320.2,1442.6,321.2,1448.9,294z"/>
		<path class="st41" d="M1469.1,281.7c-0.4,0.6-0.8,1.4-1.3,2.2c-0.3-0.3-1.1-1-2.3-1.8C1466.7,281.9,1467.9,281.8,1469.1,281.7z"/>
		<path class="st41" d="M1453,283.4c-0.3,0.4-0.6,0.9-0.8,1.4C1452.5,284.4,1452.7,283.9,1453,283.4z"/>
		<path class="st41" d="M1455.6,280.2c0.4-0.4,0.8-0.8,1.2-1.1h0C1456.4,279.5,1456,279.8,1455.6,280.2z"/>
		<path class="st41" d="M1467.8,283.9c-1,1.7-2.1,3.7-2.7,5.2c-4.4-1.2-9.4-1.9-14.3-1.3c0.3-0.9,0.7-1.7,1.1-2.4
			c3.8-1.3,8.9-2.7,13.6-3.4C1466.7,282.8,1467.5,283.6,1467.8,283.9z"/>
		<path class="st41" d="M1454.5,281.3c-0.3,0.3-0.6,0.7-0.8,1.1C1454,282.1,1454.3,281.7,1454.5,281.3z"/>
		<path class="st42" d="M1455.6,280.2c-0.3,0.3-0.7,0.7-1,1.1C1454.9,280.9,1455.2,280.6,1455.6,280.2z"/>
		<path class="st42" d="M1453.7,282.5c-0.2,0.3-0.5,0.6-0.7,1C1453.2,283.1,1453.5,282.8,1453.7,282.5z"/>
		<path class="st42" d="M1451.8,285.4c0.1-0.2,0.2-0.4,0.3-0.6C1452.1,285,1452,285.2,1451.8,285.4
			C1451.9,285.4,1451.9,285.4,1451.8,285.4z"/>
		<path class="st42" d="M1469.1,281.7c0.7-1.2,1.2-2,1.2-2s-2.2-2.3-6.2-4.4c0.3-0.1,0.6-0.1,0.9-0.2c0.2,0,0.3-0.1,0.5-0.1
			c0.5-0.1,1-0.1,1.4-0.2c0.2,0,0.3,0,0.5,0c0.3,0,0.6,0,0.8,0c0.2,0,0.3,0,0.5,0c0.2,0,0.4,0,0.6,0c0.1,0,0.3,0,0.4,0
			c0.2,0,0.4,0,0.5,0c0.1,0,0.2,0,0.3,0c0.1,0,0.3,0,0.4,0c0,0,0.1,0,0.1,0c0.1,0,0.2,0,0.2,0l3.9,7.5
			C1473.5,281.8,1471.4,281.6,1469.1,281.7z"/>
		<path class="st42" d="M1456.8,279.1C1456.8,279.1,1456.8,279.1,1456.8,279.1c0.4-0.3,0.7-0.6,1.1-0.9c0.3-0.2,0.5-0.4,0.8-0.5
			c0.3-0.2,0.6-0.4,1-0.6c0.3-0.2,0.5-0.3,0.8-0.4c0.3-0.2,0.7-0.3,1-0.4c0.3-0.1,0.5-0.2,0.8-0.3c0.3-0.1,0.7-0.2,1-0.3
			c0.2-0.1,0.5-0.1,0.7-0.2c0.1,0,0.1,0,0.2,0c4,2,6.2,4.4,6.2,4.4s-0.5,0.8-1.2,2c-1.2,0-2.3,0.2-3.6,0.3
			C1463.6,280.8,1460.7,279.4,1456.8,279.1z"/>
		<path class="st42" d="M1456.8,279.1c3.9,0.3,6.8,1.7,8.7,2.9c-4.7,0.7-9.8,2.1-13.6,3.4c0.1-0.2,0.2-0.4,0.3-0.6
			c0.3-0.5,0.5-1,0.8-1.4c0.2-0.3,0.5-0.7,0.7-1c0.3-0.4,0.6-0.8,0.8-1.1c0.3-0.4,0.7-0.7,1-1.1
			C1456,279.8,1456.4,279.5,1456.8,279.1z"/>
		<path class="st43" d="M1608.8,295.3c0,0-0.5,1.5-5.2,1.4c-4.7-0.1-20.8,2.9-30.9,10.9c-10.1,8-25.5,21.5-25.5,21.5
			s21.1-29,38.2-33.9C1602.7,290.2,1608.8,295.3,1608.8,295.3z"/>
		<g>
			<polygon class="st14" points="1491.1,377.2 1491.1,377.2 1491.1,377.2 			"/>
		</g>
		<g>
			<path class="st8" d="M1548.7,328.8c22.9-28.3,46.1-35.3,52.6-33.7c8.1,2,8.4-0.5,8.2-1.5c2.6,8.7,4.1,22,3.8,32.3
				c-0.2,5.3-0.9,8.4-1.5,10.5c-1.4,4.4-2.5,4.9,1.4,13.8c5.9,13.1,11,19.9,10.2,22.8c-0.8,2.8-8.8,3.9-8.8,3.9s-0.3,3.4-1.8,8.4
				l0.9,2c0,0,0.6,3.4,0.7,5c0.1,1.6-1.5,3-1.5,3s-9.1,2-12.8,2.9c-4.8,1.2,11.1,0,12,1.6c0.8,1.5,1.6,2.2-1.2,4.1
				c-2.8,1.9-5,6.1-5.5,7c-0.5,1-3.2,15.9-3.5,17.7c-2.4,13.3-47.6-1.7-64.8-17.3c-9.1-13.4-18.3-30.8-18.3-30.8
				c3.2-5.2,1.5-8.8,2.3-16.2c3.2-5.6,11.5-14.9,14.8-21.9C1539.5,334.9,1543.8,334.5,1548.7,328.8z"/>
		</g>
		<path class="st5" d="M1534.2,350.4c3.9-5.6,9.7-11.3,13.9-19.1c3.3-6,6.4-10,10.7-14.5c20.2-22.3,40.4-24,45.7-22.4
			c8.1,2.5,6.8-1.2,6.8-1.2s-16.5-43.4-64.4-48.8c-44.8-5.1-70.2,14.6-85.2,43.6c-24.9,48.3,33.1,109.6,33.1,109.6
			S1515.6,377.2,1534.2,350.4z"/>
		<path class="st44" d="M1514.7,327.1c-0.4-3.7-6-5.2-6.6-9c4.4-1.9,9.7,1.3,14.2-0.4c-1.1-2.8-5.1-4-7.6-5.2c-2-1-3.6-2.4-5.5-3.5
			c-1.1-0.7-3-0.9-3.4-2.3c1-0.4,2.8,0,3.9,0.1c3.1,0.3,6.2,0.9,9.2,1.7c3.9,0.9,7.5,2.6,11.2,4c3.4,1.2,7.6,3.1,11.1,3.3l-0.6,0.4
			c0.8-0.1,2.5,0.6,2.8,1.4c0.5,1.5-0.8,1.4-1.7,1.9c-2.5,1.4-5,2.1-7.7,3.1c1,2.3,4.8,3.5,6.4,5.2c-1.6,0.6-8.4,1.8-8.5,3.4
			c-0.1,1.6,3.5,3.1,3.8,4.7c-6,0.4-11.8-0.1-17.6-1.5c-2.7-0.7-5.3-1.5-8-2.2c-1.2-0.3-4.2-0.4-4.4-1.8
			C1508.8,329.2,1511.7,328.2,1514.7,327.1z"/>
		<g>
			<path class="st44" d="M1544.9,294.1c-1-3.1-5.1-4.1-5.5-7.2c2.9,0.5,6.6,3.3,9.8,2.2c-1.5-7.8-14.2-7.5-16.2-14.3
				c6.1-1.9,15.9,0.1,21.9,2.5c4.8,2,13.7,12.8,18.9,10.6c-0.8-3.5-4.8-6.5-7.3-9c-2.4-2.4-7.2-4.8-8.6-7.7c2.7-1,4.7,2.3,4.2-1.8
				c-0.3-2.3-2.3-3.9-2.7-6.3c2.5-0.4,8.5,3.1,8.1-0.5c-0.5-3.6-7.2-4.3-8.6-6.9c7.8-0.7,16,2.3,22.1,7.3c7,5.8,18.2,14.5,21,23.8
				c-4.2-3.3-10.4-10.3-15.6-8.8c0.5,4.1,6.9,6.3,6.7,10.5c-2.8-0.9-6.5-3.8-9.5-3.1c-4.1,0.9-0.1,5.5-1.4,7
				c-1.3,1.5-15.3-0.2-13.9,3c-4,2.3-9.8-0.3-14.3,1.5c1.3,4.6,2.1,6.7-3.7,5.9c-5.3-0.7-12.5-3.9-16.2-8.1
				C1537.2,293.3,1541.5,295.5,1544.9,294.1z"/>
		</g>
		<g>
			<path class="st16" d="M1613.8,390.8c-0.1-1.4-2.6-5-2.6-5l-0.3-8.6l3.7-0.3c0,0-0.3,3.4-1.8,8.4l0.9,2c0,0,0.3,1.5,0.5,3
				C1614,391,1613.8,391.3,1613.8,390.8z"/>
		</g>
		<path class="st16" d="M1608.1,377.4c0,0-2-2.6-0.3-5c1.7-2.4,3.4-3.9,3.4-3.9s-6.9,0-6.6,3.5
			C1604.9,375.1,1608.1,377.4,1608.1,377.4z"/>
		<g>
			<g>
				<path class="st43" d="M1585.7,340.6c-3.3,2.9-5,6.7-5,6.7s8.6,5.5,14.5,4.4c6-1,6.9-2.8,6.9-2.8s-0.2-4.8,0.8-8.7
					c0.1,0.1,0.1,0.2,0.2,0.4c0.5,2,1,9.8,1,9.8s-1.3,1.8-9.1,2.9c-7.8,1.1-16.6-8.2-16.6-8.2S1579.9,342.6,1585.7,340.6z"/>
			</g>
			<g>
				<g>
					<path class="st5" d="M1604.2,353.2c0.2-0.2-0.1-2.7-0.1-2.7c-2.4,0.6-6.8,1.4-12.6,0.4c-9-1.5-13.1-5.8-13.1-5.8
						s4.8,7.2,15.3,9.1C1599.4,355.4,1602.5,354.5,1604.2,353.2z"/>
				</g>
			</g>
			<g>
				<path class="st5" d="M1610,335.2c0,0-3.8,0.4-8-0.7c-4.2-1.1-15.4-4.6-18.2-4.5c-2.9,0.1-10.6,1.4-10.6,1.4s4.7-2.3,9-2.7
					c4.3-0.4,19.5,0.4,24.8,1.6C1612.3,331.5,1611.1,334.2,1610,335.2z"/>
			</g>
		</g>
		<path class="st45" d="M1614,393.9c0,0-1.1-1.7-2.8-1.5c-1.7,0.2-12.2,6.2-12.2,6.2l13.9-2C1612.9,396.6,1614.3,394.3,1614,393.9z"
			/>
		<path class="st46" d="M1612.2,402.1c0,0-4.2-0.4-6.7-1.1c-2.5-0.7-6.5-2.3-6.5-2.3s10.3-2,12.9-0.1
			C1612.8,399.2,1613.8,401.6,1612.2,402.1z"/>
		<path class="st14" d="M1576.2,431c0,0-23.3-5.5-34-13.3c-10.7-7.8-23.5-37.8-23.5-37.8s22.5,34.3,24.9,36.6
			C1546,418.9,1576.2,431,1576.2,431z"/>
		<g>
			<path class="st8" d="M1525.7,379.6c0,0-4,2.2-6.9,0.6c-3.2-1.8-7.5-4.6-13.5-16c-6-11.4,3-17.4,4.8-18.2
				c1.8-0.8,12.3,1.3,16.3,19.3"/>
			<path class="st19" d="M1513.7,355.9c0,0,0.7,7,0.1,8.3c-1.4,2.8,1.6,4.8,1.6,4.8s0.9-2.4,0.7-3.3
				C1515.9,364.9,1513.7,355.9,1513.7,355.9z"/>
			<path class="st19" d="M1521.4,375.6c-0.8-0.3-7.3-4.8-6.4-6.8c0.1-0.2,0.2-0.4,0.3-0.6c0.6-1.2,0.7-1.5,0-3.8
				c-0.2-0.7-0.5-1.9-0.9-3.4c-0.9-3.4-2.1-8.3-3.3-8.4c-0.4-0.1-0.9,0.2-1.4,0.7c-1.2,1.1-2.3,3.4-1.7,5.9c0.8,3.6,2.7,4.2,2.7,4.2
				c0,0-2.6-0.4-3.4-4c-0.6-2.7,0.5-5.2,1.9-6.5c0.7-0.6,1.5-0.9,2.1-0.9c1.3,0.1,1.9,1.1,3.8,8.8c0.4,1.4,0.7,2.7,0.9,3.4
				c0.8,2.4,0.6,2.9,0,4.2c-0.1,0.2-0.2,0.4-0.3,0.6c-0.5,1.1,2.8,3.2,4.8,4.2L1521.4,375.6z"/>
		</g>
	</g>
	<path class="st8" d="M1547.7,733.5c0,0-68.5-115.2-84.1-140.8c-20.8-34.2-40.3-78.1-20.7-113.1c20.5-36.7,49.9,7.4,55.8,20
		c5.9,12.6,94.9,202,94.9,202"/>
	<g>
		<g>
			<path class="st8" d="M1789.5,711.3c-0.6-4.1-4.7-4.4-8.6-3.1c-11.9,4.1-32.4,10.7-38.2,13.9c-5.8,3.1-16.2,8.6-16.7,12.9
				c-0.2,2.1,5.2,2.5,7.4,1.8c0.9-0.3,2-0.7,3.2-1c-6.1,2-13.2,3.9-13.7,7.6c-0.3,2,4.2,6,14.4,4.4c-6.6,3-4.6,5.7-1.5,7.1
				c4.5,2,28.8,2.3,28.8,2.3s-3.3,1.7-3.7,2.9c-0.4,1.1,2.5,4.4,9.5,4.9c2.7,0.2,2.6,0.3,6.8-0.1c5.7-0.5,11.8-0.2,17.1-2.5
				c1.9-0.8,3.5-2.7,3.3-4.8c-0.2-2.7-2.5-3.7-2.8-6.4c-0.1-0.9,2-4,1.7-6.1c-0.8-4.9-4.6-4.3-5-7.7c-0.4-3.2,2.6-4.2,2.2-7.4
				c-0.4-3.1-4.1-5-5-7.9c-0.9-2.8,0.8-5.7,1.1-8.6C1789.6,712.5,1789.6,711.8,1789.5,711.3z"/>
			<g>
				
					<linearGradient id="SVGID_13_" gradientUnits="userSpaceOnUse" x1="1667.3693" y1="652.7604" x2="1719.9315" y2="652.7604" gradientTransform="matrix(0.9855 -0.1695 0.1695 0.9855 -30.2814 387.3853)">
					<stop  offset="0" style="stop-color:#FFDCAE"/>
					<stop  offset="1" style="stop-color:#FBC79D"/>
				</linearGradient>
				<path class="st47" d="M1776.4,759.1c-0.2-3.4,1.5-4.5,1.5-4.5l-12.4,1.3c0,0-2.5-1.6-3-5.7c-0.5-4.1,1.6-6.8,1.6-6.8
					s-2.5-2.4-3.3-6.3c-0.7-3.9,1.9-8.6,1.9-8.6s-6.2-3.5-6.9-7.2c-0.3-1.6,0.7-3.6,1.8-5.4c-6.7,2.4-12.5,4.6-15.2,6
					c-5.8,3.1-16.2,8.6-16.7,12.9c-0.2,1.9,4.5,2.5,6.9,2c1.2-0.4,2.5-0.8,3.7-1.2c-1.2,0.4-2.3,0.7-3.2,1c-0.2,0-0.3,0.1-0.5,0.1
					c-5,1.6-9.6,3.4-10.1,6.4c-0.3,2,4.2,6,14.4,4.4c-6.6,3-4.6,5.7-1.5,7.1c4.5,2,28.8,2.3,28.8,2.3s-3.3,1.7-3.7,2.9
					c-0.4,1.1,2.5,4.2,9.5,4.9c2.6,0.3,2.6,0.3,6.8-0.1c0.9-0.1,1.9-0.1,2.8-0.1C1778.1,762.9,1776.5,760.8,1776.4,759.1z"/>
			</g>
			<path class="st48" d="M1778.4,725.2c-1.8,1.1-3.3,1.8-14.5,5c-11.2,3.1-21.9,5.1-27.1,5.7c0,0,15-3.5,26.1-7.3
				c11.1-3.8,20.4-6.4,20.5-6.4C1783.3,722.2,1780.2,724.1,1778.4,725.2z"/>
			<path class="st48" d="M1761.9,745.5c-9.2,2.2-24.7,2.1-24.7,2.1c0,0,13.7-1.2,22.9-3.7c6.5-1.8,14.7-3.9,17.3-4.3
				c1.4-0.2,7.9-2,8.4-0.2C1785.7,739.6,1769.7,743.6,1761.9,745.5z"/>
			<path class="st48" d="M1793.7,752.6c-0.1,0-10.3,1.8-15.8,2.9l-13.5,1.5l12.7-2.8c5.6-1.1,12.4-2.3,12.5-2.3L1793.7,752.6z"/>
		</g>
	</g>
	<g>
		<g>
			
				<linearGradient id="SVGID_14_" gradientUnits="userSpaceOnUse" x1="1728.4644" y1="763.9315" x2="1711.3204" y2="741.1829" gradientTransform="matrix(0.9984 -5.580000e-02 5.580000e-02 0.9984 -18.8178 125.6051)">
				<stop  offset="0" style="stop-color:#FFDCAE"/>
				<stop  offset="1" style="stop-color:#FBC79D"/>
			</linearGradient>
			<path class="st49" d="M1793.2,788.6c0.8-4.9-3.7-8.9-11.8-8.6c-7.7,0.3-11.9,0.4-11.9,0.4s10.5-1.4,13-4.6
				c2.6-3.1,0.5-8.6-1.8-9.4c-2.3-0.8-12.1,0.6-17.6,1.7c-5.3,1-20.3,1.5-25.2,4.6c-4.8,3.2-15.8,16.6-18.8,28.8
				c0,0-0.5,18,4.5,22.6c5,4.5,6,7.7,17.9,10c18.6,3.6,47.3-0.7,48.4-2.4c3.4-5.4-0.4-9.5-0.4-9.5s1.8-0.7,2.4-5.5
				c0.5-4.8-2.1-7.1-2.1-7.1s3.1-1.8,2.8-8.2c-0.3-5.4-4.5-6.6-4.5-6.6S1792.3,793.4,1793.2,788.6z"/>
			<g>
				<path class="st48" d="M1790.6,810.3c-0.3-0.5-0.6-0.7-0.6-0.7s0.9-0.6,1.7-2.1c-2.7,1.4-7.2,3.6-7.2,3.6
					S1787.9,810.8,1790.6,810.3z"/>
				<path class="st48" d="M1791.8,817.9c-0.8,1.2-1.6,2.2-2.2,2.5c-2,1.3-4.7,2.2-4.7,2.2s2.6,0.9,5.6,1.1c-0.5-1-1-1.5-1-1.5
					S1791.1,821.6,1791.8,817.9z"/>
				<path class="st48" d="M1783.4,794c0,0,2.9,0.4,5.7,1c-0.5-0.2-0.8-0.3-0.8-0.3s2.6-0.8,4-3.6c-1,0.7-2.4,1.4-4,1.8
					C1784.6,793.9,1783.4,794,1783.4,794z"/>
			</g>
			<g>
				<path class="st48" d="M1778,776.8c-4.5,2-11.4,4.2-11.4,4.2l2.9-0.6c0,0,10.5-1.4,13-4.6c0.8-1,1.1-2.2,1.1-3.4
					C1782.6,773.9,1780.9,775.5,1778,776.8z"/>
			</g>
		</g>
		<path class="st8" d="M1588.7,698.4c0,0,62.5,33.9,87,51.3c27.9,19.9,71.8,46.9,73.6,52.1c1.7,5.1-2.1,26.3-21.6,21.9
			c-19.5-4.5-130.8-52.3-151.4-64.8c-20.7-12.5-32.5-32-32.5-32"/>
	</g>
</g>
</svg>
