<?xml version="1.0" encoding="utf-8"?>
<!-- Generator: Adobe Illustrator 21.1.0, SVG Export Plug-In . SVG Version: 6.00 Build 0)  -->
<svg version="1.1" id="layer1" xmlns="http://www.w3.org/2000/svg" xmlns:xlink="http://www.w3.org/1999/xlink" x="0px" y="0px"
	 viewBox="0 0 3107.4 2160" style="enable-background:new 0 0 3107.4 2160;" xml:space="preserve">
<style type="text/css">
	.Arched_x0020_Green{fill:url(#SVGID_1_);stroke:#FFFFFF;stroke-width:0.25;stroke-miterlimit:1;}
	.st0{fill:#FFFFFF;}
	.st1{opacity:0.78;fill:#D1D3D4;}
	.st2{fill:#EEAF86;}
	.st3{fill:#371914;}
	.st4{fill:#EEE9DF;}
	.st5{fill:#D97263;}
	.st6{fill:#D7625E;}
	.st7{fill:#FCC79E;}
	.st8{fill:#4B2B22;}
	.st9{fill:#55392D;}
	.st10{fill:#FFDCAE;}
	.st11{fill:#F7941D;}
	.st12{fill:#EA871D;}
	.st13{fill:#E2831B;}
	.st14{fill:#3F1D18;}
	.st15{fill:#FCBF91;}
	.st16{fill:#4E9DD6;}
	.st17{fill:#6AB2E2;}
	.st18{fill:#A97C50;}
	.st19{fill:#FCC59D;}
	.st20{fill:#F69B95;}
	.st21{fill:#E8978E;}
	.st22{fill:#F1A97A;}
	.st23{fill:#FBB98F;}
	.st24{fill:url(#SVGID_2_);}
	.st25{fill:#3F130E;}
</style>
<linearGradient id="SVGID_1_" gradientUnits="userSpaceOnUse" x1="664.4464" y1="1788.7832" x2="665.1534" y2="1788.076">
	<stop  offset="0" style="stop-color:#20AC4B"/>
	<stop  offset="0.9831" style="stop-color:#19361A"/>
</linearGradient>
<rect x="0" y="0" class="st0" width="3107.4" height="2160"/>
<g>
	<path class="st1" d="M810.5,1979c-15.2,59.5,79.6,54.9,163.1,54.9c83.5,0,71.2-37.5,71.2-97.6c0-60.1-14.6-125.3-98.1-125.3
		C863.2,1811,825.4,1920.8,810.5,1979z"/>
	<g>
		<path class="st2" d="M971.1,1461.9c0,0-14,112.8-36.6,207.2c-21.7,90.7-10.5,108.2-4.7,111.8c5.8,3.5-15.7,32.2-33.6,34.9
			c-23.4,3.5-32.8-6.7-26.8-38.5c8.1-42.7-5-247.1,26.5-304.4C927.4,1415.6,971.1,1461.9,971.1,1461.9z"/>
		<path class="st3" d="M932.2,1419.3c-22.5-1.2-39.4,23.4-43.4,45.5c-3.9,21.4-4.2,42.2-4.2,42.2s13.2-0.9,33.7,4.6
			c20.4,5.6,44.6,7.8,44.6,7.8s3.9-14.1,10-45.3C979.2,1442.3,954.7,1420.6,932.2,1419.3z"/>
	</g>
	<g>
		<path class="st3" d="M986.8,1202.6c-3.9-55.3-3.3-63-7.7-98.9c-8.7-70.5-108.7-60.2-122.7-6.6c-7.6,29.4,0.9,93.8,10.7,145.2
			c9.8,51.4,8.1,57.2,12.8,91.3c4.3,31,10.3,82.3,16.2,108.6c7.2,27.2,18.2,44.1,44.9,41.1c25.7-2.9,38.9-10.3,41.9-39.1
			C989.6,1380.5,991,1261.8,986.8,1202.6z"/>
	</g>
	<g>
		<g>
			<path class="st4" d="M858.3,1852.7c0,0-4.3,19.3-3.2,21.1c1.1,1.8,28.8,6,45.7,5c16.9-1,27.6-2,27.6-2l3.7-6.1
				c0,0,36.1,20.9,62.8,19.5c26.7-1.4,54.6-16.3,62.5-21.1c13.2-8.1,5.6-30.7-8.7-28.8c-14.3,1.9-66.4,24.5-82.7,17.3
				c-16.3-7.1-40.8-13.3-55.3-12.5C896.2,1846,858.3,1852.7,858.3,1852.7z"/>
			<path class="st5" d="M866.9,1790.3c0,0-12.1,31.4-11.3,42.5c0.8,11.1,2.7,19.9,2.7,19.9s15.7,1.9,34.4,0.4
				c18.7-1.5,32.6-2.5,44.4,2.8c11.8,5.3,45.4,18.3,62.3,17.6c24.6-1,44.9-11.8,53.1-18.9c8.2-7.1-3.8-14.3-3.8-14.3
				s-22.9-0.5-32.8-5.9c-9.9-5.5-85.4-51.8-85.4-51.8S907.5,1809.6,866.9,1790.3z"/>
			<g>
				<path class="st6" d="M983.5,1848.1c-13.5-6.3-25.7-16.1-39.6-21.1c-11.1-3.9-21.3-5.9-31.2-12.5c-5.1-3.4-8-6.5-11.3-12.1
					c-1-1.6-2.2-3.8-3.3-6c20.7-1.4,32.5-13.9,32.5-13.9s0,0,0,0c1,0.6,75.6,46.4,85.4,51.8c9.9,5.4,32.8,5.9,32.8,5.9
					s12,7.2,3.8,14.3C1048.8,1857.8,998.7,1855.2,983.5,1848.1z"/>
			</g>
		</g>
	</g>
	<path class="st7" d="M885.7,524.6c0,0,45-7.7,70.5,21.3c25.5,29,78,56.3,100.6,69.2c15.7,9,31.7,21.9,46.8,30.2
		c0.7-17.5,7.2-57,10.8-94.7c3-31.6,3.3-63.5,2.7-65.8c-1.6-6.2-34.9-28.4-39.7-41.2c-4.8-12.8-2.8-34.9-2.8-34.9
		s48.1,59.8,55.2,67.7c5.2,5.7,10,103.9,9.4,146l-7,70.1c-22.1-1.4-37.5-3.5-76.5-24.8c-50-27.3-97.6-39.1-147.1-49.4
		C859.2,608,885.7,524.6,885.7,524.6z"/>
	<path class="st8" d="M800.5,272.5c0,0-14.7-14.5-39.1,4.7c-18.1,14.3-22.6,68-4.3,117c18.3,49,8.3,84.5,4.5,100
		c-3.8,15.5-6.3,38.5-6.3,38.5s74.6-68.1,50.4-152.3C781.5,296.3,800.5,272.5,800.5,272.5z"/>
	<g>
		<path class="st9" d="M761.6,494.2c3.8-15.5,13.8-51-4.5-100c-18.3-49-13.8-102.7,4.3-117c24.4-19.2,39.1-4.7,39.1-4.7
			s-1.6,1.9-3.2,6.6c-11.4-2.1-25.2-1.7-33.8,9.3c-16.6,21.3-6.8,55.8,4.3,99.4c9,35.2,12.7,91.8,2.9,127.9
			c-8.7,10.8-15.4,17-15.4,17S757.8,509.7,761.6,494.2z"/>
	</g>
	<g>
		<path class="st10" d="M863.9,391.9l54.9,66.1c0,0-12.6,52.3,1.7,66.7c9.7,9.8-19.1,38.5-71.4,43.7c-29.4,2.9-49-10.1-49-10.1
			s20-52.5,25.5-84.1c6.5-37.7-5.6-61.9-5.6-61.9L863.9,391.9z"/>
		<g>
			<path class="st7" d="M820.1,412.1l43.8-20.2l54.7,67.2c-1.2,5.3-5.9,27.5-4.7,45.4l-89.6-80.1
				C822.2,416.5,820.1,412.1,820.1,412.1z"/>
		</g>
	</g>
	<g>
		<path class="st10" d="M799.5,818.8h181.8c0,0.1,0,0.3,0,0.4c6.9,56.2,2,113.8-3.9,168.4c-5.9,54.6-192.2,21-179.9-3.3
			C823.1,934,803.4,843,799.5,818.8z"/>
	</g>
	<g>
		<path class="st7" d="M962,867c-1.1-15.2,0-34.9,1-48.2h18.3c0,0.1,0,0.3,0,0.4c11.5,65.4-0.6,214.5-0.6,214.5l-15.9,1.9
			c-4.5-15.4-7-40-8.3-56.4c-1.9-25.1,6.9-49.8,8.6-64.7C966.8,899.4,963.8,892.1,962,867z"/>
	</g>
	<path class="st11" d="M952.6,554.9c62.2,61.7,61.4,83,77.2,128.5c7.4,21.4,5.3,65.7-20.6,84.6c-26,18.8-23.2,29.7-25.4,39.2
		c-0.7,3.2-1.2,18-1.2,18H800c0,0-44.1-167.8-16.3-249.7c0,0,40.2-86,106.1-62.3C910.4,520.6,927.2,529.6,952.6,554.9z"/>
	<g>
		<path class="st12" d="M873.7,814.4c41.9-52.6-33.4-195.3-33.4-195.3s129.7-11.2,185.4,51.7c1.3,4,2.7,8.2,4.2,12.6
			c7.4,21.4,5.3,65.7-20.6,84.6c-16.6,12.1-21.5,20.8-23.4,28.1c0,0,0,0,0,0c-0.7,2-1.3,5.9-1.8,9.8c-0.1,0.4-0.2,0.9-0.3,1.3
			c-0.3,1.3-0.6,4.6-0.7,8v0L873.7,814.4z"/>
	</g>
	<g>
		<path class="st13" d="M925.4,804.2c7.2-2,52.9-1.7,59.1-1.6c-0.6,3.9-1,8.2-1.3,10.6c-1.4-1.4-3.4-3.1-6.1-3.8
			C971.6,807.8,917.6,806.4,925.4,804.2z"/>
	</g>
	<path class="st12" d="M803.8,815.2c0,0,63.5-6.1,84.8-5.9c21.3,0.2,72.6,5.9,72.6,5.9c-58.9,0-77-0.8-85.7-0.8
		C861.3,814.5,803.8,815.2,803.8,815.2z"/>
	<path class="st10" d="M929.3,660c-7.1,23.4-27.3,39.3-71,41.1c-43.7,1.8-59.8-55.2-58.2-93.3c1.5-34.5,17.5-103.7,73.4-91.9
		c55.9,11.8,53.6,54.8,53.6,54.8S941.6,619.4,929.3,660z"/>
	<g>
		<path class="st7" d="M843.8,640.1c-3.9,24.8,5,19.7,31.3,59.3c6.9-1.2,13.6-2.8,19.9-4.6c19.2-7,29.6-19.2,34.3-34.7
			c2.3-7.7,3.7-15.7,4.4-23.6C918.7,629.7,847.3,617.3,843.8,640.1z"/>
	</g>
	<g>
		<g>
			<g>
				<path class="st14" d="M973.8,1135.6c2.1-41.8-63.7-108.3-143.2-70.8c-52.6,24.8-27.9,150.1-23,175.1
					c10.9,54.8,10.6,60.1,15.7,96.5c5.1,36.3,21.3,138,21.3,138s4.1,48.3,24.9,61.6c29,18.6,66.8,20.5,76.3-15.5
					c7.4-28.4,20-207.9,22.6-274.6C970.5,1192.4,972.7,1170,973.8,1135.6z"/>
			</g>
		</g>
	</g>
	<g>
		<g>
			<path class="st10" d="M842.8,1529.3c-40.2,73-23.5,333.6-33.8,388c-7.7,40.5,18.4,51.7,49.5,44.6c22.5-5.1,34.9-35.6,27.5-40.1
				c-7.3-4.5-21.6-26.8,6-142.5c19.5-81.6,34-174,41.3-225c-1.4-15.3-5.8-41.1-19.2-56.3C894.3,1489,865.9,1487.2,842.8,1529.3z"/>
		</g>
		<g>
			<path class="st14" d="M883.1,1485.4c-19.9-3-30.8,10.8-40.6,31.9c-7.2,15.5-9.1,30.3-9.1,30.3s27.6-9.7,49.5-3.8
				c20.8,5.7,48.4,15.7,50.9,16.6C942.8,1508.6,928.8,1492.3,883.1,1485.4z"/>
		</g>
	</g>
	<g>
		<path class="st4" d="M798,2001.3c0,0-5.1,22.7-3.8,24.9c1.3,2.1,33.9,7.1,53.8,5.9c19.9-1.2,32.5-2.3,32.5-2.3l4.4-7.2
			c0,0,42.5,24.6,73.9,23c31.5-1.6,64.3-19.1,73.6-24.9c15.5-9.5,6.6-36.2-10.3-34c-16.8,2.2-78.2,28.8-97.3,20.4
			c-19.2-8.4-48-15.7-65.2-14.7C842.6,1993.4,798,2001.3,798,2001.3z"/>
		<path class="st5" d="M806.1,1926.9c0,0-12.3,37.9-11.4,50.9c1,13.1,3.2,23.5,3.2,23.5s18.5,2.2,40.5,0.4c22-1.7,38.4-3,52.3,3.2
			c13.9,6.2,53.5,21.5,73.3,20.7c28.9-1.2,52.9-13.9,62.5-22.3c9.7-8.3-4.4-16.8-4.4-16.8s-27-0.5-38.6-6.9
			c-11.7-6.4-100.6-61-100.6-61S854,1949.6,806.1,1926.9z"/>
		<g>
			<path class="st6" d="M945.4,1995.9c-16-7.4-30.2-19-46.7-24.8c-13.1-4.6-25.1-7-36.7-14.7c-6.1-4-9.4-7.7-13.4-14.2
				c-1.2-1.9-2.6-4.4-3.9-7.1c24.4-1.6,38.3-16.4,38.3-16.4c0,0,0,0,0,0c1.1,0.7,89,54.6,100.6,61c11.6,6.4,38.6,6.9,38.6,6.9
				s14.1,8.5,4.4,16.8C1022.3,2007.3,963.3,2004.2,945.4,1995.9z"/>
		</g>
	</g>
	<path class="st14" d="M898.6,1200.2c70.9-6.6,87.7-63.7,91.1-87.9c10-71.5-5.8-140.5-5.8-140.5s-27.7-5.8-78.2-8.9
		c-89.7-5.6-105.7,14.8-105.7,14.8s-27.2,51.1-27.2,112.1C772.7,1151.1,811.6,1208.3,898.6,1200.2z"/>
	<g>
		<path class="st15" d="M982.1,292.3c0,0-0.5,2-6.8,2.1c-6.2,0.1-27.5,5.1-40.5,16.4c-13,11.3-32.6,30.2-32.6,30.2
			s26.2-39.9,48.8-47.5C973.6,285.9,982.1,292.3,982.1,292.3z"/>
		<path class="st16" d="M804.7,265.9c0,0-26-3.5-31,29.4c-11.9,68.1,56.3,13,56.3,13L804.7,265.9z"/>
		<g>
			<path class="st17" d="M777.2,282.8c8.7-19.3,27.4-16.8,27.4-16.8l6.3,10.6C802.5,273.9,787,278.9,777.2,282.8z"/>
		</g>
		<g>
			<path class="st10" d="M904.1,340.6c28.8-39,59.2-49.8,67.9-48.1c10.9,2.2,11.2-1.1,10.9-2.5c3.9,11.4,6.8,29.1,7,42.7
				c0.1,7.1-0.7,11.2-1.4,14.1c-1.5,6-3.1,6.7,2.7,18.2c8.6,17.1,15.9,25.8,15,29.7c-0.9,3.8-11.5,5.7-11.5,5.7s-0.2,4.5-1.9,11.3
				l1.4,2.7c0,0,1,4.4,1.2,6.6c0.2,2.2-1.8,4-1.8,4s-12,3.2-16.8,4.7c-6.4,1.9,14.8-0.6,16,1.3c1.2,2,2.3,2.8-1.3,5.6
				c-3.6,2.7-6.2,8.4-6.9,9.7c-0.6,1.3-3.3,21.4-3.6,23.7c-2.3,17.8-63.5,0.6-87.3-19.1c-12.9-17.3-26.2-39.8-26.2-39.8
				c3.9-7.1,1.4-11.8,2.1-21.6c4-7.7,14.3-20.5,18.3-30C892.3,349.3,897.9,348.6,904.1,340.6z"/>
		</g>
		<path class="st9" d="M886.1,370.3c4.8-7.7,12.2-15.6,17.3-26.2c4-8.2,7.9-13.7,13.3-20c25.5-30.9,52.3-34.4,59.4-32.6
			c11,2.8,8.9-2,8.9-2s-24.6-56.7-88.6-60.9c-59.9-4-92.5,23.7-110.7,63.3c-30.1,65.7,40.6,148.5,40.6,148.5S863,407,886.1,370.3z"
			/>
		<path class="st18" d="M858.8,340.4c-0.7-4.9-8.2-6.5-9.3-11.6c5.7-2.8,13,1.1,18.9-1.4c-1.7-3.6-7-5-10.4-6.4
			c-2.7-1.2-5-2.9-7.5-4.3c-1.5-0.8-4-1-4.6-2.8c1.2-0.6,3.7-0.2,5.2-0.1c4.2,0.1,8.3,0.9,12.4,1.7c5.2,1,10.1,3,15.2,4.6
			c4.5,1.4,10.2,3.6,15,3.7l-0.8,0.6c1-0.2,3.4,0.6,3.8,1.7c0.7,2-1,1.8-2.1,2.6c-3.2,2.1-6.5,3.1-10,4.6c1.5,3,6.5,4.4,8.9,6.5
			c-2.1,0.9-11.1,2.9-11.1,5c0,2.1,4.9,3.9,5.4,6c-7.9,0.9-15.7,0.6-23.5-1c-3.6-0.7-7.2-1.6-10.8-2.4c-1.6-0.3-5.6-0.2-5.9-2.1
			C851,343.7,854.9,342.1,858.8,340.4z"/>
		<g>
			<path class="st18" d="M896.9,294.7c-1.5-4-7.1-5.2-7.8-9.2c3.9,0.5,9,4,13.1,2.3c-2.5-10.3-19.4-9-22.4-18c8-2.9,21.2-0.9,29.3,2
				c6.6,2.4,19,16.2,25.9,13c-1.2-4.6-6.8-8.4-10.2-11.5c-3.3-3-9.9-5.9-12-9.7c3.6-1.5,6.4,2.8,5.5-2.6c-0.5-3.1-3.3-5.1-4-8.2
				c3.3-0.6,11.5,3.6,10.7-1.2c-0.8-4.8-9.8-5.3-11.9-8.7c10.3-1.4,21.5,2,29.9,8.4c9.6,7.3,25.1,18.2,29.5,30.4
				c-5.8-4.1-14.4-13.1-21.3-10.7c0.9,5.4,9.6,8,9.6,13.6c-3.8-1.1-8.8-4.7-12.8-3.6c-5.4,1.5,0.2,7.3-1.5,9.4
				c-1.6,2.1-20.4,0.7-18.4,4.9c-5.2,3.3-13.1,0.3-19,2.8c1.9,6,3.2,8.8-4.6,8c-7-0.6-16.9-4.5-22.1-9.7
				C886.6,294.1,892.5,296.8,896.9,294.7z"/>
		</g>
		<g>
			<path class="st19" d="M994.5,419.1c-0.2-1.9-3.8-6.5-3.8-6.5l-1-11.4l4.9-0.7c0,0-0.2,4.5-1.9,11.3l1.4,2.7c0,0,0.5,2,0.8,4
				C994.8,419.3,994.6,419.8,994.5,419.1z"/>
		</g>
		<path class="st19" d="M986.2,401.6c0,0-2.9-3.4-0.7-6.7c2.2-3.3,4.3-5.4,4.3-5.4s-9.2,0.4-8.6,5.1
			C981.8,398.8,986.2,401.6,986.2,401.6z"/>
		<g>
			<g>
				<path class="st15" d="M954.2,347.4c-4.9,3.3-7.7,8.1-7.7,8.1s10.5,8.6,18.5,8.1c8-0.4,9.6-2.6,9.6-2.6s0.5-6.4,2.4-11.3
					c0.1,0.2,0.2,0.3,0.2,0.5c0.4,2.7-0.2,13.2-0.2,13.2s-2.1,2.2-12.5,2.4c-10.4,0.3-20.6-13.5-20.6-13.5S946.2,349.3,954.2,347.4z
					"/>
			</g>
			<g>
				<g>
					<path class="st9" d="M976.7,367c0.3-0.2,0.3-3.6,0.3-3.6c-3.3,0.5-9.3,0.8-16.7-1.4c-11.6-3.3-16.4-9.7-16.4-9.7
						s5.2,10.2,18.9,14.5C970,369.2,974.3,368.4,976.7,367z"/>
				</g>
			</g>
			<g>
				<path class="st9" d="M985.6,347.1c0,0-5.1,0.1-10.5-1.8c-5.4-2-20-7.8-23.7-8c-3.8-0.1-14.2,0.6-14.2,0.6s6.5-2.6,12.2-2.6
					c5.7,0,25.9,2.7,32.7,4.9C989,342.4,987.1,345.9,985.6,347.1z"/>
			</g>
		</g>
		<path class="st20" d="M995,423.2c0,0-1.6-2.2-3.8-1.8c-2.2,0.4-15.9,9.1-15.9,9.1l18.3-5.4C993.6,425.1,995.5,423.7,995,423.2z"/>
		<path class="st21" d="M993.1,434.2c0,0-5.6-0.3-9-1.1c-3.4-0.8-8.8-2.7-8.8-2.7s13.9-2.2,17.4,0.2
			C994,431.5,995.2,433.4,993.1,434.2z"/>
		<path class="st7" d="M947,474.9c0,0-31.4-5.9-46-15.6c-14.7-9.7-33.6-48.8-33.6-48.8s32,44.2,35.4,47.2
			C906.1,460.6,947,474.9,947,474.9z"/>
		<g>
			<path class="st10" d="M876.6,409.6c0,0-5.2,3.1-9.2,1.2c-4.4-2.1-10.3-5.7-19-20.4c-8.7-14.8,2.9-23.3,5.3-24.6
				c2.4-1.2,16.4,1,22.8,24.7"/>
			<path class="st22" d="M859.2,378.8c0,0,1.3,9.3,0.6,11.1c-1.7,3.8,2.5,6.3,2.5,6.3s1-3.2,0.7-4.4
				C862.6,390.6,859.2,378.8,859.2,378.8z"/>
			<path class="st22" d="M870.6,404.5c-1-0.3-10-6-9-8.6c0.1-0.3,0.2-0.6,0.3-0.8c0.7-1.6,0.9-2-0.3-5.1c-0.4-0.9-0.8-2.5-1.4-4.4
				c-1.3-4.4-3.3-10.9-4.9-11c-0.5,0-1.2,0.3-1.9,1c-1.5,1.5-2.8,4.7-1.9,7.9c1.3,4.7,3.8,5.4,3.9,5.5c0,0-3.5-0.4-4.8-5.2
				c-1-3.5,0.4-7,2.1-8.7c0.9-0.9,1.9-1.3,2.8-1.3c1.8,0.1,2.6,1.4,5.6,11.5c0.6,1.9,1.1,3.5,1.4,4.4c1.2,3.2,1,3.8,0.3,5.6
				c-0.1,0.2-0.2,0.5-0.3,0.8c-0.6,1.5,3.9,4.1,6.7,5.3L870.6,404.5z"/>
		</g>
	</g>
	<path class="st10" d="M865.3,527.4c0,0,50.7-7.2,90.2,30.1c30.7,29.1,63.6,57.7,88.8,70.9c25.2,13.1,68.5,39.2,68.5,39.2
		s15.5-93.2,15.2-120.6c-0.3-27.4-6.1-67.4-6.1-67.4l50.6-10.7c0,0,7.4,79.2,11.1,136.6c3.6,55.1-11.1,144.7-21.3,149
		c-10.1,4.3-47.5-6.9-103.4-34.6c-55.9-27.7-147.9-69.9-170.3-75.2c-15.6-3.7-42.1,5.9-57.6,7.8
		C806.6,655.7,785.8,543.9,865.3,527.4z"/>
	<path class="st10" d="M1108.8,467.3c-10.7-5.1-24.4-18.2-29-28.3c-4.6-10.1-4.1-15.5-3.5-19.7c0.7-4.1-4.7-17.9-2.3-20
		c2.4-2.1,7.4,1,8.5,3.3c1.1,2.2,0.1-9.4,6.6-11.8c6.5-2.4,13.9,4.1,13.9,4.1s0.7-7.1,6.1-8.2c5.4-1.1,7.4-0.9,9.1-0.1
		c1.7,0.8,4,2.2,4,2.2s3.6-3.2,6.6-3.9c3-0.8,8-0.6,9.8,1.7c1.8,2.3,4.8,5.4,4.8,5.4s6-2.5,9.6-0.3c3.5,2.2,10.1,10.2,12.6,24.6
		c2.5,14.4,5.2,26.6,5.8,38.7c0.7,13.4,2.8,34.1,2.8,34.1l-51.8-4.7C1122.6,484.3,1118.7,472.1,1108.8,467.3z"/>
	<path class="st23" d="M1100.4,392.9c0,0,2.6,3.2,4.1,7.2c1.5,4,4.1,9.5,4.1,9.5l-5.6-14.7L1100.4,392.9z"/>
	<path class="st23" d="M1119.3,387.1c0,0,3.4,4,4.3,6.3c0.9,2.3,2.3,9,2.3,9s-1.3-10-2.1-12.1c-0.8-2.1-0.8-2.1-0.8-2.1
		s-0.3,0.7-1.5,0.2C1120.2,387.7,1119.3,387.1,1119.3,387.1z"/>
	<path class="st23" d="M1141.5,389.7c0,0,2.6,3.9,2.8,4.7c0.2,0.8,0.8,3.1,0.8,3.1l-0.1-6l-1.5,0.5L1141.5,389.7z"/>
	<g>
		<g>
			<g>
				<path class="st23" d="M1082.6,402.6c0,0,5.4,9.4,6,11.5c0.5,2,0.2,12.5,0.2,12.5s-0.8-10.2-2.4-15.1c-1.5-4.9-7-11.8-7-11.8
					S1081.4,400.5,1082.6,402.6z"/>
			</g>
		</g>
	</g>
</g>
<g>
	<path class="st7" d="M2059.4,830.6c0,0,44.6-9.9,71.5,17.9c26.8,27.8,80.6,52.4,103.8,64.3c16.1,8.2,32.7,20.3,48.2,27.9
		c-0.1-17.5,4.5-57.3,6.3-95.1c1.5-31.7,0.3-63.6-0.5-65.9c-1.9-6.2-36.2-26.7-41.7-39.2c-5.4-12.5-4.5-34.7-4.5-34.7
		s50.9,57.4,58.4,65c5.4,5.5,15,103.3,16.4,145.4l-3.6,70.4c-22.1-0.3-37.6-1.7-77.6-21.1c-51.2-24.9-99.3-34.3-149.3-42.2
		C2037,915.3,2059.4,830.6,2059.4,830.6z"/>
	<path class="st8" d="M1970.1,569.7c0,0-15.4-13.7-38.9,6.6c-17.4,15.1-19.3,69.1,1.3,117.1c20.6,48,12.4,84,9.3,99.6
		c-3,15.6-4.4,38.7-4.4,38.7s71.3-71.6,43-154.5C1952.2,594.4,1970.1,569.7,1970.1,569.7z"/>
	<g>
		<path class="st9" d="M1941.9,793.1c3-15.6,11.3-51.6-9.3-99.6c-20.6-48-18.8-102-1.3-117.1c23.5-20.4,38.9-6.6,38.9-6.6
			s-1.5,2-2.9,6.8c-11.4-1.6-25.2-0.5-33.3,10.9c-15.6,22.1-4.1,56.1,9.1,99c10.7,34.7,17.1,91.1,9.1,127.7
			c-8.2,11.2-14.6,17.7-14.6,17.7S1938.9,808.7,1941.9,793.1z"/>
	</g>
	<g>
		<path class="st10" d="M2046.6,685.4l46.8,72c0,0-21.6,65.2-9,81.2c8.5,10.8-20.6,21.3-73.1,20.2c-29.5-0.6-47.4-15.8-47.4-15.8
			s26-49.8,35.2-80.6c10.8-36.6,1.7-62.2,1.7-62.2L2046.6,685.4z"/>
		<g>
			<path class="st7" d="M2000.7,700.4l45.9-14.9l46.4,73.2c-1.8,5.1-10.7,32-11.6,49.8l-78-95.4
				C2002.3,705,2000.7,700.4,2000.7,700.4z"/>
		</g>
	</g>
	<g>
		<path class="st15" d="M2152.4,580.8c0,0-0.4,2.1-6.7,2.5c-6.2,0.4-27.2,6.4-39.7,18.3c-12.4,11.9-31.1,31.7-31.1,31.7
			s24.3-41.1,46.4-49.8C2143.6,574.8,2152.4,580.8,2152.4,580.8z"/>
		<path class="st16" d="M1973.9,563c0,0-26.2-2.2-29.6,30.9c-8.6,68.6,56.8,10.2,56.8,10.2L1973.9,563z"/>
		<g>
			<path class="st17" d="M1947.3,581.1c7.8-19.7,26.6-18.1,26.6-18.1l6.8,10.3C1972.1,571,1956.9,576.8,1947.3,581.1z"/>
		</g>
		<g>
			<path class="st10" d="M2076.8,632.8c26.9-40.4,56.7-52.5,65.5-51.3c11,1.6,11.1-1.7,10.8-3c4.5,11.2,8.2,28.7,9.1,42.4
				c0.4,7.1-0.1,11.2-0.7,14.2c-1.2,6-2.8,6.9,3.6,18.1c9.4,16.6,17.1,25,16.4,28.9c-0.7,3.9-11.2,6.2-11.2,6.2s0.1,4.5-1.4,11.3
				l1.5,2.6c0,0,1.2,4.4,1.5,6.5c0.3,2.2-1.6,4.1-1.6,4.1s-11.9,3.8-16.5,5.5c-6.3,2.2,14.8-1.3,16.1,0.6c1.3,1.9,2.4,2.7-1,5.6
				c-3.4,2.9-5.8,8.7-6.4,10c-0.6,1.3-2.2,21.5-2.4,23.8c-1.5,17.9-63.4,3.7-88.1-14.9c-13.7-16.7-28.1-38.5-28.1-38.5
				c3.5-7.3,0.9-11.9,1.1-21.7c3.6-7.8,13.3-21.1,16.8-30.9C2065.5,642,2071,641,2076.8,632.8z"/>
		</g>
		<path class="st9" d="M2060.3,663.3c4.5-8,11.4-16.2,16-27c3.6-8.4,7.2-14.1,12.3-20.6c23.9-32.1,50.6-36.9,57.8-35.4
			c11.1,2.3,8.8-2.4,8.8-2.4s-27.3-55.4-91.5-56.6c-60-1.1-91.3,28.2-107.5,68.5c-26.9,67.1,47.7,146.4,47.7,146.4
			S2039,701.1,2060.3,663.3z"/>
		<path class="st18" d="M2031.5,634.8c-1-4.9-8.5-6.1-9.9-11.1c5.6-3.1,13,0.5,18.8-2.3c-1.9-3.5-7.3-4.6-10.7-5.9
			c-2.8-1-5.1-2.7-7.7-4c-1.5-0.7-4.1-0.8-4.8-2.6c1.2-0.7,3.6-0.4,5.2-0.4c4.2-0.1,8.4,0.5,12.5,1.1c5.3,0.8,10.3,2.6,15.4,3.9
			c4.6,1.2,10.4,3.1,15.1,3l-0.8,0.6c1-0.2,3.4,0.4,3.9,1.5c0.8,2-0.9,1.9-2,2.7c-3.1,2.2-6.3,3.4-9.8,5.1c1.6,3,6.8,4.1,9.2,6.1
			c-2.1,1-11,3.4-10.9,5.5c0.1,2.1,5.1,3.7,5.6,5.8c-7.9,1.3-15.7,1.4-23.5,0.2c-3.6-0.6-7.2-1.3-10.9-1.9c-1.6-0.3-5.6,0.1-6-1.8
			C2024,638.4,2027.8,636.6,2031.5,634.8z"/>
		<g>
			<path class="st18" d="M2067.4,587.3c-1.7-4-7.3-4.8-8.2-8.9c3.9,0.3,9.2,3.5,13.2,1.7c-3-10.2-19.8-8.1-23.3-16.9
				c7.9-3.3,21.1-1.9,29.3,0.6c6.7,2.1,19.8,15.3,26.5,11.7c-1.4-4.5-7.2-8.1-10.8-11c-3.5-2.8-10.2-5.4-12.4-9.2
				c3.5-1.7,6.5,2.5,5.4-2.9c-0.6-3-3.5-4.9-4.4-8c3.2-0.8,11.7,3,10.7-1.7c-1.1-4.7-10-4.8-12.3-8.1c10.2-1.9,21.6,1,30.3,7
				c10,6.8,26,17,30.9,29c-6-3.9-15-12.4-21.8-9.7c1.2,5.3,10,7.5,10.3,13.1c-3.8-0.9-9.1-4.2-13-3c-5.3,1.7,0.5,7.3-1,9.5
				c-1.5,2.2-20.3,1.7-18.1,5.8c-5,3.5-13,0.9-18.8,3.7c2.2,5.9,3.6,8.6-4.2,8.2c-7.1-0.3-17.1-3.7-22.5-8.7
				C2057.2,587.2,2063.2,589.6,2067.4,587.3z"/>
		</g>
		<g>
			<path class="st19" d="M2171,706.8c-0.2-1.9-4.1-6.4-4.1-6.4l-1.5-11.4l4.9-0.9c0,0,0.1,4.5-1.4,11.3l1.5,2.6c0,0,0.5,2,1,4
				C2171.2,707,2171.1,707.5,2171,706.8z"/>
		</g>
		<path class="st19" d="M2161.8,689.7c0,0-3-3.2-1-6.6c2-3.4,4.1-5.6,4.1-5.6s-9.1,0.9-8.3,5.5
			C2157.2,687.2,2161.8,689.7,2161.8,689.7z"/>
		<g>
			<g>
				<path class="st15" d="M2127.2,637.2c-4.7,3.5-7.3,8.4-7.3,8.4s10.9,8,18.9,7.2c8-0.8,9.5-3.1,9.5-3.1s0.2-6.4,1.9-11.4
					c0.1,0.2,0.2,0.3,0.2,0.5c0.5,2.7,0.4,13.2,0.4,13.2s-2,2.3-12.4,3c-10.4,0.8-21.3-12.5-21.3-12.5S2119.3,639.4,2127.2,637.2z"
					/>
			</g>
			<g>
				<g>
					<path class="st9" d="M2150.6,655.6c0.3-0.2,0.1-3.6,0.1-3.6c-3.3,0.6-9.2,1.2-16.8-0.6c-11.8-2.8-16.9-8.9-16.9-8.9
						s5.7,10,19.5,13.6C2144,658.1,2148.3,657.2,2150.6,655.6z"/>
				</g>
			</g>
			<g>
				<path class="st9" d="M2158.6,635.3c0,0-5.1,0.4-10.6-1.3c-5.5-1.7-20.3-6.9-24.1-6.8c-3.8,0-14.2,1.3-14.2,1.3s6.4-2.9,12.1-3.2
					c5.7-0.3,26,1.5,32.9,3.4C2161.8,630.5,2160,634,2158.6,635.3z"/>
			</g>
		</g>
		<path class="st20" d="M2171.6,710.9c0,0-1.7-2.1-3.9-1.6c-2.2,0.5-15.4,9.8-15.4,9.8l18.1-6.2
			C2170.3,712.8,2172.1,711.4,2171.6,710.9z"/>
		<path class="st21" d="M2170.2,721.9c0,0-5.6,0-9.1-0.6c-3.4-0.6-8.9-2.2-8.9-2.2s13.8-2.8,17.4-0.6
			C2171,719.2,2172.3,721.1,2170.2,721.9z"/>
		<path class="st7" d="M2126.1,764.8c0,0-31.6-4.4-46.7-13.4c-15.1-9-35.9-47.1-35.9-47.1s34.1,42.7,37.6,45.5
			C2084.6,752.5,2126.1,764.8,2126.1,764.8z"/>
		<g>
			<path class="st10" d="M2052.7,703c0,0-5,3.4-9.1,1.6c-4.5-1.9-10.5-5.2-19.9-19.5c-9.4-14.3,1.7-23.4,4.1-24.8
				c2.3-1.4,16.4,0.2,24,23.5"/>
			<path class="st22" d="M2033.8,673.1c0,0,1.8,9.2,1.1,11c-1.5,3.9,2.8,6.2,2.8,6.2s0.9-3.2,0.5-4.5
				C2037.8,684.7,2033.8,673.1,2033.8,673.1z"/>
			<path class="st22" d="M2046.5,698.2c-1-0.3-10.3-5.5-9.4-8.2c0.1-0.3,0.2-0.6,0.3-0.8c0.6-1.6,0.8-2-0.5-5.1
				c-0.4-0.9-0.9-2.5-1.6-4.4c-1.6-4.3-3.9-10.7-5.4-10.7c-0.5,0-1.2,0.3-1.8,1c-1.4,1.6-2.6,4.8-1.5,8c1.5,4.6,4.1,5.2,4.1,5.3
				c0,0-3.5-0.2-5-4.9c-1.2-3.5,0.1-7,1.7-8.8c0.9-0.9,1.8-1.4,2.7-1.4c1.8,0,2.7,1.2,6.2,11.2c0.7,1.9,1.2,3.5,1.6,4.4
				c1.3,3.1,1.2,3.8,0.6,5.6c-0.1,0.3-0.2,0.5-0.3,0.8c-0.5,1.5,4.1,3.9,6.9,5L2046.5,698.2z"/>
		</g>
	</g>
	<g>
		<path class="st1" d="M1917.5,1983.4c-18.3,71.8,104.1,66,204.8,66s77.7-45.1,77.7-117.6s-17.6-151.1-118.3-151.1
			C1981.1,1780.8,1935.5,1913.2,1917.5,1983.4z"/>
		<path class="st10" d="M2100,1110.8c0,0-42.7,50.5-60.1,78.3c-17.4,27.8-32.6,78.8-32.6,78.8l-194.7-43.2c0,0,103.1-137.2,107-195
			C1923.6,971.9,2100,1110.8,2100,1110.8z"/>
		<g>
			<path class="st7" d="M2039.9,1189.2c-17.4,27.8-35.1,77.5-35.1,77.5l-39.5-8.1c6.7-12,26.5-40.5,34.2-52.7
				c9.4-14.9,8-35.9,8-35.9s23.1-9.9,33.3-31.2c10.2-21.4,8.8-56.7,8.8-56.7s3.8,0.3,9.1,0.8c29.6,20.5,41.2,28,41.2,28
				S2057.3,1161.4,2039.9,1189.2z"/>
		</g>
		<path class="st11" d="M2103.7,854.8c44.3,62.1,73.5,186.6,48.5,204.5c-25,17.9-33,30.4-35.2,32.6c-2.2,2.2-9.6,21.8-9.6,21.8
			l-189.8-73.4c0,0,26.9-144.4,32.4-169.1c0,0,29.2-95,92.1-71.7C2061.8,806.8,2083.7,826.8,2103.7,854.8z"/>
		<g>
			<path class="st12" d="M2152.2,1059.3c-25,17.9-33,30.4-35.2,32.6c-2.2,2.2-5.5,11.5-5.5,11.5l-89.8-44.1
				c40.5-50.1-26.1-143.9-26.1-143.9s87.4,13.1,157.8,25.9C2190.6,990.6,2177.2,1041.4,2152.2,1059.3z"/>
		</g>
		<path class="st10" d="M2091.9,969.2c0,0-37.8,23.5-79.6,25c-41.8,1.4-72.5-48.2-64.3-80.2c8.2-32,26.9-108.8,80.3-97.1
			c53.4,11.7,50.9,52.9,50.9,52.9L2091.9,969.2z"/>
		<g>
			<path class="st7" d="M1992.2,943l48.4-20.5c0,0,14.1,1.1,29.9,1.8c9,0.4,12.7,4.4,16.9,10l4.5,34.9c0,0-28.6,17.8-63.6,23.4
				C2003.4,954.4,1992.2,943,1992.2,943z"/>
		</g>
		<g>
			<path class="st2" d="M2170.6,1581.1c0,0-40.8,50.4-65.5,90.7c-24.7,40.4-59.7,112.9-59.7,112.9s-14,14.8-28.5,14.5
				c-14.5-0.3-24-8.7-24-8.7s29.3-67.7,37.6-98c8.2-30.3,34.7-96.3,51.3-119c16.6-22.7,35.5-41.4,35.5-41.4L2170.6,1581.1z"/>
			<g>
				<path class="st4" d="M1989.6,1839.9c0,0-4.1,18.5-3.1,20.2c1.1,1.7,27.6,5.8,43.8,4.8c16.2-1,26.4-1.9,26.4-1.9l3.6-5.8
					c0,0,34.5,20,60.1,18.7c25.6-1.3,52.3-15.6,59.9-20.2c12.6-7.7,5.3-29.4-8.4-27.6c-13.7,1.8-63.6,23.4-79.2,16.6
					c-15.6-6.8-39.1-12.7-53-12C2025.9,1833.4,1989.6,1839.9,1989.6,1839.9z"/>
				<path class="st5" d="M1996.2,1779.4c0,0-10,30.8-9.2,41.4c0.8,10.6,2.6,19.1,2.6,19.1s15.1,1.8,33,0.4
					c17.9-1.4,31.3-2.4,42.6,2.6c11.3,5.1,43.5,17.5,59.6,16.9c23.5-0.9,43-11.3,50.9-18.1c7.9-6.8-3.6-13.7-3.6-13.7
					s-21.9-0.4-31.4-5.6c-9.5-5.2-81.8-49.6-81.8-49.6S2035.2,1797.8,1996.2,1779.4z"/>
				<g>
					<path class="st6" d="M2109.5,1835.5c-13-6-24.6-15.5-38-20.2c-10.6-3.8-20.4-5.7-29.8-11.9c-4.9-3.3-7.7-6.3-10.9-11.6
						c-1-1.6-2.1-3.6-3.2-5.8c19.8-1.3,31.1-13.3,31.1-13.3c0,0,0,0,0,0c0.9,0.6,72.4,44.4,81.8,49.6c9.5,5.2,31.4,5.6,31.4,5.6
						s11.5,6.9,3.6,13.7C2172,1844.8,2124,1842.2,2109.5,1835.5z"/>
				</g>
			</g>
		</g>
		<path class="st7" d="M2217.9,1644c0,0-57.2,67.9-91.9,122.3c-34.7,54.4-83.8,152.2-83.8,152.2s-19.6,19.9-40,19.5
			c-20.4-0.4-33.7-11.7-33.7-11.7s41.1-91.3,52.7-132.1c11.6-40.8,48.7-129.9,72-160.5c23.2-30.6,49.8-55.8,49.8-55.8L2217.9,1644z"
			/>
		<path class="st10" d="M2195.7,1629.1l22.2,14.8c0,0-57.2,67.9-91.9,122.3c-34.7,54.4-83.8,152.2-83.8,152.2s-19.6,19.9-40,19.5
			c-20.4-0.4-22.8-5.2-22.8-5.2s39.3-83.4,50.8-124.2c11.6-40.8,55.8-123.2,78.9-153.9C2146,1605.8,2195.7,1629.1,2195.7,1629.1z"/>
		
			<linearGradient id="SVGID_2_" gradientUnits="userSpaceOnUse" x1="2961.7983" y1="1326.0665" x2="2667.2942" y2="1511.6062" gradientTransform="matrix(-1 0 0 1 4991.5078 0)">
			<stop  offset="0" style="stop-color:#3F110E"/>
			<stop  offset="1" style="stop-color:#3F1D18"/>
		</linearGradient>
		<path class="st24" d="M2009.3,1266.4c0,0,185.3,113,214.8,142.4c19.5,19.4,41.4,42.6,41.1,66.1c-0.3,19.3-14.2,38.1-14.2,38.1
			l-271.6-205.6L2009.3,1266.4z"/>
		<path class="st14" d="M1853.7,1165.8c0,0,28.1,9,72.9,37c44.8,28,50.9,29,64.6,37.1c13.7,8.1,26.9,8.2,26.9,8.2l-28.1,55.4
			c0,0,204.1,138.1,236.5,169.9c32.4,31.7,51.7,61,38,100.2c-13.7,39.2-46.7,70.3-46.7,70.3s-4.7-0.7-34.2-15
			c-29.5-14.4-55.5-37.2-55.5-37.2s15.7-14.4,8.2-25.6c-7.5-11.2-123.2-65.3-178.6-90.8c-55.4-25.5-164.6-68.7-184-129.8
			c-13.3-42-13.9-87.3,24.2-130.2C1812.6,1198.9,1853.7,1165.8,1853.7,1165.8z"/>
		<g>
			<path class="st25" d="M1979.7,1233.6c24.1,14.1,38.5,14.6,38.5,14.6l-28,55.4l-31-22.2C1959.2,1281.3,1971.1,1247,1979.7,1233.6z
				"/>
		</g>
		<g>
			<path class="st4" d="M1960.7,1997.6c0,0-4.9,21.8-3.6,23.8c1.3,2.1,32.5,6.8,51.5,5.6c19.1-1.2,31.1-2.2,31.1-2.2l4.2-6.9
				c0,0,40.7,23.5,70.8,22c30.1-1.6,61.5-18.3,70.5-23.8c14.9-9.1,6.3-34.6-9.8-32.5c-16.1,2.1-74.9,27.6-93.2,19.6
				c-18.4-8-46-15-62.4-14.1C2003.5,1989.9,1960.7,1997.6,1960.7,1997.6z"/>
			<path class="st5" d="M1968.5,1926.3c0,0-11.8,36.3-10.9,48.8c0.9,12.5,3.1,22.5,3.1,22.5s17.7,2.1,38.8,0.4
				c21.1-1.7,36.8-2.9,50.1,3.1c13.3,6,51.2,20.6,70.2,19.9c27.7-1.1,50.6-13.3,59.9-21.3c9.3-8-4.3-16.1-4.3-16.1s-25.8-0.5-37-6.7
				c-11.2-6.1-96.4-58.4-96.4-58.4S2014.4,1948,1968.5,1926.3z"/>
			<g>
				<path class="st6" d="M2101.9,1992.4c-15.3-7.1-29-18.2-44.7-23.8c-12.5-4.4-24-6.7-35.1-14.1c-5.8-3.8-9-7.4-12.8-13.6
					c-1.1-1.8-2.5-4.2-3.7-6.8c23.4-1.5,36.7-15.7,36.7-15.7c0,0,0,0,0,0c1.1,0.7,85.2,52.3,96.3,58.4c11.2,6.2,37,6.7,37,6.7
					s13.5,8.1,4.3,16.1C2175.5,2003.3,2119,2000.3,2101.9,1992.4z"/>
			</g>
		</g>
		<path class="st13" d="M2117,1091.9c0,0-41.2-20.1-48.9-21.5c-7.7-1.4,34.8,20.3,39,24c4.2,3.7,4.4,9.1,4.4,9.1L2117,1091.9z"/>
		<path class="st12" d="M1925.6,1025c0,0,78.6,23.7,104.5,32.6c25.9,9,85.8,36.6,85.8,36.6s-107.5-40.1-124.8-45.9
			C1973.7,1042.6,1925.6,1025,1925.6,1025z"/>
	</g>
	<path class="st10" d="M2039.2,834.5c0,0,50.3-9.7,91.5,25.8c32.1,27.6,66.3,54.6,92.1,66.5c25.8,11.9,70.3,35.9,70.3,35.9
		s11-93.8,9.4-121.2c-1.6-27.4-9.3-67.1-9.3-67.1l50-13.1c0,0,11.2,78.7,17.6,135.9c6.2,54.9-4.2,145.1-14.1,149.8
		c-9.9,4.8-47.7-4.6-104.9-29.6c-57.2-25-151.1-62.7-173.8-66.9c-15.8-2.9-41.8,7.9-57.2,10.6
		C1986.8,965.4,1960.6,854.7,2039.2,834.5z"/>
	<path class="st10" d="M2279.6,762.7c-10.9-4.6-25.2-17-30.3-26.9c-5.1-9.8-4.9-15.3-4.4-19.5c0.5-4.1-5.6-17.7-3.2-19.9
		c2.3-2.2,7.5,0.7,8.6,2.8c1.2,2.1-0.4-9.4,6-12.1c6.4-2.7,14.1,3.4,14.1,3.4s0.3-7.1,5.6-8.5c5.3-1.4,7.4-1.3,9.1-0.6
		c1.7,0.7,4.1,2,4.1,2s3.5-3.3,6.4-4.2c3-0.9,8-0.9,9.9,1.2c1.9,2.2,5.1,5.2,5.1,5.2s5.9-2.8,9.5-0.8c3.6,2,10.6,9.7,13.8,24
		c3.2,14.3,6.5,26.4,7.7,38.4c1.4,13.3,4.4,34,4.4,34l-51.9-2.2C2294.2,779,2289.7,767,2279.6,762.7z"/>
	<path class="st23" d="M2267.6,688.8c0,0,2.7,3,4.5,7c1.7,4,4.6,9.3,4.6,9.3l-6.3-14.5L2267.6,688.8z"/>
	<path class="st23" d="M2250.7,700.1c0,0,2,3.5,2.9,7.8c0.9,4.2,2.5,10.1,2.5,10.1l-3.1-15.5L2250.7,700.1z"/>
	<path class="st23" d="M2286.2,682.1c0,0,3.6,3.8,4.6,6.1c1,2.3,2.7,8.9,2.7,8.9s-1.7-9.9-2.7-12c-0.9-2.1-0.9-2.1-0.9-2.1
		s-0.3,0.7-1.5,0.2C2287.1,682.6,2286.2,682.1,2286.2,682.1z"/>
	<path class="st23" d="M2308.5,683.6c0,0,2.8,3.7,3,4.5c0.2,0.8,0.9,3,0.9,3l-0.4-6l-1.4,0.6L2308.5,683.6z"/>
</g>
</svg>
