<?xml version="1.0" encoding="utf-8"?>
<!-- Generator: Adobe Illustrator 21.1.0, SVG Export Plug-In . SVG Version: 6.00 Build 0)  -->
<svg version="1.1" xmlns="http://www.w3.org/2000/svg" xmlns:xlink="http://www.w3.org/1999/xlink" x="0px" y="0px"
	 viewBox="0 0 2500 2500" style="enable-background:new 0 0 2500 2500;" xml:space="preserve">
<style type="text/css">
	.st0{fill:#F8FBFF;}
	.st1{clip-path:url(#SVGID_2_);}
	.st2{fill:#D3DBF2;}
	.st3{fill:url(#SVGID_3_);}
	.st4{fill:url(#SVGID_4_);}
	.st5{fill:url(#SVGID_5_);}
	.st6{fill:url(#SVGID_6_);}
	.st7{fill:url(#SVGID_7_);}
	.st8{fill:url(#SVGID_8_);}
	.st9{fill:url(#SVGID_9_);}
	.st10{fill:url(#SVGID_10_);}
	.st11{fill:url(#SVGID_11_);}
	.st12{fill:#FFFFFF;}
	.st13{fill:url(#SVGID_12_);}
	.st14{fill:url(#SVGID_13_);}
	.st15{fill:#CDDBF7;}
	.st16{fill:url(#SVGID_14_);}
	.st17{fill:url(#SVGID_15_);}
	.st18{fill:url(#SVGID_16_);}
	.st19{fill:url(#SVGID_17_);}
	.st20{fill:url(#SVGID_18_);}
	.st21{fill:url(#SVGID_19_);}
	.st22{fill:url(#SVGID_20_);}
	.st23{fill:url(#SVGID_21_);}
	.st24{fill:url(#SVGID_22_);}
	.st25{fill:url(#SVGID_23_);}
	.st26{fill:url(#SVGID_24_);}
	.st27{fill:#3A1EFF;}
	.st28{fill:url(#SVGID_25_);}
	.st29{fill:url(#SVGID_26_);}
	.st30{fill:url(#SVGID_27_);}
	.st31{fill:url(#SVGID_28_);}
	.st32{fill:url(#SVGID_29_);}
	.st33{fill:url(#SVGID_30_);}
	.st34{fill:url(#SVGID_31_);}
	.st35{fill:#FF3969;}
	.st36{fill:none;}
	.st37{clip-path:url(#SVGID_33_);}
	.st38{fill:url(#SVGID_34_);}
	.st39{fill:url(#SVGID_35_);}
	.st40{fill:url(#SVGID_36_);}
	.st41{fill:url(#SVGID_37_);}
	.st42{fill:#EEF1F8;}
	.st43{fill:url(#SVGID_38_);}
	.st44{fill:url(#SVGID_39_);}
	.st45{fill:url(#SVGID_40_);}
	.st46{fill:url(#SVGID_41_);}
	.st47{fill:url(#SVGID_42_);}
	.st48{fill:url(#SVGID_43_);}
	.st49{fill:url(#SVGID_44_);}
	.st50{fill:url(#SVGID_45_);}
	.st51{fill:url(#SVGID_46_);}
	.st52{fill:url(#SVGID_47_);}
	.st53{fill:url(#SVGID_48_);}
	.st54{fill:url(#SVGID_49_);}
	.st55{fill:url(#SVGID_50_);}
	.st56{fill:url(#SVGID_51_);}
	.st57{fill:#F37ED9;}
	.st58{fill:url(#SVGID_52_);}
	.st59{fill:url(#SVGID_53_);}
	.st60{fill:url(#SVGID_54_);}
	.st61{fill:url(#SVGID_55_);}
	.st62{fill:url(#SVGID_56_);}
	.st63{fill:url(#SVGID_57_);}
	.st64{fill:url(#SVGID_58_);}
	.st65{fill:url(#SVGID_59_);}
	.st66{fill:url(#SVGID_60_);}
	.st67{fill:url(#SVGID_61_);}
	.st68{fill:url(#SVGID_62_);}
	.st69{fill:url(#SVGID_63_);}
	.st70{fill:url(#SVGID_64_);}
	.st71{fill:url(#SVGID_65_);}
	.st72{fill:url(#SVGID_66_);}
	.st73{fill:url(#SVGID_67_);}
	.st74{clip-path:url(#SVGID_69_);}
	.st75{fill:url(#SVGID_70_);}
	.st76{fill:url(#SVGID_71_);}
	.st77{fill:url(#SVGID_72_);}
	.st78{fill:url(#SVGID_73_);}
	.st79{fill:url(#SVGID_74_);}
	.st80{fill:url(#SVGID_75_);}
	.st81{fill:url(#SVGID_76_);}
	.st82{fill:url(#SVGID_77_);}
	.st83{fill:url(#SVGID_78_);}
	.st84{fill:url(#SVGID_79_);}
	.st85{fill:url(#SVGID_80_);}
	.st86{fill:url(#SVGID_81_);}
	.st87{fill:url(#SVGID_82_);}
	.st88{fill:url(#SVGID_83_);}
	.st89{fill:url(#SVGID_84_);}
	.st90{fill:url(#SVGID_85_);}
	.st91{fill:url(#SVGID_86_);}
	.st92{fill:url(#SVGID_87_);}
	.st93{fill:url(#SVGID_88_);}
	.st94{fill:url(#SVGID_89_);}
	.st95{fill:url(#SVGID_90_);}
	.st96{fill:url(#SVGID_91_);}
	.st97{fill:url(#SVGID_92_);}
	.st98{fill:url(#SVGID_93_);}
	.st99{clip-path:url(#SVGID_95_);}
	.st100{fill:url(#SVGID_96_);}
	.st101{fill:url(#SVGID_97_);}
	.st102{fill:url(#SVGID_98_);}
	.st103{fill:url(#SVGID_99_);}
	.st104{fill:url(#SVGID_100_);}
	.st105{fill:url(#SVGID_101_);}
	.st106{fill:url(#SVGID_102_);}
	.st107{fill:url(#SVGID_103_);}
	.st108{fill:url(#SVGID_104_);}
	.st109{fill:url(#SVGID_105_);}
	.st110{fill:url(#SVGID_106_);}
	.st111{fill:url(#SVGID_107_);}
	.st112{fill:url(#SVGID_108_);}
	.st113{fill:url(#SVGID_109_);}
	.st114{fill:url(#SVGID_110_);}
	.st115{fill:url(#SVGID_111_);}
	.st116{fill:url(#SVGID_112_);}
	.st117{fill:url(#SVGID_113_);}
	.st118{fill:url(#SVGID_114_);}
	.st119{fill:url(#SVGID_115_);}
	.st120{fill:url(#SVGID_116_);}
	.st121{fill:url(#SVGID_117_);}
	.st122{fill:url(#SVGID_118_);}
	.st123{fill:url(#SVGID_119_);}
</style>
<g id="_x31_">
	<g>
		<g>
			<path class="st0" d="M114.3,673.7h1141c61.3,0,101.9,53.4,75.5,99.6C1272,876.4,1121,1022.6,738,1022.6
				c-530.1,0-662-171.7-693.5-274.2C32.8,710.5,67.5,673.7,114.3,673.7z"/>
			<g>
				<defs>
					<path id="SVGID_1_" d="M35.8,673.7h1331.9c0,0-38,348.9-629.7,348.9C-17.5,1022.6,35.8,673.7,35.8,673.7z"/>
				</defs>
				<clipPath id="SVGID_2_">
					<use xlink:href="#SVGID_1_"  style="overflow:visible;"/>
				</clipPath>
				<g class="st1">
					<path class="st2" d="M332.4,1030.8c-1.2,0-2.2-0.8-2.5-2l-82.2-354.5c-0.3-1.4,0.5-2.8,1.9-3.1c1.4-0.3,2.8,0.5,3.1,1.9
						l82.2,354.5c0.3,1.4-0.5,2.8-1.9,3.1C332.8,1030.7,332.6,1030.8,332.4,1030.8z"/>
					<path class="st2" d="M1164.9,1010.8c-1,0-2-0.6-2.4-1.6l-135.7-334.5c-0.5-1.3,0.1-2.8,1.4-3.4c1.3-0.5,2.8,0.1,3.4,1.4
						l135.7,334.5c0.5,1.3-0.1,2.8-1.4,3.4C1165.5,1010.7,1165.2,1010.8,1164.9,1010.8z"/>
					<path class="st2" d="M439.6,1025.1c-1.4,0-2.6-1.2-2.6-2.6V673.7c0-1.4,1.2-2.6,2.6-2.6c1.4,0,2.6,1.2,2.6,2.6v348.9
						C442.2,1024,441,1025.1,439.6,1025.1z"/>
					<path class="st2" d="M526.3,1066.2c-0.3,0-0.7-0.1-1-0.2c-1.3-0.5-2-2.1-1.4-3.4l159.6-389.9c0.5-1.3,2.1-2,3.4-1.4
						c1.3,0.5,2,2.1,1.4,3.4l-159.6,389.9C528.3,1065.6,527.3,1066.2,526.3,1066.2z"/>
					<path class="st2" d="M727.9,1025.1c-0.2,0-0.4,0-0.5-0.1c-1.4-0.3-2.3-1.7-2-3.1l74.2-348.9c0.3-1.4,1.7-2.3,3.1-2
						c1.4,0.3,2.3,1.7,2,3.1l-74.2,348.9C730.1,1024.3,729.1,1025.1,727.9,1025.1z"/>
					<path class="st2" d="M960,1019.5c-1.3,0-2.4-0.9-2.6-2.2L912,674c-0.2-1.4,0.8-2.7,2.2-2.9c1.4-0.2,2.7,0.8,2.9,2.2l45.4,343.2
						c0.2,1.4-0.8,2.7-2.2,2.9C960.2,1019.5,960.1,1019.5,960,1019.5z"/>
					<path class="st2" d="M1330.8,1010.8c-0.9,0-1.8-0.5-2.3-1.4l-182-334.5c-0.7-1.3-0.2-2.8,1-3.5c1.3-0.7,2.8-0.2,3.5,1
						l182,334.5c0.7,1.3,0.2,2.8-1,3.5C1331.6,1010.7,1331.2,1010.8,1330.8,1010.8z"/>
					<path class="st2" d="M152.6,1038.1c-1.4,0-2.6-1.2-2.6-2.6V673.7c0-1.4,1.2-2.6,2.6-2.6c1.4,0,2.6,1.2,2.6,2.6v361.8
						C155.2,1036.9,154,1038.1,152.6,1038.1z"/>
				</g>
			</g>
		</g>
		<rect x="150.4" y="247.8" class="st0" width="5.2" height="424.2"/>
		<rect x="254.4" y="142.2" class="st0" width="5.2" height="529.7"/>
		<rect x="362.2" y="104.9" class="st0" width="5.2" height="567"/>
		<rect x="466.3" y="62.8" class="st0" width="5.2" height="609.2"/>
		<rect x="577.1" y="62.8" class="st0" width="5.2" height="609.2"/>
		<rect x="681.1" y="62.8" class="st0" width="5.2" height="609.2"/>
		<rect x="789" y="62.8" class="st0" width="5.2" height="609.2"/>
		<rect x="893" y="62.8" class="st0" width="5.2" height="609.2"/>
		<rect x="1003.8" y="62.8" class="st0" width="5.2" height="609.2"/>
		<rect x="1114.7" y="104.9" class="st0" width="5.2" height="567"/>
		<rect x="1223.6" y="160.5" class="st0" width="5.2" height="609.2"/>
		<linearGradient id="SVGID_3_" gradientUnits="userSpaceOnUse" x1="1138.4718" y1="558.0906" x2="1138.4718" y2="428.4237">
			<stop  offset="0" style="stop-color:#EBF3FF"/>
			<stop  offset="1" style="stop-color:#EEF1F8"/>
		</linearGradient>
		<rect x="1065.5" y="428.4" class="st3" width="146" height="129.7"/>
		<linearGradient id="SVGID_4_" gradientUnits="userSpaceOnUse" x1="468.9757" y1="540.4907" x2="468.9757" y2="425.2267">
			<stop  offset="0" style="stop-color:#EBF3FF"/>
			<stop  offset="1" style="stop-color:#EEF1F8"/>
		</linearGradient>
		<polygon class="st4" points="343.2,472.8 343.2,425.2 594.7,425.2 594.7,540.5 343.7,540.5 		"/>
		<linearGradient id="SVGID_5_" gradientUnits="userSpaceOnUse" x1="726.4321" y1="539.905" x2="726.4321" y2="424.641">
			<stop  offset="0" style="stop-color:#EBF3FF"/>
			<stop  offset="1" style="stop-color:#EEF1F8"/>
		</linearGradient>
		<polygon class="st5" points="600.7,472.3 600.7,424.6 852.2,424.6 852.2,539.9 601.2,539.9 		"/>
		<linearGradient id="SVGID_6_" gradientUnits="userSpaceOnUse" x1="601.0886" y1="671.9716" x2="601.0886" y2="490.1467">
			<stop  offset="0" style="stop-color:#EBF3FF"/>
			<stop  offset="1" style="stop-color:#EEF1F8"/>
		</linearGradient>
		<polygon class="st6" points="285.8,672 916.3,672 916.3,490.1 863.4,490.1 863.4,615.7 332.5,615.7 332.5,490.1 285.8,490.1 		"/>
		<linearGradient id="SVGID_7_" gradientUnits="userSpaceOnUse" x1="340.6446" y1="578.3132" x2="854.5628" y2="578.3132">
			<stop  offset="0" style="stop-color:#EBF3FF"/>
			<stop  offset="1" style="stop-color:#EEF1F8"/>
		</linearGradient>
		<rect x="340.6" y="551.3" class="st7" width="513.9" height="54.1"/>
		<linearGradient id="SVGID_8_" gradientUnits="userSpaceOnUse" x1="1041.5898" y1="671.9597" x2="1041.5898" y2="509.9603">
			<stop  offset="0" style="stop-color:#EBF3FF"/>
			<stop  offset="1" style="stop-color:#EEF1F8"/>
		</linearGradient>
		<polygon class="st8" points="1058.7,546.4 1058.7,510 1024.5,510 1024.5,672 1058.7,672 1058.7,567.1 		"/>
		<linearGradient id="SVGID_9_" gradientUnits="userSpaceOnUse" x1="1138.4718" y1="671.9595" x2="1138.4718" y2="509.9608">
			<stop  offset="0" style="stop-color:#EBF3FF"/>
			<stop  offset="1" style="stop-color:#EEF1F8"/>
		</linearGradient>
		<polygon class="st9" points="1144.8,567.1 1132.1,567.1 1065.5,567.1 1065.5,621.3 1132.1,621.3 1144.8,621.3 1211.5,621.3 
			1211.5,567.1 		"/>
		<linearGradient id="SVGID_10_" gradientUnits="userSpaceOnUse" x1="1235.3539" y1="671.9597" x2="1235.3539" y2="509.9603">
			<stop  offset="0" style="stop-color:#EBF3FF"/>
			<stop  offset="1" style="stop-color:#EEF1F8"/>
		</linearGradient>
		<polygon class="st10" points="1218.3,510 1218.3,560 1218.3,560 1218.3,672 1252.4,672 1252.4,510 		"/>
		<linearGradient id="SVGID_11_" gradientUnits="userSpaceOnUse" x1="967.7161" y1="205.5504" x2="877.9009" y2="205.5504">
			<stop  offset="0" style="stop-color:#EBF3FF"/>
			<stop  offset="1" style="stop-color:#EEF1F8"/>
		</linearGradient>
		<rect x="877.9" y="163.3" class="st11" width="89.8" height="84.5"/>
		<rect x="886.7" y="171.4" class="st12" width="72.1" height="68.3"/>
		<linearGradient id="SVGID_12_" gradientUnits="userSpaceOnUse" x1="865.8796" y1="176.3561" x2="759.7499" y2="176.3561">
			<stop  offset="0" style="stop-color:#EBF3FF"/>
			<stop  offset="1" style="stop-color:#EEF1F8"/>
		</linearGradient>
		<rect x="759.7" y="104.9" class="st13" width="106.1" height="142.9"/>
		<rect x="767.6" y="113.1" class="st12" width="90.3" height="126.6"/>
		<linearGradient id="SVGID_13_" gradientUnits="userSpaceOnUse" x1="714.3416" y1="263.5696" x2="1017.4178" y2="263.5696">
			<stop  offset="0" style="stop-color:#EBF3FF"/>
			<stop  offset="1" style="stop-color:#EEF1F8"/>
		</linearGradient>
		<rect x="714.3" y="257.6" class="st14" width="303.1" height="12"/>
		<rect x="54.6" y="671.2" class="st15" width="1325.1" height="5.2"/>
		<g>
			<linearGradient id="SVGID_14_" gradientUnits="userSpaceOnUse" x1="1197.3462" y1="828.817" x2="98.8525" y2="828.817">
				<stop  offset="0" style="stop-color:#6B75FF"/>
				<stop  offset="1" style="stop-color:#4134F4"/>
			</linearGradient>
			<polygon class="st16" points="98.9,864.9 1197.3,864.9 1123.5,792.7 209.7,792.7 			"/>
			<linearGradient id="SVGID_15_" gradientUnits="userSpaceOnUse" x1="272.7791" y1="729.7411" x2="311.9003" y2="729.7411">
				<stop  offset="0" style="stop-color:#AEC7F0"/>
				<stop  offset="1" style="stop-color:#98B9EA"/>
			</linearGradient>
			<path class="st17" d="M302,799.9l9.9-0.3c-17.2-4.9-16.7-26.4-16.7-26.4l0.1-113.5l-15.4-0.1c-3.9,0-7.1,3.2-7.1,7.1v104.2
				c0,2.4,0.3,4.9,0.9,7.2c0.3,1.2,0.7,2.6,1.3,4.1C279.2,793.3,290.2,800.2,302,799.9z"/>
			<linearGradient id="SVGID_16_" gradientUnits="userSpaceOnUse" x1="284.0883" y1="729.5967" x2="341.3235" y2="729.5967">
				<stop  offset="0" style="stop-color:#CDDBF7"/>
				<stop  offset="1" style="stop-color:#EEF1F8"/>
			</linearGradient>
			<path class="st18" d="M328,667.1c0,0-9.9-5.7-31.2-7.5c-6.9-0.6-12.7,4.9-12.7,11.8v98c0,5.5,1.2,11,3.7,15.8
				c3.6,6.8,10.6,14.3,23.7,14.3c19.8,0-15-49.6,29.8-83.5C341.3,716.1,320.1,693.7,328,667.1z"/>
			<linearGradient id="SVGID_17_" gradientUnits="userSpaceOnUse" x1="325.882" y1="690.3982" x2="361.689" y2="690.3982">
				<stop  offset="0" style="stop-color:#F8B795"/>
				<stop  offset="1" style="stop-color:#F7C8A4"/>
			</linearGradient>
			<path class="st19" d="M339.1,713.7l22.6-1.1l-2.8-39.1c-19.4-1-30.9-6.5-30.9-6.5S318.8,692.3,339.1,713.7z"/>
			<linearGradient id="SVGID_18_" gradientUnits="userSpaceOnUse" x1="224.9294" y1="777.1239" x2="267.1099" y2="777.1239">
				<stop  offset="0" style="stop-color:#AEC7F0"/>
				<stop  offset="1" style="stop-color:#98B9EA"/>
			</linearGradient>
			<path class="st20" d="M256.4,852.7l10.7-0.3c-18.5-5.3-18-28.4-18-28.4l0.1-122.4l-16.6-0.1c-4.2,0-7.6,3.4-7.6,7.6v112.4
				c0,2.6,0.3,5.2,0.9,7.8c0.3,1.3,0.8,2.8,1.4,4.4C231.8,845.6,243.7,853.1,256.4,852.7z"/>
			<linearGradient id="SVGID_19_" gradientUnits="userSpaceOnUse" x1="237.123" y1="776.9681" x2="298.8338" y2="776.9681">
				<stop  offset="0" style="stop-color:#CDDBF7"/>
				<stop  offset="1" style="stop-color:#EEF1F8"/>
			</linearGradient>
			<path class="st21" d="M284.5,709.6c0,0-10.7-6.2-33.7-8c-7.4-0.6-13.7,5.3-13.7,12.7v105.7c0,5.9,1.2,11.8,4,17
				c3.9,7.4,11.4,15.4,25.6,15.4c21.3,0-16.2-53.4,32.1-90C298.8,762.4,275.9,738.2,284.5,709.6z"/>
			<linearGradient id="SVGID_20_" gradientUnits="userSpaceOnUse" x1="282.7385" y1="736.0001" x2="323.6454" y2="736.0001">
				<stop  offset="0" style="stop-color:#F7C8A4"/>
				<stop  offset="1" style="stop-color:#FED6B4"/>
			</linearGradient>
			<path class="st22" d="M284.5,709.6c0,0-9.2,28,14.3,52.8h24.8l-3.7-50.7C291.9,717.8,284.5,709.6,284.5,709.6z"/>
			<linearGradient id="SVGID_21_" gradientUnits="userSpaceOnUse" x1="942.879" y1="756.5691" x2="1122.5066" y2="756.5691">
				<stop  offset="0" style="stop-color:#F8B795"/>
				<stop  offset="1" style="stop-color:#F7C8A4"/>
			</linearGradient>
			<path class="st23" d="M1083.1,743.1c-5.9,14-17.9,17-23.4,17.6c-14.3,0.7-34.6,1.1-48.1-1.7c-22.9-4.7-19.9-38-19.9-38
				S973,736,945,734.6c0,0-12.7,57,24.2,57.5c36.9,0.4,123-9.3,123-9.3l-5.8-8.7c16.4,5.5,33.9,7.6,35.9-7.6
				C1126,737.2,1090.9,724.5,1083.1,743.1z"/>
			<linearGradient id="SVGID_22_" gradientUnits="userSpaceOnUse" x1="351.7579" y1="681.7484" x2="774.2623" y2="681.7484">
				<stop  offset="0" style="stop-color:#6B75FF"/>
				<stop  offset="1" style="stop-color:#4134F4"/>
			</linearGradient>
			<path class="st24" d="M757.2,716.3c0,0-74.2,31.4-395.4,3.5c0,0-17.9-10.7-5.8-46.3c0,0,238.2,2.2,283.9-24.9
				c32.1-19,92.9-24.8,132.3,1.3C772.2,649.8,782.5,685,757.2,716.3z"/>
			<linearGradient id="SVGID_23_" gradientUnits="userSpaceOnUse" x1="315.417" y1="709.1117" x2="775.8151" y2="709.1117">
				<stop  offset="0" style="stop-color:#758CF4"/>
				<stop  offset="1" style="stop-color:#594EFF"/>
			</linearGradient>
			<path class="st25" d="M757.5,762.4c0,0-77.3,45.5-433.9,0c0,0-15.8-15.1-3.7-50.7c0,0,274.7-17.4,318.6-47.3
				c43.9-29.9,84.6-39.4,133.6-14.6C772.2,649.8,786.8,729.3,757.5,762.4z"/>
			<linearGradient id="SVGID_24_" gradientUnits="userSpaceOnUse" x1="1151.2109" y1="566.0912" x2="935.3688" y2="781.9333">
				<stop  offset="0" style="stop-color:#F7E2C4"/>
				<stop  offset="1" style="stop-color:#FED6B4"/>
			</linearGradient>
			<path class="st26" d="M936.5,599.7c0,0,44.2-23,82.1,1.1c32.6,20.8,58.3-4.7,67.2-17.8c8.9-13.1,59.8-24.2,95,12.7
				c35.2,36.9-29.5,83.1-70,91.4c-40.5,8.3-22.9-25.2-48.1-25.2c-25.2,0-52.4,120.9-46.4,124.3c5.9,3.4,42.4-1.3,53.4-16.5
				c11-15.3,21.6-39.2,43.5-19.3c21.8,19.9,1.3,41.1-28.4,49.8c-29.7,8.7-53.2,29.7-95.9,28.6c-42.6-1.1-13.5-138.1-13.5-138.1
				S933.1,659.7,936.5,599.7z"/>
			<path class="st27" d="M1143.9,634.9c0,0,21.9,16.7,33.7,13.6c0,0,14.9-0.6,11.4-3.4C1183.6,640.6,1176,651.7,1143.9,634.9z"/>
			<linearGradient id="SVGID_25_" gradientUnits="userSpaceOnUse" x1="1192.007" y1="659.7952" x2="1053.4801" y2="521.2683">
				<stop  offset="0" style="stop-color:#6B75FF"/>
				<stop  offset="1" style="stop-color:#4134F4"/>
			</linearGradient>
			<path class="st28" d="M1195.4,594c-9.9-21.2-34.5-38.9-60.2-42l0,0c0,0-0.2,0-0.7,0c-1-0.1-2-0.2-2.9-0.3
				c-5.5-0.7-15.2-2.6-13.5-7.9c0.1-0.1,0.1-0.3,0.2-0.4c0.1-0.1,0.1-0.3,0.2-0.4c0.2-0.4,0.3-0.7,0.3-1c1.2-3.4,1.9-7,1.9-10.8
				c0-17.7-14.3-32-32-32c-17.7,0-32,14.3-32,32c0,14.7,9.9,27,23.4,30.8c2,1.4,4.9,5.5-1.6,17.1c0,0,0,0.1-0.1,0.1
				c-1,1.5-1.9,3-2.9,4.7c-2.2,4-4.8,7.8-7.5,11.4l-6.6,8.4c0,0,16.9,1.8,25.2-8.1c9.3-11.2,29.7-6.9,29.2,6.9
				c-0.5,13.8-13.7,22.5-13.7,22.5s19.1-10.2,29.9,0c10.8,10.2,34.9,26.9,45.6,23.3c0,0-1.9,3.3-9.4,9.7
				c-11.2,9.6-17.2,12.2-17.2,12.2s22.8,2.6,35.8-6.6C1205,650.9,1213.1,632,1195.4,594z"/>
			<linearGradient id="SVGID_26_" gradientUnits="userSpaceOnUse" x1="942.5187" y1="710.6556" x2="1122.3362" y2="710.6556">
				<stop  offset="0" style="stop-color:#F7C8A4"/>
				<stop  offset="1" style="stop-color:#FED6B4"/>
			</linearGradient>
			<path class="st29" d="M1090,592.6c-3.3,7.9-8.9,9.6-18.6,19.9c-13.1,13.8-27.5,17.9-37.8,7.1c-5.8-6-19.2-10.6-30.4-14
				c-51.3-15.9-55.1,30.7-44.5,51.7c10.4,20.6,16.7,33.4,16.7,33.4s-0.2,91.3,7,106.4c11.9,24.7,83.3,6.6,109.7-11.9
				c26-18.2,23.8-32.3,12.4-40.8c0,0,13,5.8,16.8,17.8c3.8,12-4.4,20.5-11.5,25.8c-7.1,5.3-21.3,11.9-28,13
				c-6.7,1.1-46.5,22.8-65.7,25.3c-19.1,2.4-34.8,8.2-42.8-7.6c-8-15.8-8.7-44.5-7.1-62.4c1.6-18,7.8-66.8,7.8-66.8
				s-41.1-37.4-29.6-72.3c11.5-34.9,56.2-25.8,68.2-18.3c12,7.5,32.2,14.5,49.5,5.2c0,0,10.7,0.4,16.9-2.8c3-1.5,5.4-2.7,7.1-5.2
				C1087.7,594.1,1090,592.6,1090,592.6z"/>
			<g>
				<linearGradient id="SVGID_27_" gradientUnits="userSpaceOnUse" x1="737.5274" y1="675.8752" x2="1050.5577" y2="675.8752">
					<stop  offset="0" style="stop-color:#FF486B"/>
					<stop  offset="1" style="stop-color:#FF3969"/>
				</linearGradient>
				<path class="st30" d="M952.5,590.5c-8,2.1-15.8,5-23.4,8.5c-21.6,9.9-92.5,38.1-188.8,31c-2.1-0.2-3.5,2.1-2.4,3.8
					c9.5,15.4,35.4,75,17.4,128.5c-0.7,2,1.2,3.9,3.2,3.2c21.3-7.2,109.3-39.1,149.2-34.2c25.8,3.2,44.8,5,61,1.3l6.7-41.9l0,0
					c-11.8-11.6-24.5-28.1-32.3-49.9c-7.6-36.9,27.7-47.9,36.4-48.2c72.7-4.4,66.2,85.2,66.2,85.2l4.9-7.5
					C1051.4,648.3,1044.6,566.5,952.5,590.5z"/>
			</g>
			<linearGradient id="SVGID_28_" gradientUnits="userSpaceOnUse" x1="975.3919" y1="672.669" x2="931.2446" y2="672.669">
				<stop  offset="0" style="stop-color:#E8185D"/>
				<stop  offset="1" style="stop-color:#FF3969"/>
			</linearGradient>
			<path class="st31" d="M946.7,612.8c0,0-19.5,25.3,28.7,77.9l-6.7,41.9C968.7,732.6,901.9,658.3,946.7,612.8z"/>
			<linearGradient id="SVGID_29_" gradientUnits="userSpaceOnUse" x1="1151.4624" y1="671.2611" x2="1191.1846" y2="648.3275">
				<stop  offset="0" style="stop-color:#2C2CCE"/>
				<stop  offset="1" style="stop-color:#5B5BFF"/>
			</linearGradient>
			<path class="st32" d="M1177.6,648.5c0,0-15.2,15.5-26.6,21.9c0,0,44.8-4.8,39.5-22.9C1188.1,639.4,1177.6,648.5,1177.6,648.5z"/>
			<linearGradient id="SVGID_30_" gradientUnits="userSpaceOnUse" x1="1061.4781" y1="603.8514" x2="1120.7534" y2="603.8514">
				<stop  offset="0" style="stop-color:#2C2CCE"/>
				<stop  offset="1" style="stop-color:#4134F4"/>
			</linearGradient>
			<path class="st33" d="M1114.4,589.8c-22-17.9-38.6,2.6-38.6,2.6l0,0c-0.5,0.5-1.1,1.1-1.5,1.7c-2.8,3.6-12.7,9.6-12.7,9.6
				c8.3,1.2,20.6-1.9,24.6-7.4c2.8-3.9,6.8-5.7,9.9-6.4c0.2,0,0.4-0.1,0.5-0.1c2.4-0.6,4.2-0.5,4.2-0.5c-0.1,0-0.1,0-0.2-0.1
				c6-0.2,9.6,2.7,11.6,4.2c2.4,1.8,5.3,8.2,2.4,16.1c-2.9,7.9-12.4,15.7-12.4,15.7C1106.7,622.9,1132.5,604.6,1114.4,589.8z"/>
			<linearGradient id="SVGID_31_" gradientUnits="userSpaceOnUse" x1="1056.6617" y1="535.2134" x2="1100.6556" y2="535.2134">
				<stop  offset="0" style="stop-color:#2C2CCE"/>
				<stop  offset="1" style="stop-color:#4134F4"/>
			</linearGradient>
			<path class="st34" d="M1059.9,545c0,0,11.7,29,40.8,12.5c0,0-11.6,1.1-22.6-4.9c-21.4-11.6-1.6-57.9-14.4-41.2
				C1056,521.4,1054.5,533.6,1059.9,545z"/>
			<path class="st35" d="M1126.3,546.3L1126.3,546.3c-0.4-2.4-3-3.7-5.1-2.6l-23.1,11l0,0l-21.1,10c-2.2,1-2.8,3.8-1.2,5.6l0,0
				c0.7,0.8,1.9,1.1,2.9,0.6l24.3-11.8l21.9-10.2C1126,548.4,1126.5,547.3,1126.3,546.3z"/>
		</g>
		<rect x="254.4" y="556.9" class="st36" width="513.9" height="54.1"/>
	</g>
</g>
<g id="_x32_">
	<g>
		<g>
			<path class="st0" d="M1380.9,1037.4H2353c52.3,0,86.8,47.1,64.4,87.9c-50.2,91-178.8,220.1-505.1,220.1
				c-451.6,0-564-151.6-590.8-242.1C1311.6,1069.9,1341,1037.4,1380.9,1037.4z"/>
			<g>
				<defs>
					<path id="SVGID_32_" d="M1314.1,1037.4h1134.6c0,0-32.4,308-536.5,308C1268.6,1345.5,1314.1,1037.4,1314.1,1037.4z"/>
				</defs>
				<clipPath id="SVGID_33_">
					<use xlink:href="#SVGID_32_"  style="overflow:visible;"/>
				</clipPath>
				<g class="st37">
					<path class="st2" d="M1564.6,1360.7c-1.2,0-2.3-0.8-2.5-2.1l-67.9-320.6c-0.3-1.4,0.6-2.8,2-3.1c1.4-0.3,2.8,0.6,3.1,2
						l67.9,320.6c0.3,1.4-0.6,2.8-2,3.1C1565,1360.7,1564.8,1360.7,1564.6,1360.7z"/>
					<path class="st2" d="M2276,1335.4c-1,0-2-0.6-2.4-1.6l-115.6-295.3c-0.5-1.3,0.1-2.8,1.5-3.4c1.3-0.5,2.8,0.1,3.4,1.5
						l115.6,295.3c0.5,1.3-0.1,2.8-1.5,3.4C2276.6,1335.3,2276.3,1335.4,2276,1335.4z"/>
					<path class="st2" d="M1658.1,1348c-1.4,0-2.6-1.2-2.6-2.6v-308c0-1.4,1.2-2.6,2.6-2.6c1.4,0,2.6,1.2,2.6,2.6v308
						C1660.7,1346.9,1659.5,1348,1658.1,1348z"/>
					<path class="st2" d="M1731.6,1387.5c-0.3,0-0.6-0.1-0.9-0.2c-1.3-0.5-2-2-1.5-3.4l136.3-347.4c0.5-1.3,2-2,3.4-1.5
						c1.3,0.5,2,2,1.5,3.4L1734,1385.8C1733.6,1386.9,1732.7,1387.5,1731.6,1387.5z"/>
					<path class="st2" d="M1903.7,1348c-0.2,0-0.3,0-0.5-0.1c-1.4-0.3-2.3-1.7-2-3.1l63.2-308c0.3-1.4,1.6-2.3,3.1-2
						c1.4,0.3,2.3,1.7,2,3.1l-63.2,308C1905.9,1347.2,1904.9,1348,1903.7,1348z"/>
					<path class="st2" d="M2101.4,1343c-1.3,0-2.4-1-2.6-2.3l-38.7-303c-0.2-1.4,0.8-2.7,2.2-2.9c1.4-0.2,2.7,0.8,2.9,2.2l38.7,303
						c0.2,1.4-0.8,2.7-2.2,2.9C2101.6,1343,2101.5,1343,2101.4,1343z"/>
					<path class="st2" d="M2417.3,1335.4c-0.9,0-1.8-0.5-2.3-1.4L2260,1038.7c-0.7-1.3-0.2-2.8,1.1-3.5c1.3-0.7,2.8-0.2,3.5,1.1
						l155.1,295.3c0.7,1.3,0.2,2.8-1.1,3.5C2418.1,1335.3,2417.7,1335.4,2417.3,1335.4z"/>
					<path class="st2" d="M1413.6,1359.4c-1.4,0-2.6-1.2-2.6-2.6v-319.4c0-1.4,1.2-2.6,2.6-2.6c1.4,0,2.6,1.2,2.6,2.6v319.4
						C1416.2,1358.3,1415,1359.4,1413.6,1359.4z"/>
				</g>
			</g>
		</g>
		<g>
			<rect x="1595.8" y="372.3" class="st0" width="5.2" height="711.7"/>
			<rect x="1708" y="372.3" class="st0" width="5.2" height="711.7"/>
			<rect x="1807.3" y="740.7" class="st0" width="5.2" height="343.2"/>
			<rect x="1924.4" y="740.7" class="st0" width="5.2" height="343.2"/>
			<rect x="2034.9" y="740.7" class="st0" width="5.2" height="343.2"/>
			<rect x="2255.9" y="372.3" class="st0" width="5.2" height="711.7"/>
			<rect x="2366.5" y="372.3" class="st0" width="5.2" height="711.7"/>
			<linearGradient id="SVGID_34_" gradientUnits="userSpaceOnUse" x1="1988.4486" y1="511.5453" x2="2040.934" y2="511.5453">
				<stop  offset="0" style="stop-color:#EBF3FF"/>
				<stop  offset="1" style="stop-color:#EEF1F8"/>
			</linearGradient>
			<path class="st38" d="M1988.4,518.9h52.5c0,0-1-14.7-14.2-14.7c-13.1,0-14,7.4-24.6,7.4C1991.5,511.5,1988.4,518.9,1988.4,518.9z
				"/>
			<linearGradient id="SVGID_35_" gradientUnits="userSpaceOnUse" x1="1805.7114" y1="651.279" x2="2145.6614" y2="651.279">
				<stop  offset="0" style="stop-color:#CDDBF7"/>
				<stop  offset="1" style="stop-color:#FFFFFF"/>
			</linearGradient>
			<path class="st39" d="M1805.7,626.1c0,0,83.3-36,186.6-12.7c117.8,26.6,153.4,0.2,153.4,0.2l-13.8,83.3L1805.7,626.1z"/>
			<linearGradient id="SVGID_36_" gradientUnits="userSpaceOnUse" x1="2169.2107" y1="673.731" x2="1807.6864" y2="673.731">
				<stop  offset="0" style="stop-color:#EBF3FF"/>
				<stop  offset="1" style="stop-color:#EEF1F8"/>
			</linearGradient>
			<path class="st40" d="M1807.7,625.9c0,0,117.5-1,198.8,34.9c81.3,35.9,162.7,32,162.7,32v28.9h-361.5V625.9z"/>
			<g>
				
					<linearGradient id="SVGID_37_" gradientUnits="userSpaceOnUse" x1="9744.1885" y1="640.0061" x2="9744.1885" y2="484.3006" gradientTransform="matrix(-1 0 0 1 11634.7451 0)">
					<stop  offset="0" style="stop-color:#CDDBF7"/>
					<stop  offset="1" style="stop-color:#EEF1F8"/>
				</linearGradient>
				<path class="st41" d="M1887.9,640c0,0,44.4-3.1,39.5-40.2c-4.2-31.6-23.3-17.3-20.7-53.1c2.6-35.8,27.9-48.8,12.9-60.5
					c-12.2-9.5-45.8,16.3-50,58.1C1865.5,586.1,1825.8,634,1887.9,640z"/>
				<path class="st42" d="M1887.9,641c-0.5,0-1-0.4-1-0.9c0-0.3-1-29.1,1.3-80.4c2.4-51.7,27.5-73.1,27.8-73.3
					c0.4-0.3,1-0.3,1.4,0.1c0.3,0.4,0.3,1-0.1,1.4c-0.2,0.2-24.8,21.2-27.1,71.9c-2.4,51.2-1.3,80-1.3,80.3
					C1888.9,640.5,1888.5,641,1887.9,641C1888,641,1887.9,641,1887.9,641z"/>
				<path class="st42" d="M1887.9,601.5c-0.3,0-0.5-0.1-0.7-0.3c-0.4-0.4-0.3-1,0-1.4l18.9-17.6c0.4-0.4,1-0.3,1.4,0
					c0.4,0.4,0.3,1,0,1.4l-18.9,17.6C1888.4,601.5,1888.1,601.5,1887.9,601.5z"/>
				<path class="st42" d="M1887.7,626.4c-0.3,0-0.6-0.1-0.8-0.4l-19.5-24c-0.3-0.4-0.3-1,0.1-1.4c0.4-0.3,1-0.3,1.4,0.1l19.5,24
					c0.3,0.4,0.3,1-0.1,1.4C1888.1,626.3,1887.9,626.4,1887.7,626.4z"/>
				<path class="st42" d="M1896.1,522.6c-0.4,0-0.7-0.2-0.9-0.6c-0.2-0.5,0-1.1,0.5-1.3l12.3-5.5c0.5-0.2,1.1,0,1.3,0.5
					c0.2,0.5,0,1.1-0.5,1.3l-12.3,5.5C1896.3,522.6,1896.2,522.6,1896.1,522.6z"/>
			</g>
			<g>
				
					<linearGradient id="SVGID_38_" gradientUnits="userSpaceOnUse" x1="1900.6609" y1="684.7344" x2="1900.6609" y2="572.5583" gradientTransform="matrix(1 0 0 1 156.4176 0)">
					<stop  offset="0" style="stop-color:#CDDBF7"/>
					<stop  offset="1" style="stop-color:#EEF1F8"/>
				</linearGradient>
				<path class="st43" d="M2059.2,684.7c0,0-38.7-8.1-29.8-33c4.5-12.7,12.2-7.3,10.3-32.6c-1.9-25.3-12.7-40.2,0-45.5
					c12.6-5.3,27.1,11,32.9,43.4C2076.2,637.2,2108,680.1,2059.2,684.7z"/>
				<path class="st42" d="M2059.2,685.7C2059.2,685.7,2059.2,685.7,2059.2,685.7c-0.6,0-1-0.5-1-1c0-0.2,0.7-20.6-1-56.8
					c-1.7-35.8-19.6-50.6-19.7-50.7c-0.4-0.3-0.5-0.9-0.1-1.4c0.3-0.4,1-0.5,1.4-0.1c0.8,0.6,18.7,15.4,20.5,52.1
					c1.7,36.3,1,56.8,1,57C2060.2,685.3,2059.7,685.7,2059.2,685.7z"/>
				<path class="st42" d="M2059.2,657.8c-0.2,0-0.5-0.1-0.6-0.2l-13.9-12.5c-0.4-0.4-0.4-1-0.1-1.4c0.4-0.4,1-0.4,1.4-0.1l13.9,12.5
					c0.4,0.4,0.4,1,0.1,1.4C2059.7,657.7,2059.5,657.8,2059.2,657.8z"/>
				<path class="st42" d="M2059.4,675.4c-0.2,0-0.4-0.1-0.6-0.2c-0.4-0.3-0.5-1-0.1-1.4l14.3-17c0.3-0.4,1-0.5,1.4-0.1
					c0.4,0.3,0.5,1,0.1,1.4l-14.3,17C2059.9,675.3,2059.6,675.4,2059.4,675.4z"/>
				<path class="st42" d="M2053.3,601.9c-0.1,0-0.3,0-0.4-0.1l-9-3.9c-0.5-0.2-0.7-0.8-0.5-1.3c0.2-0.5,0.8-0.7,1.3-0.5l9,3.9
					c0.5,0.2,0.7,0.8,0.5,1.3C2054,601.7,2053.6,601.9,2053.3,601.9z"/>
			</g>
			<linearGradient id="SVGID_39_" gradientUnits="userSpaceOnUse" x1="1771.8087" y1="562.1533" x2="2184.9507" y2="562.1533">
				<stop  offset="0" style="stop-color:#CDDBF7"/>
				<stop  offset="1" style="stop-color:#A8C3EE"/>
			</linearGradient>
			<path class="st44" d="M1771.8,372.3v379.8H2185V372.3H1771.8z M2149.1,558.4h-168.2V402.7h168.2V558.4z M1973.4,402.7v155.7
				h-165.7V402.7H1973.4z M1807.7,721.6V565.9h165.7v155.7H1807.7z M1980.9,721.6V565.9h168.2v155.7H1980.9z"/>
			<linearGradient id="SVGID_40_" gradientUnits="userSpaceOnUse" x1="1957.6517" y1="827.0104" x2="2212.3892" y2="385.7922">
				<stop  offset="0" style="stop-color:#EBF3FF"/>
				<stop  offset="1" style="stop-color:#EEF1F8"/>
			</linearGradient>
			<path class="st45" d="M1938.9,372.3c0,0,26.8,129,132.6,162.4c105.8,33.3-15.1,115.5,58.4,391.9l59-12.8V372.3H1938.9z"/>
			<linearGradient id="SVGID_41_" gradientUnits="userSpaceOnUse" x1="2103.781" y1="1024.9014" x2="2103.781" y2="372.2525">
				<stop  offset="0" style="stop-color:#CDDBF7"/>
				<stop  offset="1" style="stop-color:#EEF1F8"/>
			</linearGradient>
			<path class="st46" d="M2083.9,461.5c34.1,17.3,79.5,51.5,79.5,109.7c0,69.2-53.1,257-25.9,453.7h51.5V372.3h-170.3
				C2018.6,372.3,2025.7,432,2083.9,461.5z"/>
			<linearGradient id="SVGID_42_" gradientUnits="userSpaceOnUse" x1="1831.8457" y1="448.849" x2="1912.3092" y2="448.849">
				<stop  offset="0" style="stop-color:#EBF3FF"/>
				<stop  offset="1" style="stop-color:#EEF1F8"/>
			</linearGradient>
			<path class="st47" d="M1831.8,456.8h80.5c0,0-3.4-7.8-24.6-7.8c-11.9,0-16.1-8.2-30.6-8.2
				C1842.5,440.9,1831.8,456.8,1831.8,456.8z"/>
			<g>
				<linearGradient id="SVGID_43_" gradientUnits="userSpaceOnUse" x1="1814.7687" y1="616.3998" x2="1851.4272" y2="616.3998">
					<stop  offset="0" style="stop-color:#CDDBF7"/>
					<stop  offset="1" style="stop-color:#A8C3EE"/>
				</linearGradient>
				<path class="st48" d="M1838.1,600.2c-2.8-1-6-0.8-8.8,0.4c-2.8,1.3-5.9,4-5.9,9.9c0,8-6.4,4.6-8.4,10.7c-1.9,6.1,5.3,12,19.1,12
					c17.1,0,20-9.7,15.1-14.6C1844,613.3,1846,602.9,1838.1,600.2z"/>
				<path class="st42" d="M1833,634.9c-0.2,0-0.3-0.1-0.3-0.3v-25.4c0-0.2,0.1-0.3,0.3-0.3c0.2,0,0.3,0.1,0.3,0.3v25.4
					C1833.3,634.7,1833.2,634.9,1833,634.9z"/>
				<path class="st42" d="M1833,626.9c-0.1,0-0.2,0-0.2-0.1l-6.6-5.9c-0.1-0.1-0.1-0.3,0-0.5c0.1-0.1,0.3-0.1,0.5,0l6.6,5.9
					c0.1,0.1,0.1,0.3,0,0.5C1833.2,626.8,1833.1,626.9,1833,626.9z"/>
				<path class="st42" d="M1833,615.2c-0.1,0-0.2-0.1-0.3-0.2c-0.1-0.2,0-0.4,0.1-0.4l6.3-3.2c0.1-0.1,0.4,0,0.4,0.1
					c0.1,0.2,0,0.4-0.1,0.4l-6.3,3.2C1833.1,615.2,1833.1,615.2,1833,615.2z"/>
			</g>
		</g>
		<rect x="1335.3" y="1036.7" class="st15" width="1091.6" height="5.2"/>
		<g>
			<linearGradient id="SVGID_44_" gradientUnits="userSpaceOnUse" x1="1317.3267" y1="1138.5903" x2="2302.5569" y2="1138.5903">
				<stop  offset="0" style="stop-color:#6B75FF"/>
				<stop  offset="1" style="stop-color:#4134F4"/>
			</linearGradient>
			<polygon class="st49" points="1317.3,1141.4 1688.9,1197.7 2302.6,1095.3 2022.6,1079.5 			"/>
			<linearGradient id="SVGID_45_" gradientUnits="userSpaceOnUse" x1="1474.8169" y1="1058.3439" x2="1631.4653" y2="1058.3439">
				<stop  offset="0" style="stop-color:#F8B795"/>
				<stop  offset="1" style="stop-color:#F7C8A4"/>
			</linearGradient>
			<path class="st50" d="M1583.9,969.1c0,0,7.9,119-12.5,128.8c-20.4,9.8-31.1,14.2-49.8,7.1c-18.7-7.1-57.3-0.9-44,27.1
				c13.3,28,32.4,23.1,53.1,16.4c20.7-6.7,74.5,4.9,87.8-32.9c13.3-37.8,13-146.6,13-146.6S1603.5,955.4,1583.9,969.1z"/>
			<linearGradient id="SVGID_46_" gradientUnits="userSpaceOnUse" x1="1474.817" y1="1001.9883" x2="1635.5439" y2="1001.9883">
				<stop  offset="0" style="stop-color:#6B75FF"/>
				<stop  offset="1" style="stop-color:#4134F4"/>
			</linearGradient>
			<path class="st51" d="M1518.9,904c0,0,10.5,39.1-18.1,49.6c-28.6,10.5-35.7,37.7-10.5,60.5c19.5,17.6,7.3,31.7,21.4,55.1
				c9.7,16.2,26.5,26.9,45.2,29.8c24.7,3.8,61.4,2,75.3-37.2C1653.9,1000.4,1565.4,895.7,1518.9,904z"/>
			<linearGradient id="SVGID_47_" gradientUnits="userSpaceOnUse" x1="1636.4536" y1="1001.9858" x2="1516.4628" y2="1001.9858">
				<stop  offset="0" style="stop-color:#2C2CCE"/>
				<stop  offset="1" style="stop-color:#4134F4"/>
			</linearGradient>
			<path class="st52" d="M1518.4,903.5c0,0,6.3,23.1-1.9,36.5c0,0,18.2,42.5,46.2,56.2c18.9,9.3,29.7,3.9,35.9-1.7
				c3.4-3.1,9-1.7,10.8,2.5c3.7,8.6,10.3,26.5,6.1,47.2c-6.7,32.7-49.9,54.3-82.3,46.3c0,0,10.5,9.9,39,10
				c28.5,0,54.1-9.7,62.9-50.2c8.7-40.5-23-75.6-23-75.6L1518.4,903.5z"/>
			<linearGradient id="SVGID_48_" gradientUnits="userSpaceOnUse" x1="2033.8676" y1="1052.0143" x2="2165.8584" y2="1052.0143">
				<stop  offset="0" style="stop-color:#F8B795"/>
				<stop  offset="1" style="stop-color:#F7C8A4"/>
			</linearGradient>
			<path class="st53" d="M2033.9,1008.7c0,0,32.3-7.7,77,4.7c44.7,12.3,55-10.3,55,19.7c0,17.7,1,64.7-26.3,64.7
				c-25.5,0,21.7-34.7-13.3-54.7c-35-20-81.7,18.7-81.7,18.7S2056.9,1036,2033.9,1008.7z"/>
			<linearGradient id="SVGID_49_" gradientUnits="userSpaceOnUse" x1="1947.2166" y1="1097.5244" x2="1947.2166" y2="971.4412">
				<stop  offset="0" style="stop-color:#CDDBF7"/>
				<stop  offset="1" style="stop-color:#EEF1F8"/>
			</linearGradient>
			<path class="st54" d="M1835.6,978.7c0,0,44.1-24.6,116.1,17c72,41.7,126.7,19.3,126.7,19.3s26,17.3,10.7,53
				c0,0-110.8,71.1-288.5-7.4C1800.5,1060.6,1884.7,1035.8,1835.6,978.7z"/>
			<linearGradient id="SVGID_50_" gradientUnits="userSpaceOnUse" x1="2015.6052" y1="1008.6731" x2="2015.6052" y2="1021.0985">
				<stop  offset="0" style="stop-color:#ACC6EF"/>
				<stop  offset="1" style="stop-color:#98B9EA"/>
			</linearGradient>
			<path class="st55" d="M1983.7,1010.7c0,0,33.4,5.7,50-2.1c0,0,12.3,6.8,13.8,12.1C2047.5,1020.8,2012.3,1023.8,1983.7,1010.7z"/>
			<linearGradient id="SVGID_51_" gradientUnits="userSpaceOnUse" x1="2078.3938" y1="1058.3439" x2="2210.3848" y2="1058.3439">
				<stop  offset="0" style="stop-color:#F7E2C4"/>
				<stop  offset="1" style="stop-color:#FED6B4"/>
			</linearGradient>
			<path class="st56" d="M2078.4,1015c0,0,32.3-7.7,77,4.7c44.7,12.3,55-10.3,55,19.7c0,17.7,1,64.7-26.3,64.7
				c-25.5,0,21.7-34.7-13.3-54.7c-35-20-81.7,18.7-81.7,18.7S2101.4,1042.4,2078.4,1015z"/>
			<path class="st57" d="M1634.2,1019.1c0,0-17-35.1-23.3-46.4c0,0,11.5,1.5,21.2,15.3c9.6,13.8,16.1,33.1,16.1,33.1L1634.2,1019.1z
				"/>
			<linearGradient id="SVGID_52_" gradientUnits="userSpaceOnUse" x1="1517.0836" y1="943.9831" x2="1719.2291" y2="943.9831">
				<stop  offset="0" style="stop-color:#F7E2C4"/>
				<stop  offset="1" style="stop-color:#FED6B4"/>
			</linearGradient>
			<path class="st58" d="M1517.7,902c0,0,40.9,95.5,80.4,76.4c39.6-19.1,30.9,38.6,77.2,42.6c46.3,4,43.8-127.9,43.8-127.9
				s-50.6,45.5-80.5,14.5c-4.1-4.2-2.5-12.3-7.4-17.5C1594.3,851.8,1508.7,864.4,1517.7,902z"/>
			<linearGradient id="SVGID_53_" gradientUnits="userSpaceOnUse" x1="1624.3839" y1="926.4838" x2="1699.8137" y2="926.4838">
				<stop  offset="0" style="stop-color:#F7C8A4"/>
				<stop  offset="1" style="stop-color:#FED6B4"/>
			</linearGradient>
			<path class="st59" d="M1699.8,918.8c-2.5,2.5-5.6,6.6-8,8.7c-16.3,14.4-36.4,20.3-47.8,17.7c-9.1-2.1-12-8.9-12.8-14.6
				c-0.5-4,0-8.1,1.3-12c8-23.7-8.2-27.1-8.2-27.1s12.3,10.9,5.2,25.3c-7.2,14.5-8,38.9,21,44.1c27.2,4.9,45.6-17.5,46.4-18.1
				C1698,929.9,1698.9,921.9,1699.8,918.8z"/>
			<linearGradient id="SVGID_54_" gradientUnits="userSpaceOnUse" x1="1518.4067" y1="899.7029" x2="1600.941" y2="899.7029">
				<stop  offset="0" style="stop-color:#F7C8A4"/>
				<stop  offset="1" style="stop-color:#FED6B4"/>
			</linearGradient>
			<path class="st60" d="M1518.4,903.5c0,0,16.5,8.4,30.3-2.4c13.8-10.8,31.4-7,50.3,18l1.9-16.7c0,0-16.3-23-32.9-22.1
				C1551.4,881.2,1519.4,897.3,1518.4,903.5z"/>
			<linearGradient id="SVGID_55_" gradientUnits="userSpaceOnUse" x1="1493.7119" y1="877.4947" x2="1705.6982" y2="877.4947">
				<stop  offset="0" style="stop-color:#6B75FF"/>
				<stop  offset="1" style="stop-color:#4134F4"/>
			</linearGradient>
			<path class="st61" d="M1655,868.6c-0.2-16.8-9.1-29.1-20.7-38.2c-10-9.8-46.8-28-85.2-18.4c-41,10.3-71.3,65.3-46.2,85.1
				c25.1,19.8,48.4-12.2,48.4-12.2c36.4-9.3,47.8,34.2,47.8,34.2s2.7-32.7,22.7-28.4c20,4.2,10.7,26.2,10.7,26.2s0.1-0.1,0.1-0.1
				c-1.3,4.6-7.1,28.9,16.8,28.9c26.4,0,57.1-25,56.4-42.4C1704.5,872,1655.3,898.7,1655,868.6z"/>
			<linearGradient id="SVGID_56_" gradientUnits="userSpaceOnUse" x1="1551.2936" y1="895.7156" x2="1599.293" y2="895.7156">
				<stop  offset="0" style="stop-color:#2C2CCE"/>
				<stop  offset="1" style="stop-color:#4134F4"/>
			</linearGradient>
			<path class="st62" d="M1551.3,884.9c0,0,3.3-13.8,18.2-12.6c15.9,1.3,31.9,20.3,29.6,46.8c0,0-10.6-27.8-26.4-33.1
				C1560.3,881.8,1551.3,884.9,1551.3,884.9z"/>
			<linearGradient id="SVGID_57_" gradientUnits="userSpaceOnUse" x1="1630.615" y1="917.075" x2="1706.5186" y2="917.075">
				<stop  offset="0" style="stop-color:#2C2CCE"/>
				<stop  offset="1" style="stop-color:#4134F4"/>
			</linearGradient>
			<path class="st63" d="M1633.5,899.3c0,0,5,6.5,2.6,20.3c-2.7,15.3,12.8,28.5,44.9,6.5c36.8-25.2,14.6-37.8,14.6-37.8
				s9.4,2,10.9,14.1c1.5,12.7-16.8,37.2-50.1,43c-33.3,5.7-25-22.8-24.2-25.3C1632.8,917.9,1636.6,909.9,1633.5,899.3z"/>
			<linearGradient id="SVGID_58_" gradientUnits="userSpaceOnUse" x1="1631.3124" y1="978.1266" x2="1854.1177" y2="978.1266">
				<stop  offset="0" style="stop-color:#F37ED9"/>
				<stop  offset="1" style="stop-color:#EF65D5"/>
			</linearGradient>
			<path class="st64" d="M1843,975.7c-4.7,1.4-9.9,4.4-13.5,2.9c-2.6-1.1-10.4-10.1-14.7-15.2c-1.6-1.9-3.1-3.9-4.6-6
				c-7.3-10.6-36.3-50.3-68.5-64.3c-16-6.9-34.5,1.2-39.8,17.8c-3.7,11.3-6,28.2-4.8,53c2.7,58.9-16.1,57.8-21.7,57.1
				c-5.6-0.8-24.9-1.7-43.3-33c0,0-12.7,70.7,64.3,65.7c10.8-0.7,20.8-2.4,30.1-4.9c0,0,0.1,0,0.1,0c22.1,1.1,85.5,16.7,85.5,16.7
				C1882.7,1034.5,1843,975.7,1843,975.7z"/>
			<linearGradient id="SVGID_59_" gradientUnits="userSpaceOnUse" x1="1564.6355" y1="1037.7289" x2="1781.2372" y2="1037.7289">
				<stop  offset="0" style="stop-color:#F7E2C4"/>
				<stop  offset="1" style="stop-color:#FED6B4"/>
			</linearGradient>
			<path class="st65" d="M1750.8,906.4c-8.6-9.7-23.5-10.9-32.9-2c-7.9,7.5-14.1,22.1-8.5,50.1c11.2,56.1,33.7,142.5,19.7,152.9
				c-14,10.3-83.3,25.9-116.3,20.2c-33-5.7-54.3,2-46.7,25.3c7.7,23.3,17,32,55.3,16.3c38.3-15.7,137.6,12,151.3-43
				C1785.8,1074,1787.4,947.5,1750.8,906.4z"/>
			<linearGradient id="SVGID_60_" gradientUnits="userSpaceOnUse" x1="1734.9309" y1="1162.5612" x2="1618.4879" y2="960.8759">
				<stop  offset="0" style="stop-color:#F7C8A4"/>
				<stop  offset="1" style="stop-color:#FED6B4"/>
			</linearGradient>
			<path class="st66" d="M1780.6,1015.9c-1-14.8-2.6-68.2-24.3-102.3c-10.3-16.2-20.5-18.4-30.3-14.4c-9.2,3.7-15.5,12.2-17.4,21.9
				c-0.1,0.5-0.2,1-0.3,1.5c6.4-9.6,16.2-17.5,23.9-15.1c25.1,7.8,50.6,115.1,31.9,188.4c-18.7,73.3-133.5,47.3-145.9,55.9
				c-28.1,19.5-56.1,0.9-45,16.2c15.1,21,49.1,0.2,55.1-1.1c6-1.3,27-3.4,39.2-3.6c12.2-0.2,90,6.3,103-30.1
				C1783.4,1096.9,1781.6,1030.8,1780.6,1015.9z"/>
			<linearGradient id="SVGID_61_" gradientUnits="userSpaceOnUse" x1="1759.9283" y1="969.7563" x2="1793.679" y2="969.7563">
				<stop  offset="0" style="stop-color:#DD4BC8"/>
				<stop  offset="0.5051" style="stop-color:#DF4ECA"/>
				<stop  offset="1" style="stop-color:#EF65D5"/>
			</linearGradient>
			<path class="st67" d="M1759.9,919.2c7.1,13.6,17.6,43,20.9,101.1c0,0,12.5-13.3,12.8-37C1794,955.4,1759.9,919.2,1759.9,919.2z"
				/>
		</g>
	</g>
</g>
<g id="_x33_">
	<g>
		<rect x="1227" y="1169.6" class="st0" width="5.2" height="348.7"/>
		<g>
			<rect x="58.8" y="1187.8" class="st0" width="5.2" height="330.6"/>
			<rect x="162.8" y="1135.1" class="st0" width="5.2" height="383.2"/>
			<rect x="270.6" y="1102.2" class="st0" width="5.2" height="416.2"/>
			<rect x="374.7" y="1079.1" class="st0" width="5.2" height="439.3"/>
			<rect x="485.5" y="1079.1" class="st0" width="5.2" height="439.3"/>
			<rect x="589.5" y="1079.1" class="st0" width="5.2" height="439.3"/>
			<rect x="696.3" y="1079.1" class="st0" width="5.2" height="439.3"/>
			<rect x="800.3" y="1079.1" class="st0" width="5.2" height="439.3"/>
			<rect x="908.1" y="1088" class="st0" width="5.2" height="430.4"/>
			<rect x="1012.1" y="1112.9" class="st0" width="5.2" height="405.4"/>
			<rect x="1123" y="1079.1" class="st0" width="5.2" height="439.3"/>
			<g>
				<linearGradient id="SVGID_62_" gradientUnits="userSpaceOnUse" x1="124.7685" y1="1300.9878" x2="400.601" y2="1300.9878">
					<stop  offset="0" style="stop-color:#EBF3FF"/>
					<stop  offset="1" style="stop-color:#EEF1F8"/>
				</linearGradient>
				<rect x="124.8" y="1253.7" class="st68" width="275.8" height="94.6"/>
				<linearGradient id="SVGID_63_" gradientUnits="userSpaceOnUse" x1="124.7685" y1="1408.256" x2="400.601" y2="1408.256">
					<stop  offset="0" style="stop-color:#EBF3FF"/>
					<stop  offset="1" style="stop-color:#EEF1F8"/>
				</linearGradient>
				<rect x="124.8" y="1361" class="st69" width="275.8" height="94.6"/>
				<linearGradient id="SVGID_64_" gradientUnits="userSpaceOnUse" x1="138.7715" y1="1523.1862" x2="138.7715" y2="1455.5491">
					<stop  offset="0" style="stop-color:#CDDBF7"/>
					<stop  offset="1" style="stop-color:#A8C3EE"/>
				</linearGradient>
				<rect x="124.8" y="1455.5" class="st70" width="28" height="67.6"/>
				<linearGradient id="SVGID_65_" gradientUnits="userSpaceOnUse" x1="386.5981" y1="1523.1862" x2="386.5981" y2="1455.5491">
					<stop  offset="0" style="stop-color:#CDDBF7"/>
					<stop  offset="1" style="stop-color:#A8C3EE"/>
				</linearGradient>
				<rect x="372.6" y="1455.5" class="st71" width="28" height="67.6"/>
				<linearGradient id="SVGID_66_" gradientUnits="userSpaceOnUse" x1="262.6848" y1="1305.5195" x2="262.6848" y2="1296.4563">
					<stop  offset="0" style="stop-color:#CDDBF7"/>
					<stop  offset="1" style="stop-color:#DAE3F7"/>
				</linearGradient>
				<rect x="228.9" y="1296.5" class="st72" width="67.7" height="9.1"/>
				<linearGradient id="SVGID_67_" gradientUnits="userSpaceOnUse" x1="262.6848" y1="1412.7875" x2="262.6848" y2="1403.7242">
					<stop  offset="0" style="stop-color:#CDDBF7"/>
					<stop  offset="1" style="stop-color:#DAE3F7"/>
				</linearGradient>
				<rect x="228.9" y="1403.7" class="st73" width="67.7" height="9.1"/>
			</g>
			<g>
				<g>
					<path class="st0" d="M120.8,1523.4h1065c57.2,0,95.1,53.5,70.5,99.8c-55,103.3-195.9,249.9-553.4,249.9
						c-494.7,0-617.8-172.1-647.3-274.8C44.8,1560.2,77.1,1523.4,120.8,1523.4z"/>
					<g>
						<defs>
							<path id="SVGID_68_" d="M47.5,1523.4h1243.1c0,0-35.5,349.6-587.7,349.6C-2.3,1873,47.5,1523.4,47.5,1523.4z"/>
						</defs>
						<clipPath id="SVGID_69_">
							<use xlink:href="#SVGID_68_"  style="overflow:visible;"/>
						</clipPath>
						<g class="st74">
							<path class="st2" d="M320.8,1875.6c-1.2,0-2.3-0.8-2.5-2.1l-73.2-349.6c-0.3-1.4,0.6-2.8,2-3.1c1.4-0.3,2.8,0.6,3.1,2
								l73.2,349.6c0.3,1.4-0.6,2.8-2,3.1C321.2,1875.5,321,1875.6,320.8,1875.6z"/>
							<path class="st2" d="M1101.3,1861.1c-1,0-2-0.6-2.4-1.7l-126.7-335.2c-0.5-1.3,0.2-2.8,1.5-3.3c1.3-0.5,2.8,0.2,3.3,1.5
								l126.7,335.2c0.5,1.3-0.2,2.8-1.5,3.3C1101.9,1861.1,1101.6,1861.1,1101.3,1861.1z"/>
							<path class="st2" d="M424.4,1875.5c-1.4,0-2.6-1.2-2.6-2.6v-349.6c0-1.4,1.2-2.6,2.6-2.6c1.4,0,2.6,1.2,2.6,2.6V1873
								C427,1874.4,425.8,1875.5,424.4,1875.5z"/>
							<path class="st2" d="M531,1898.6c-0.3,0-0.5,0-0.8-0.1c-1.4-0.4-2.1-1.9-1.6-3.3l123.3-372.7c0.4-1.4,1.9-2.1,3.3-1.6
								c1.4,0.4,2.1,1.9,1.6,3.3l-123.3,372.7C533.1,1897.9,532.1,1898.6,531,1898.6z"/>
							<path class="st2" d="M693.4,1875.5c-0.2,0-0.3,0-0.5-0.1c-1.4-0.3-2.3-1.6-2-3l69.3-349.6c0.3-1.4,1.6-2.3,3-2
								c1.4,0.3,2.3,1.6,2,3L696,1873.5C695.7,1874.7,694.7,1875.5,693.4,1875.5z"/>
							<path class="st2" d="M910.1,1869.9c-1.3,0-2.4-1-2.6-2.3l-42.4-343.9c-0.2-1.4,0.8-2.7,2.3-2.9c1.4-0.2,2.7,0.8,2.9,2.3
								l42.4,343.9c0.2,1.4-0.8,2.7-2.3,2.9C910.3,1869.9,910.2,1869.9,910.1,1869.9z"/>
							<path class="st2" d="M1256.2,1861.1c-0.9,0-1.9-0.5-2.3-1.4L1084,1524.5c-0.6-1.3-0.1-2.8,1.1-3.5c1.3-0.7,2.8-0.1,3.5,1.1
								l169.9,335.2c0.6,1.3,0.1,2.8-1.1,3.5C1257,1861.1,1256.6,1861.1,1256.2,1861.1z"/>
							<path class="st2" d="M156.5,1888.5c-1.4,0-2.6-1.2-2.6-2.6v-362.5c0-1.4,1.2-2.6,2.6-2.6c1.4,0,2.6,1.2,2.6,2.6v362.5
								C159.1,1887.3,158,1888.5,156.5,1888.5z"/>
						</g>
					</g>
				</g>
				<path class="st2" d="M1290.6,1524.9H39.4c-1.4,0-2.6-1.2-2.6-2.6c0-1.4,1.2-2.6,2.6-2.6h1251.2c1.4,0,2.6,1.2,2.6,2.6
					C1293.2,1523.7,1292.1,1524.9,1290.6,1524.9z"/>
				<g>
					<linearGradient id="SVGID_70_" gradientUnits="userSpaceOnUse" x1="262.6848" y1="1675.8127" x2="1051.6133" y2="1675.8127">
						<stop  offset="0" style="stop-color:#6B75FF"/>
						<stop  offset="1" style="stop-color:#4134F4"/>
					</linearGradient>
					<polygon class="st75" points="262.7,1706.1 608,1810.1 1051.6,1566.4 787.1,1541.5 					"/>
					<linearGradient id="SVGID_71_" gradientUnits="userSpaceOnUse" x1="378.5975" y1="1647.76" x2="472.0907" y2="1647.76">
						<stop  offset="0" style="stop-color:#F8B795"/>
						<stop  offset="1" style="stop-color:#F7C8A4"/>
					</linearGradient>
					<path class="st76" d="M472.1,1559.8l-65,7c0,0-10.1,57.9-6.9,102.9c0.4,6.1,1.5,11.6,2.9,16.6c0,0,0,0,0,0
						c-21.1-1.4-24.5,22-24.5,22s65.2,38.3,75.8,24.4c1,0.2,1.5,0.3,1.5,0.3s4.7-7-4.8-58.7C446.8,1650.7,472.1,1559.8,472.1,1559.8
						z"/>
					<linearGradient id="SVGID_72_" gradientUnits="userSpaceOnUse" x1="449.9644" y1="1654.0221" x2="399.1223" y2="1654.0221">
						<stop  offset="0" style="stop-color:#F8B795"/>
						<stop  offset="1" style="stop-color:#F2A888"/>
					</linearGradient>
					<path class="st77" d="M403.1,1686.3c0,0,19.8,0,36.3,13.9c6.6,5.6,8,7,10.2,10.2c1,1.5,0.8-5.4-5.2-14.2
						c-15.6-22.7-32.1-5.7-27.1-48.4c5.1-42.8,5.3-43.8,5.3-43.8l-20-6.5C402.5,1597.5,394.5,1657.2,403.1,1686.3z"/>
					<linearGradient id="SVGID_73_" gradientUnits="userSpaceOnUse" x1="924.5749" y1="1539.1467" x2="975.7466" y2="1539.1467">
						<stop  offset="0" style="stop-color:#F7E2C4"/>
						<stop  offset="1" style="stop-color:#FED6B4"/>
					</linearGradient>
					<path class="st78" d="M929.9,1490.7c0,0,16.1-11.4,29.1-0.4c15.4,13,32.5,102.4-10.2,102.4
						C889.6,1592.8,961.8,1580.9,929.9,1490.7z"/>
					<linearGradient id="SVGID_74_" gradientUnits="userSpaceOnUse" x1="878.1307" y1="1527.3571" x2="924.2145" y2="1527.3571">
						<stop  offset="0" style="stop-color:#F8B795"/>
						<stop  offset="1" style="stop-color:#F7C8A4"/>
					</linearGradient>
					<path class="st79" d="M878.3,1478.9c0,0,16.1-11.4,29.1-0.4c15.4,13,32.5,102.4-10.2,102.4
						C849.5,1581,910.3,1569.1,878.3,1478.9z"/>
					<linearGradient id="SVGID_75_" gradientUnits="userSpaceOnUse" x1="763.7706" y1="1485.7559" x2="902.8288" y2="1485.7559">
						<stop  offset="0" style="stop-color:#6B75FF"/>
						<stop  offset="1" style="stop-color:#4134F4"/>
					</linearGradient>
					<path class="st80" d="M902.8,1495.2c0,0-10.7-14.7-24.6-15.9c0,0-63.3,14.8-114.5-10.7C763.8,1468.6,814.3,1522.6,902.8,1495.2
						z"/>
					<linearGradient id="SVGID_76_" gradientUnits="userSpaceOnUse" x1="638.7724" y1="1512.0847" x2="952.682" y2="1512.0847">
						<stop  offset="0" style="stop-color:#758CF4"/>
						<stop  offset="1" style="stop-color:#594EFF"/>
					</linearGradient>
					<path class="st81" d="M738.6,1571.9c0,0,102.2,26.9,202.6-32.2c8.7-5.1,13.3-15.4,10.9-25.2c-2.3-9.4-8.2-19.8-22.2-23.7
						c0,0-89.7,19.3-130.7-3.7c-41-22.9-91.9-50.2-160.4-37.6C638.8,1449.4,749.3,1484.6,738.6,1571.9z"/>
					<linearGradient id="SVGID_77_" gradientUnits="userSpaceOnUse" x1="739.2878" y1="1522.1251" x2="441.2194" y2="1522.1251">
						<stop  offset="0" style="stop-color:#CDDBF7"/>
						<stop  offset="1" style="stop-color:#EEF1F8"/>
					</linearGradient>
					<path class="st82" d="M484.8,1441c0,0,82.4-14.6,161.9,10.8c77.1,24.6,97.6,67.4,91.6,122.7c-0.3,3.1-2.4,5.8-5.4,6.9
						c-22,7.9-115.9,39-189.9,19.9C458.6,1579.6,395,1540.5,484.8,1441z"/>
					<linearGradient id="SVGID_78_" gradientUnits="userSpaceOnUse" x1="398.7076" y1="1581.4355" x2="474.4772" y2="1581.4355">
						<stop  offset="0" style="stop-color:#CDDBF7"/>
						<stop  offset="1" style="stop-color:#98B9EA"/>
					</linearGradient>
					<path class="st83" d="M401.2,1559.8c0,0-6.1,30.3,0.7,37.2c10,10,59.4,10.4,62.4,3.5c2.1-4.8,3.8-28.1,10.1-27.1l-17.3-15.7
						L401.2,1559.8z"/>
					<linearGradient id="SVGID_79_" gradientUnits="userSpaceOnUse" x1="344.5519" y1="1510.8276" x2="530.324" y2="1510.8276">
						<stop  offset="0" style="stop-color:#F7E2C4"/>
						<stop  offset="1" style="stop-color:#FED6B4"/>
					</linearGradient>
					<path class="st84" d="M345.1,1489.5c0,0,46.9,101.3,90.7,88.5c20-5.9,27.8-51.7,59.4-24.7c31.7,27,49.6-15.1,20-60.1
						C492.8,1459.2,333.7,1400.6,345.1,1489.5z"/>
					<linearGradient id="SVGID_80_" gradientUnits="userSpaceOnUse" x1="358.175" y1="1637.5577" x2="672.0976" y2="1637.5577">
						<stop  offset="0" style="stop-color:#F7E2C4"/>
						<stop  offset="1" style="stop-color:#FED6B4"/>
					</linearGradient>
					<path class="st85" d="M568.3,1568.1c-6.2-18.3-2.7-38.8,10-53.4c10.8-12.3,28.5-19.2,54-5.4c49.2,26.6,52.5,248.2,11.1,254.8
						c-41.4,6.6-192.6,9.4-230.7,9.4c-38.1,0-63.5-21.3-51.6-54.9c11.9-33.6,36.1-18.8,80.7,4.1c44.7,22.9,169-11.2,163.5-27.6
						C594.9,1663.6,578.1,1596.7,568.3,1568.1z"/>
					<linearGradient id="SVGID_81_" gradientUnits="userSpaceOnUse" x1="477.3576" y1="1514.1228" x2="530.3262" y2="1514.1228">
						<stop  offset="0" style="stop-color:#F7C8A4"/>
						<stop  offset="1" style="stop-color:#FED6B4"/>
					</linearGradient>
					<path class="st86" d="M491.2,1473.2c0,0-1.7,8.9-4.9,14.9s-3.5,2.3-3.4-2.8c0.1-5.1,1.7-14.4-4.6-18.8c0,0,5.4,6.6,0,24.9
						c-2.6,8.9,0,18.6,10.5,13c10.5-5.6,7.8-13.4,22.7,5.8c14.9,19.2,14.7,45.5,2.3,51.6c0,0,16.2,1,16.4-24.8
						C530.5,1510.4,514.9,1485,491.2,1473.2z"/>
					<linearGradient id="SVGID_82_" gradientUnits="userSpaceOnUse" x1="345.1427" y1="1486.8683" x2="459.0566" y2="1486.8683">
						<stop  offset="0" style="stop-color:#F7C8A4"/>
						<stop  offset="1" style="stop-color:#FED6B4"/>
					</linearGradient>
					<path class="st87" d="M345.1,1489.5c0,0,5.3,13.4,27.7,6.6c18.8-5.7,30.2,7.7,52.4-1.6c22.2-9.3,21.7,4.3,33.8,2.9
						c0,0-8.7-16.3-23.2-18.9C421.3,1476,368,1470.1,345.1,1489.5z"/>
					<linearGradient id="SVGID_83_" gradientUnits="userSpaceOnUse" x1="322.4931" y1="1442.9667" x2="491.683" y2="1442.9667">
						<stop  offset="0" style="stop-color:#6B75FF"/>
						<stop  offset="1" style="stop-color:#4134F4"/>
					</linearGradient>
					<path class="st88" d="M322.8,1452c0,0-6.1,51.6,35.6,34.2c41.8-17.4,29.9,5.5,63.3-1.2c21.5-4.3,28,4.8,31.9,10
						c2.2,2.9,5.4,2.5,5.4,2.5s-8.6-29.5,9.3-32.6c17.9-3.1,14.2,16.8,14.4,24.2c0.2,7.4,7.7-7.2,8.6-18.2
						c2-24.7-9.4-82.7-77.6-82.4C340.9,1388.7,325.1,1425.2,322.8,1452z"/>
					<linearGradient id="SVGID_84_" gradientUnits="userSpaceOnUse" x1="358.4599" y1="1481.6194" x2="459.0566" y2="1481.6194">
						<stop  offset="0" style="stop-color:#2C2CCE"/>
						<stop  offset="1" style="stop-color:#4134F4"/>
					</linearGradient>
					<path class="st89" d="M358.5,1486.2c0,0,20.7-10.3,27.7-17.7c10.9-11.5,12.6,16.7,39.9,7.1c14.8-5.2,24.7,19.6,33,21.8
						c0,0-4.1,0.6-9.1-5.1c-5.4-6.2-15-9.1-20.7-8.4c-5.7,0.7-21.3,5.9-35.9-2.3C382.8,1475.7,358.5,1486.2,358.5,1486.2z"/>
					<linearGradient id="SVGID_85_" gradientUnits="userSpaceOnUse" x1="460.6634" y1="1475.4845" x2="487.1017" y2="1475.4845">
						<stop  offset="0" style="stop-color:#2C2CCE"/>
						<stop  offset="1" style="stop-color:#4134F4"/>
					</linearGradient>
					<path class="st90" d="M478.2,1466.7c0,0,4.6,2,4.6,12.3c0,10.3-0.7,12.6,1.1,12c1.1-0.4,4.2-13.2,3-21
						c-1.2-7.8-7.9-12.3-15.4-9.5c-7.5,2.8-10.7,8.6-10.7,8.6S468.3,1460.9,478.2,1466.7z"/>
					<linearGradient id="SVGID_86_" gradientUnits="userSpaceOnUse" x1="672.5116" y1="1674.3455" x2="358.2351" y2="1674.3455">
						<stop  offset="0" style="stop-color:#F7C8A4"/>
						<stop  offset="1" style="stop-color:#FED6B4"/>
					</linearGradient>
					<path class="st91" d="M638.8,1603.7c0,0,48.4,136-22.7,141.8c-141.7,11.6-184.2,26.1-214.3,8.3c-49-29-44.2-22.8-42.7-11.3
						c1,7.9,12.9,31.3,51.3,31c38.4-0.4,208.5,4.7,236.3-10.2c16-8.6,24-43.4,25.7-98c1.7-54.5-8-90.6-8-90.6L638.8,1603.7z"/>
					<linearGradient id="SVGID_87_" gradientUnits="userSpaceOnUse" x1="688.9409" y1="1562.8407" x2="656.0487" y2="1562.8407">
						<stop  offset="0" style="stop-color:#CDDBF7"/>
						<stop  offset="1" style="stop-color:#98B9EA"/>
					</linearGradient>
					<path class="st92" d="M656,1526.3c0,0,8.8,19.6,12.3,32.3c0.5,2,0.5,5.2-0.2,7.1c-0.9,2.2-2.4,7.4-3.8,9c0,0,4.1,20.3,4.1,24.7
						c0,0,15-2.7,20.5-4.7C688.9,1594.7,679.7,1555.5,656,1526.3z"/>
					<linearGradient id="SVGID_88_" gradientUnits="userSpaceOnUse" x1="548.4569" y1="1538.9066" x2="592.5351" y2="1582.9847">
						<stop  offset="0" style="stop-color:#CDDBF7"/>
						<stop  offset="1" style="stop-color:#98B9EA"/>
					</linearGradient>
					<path class="st93" d="M598.9,1499.2c0,0-26.6,4.7-40.4,37.2c-3.3,7.8-6.3,17-8.8,25.9v0l0,0c-0.7,2.4-1.3,4.7-1.9,7.1
						c-2.3,6.3-4,14.3-11.3,17.9c-15.6,7.7-25.6,4.3-25.6,4.3s31,11.9,58.6,14.6c0,0-12.9-41.5-0.3-73.2
						C581.7,1501.2,598.9,1499.2,598.9,1499.2z"/>
					<linearGradient id="SVGID_89_" gradientUnits="userSpaceOnUse" x1="668.7036" y1="1560.6108" x2="563.5349" y2="1560.6108">
						<stop  offset="0" style="stop-color:#CDDBF7"/>
						<stop  offset="1" style="stop-color:#EEF1F8"/>
					</linearGradient>
					<path class="st94" d="M579.5,1622c16.6-0.7,70.1-6.8,88.2-55.1c1-2.7,1.2-5.5,0.6-8.3c-2.9-13.4-14.7-57.1-53.6-59.3
						c-46.5-2.6-53.8,45.4-50.6,76.1c2.2,21.1,6.3,35.2,8.6,41.9C573.8,1620.3,576.5,1622.1,579.5,1622z"/>
				</g>
				<g>
					<linearGradient id="SVGID_90_" gradientUnits="userSpaceOnUse" x1="1120.6952" y1="1417.6635" x2="1120.6952" y2="1002.4948">
						<stop  offset="0" style="stop-color:#4BB5B4"/>
						<stop  offset="1" style="stop-color:#95E3D1"/>
					</linearGradient>
					<path class="st95" d="M1126.6,1417.7c0,0-99.4-8.4-88.4-107.2c9.4-84.1,52.1-46.1,46.3-141.5c-5.8-95.4-62.4-130-28.9-161.2
						c27.3-25.4,102.5,43.4,111.9,154.8C1176.9,1274,1265.7,1401.7,1126.6,1417.7z"/>
					<path class="st42" d="M1126.6,1418.6C1126.6,1418.6,1126.6,1418.6,1126.6,1418.6c-0.6,0-1-0.5-1-1c0-0.8,2.3-77.6-3-214.1
						c-5.2-136.2-60.6-192.5-61.1-193c-0.4-0.4-0.4-1,0-1.4c0.4-0.4,1-0.4,1.4,0c0.6,0.6,56.4,57.3,61.7,194.3
						c5.3,136.7,3,213.5,3,214.3C1127.5,1418.2,1127.1,1418.6,1126.6,1418.6z"/>
					<path class="st42" d="M1126.6,1313.5c-0.3,0-0.5-0.1-0.7-0.3l-42.3-47c-0.4-0.4-0.3-1,0.1-1.4c0.4-0.4,1-0.3,1.4,0.1l42.3,47
						c0.4,0.4,0.3,1-0.1,1.4C1127.1,1313.4,1126.8,1313.5,1126.6,1313.5z"/>
					<path class="st42" d="M1127.1,1379.8c-0.2,0-0.4-0.1-0.5-0.2c-0.4-0.3-0.6-0.9-0.3-1.4l43.7-63.9c0.3-0.4,0.9-0.6,1.3-0.3
						c0.4,0.3,0.6,0.9,0.3,1.4l-43.7,63.9C1127.7,1379.6,1127.4,1379.8,1127.1,1379.8z"/>
					<path class="st42" d="M1108.4,1103.1c-0.2,0-0.3,0-0.5-0.1l-27.4-14.8c-0.5-0.3-0.6-0.8-0.4-1.3c0.3-0.5,0.8-0.6,1.3-0.4
						l27.4,14.8c0.5,0.3,0.6,0.8,0.4,1.3C1109.1,1102.9,1108.7,1103.1,1108.4,1103.1z"/>
					<linearGradient id="SVGID_91_" gradientUnits="userSpaceOnUse" x1="1038.4039" y1="1469.5959" x2="1215.7773" y2="1469.5959">
						<stop  offset="0" style="stop-color:#CDDBF7"/>
						<stop  offset="1" style="stop-color:#A8C3EE"/>
					</linearGradient>
					<polygon class="st96" points="1215.8,1416.9 1038.4,1416.9 1038.4,1441.7 1050.7,1441.7 1079.5,1522.3 1124,1522.3 
						1129.6,1522.3 1174.1,1522.3 1202.9,1441.7 1215.8,1441.7 					"/>
				</g>
			</g>
		</g>
	</g>
</g>
<g id="_x34_">
	<g>
		<linearGradient id="SVGID_92_" gradientUnits="userSpaceOnUse" x1="1939.451" y1="1896.5352" x2="2182.3491" y2="1896.5352">
			<stop  offset="0" style="stop-color:#FFFFFF"/>
			<stop  offset="1" style="stop-color:#F8FBFF"/>
		</linearGradient>
		<polygon class="st97" points="2023.8,1684.5 1939.5,2108.6 2182.3,2108.6 2182.3,1684.5 		"/>
		<linearGradient id="SVGID_93_" gradientUnits="userSpaceOnUse" x1="2311.7085" y1="2108.5879" x2="2311.7085" y2="1684.4825">
			<stop  offset="0" style="stop-color:#FFFFFF"/>
			<stop  offset="1" style="stop-color:#F8FBFF"/>
		</linearGradient>
		<polygon class="st98" points="2348.8,1684.5 2433.2,2108.6 2190.3,2108.6 2190.3,1684.5 		"/>
		<rect x="1832.8" y="1499.4" class="st0" width="5.2" height="609.2"/>
		<rect x="1936.9" y="1499.4" class="st0" width="5.2" height="609.2"/>
		<rect x="1414.8" y="1616" class="st0" width="5.2" height="492.6"/>
		<rect x="1304.9" y="1683.5" class="st0" width="5.2" height="425.1"/>
		<rect x="1194.7" y="1853.2" class="st0" width="5.2" height="255.4"/>
		<rect x="1518.8" y="1541.7" class="st0" width="5.2" height="609.2"/>
		<rect x="1626.6" y="1499.4" class="st0" width="5.2" height="609.2"/>
		<rect x="1730.6" y="1499.4" class="st0" width="5.2" height="609.2"/>
		<g>
			<path class="st0" d="M1227.4,2114.8h1137.5c61.1,0,101.6,47.9,75.3,89.4c-58.7,92.6-209.2,223.9-591.1,223.9
				c-528.4,0-659.9-154.2-691.3-246.2C1146.3,2147.9,1180.8,2114.8,1227.4,2114.8z"/>
			<g>
				<defs>
					<path id="SVGID_94_" d="M1149.2,2114.8h1327.7c0,0-37.9,313.3-627.8,313.3C1096,2428.1,1149.2,2114.8,1149.2,2114.8z"/>
				</defs>
				<clipPath id="SVGID_95_">
					<use xlink:href="#SVGID_94_"  style="overflow:visible;"/>
				</clipPath>
				<g class="st99">
					<path class="st2" d="M1441.1,2430.7c-1.2,0-2.2-0.8-2.5-2l-78.2-313.3c-0.3-1.4,0.5-2.8,1.9-3.1c1.4-0.3,2.8,0.5,3.1,1.9
						l78.2,313.3c0.3,1.4-0.5,2.8-1.9,3.1C1441.6,2430.7,1441.3,2430.7,1441.1,2430.7z"/>
					<path class="st2" d="M2274.8,2417.8c-1,0-1.9-0.6-2.4-1.5l-135.3-300.3c-0.6-1.3,0-2.8,1.3-3.4c1.3-0.6,2.8,0,3.4,1.3
						l135.3,300.3c0.6,1.3,0,2.8-1.3,3.4C2275.5,2417.7,2275.1,2417.8,2274.8,2417.8z"/>
					<path class="st2" d="M1551.7,2430.7c-1.4,0-2.6-1.2-2.6-2.6v-313.2c0-1.4,1.2-2.6,2.6-2.6s2.6,1.2,2.6,2.6v313.2
						C1554.3,2429.5,1553.2,2430.7,1551.7,2430.7z"/>
					<path class="st2" d="M1665.6,2451.4c-0.3,0-0.6-0.1-1-0.2c-1.3-0.5-2-2-1.5-3.4l131.7-333.9c0.5-1.3,2-2,3.4-1.5
						c1.3,0.5,2,2,1.5,3.4L1668,2449.7C1667.6,2450.8,1666.6,2451.4,1665.6,2451.4z"/>
					<path class="st2" d="M1839.1,2430.7c-0.2,0-0.4,0-0.6-0.1c-1.4-0.3-2.3-1.7-1.9-3.1l74-313.2c0.3-1.4,1.7-2.2,3.1-1.9
						c1.4,0.3,2.3,1.7,1.9,3.1l-74,313.2C1841.3,2429.9,1840.3,2430.7,1839.1,2430.7z"/>
					<path class="st2" d="M2070.5,2425.6c-1.3,0-2.4-0.9-2.6-2.2l-45.3-308.2c-0.2-1.4,0.8-2.7,2.2-2.9c1.4-0.2,2.7,0.8,2.9,2.2
						l45.3,308.2c0.2,1.4-0.8,2.7-2.2,2.9C2070.8,2425.6,2070.6,2425.6,2070.5,2425.6z"/>
					<path class="st2" d="M2440.1,2417.8c-0.9,0-1.7-0.4-2.2-1.3l-181.4-300.3c-0.7-1.2-0.3-2.8,0.9-3.6c1.2-0.7,2.8-0.3,3.6,0.9
						l181.4,300.3c0.7,1.2,0.3,2.8-0.9,3.6C2441.1,2417.7,2440.6,2417.8,2440.1,2417.8z"/>
					<path class="st2" d="M1265.6,2442.3c-1.4,0-2.6-1.2-2.6-2.6v-324.8c0-1.4,1.2-2.6,2.6-2.6c1.4,0,2.6,1.2,2.6,2.6v324.8
						C1268.2,2441.1,1267.1,2442.3,1265.6,2442.3z"/>
				</g>
			</g>
		</g>
		<path class="st2" d="M2445.6,2113.3H1132.4c-1.4,0-2.6-1.2-2.6-2.6c0-1.4,1.2-2.6,2.6-2.6h1313.2c1.4,0,2.6,1.2,2.6,2.6
			C2448.2,2112.2,2447,2113.3,2445.6,2113.3z"/>
		<linearGradient id="SVGID_96_" gradientUnits="userSpaceOnUse" x1="2023.8027" y1="1811.7595" x2="2348.6675" y2="1811.7595">
			<stop  offset="0" style="stop-color:#EBF3FF"/>
			<stop  offset="1" style="stop-color:#EEF1F8"/>
		</linearGradient>
		<polygon class="st100" points="2193.7,1529.5 2193.7,1516.1 2178.7,1516.1 2178.7,1529.5 2023.8,1529.5 2023.8,1684.5 
			2162.7,1684.5 2162.7,1697 2182.2,1697 2182.2,2064.3 2164.4,2064.3 2164.4,2085.4 2131.6,2085.4 2131.6,2107.4 2240.8,2107.4 
			2240.8,2085.4 2208,2085.4 2208,2064.3 2190.3,2064.3 2190.3,1697 2209.8,1697 2209.8,1684.5 2279.4,1684.5 2279.4,1729.2 
			2287.2,1729.2 2287.2,1684.5 2348.7,1684.5 2348.7,1529.5 		"/>
		<path class="st0" d="M2044.7,1684.5h10.5c5.7,0-0.2-4.6-0.2-10.4v-134.2c0-5.7-4.6-10.4-10.4-10.4l-20.9,0c0,44.5,0,154.9,0,154.9
			S2035.1,1684.5,2044.7,1684.5z"/>
		<linearGradient id="SVGID_97_" gradientUnits="userSpaceOnUse" x1="2348.6675" y1="1607.0146" x2="2194.6492" y2="1607.0146">
			<stop  offset="0" style="stop-color:#CDDBF7"/>
			<stop  offset="1" style="stop-color:#EEF1F8"/>
		</linearGradient>
		<path class="st101" d="M2306.5,1529.5c0,0,28.4,154.9-111.9,154.9h154v-154.9H2306.5z"/>
		<rect x="1608.2" y="1547.3" class="st12" width="249.9" height="127"/>
		<linearGradient id="SVGID_98_" gradientUnits="userSpaceOnUse" x1="1749.5221" y1="1667.6749" x2="1812.6786" y2="1667.6749">
			<stop  offset="0" style="stop-color:#CDDBF7"/>
			<stop  offset="1" style="stop-color:#EEF1F8"/>
		</linearGradient>
		<path class="st102" d="M1749.5,1683.5c0-17.4,14.1-31.6,31.6-31.6c17.4,0,31.6,14.1,31.6,31.6H1749.5z"/>
		<linearGradient id="SVGID_99_" gradientUnits="userSpaceOnUse" x1="1746.1266" y1="1595.1808" x2="1746.1266" y2="1559.8674">
			<stop  offset="0" style="stop-color:#CDDBF7"/>
			<stop  offset="1" style="stop-color:#A8C3EE"/>
		</linearGradient>
		<circle class="st103" cx="1746.1" cy="1577.5" r="17.7"/>
		<linearGradient id="SVGID_100_" gradientUnits="userSpaceOnUse" x1="1733.2236" y1="1684.4825" x2="1733.2236" y2="1537.1176">
			<stop  offset="0" style="stop-color:#EBF3FF"/>
			<stop  offset="1" style="stop-color:#EEF1F8"/>
		</linearGradient>
		<path class="st104" d="M1598.6,1537.1v147.4h269.3v-147.4H1598.6z M1858.2,1674.3h-249.9v-127h249.9V1674.3z"/>
		<linearGradient id="SVGID_101_" gradientUnits="userSpaceOnUse" x1="1678.837" y1="1647.9287" x2="1678.837" y2="1586.8093">
			<stop  offset="0" style="stop-color:#CDDBF7"/>
			<stop  offset="1" style="stop-color:#EEF1F8"/>
		</linearGradient>
		<circle class="st105" cx="1678.8" cy="1617.4" r="30.6"/>
		<g>
			<linearGradient id="SVGID_102_" gradientUnits="userSpaceOnUse" x1="1296.6598" y1="2198.0601" x2="2349.7241" y2="2198.0601">
				<stop  offset="0" style="stop-color:#6B75FF"/>
				<stop  offset="1" style="stop-color:#4134F4"/>
			</linearGradient>
			<polygon class="st106" points="1296.7,2250.3 2349.7,2250.3 2279,2145.8 1402.9,2145.8 			"/>
			<linearGradient id="SVGID_103_" gradientUnits="userSpaceOnUse" x1="2151.2729" y1="2151.7524" x2="2230.8088" y2="2151.7524">
				<stop  offset="0" style="stop-color:#F8B795"/>
				<stop  offset="1" style="stop-color:#F7C8A4"/>
			</linearGradient>
			<path class="st107" d="M2202.4,2100.8c0,0,25.1-2.1,28.2,25.2c3.1,27.3-22.5,76.7-65.3,76.7c-42.7,0,27-28.6,16.2-68.8
				C2176,2113.5,2202.4,2100.8,2202.4,2100.8z"/>
			<linearGradient id="SVGID_104_" gradientUnits="userSpaceOnUse" x1="1424.9712" y1="2037.2313" x2="1563.722" y2="2037.2313">
				<stop  offset="0" style="stop-color:#F8B795"/>
				<stop  offset="1" style="stop-color:#F7C8A4"/>
			</linearGradient>
			<path class="st108" d="M1563.7,1894.3c0,0-22.4,285.9-74,285.9h-60c-4.6,0-6.5-6-2.7-8.6c6.8-4.8,18-9.7,34.9-9.7
				c32.6,0,18.2-95.1,27.8-124.6c9.6-29.5-11.9-104.5-11.9-104.5S1495.5,1892.9,1563.7,1894.3z"/>
			<linearGradient id="SVGID_105_" gradientUnits="userSpaceOnUse" x1="1258.3999" y1="1868.0155" x2="1465.1968" y2="1868.0155">
				<stop  offset="0" style="stop-color:#F7E2C4"/>
				<stop  offset="1" style="stop-color:#FED6B4"/>
			</linearGradient>
			<path class="st109" d="M1258.4,1858.7c0.6,14.4,9.8,27.1,23,33c33.6,15,89.7,45.5,104,25.9c23.5-32.2,34.9-48.5,66.9-52.4
				c32-3.9-3.6-60-21.7-52.5C1414.4,1819.4,1255.9,1794.8,1258.4,1858.7z"/>
			<linearGradient id="SVGID_106_" gradientUnits="userSpaceOnUse" x1="2166.158" y1="2159.29" x2="2252.0786" y2="2159.29">
				<stop  offset="0" style="stop-color:#F7E2C4"/>
				<stop  offset="1" style="stop-color:#FED6B4"/>
			</linearGradient>
			<path class="st110" d="M2220.9,2100.8c0,0,33.4-4,31.1,27.5c-2.4,33.8-20.6,89.6-69.7,89.6s31-32.8,18.6-79
				C2194.6,2115.4,2220.9,2100.8,2220.9,2100.8z"/>
			<linearGradient id="SVGID_107_" gradientUnits="userSpaceOnUse" x1="1704.1876" y1="2045.4561" x2="2211.8691" y2="2045.4561">
				<stop  offset="0" style="stop-color:#ACC6EF"/>
				<stop  offset="1" style="stop-color:#98B9EA"/>
			</linearGradient>
			<path class="st111" d="M1704.2,2000.5c0,0,140,113.9,459,136.2c12.3,0.9,28,3.7,48.7-7.5c0,0-403.7-254.7-466.1-151.4
				C1731.6,2001.2,1704.2,2000.5,1704.2,2000.5z"/>
			<linearGradient id="SVGID_108_" gradientUnits="userSpaceOnUse" x1="1323.1592" y1="1837.9689" x2="1431.2744" y2="1837.9689">
				<stop  offset="0" style="stop-color:#F7C8A4"/>
				<stop  offset="1" style="stop-color:#FED6B4"/>
			</linearGradient>
			<path class="st112" d="M1429.6,1824.4c0,0-13.4,22.7-36.5,17.2c-23.1-5.5-39.6-19-49.8-8.8c-15.9,15.9,7.8,30.3,7.8,30.3
				s-29.5-4.1-27.9-30.2c1.6-26,32.4-19.1,32.4-19.1l51.8,0.2c0,0,18.6,0.1,22.3-0.9C1433.3,1812.1,1429.6,1824.4,1429.6,1824.4z"/>
			<linearGradient id="SVGID_109_" gradientUnits="userSpaceOnUse" x1="1429.647" y1="1900.7056" x2="1791.6272" y2="1900.7056">
				<stop  offset="0" style="stop-color:#FF486B"/>
				<stop  offset="1" style="stop-color:#FF3969"/>
			</linearGradient>
			<path class="st113" d="M1434.8,1890.5c4.5,31.8,122.6,129.2,295.3,107.7c104-12.9,44.6-98.5,44.6-98.5s-221.3-142.2-345.1-86.7
				C1429.6,1813,1430.4,1858.6,1434.8,1890.5z"/>
			<linearGradient id="SVGID_110_" gradientUnits="userSpaceOnUse" x1="1434.8378" y1="1895.4375" x2="1541.9945" y2="1895.4375">
				<stop  offset="0" style="stop-color:#FF486B"/>
				<stop  offset="1" style="stop-color:#FF3969"/>
			</linearGradient>
			<path class="st114" d="M1455.8,1966.7c7.2-9.8,30.8-35.1,83.3-34.7c0,0,21.9-110.8-55.9-108.9c-78.2,1.9-40.3,118.7-31.6,143
				C1452.3,1968,1454.7,1968.3,1455.8,1966.7z"/>
			<linearGradient id="SVGID_111_" gradientUnits="userSpaceOnUse" x1="1704.1876" y1="2019.1255" x2="2223.7549" y2="2019.1255">
				<stop  offset="0" style="stop-color:#CDDBF7"/>
				<stop  offset="1" style="stop-color:#EEF1F8"/>
			</linearGradient>
			<path class="st115" d="M1774.7,1899.7c0,0,54.9-5.4,97.6,24.3c42.6,29.7,132.1,92.3,191.3,110.5c59.2,18.2,127.1,33.1,160.2,66.7
				c0,0,0.8,21.5-22.9,37.8c0,0-302.9-39.7-496.7-138.4C1704.2,2000.5,1771.7,1984.8,1774.7,1899.7z"/>
			<linearGradient id="SVGID_112_" gradientUnits="userSpaceOnUse" x1="1531.0079" y1="1913.7351" x2="1557.8801" y2="1913.7351">
				<stop  offset="0" style="stop-color:#E8185D"/>
				<stop  offset="1" style="stop-color:#FF3969"/>
			</linearGradient>
			<path class="st116" d="M1531,1848.1c0,0,15.2,15.2,8.1,83.9l-3.8,39.6l19.2,7.6C1554.6,1979.3,1570.8,1890.9,1531,1848.1z"/>
			<linearGradient id="SVGID_113_" gradientUnits="userSpaceOnUse" x1="1388.406" y1="2074.9492" x2="1539.1528" y2="2074.9492">
				<stop  offset="0" style="stop-color:#F7E2C4"/>
				<stop  offset="1" style="stop-color:#FED6B4"/>
			</linearGradient>
			<path class="st117" d="M1539.2,1932.1c0,0-22.4,285.9-74,285.9h-72c-4.7,0-6.5-6.1-2.6-8.7c8.6-5.7,31.1-12,49.2-12
				c32.6,0,23.4-92.8,33-122.3c9.6-29.5-15.3-110.4-15.3-110.4S1481.8,1929.4,1539.2,1932.1z"/>
			<linearGradient id="SVGID_114_" gradientUnits="userSpaceOnUse" x1="1272.8491" y1="1875.2014" x2="1351.1349" y2="1875.2014">
				<stop  offset="0" style="stop-color:#F7C8A4"/>
				<stop  offset="1" style="stop-color:#FED6B4"/>
			</linearGradient>
			<path class="st118" d="M1283.8,1892.7c0,0,13-24,30-21c18.2,3.2,32.8,7.3,37.4-8.7c0,0-56.1-10.5-68.7-2.1
				c-12.6,8.4-9.2,25.9-9.2,25.9S1279.5,1891.6,1283.8,1892.7z"/>
			<linearGradient id="SVGID_115_" gradientUnits="userSpaceOnUse" x1="1228.2611" y1="1835.7843" x2="1387.4863" y2="1835.7843">
				<stop  offset="0" style="stop-color:#6B75FF"/>
				<stop  offset="1" style="stop-color:#4134F4"/>
			</linearGradient>
			<path class="st119" d="M1343.3,1858.5c2.1,1.6,4.7,3.2,7.9,4.5c0,0-7.3,7.3-17.2,4.1c-9.9-3.2-54.8-17-61.6,23.7
				c-6.7,40.6-57,16.2-41-22.6c16-38.8-0.8-73.2,50.9-98.6c39.5-19.3,75.8-8.7,94.7,16.2c18.9,24.9,8,44.3,0.4,41.7
				c-7.8-2.7-36.5-13.1-42.4,7.4C1332.5,1843.7,1336.1,1853,1343.3,1858.5z"/>
			<linearGradient id="SVGID_116_" gradientUnits="userSpaceOnUse" x1="1393.16" y1="2074.9595" x2="1539.2087" y2="2074.9595">
				<stop  offset="0" style="stop-color:#F7C8A4"/>
				<stop  offset="1" style="stop-color:#FED6B4"/>
			</linearGradient>
			<path class="st120" d="M1485.8,1942.3c0,0,26.8,88.9,17.5,116.3c-9.3,27.4-11.3,145.2-33.7,151.4c-20.3,5.6-76.5,8-76.5,8h72
				c0,0,19.5,6.1,36.9-50.6c17.4-56.6,38.4-214,37.1-235.3C1539.2,1932.1,1513.2,1929,1485.8,1942.3z"/>
			<linearGradient id="SVGID_117_" gradientUnits="userSpaceOnUse" x1="2170.9612" y1="2169.1575" x2="2252.1003" y2="2169.1575">
				<stop  offset="0" style="stop-color:#F7C8A4"/>
				<stop  offset="1" style="stop-color:#FED6B4"/>
			</linearGradient>
			<path class="st121" d="M2171,2216.9c0,0-1-7.9,13.8-9.3c14.8-1.4,52.1-10.5,66.9-87.5c0,0,1.3,5.2-0.7,17.6
				C2245.7,2169.3,2226.9,2227.6,2171,2216.9z"/>
			<linearGradient id="SVGID_118_" gradientUnits="userSpaceOnUse" x1="1326.7274" y1="1834.418" x2="1387.5845" y2="1834.418">
				<stop  offset="0" style="stop-color:#2C2CCE"/>
				<stop  offset="1" style="stop-color:#4134F4"/>
			</linearGradient>
			<path class="st122" d="M1351.1,1863c0,0-22.3-1.4-24.3-22.2c-2.3-24.7,23-38.4,44.5-21.8c15.8,12.2,15.2-13.3,15.2-13.3
				s2.7,9-0.8,15.9c-3.6,6.9-4,8.2-14.4,4c-10.4-4.2-30.6-5.9-36,8.2C1329.9,1848,1345.5,1862.4,1351.1,1863z"/>
			<linearGradient id="SVGID_119_" gradientUnits="userSpaceOnUse" x1="1234.7335" y1="1882.5687" x2="1330.6216" y2="1882.5687">
				<stop  offset="0" style="stop-color:#2C2CCE"/>
				<stop  offset="1" style="stop-color:#4134F4"/>
			</linearGradient>
			<path class="st123" d="M1272.8,1858.5c-14.6,9.9,0,42.2-17.5,47.2c-14.9,4.3-20.7-3.6-20.7-3.6s10.2,15,26.2,7.8
				c9.5-4.3,11.8-15.7,12.4-21.1c0.3-2.4,0.7-4.8,1.7-7c12.9-30.2,55.7-15.7,55.7-15.7C1311.3,1858.9,1291.5,1845.9,1272.8,1858.5z"
				/>
		</g>
	</g>
</g>
</svg>
