<?xml version="1.0" encoding="utf-8"?>
<!-- Generator: Adobe Illustrator 21.1.0, SVG Export Plug-In . SVG Version: 6.00 Build 0)  -->
<svg version="1.1" id="Layer_1" xmlns="http://www.w3.org/2000/svg" xmlns:xlink="http://www.w3.org/1999/xlink" x="0px" y="0px"
	 viewBox="0 0 354.9 242.8" style="enable-background:new 0 0 354.9 242.8;" xml:space="preserve">
<style type="text/css">
	.st0{fill:#FFFFFF;}
	.st1{fill:#9CCFF0;}
	.st2{fill:#96BEE5;}
	.st3{opacity:0.5;fill:#D1D3D4;}
	.st4{fill:url(#SVGID_1_);}
	.st5{fill:#FCC79E;}
	.st6{fill:url(#SVGID_2_);}
	.st7{fill:#4B2B22;}
	.st8{fill:#55392D;}
	.st9{fill:#FCBF91;}
	.st10{fill:#FFDCAE;}
	.st11{fill:url(#SVGID_3_);}
	.st12{fill:#A97C50;}
	.st13{fill:#FCC59D;}
	.st14{fill:#F69B95;}
	.st15{fill:#E8978E;}
	.st16{fill:#F1A97A;}
	.st17{fill:#4E9DD6;}
	.st18{fill:#6AB2E2;}
	.st19{fill:url(#SVGID_4_);}
	.st20{fill:#D8625E;}
	.st21{fill:#D87263;}
	.st22{fill:#EDE8DE;}
	.st23{fill:url(#SVGID_5_);}
	.st24{fill:#E18326;}
	.st25{fill:#F7941D;}
	.st26{fill:url(#SVGID_6_);}
	.st27{fill:#3F1D18;}
	.st28{fill:url(#SVGID_7_);}
	.st29{fill:#3F110E;}
	.st30{fill:url(#SVGID_8_);}
	.st31{fill:url(#SVGID_9_);}
	.st32{fill:url(#SVGID_10_);}
	.st33{fill:url(#SVGID_11_);}
	.st34{fill:url(#SVGID_12_);}
	.st35{fill:url(#SVGID_13_);}
</style>
<rect class="st0" width="354.9" height="242.8"/>
<g>
	<polygon class="st1" points="65.9,105.4 288.8,105.4 261.7,66.3 95.4,66.3 	"/>
	<g>
		<g>
			<path class="st2" d="M90,104.4c5.2,0,196.5,0,196.5,0s0.6,0,1.4,0l0.9,1H65.9l1.7-1.9C69.8,104.5,78.2,104.4,90,104.4z"/>
		</g>
	</g>
</g>
<g>
	<polygon class="st1" points="65.9,218.7 288.8,218.7 261.7,179.6 95.4,179.6 	"/>
	<g>
		<g>
			<path class="st2" d="M90,217.7c5.2,0,196.5,0,196.5,0s0.6,0,1.4,0l0.9,1H65.9l1.7-1.9C69.8,217.8,78.2,217.7,90,217.7z"/>
		</g>
	</g>
</g>
<g>
	<path class="st3" d="M125.2,189.8c3.1-0.2,6.3,0.1,9.4,0.2c3,0.1,6,0.2,9,0.3c1.5,0.1,3.2,0.3,4.7,0.1c1.4-0.1,2.3-1,3.6-1.5
		c1.6-0.6,3.6-0.6,5.3-0.6c2.7-0.1,4.5,1.4,7,2.1c2.4,0.6,5.3,0.3,7.8,0.5c11.2,1.1,22.5,1.2,33.7,1.4c8.3,0.1,11.9,9.9,20.2,10
		c2.6,0,19.2,0.1,22.1,0.8c2,0.5,3.9,1.4,4.8,2.2c0.1,0,0.2,0.1,0.2,0.1c0,0-2.5,2.3-8.8,1.4c-4.8,0-9.7-0.1-9.7-0.1l-0.2,0
		c-5.7,0.1-12.2,2.2-13.8,2.2c-20,0.1-88.7-0.3-92.3-0.4C103.5,208.1,111.2,190.6,125.2,189.8z"/>
	<g>
		<linearGradient id="SVGID_1_" gradientUnits="userSpaceOnUse" x1="153.6765" y1="186.7376" x2="153.9773" y2="187.3744">
			<stop  offset="0" style="stop-color:#FFDCAE"/>
			<stop  offset="1" style="stop-color:#FCC89E"/>
		</linearGradient>
		<path class="st4" d="M157.6,185.6c0.6,0,2.4,0.7,4,1.1c-1.4-0.7-3-1.9-3.6-1.9c-0.9-0.1-4.7,1.7-5.6,2.3c-0.9,0.6-3.1,1.9-3.8,2.3
			c-0.6,0.3-1.3,0.7-1.1,0.9c0.1,0.1,0.5,0.1,1,0.1c0.9-0.5,2.6-1.5,3.5-2.1C152.9,187.8,156.7,185.6,157.6,185.6z"/>
	</g>
	<path class="st5" d="M165,189.7c0,0-1.9,1.1-3.7,1.2c-1.8,0.1-3.4,0.2-4.1,0.4c-0.7,0.2-2.5,0.8-2.9,0.8c-0.4,0-1.1-0.9-0.3-1.2
		c0.8-0.3,3.2-1.2,4.2-1.8c1-0.5,1.8-1.1,2.5-1.1"/>
	<path class="st5" d="M158.5,189c0,0-1.2-0.2-1.7-0.2s-2.9,0.5-3.8,1.1c-0.9,0.6-2.6,1.4-3.3,1.6c-0.7,0.2-2.3,0.2-2.5,0
		c-0.2-0.2,0.5-0.5,1.1-0.9c0.7-0.4,2.9-1.7,3.8-2.3c0.9-0.6,4.7-2.8,5.6-2.7c0.9,0.1,4.6,0.7,5.9,0.8c1.3,0.1,2.7,0,2.7,0
		s15.6-0.5,21.3,0c5.9,0.5,14.2,0.3,14.2,0.3v7.6c0,0-8.7-1.3-10.3-1.3c-1.5,0-9.2-0.2-14-0.8c-4.8-0.6-13.1-2.6-13.1-2.6"/>
	<g>
		<linearGradient id="SVGID_2_" gradientUnits="userSpaceOnUse" x1="147.0802" y1="188.6428" x2="201.6133" y2="188.6428">
			<stop  offset="0" style="stop-color:#FFDCAE"/>
			<stop  offset="1" style="stop-color:#FCC89E"/>
		</linearGradient>
		<path class="st6" d="M187.4,186.4c-5.7-0.5-21.3,0-21.3,0s-1.5,0.1-2.7,0c-1.3-0.1-5-0.7-5.9-0.8c-0.9-0.1-4.7,2.1-5.6,2.7
			c-0.9,0.6-3.1,1.9-3.8,2.3c-0.6,0.3-1.3,0.7-1.1,0.9c0.1,0.1,0.5,0.1,1,0.1c0,0,0.1,0,0.1-0.1c0.7-0.4,2.9-1.7,3.8-2.3
			c0.9-0.6,4.7-2.8,5.6-2.7c0.9,0.1,4.6,0.7,5.9,0.8c1.3,0.1,2.7,0,2.7,0s15.6-0.5,21.3,0c5.9,0.5,14.2,0.3,14.2,0.3v-0.9
			C201.6,186.7,193.4,187,187.4,186.4z"/>
	</g>
	<g>
		<path class="st7" d="M236.3,199.4c5.3,0,13.4-2.6,16.5-4.9c0,0,5.6,1.7,6.7,4.7c1.1,3-0.9,7.8-9.8,7.7c-14-0.2-22.4-0.2-24.3-1
			c-2.3-0.9,0.4-3.9,0.4-3.9S232.5,199.4,236.3,199.4z"/>
		<g>
			<path class="st8" d="M257,198.6c-1.1-1.1-2.4-0.7-4.3-1.3c0.2-1-0.3-2.5-0.4-3.1c0,0,6.1,2,7.2,5.1c0.7,1.9,0.3,4.2-2.4,5.8
				C259.3,202,258.2,199.8,257,198.6z"/>
		</g>
		<g>
			<path class="st9" d="M250.3,184.1c0,0-0.2,0.1-0.2,0.7c0,0.7-0.5,3-1.7,4.4c-1.2,1.4-3.2,3.6-3.2,3.6s4.3-2.9,5.1-5.4
				C251,185,250.3,184.1,250.3,184.1z"/>
			<path class="st10" d="M239.9,196.5l-8-6c0,0-2.9,0.4-4.8-1c-0.7-0.5-2.8-2.6-3.5-5.7c-0.3-1.3-3.8-1.1-4,0.1
				c-0.8,4.5,5,10.2,6.7,13.3c1.7,3.1,0.9,7.3,0.9,7.3s1.1-3.4,4.3-3.6c3.2-0.2,6.5,0.7,6.5,0.7L239.9,196.5z"/>
			<g>
				<polygon class="st5" points="237.9,200.7 237.9,200.7 237.9,200.7 				"/>
				<path class="st10" d="M237.4,201.9l0.5-1.2c0,0-0.2,0.5-0.6,1.2C237.4,201.9,237.4,201.9,237.4,201.9z"/>
			</g>
			<linearGradient id="SVGID_3_" gradientUnits="userSpaceOnUse" x1="227.6402" y1="194.5866" x2="231.0989" y2="198.0947">
				<stop  offset="0" style="stop-color:#FFDCAE"/>
				<stop  offset="1" style="stop-color:#FCC89E"/>
			</linearGradient>
			<path class="st11" d="M239.9,196.5l-8-6c0,0-1.5,0.3-3.8-0.5c0,0,9.3,7.6,8.6,8.4c-0.6,0.8-3.9,1.1-9.1,1.3
				c-0.1,0.9-0.4,4.9-0.4,4.9s1.1-3.5,4.3-3.8c2.5-0.2,5.1,0.3,6.1,0.6c0.1,0,0.2,0,0.3,0.1c0.1,0,0.1,0.1,0.1,0.1L239.9,196.5z"/>
			<g>
				<path class="st10" d="M245.2,192.6c4.2-3.2,5.4-6.5,5.2-7.4c-0.2-1.2,0.1-1.2,0.3-1.2c-1.2-0.4-3.2-0.7-4.7-0.7
					c-0.8,0-1.2,0.1-1.5,0.2c-0.6,0.2-0.7,0.3-2-0.3c-1.9-0.9-2.8-1.7-3.2-1.6c-0.4,0.1-0.6,1.3-0.6,1.3s-0.5,0-1.2,0.2l-0.3-0.1
					c0,0-0.5-0.1-0.7-0.1c-0.2,0-0.4,0.2-0.4,0.2s-0.3,1.3-0.5,1.8c-0.2,0.7,0.1-1.6-0.2-1.7c-0.2-0.1-0.3-0.2-0.6,0.1
					c-0.3,0.4-0.9,0.7-1,0.8c-0.1,0.1-2.3,0.4-2.6,0.4c-1.9,0.3,0,6.9,2.2,9.5c1.9,1.4,4.4,2.8,4.4,2.8c0.8-0.4,1.3-0.2,2.4-0.3
					c0.8-0.4,2.2-1.6,3.2-2C244.2,193.9,244.3,193.3,245.2,192.6z"/>
			</g>
			<path class="st8" d="M242,194.6c0.8-0.5,1.7-1.3,2.8-1.9c0.9-0.4,1.5-0.9,2.2-1.5c3.3-2.8,3.7-5.7,3.5-6.5c-0.3-1.2,0.2-1,0.2-1
				s6.2,2.6,6.7,9.6c0.5,6.5-2.5,10.1-6.8,12.1c-7.1,3.3-15-4.1-15-4.1S238,197.2,242,194.6z"/>
			<path class="st12" d="M245.2,197.5c0.5,0.1,0.7,0.9,1.3,1c0.3-0.6-0.1-1.4,0.1-2.1c0.4,0.2,0.5,0.8,0.7,1.1
				c0.1,0.3,0.3,0.5,0.5,0.8c0.1,0.2,0.1,0.4,0.3,0.5c0.1-0.1,0-0.4,0-0.6c0-0.4-0.1-0.9-0.2-1.3c-0.1-0.6-0.3-1.1-0.5-1.6
				c-0.2-0.5-0.4-1.1-0.4-1.6l-0.1,0.1c0-0.1-0.1-0.4-0.2-0.4c-0.2-0.1-0.2,0.1-0.3,0.2c-0.2,0.3-0.3,0.7-0.5,1.1
				c-0.3-0.2-0.5-0.7-0.7-1c-0.1,0.2-0.3,1.2-0.5,1.2c-0.2,0-0.4-0.5-0.7-0.6c-0.1,0.9-0.1,1.7,0.1,2.6c0.1,0.4,0.2,0.8,0.3,1.2
				c0,0.2,0,0.6,0.2,0.6C244.9,198.4,245.1,198,245.2,197.5z"/>
			<g>
				<path class="st12" d="M250.2,193.3c0.4,0.2,0.6,0.8,1,0.8c-0.1-0.4-0.4-1-0.3-1.4c1.1,0.3,1,2.1,2,2.4c0.3-0.9,0.1-2.3-0.3-3.2
					c-0.3-0.7-1.8-2.1-1.4-2.8c0.5,0.1,0.9,0.7,1.3,1.1c0.3,0.4,0.7,1.1,1.1,1.3c0.2-0.4-0.3-0.7,0.3-0.6c0.3,0,0.6,0.4,0.9,0.4
					c0.1-0.4-0.4-1.3,0.1-1.2c0.5,0.1,0.6,1.1,1,1.3c0.1-1.1-0.2-2.3-0.9-3.2c-0.8-1-2-2.7-3.3-3.2c0.5,0.6,1.4,1.6,1.2,2.3
					c-0.6-0.1-0.9-1-1.5-1c0.1,0.4,0.5,1,0.4,1.4c-0.2,0.6-0.8,0-1,0.2c-0.2,0.2-0.1,2.2-0.5,2c-0.3,0.6,0,1.4-0.3,2.1
					c-0.7-0.2-1-0.3-0.9,0.5c0.1,0.8,0.5,1.8,1.1,2.4C250.2,194.5,250,193.8,250.2,193.3z"/>
			</g>
			<g>
				<path class="st13" d="M236.5,182.9c0.2,0,0.7,0.4,0.7,0.4l1.2,0.1l0.1-0.5c0,0-0.5,0-1.2,0.2l-0.3-0.1
					C237.1,182.9,236.8,182.8,236.5,182.9C236.5,182.8,236.5,182.9,236.5,182.9z"/>
			</g>
			<path class="st13" d="M238.5,183.7c0,0,0.4,0.3,0.7,0.1c0.4-0.2,0.6-0.5,0.6-0.5s0,1-0.5,0.9
				C238.8,184.2,238.5,183.7,238.5,183.7z"/>
			<g>
				<g>
					<path class="st9" d="M244.4,187.2c-0.4,0.5-0.9,0.8-0.9,0.8s-0.9-1.1-0.9-2c0-0.9,0.3-1,0.3-1s0.7-0.1,1.2-0.3c0,0,0,0-0.1,0
						c-0.3,0-1.4,0-1.4,0s-0.2,0.2-0.3,1.4c0,1.1,1.5,2.2,1.5,2.2S244.2,188,244.4,187.2z"/>
				</g>
				<g>
					<g>
						<path class="st8" d="M242.2,184.7c0,0,0.4,0,0.4,0c-0.1,0.4-0.1,1,0.2,1.8c0.4,1.3,1.1,1.8,1.1,1.8s-1.1-0.6-1.6-2
							C242,185.5,242.1,185,242.2,184.7z"/>
					</g>
				</g>
				<g>
					<path class="st8" d="M244.4,183.8c0,0,0,0.6,0.2,1.1c0.2,0.6,0.9,2.2,0.9,2.6c0,0.4-0.1,1.5-0.1,1.5s0.3-0.7,0.3-1.3
						c0-0.6-0.3-2.8-0.6-3.6C244.9,183.4,244.5,183.6,244.4,183.8z"/>
				</g>
			</g>
			<path class="st14" d="M236.1,182.8c0,0,0.2,0.2,0.2,0.4c0,0.2-1,1.7-1,1.7l0.6-2C235.9,183,236,182.8,236.1,182.8z"/>
			<path class="st15" d="M234.9,183c0,0,0,0.6,0.1,1c0.1,0.4,0.3,1,0.3,1s0.2-1.5,0-1.9C235.2,182.9,235,182.8,234.9,183z"/>
			<path class="st5" d="M230.5,188.1c0,0,0.7,3.4,1.7,5c1.1,1.6,5.3,3.6,5.3,3.6s-4.8-3.4-5.2-3.8
				C232.1,192.5,230.5,188.1,230.5,188.1z"/>
			<g>
				<path class="st10" d="M237.5,195.4c0,0-0.4,0.6-0.1,1.1c0.3,0.5,0.7,1.2,2.4,2.2c1.7,1,2.7-0.4,2.9-0.6c0.1-0.3-0.1-1.9-2.9-2.6
					"/>
				<path class="st16" d="M241.1,197.2c0,0-1-0.1-1.2-0.1c-0.4,0.2-0.7-0.3-0.7-0.3s0.3-0.1,0.5-0.1
					C239.8,196.8,241.1,197.2,241.1,197.2z"/>
				<path class="st16" d="M238.3,196c0,0.1,0.7,1.1,0.9,1c0,0,0.1,0,0.1,0c0.2-0.1,0.2-0.1,0.6,0c0.1,0,0.3,0.1,0.5,0.1
					c0.5,0.1,1.2,0.4,1.2,0.5c0,0.1,0,0.1-0.1,0.2c-0.2,0.2-0.5,0.3-0.9,0.2c-0.5-0.1-0.6-0.4-0.6-0.4c0,0,0,0.4,0.6,0.5
					c0.4,0.1,0.8-0.1,0.9-0.2c0.1-0.1,0.1-0.2,0.1-0.3c0-0.2-0.2-0.3-1.3-0.6c-0.2-0.1-0.4-0.1-0.5-0.1c-0.3-0.1-0.4-0.1-0.6,0
					c0,0-0.1,0-0.1,0c-0.2,0.1-0.5-0.4-0.6-0.7L238.3,196z"/>
			</g>
		</g>
		<g>
			<g>
				<path class="st17" d="M257.8,198.8c-0.6,2-1.4,2.5-2.2,2.2c1-1.4,1.6-3.1,1.7-5.1C257.9,196.4,258.3,197.3,257.8,198.8z"/>
			</g>
			<g>
				<path class="st18" d="M258.1,197.7c-0.2-0.2-0.5-0.5-0.8-0.8c0-0.3,0.1-0.7,0.1-1C257.7,196.2,258.1,196.8,258.1,197.7z"/>
			</g>
		</g>
	</g>
	<g>
		<g>
			<linearGradient id="SVGID_4_" gradientUnits="userSpaceOnUse" x1="128.5343" y1="154.4029" x2="186.0654" y2="154.4029">
				<stop  offset="0" style="stop-color:#3F110E"/>
				<stop  offset="1" style="stop-color:#3F1D18"/>
			</linearGradient>
			<path class="st19" d="M170.2,148.2c-2.5-0.9-8-3.8-13.3-5.1c-5.3-1.3-17.2-2.9-19.9-2.8c-2.7,0.1-7.4,0.6-8.3,4.9
				c-0.4,2.1,0.2,7.2,0.6,11.4c1.3,0.9,4.3,2,10.7,1.8c-0.3-3.1-0.9-5.8-0.9-5.8s6.6,1.9,9.8,2.8c3.2,0.9,7.8,3,9,3.5
				c1.2,0.5,4.1,3.4,6,5.7c1.9,2.3,8.4,3.9,11.1,4c2.7,0.1,4.9,0,4.9,0s1.9-4.1,3.6-8c1.7-3.8,2.6-5.6,2.6-5.6
				C182.2,151.5,172.8,149.2,170.2,148.2z"/>
			<path class="st5" d="M129.3,156.5c0.1,1.2,0.4,2.9,0.4,3.8c0.2,4.2,0.3,11.4,0.1,16.4c-0.2,5-0.7,8.1-0.7,8.1s2.3,6.3,5,5.8
				c2.7-0.5,3.4-2.3,3.4-2.3s-1.2-3.6-1.2-4.9c0.1-1.4,2.4-13,3.5-17.7c0.5-2,0.4-5.4,0.1-7.7C133.6,158.2,130.6,157.5,129.3,156.5z
				"/>
		</g>
		<g>
			<path class="st20" d="M111.2,192.8c0,0-0.5-2.3,0.8-2.8c1.3-0.5,4.3-0.2,5.2-0.5c0.9-0.2,4.9-2.8,6.2-3.7
				c1.3-0.9,4.9-3.6,5.3-3.7c0.5,0,1.5,0,1.9,0.5c0.4,0.5,0.1,3,0.7,4c1.2,1.9,4.4,1.5,5,1.2c0.6-0.3,0.8-1.3,0.8-1.3
				s1.7,1.8,2.1,3.5c0.3,1.1,0.1,3.3,0.1,4.8c0,0.8-0.1,1.5-0.2,1.6c-0.4,0.4-5,0.5-6.4,0c-1.5-0.5-2.2-1.5-3.8-1.2
				c-1.7,0.2-7,0.9-9.2,0.5C117.2,195.3,112.6,195.1,111.2,192.8z"/>
			<g>
				<path class="st21" d="M114.9,192.2c0.8,0.1,1.7,0.1,2.5,0.2c0.8,0,1.8,0.2,2.5-0.3c0.2-0.1,0.2-0.3,0.3-0.4
					c0.2-0.2,0.5-0.2,0.7-0.4c0.8-0.4,1.6-0.9,2.2-1.4c0.4-0.4,0.6-0.6,1.2-0.8c0.9-0.2,1.9-0.9,2.9-0.9c0.4,0,0.8,0.1,1.2,0.1
					c0.9,0.1,1.7-0.3,2.5-0.7c0.3-0.1,0.6-0.3,0.9-0.4c-0.2-0.2-0.4-0.4-0.6-0.7c-0.6-1-0.4-3.5-0.7-4c-0.4-0.5-1.4-0.6-1.9-0.5
					c-0.5,0-4.1,2.8-5.3,3.7c-1.3,0.9-5.2,3.4-6.2,3.7c-0.9,0.2-3.9,0-5.2,0.5c-0.1,0-0.1,0.1-0.2,0.1c0,0,0,0-0.1,0
					c0,0-0.1,0.1-0.1,0.1c0,0,0,0,0,0c-0.2,0.2-0.3,0.5-0.4,0.8c0.9,0.4,2.1,0.9,2.3,1C113.9,192.1,114.5,192.1,114.9,192.2z"/>
			</g>
			<g>
				<path class="st22" d="M132.2,194.5c-1.3-0.6-2.7-0.7-4.5-0.5c-1.8,0.3-3.7,0.5-6.2,0.4c-2.5-0.1-7.1-0.9-8.2-1.5
					c-2.7-1.5-1.1-2.6-1.6-2.9c-1.1,0.6-0.8,3.1-0.8,3.1c1.4,2.4,6.2,2.5,8.4,2.9c2.2,0.4,7.5-0.3,9.1-0.5c1.6-0.2,2.5,0.6,4,1.2
					c1.5,0.5,5.4,0.7,6.5-0.2c0.6-0.4,0.6-1.8,0.3-2.5C137.1,195.9,133.4,195,132.2,194.5z"/>
			</g>
		</g>
	</g>
	<linearGradient id="SVGID_5_" gradientUnits="userSpaceOnUse" x1="216.1436" y1="202.7449" x2="213.0912" y2="206.0881">
		<stop  offset="0" style="stop-color:#FFDCAE"/>
		<stop  offset="1" style="stop-color:#FCC89E"/>
	</linearGradient>
	<path class="st23" d="M207.5,204.8c0,0-0.1-10.5,7-12.8c7.1-2.3,12.1,2.7,12.6,6.4c0.5,3.8,0.7,8.1-3.7,9.7
		C219,209.6,208.2,208.3,207.5,204.8z"/>
	<g>
		<path class="st24" d="M228,199c-1.2-4.4-4.9-8.9-5.1-11.3c-0.1-2.5,0.5-3.8,0.5-3.8s0.6-6.3-2.5-9.4c-2.2-2.2-6.3-2-9.3-2.3
			c-1.2-0.1-2.1-0.7-3.1-1.6c-1,1.8-3.7,6.1-7.3,10c-2.7,2.9-4.8,5-6.2,6.2c1.9,2.3,3.8,4.7,4.4,5.6c1.3,1.8,7.3,12.3,7.3,12.3
			l1.5-0.3c0,0-0.3-8.2,5.5-11.2c5.9-3,10.1-0.7,11.7,2.1c3.3,6.2,0.1,11.2,0.1,11.2l-0.8,1.5C224.8,208,229.3,203.5,228,199z"/>
		<g>
			<path class="st25" d="M207.5,176c1.3,0.6,9.4,1.4,10.6,4.8c1.2,3.4,3.3,6,5.1,7.7c-0.1-0.3-0.2-0.6-0.2-0.9
				c-0.1-2.5,0.5-3.8,0.5-3.8s0.6-6.3-2.5-9.4c-2.2-2.2-6.3-2-9.3-2.3c-1.2-0.1-2.1-0.7-3.1-1.6c-0.4,0.7-1.1,1.8-2,3.2
				C206.6,174.7,206.8,175.7,207.5,176z"/>
			<path class="st24" d="M224.8,208c0,0,4.5-4.6,3.2-9c-1.1-3.9-4.1-7.9-4.9-10.4c-1.8-1.7-3.9-4.4-5.1-7.7
				c-1.2-3.4-9.3-4.2-10.6-4.8c-0.7-0.3-0.9-1.3-0.9-2.2c-1.3,2-3.2,4.5-5.3,6.8c-2.7,2.9-4.8,5-6.2,6.2c1.9,2.3,3.8,4.7,4.4,5.6
				c1.3,1.8,7.3,12.3,7.3,12.3l1.5-0.3c0,0-0.3-8.2,5.5-11.2c5.9-3,10.1-0.7,11.7,2.1c3.3,6.2,0.1,11.2,0.1,11.2L224.8,208z"/>
		</g>
		<path class="st10" d="M201.2,180.6c3.6-3.9,6.4-8,7.5-9.8c-1.5-1.3-3.4-3.3-6.5-5.1c-1.9-1.1-12.3-8-12.3-8s-6.4,8.7-7.6,18.2
			c0,0,6.4,3.6,8.2,5.5c0.9,0.9,2.7,3.1,4.5,5.3C196.4,185.5,198.6,183.5,201.2,180.6z"/>
		<g>
			<linearGradient id="SVGID_6_" gradientUnits="userSpaceOnUse" x1="182.3525" y1="175.5796" x2="206.3193" y2="175.5796">
				<stop  offset="0" style="stop-color:#FFDCAE"/>
				<stop  offset="1" style="stop-color:#FCC89E"/>
			</linearGradient>
			<path class="st26" d="M190.5,181.4c0.9,0.9,2.7,3.1,4.5,5.3c1.3-1.2,3.5-3.2,6.2-6.2c2-2.1,3.7-4.4,5.1-6.2
				c-0.9-1-2.4-1.8-3.2-2.4c-1.4-1-2.9-1.7-4.6-2.2c-0.9-0.2-1.7-0.4-2.5-0.8c-2-0.8-4.2-1.3-6-2.4c-0.9-0.5-1.5-1.4-2.4-1.8
				c-0.5-0.2-1-0.4-1.6-0.4c-1.6,3.2-3.1,7.3-3.6,11.5C182.4,175.9,188.7,179.6,190.5,181.4z"/>
		</g>
	</g>
	<g>
		<path class="st27" d="M173.7,149.5c-3.1-0.5-10.7-2.6-17-4.2c-6.3-1.5-21-2.4-24.2-2.3c-3.2,0.1-8.9,0.7-10,5.9
			c-0.5,2.5,0.2,8.6,0.8,13.7c1.6,1.1,5.1,2.4,12.9,2.1c-0.4-3.8-1.1-6.9-1.1-6.9s8,2.2,11.8,3.3c3.8,1.1,9.3,3.6,10.8,4.2
			c1.5,0.5,4.9,4,7.2,6.8c2.3,2.7,10.1,4.6,13.2,4.8c3.2,0.1,5.8,0,5.8,0s2.3-5,4.3-9.5c2-4.6,3.3-8.7,3.3-8.7
			C186.8,154.6,176.8,150,173.7,149.5z"/>
		<g>
			<linearGradient id="SVGID_7_" gradientUnits="userSpaceOnUse" x1="133.2383" y1="165.2314" x2="186.083" y2="165.2314">
				<stop  offset="0" style="stop-color:#3F110E"/>
				<stop  offset="1" style="stop-color:#3F1D18"/>
			</linearGradient>
			<path class="st28" d="M146.8,161.1c3.8,1.1,9.3,3.6,10.8,4.2c1.5,0.5,4.9,4,7.2,6.8c2.3,2.7,10.1,4.6,13.2,4.8
				c3.2,0.1,5.8,0,5.8,0s1-2.1,2.2-4.8c-3,0.3-8.3,0.4-14.1-1.8c-7.4-2.9-9.3-7.3-10.2-7.1c-0.9,0.2-12.2-3.5-17.5-4.8
				c-5.3-1.2-11-4.7-11-4.7s0.9,1.9,1.4,3.3c0.5,1.4,0.7,2.5,0.8,2.6c-0.2-1-0.3-1.6-0.3-1.6S143,160,146.8,161.1z"/>
		</g>
		<path class="st10" d="M123.3,162.5c0.2,1.5,0.5,3.4,0.5,4.6c0.2,5,0.4,13.7,0.1,19.6c-0.3,5.9-0.9,9.7-0.9,9.7s2.7,7.5,6,6.9
			c3.2-0.5,4.1-2.8,4.1-2.8s-1.5-4.3-1.4-5.9c0.1-1.6,2.9-15.6,4.2-21.2c0.6-2.4,0.4-6.4,0.2-9.2
			C128.5,164.6,124.9,163.6,123.3,162.5z"/>
	</g>
	<g>
		<path class="st21" d="M103.9,208.8c0,0-0.8-2.6,0.6-3.3c1.4-0.7,4.8-0.7,5.9-1c1-0.4,5.3-3.6,6.7-4.8c1.3-1.2,5.2-4.6,5.7-4.7
			c0.5-0.1,1.7-0.1,2.2,0.4c0.5,0.6,0.4,3.5,1.2,4.5c1.6,2.1,5.2,1.3,5.8,0.9c0.7-0.4,0.8-1.5,0.8-1.5s2.1,1.9,2.7,3.8
			c0.4,1.2,0.4,3.7,0.5,5.4c0.1,1,0.1,1.7-0.1,1.9c-0.4,0.5-5.6,1-7.3,0.6c-1.7-0.4-2.6-1.5-4.5-1c-1.9,0.4-7.9,1.7-10.5,1.5
			C111,211.2,105.7,211.4,103.9,208.8z"/>
		<g>
			<path class="st20" d="M108.1,207.8c1,0,1.9,0,2.9-0.1c0.9-0.1,2.1,0.1,2.8-0.5c0.2-0.2,0.2-0.3,0.3-0.5c0.2-0.2,0.5-0.3,0.8-0.5
				c0.8-0.5,1.7-1.1,2.4-1.8c0.5-0.5,0.7-0.8,1.3-1c1-0.4,2.1-1.2,3.2-1.3c0.4,0,0.9,0,1.3,0c1.1,0,1.9-0.5,2.8-1
				c0.3-0.2,0.6-0.4,1-0.5c-0.3-0.2-0.5-0.4-0.7-0.7c-0.8-1-0.7-3.9-1.2-4.5c-0.5-0.6-1.6-0.5-2.2-0.4c-0.5,0.1-4.4,3.6-5.7,4.7
				c-1.3,1.2-5.6,4.4-6.7,4.8c-1,0.4-4.5,0.3-5.9,1c-0.1,0-0.1,0.1-0.2,0.1c0,0,0,0-0.1,0.1c0,0-0.1,0.1-0.1,0.1c0,0,0,0-0.1,0.1
				c-0.2,0.3-0.3,0.6-0.4,0.9c1.1,0.4,2.5,0.9,2.7,0.9C107,207.8,107.6,207.8,108.1,207.8z"/>
		</g>
		<g>
			<path class="st22" d="M128.2,208.7c-1.5-0.5-3.2-0.6-5.1-0.1c-2,0.5-4.3,1.1-7.2,1.2c-2.9,0.1-7.5-1-8.9-1.6
				c-1.4-0.6-1.2-2-1.4-2.1c-0.1-0.1-0.7-0.1-1.3-0.4c-1.2,0.8-0.7,3.6-0.7,3.6c1.8,2.5,7.3,2.3,9.9,2.5c2.5,0.2,8.5-1,10.4-1.4
				c1.9-0.4,2.9,0.5,4.7,0.9c1.7,0.4,6.9-0.3,7.4-0.7c0.2-0.2,0.3-1.2,0.1-2C134.1,209.5,129.5,209.2,128.2,208.7z"/>
		</g>
	</g>
	<path class="st10" d="M214.6,198.6c0,0-2.6,4.5-7,5.7c-4.4,1.2-19.9,3.8-19.9,3.8c-0.9,0.1-26,0.6-26.3,0.6c-0.3,0-2.9,0.9-2.9,0.9
		s-8.4-0.4-9-0.4c-0.6,0-11.4,3.3-11.4,3.3s0.1,0.5,0.5,0.7c0.3,0.2,0.7,0.2,0.7,0.2l0,0c0.1,0.3,0.5,0.8,0.9,0.8
		c0.1,0,0.4,0,0.7-0.1l0.1-0.1c0,0,0.4,1,1,1l0.6,0c0,0,0.5,0.6,1.1,0.7c1,0,4-0.6,4.6-0.7c0.7-0.1,5,0.1,6.8-0.2
		c1.8-0.3,4.6-1.4,4.6-1.4c0.9,0,4.3,0,12.2,0.2c7.9,0.2,15.5,0.7,17.6,0.5c2.1-0.2,3.8,0.6,13.1-0.2c9.3-0.8,15.9-0.5,20.6-3.8
		c1.7-1.2,2.9-3.5,3.5-5.4c0.6-1.9,0.6-3.4,0.6-3.4l-10.3-0.3L214.6,198.6z"/>
	<g>
		<path class="st5" d="M202.5,213.8c9.3-0.8,15.9-0.5,20.6-3.8c1.7-1.2,2.9-3.5,3.5-5.4c0,0-1.9,3.7-9.8,6.3
			c-5.1,1.7-16.4,2.5-38.4,2.3c-7.3-0.1-19.3,0.1-19.3,0.1s0.1,0.1,0.4,0.1c0.1,0,0.2-0.1,0.2-0.1c0.9,0,4.3,0,12.2,0.2
			c7.9,0.2,15.5,0.7,17.6,0.5C191.5,213.8,193.1,214.6,202.5,213.8z"/>
	</g>
	<g>
		<path class="st5" d="M158.8,212.7c0,0,0.2,0.5,0.2,0.6c0,0.1-1.3,0.5-2,0.7c-0.8,0.2-3.4,0.6-4.6,0.7c-1.2,0.1-3.7,0-4.3,0.1
			c-0.6,0.1-4,0.6-4.5,0.5c-0.5-0.1-0.6-0.5-0.6-0.5l-0.7,0.2l0.2,0c0,0,0.5,0.6,1.1,0.7c1,0,4-0.6,4.6-0.7c0.7-0.1,5,0.1,6.8-0.2
			c1.6-0.3,4-1.1,4.5-1.3C159.1,213.1,158.8,212.7,158.8,212.7z"/>
	</g>
	<path class="st5" d="M141.3,213.7c-0.8,0.3-1.6,0.3-1.6,0.3s0.3,0.2,0.4,0.2c0.5,0,4.3-1.1,4.3-1.1l5-0.8l-5.1,0.6
		C144.2,212.9,142.1,213.5,141.3,213.7z"/>
	<path class="st5" d="M139.2,213.4c0,0,4.1-1.4,4.9-1.6c1.1-0.3,5-0.9,5-0.9s-5,0.7-5.2,0.8c-0.1,0-2.8,1-4.4,1.4
		c-0.6,0.2-1.2,0-1.2,0S138.8,213.5,139.2,213.4z"/>
	<path class="st5" d="M150.1,213.7l-4,0.4c0,0-2,0.6-3.3,0.8c-0.4,0.1-0.8,0-0.9,0c-0.6,0-1-1-1-1s0.6,0.8,1.4,0.7
		c0.8-0.1,3.8-0.8,3.8-0.8L150.1,213.7z"/>
	<path class="st24" d="M205.6,177.8c0,0,2.3-2.6,3.6-4.4c1.3-1.7,0.7-1.8,0.7-1.8S206.2,177.5,205.6,177.8z"/>
</g>
<g>
	<path class="st3" d="M125.2,78.2c3.1-0.2,6.3,0.1,9.4,0.2c3,0.1,6,0.2,9,0.3c1.5,0,3.2,0.3,4.7,0.1c1.4-0.1,2.3-1,3.6-1.5
		c1.6-0.6,3.6-0.6,5.3-0.6c2.7-0.1,4.5,1.4,7,2.1c2.4,0.6,5.3,0.3,7.8,0.5c11.2,1.1,22.5,1.2,33.7,1.4c8.3,0.1,11.9,9.9,20.2,10
		c2.6,0,19.2,0.1,22.1,0.8c2,0.5,3.9,1.4,4.8,2.2c0.1,0,0.2,0.1,0.2,0.1c0,0-2.5,2.3-8.8,1.4c-4.8,0-9.7-0.1-9.7-0.1l-0.2,0
		c-5.7,0.1-12.2,2.2-13.8,2.2c-20,0.1-88.7-0.3-92.3-0.4C103.5,96.5,111.2,79.1,125.2,78.2z"/>
	<g>
		<g>
			<path class="st29" d="M161.5,69.1c-3.2-0.9-22.4-30.2-22.4-30.2s0.6,2.6,0.9,5.8c-6.4,0.3-9.4-0.8-10.7-1.8
				c-0.5-4.2-1.1-9.3-0.6-11.4c0.9-4.4,6.4-6.3,10.1-4.9c6.3,2.4,13.2,15,16.7,21.1c3.5,6.1,5.4,11,6.5,12.5c2.2,2.9,9.1,4,9.1,4
				l-7.3,1.4L161.5,69.1z"/>
			<path class="st5" d="M129.3,41.8c0.1,1.2,0.4,2.9,0.4,3.8c0.2,4.2,0.3,11.4,0.1,16.4c-0.2,5-0.7,8.1-0.7,8.1s2.3,6.3,5,5.8
				c2.7-0.5,3.4-2.3,3.4-2.3s-1.2-3.6-1.2-4.9c0.1-1.4,2.4-13,3.5-17.7c0.5-2,0.4-5.4,0.1-7.7C133.6,43.5,130.6,42.7,129.3,41.8z"/>
		</g>
		<g>
			<path class="st20" d="M111.2,78c0,0-0.5-2.3,0.8-2.8c1.3-0.5,4.3-0.2,5.2-0.5c0.9-0.2,4.9-2.8,6.2-3.7c1.3-0.9,4.9-3.6,5.3-3.7
				c0.5,0,1.5,0,1.9,0.5c0.4,0.5,0.1,3,0.7,4c1.2,1.9,4.4,1.5,5,1.2c0.6-0.3,0.8-1.3,0.8-1.3s1.7,1.8,2.1,3.5
				c0.3,1.1,0.1,3.3,0.1,4.8c0,0.8-0.1,1.5-0.2,1.6c-0.4,0.4-5,0.5-6.4,0c-1.5-0.5-2.2-1.5-3.8-1.2c-1.7,0.2-7,0.9-9.2,0.5
				C117.2,80.6,112.6,80.4,111.2,78z"/>
			<g>
				<path class="st21" d="M114.9,77.5c0.8,0.1,1.7,0.1,2.5,0.2c0.8,0,1.8,0.2,2.5-0.3c0.2-0.1,0.2-0.3,0.3-0.4
					c0.2-0.2,0.5-0.2,0.7-0.4c0.8-0.4,1.6-0.9,2.2-1.4c0.4-0.4,0.6-0.6,1.2-0.8c0.9-0.2,1.9-0.9,2.9-0.9c0.4,0,0.8,0.1,1.2,0.1
					c0.9,0.1,1.7-0.3,2.5-0.7c0.3-0.1,0.6-0.3,0.9-0.4c-0.2-0.2-0.4-0.4-0.6-0.7c-0.6-1-0.4-3.5-0.7-4c-0.4-0.5-1.4-0.6-1.9-0.5
					c-0.5,0-4.1,2.8-5.3,3.7c-1.3,0.9-5.2,3.4-6.2,3.7c-0.9,0.2-3.9,0-5.2,0.5c-0.1,0-0.1,0.1-0.2,0.1c0,0,0,0-0.1,0
					c0,0-0.1,0.1-0.1,0.1c0,0,0,0,0,0c-0.2,0.2-0.3,0.5-0.4,0.8c0.9,0.4,2.1,0.9,2.3,1C113.9,77.4,114.5,77.4,114.9,77.5z"/>
			</g>
			<g>
				<path class="st22" d="M132.2,79.8c-1.3-0.6-2.7-0.7-4.5-0.5c-1.8,0.3-3.7,0.5-6.2,0.4c-2.5-0.1-7.1-0.9-8.2-1.5
					c-2.7-1.5-1.1-2.6-1.6-2.9c-1.1,0.6-0.8,3.1-0.8,3.1c1.4,2.4,6.2,2.5,8.4,2.9c2.2,0.4,7.5-0.3,9.1-0.5c1.6-0.2,2.5,0.6,4,1.2
					c1.5,0.5,5.4,0.7,6.5-0.2c0.6-0.4,0.6-1.8,0.3-2.5C137.1,81.2,133.4,80.3,132.2,79.8z"/>
			</g>
		</g>
	</g>
	<g>
		<path class="st7" d="M236.3,85.7c5.3,0,13.4-2.6,16.5-4.9c0,0,5.6,1.7,6.7,4.7c1.1,3-0.9,7.8-9.8,7.7c-14-0.2-22.4-0.2-24.3-1
			c-2.3-0.9,0.4-3.9,0.4-3.9S232.5,85.7,236.3,85.7z"/>
		<g>
			<path class="st8" d="M257,84.9c-1.1-1.1-2.4-0.7-4.3-1.3c0.2-1-0.3-2.5-0.4-3.1c0,0,6.1,2,7.2,5.1c0.7,1.9,0.3,4.2-2.4,5.8
				C259.3,88.3,258.2,86.1,257,84.9z"/>
		</g>
		<g>
			<path class="st9" d="M250.3,70.4c0,0-0.2,0.1-0.2,0.7c0,0.7-0.5,3-1.7,4.4c-1.2,1.4-3.2,3.6-3.2,3.6s4.3-2.9,5.1-5.4
				C251,71.3,250.3,70.4,250.3,70.4z"/>
			<path class="st10" d="M239.9,82.7l-8-6c0,0-4.5,2.3-6.4,0.8c-0.7-0.5-3.8-5.5-6.2-8.3c-1.5-1.7-5.6,0.7-5.8,1.9
				c-0.8,4.5,11.1,9.1,12.8,12.2c1.7,3.1,0.2,7.3,0.2,7.3s1.9-3.1,5.1-3.3c3.2-0.2,6.4,0.4,6.4,0.4L239.9,82.7z"/>
			<g>
				<polygon class="st5" points="237.9,87 237.9,87 237.9,87 				"/>
				<path class="st10" d="M237.4,88.2l0.5-1.2c0,0-0.2,0.5-0.6,1.2C237.4,88.2,237.4,88.2,237.4,88.2z"/>
			</g>
			<g>
				<linearGradient id="SVGID_8_" gradientUnits="userSpaceOnUse" x1="227.0664" y1="80.7394" x2="230.6678" y2="84.3923">
					<stop  offset="0" style="stop-color:#FFDCAE"/>
					<stop  offset="1" style="stop-color:#FCC89E"/>
				</linearGradient>
				<path class="st30" d="M237.8,87.8c0.1,0,0.1,0.1,0.1,0.1l1.9-5.1l-8-6c0,0-1.3,0.7-2.8,1c2.9,2.2,8,6.3,7.6,6.9
					c-0.6,0.8-4.8,1.6-9.5,1.9c0.1,0.5,0.1,1,0.1,1.4c0.1,0.1-0.1,0.5-0.1,0.6c0,0.7-0.6,1.8-0.7,2.4c0.4-0.8,2.5-3.6,5.1-3.8
					c2.5-0.2,4.9,0.2,5.9,0.4c0,0,0,0,0.1,0C237.7,87.7,237.8,87.7,237.8,87.8z"/>
			</g>
			<g>
				<path class="st10" d="M245.2,78.9c4.2-3.2,5.4-6.5,5.2-7.4c-0.2-1.2,0.1-1.2,0.3-1.2c-1.2-0.4-3.2-0.7-4.7-0.7
					c-0.8,0-1.2,0.1-1.5,0.2c-0.6,0.2-0.7,0.3-2-0.3c-1.9-0.9-2.8-1.7-3.2-1.6c-0.4,0.1-0.6,1.3-0.6,1.3s-0.5,0-1.2,0.2l-0.3-0.1
					c0,0-0.5-0.1-0.7-0.1c-0.2,0-0.4,0.2-0.4,0.2s-0.3,1.3-0.5,1.8c-0.2,0.7,0.1-1.6-0.2-1.7c-0.2-0.1-0.3-0.2-0.6,0.1
					c-0.3,0.4-0.9,0.7-1,0.8c-0.1,0.1-2.3,0.4-2.6,0.4c-1.9,0.3,0,6.9,2.2,9.5c1.9,1.4,4.4,2.8,4.4,2.8c0.8-0.4,1.3-0.2,2.4-0.3
					c0.8-0.4,2.2-1.6,3.2-2C244.2,80.2,244.3,79.6,245.2,78.9z"/>
			</g>
			<path class="st8" d="M242,80.9c0.8-0.5,1.7-1.3,2.8-1.9c0.9-0.4,1.5-0.9,2.2-1.5c3.3-2.8,3.7-5.7,3.5-6.5c-0.3-1.2,0.2-1,0.2-1
				s6.2,2.6,6.7,9.6c0.5,6.5-2.5,10.1-6.8,12.1c-7.1,3.3-15-4.1-15-4.1S238,83.4,242,80.9z"/>
			<path class="st12" d="M245.2,83.8c0.5,0.1,0.7,0.9,1.3,1c0.3-0.6-0.1-1.4,0.1-2.1c0.4,0.2,0.5,0.8,0.7,1.1
				c0.1,0.3,0.3,0.5,0.5,0.8c0.1,0.2,0.1,0.4,0.3,0.5c0.1-0.1,0-0.4,0-0.6c0-0.4-0.1-0.9-0.2-1.3c-0.1-0.6-0.3-1.1-0.5-1.6
				c-0.2-0.5-0.4-1.1-0.4-1.6l-0.1,0.1c0-0.1-0.1-0.4-0.2-0.4c-0.2-0.1-0.2,0.1-0.3,0.2c-0.2,0.3-0.3,0.7-0.5,1.1
				c-0.3-0.2-0.5-0.7-0.7-1c-0.1,0.2-0.3,1.2-0.5,1.2c-0.2,0-0.4-0.5-0.7-0.6c-0.1,0.9-0.1,1.7,0.1,2.6c0.1,0.4,0.2,0.8,0.3,1.2
				c0,0.2,0,0.6,0.2,0.6C244.9,84.7,245.1,84.3,245.2,83.8z"/>
			<g>
				<path class="st12" d="M250.2,79.6c0.4,0.2,0.6,0.8,1,0.8c-0.1-0.4-0.4-1-0.3-1.4c1.1,0.3,1,2.1,2,2.4c0.3-0.9,0.1-2.3-0.3-3.2
					c-0.3-0.7-1.8-2.1-1.4-2.8c0.5,0.1,0.9,0.7,1.3,1.1c0.3,0.4,0.7,1.1,1.1,1.3c0.2-0.4-0.3-0.7,0.3-0.6c0.3,0,0.6,0.4,0.9,0.4
					c0.1-0.4-0.4-1.3,0.1-1.2c0.5,0.1,0.6,1.1,1,1.3c0.1-1.1-0.2-2.3-0.9-3.2c-0.8-1-2-2.7-3.3-3.2c0.5,0.6,1.4,1.6,1.2,2.3
					c-0.6-0.1-0.9-1-1.5-1c0.1,0.4,0.5,1,0.4,1.4c-0.2,0.6-0.8,0-1,0.2c-0.2,0.2-0.1,2.2-0.5,2c-0.3,0.6,0,1.4-0.3,2.1
					c-0.7-0.2-1-0.3-0.9,0.5c0.1,0.8,0.5,1.8,1.1,2.4C250.2,80.8,250,80.1,250.2,79.6z"/>
			</g>
			<g>
				<path class="st13" d="M236.5,69.1c0.2,0,0.7,0.4,0.7,0.4l1.2,0.1l0.1-0.5c0,0-0.5,0-1.2,0.2l-0.3-0.1
					C237.1,69.2,236.8,69.1,236.5,69.1C236.5,69.1,236.5,69.1,236.5,69.1z"/>
			</g>
			<path class="st13" d="M238.5,70c0,0,0.4,0.3,0.7,0.1c0.4-0.2,0.6-0.5,0.6-0.5s0,1-0.5,0.9C238.8,70.5,238.5,70,238.5,70z"/>
			<g>
				<g>
					<path class="st9" d="M244.4,73.5c-0.4,0.5-0.9,0.8-0.9,0.8s-0.9-1.1-0.9-2c0-0.9,0.3-1,0.3-1s0.7-0.1,1.2-0.3c0,0,0,0-0.1,0
						c-0.3,0-1.4,0-1.4,0s-0.2,0.2-0.3,1.4c0,1.1,1.5,2.2,1.5,2.2S244.2,74.3,244.4,73.5z"/>
				</g>
				<g>
					<g>
						<path class="st8" d="M242.2,71c0,0,0.4,0,0.4,0c-0.1,0.4-0.1,1,0.2,1.8c0.4,1.3,1.1,1.8,1.1,1.8s-1.1-0.6-1.6-2
							C242,71.8,242.1,71.3,242.2,71z"/>
					</g>
				</g>
				<g>
					<path class="st8" d="M244.4,70c0,0,0,0.6,0.2,1.1c0.2,0.6,0.9,2.2,0.9,2.6c0,0.4-0.1,1.5-0.1,1.5s0.3-0.7,0.3-1.3
						c0-0.6-0.3-2.8-0.6-3.6C244.9,69.7,244.5,69.9,244.4,70z"/>
				</g>
			</g>
			<path class="st14" d="M236.1,69.1c0,0,0.2,0.2,0.2,0.4c0,0.2-1,1.7-1,1.7l0.6-2C235.9,69.3,236,69.1,236.1,69.1z"/>
			<path class="st15" d="M234.9,69.3c0,0,0,0.6,0.1,1c0.1,0.4,0.3,1,0.3,1s0.2-1.5,0-1.9C235.2,69.2,235,69.1,234.9,69.3z"/>
			<path class="st5" d="M230.5,74.4c0,0,0.7,3.4,1.7,5c1.1,1.6,5.3,3.6,5.3,3.6s-4.8-3.4-5.2-3.8C232.1,78.8,230.5,74.4,230.5,74.4z
				"/>
			<g>
				<path class="st10" d="M237.5,81.7c0,0-0.4,0.6-0.1,1.1c0.3,0.5,0.7,1.2,2.4,2.2c1.7,1,2.7-0.4,2.9-0.6c0.1-0.3-0.1-1.9-2.9-2.6"
					/>
				<path class="st16" d="M241.1,83.5c0,0-1-0.1-1.2-0.1c-0.4,0.2-0.7-0.3-0.7-0.3s0.3-0.1,0.5-0.1
					C239.8,83.1,241.1,83.5,241.1,83.5z"/>
				<path class="st16" d="M238.3,82.2c0,0.1,0.7,1.1,0.9,1c0,0,0.1,0,0.1,0c0.2-0.1,0.2-0.1,0.6,0c0.1,0,0.3,0.1,0.5,0.1
					c0.5,0.1,1.2,0.4,1.2,0.5c0,0.1,0,0.1-0.1,0.2c-0.2,0.2-0.5,0.3-0.9,0.2c-0.5-0.1-0.6-0.4-0.6-0.4c0,0,0,0.4,0.6,0.5
					c0.4,0.1,0.8-0.1,0.9-0.2c0.1-0.1,0.1-0.2,0.1-0.3c0-0.2-0.2-0.3-1.3-0.6c-0.2-0.1-0.4-0.1-0.5-0.1c-0.3-0.1-0.4-0.1-0.6,0
					c0,0-0.1,0-0.1,0c-0.2,0.1-0.5-0.4-0.6-0.7L238.3,82.2z"/>
			</g>
		</g>
		<g>
			<g>
				<path class="st17" d="M257.8,85.1c-0.6,2-1.4,2.5-2.2,2.2c1-1.4,1.6-3.1,1.7-5.1C257.9,82.7,258.3,83.6,257.8,85.1z"/>
			</g>
			<g>
				<path class="st18" d="M258.1,84c-0.2-0.2-0.5-0.5-0.8-0.8c0-0.3,0.1-0.7,0.1-1C257.7,82.5,258.1,83.1,258.1,84z"/>
			</g>
		</g>
	</g>
	<linearGradient id="SVGID_9_" gradientUnits="userSpaceOnUse" x1="216.0545" y1="88.9622" x2="213.0009" y2="92.3067">
		<stop  offset="0" style="stop-color:#FFDCAE"/>
		<stop  offset="1" style="stop-color:#FCC89E"/>
	</linearGradient>
	<path class="st31" d="M207.5,91.1c0,0-0.1-10.5,7-12.9c7.1-2.3,12.1,2.7,12.6,6.4c0.5,3.8-0.1,8-3.7,9.7
		C219.1,96.2,208.2,94.6,207.5,91.1z"/>
	<g>
		<path class="st10" d="M196.1,77.6c0.8-5.2,1-10.9,0.9-12.9c-2-0.2-9.1-0.9-12.7-0.7c-2.2,0.1-14.7,0.4-14.7,0.4
			s-3.9,14.9,0.5,23.4c0,0,10.9-4.7,13.4-4.2c1.2,0.3,4,1,6.8,1.8C190.7,83.7,195.5,81.6,196.1,77.6z"/>
		<g>
			
				<linearGradient id="SVGID_10_" gradientUnits="userSpaceOnUse" x1="4861.4019" y1="467.163" x2="4893.8071" y2="467.163" gradientTransform="matrix(0.8254 -0.5646 0.5646 0.8254 -4105.7612 2447.5754)">
				<stop  offset="0" style="stop-color:#FFDCAE"/>
				<stop  offset="1" style="stop-color:#FCC89E"/>
			</linearGradient>
			<path class="st32" d="M183.6,86.5c1.3,0,9.2,2,12.3,2.5c0.4-1.7-0.2-6,0.4-9.9c0.4-2.9,1.1-6.4,1.2-8.7c-1.3-0.4-7.9-1.7-9-1.7
				c-1.7,0-3.4,0.2-5,0.8c-0.8,0.3-1.7,0.6-2.5,0.8c-2.1,0.4-4.2,1.3-6.3,1.5c-1.1,0.1-2-0.3-3-0.1c-0.5,0.1-2.9,0.2-3.4,0.4
				c0.5,3.5-0.1,11.9,1.9,15.7C170.2,87.8,180.6,86.6,183.6,86.5z"/>
		</g>
	</g>
	<g>
		<path class="st27" d="M171,64.1c0,0-2.9,0.3-5.2,0c-2.1-0.3-2-0.8-6.7-1.5c-3.1-5.8-9.4-16.5-13.2-21.1c-5-6.2-7.9-9.9-11.2-10.8
			c-1.7-0.5-8.2-0.1-10.6,4.9c-1.2,2.6-0.5,6-0.4,8.9c0.1,1.9,0,3.8,0.1,4.7c1.4,1,5.8,5.6,12.3,6.3c2.7,7.5,8.7,23.6,10.9,28.1
			c2.9,5.9,5.9,7.4,10.3,7.6c4.4,0.2,13.2-3.6,13.2-3.6C169.3,81.8,171,64.1,171,64.1z"/>
		<g>
			<linearGradient id="SVGID_11_" gradientUnits="userSpaceOnUse" x1="131.2381" y1="55.097" x2="152.6393" y2="76.117">
				<stop  offset="0" style="stop-color:#3F110E"/>
				<stop  offset="1" style="stop-color:#3F1D18"/>
			</linearGradient>
			<path class="st33" d="M158.1,85.3c-7.6-1.3-17-23.1-18.4-30.3c-1.5-7.2-6.8-13-6.8-13s0.5,0.6,1.4,2.5c0.8,1.8,1.9,6.1,1.9,6.1
				l-1.1,4.8c0.3,0.1,0.7,0.1,1,0.1c2.7,7.5,8.7,23.6,10.9,28.1c2.9,5.9,5.9,7.4,10.3,7.6c4.4,0.2,13.2-3.6,13.2-3.6
				c-0.2-0.8-0.3-1.7-0.3-2.8C167.1,85.5,162.8,86.1,158.1,85.3z"/>
		</g>
		<path class="st10" d="M123.8,49.2c0.2,1.5,0.4,3.7,0.4,4.9c0.2,5,0.2,13,0,18.9c-0.3,5.9-1.1,9.6-1.1,9.6s2.7,7.5,6,6.9
			c3.2-0.5,4.1-2.8,4.1-2.8s-1.5-4.3-1.4-5.9c0.1-1.6,2.9-15.6,4.2-21.2c0.6-2.4,0.4-6.4,0.2-9.2C128.5,50.9,125.4,50.4,123.8,49.2z
			"/>
	</g>
	<g>
		<path class="st21" d="M103.9,95.1c0,0-0.8-2.6,0.6-3.3c1.4-0.7,4.8-0.7,5.9-1c1-0.4,5.3-3.6,6.7-4.8c1.3-1.2,5.2-4.6,5.7-4.7
			c0.5-0.1,1.7-0.1,2.2,0.4c0.5,0.6,0.4,3.5,1.2,4.5c1.6,2.1,5.2,1.3,5.8,0.9c0.7-0.4,0.8-1.5,0.8-1.5s2.1,1.9,2.7,3.8
			c0.4,1.2,0.4,3.7,0.5,5.4c0.1,1,0.1,1.7-0.1,1.9c-0.4,0.5-5.6,1-7.3,0.6c-1.7-0.4-2.6-1.5-4.5-1c-1.9,0.4-7.9,1.7-10.5,1.5
			C111,97.5,105.7,97.7,103.9,95.1z"/>
		<g>
			<path class="st20" d="M108.1,94.1c1,0,1.9,0,2.9-0.1c0.9-0.1,2.1,0.1,2.8-0.5c0.2-0.2,0.2-0.3,0.3-0.5c0.2-0.2,0.5-0.3,0.8-0.5
				c0.8-0.5,1.7-1.1,2.4-1.8c0.5-0.5,0.7-0.8,1.3-1c1-0.4,2.1-1.2,3.2-1.3c0.4,0,0.9,0,1.3,0c1.1,0,1.9-0.5,2.8-1
				c0.3-0.2,0.6-0.4,1-0.5c-0.3-0.2-0.5-0.4-0.7-0.7c-0.8-1-0.7-3.9-1.2-4.5c-0.5-0.6-1.6-0.5-2.2-0.4c-0.5,0.1-4.4,3.6-5.7,4.7
				c-1.3,1.2-5.6,4.4-6.7,4.8c-1,0.4-4.5,0.3-5.9,1c-0.1,0-0.1,0.1-0.2,0.1c0,0,0,0-0.1,0.1c0,0-0.1,0.1-0.1,0.1c0,0,0,0-0.1,0.1
				c-0.2,0.3-0.3,0.6-0.4,0.9c1.1,0.4,2.5,0.9,2.7,0.9C107,94.1,107.6,94.1,108.1,94.1z"/>
		</g>
		<g>
			<path class="st22" d="M128.2,95c-1.5-0.5-3.2-0.6-5.1-0.1c-2,0.5-4.3,1.1-7.2,1.2c-2.9,0.1-7.5-1-8.9-1.6c-1.4-0.6-1.2-2-1.4-2.1
				c-0.1-0.1-0.7-0.1-1.3-0.4c-1.2,0.8-0.7,3.6-0.7,3.6c1.8,2.6,7.3,2.3,9.9,2.5c2.5,0.2,8.5-1,10.4-1.4c1.9-0.4,2.9,0.5,4.7,0.9
				c1.7,0.4,6.9-0.3,7.4-0.7c0.2-0.2,0.3-1.2,0.1-2C134.1,95.8,129.5,95.4,128.2,95z"/>
		</g>
	</g>
	<path class="st10" d="M214.6,84.9c0,0-2.6,4.5-7,5.7c-4.4,1.2-19.9,3.8-19.9,3.8c-0.9,0.1-26,0.6-26.3,0.6c-0.3,0-2.9,0.9-2.9,0.9
		s-8.4-0.4-9-0.4c-0.6,0-11.4,3.3-11.4,3.3s0.1,0.5,0.5,0.7c0.3,0.2,0.7,0.2,0.7,0.2l0,0c0.1,0.3,0.5,0.8,0.9,0.8
		c0.1,0,0.4,0,0.7-0.1l0.1-0.1c0,0,0.4,1,1,1l0.6,0c0,0,0.5,0.6,1.1,0.7c1,0,4-0.6,4.6-0.7c0.7-0.1,5,0.1,6.8-0.2
		c1.8-0.3,4.6-1.4,4.6-1.4c0.9,0,4.3,0,12.2,0.2c7.9,0.2,15.5,0.7,17.6,0.5c2.1-0.2,3.8,0.6,13.1-0.2c9.3-0.8,15.9-0.5,20.6-3.8
		c1.7-1.2,2.9-3.5,3.5-5.4c0.6-1.9,0.6-3.4,0.6-3.4l-10.3-0.3L214.6,84.9z"/>
	<g>
		<path class="st5" d="M202.5,100.1c9.3-0.8,15.9-0.5,20.6-3.8c1.7-1.2,2.9-3.5,3.5-5.4c0,0-1.9,3.7-9.8,6.3
			c-5.1,1.7-16.4,2.5-38.4,2.3c-7.3-0.1-19.3,0.1-19.3,0.1s0.1,0.1,0.4,0.1c0.1,0,0.2-0.1,0.2-0.1c0.9,0,4.3,0,12.2,0.2
			c7.9,0.2,15.5,0.7,17.6,0.5C191.5,100.1,193.1,100.9,202.5,100.1z"/>
	</g>
	<g>
		<path class="st5" d="M158.8,99c0,0,0.2,0.5,0.2,0.6c0,0.1-1.3,0.5-2,0.7c-0.8,0.2-3.4,0.6-4.6,0.7c-1.2,0.1-3.7,0.1-4.3,0.1
			c-0.6,0.1-4,0.6-4.5,0.5c-0.5-0.1-0.6-0.5-0.6-0.5l-0.7,0.2l0.2,0c0,0,0.5,0.6,1.1,0.7c1,0,4-0.6,4.6-0.7c0.7-0.1,5,0.1,6.8-0.2
			c1.6-0.3,4-1.1,4.5-1.3C159.1,99.4,158.8,99,158.8,99z"/>
	</g>
	<path class="st5" d="M141.3,100c-0.8,0.3-1.6,0.3-1.6,0.3s0.3,0.2,0.4,0.2c0.5,0,4.3-1.1,4.3-1.1l5-0.8l-5.1,0.6
		C144.2,99.2,142.1,99.8,141.3,100z"/>
	<path class="st5" d="M139.2,99.7c0,0,4.1-1.4,4.9-1.6c1.1-0.3,5-0.9,5-0.9s-5,0.7-5.2,0.8c-0.1,0-2.8,1-4.4,1.4
		c-0.6,0.2-1.2,0-1.2,0S138.8,99.7,139.2,99.7z"/>
	<path class="st5" d="M150.1,99.9l-4,0.4c0,0-2,0.6-3.3,0.8c-0.4,0.1-0.8,0-0.9,0c-0.6,0-1-1-1-1s0.6,0.8,1.4,0.7
		c0.8-0.1,3.8-0.8,3.8-0.8L150.1,99.9z"/>
	<linearGradient id="SVGID_12_" gradientUnits="userSpaceOnUse" x1="158.3458" y1="63.1928" x2="166.5911" y2="70.6912">
		<stop  offset="0" style="stop-color:#3F110E"/>
		<stop  offset="1" style="stop-color:#3F1D18"/>
	</linearGradient>
	<path class="st34" d="M171,64.1c0,0-5.8-0.9-7.7-2.7c-1.1-1.1-4.3-0.5-4.3-0.5s-0.2,0.6,0,1.5c0.1,0.5,0.4,1.2,1.1,1.9
		c1.6,1.9,4.3,7.1,4.8,10.7c0.4,2.8,2.8,7.7,5.3,9.7C169.8,77.1,171,64.1,171,64.1z"/>
	<linearGradient id="SVGID_13_" gradientUnits="userSpaceOnUse" x1="158.9971" y1="67.6631" x2="164.4434" y2="67.6631">
		<stop  offset="0" style="stop-color:#3F110E"/>
		<stop  offset="1" style="stop-color:#3F1D18"/>
	</linearGradient>
	<path class="st35" d="M159,62.3c0,0,0.9,2.3,2.5,4.3c2.3,3,3,6.4,3,6.4s-0.4-3.6-2.4-6.4C159.9,63.6,159,62.3,159,62.3z"/>
	<path class="st25" d="M196.3,64.6c0,0,0.1,4.9,0,8.4c-0.1,3.5-1.2,15.9-1.2,15.9s9.5,1.8,11,2c0.8,0,2.3-0.6,2.3-0.6
		c0.4-2.5,1.7-9.3,5.6-10.4c4.8-1.3,6.1-1.4,7.5-0.8c1.4,0.6,5,7,5,8.7c-0.1,1.7-0.4,4.1-0.4,4.1s2.5-4,0.3-8.3
		c-1.7-3.2-5-7.8-6.9-9.8c-1.9-2-2.2-4-1.3-4.2c0.9-0.2,1.7,0.5,1.7,0.5s-6.4-9-10.5-8.9c-4.1,0.1-6.8,3.4-8.5,3.6
		C199.2,64.9,196.3,64.6,196.3,64.6z"/>
	<g>
		<path class="st24" d="M226.4,83.6c-1.8-3.4-4.5-6.3-6.6-8.4c-0.9-0.9-6.3-6-9.7-6.4c-4.4-0.6-6.7,0.6-7.6,0.6
			c-2.1,0.1-0.8,0.4-3.2,0.5c-1.2,0.1-2.2,0.5-2.9,0.1c0,1.3,0,1.8-0.1,3c-0.1,3.5-1.2,15.9-1.2,15.9s9.5,1.8,11,2
			c0.8,0,2.3-0.6,2.3-0.6c0.4-2.5,1.7-9.3,5.6-10.4c4.8-1.3,6.1-1.4,7.5-0.8c1.4,0.6,5,7,5,8.7c-0.1,1.7-0.4,4.1-0.4,4.1
			S228.7,88,226.4,83.6z"/>
	</g>
	<path class="st24" d="M199.3,64.8c0,0,0.2,1.8,0,5.6c-0.2,3.8-0.4,4.8-0.4,4.8s0.7-3.6,0.8-5.5c0.1-1.9,0-4.8,0-4.8L199.3,64.8z"/>
	<path class="st24" d="M201.3,64.7c0,0-0.2,0.3-0.2,1.5c0,1.2-0.7,5.9-0.7,5.9s0.2-6,0.2-6.4c0-0.4-0.4-0.9-0.4-0.9
		S201,64.8,201.3,64.7z"/>
</g>
</svg>
