<?xml version="1.0" encoding="utf-8"?>
<!-- Generator: Adobe Illustrator 21.1.0, SVG Export Plug-In . SVG Version: 6.00 Build 0)  -->
<svg version="1.1" id="Layer_1" xmlns="http://www.w3.org/2000/svg" xmlns:xlink="http://www.w3.org/1999/xlink" x="0px" y="0px"
	 viewBox="0 0 595.3 420.9" style="enable-background:new 0 0 595.3 420.9;" xml:space="preserve">
<style type="text/css">
	.Arched_x0020_Green{fill:url(#SVGID_1_);stroke:#FFFFFF;stroke-width:0.25;stroke-miterlimit:1;}
	.st0{fill:#9CCFF0;}
	.st1{fill:#96BEE5;}
	.st2{opacity:0.78;fill:url(#SVGID_2_);}
	.st3{fill:none;}
	.st4{fill:#CCCCCC;}
	.st5{opacity:0.78;fill:#D1D3D4;}
	.st6{fill:#55392D;}
	.st7{fill:#4B2B22;}
	.st8{fill:#FFDCAE;}
	.st9{fill:#FCC79E;}
	.st10{fill:#4E9DD6;}
	.st11{fill:#6AB2E2;}
	.st12{fill:#A97C50;}
	.st13{fill:#FCC59D;}
	.st14{fill:#FCBF91;}
	.st15{fill:#F69B95;}
	.st16{fill:#E8978E;}
	.st17{fill:#F1A97A;}
	.st18{fill:#D5D2CA;}
	.st19{fill:#D36C5D;}
	.st20{fill:#FAB181;}
	.st21{fill:#FDCBA0;}
	.st22{fill:#4B2723;}
	.st23{fill:#3F1D18;}
	.st24{fill:#331612;}
	.st25{fill:#F7941D;}
	.st26{fill:#E2831B;}
	.st27{fill:#E5E1D8;}
	.st28{fill:#D97263;}
</style>
<linearGradient id="SVGID_1_" gradientUnits="userSpaceOnUse" x1="0" y1="841.8896" x2="0.7071" y2="841.1825">
	<stop  offset="0" style="stop-color:#20AC4B"/>
	<stop  offset="0.9831" style="stop-color:#19361A"/>
</linearGradient>
<g>
	<polygon class="st0" points="570.2,356.9 43.8,356.9 77.7,334.3 531,334.3 	"/>
	<path class="st1" d="M570.7,356.9l-4.7-2.7c0.1,0.7,0.3,1.2-7.7,1.2c-13.5,0-501.9,0-505.9,0c-4,0-3.7-1.5-3.7-1.5l-4.5,3H570.7z"
		/>
	<linearGradient id="SVGID_2_" gradientUnits="userSpaceOnUse" x1="98.3718" y1="346.1206" x2="518.8806" y2="346.1206">
		<stop  offset="0" style="stop-color:#D1D3D4"/>
		<stop  offset="0.4909" style="stop-color:#FFFFFF"/>
		<stop  offset="1" style="stop-color:#D1D3D4"/>
	</linearGradient>
	<path class="st2" d="M267.5,341c-24.5,0.3-64.3-1.5-88.6-1.2c-13.5,0.2-11.8,2.7-25.1,3c-6,0.1-26.1-0.2-28.6,0.7l-1.7,1.9
		c-0.2,0.3-0.1,0.6,0.2,0.9c-5.5,0.3-10.9,0.9-16.4,1.3c-2.3,0.2-4.9,0.3-7.2,0.6c-1.6,0.2-2.3,0.7-1.2,1c0.7-0.2,1.8,0,2.6,0
		c1.9,0,4-0.2,5.9-0.3c2.6-0.1,5.3-0.2,7.8-0.3c4.5-0.2,9.5,2.7,14,2.3c14.9,2.3,57.5,1.2,65.1,1.3c59.4,0.4,298.4-0.4,309-0.6
		c4.2-0.1,14.9-2.1,15.6-4.6C521,338.6,315.7,340.4,267.5,341z"/>
</g>
<g>
	<g>
		<g>
			<path class="st3" d="M568.6,354.8c-0.1-0.4-0.7-0.8-0.9-0.9l0,0L568.6,354.8z"/>
			<path class="st4" d="M567.7,353.9C567.7,353.9,567.7,353.9,567.7,353.9L567.7,353.9L567.7,353.9z"/>
			<polygon class="st4" points="567.7,353.9 567.7,353.9 567.7,353.9 			"/>
		</g>
	</g>
	<g>
		<path class="st5" d="M96.3,350c-0.1,0-0.1,0-0.2,0c0,0,0,0,0,0L96.3,350z"/>
		<path class="st5" d="M96.3,350c0.2,0,0.5,0.1,0.9,0.1L96.3,350z"/>
	</g>
	<path class="st6" d="M134.3,283.1c-5.3-11.5-3.6-17.2-5.1-24.7c-4.5-23.5-15.7-39.2-15.7-39.2s13-7.7,23.9,7.1
		c17.4,23.6,4.3,80.5,2,80.9C137.3,307.5,139.6,294.5,134.3,283.1z"/>
	<path class="st7" d="M134.3,283.1c-5.3-11.5-3.6-17.2-5.1-24.7c-4.5-23.5-14.8-36.3-14.8-36.3s5.7-7.9,16.6,6.9
		c17.4,23.6,10.7,77.7,8.5,78.1C137.3,307.5,139.6,294.5,134.3,283.1z"/>
	<g>
		<path class="st8" d="M116.5,249.9l14.7,15.9c0,0,9.5,1.6,11.4,3.9c1.9,2.3,10.6,5.7,13.4,10.7c2.8,5,33.7,5.5,37.2,2.4
			c3.5-3-36.1-3.8-36.4-5.9c-0.3-2.1-4.6-22.9-4.6-25.5c0.1-2.6,1.8-9.9,1.8-9.9s-11.9,3.5-18.7,2.9c-6.9-0.7-12.9-4.4-12.9-4.4
			L116.5,249.9z"/>
		<g>
			<path class="st9" d="M122.3,239.9l-5.9,10l14.7,15.9c0,0,9.5,1.6,11.4,3.9c1,1.2,4,2.8,7,4.7l-26.3-34
				C122.7,240.1,122.3,239.9,122.3,239.9z"/>
		</g>
		<path class="st10" d="M108.6,222.3c0,0,3-5.6,10.2-1.9c15,7.4-5.5,12.9-5.5,12.9L108.6,222.3z"/>
		<g>
			<path class="st11" d="M115.8,219.4c-5-1-7.2,3-7.2,3l1.2,2.8C110.5,223,113.7,220.7,115.8,219.4z"/>
		</g>
		<g>
			<path class="st8" d="M105.2,253.4c-12.2,2.4-18,8.3-18.6,10.5c-0.7,2.8-1.5,2.5-1.8,2.3c2.2,2.2,6,4.8,9.2,6.3
				c1.6,0.8,2.7,1.1,3.4,1.2c1.5,0.3,1.9,0,3.9,2.6c3,3.9,4.3,6.5,5.2,6.7c1,0.2,2.6-2,2.6-2s1.1,0.5,2.8,0.8l0.5,0.6
				c0,0,0.9,0.7,1.4,1c0.5,0.3,1.1,0,1.1,0s2.1-2.4,2.9-3.4c1.1-1.3-1.8,3.4-1.4,3.9c0.3,0.5,0.4,0.8,1.4,0.3c1-0.5,2.6-0.5,3-0.5
				c0.4,0,5.3,1.6,5.9,1.8c4.4,1.4,7.1-14.7,5.1-22.4c-2.6-4.9-6.4-10.4-6.4-10.4c-2.1,0.1-2.9-1-5.3-1.9c-2.2,0.1-6.3,1.1-9,1
				C108.5,251.6,107.7,252.9,105.2,253.4z"/>
		</g>
		<path class="st6" d="M114.1,252.5c-2.3,0.3-5,1.1-8,1.1c-2.3,0-4,0.3-6.1,0.9c-10,2.5-13.7,8.4-14.1,10.2
			c-0.6,2.9-1.4,1.9-1.4,1.9S74,254.7,80,239.4c5.6-14.3,15.7-18.9,26.8-18.7c18.6,0.2,27.9,23.6,27.9,23.6S125.1,251.2,114.1,252.5
			z"/>
		<path class="st12" d="M110.1,242.9c-1.1-0.7-0.6-2.6-1.7-3.4c-1.3,1-1.2,3.1-2.4,4.2c-0.7-0.8-0.4-2.2-0.3-3.1
			c0-0.8-0.1-1.5-0.2-2.2c0-0.4,0.2-1-0.1-1.4c-0.3,0.2-0.4,0.8-0.6,1.2c-0.4,1-0.7,2-1,3.1c-0.3,1.3-0.4,2.7-0.6,4
			c-0.2,1.2-0.3,2.8-0.8,3.9l0.2-0.1c-0.1,0.2-0.2,0.9,0,1.1c0.4,0.4,0.5,0,0.8-0.2c0.8-0.5,1.4-1.2,2.2-1.8c0.5,0.7,0.3,2,0.5,2.8
			c0.4-0.4,1.9-2.3,2.4-2c0.5,0.2,0.4,1.6,0.8,1.9c1.1-1.7,1.9-3.6,2.4-5.6c0.2-0.9,0.4-1.8,0.6-2.8c0.1-0.4,0.6-1.3,0.2-1.6
			C111.7,241.4,110.9,242.2,110.1,242.9z"/>
		<g>
			<path class="st12" d="M95.3,246.7c-0.8-0.8-0.4-2.2-1.3-2.8c-0.3,1-0.1,2.5-0.9,3.3c-2.1-1.7,0-5.5-1.7-7.2
				c-1.6,1.5-2.5,4.8-2.7,7c-0.2,1.8,1.7,6.2,0.2,7.4c-0.9-0.8-1.2-2.5-1.5-3.6c-0.3-1.1-0.3-2.9-1-3.8c-0.7,0.7,0,1.8-1.2,1
				c-0.7-0.4-0.8-1.3-1.5-1.8c-0.5,0.7-0.4,3.1-1.5,2.4c-1-0.7-0.1-2.8-0.7-3.7c-1.5,2.2-1.9,5.2-1.3,7.9c0.6,3,1.5,7.8,3.8,10.2
				c-0.3-1.8-1.5-4.8-0.2-6.1c1.1,0.8,0.8,3.1,2.1,3.7c0.2-1-0.1-2.6,0.6-3.4c0.9-1.1,1.7,0.8,2.3,0.7c0.7-0.1,2.4-4.6,3.2-3.7
				c1.3-0.8,1.5-3,2.7-4.1c1.2,1.1,1.7,1.7,2.4-0.2c0.6-1.7,0.8-4.4,0.2-6.2C96.3,244.3,96.3,245.9,95.3,246.7z"/>
		</g>
		<g>
			<path class="st13" d="M113.5,283c-0.4-0.2-1.1-1.6-1.1-1.6l-2.5-1.5l-0.7,1.1c0,0,1.1,0.5,2.8,0.8l0.5,0.6c0,0,0.4,0.3,0.8,0.6
				C113.5,283.1,113.6,283.1,113.5,283z"/>
		</g>
		<path class="st13" d="M110.3,279.2c0,0-0.5-1-1.5-0.9c-1,0.1-1.7,0.4-1.7,0.4s1.1-2.1,2.1-1.4
			C110.2,277.8,110.3,279.2,110.3,279.2z"/>
		<g>
			<g>
				<path class="st14" d="M101.3,265.8c1.3-0.8,2.7-0.9,2.7-0.9s0.8,3.4-0.1,5.2c-1,1.8-1.7,1.9-1.7,1.9s-1.5-0.6-2.9-0.7
					c0,0,0.1,0.1,0.1,0.1c0.6,0.4,3.1,1.4,3.1,1.4s0.7-0.2,1.9-2.6c1.2-2.4-0.9-6.3-0.9-6.3S102.6,264.1,101.3,265.8z"/>
			</g>
			<g>
				<g>
					<path class="st6" d="M103.4,273.2c-0.1,0.1-0.9-0.3-0.9-0.3c0.5-0.7,1.2-2.1,1.5-4c0.5-3.1-0.4-4.9-0.4-4.9s1.8,2.3,1.3,6
						C104.6,271.9,104,272.8,103.4,273.2z"/>
				</g>
			</g>
			<g>
				<path class="st6" d="M97.8,273.1c0,0,0.6-1.2,0.7-2.6c0.1-1.5,0.4-5.5,0.7-6.4c0.4-0.9,1.7-3.2,1.7-3.2s-1.3,1.2-1.9,2.6
					c-0.6,1.3-2.2,6.3-2.4,8.1C96.3,273.3,97.3,273.3,97.8,273.1z"/>
			</g>
		</g>
		<path class="st15" d="M114.4,283.6c0,0-0.3-0.6,0-1.1c0.3-0.5,3.8-2.7,3.8-2.7l-3.3,3.7C115,283.5,114.5,283.7,114.4,283.6z"/>
		<path class="st16" d="M117.2,284.3c0,0,0.6-1.3,0.7-2.2c0.2-0.9,0.3-2.3,0.3-2.3s-2,3-1.9,4.1
			C116.4,284.2,116.7,284.7,117.2,284.3z"/>
		<g>
			<path class="st8" d="M124.2,254.6c0,0,1.3-0.9,1.3-2c0-1.3-0.2-3-2.7-6.6c-2.5-3.6-5.7-1.9-6.3-1.5c-0.5,0.4-1.6,3.9,3.2,8"/>
			<path class="st17" d="M119,247.2c0,0,2,1.3,2.5,1.3c1.1,0,1.2,1.3,1.2,1.3s-0.9-0.1-1.1-0.3C121.3,249.3,119,247.2,119,247.2z"/>
			<path class="st17" d="M123.7,252.7c0-0.3-0.3-3-1-3c-0.1,0-0.2,0-0.2,0c-0.4,0-0.6,0-1.2-0.6c-0.2-0.2-0.5-0.5-0.9-0.8
				c-0.9-0.8-2.2-2-2-2.3c0-0.1,0.2-0.2,0.4-0.3c0.5-0.2,1.4-0.1,2,0.4c0.9,0.8,0.8,1.5,0.8,1.5c0,0,0.3-0.8-0.7-1.7
				c-0.7-0.6-1.7-0.7-2.3-0.5c-0.3,0.1-0.5,0.3-0.6,0.5c-0.2,0.4,0,0.8,2.1,2.6c0.4,0.3,0.7,0.6,0.9,0.8c0.6,0.6,0.8,0.7,1.3,0.7
				c0.1,0,0.1,0,0.2,0c0.4,0,0.5,1.4,0.5,2.1L123.7,252.7z"/>
		</g>
	</g>
	<path class="st18" d="M520.9,293.2c0,0,4-0.6,5.1,0c1.1,0.6-1.2,9.5-2.6,13.3c-1.3,3.8-7.3,6.3-7.7,7.4c-0.4,1.1,0.6,6.7-1.1,11.5
		c-1.7,4.9-7.5,17.6-15.7,20.1c-8.2,2.6-16.9,1.5-16.1-1.1c0.8-2.5,19.2-0.3,23.6-15.2C510.8,314.4,520.9,293.2,520.9,293.2z"/>
	<path class="st19" d="M488.7,303.3c0,0,0.1,7.9,1,13.1c1,5.1,1.5,18.6-1,20.9c-2.6,2.2-6.6,5-5.9,7.2c0.7,2.2,16.1,1.1,20.9-4.9
		c4.7-6,8.1-12.8,8.3-17.1c0.3-4.3,2.6-8.3,4.2-11c1.5-2.6,4.9-8.6,5.1-13.6c0.3-5-0.7-5.7-2.8-7c-2.1-1.3-17.2-2.6-18.2,1.3
		C499.2,296,488.7,303.3,488.7,303.3z"/>
	<path class="st14" d="M429.8,302.8c0,0,57.4,0.9,59.9,1.9c2.5,1,6.9-7,6.9-7L429.8,302.8z"/>
	<path class="st20" d="M168.7,283.7c1.4,19.5-1.8,43.7-1.8,43.7s-24.2,2.5-35.8,2.5s-16.3,0-16.3,0l-1.1,10c0,0,11.3,1.6,25.1,2.5
		c13.8,0.9,42.3,0.7,43.5,0c1.1-0.7,5-22.6,5.4-44.4c0.5-21.7-0.9-32.1-0.9-32.1"/>
	<path class="st21" d="M168.7,283.7c1.4,19.5-1.8,43.7-1.8,43.7s-24.2,2.5-35.8,2.5s-16.3,0-16.3,0l-1.1,10c0,0,11.3,1.6,25.1,2.5
		c13.8,0.9,39.5,0.2,40.6-0.5c1.1-0.7,7.9-22.2,8.3-43.9c0.5-21.7-0.9-32.1-0.9-32.1"/>
	<path class="st8" d="M168,236.7c0,0,17.9,0,23.6,1.4c10.5,2.6,37,10.5,43.7,11.9c6.8,1.4,20,2.2,25.2,0.6c5.2-1.6,8.6-4.8,8.6-4.8
		l1.4,47.8c0,0-39.1,2.1-52.7-0.1c-13.6-2.2-41.3-5.2-41.3-5.2s-28.8-13.6-31-28.4C142.1,236.4,168,236.7,168,236.7z"/>
	<g>
		<path class="st21" d="M270.7,293.7l-0.1-2.1c-3.7-1.2-9.6-2.1-13.6-2.5c-6.1-0.7-12.1,1.2-15.8,1.5c-3.6,0.3-5.4-0.5-11.5-1.2
			c-6.1-0.7-15.2,0-15.2,0s0,1.6-0.1,3.8c1.3,0.2,2.4,0.4,3.5,0.5C231.5,295.8,270.7,293.7,270.7,293.7z"/>
	</g>
	<g>
		<path class="st21" d="M176.7,282.1c2.7-5.6-12.3-29.6-13.2-18.4l-1.4,20.8c1.5,0.8,5.7-0.6,7.1,0
			C173.3,284.2,175,285.6,176.7,282.1z"/>
	</g>
	<path class="st8" d="M519.8,291.3c0,0-8.6,1.1-15.2-0.6c-6.7-1.7-29.3-11.9-48.7-14.2c-16.3-1.9-31.7-3.5-39.5-1.1
		c-6.1,1.9-7.1,13.3-7.1,13.3l7.9,14.5c0,0,64.1-2.5,74.6-1.4c10.5,1.1,12.3,4.8,12.3,4.8s12.5,1.7,15.5-2.8
		C522.5,299.3,519.8,291.3,519.8,291.3z"/>
	<path class="st22" d="M395.2,304.6c0,0-0.2,0-0.5,0.1c-5.4,0.7-51.3,7-67.6,4.2c-17.3-3-36.4-14.2-40.9-15
		c-4.5-0.8-21.5,0.8-21.5,0.8s-5-3.5-5.9-22.4c-1-19,3.2-22,3.2-22s11.8-12.7,28.5-12.1c16.7,0.6,33.3,19,46.4,23.1
		c13.2,4.1,29.3,7.1,38.1,9.3c8.8,2.3,23.5,8.2,23.5,8.2s8.5-0.8,12.6-1.8c4.1-1,5.2-1.6,5.2-1.6s-2.7,9.2-1.8,14.7
		c0.8,5.5,3,14.3,3,14.3s-4.7-1.4-7.8-1.3C409.7,303.1,403.6,306.8,395.2,304.6z"/>
	<path class="st23" d="M395.2,304.6c0,0-0.2,0-0.5,0.1c-5.4,0.7-51.3,7-67.6,4.2c-17.3-3-36.4-14.2-40.9-15
		c-4.5-0.8-21.5,0.8-21.5,0.8s-5-3.5-5.9-22.4c-1-19,3.3-19.3,3.3-19.3s11.3-11.6,28-11c16.7,0.6,31.8,19.7,44.9,23.8
		c13.2,4.1,30.9,5.9,39.7,8.2c8.8,2.3,23.4,7.4,23.4,7.4s8.3-1.4,12.4-2.4c4.1-1,5.3-1.5,5.3-1.5s-2.2,7.4-1.4,12.9
		c0.8,5.5,3,14.3,3,14.3s-4.7-1.4-7.8-1.3C409.7,303.1,403.6,306.8,395.2,304.6z"/>
	<g>
		<path class="st24" d="M262.1,290.4c1.4,3.3,2.6,4.2,2.6,4.2s15.5-1.5,20.8-0.9c-1.7-1-3.2-1.8-4.5-2.3
			C275.9,289.2,265.9,290,262.1,290.4z"/>
	</g>
	<path class="st25" d="M166,288.5c0,0,6.2,9.7,17.6,10.2s21.3-4.6,25-5.1c3.6-0.5,8.4-0.1,8.4-0.1s0.4-13.8,2.1-25.7
		c1.7-11.9,6-20.5,6-20.5s-8-3.1-18.8-6.1c-17.1-4.7-29.4-4.3-29.4-4.3s14.1,10.2,5.5,31.6c-3.4,8.3-12.9,16.4-19.9,13.7
		c-7-2.7-18.2-19.8-16.5-30.8c1.1-6.6,6.4-10.3,6.4-10.3s-7.4-0.1-9,12.1C142.7,260,144.7,273.7,166,288.5z"/>
	<g>
		<path class="st26" d="M183.6,298.7c11.4,0.5,21.3-4.6,25-5.1c3.6-0.5,8.4-0.1,8.4-0.1s0.1-1.9,0.2-3.9c-1.3-1.1-3.9-1.1-3.9-1.1
			s-0.5-1.3-0.6-4.8c-0.2-3.6,3.2-21.3,3.2-21.3s-2.4,5.3-3.2,13.1c-0.9,7.9-2.4,11.8-2.4,11.8s-3.8,1-6.7,0.5
			c-2.9-0.5-8,3.9-17.3,1.4c-5.8-1.6-9.3-7.6-9.8-11.8c-5.2,4-9.4,6.7-13.9,5c-1.7-0.7-3.8-2.2-5.8-4.4c-0.4,0.7-0.8,1.4-1.3,2.1
			c2.8,2.8,6.3,5.7,10.5,8.6C166,288.5,172.3,298.2,183.6,298.7z"/>
	</g>
	<path class="st27" d="M532.8,291.7c0,0,5-1.2,7.4,1.2c1,0.9-0.9,11.1-2.3,15c-1.4,3.9-7.6,6.5-8,7.7c-0.4,1.2,0.6,7-1.2,12
		c-1.7,5.1-7.8,18.3-16.4,20.9c-8.5,2.7-17.6,1.5-16.8-1.1c0.8-2.6,20-0.3,24.6-15.8C524.8,316.2,532.8,291.7,532.8,291.7z"/>
	<path class="st28" d="M501.7,304.6c0,0,0.1,8.2,1.1,13.6c1,5.4,1.6,19.4-1.1,21.7c-2.7,2.3-6.9,5.2-6.2,7.5s16.8,1.2,21.7-5.1
		c4.9-6.2,8.4-13.3,8.7-17.8c0.3-4.5,2.8-8.7,4.3-11.4c1.6-2.8,5.1-9,5.4-14.2c0.3-5.2-0.7-5.9-2.9-7.2c-2.2-1.3-16.1-4.2-17.2-0.1
		C514.5,295.6,501.7,304.6,501.7,304.6z"/>
	<path class="st20" d="M92.3,326.5c0,0,2.3-1.8,4.6-0.8c2.3,1,5.2,3.8,5.5,4.6c0.4,0.8,4.1,3.1,4.1,4.2c0,1.1-0.6,5.6-4.1,5.4
		c-3.5-0.2-12.2-3.1-12.2-3.1S90.5,327.5,92.3,326.5z"/>
	<path class="st14" d="M88.6,334.7c0,0-2.9,1.2-2.4,2.2c0.8,1.6,8.5,0.9,8.5,0.9s-0.8-2.8-3.5-2.4C88.5,335.7,88.6,334.7,88.6,334.7
		z"/>
	<path class="st8" d="M88.8,332.1c0,0-3-0.3-2.8,1.5c0.2,1.5,8.3,2.8,8.3,2.8s0-2.9-2.7-3.2C88.9,332.8,88.8,332.1,88.8,332.1z"/>
	<path class="st14" d="M88.8,332.1c0,0-1.6-0.4-2.4,0.5c-0.1,0.1,2.9,1,4.5,1.4c1.9,0.5,3.5,2,3.5,2s0-2.5-2.7-2.9
		C88.9,332.8,88.8,332.1,88.8,332.1z"/>
	<path class="st8" d="M88.9,328.8c0,0-3.4,1.2-3.1,2.3c0.3,1.1,8.9,3.3,8.9,3.3s-0.2-4.2-2.9-4.6C89,329.5,88.9,328.8,88.9,328.8z"
		/>
	<path class="st14" d="M88.9,328.8l-1.8,0.8l7.4,3.5c0,0,0-2.9-2.7-3.3C89,329.5,88.9,328.8,88.9,328.8z"/>
	<path class="st8" d="M90.1,325.7c0,0-3.5,0.7-3.4,1.8c0.1,1.1,8.3,4.6,8.3,4.6s0.2-3.7-2.4-4.5C90,326.9,90.1,325.7,90.1,325.7z"/>
	<path class="st14" d="M90.1,325.7c0,0-1.3-0.2-2.4,0.8c-0.6,0.6,4.4,2.7,6.4,3.8c0.6,0.3,0.9,1.8,0.9,1.8s0.2-3.7-2.4-4.5
		C90,326.9,90.1,325.7,90.1,325.7z"/>
	<path class="st8" d="M105.6,334.9c0,0-4.3-1-4.8-1.6c-0.5-0.5-2.8-5.3-3-5.9c-0.1-0.6-2.6-1.2-3.5-1.1c-0.9,0.1-0.5,3.2-0.6,4.4
		c-0.1,1.2-3,1.6-3,1.6l-0.6-6.6c0,0,4.7-3.1,7.4-3.1c2.7,0,10,6.1,10,6.1l7.4,1.2l-1.1,10l-10.1-2.1L105.6,334.9z"/>
	<path class="st21" d="M105.6,334.9c0,0-4.3-1-4.8-1.6c-0.5-0.5-2.8-5.3-3-5.9c-0.1-0.6-2.6-1.2-3.5-1.1c-0.9,0.1-0.5,3.2-0.6,4.4
		c-0.1,1.2-3,1.6-3,1.6l0.6-6.3c0,0,3.5-2,6.2-2c2.7,0,9,4.9,9,4.9l8.3,1l-1.1,10l-10.1-2.1L105.6,334.9z"/>
	<path class="st21" d="M171.8,238.1c0,0-19.9-2.2-23.3,9.2c-3.4,11.4-4.4,20.1-2.9,41c1.5,20.8-1.9,46.8-1.9,46.8
		s-25.9,2.7-38.3,2.7c-12.4,0-17.5,0-17.5,0l-1.2,10.7c0,0,12.1,1.7,26.9,2.7c14.8,1,45.3,0.7,46.5,0c1.2-0.7,5.3-24.2,5.8-47.5
		c0.5-23.3-7.1-34.7-7.1-34.7"/>
	<path class="st8" d="M172.2,236.7c0,0-17.6-1.8-23.6,8.5c-2.4,4.1-4.8,18.7-3.1,43.1c1.4,20.9-1.9,46.8-1.9,46.8
		s-25.9,2.7-38.3,2.7c-12.4,0-17.5,0-17.5,0l-1.2,10.7c0,0,12.8,0.5,27.6,1.5c14.8,1,42.3-1.6,43.5-2.4c1.2-0.7,7.3-20.6,8.6-43.8
		c1.4-24.6,0.1-44,0.1-44L172.2,236.7z"/>
	<path class="st8" d="M75.9,328.7c-3.1,0-5.5,1.3-7.7,1.3s-7.3,1.5-7.3,3.7c0,2.2,3.1,3.7,3.1,3.7s-0.7,1.3-0.4,2.6
		c0.2,1.3,1.8,2.6,1.8,2.6s-0.4,1.3-0.2,2.4c0.2,1.1,2.9,2,2.9,2s-0.7,2.2,0.2,2.6c0.9,0.4,18.4-1.4,18.4-1.4l1.2-10.7
		C87.9,337.8,79,328.7,75.9,328.7z"/>
</g>
</svg>
