<?xml version="1.0" encoding="utf-8"?>
<!-- Generator: Adobe Illustrator 21.1.0, SVG Export Plug-In . SVG Version: 6.00 Build 0)  -->
<svg version="1.1" id="Layer_1" xmlns="http://www.w3.org/2000/svg" xmlns:xlink="http://www.w3.org/1999/xlink" x="0px" y="0px"
	 viewBox="0 0 558.5 382.5" style="enable-background:new 0 0 558.5 382.5;" xml:space="preserve">
<style type="text/css">
	.st0{fill:#FFFFFF;}
	.st1{opacity:0.6;fill:#D1D2D3;}
	.st2{fill:#FFDCAE;}
	.st3{fill:url(#SVGID_1_);}
	.st4{fill:#401C18;}
	.st5{fill:url(#SVGID_2_);}
	.st6{fill:#FCBF8F;}
	.st7{fill:url(#SVGID_3_);}
	.st8{fill:#F69321;}
	.st9{fill:#E18326;}
	.st10{fill:url(#SVGID_4_);}
	.st11{fill:#FCC89E;}
	.st12{fill:#EBE6DD;}
	.st13{fill:#D77263;}
	.st14{fill:#50352A;}
	.st15{fill:#509CD5;}
	.st16{fill:#563A2E;}
	.st17{fill:#D07D82;}
	.st18{fill:#DC9090;}
	.st19{fill:#754D29;}
	.st20{fill:#DEB8B9;}
	.st21{opacity:0.5;fill:#D9BC94;}
	.st22{fill:#77544A;}
	.st23{fill:#F8B1B7;}
	.st24{fill:#A87D50;}
	.st25{fill:url(#SVGID_5_);}
	.st26{fill:url(#SVGID_6_);}
	.st27{fill:url(#SVGID_7_);}
	.st28{fill:none;}
	.st29{fill:url(#SVGID_8_);}
	.st30{fill:url(#SVGID_9_);}
	.st31{fill:url(#SVGID_10_);}
	.st32{fill:url(#SVGID_11_);}
	.st33{fill:#D8625E;}
	.st34{fill:url(#SVGID_12_);}
	.st35{fill:url(#SVGID_13_);}
	.st36{fill:url(#SVGID_14_);}
	.st37{fill:url(#SVGID_15_);}
	.st38{fill:url(#SVGID_16_);}
	.st39{fill:url(#SVGID_17_);}
	.st40{fill:url(#SVGID_18_);}
	.st41{fill:url(#SVGID_19_);}
	.st42{fill:url(#SVGID_20_);}
	.st43{fill:url(#SVGID_21_);}
	.st44{fill:url(#SVGID_22_);}
	.st45{fill:url(#SVGID_23_);}
	.st46{fill:url(#SVGID_24_);}
	.st47{fill:#FAB587;}
	.st48{fill:url(#SVGID_25_);}
	.st49{fill:url(#SVGID_26_);}
	.st50{fill:url(#SVGID_27_);}
	.st51{fill:url(#SVGID_28_);}
	.st52{fill:url(#SVGID_29_);}
	.st53{fill:url(#SVGID_30_);}
	.st54{fill:url(#SVGID_31_);}
</style>
<rect class="st0" width="558.5" height="382"/>
<g>
	<path class="st1" d="M474.9,355.3c-10.8,0.1-64.9-3.6-94.3-3.6c-29.4,0-68.7,6.8-72.8,6.3c-5-0.5-1.8-5.8,2.7-9
		c3.3-2.3,7.6-2.5,11.5-3.6c10.1-2.9,19.1-9.2,56.7-9.7c37.6-0.5,90.8,6.3,105.6,7.7c4.5,0.4,14,0.8,16.1,5.9
		c3.3,7.7-17.1,5.8-20.8,5.8C478.1,355.3,476.5,355.3,474.9,355.3z"/>
	<path class="st2" d="M303.9,285.3c0,0,2.8,10,5.3,19.7c2.1,8,5.4,16.4,6.3,21.9c0.1,0.8-0.9,7-0.9,7s7.5,2.1,10.3,1.3
		c2.7-0.8,2.9-1.8,2.9-1.8s-1.8-7-2.2-11.2c-0.5-4.3-2.1-35.6-4.4-40.5C318.9,276.8,303.9,285.3,303.9,285.3z"/>
	<g>
		<linearGradient id="SVGID_1_" gradientUnits="userSpaceOnUse" x1="318.7231" y1="308.5265" x2="327.8159" y2="308.5265">
			<stop  offset="0" style="stop-color:#FFDCAE"/>
			<stop  offset="1" style="stop-color:#FCBF8F"/>
		</linearGradient>
		<path class="st3" d="M324.9,335.2c2.7-0.8,2.9-1.8,2.9-1.8s-1.8-7-2.2-11.2c-0.5-4.3-2.1-35.6-4.4-40.5c0,0,0,0,0-0.1l-2.4,0.6
			c0,0,4.7,11.9,5.4,20.4c0.7,8.5,0.3,25.2,0.9,26.8c0.7,1.6,0.1,3.6-3.2,3.8c-1.3,0.1-1.2,0.9-0.4,1.9
			C322.7,335.4,324,335.5,324.9,335.2z"/>
	</g>
	<g>
		<path class="st4" d="M447.9,292.1c-1.8-1.5-3-3-3.4-3.2c-4.8-2.3-41.9-44.2-47.5-50.7c-5.6-6.5-12.8-13.5-12.8-13.5l-44.8,8.5
			c0,0-6.4,2.9-11.4,7.7c-5,4.8-24.2,24.6-25.3,26.7c-1.1,2,0.8,16.6,1.1,18.5c0.4,0.2,1.5,0.4,4.6,0.4c6.2,0,13.2-3.1,13.2-3.1
			s-0.5-2.2-0.7-2.8c-0.4-1.2,0.3-3.9,0.3-3.9l1.1-1.4c0,0,32-18.7,34.8-20.3c2.8-1.6,7.1,0.5,7.1,0.5c10.3,7.5,37.8,24.5,41.8,27.7
			c4.1,3.3,16.5,12.6,19.1,14.6c2.3,1.7,7.2,3.1,11.8,7.1C445,300.9,447.2,295,447.9,292.1z"/>
		<linearGradient id="SVGID_2_" gradientUnits="userSpaceOnUse" x1="367.9108" y1="245.565" x2="367.9108" y2="265.6493">
			<stop  offset="0" style="stop-color:#361410"/>
			<stop  offset="1" style="stop-color:#401C18"/>
		</linearGradient>
		<path class="st5" d="M414.1,257.5c-8-8.8-14.9-16.8-17.1-19.3c-5.6-6.5-12.8-13.5-12.8-13.5l-41.7,7.9
			c-13.1,8.4-28,19.3-16.9,19.1c13.9-0.2,6.3,13.9,2.2,20.4c9.2-5.4,27.3-15.9,29.4-17.1c2.8-1.6,7.1,0.5,7.1,0.5
			c6.3,4.5,24.1,16,34,22.4C391,259.8,404.6,255.5,414.1,257.5z"/>
		<path class="st2" d="M475,310.8c-4.8-3.4-20.3-14.3-27.2-18.7c-0.6,2.9-2.9,8.8-10.8,12.9c0.8,0.7,1.6,1.4,2.4,2.3
			c3.4,3.8,25.7,14.1,39.5,20.8c7,3.4,11,6.3,11,6.3s2,0,4.8-0.7c2.8-0.6,5.3-3.6,5.3-3.6S481,315,475,310.8z"/>
	</g>
	<path class="st6" d="M338.8,233.8c0,0,0.5,9,19,9s20.8-7,20.8-7L338.8,233.8z"/>
	<linearGradient id="SVGID_3_" gradientUnits="userSpaceOnUse" x1="361.3282" y1="189.1066" x2="361.3282" y2="217.576">
		<stop  offset="0" style="stop-color:#FFDCAE"/>
		<stop  offset="1" style="stop-color:#FCBF8F"/>
	</linearGradient>
	<rect x="350.1" y="192" class="st7" width="22.4" height="35.4"/>
	<path class="st6" d="M350.2,209.2c0,0,5.5,2,4.6,2.1c-0.8,0.1-4.6-1.1-4.6-1.1V209.2z"/>
	<path class="st6" d="M371.8,209.2c0,0-5.5,2-4.6,2.1c0.8,0.1,4.6-1.1,4.6-1.1V209.2z"/>
	<path class="st8" d="M348,195.1c0,0-3.1,17.8-5.7,21.7c-2.6,3.9-8.1,6.4-8.1,6.4s3.3,15.9,13.7,15.6c10.4-0.3,12.4-0.8,17.2,0
		c4.8,0.8,14.4,0.8,17.9-10.2c-5.8-8.8-5.7-10.7-7-18.4c-1.2-7.7-1.2-16.8-1.2-16.8l-2.9-1.4l-0.8-0.6c0,0,1.1,11.8,0.3,21.3
		c-0.6,7.2-2.5,13.5-10.2,13.3c-9.5-0.3-11.4-9.8-11.1-18.7c0.3-8,0.4-15.4,0.4-15.4L348,195.1z"/>
	<g>
		<path class="st9" d="M334.2,223.3c0,0,3.3,15.9,13.7,15.6c10.4-0.3,12.4-0.8,17.2,0c4.8,0.8,14.4,0.8,17.9-10.2
			c-1.5-2.2-2.5-4-3.4-5.5c-0.9,1.6-1.9,3.1-3,4c-2.5,2.1-7.7,0.1-11.8-1.6c-1,0.3-2.2,0.5-3.6,0.5c-3-0.1-5.2-1.1-6.8-2.6
			c-2.6,0.1-5.5,0.3-7.8,0.4c-2.6,0-4.1-3.6-4.8-6.4C339.2,221,334.2,223.3,334.2,223.3z"/>
	</g>
	<g>
		<path class="st2" d="M342.3,216.8c2.6-3.9,5.7-21.7,5.7-21.7l0,0c-1.7,1.6-4.8,3.5-10,4.3c-6.2,1-10.8,2-15.5,7
			c-4.7,4.9-6.7,17.1-7.5,18.5c-1.3,2.2-7.8,14.7-10.4,20.7c-2.6,6-2.6,11-2.3,14.8c0.3,3.8,4.6,3.3,6.3,2.7
			c1.7-0.6,6.9-2.5,12.1-5.2c3.6-1.9,13.1-12,19-18.2l-4.6-5.9c-3.8,2.4-8.1,5-9.7,6c0,0,1-2.1,2.1-4.6c1-2.5,5-12.9,5.9-12.9
			c0.2,0,0.6,0.4,1,1l0,0C334.2,223.3,339.7,220.8,342.3,216.8z"/>
	</g>
	<g>
		<linearGradient id="SVGID_4_" gradientUnits="userSpaceOnUse" x1="343.8019" y1="210.298" x2="333.7387" y2="215.592">
			<stop  offset="0" style="stop-color:#FFDCAE"/>
			<stop  offset="1" style="stop-color:#FCBF8F"/>
		</linearGradient>
		<path class="st10" d="M342.3,216.8c0.2-0.3,0.4-0.8,0.7-1.3c-0.1-0.1-0.2-0.3-0.2-0.4c-0.7-1.4-1.4-2.6-0.8-4.1
			c0.1-0.3,1.1-4.6,1.3-4.6c0.2,0.1,1.1,0.7,2.1,1.3c0.1-0.3,0.1-0.5,0.2-0.8c-1.9-1.5-4.1-3.1-4.6-3.1c-1,0.1,0.2,1.7,0,4.4
			c-0.2,2.6-1.7,4.8-3.6,6.5c-0.7,0.6-1.5,1.3-2.3,1.7c-1.2,0.6-3.2,6.4-2.9,7.3c0.5-0.9,0.8-1.5,1-1.5c0.2,0,0.6,0.4,1,1l0,0
			C334.2,223.3,339.7,220.8,342.3,216.8z"/>
	</g>
	<g>
		<path class="st2" d="M408.4,246.8c-2.7-10.7-6.1-18.8-6.1-18.8s-1.6-16.2-6-20.7c-4.4-4.5-14.3-9.6-17.4-11.3c-3-1.7-4-2.1-4-2.1
			s-0.1,8.8,1.2,16.5c1.2,7.7,1.2,9.6,7,18.4c0.6-0.8,1.5-1.9,2.1-2.6c1.1-1.2,1.9-1.5,1.9-1.5s2.8,13.4,3.3,15.2
			c0.5,1.8,1,4.2,1,4.2c-2.4-1.3-8.8-6.3-12-9c-2.3,2.4-5,3.5-7.7,4c3.6,3.8,8.2,8.6,9.7,10.5c2.6,3.5,9.9,12.9,13.8,14.5
			c3.9,1.7,9.7,2.9,9.7,2.9s3.9,0.1,4.4-1.7C410,263.4,411.1,257.5,408.4,246.8z"/>
	</g>
	<g>
		<path class="st6" d="M406.1,251.8c0,0-1.6-2.3-5.9-4.5c-4.4-2.2-7.6-3.3-8.2-4.6c-0.6-1.3-2.8-17.9-5-20.8c-1.6-2-0.6,3.2-0.8,3.3
			c0,0,0,0,0,0c0.6-0.5,1-0.6,1-0.6s2.8,13.4,3.3,15.2c0.5,1.8,1,4.2,1,4.2c3,1.7,9.9,4.2,11.6,5.3
			C404.8,250.4,406.1,251.8,406.1,251.8z"/>
	</g>
	<path class="st11" d="M360.4,229.3l-0.3-0.4c0,0-0.9-3.3,1.2-3.8c2.2-0.5,3,1.7,3,1.7l0.9,3.4l-0.4,2L360.4,229.3z"/>
	<path class="st11" d="M350.1,232.1c0,0,4.7-2.9,6-5.5c1.3-2.5,2.2-3.8,2.2-3.8l-3.4-0.2L350.1,232.1z"/>
	<path class="st12" d="M332.2,339.3c0,0,0.5,3.8,0,5.5c-0.5,1.7-6.2,3.5-8.7,4.9c-2.5,1.3-9.8,8.4-18.6,8.4c-8.8,0-8.5-4.6-8.5-4.6
		L332.2,339.3z"/>
	<path class="st13" d="M315.1,330.8c0,0-1.3,2.1-4.4,6c-1.1,1.4-5.9,6.7-8.8,9.8c-2.8,2.9-6.5,4-5.4,6.9c1.2,3.2,7.3,2.4,10.5,1.9
		c3.2-0.5,15.1-8.4,18.5-10.2c3.4-1.8,6.8-4.8,6.8-4.8s-0.3-5.5-1.4-7.5c-1-2-3.8-2.5-3.8-2.5s1.1,2.9-1.7,3.6
		C322.7,334.7,320.4,329.6,315.1,330.8z"/>
	<g>
		<path class="st14" d="M354.9,161.4c0,0-0.3-6.8,6.4-6.8c6.5,0,6.8,7.7,6.8,7.7L354.9,161.4z"/>
		<ellipse class="st15" cx="361.3" cy="162.5" rx="5.5" ry="4.7"/>
	</g>
	<g>
		<g>
			<g>
				<g>
					<g>
						<path class="st2" d="M345.8,181.8c0,0-2.5,0.9-1.1,4.4c1.3,3.5,1.4,5.2,2.3,5.9c0.8,0.6,1.5,0.2,1.5,0.2l-1.5-10.8
							L345.8,181.8z"/>
					</g>
					<path class="st6" d="M346.3,185c0,0,0.1,1.9,0,2.2c-0.1,0.4,0.1,1.6,0.1,1.6s0.3-0.6,0.3-0.9C346.7,187.7,346.3,185,346.3,185z
						"/>
					<path class="st11" d="M347.7,190.9c-0.1-0.1-1.6-1.7-1.3-2.2c0-0.1,0.1-0.1,0.1-0.2c0.2-0.3,0.2-0.4,0.1-1.1
						c0-0.2-0.1-0.6-0.1-1c-0.1-1-0.4-3.3-0.7-3.4c-0.1,0-0.2,0-0.4,0.1c-0.3,0.3-0.6,0.9-0.5,1.6c0.1,1,0.6,2.2,0.6,2.2
						c0,0-0.7-1.1-0.8-2.2c-0.1-0.8,0.3-1.5,0.6-1.7c0.2-0.1,0.4-0.2,0.5-0.1c0.3,0.1,0.5,1.3,0.8,3.5c0.1,0.4,0.1,0.8,0.1,1
						c0.1,0.7,0.1,0.8-0.1,1.2c0,0-0.1,0.1-0.1,0.2c-0.1,0.3,0.6,1,1,1.4L347.7,190.9z"/>
				</g>
				<g>
					<g>
						<path class="st2" d="M376.6,181.8c0,0,2.5,0.9,1.1,4.4c-1.3,3.5-1.4,5.2-2.3,5.9c-0.8,0.6-1.5,0.2-1.5,0.2l1.5-10.8
							L376.6,181.8z"/>
					</g>
					<path class="st6" d="M376.1,185c0,0-0.1,1.9,0,2.2c0.1,0.4-0.1,1.6-0.1,1.6s-0.3-0.6-0.3-0.9C375.8,187.7,376.1,185,376.1,185z
						"/>
					<path class="st11" d="M374.6,191c0.1-0.1,1.7-1.9,1.5-2.4c0-0.1-0.1-0.1-0.1-0.2c-0.2-0.3-0.2-0.4-0.1-1.1c0-0.2,0.1-0.6,0.1-1
						c0.1-1,0.4-3.3,0.7-3.4c0.1,0,0.2,0,0.4,0.1c0.3,0.3,0.6,0.9,0.5,1.6c-0.1,1-0.6,2.2-0.6,2.2c0,0,0.7-1.1,0.8-2.2
						c0.1-0.8-0.3-1.5-0.6-1.7c-0.2-0.1-0.4-0.2-0.5-0.1c-0.3,0.1-0.5,1.3-0.8,3.5c-0.1,0.4-0.1,0.8-0.1,1c-0.1,0.7-0.1,0.8,0.1,1.2
						c0,0,0.1,0.1,0.1,0.2c0.1,0.3-0.9,1.4-1.3,1.7L374.6,191z"/>
				</g>
				<g>
					<g>
						<path class="st11" d="M361.2,165.9c0,0-13.3-0.6-14.2,11.3v10.5c0,0,1.8,8.9,3.5,11c1.8,2.1,6.1,5.5,7.5,6.2
							c2.1,1.1,5,1,6.6,0.1c1.4-0.7,5.8-5.4,7.2-7.4c1.9-2.7,3.5-9.9,3.5-9.9v-10.5C374.4,165.3,361.2,165.9,361.2,165.9z"/>
					</g>
					<path class="st2" d="M360.6,170c0,0-4.1-1.4-7.3-0.1c-2.8,1.2-5.1,4.8-5.5,9.8l-0.1,8.6c0,0,1.1,7.5,3.4,10.4
						c1.2,1.5,6.3,6,7.5,6.6c1.9,1,4,0.8,5.6-0.1c1.3-0.6,6.3-5.9,7.4-7.8c2.5-4.1,3.2-9.9,3.2-9.9l0.2-7.9
						c-0.5-6.6-5.5-9.9-9.4-10.5C363.2,168.7,360.6,170,360.6,170z"/>
					<path class="st16" d="M376.2,166.7c-2.9-5.6-9-8-15.5-8s-11.3,3-13.7,7.8c-4.2,8.3,0,18.1,0,18.1s0.4-5.5,0.5-6.4
						c0.9-3.5,1.9-7.5,7.5-9.1c1.6-0.5,5.7,0.5,5.7,0.5s3.6-0.9,5-0.7c5.9,0.9,9.4,5.4,9.4,8.2c0,0.9,0.4,7.7,0.4,7.7
						S380.1,174.5,376.2,166.7z"/>
				</g>
				<path class="st17" d="M359.8,197.3c0,0,0.8,0.4,1.2,0.4c0.4,0,1.2-0.4,1.2-0.4s1.9,0.5,3.1,0.1c0.2-0.1,0.3-0.2,0.3-0.2
					s-2-0.8-2.6-0.9c-0.6-0.1-1.3-0.1-1.5,0c-0.2,0.1-0.5,0.3-0.5,0.3s-0.4-0.3-0.5-0.3c-0.2-0.1-1.2-0.1-1.8,0
					c-0.5,0.1-2.1,1.1-2.4,1.1c0.2,0.1,0.5-0.1,0.9,0.1C358.4,198,359.8,197.3,359.8,197.3z"/>
				<path class="st6" d="M363.1,183c0,0-0.8,0.9-0.8,2c0,0.7,0.3,2.9,0.3,2.9S362.5,184.4,363.1,183z"/>
				<path class="st18" d="M356.6,197.5c0,0,0.8,1.9,4.5,1.9c3.7,0,4.5-2.1,4.5-2.1s-1.6,0-1.9,0c-0.4,0-1.3,0-1.3,0
					s-0.9,0.6-1.3,0.5c-0.4-0.1-1.3-0.4-1.3-0.4S358.1,197.7,356.6,197.5z"/>
				<path class="st19" d="M361,197.8c-0.4,0-1.1-0.3-1.3-0.4c-0.2,0-1.2,0.4-2.4,0.2c-1.2-0.2-1.7-0.1-1.7-0.1c0,0,0.5-0.2,1.7,0
					c1.2,0.2,2.4-0.2,2.4-0.2l0,0l0,0c0,0,0.8,0.4,1.2,0.4c0.4,0,1.2-0.4,1.2-0.4l0,0l0,0c0,0,1.4,0,2.6-0.1
					c1.2-0.1,1.5,0.1,1.5,0.1s-0.7,0.1-1.2,0.1c-1.2,0-2.6,0.1-2.8,0.1C362.2,197.5,361.5,197.8,361,197.8L361,197.8z"/>
				<path class="st20" d="M357.7,198.1c0.6,0.5,1.4,0.9,2.4,1c0.2,0,1.1,0,1.2,0c1.1,0,1.9-0.4,2.5-0.8c0,0-1.7,0.6-3.1,0.6
					C358.5,198.9,357.7,198.1,357.7,198.1z"/>
				<path class="st21" d="M357.7,199.5c0.6,0.5,1.4,0.9,2.4,1c0.2,0,1.1,0,1.2,0c1.1,0,1.9-0.4,2.5-0.8c0,0-1.7,0.6-3.1,0.6
					C358.5,200.2,357.7,199.5,357.7,199.5z"/>
				<path class="st11" d="M359.6,192.6c-0.4-0.2-0.6,0-0.6,0s1.3,2.1,2.2,2.1c0.8,0,2.3-2.1,2.3-2.1s-0.2-0.3-0.6-0.1
					c-0.5,0.2-1.3,1-1.7,1C360.8,193.5,360.1,192.9,359.6,192.6z"/>
				<path class="st22" d="M362.4,192.9c0,0-0.1-0.5,0.3-0.8c0.3-0.3,1-0.4,1.2-0.1c0.2,0.3-0.1,0.6-0.4,0.7
					C363.1,192.7,362.6,192.6,362.4,192.9z"/>
				<path class="st22" d="M359.9,192.9c0,0,0.1-0.5-0.3-0.8c-0.3-0.3-1-0.4-1.2-0.1c-0.2,0.3,0.1,0.6,0.4,0.7
					C359.2,192.7,359.7,192.6,359.9,192.9z"/>
				<path class="st22" d="M359.9,192.9c0,0,0.7,0.7,1.2,0.7c0.6,0,1.2-0.7,1.2-0.7s0.4-0.7,0.7-0.8c0.3-0.1-0.5,0-0.6,0.2
					c-0.1,0.2-0.5,1.1-1.3,1.1s-1.3-1.1-1.4-1.2c-0.1-0.1-0.4-0.1-0.4-0.1L359.9,192.9z"/>
			</g>
			<path class="st23" d="M357.2,197.4c0,0,1.2-0.7,2-0.7c0.8,0,1.1,0,1.3,0.1c0.1,0.1,0.4,0.3,0.6,0.3c0.2,0,0.7-0.4,1-0.4
				c0.3,0,1,0.2,1,0.2s1.8,0.3,1.5,0.3c-0.2,0-2.4,0.1-2.6,0.1c-0.2,0-0.6,0.4-1,0.4c-0.4,0-0.7-0.4-1-0.4c-0.3,0-1.6,0.2-1.8,0.2
				C358.1,197.4,357.2,197.4,357.2,197.4z"/>
		</g>
		<g>
			<path class="st6" d="M350.1,185c0,0,0.1-0.7,0.4-1.4c0.2-0.7,0.6-1.1,0.6-1.1s-0.5,1.5-0.2,2.2c0.3,0.6,1.2,1.3,1.2,1.3
				S350.3,185.7,350.1,185z"/>
			<path class="st6" d="M357.4,185.7c0,0-0.1-0.7-0.4-1.4c-0.2-0.7-0.6-1.1-0.6-1.1s0.5,1.5,0.2,2.2c-0.3,0.6-1.2,1.3-1.2,1.3
				S357.2,186.4,357.4,185.7z"/>
			<path class="st16" d="M353,186.8c3.8,0.4,4.4-1.1,4.4-1.1s-1.6,0.8-4.3,0.4c-1.7-0.3-3.1-1.2-3.1-1.2S350.6,186.6,353,186.8z"/>
		</g>
		<g>
			<path class="st6" d="M372.2,185c0,0-0.1-0.7-0.4-1.4c-0.2-0.7-0.6-1.1-0.6-1.1s0.5,1.5,0.2,2.1c-0.3,0.6-1.2,1.3-1.2,1.3
				S372,185.7,372.2,185z"/>
			<path class="st6" d="M364.9,185.8c0,0,0.1-0.7,0.4-1.4c0.2-0.7,0.6-1.1,0.6-1.1s-0.5,1.5-0.2,2.1c0.3,0.6,1.2,1.3,1.2,1.3
				S365.1,186.4,364.9,185.8z"/>
			<path class="st16" d="M369.3,186.8c-3.8,0.4-4.3-1.1-4.3-1.1s1.6,0.8,4.3,0.4c1.7-0.3,3.1-1.2,3.1-1.2S371.7,186.6,369.3,186.8z"
				/>
		</g>
	</g>
	<g>
		<path class="st16" d="M358.4,180c0,0-0.9,0.2-2,0c-1.1-0.2-4-0.7-4.7-0.6c-0.7,0.1-2.3,0.8-2.3,0.8s0.8-0.9,1.9-1.1
			c1.1-0.2,4.9-0.5,6.2-0.3C358.8,179,358.6,179.7,358.4,180z"/>
	</g>
	<g>
		<path class="st16" d="M364.4,180c0,0,0.9,0.2,2,0c1.1-0.2,4-0.7,4.7-0.6c0.7,0.1,2.3,0.8,2.3,0.8s-0.8-0.9-1.9-1.1
			c-1.1-0.2-4.9-0.5-6.2-0.3C363.9,179,364.1,179.7,364.4,180z"/>
	</g>
	<path class="st24" d="M349.4,165.5c0.2-0.2,4,1.4,4,1.4l-0.8-2.1l2.6,2l-1.2-4.3c0,0,3.3,4.7,3.7,4.3c0.4-0.4-0.9-4.3-0.9-4.3
		s2.5,4.4,3.2,4.1c0.7-0.2,1.2-5.7,1.2-5.7s0.8,5.8,1.6,5.3c0.8-0.5,1.9-4.6,1.9-4.6s-0.8,4.8,0.5,4.4c1.3-0.4,3.1-3,3.1-3
		s-1.5,3.3-0.8,3.3c0.6,0,4.4-2.3,4.4-2.3s-3.1,3.5-2.6,3.5c0.5,0,4.6-0.9,4.6-0.9l-4.6,2.3c0,0,0.8-0.8,0.1-0.9
		c-0.8-0.1-2.7,0.1-2.7,0.1s1.3-0.8,0.8-0.9c-0.4-0.1-2.1,0.8-2.7,0.7c-0.6-0.1-1-1.3-1-1.3s-0.6,1.7-1.4,1.4
		c-0.8-0.4-1.1-1.2-1.1-1.2s-0.2,1.3-1,1.1c-0.8-0.2-1.6-1.2-1.6-1.2s-0.2,1.1-0.8,1.1c-0.6-0.1-1.5-1-1.5-1s0,1.3-0.5,1.2
		c-0.4-0.1-1.9-0.7-1.9-0.7s0.2,1.1,0.1,1.1C353.8,168.2,349.1,165.7,349.4,165.5z"/>
	<path class="st24" d="M376,174c0-0.3,0.1-0.6,0.2-0.8c-0.1,0-0.2-0.1-0.3-0.1c0.1-0.5,0.5-1,0.8-1.4c-0.4,0.1-0.9,0.1-1.2,0
		c0-0.5,0.4-0.8,0.6-1.3c-0.6,0-1.7,0.4-1.7-0.3c0-0.5,0.7-1,1-1.4c-1,0.2-2.7,1.5-2.7,1.5s0.8,0,1.2,0c0.1,0.4-0.1,0.7-0.3,1
		c0.4,0,0.9,0,1.3,0c0,0.3-0.2,0.6-0.3,1c1.6-0.1,0.2,0.4,0.3,1c0,0,0.8,0.1,0.8,0.1c0,0.2-0.6,0.3-0.6,0.5c0.2,0,0.5-0.1,0.7-0.1
		c-0.1,0.2-0.3,0.6-0.3,0.8c0.5,0,0.5,0.4,0.4,0.7c0.4-0.2,0.5-0.8,0.7-1.2C376.4,174.1,376.2,174,376,174z"/>
	<path class="st24" d="M346.9,174c0-0.3-0.1-0.6-0.2-0.8c0.1,0,0.2-0.1,0.3-0.1c-0.1-0.5-0.5-1-0.8-1.4c0.4,0.1,0.9,0.1,1.2,0
		c0-0.5-0.4-0.8-0.6-1.3c0.6,0,1.7,0.4,1.7-0.3c0-0.5-0.7-1-1-1.4c1,0.2,2.8,1.5,2.8,1.5s-0.8,0-1.2,0c-0.1,0.4,0.1,0.7,0.3,1
		c-0.4,0-0.9,0-1.3,0c0,0.3,0.2,0.6,0.3,1c-1.6-0.1-0.2,0.4-0.3,1c0,0-0.8,0.1-0.8,0.1c0,0.2,0.6,0.3,0.6,0.5
		c-0.2,0-0.5-0.1-0.7-0.1c0.1,0.2,0.3,0.6,0.3,0.8c-0.5,0-0.5,0.4-0.4,0.7c-0.4-0.2-0.5-0.8-0.7-1.2
		C346.5,174.1,346.7,174,346.9,174z"/>
	<path class="st24" d="M366.3,158c-0.2,0-0.3,0-0.5,0c-0.2,0-0.5,0.1-0.8,0c0.2-0.4,0.7-0.4,1-0.7c-0.2,0-0.4,0.1-0.5,0.2
		c-0.4,0.2-0.9,0.3-1.3,0.4c0-0.2,0.2-0.6,0.3-0.8c0.1-0.3,0.3-0.5,0.5-0.7c-0.4,0.5-1.2,0.7-1.7,1c-0.1-0.1,0-0.5,0-0.7
		c0.1-0.4,0.2-0.8,0.4-1.1c-0.4,0.5-0.8,1.2-1.4,1.4c0-0.6-0.3-1.2-0.2-1.8c-0.2,0.6-0.5,1.1-0.9,1.6c-0.1-0.2-0.1-0.5-0.2-0.7
		c-0.1-0.3-0.1-0.7-0.1-1c-0.2,0.7-0.5,1.3-0.9,1.8c-0.3-0.5-0.5-1.1-0.6-1.7c-0.1,0.6,0.1,1.6-0.4,2c-0.2-0.1-0.4-0.3-0.5-0.5
		c-0.2-0.2-0.4-0.5-0.5-0.8c0,0.6,0.1,1.4-0.1,1.9c-0.5-0.1-0.8-0.6-1.2-0.9c0,0.5,0.2,1,0.1,1.5c-0.2-0.2-0.5-0.4-0.7-0.6
		c0.1,0.4,0.4,0.8,0.4,0.8s-0.5,0.1-0.8,0.1c0.2,0.3,0.5,0.5,0.7,0.8c0-0.1-0.2-0.5-0.1-0.6c0.1-0.1,0.5,0.1,0.6,0.2
		c0-0.2,0-0.4,0-0.5c0.1,0,0.3,0.1,0.4,0.1c0-0.2-0.2-0.5-0.1-0.7c0.2,0.1,1,0.2,1.1,0.1c0.2-0.1,0-0.7,0.1-0.8
		c0.3,0.1,0.7,0.2,0.9,0.4c0.2-0.2,0.3-0.6,0.3-0.8c0.1,0.2,0.3,0.5,0.4,0.8c0.2-0.3,0.3-0.7,0.6-0.9c0.1,0.2,0.2,0.6,0.3,0.8
		c0.3-0.3,0.5-0.6,0.8-0.8c0.1,0.3,0.4,0.6,0.5,1c0.2-0.1,0.4-0.3,0.6-0.5c0,0.2,0,0.4,0,0.6c0.2-0.1,0.4-0.2,0.6-0.1
		c0,0.1-0.1,0.3,0,0.4c0.2-0.1,0.7,0,0.9,0c0,0.1,0,0.1,0,0.2c0.2,0,0.4,0,0.6,0.1c0,0.1,0,0.2-0.1,0.2
		C365.5,158.5,366,158.3,366.3,158z"/>
	<g>
		<path class="st6" d="M328,229.8c-1.3,2.9-3.5,9.2-4.4,9.9c-1,0.7-9.3,4.1-10.5,4.7c-0.9,0.4-3,2-3.9,2.6c0.6-0.5,2-1.4,3.8-2.2
			c2.5-1.1,9.3-3.2,12.3-5.1c0,0,1-2.1,2.1-4.6c1-2.5,5-12.9,5.9-12.9C331.8,221.3,329.3,226.9,328,229.8z"/>
	</g>
	<g>
		
			<linearGradient id="SVGID_5_" gradientUnits="userSpaceOnUse" x1="-4477.1357" y1="214.064" x2="-4487.1987" y2="219.3579" gradientTransform="matrix(-1 0 0 1 -4102.0293 0)">
			<stop  offset="0" style="stop-color:#FFDCAE"/>
			<stop  offset="1" style="stop-color:#FCBF8F"/>
		</linearGradient>
		<path class="st25" d="M384.9,218.4c-0.8-0.4-1.6-1.1-2.3-1.7c-1.9-1.7-3.5-3.9-3.6-6.5c-0.2-2.7,1-4.3,0-4.4c-0.4,0-1.7,0.9-3.2,2
			c0,0.3,0.1,0.6,0.1,1c0.3-0.2,0.6-0.4,0.7-0.4c0.2-0.1,1.1,4.2,1.3,4.6c0.6,1.4,0.1,2.6-0.6,3.9c0.8,3.4,2.1,6.2,5.8,11.9
			c0.6-0.8,1.5-1.9,2.1-2.6c1.1-1.2,1.9-1.5,1.9-1.5s0.1,0.3,0.1,0.7c0.1,0,0.3,0,0.5,0.4C388.1,224.7,386,219,384.9,218.4z"/>
	</g>
	<g>
		<linearGradient id="SVGID_6_" gradientUnits="userSpaceOnUse" x1="355.0557" y1="219.5753" x2="356.0792" y2="218.4641">
			<stop  offset="0" style="stop-color:#FFDCAE"/>
			<stop  offset="1" style="stop-color:#FCBF8F"/>
		</linearGradient>
		<path class="st26" d="M356.1,214.6c-1.7-0.1-5.3,3.1-5.3,3.1l-4.2,7.6c0,0-3.3,3-4.8,4.1c-0.7,0.5-4.8,3.1-8,5.1l5.7,5.3
			c2.6-2.8,4.6-4.8,5-5.1c1.4-0.8,3.8-1.9,5.3-2.4c1.5-0.6,3.1-7.9,3.6-9c0.5-1,5.8-1,5.8-1s2.1-0.6,2.1-1.7
			C361.4,219.4,357.8,214.7,356.1,214.6z"/>
	</g>
	<g>
		<path class="st11" d="M358.5,220c-1-0.9-2.8-1.8-3.8-1.4s-2.5,1.7-2.5,1.7s3.2-1.1,5.4,0.5c0.7,0.5,1.2,1,1.7,1.4
			c0.2-0.1,0.7-0.2,1.2-0.5C359.8,221.1,359,220.4,358.5,220z"/>
	</g>
	<path class="st2" d="M346.6,233.3c0,0,4.4-1,5.7-2.7c2.5-3.1,2.9-7.7,2.9-7.7h2.1l2.4,1.3v2.4c0,0-1.5,1.9-1.2,2.5
		c0.6,1.1,1.4,0.5,2.1-0.5c0.9-1.2,1.2-2,1.2-2l-0.3-3.5c0,0-2-1.8-3-2.7c-1-0.9-2.8-1.8-3.8-1.4c-0.9,0.4-2.5,1.7-2.5,1.7"/>
	<g>
		<path class="st2" d="M377.8,233.3c-1.3-1.4-3.1-2.5-4.2-3c-1-0.4-2-2.1-2-2.1s-2.6-7.3-3.4-10.3c-0.9-3-2-2.9-2-2.9
			s-6.3-3.9-8.2-4.8c-1.9-0.9-3.6,0-4.5,0.5c-1.5,0.8-2.3,1.3-3.2,1.9c-0.7,0.5-1.5,1.2-1.5,1.2s-1.9,1.5-1.8,2
			c0,0.3,0.5,0.7,1.2,0.9l0,0c0-0.1,0.1-0.1,0.1-0.2l-0.1,0.2c-0.1,0.2-0.2,0.3-0.2,0.4c0.1,0.5,1.7,1.3,2.6,0.8
			c0.7-0.4,1.2-0.9,1.5-1.1c0.1-0.1,0.1-0.1,0.2-0.2c0,0,0,0,0,0l0,0c0.1-0.1,0.3-0.2,0.4-0.3l-0.4,0.3c0,0,0,0,0,0
			c0,0-0.1,0.1-0.2,0.2c-0.3,0.3-0.4,0.6-0.4,0.6s-1.5,1.2-1.5,1.7c0,0.4,1.2,1.2,1.9,0.8c0.7-0.3,1.8-1.7,1.8-1.7l3.5-0.1l4.6,4.1
			c0,0,0,2.8,0.7,4.9c0.6,1.8,1.8,3.9,1.8,3.9s-1.1-1.4-2-1.8c-1.2-0.6-2-0.1-1.9,0c0.5,0.7,1.9,2.4,3.1,3c1.6,0.8,3.3,1.5,3.3,1.5
			s7.7,7.8,12.1,12.7l6.6-6.6C382.2,237.2,378.6,234.2,377.8,233.3z"/>
	</g>
	<g>
		<linearGradient id="SVGID_7_" gradientUnits="userSpaceOnUse" x1="363.052" y1="212.2362" x2="356.9685" y2="213.7669">
			<stop  offset="0" style="stop-color:#FFDCAE"/>
			<stop  offset="1" style="stop-color:#FCBF8F"/>
		</linearGradient>
		<path class="st27" d="M348.3,216.6C348.3,216.6,348.3,216.6,348.3,216.6c0.5-0.6,1.5-1.4,1.5-1.4s0.8-0.8,1.5-1.2
			c0.9-0.6,1.7-1.1,3.2-1.9c0.9-0.5,2.1-1.1,4-0.2c1.9,0.9,5.8,3.3,5.8,3.3s-6.1-4.3-7.7-4.2c-1.6,0-5.5,2.6-5.5,2.6l-1.5,1.2
			l-1.9,1.7c0,0-0.1,0.1-0.2,0.2c0.2,0.1,0.4,0.2,0.6,0.3C348.2,216.7,348.2,216.7,348.3,216.6C348.3,216.6,348.3,216.6,348.3,216.6
			z"/>
	</g>
	<g>
		<path class="st28" d="M353.1,218.6l-2.6-0.1c-0.1,0.1-0.2,0.3-0.3,0.4c0.4,0.3,1,0.7,1.5,0.7C352,219.5,352.6,219,353.1,218.6z"/>
		<g>
			<linearGradient id="SVGID_8_" gradientUnits="userSpaceOnUse" x1="361.1599" y1="216.8055" x2="354.7375" y2="217.9082">
				<stop  offset="0" style="stop-color:#FFDCAE"/>
				<stop  offset="1" style="stop-color:#FCBF8F"/>
			</linearGradient>
			<path class="st29" d="M350.5,218c0.7-0.4,1.2-0.9,1.5-1.1c0.1-0.1,0.1-0.1,0.2-0.2c0,0,0,0,0,0l0,0c0.1-0.1,0.1-0.1,0.2-0.2
				c0,0,0,0,0,0c0.1-0.1,0.1-0.1,0.2-0.1c0.7-0.4,1.8-0.5,2.8-0.7c0.8-0.1,1.7-0.7,3,0.2c1.4,0.8,4.1,2.9,4.1,2.9s-3.4-2.7-4.1-3
				c-0.7-0.4-1.1-0.6-1.8-0.5c-0.8,0.1-1.1,0.3-1.3,0.3s-0.2,0-0.2,0s-2.2,0.5-2.4,0.6c-0.2,0.1-1.5,1.1-2.3,1.3
				c-0.5,0.1-1.3,0.3-2,0.2C349,218.1,349.9,218.4,350.5,218z"/>
		</g>
		<linearGradient id="SVGID_9_" gradientUnits="userSpaceOnUse" x1="366.1866" y1="224.5563" x2="350.8992" y2="224.2705">
			<stop  offset="0" style="stop-color:#FFDCAE"/>
			<stop  offset="1" style="stop-color:#FCBF8F"/>
		</linearGradient>
		<path class="st30" d="M362.7,226.4c-0.1-1.1-0.2-4.2-0.2-4.2s-3-2.8-3.8-3.4c-0.1,0-0.1-0.1-0.2-0.1c-0.7-0.5-1.3-0.9-1.3-0.9
			h-3.3c0,0-0.4,0.4-0.8,0.7c-0.5,0.5-1.1,1.1-1.4,1.2c-0.5,0-1.6-0.4-1.5-0.9c-0.1,0.1-0.1,0.2-0.1,0.3c0,0.4,1.2,1.2,1.9,0.8
			c0.5-0.2,1.2-1,1.5-1.4c0.1-0.2,0.2-0.3,0.2-0.3l3.5-0.1l0.6,0.5l4,3.6c0,0,0,2.8,0.7,4.9c0.6,1.8,1.8,3.9,1.8,3.9
			S362.8,227.5,362.7,226.4z"/>
	</g>
	<g>
		<linearGradient id="SVGID_10_" gradientUnits="userSpaceOnUse" x1="336.4171" y1="203.3335" x2="336.852" y2="198.6394">
			<stop  offset="0" style="stop-color:#FFDCAE"/>
			<stop  offset="1" style="stop-color:#FFE4C2"/>
		</linearGradient>
		<path class="st31" d="M348,195.1c-1.7,1.6-4.8,3.5-10,4.3c-4.8,0.7-8.6,1.6-12.3,4.2c1.3-0.6,3.1-1.4,4.5-1.5
			c1.1-0.1,2.5,0.3,1.6,1.6c-0.5,0.8-1.7,1.4-2,2.3c1.6-0.2,4-1.1,5.4-2c3-1.8,6-2,9.1-3.5c1-0.5,2.1-1.1,3-1.8
			C347.7,196.5,348,195.1,348,195.1L348,195.1z"/>
	</g>
	<g>
		<linearGradient id="SVGID_11_" gradientUnits="userSpaceOnUse" x1="386.6294" y1="205.5261" x2="385.9979" y2="197.5877">
			<stop  offset="0" style="stop-color:#FFDCAE"/>
			<stop  offset="1" style="stop-color:#FFE4C2"/>
		</linearGradient>
		<path class="st32" d="M393.4,207.8c0.9-0.7,2.7,0.1,4.3,1.4c-0.4-0.8-0.9-1.5-1.4-2c-4.4-4.5-14.2-9.8-17.4-11.5c-2.1-1.1-4-2-4-2
			s0,0.6,0,2.2c1.2,1.2,2.4,2.4,3.1,2.8c1.8,1.1,9.5,4.5,10.9,5.8c1.4,1.2,2.1,4.5,2.7,5.8c0.7,1.4,2.3,2.1,2.3,2.1
			S392.1,208.8,393.4,207.8z"/>
	</g>
	<g>
		<path class="st33" d="M306.9,355.4c3.2-0.5,15.1-8.4,18.5-10.2c3.4-1.8,6.8-4.8,6.8-4.8s-0.3-5.5-1.4-7.5c-0.3-0.5-0.7-1-1.1-1.3
			c0.2,3.3-1.8,5.3-7.2,8.8c-5.8,3.9-9.7,11-13,13c-4.3,2.7-10.8,2-12.6,1C298.9,356.5,304.1,355.8,306.9,355.4z"/>
	</g>
	<g>
		<linearGradient id="SVGID_12_" gradientUnits="userSpaceOnUse" x1="437.8007" y1="303.3773" x2="431.0868" y2="300.3136">
			<stop  offset="0" style="stop-color:#361410"/>
			<stop  offset="1" style="stop-color:#401C18"/>
		</linearGradient>
		<path class="st34" d="M438.7,304c-1.7-2-1.4-3.1-3.1-3.6c-1.1-0.4-3.3,0.2-5.2,0.3c2,1,4.3,2.3,6.5,4.2
			C437.6,304.7,438.2,304.4,438.7,304z"/>
	</g>
	<g>
		<linearGradient id="SVGID_13_" gradientUnits="userSpaceOnUse" x1="437.0146" y1="319.253" x2="492.2473" y2="319.253">
			<stop  offset="0" style="stop-color:#FFDCAE"/>
			<stop  offset="1" style="stop-color:#FCBF8F"/>
		</linearGradient>
		<path class="st35" d="M489.7,332.4c-2.8-1-21.5-11.7-25.3-13.5c-3.9-1.8-23.1-12.2-25.3-14.4c-0.1-0.1-0.3-0.3-0.4-0.4
			c-0.5,0.3-1.1,0.6-1.7,1c0.8,0.7,1.6,1.4,2.4,2.3c3.4,3.8,25.7,14.1,39.5,20.8c7,3.4,11,6.3,11,6.3s0.4,0,1-0.1
			C493.1,333.6,492.5,333.4,489.7,332.4z"/>
	</g>
	<path class="st12" d="M508.9,347c3.6,9.5-2.2,10.2-6.5,10.3c-4.2,0.1-7.9-1.1-9.3-2.5c-2.2-2.2-0.5-7.2-0.5-7.2s1.2,4.3,7.4,4.3
		C506.2,351.9,508.9,347,508.9,347z"/>
	<path class="st13" d="M488.7,333.6c0,0,2.1,4.6,3,7.1c0.9,2.5,0.6,9.7,2.2,11.2c1.6,1.5,7.8,3,10.3,2c2.6-1,7-3.1,3.4-11
		c-3.5-8-5-11.5-5.9-12.6c-2.6-3.6-7.3-3.7-8.9,0.6c-0.4,1.1-0.5,2.3-0.5,2.3S492.3,333.9,488.7,333.6z"/>
	<g>
		<path class="st33" d="M493.5,343.2c1-1.7,0.6-3.5-0.4-5.6c-0.7-1.4-1-3.1-1.2-4.1c-0.4,0.2-1.3,0.3-3.3,0.2c0,0,2.1,4.6,3,7.1
			c0.9,2.5,0.6,9.7,2.2,11.2c0.1,0.1,0.1,0.1,0.2,0.2C492.7,349.3,492.4,345.1,493.5,343.2z"/>
	</g>
</g>
<g>
	<path class="st1" d="M134.3,360.2c0,0,12-3,27.5-3c15.5,0,25.6,3,25.6,3l-0.9-19.1c0,0-12.6,3.3-26.5,3.3
		c-13.9,0-24.4-5.7-24.4-5.7L134.3,360.2z"/>
	<g>
		<g>
			<path class="st12" d="M145.4,339.6c0,0,0.9,2.7,0,3.8c-0.9,1-2.9,3.6-4,5.9c-1.1,2.3-2.4,7.5-2.9,7.9c-0.5,0.4,0.2-9,1.9-12
				C142.1,342.3,145.4,339.6,145.4,339.6z"/>
			<g>
				<path class="st2" d="M132.1,271.6c8.3,3.7,15.1,3.3,18.2,2.8c-0.3,4.2-0.7,9.7-1.8,18.9c-1.4,11.9-4.2,30.1-4.9,37.7
					c-0.2,1.8,0.5,5.6,0.5,5.6s-2.7,0.3-5.4,0c-2.7-0.3-5.7-2.6-5.7-2.6s0.7-3.6,0.4-8.1c-0.8-13.6-2.2-41.9-1.4-53.5
					C132.1,272.1,132.1,271.9,132.1,271.6z"/>
			</g>
			<g>
				<linearGradient id="SVGID_14_" gradientUnits="userSpaceOnUse" x1="148.0506" y1="299.5238" x2="148.0506" y2="273.1461">
					<stop  offset="0" style="stop-color:#FFDCAE"/>
					<stop  offset="1" style="stop-color:#FCBF8F"/>
				</linearGradient>
				<path class="st36" d="M147.2,292.6c-0.1,5.5-0.8,11.3-0.7,16.1c0.7-5.4,1.5-10.8,2-15.4c1.1-9.2,1.5-14.7,1.8-18.9
					c-1.1,0.2-2.6,0.4-4.5,0.4C151.2,276.4,147.4,283.9,147.2,292.6z"/>
				<linearGradient id="SVGID_15_" gradientUnits="userSpaceOnUse" x1="134.9937" y1="332.0406" x2="144.0845" y2="332.0406">
					<stop  offset="0" style="stop-color:#FFDCAE"/>
					<stop  offset="1" style="stop-color:#FCBF8F"/>
				</linearGradient>
				<path class="st37" d="M144.1,336.6c0,0-0.7-3.7-0.5-5.6c0.1-1,0.2-2.3,0.4-3.7c-1,3.2-2,6.3-1.9,6.7c0.1,0.8-2.6-3.5-5.1-3
					c-1.1,0.2-1.7,2.1-1.9,4.3c1.1,0.6,2.4,1.2,3.7,1.3C141.4,336.9,144.1,336.6,144.1,336.6z"/>
			</g>
			<path class="st12" d="M123.6,349.4c-3.3,5.9-0.6,10.2,3.6,10.8c4.2,0.7,8.7,1.1,10.3-0.2c3.2-2.4,1.5-8.6,1.5-8.6
				s-1.9,5.1-8.1,4.3C124.8,355,123.6,349.4,123.6,349.4z"/>
			<path class="st13" d="M144.1,335.9c0,0,1.5,2,1.5,3.5c0,1.7-4.5,4.8-5.2,6.6c-0.9,2.4-1.7,8.2-3.1,10.4c-2.5,4-8.2,2.5-10.6,1.2
				c-2.4-1.3-6.6-4.9-1-11.7c4.2-5.1,5.4-7.8,6.1-10.1c0.3-1,0.2-2.5,0.5-2.8c3.1-3.2,7.7-2.7,8.8,1.8c0.3,1.2,0.2,1.5,0.2,1.5
				S143.2,337.1,144.1,335.9z"/>
			<g>
				<path class="st33" d="M136.9,355.6c0.5-2.2,0.6-10,2.2-13.5c1.6-3.5,4.4-2.8,5.7-5.2c0.4,0.7,0.8,1.7,0.9,2.4
					c0,1.7-4.5,4.8-5.2,6.6c-0.9,2.4-1.7,8.2-3.1,10.4c-1.5,2.3-4.1,2.8-6.5,2.5C131,358.9,136.4,357.8,136.9,355.6z"/>
			</g>
			<g>
				<path class="st4" d="M190.6,188.3c-2.7-23.7-6.7-30.2-6.7-30.2h-18.8h-6.9h-18.8c0,0-4,6.5-6.7,30.2
					c-2.7,23.7,2.7,59.9,2.7,59.9s-2.3,8.3-3.4,23.5c8.3,3.7,15.1,3.3,18.2,2.8c0.2-2.5,0.3-4.6,0.5-6.9c0.5-5.9,3.5-17.5,4-22.6
					c0.4-3.8,3.6-31.8,5.9-45.6c0.1-0.5,2-0.3,2.1,0.1c2.4,13.7,5.4,41.7,5.8,45.5c0.5,5.1,3.5,16.7,4,22.6c0.2,2.2,0.3,4.3,0.5,6.9
					c3.1,0.5,9.9,1,18.2-2.8c-1.2-15.1-3.4-23.5-3.4-23.5S193.3,212,190.6,188.3z"/>
				<g>
					<linearGradient id="SVGID_16_" gradientUnits="userSpaceOnUse" x1="171.231" y1="266.8693" x2="186.5018" y2="266.8693">
						<stop  offset="0" style="stop-color:#361410"/>
						<stop  offset="1" style="stop-color:#401C18"/>
					</linearGradient>
					<path class="st38" d="M182.4,271.6c-0.1-0.8,1.4-1.6,2.9-3.3c1.6-1.7,1.1-6.1,1.1-6.1s-3.7,3.4-8.6,3.3
						c-4.9-0.1-6.6-6.5-6.6-6.6c0.6,3.2,1.2,6.3,1.4,8.6c0.2,2.2,0.3,4.3,0.5,6.9c2.5,0.4,7.2,0.8,13.1-0.9
						C184.7,273,182.5,272.1,182.4,271.6z"/>
				</g>
			</g>
			<linearGradient id="SVGID_17_" gradientUnits="userSpaceOnUse" x1="161.8306" y1="140.2357" x2="161.8306" y2="130.7507">
				<stop  offset="0" style="stop-color:#FFDCAE"/>
				<stop  offset="1" style="stop-color:#FCBF8F"/>
			</linearGradient>
			<path class="st39" d="M183.3,155.7c-0.7-2.2-1.6-3.9-1.8-5.2c-0.5-3.6,1.5-11.4,1.9-14.8c0.3-2.9-43-1.2-43-1.2s2.8,13.9,2,17.8
				c-0.8,3.9-3.5,5.3-2.9,7.3c0,0,2,4,22.6,4c20.6,0,22.3-4,22.3-4S183.8,157.2,183.3,155.7z"/>
			<g>
				<linearGradient id="SVGID_18_" gradientUnits="userSpaceOnUse" x1="141.5439" y1="164.4975" x2="141.5439" y2="147.0301">
					<stop  offset="0" style="stop-color:#FFDCAE"/>
					<stop  offset="1" style="stop-color:#FCBF8F"/>
				</linearGradient>
				<path class="st40" d="M141.5,140.8L141.5,140.8c0.7,4.2,1.3,9.2,0.8,11.4c-0.8,3.9-3.5,5.3-2.9,7.3c0,0,0.2,0.4,1.1,0.9
					c0.6-1.9,2.5-4.6,3.2-6.5C144.4,151.6,141.5,140.8,141.5,140.8z"/>
				<linearGradient id="SVGID_19_" gradientUnits="userSpaceOnUse" x1="182.3918" y1="164.4977" x2="182.3918" y2="147.0297">
					<stop  offset="0" style="stop-color:#FFDCAE"/>
					<stop  offset="1" style="stop-color:#FCBF8F"/>
				</linearGradient>
				<path class="st41" d="M184.3,159.5c0,0-0.5-2.3-1-3.8c-0.7-2.2-1.6-3.9-1.8-5.2c-0.4-2.5,0.5-7.2,1.2-10.9c0,0-2.9,9.3-2.1,12
					c0.8,2.7,2.9,8.3,1.9,9.3c0,0,0,0,0,0C184.1,160.1,184.3,159.5,184.3,159.5z"/>
			</g>
			<linearGradient id="SVGID_20_" gradientUnits="userSpaceOnUse" x1="161.0011" y1="89.7026" x2="161.0011" y2="105.1134">
				<stop  offset="0" style="stop-color:#FFDCAE"/>
				<stop  offset="1" style="stop-color:#FCBF8F"/>
			</linearGradient>
			<path class="st42" d="M151.9,69.5c0,0-0.5,8-0.8,9.1c-0.3,1.1-4,1.8-4,1.8s-4,39.5,13.2,39.5c17.2,0,14.8-40.6,14.8-40.6
				s-4.3-0.8-5-1.8c-1-1.4-1-8.6-1-8.6L151.9,69.5z"/>
			<g>
				<path class="st6" d="M169.2,70.1c-1.1-0.3-2.3-0.7-3.4-1.1l-13.9,0.5c0,0-0.5,8-0.8,9.1c-0.3,1.1-4,1.8-4,1.8s-0.6,5.1,0.4,14.6
					l22-20.2C169.3,73.1,169.2,71.3,169.2,70.1z"/>
			</g>
			<path class="st9" d="M148.7,80.3c0,0-0.3,0-1.5,0.1c-0.9,0.1-1.3,0.2-1.3,0.2s-1,12.8-2.7,17.7c-1.6,4.9-6.9,15.2-6.9,15.2
				s-3,5.8,1.9,12.1c0.3,3.8,2,7.5,2.4,11.2c10.8-4.4,31.3-2.7,42.9-0.5c0-7.3,1.6-10,3-14c2.2-6.4,0.8-8.8,0.8-8.8
				s-7.8-11.1-8.6-19.3c-0.8-8.2-1.5-14.5-1.5-14.5l-2.3-0.5c0,0,2.8,26.7-14.4,26.7C143.3,105.8,148.7,80.3,148.7,80.3z"/>
			<g>
				<g>
					<path class="st6" d="M147.6,88.4c0,0,9.9,2.5,9,2.6c-0.9,0.1-9-1.5-9-1.5V88.4z"/>
					<path class="st6" d="M175,88.4c0,0-9.3,2.5-8.4,2.6c0.9,0.1,8.4-1.5,8.4-1.5V88.4z"/>
				</g>
				<g>
					<path class="st8" d="M187.4,113.5c0,0-7.8-11.1-8.6-19.3c-0.8-8.2-1.5-14.5-1.5-14.5l-2.3-0.5c0,0,2.8,26.7-14.4,26.7
						c-17.2,0-11.5-25.9-11.5-25.9s-0.7,0.1-1.9,0.3c-0.9,0.2-1.2,0.3-1.2,0.3s-1,12.8-2.7,17.7c-1.6,4.9-6.9,15.2-6.9,15.2
						s-0.4,3.7,1.3,7.9c1.2,3.2,5.8,5.2,10.6,5.2c7.6,0,9.3-1.9,11.9-1.9c2.7,0,2.6,1.9,11.1,1.9
						C189.6,126.5,187.4,113.5,187.4,113.5z"/>
				</g>
			</g>
			<g>
				<g>
					<path class="st2" d="M140.3,117.2c-2.6,2.6-7.8,7.5-8.9,8.9c0,0,0.6-2.6,1.2-5.3c0.7-3.3,1.8-13.3,2.6-13.4
						c0.2,0,0.9,5.1,1.3,5.7c0,0,5.5-10.5,6.7-14.9c1.4-5,2.7-17.7,2.7-17.7s-3.4,1-7,1.9c-6.2,1.5-8.5,2.4-12.8,7.7
						c-4.3,5.3-5.5,17.7-6.2,19.1c-1.1,2.3-4.2,15.9-5.6,24.4c-1,6.6-0.5,12.9,0.1,16.7c0.6,3.8,4.9,3,6.6,2.2
						c1.7-0.8,7.7-4,11.1-8.9c2.9-4.2,15-21.5,19.2-27.7C148.7,111.2,141,119.5,140.3,117.2z"/>
				</g>
				<path class="st11" d="M160.6,113.3l-0.3-0.4c0,0-1-3.4,1.2-3.9c2.2-0.5,3,1.7,3,1.7l0.9,3.4l-0.4,2L160.6,113.3z"/>
				<path class="st11" d="M152.2,115c0,0,4.1-3.9,4.8-6.7c0.8-2.8,1.4-4.3,1.4-4.3l-3.4,0.5L152.2,115z"/>
				<g>
					<path class="st6" d="M131.9,116.1c-0.9,3.4-0.6,6.4-2.6,8.5c-0.9,0.9-8.8,7.2-10,7.8c-0.9,0.5-2.9,2.2-3.7,3
						c0.6-0.5,1.9-1.6,3.6-2.5c2.4-1.3,9.3-4.6,12.1-6.7c0,0,0.6-2.6,1.2-5.3c0.7-3.3,1.8-13.1,2.6-13.2
						C133.7,106.7,132.7,112.9,131.9,116.1z"/>
				</g>
				<g>
					
						<linearGradient id="SVGID_21_" gradientUnits="userSpaceOnUse" x1="510.9465" y1="870.179" x2="511.9919" y2="869.044" gradientTransform="matrix(0.9787 -0.2055 0.2055 0.9787 -523.9112 -644.776)">
						<stop  offset="0" style="stop-color:#FFDCAE"/>
						<stop  offset="1" style="stop-color:#FCBF8F"/>
					</linearGradient>
					<path class="st43" d="M154.5,96.4c-1.7,0.2-4.6,4.2-4.6,4.2l-2.6,8.4c0,0-5.5,6.2-8,9.2l4.6,7.2c2.7-3.2,6.7-9.3,8.1-10.2
						c1.4-0.9,1.4-8.5,1.7-9.6c0.3-1.1,5.5-2.2,5.5-2.2s2-1,1.8-2.1C160.8,100.1,156.2,96.2,154.5,96.4z"/>
				</g>
				<g>
					<path class="st11" d="M159.3,102c-1.2-0.8-3.1-1.3-4-0.8c-0.9,0.5-2.3,2.1-2.3,2.1s3.1-1.5,5.4-0.3c0.7,0.4,1.4,0.8,1.9,1.1
						c0.2-0.1,0.7-0.3,1.1-0.7C160.8,103,159.9,102.4,159.3,102z"/>
				</g>
				<path class="st2" d="M149,117c0,0,4.1-1.9,5.1-3.8c1.9-3.6,1.3-8.2,1.3-8.2l2.1-0.4l2.7,0.7l0.5,2.3c0,0-1.1,2.2-0.7,2.7
					c0.8,1,1.4,0.2,1.9-0.9c0.6-1.3,0.7-2.2,0.7-2.2l-1-3.4c0,0-2.4-1.4-3.5-2.1c-1.2-0.7-3.2-1.2-4-0.6c-0.9,0.6-2.1,2.2-2.1,2.2"
					/>
				<g>
					<path class="st2" d="M178.2,117.4c-1.3-1.5-3.2-2.6-4.2-3c-1.1-0.4-2-2.1-2-2.1s-2.6-7.4-3.5-10.5c-0.9-3-2.1-3-2.1-3
						s-6.4-3.9-8.3-4.9c-1.9-0.9-3.7,0-4.6,0.5c-1.5,0.8-2.3,1.4-3.2,1.9c-0.7,0.5-1.5,1.3-1.5,1.3s-1.9,1.5-1.9,2.1
						c0,0.3,0.6,0.7,1.2,0.9l0,0c0-0.1,0.1-0.1,0.2-0.2l-0.2,0.2c-0.1,0.2-0.2,0.3-0.2,0.4c0.1,0.6,1.7,1.4,2.6,0.8
						c0.7-0.4,1.2-0.9,1.5-1.1c0.1-0.1,0.1-0.1,0.2-0.2c0,0,0,0,0,0l0,0c0.1-0.1,0.3-0.2,0.4-0.3l-0.4,0.3c0,0,0,0,0,0
						c0,0-0.1,0.1-0.2,0.2c-0.3,0.3-0.4,0.6-0.4,0.6s-1.5,1.3-1.5,1.7c0,0.4,1.2,1.2,1.9,0.9c0.7-0.3,1.8-1.7,1.8-1.7l3.5-0.1
						l4.7,4.2c0,0,0,2.8,0.7,5c0.6,1.8,1.8,3.9,1.8,3.9s-1.1-1.4-2-1.8c-1.2-0.6-2-0.1-1.9,0c0.5,0.7,1.9,2.4,3.2,3.1
						c1.6,0.8,3.4,1.5,3.4,1.5s7.8,7.9,12.3,12.9l6.7-6.7C182.7,121.3,179,118.3,178.2,117.4z"/>
				</g>
				<g>
					<linearGradient id="SVGID_22_" gradientUnits="userSpaceOnUse" x1="163.2841" y1="96.031" x2="157.1135" y2="97.5836">
						<stop  offset="0" style="stop-color:#FFDCAE"/>
						<stop  offset="1" style="stop-color:#FCBF8F"/>
					</linearGradient>
					<path class="st44" d="M148.3,100.4C148.3,100.4,148.3,100.4,148.3,100.4c0.5-0.6,1.6-1.4,1.6-1.4s0.8-0.8,1.5-1.3
						c0.9-0.6,1.7-1.1,3.2-1.9c0.9-0.5,2.1-1.1,4.1-0.2c1.9,0.9,5.8,3.3,5.8,3.3s-6.2-4.3-7.8-4.3c-1.6,0-5.6,2.6-5.6,2.6l-1.6,1.2
						l-1.9,1.7c0,0-0.1,0.1-0.2,0.2c0.2,0.1,0.4,0.2,0.6,0.3C148.2,100.6,148.2,100.5,148.3,100.4
						C148.3,100.4,148.3,100.4,148.3,100.4z"/>
				</g>
				<g>
					<path class="st28" d="M153.2,102.5l-2.6-0.1c-0.1,0.1-0.2,0.3-0.3,0.4c0.4,0.3,1,0.8,1.5,0.7
						C152,103.4,152.6,102.9,153.2,102.5z"/>
					<g>
						<linearGradient id="SVGID_23_" gradientUnits="userSpaceOnUse" x1="161.3654" y1="100.6663" x2="154.8507" y2="101.7848">
							<stop  offset="0" style="stop-color:#FFDCAE"/>
							<stop  offset="1" style="stop-color:#FCBF8F"/>
						</linearGradient>
						<path class="st45" d="M150.6,101.9c0.7-0.4,1.2-0.9,1.5-1.1c0.1-0.1,0.1-0.1,0.2-0.2c0,0,0,0,0,0l0,0c0.1-0.1,0.1-0.1,0.2-0.2
							c0,0,0,0,0,0c0.1-0.1,0.1-0.1,0.2-0.1c0.7-0.4,1.8-0.5,2.9-0.7c0.8-0.1,1.7-0.7,3.1,0.2c1.4,0.8,4.1,3,4.1,3s-3.4-2.7-4.1-3.1
							c-0.7-0.4-1.1-0.6-1.9-0.5c-0.8,0.1-1.1,0.3-1.3,0.3c-0.2,0-0.2,0-0.2,0s-2.3,0.5-2.5,0.6c-0.2,0.1-1.5,1.1-2.3,1.3
							c-0.5,0.1-1.3,0.3-2,0.2C149,102,150,102.2,150.6,101.9z"/>
					</g>
					<linearGradient id="SVGID_24_" gradientUnits="userSpaceOnUse" x1="166.4637" y1="108.5276" x2="150.957" y2="108.2377">
						<stop  offset="0" style="stop-color:#FFDCAE"/>
						<stop  offset="1" style="stop-color:#FCBF8F"/>
					</linearGradient>
					<path class="st46" d="M162.9,110.4c-0.1-1.1-0.2-4.3-0.2-4.3s-3.1-2.9-3.8-3.4c-0.1,0-0.1-0.1-0.2-0.1
						c-0.7-0.5-1.4-0.9-1.4-0.9H154c0,0-0.4,0.4-0.8,0.8c-0.5,0.5-1.1,1.2-1.4,1.2c-0.5,0.1-1.6-0.4-1.5-0.9
						c-0.1,0.1-0.1,0.2-0.1,0.3c0,0.4,1.2,1.2,1.9,0.9c0.5-0.2,1.2-1,1.6-1.4c0.1-0.2,0.2-0.3,0.2-0.3l3.5-0.1l0.6,0.5l4.1,3.6
						c0,0,0,2.8,0.7,5c0.6,1.8,1.8,3.9,1.8,3.9S163,111.5,162.9,110.4z"/>
				</g>
			</g>
			<g>
				<g>
					<path class="st14" d="M154.3,32.4c0,0-0.3-6.9,6.4-6.9c6.6,0,6.8,7.7,6.8,7.7L154.3,32.4z"/>
					<ellipse class="st15" cx="160.7" cy="33.5" rx="5.5" ry="4.7"/>
				</g>
				<g>
					<g>
						<g>
							<g>
								<g>
									<path class="st2" d="M145.1,52.9c0,0-2.5,0.9-1.2,4.4c1.3,3.5,1.4,5.2,2.3,5.9c0.8,0.6,1.5,0.2,1.5,0.2l-1.5-10.8
										L145.1,52.9z"/>
								</g>
								<path class="st6" d="M145.7,56.2c0,0,0.1,1.9,0,2.2c-0.1,0.4,0.1,1.6,0.1,1.6s0.3-0.6,0.3-0.9
									C146,58.8,145.7,56.2,145.7,56.2z"/>
								<path class="st11" d="M147,62c-0.1-0.1-1.6-1.7-1.3-2.2c0-0.1,0.1-0.1,0.1-0.2c0.2-0.3,0.2-0.4,0.1-1.1c0-0.2-0.1-0.6-0.1-1
									c-0.1-1-0.4-3.3-0.7-3.4c-0.1,0-0.2,0-0.4,0.1c-0.3,0.3-0.6,0.9-0.5,1.6c0.1,1,0.6,2.2,0.6,2.2c0,0-0.7-1.1-0.8-2.2
									c-0.1-0.8,0.3-1.5,0.6-1.7c0.2-0.1,0.4-0.2,0.5-0.1c0.3,0.1,0.5,1.3,0.8,3.6c0.1,0.4,0.1,0.8,0.1,1c0.1,0.7,0.1,0.8-0.1,1.2
									c0,0-0.1,0.1-0.1,0.2c-0.1,0.3,0.6,1,1,1.4L147,62z"/>
							</g>
							<g>
								<g>
									<path class="st2" d="M176.1,52.9c0,0,2.5,0.9,1.2,4.4c-1.3,3.5-1.4,5.2-2.3,5.9c-0.8,0.6-1.5,0.2-1.5,0.2l1.5-10.8
										L176.1,52.9z"/>
								</g>
								<path class="st6" d="M175.5,56.2c0,0-0.1,1.9,0,2.2c0.1,0.4-0.1,1.6-0.1,1.6s-0.3-0.6-0.3-0.9
									C175.2,58.8,175.5,56.2,175.5,56.2z"/>
								<path class="st11" d="M174,62.2c0.1-0.1,1.7-1.9,1.5-2.4c0-0.1-0.1-0.1-0.1-0.2c-0.2-0.3-0.2-0.4-0.1-1.1
									c0-0.2,0.1-0.6,0.1-1c0.1-1,0.4-3.3,0.7-3.4c0.1,0,0.2,0,0.4,0.1c0.3,0.3,0.6,0.9,0.5,1.6c-0.1,1-0.6,2.2-0.6,2.2
									c0,0,0.7-1.1,0.8-2.2c0.1-0.8-0.3-1.5-0.6-1.7c-0.2-0.1-0.4-0.2-0.5-0.1c-0.3,0.1-0.5,1.3-0.8,3.6c-0.1,0.4-0.1,0.8-0.1,1
									c-0.1,0.7-0.1,0.8,0.1,1.2c0,0,0.1,0.1,0.1,0.2c0.1,0.3-0.9,1.4-1.3,1.7L174,62.2z"/>
							</g>
							<g>
								<g>
									<path class="st11" d="M160.5,37c0,0-13.3-0.6-14.3,11.3v10.5c0,0,1.9,8.6,3.7,10.7c1.8,2.1,7.2,6.7,8.6,7.4
										c2.1,1.1,3.4,0.6,5.1-0.3c1.4-0.7,6.3-5.9,7.7-7.9c1.9-2.7,3.5-9.9,3.5-9.9V48.3C173.8,36.3,160.5,37,160.5,37z"/>
								</g>
								<path class="st2" d="M160,41.1c0,0-4.1-1.4-7.4-0.1c-2.8,1.2-5.1,4.8-5.5,9.8l-0.1,8.6c0,0,1.1,7.5,3.5,10.4
									c1.2,1.5,6.3,6,7.6,6.6c1.9,1,4,0.8,5.6-0.1c1.3-0.6,6.3-5.9,7.4-7.8c2.5-4.1,3.2-10,3.2-10l0.2-7.9
									c-0.5-6.6-5.5-9.9-9.4-10.5C162.6,39.7,160,41.1,160,41.1z"/>
								<path class="st16" d="M175.6,37.8c-2.9-5.6-9.1-8-15.6-8c-6.5,0-11.3,3-13.7,7.8c-4.2,8.3,0,18.1,0,18.1s0.4-5.5,0.5-6.5
									c0.9-3.5,1.9-7.5,7.5-9.1c1.6-0.5,5.7,0.5,5.7,0.5s3.6-0.9,5-0.7c5.9,0.9,9.4,5.4,9.4,8.2c0,1,0.4,7.7,0.4,7.7
									S179.6,45.6,175.6,37.8z"/>
							</g>
							<path class="st17" d="M159.2,68.5c0,0,0.8,0.4,1.3,0.4s1.3-0.4,1.3-0.4s1.9,0.5,3.1,0.1c0.2-0.1,0.3-0.2,0.3-0.2
								s-2-0.8-2.6-0.9c-0.6-0.1-1.3-0.1-1.5,0c-0.2,0.1-0.6,0.3-0.6,0.3s-0.4-0.3-0.5-0.3c-0.2-0.1-1.2-0.1-1.8,0
								c-0.5,0.1-2.1,1.1-2.4,1.1c0.2,0.1,0.5-0.1,0.9,0.1C157.8,69.1,159.2,68.5,159.2,68.5z"/>
							<path class="st6" d="M162.4,54.1c0,0-0.8,0.9-0.8,2c0,0.7,0.3,2.9,0.3,2.9S161.9,55.6,162.4,54.1z"/>
							<path class="st18" d="M155.9,68.7c0,0,0.8,1.9,4.5,1.9c3.7,0,4.6-2.1,4.6-2.1s-1.6,0-1.9,0c-0.4,0-1.4,0-1.4,0
								s-0.9,0.6-1.3,0.5c-0.4-0.1-1.3-0.4-1.3-0.4S157.5,68.8,155.9,68.7z"/>
							<path class="st19" d="M160.4,69c-0.4,0-1.1-0.3-1.3-0.4c-0.2,0-1.2,0.4-2.4,0.2c-1.2-0.2-1.7-0.1-1.7-0.1c0,0,0.6-0.2,1.7,0
								c1.2,0.2,2.4-0.2,2.4-0.2l0,0l0,0c0,0,0.8,0.4,1.2,0.4c0.4,0,1.2-0.4,1.2-0.4l0,0l0,0c0,0,1.4,0,2.6-0.1
								c1.2-0.1,1.5,0.1,1.5,0.1s-0.7,0.1-1.2,0.1c-1.2,0-2.6,0.1-2.8,0.1C161.5,68.7,160.8,69,160.4,69L160.4,69z"/>
							<path class="st20" d="M157.1,69.3c0.6,0.5,1.4,0.9,2.4,1c0.2,0,1.1,0,1.2,0c1.1,0,1.9-0.4,2.5-0.8c0,0-1.7,0.6-3.1,0.6
								C157.9,70,157.1,69.3,157.1,69.3z"/>
							<path class="st21" d="M157.1,70.7c0.6,0.5,1.4,0.9,2.4,1c0.2,0,1.1,0,1.2,0c1.1,0,1.9-0.4,2.5-0.8c0,0-1.7,0.6-3.1,0.6
								C157.9,71.4,157.1,70.7,157.1,70.7z"/>
							<path class="st11" d="M158.9,63.8c-0.4-0.2-0.6,0-0.6,0s1.3,2.1,2.2,2.1c0.8,0,2.3-2.1,2.3-2.1s-0.2-0.3-0.6-0.1
								c-0.5,0.3-1.3,1-1.7,1C160.1,64.7,159.4,64,158.9,63.8z"/>
							<path class="st22" d="M161.8,64c0,0-0.1-0.5,0.3-0.8c0.3-0.3,1-0.4,1.2-0.1c0.2,0.3-0.1,0.6-0.4,0.7
								C162.5,63.9,162,63.7,161.8,64z"/>
							<path class="st22" d="M159.3,64c0,0,0.1-0.5-0.3-0.8c-0.3-0.3-1-0.4-1.2-0.1c-0.2,0.3,0.1,0.6,0.4,0.7
								C158.5,63.9,159,63.7,159.3,64z"/>
							<path class="st22" d="M159.3,64c0,0,0.7,0.7,1.2,0.7c0.6,0,1.2-0.7,1.2-0.7s0.4-0.7,0.7-0.8c0.3-0.1-0.5,0-0.6,0.2
								c-0.1,0.2-0.5,1.1-1.3,1.1c-0.8,0-1.3-1.1-1.4-1.2c-0.1-0.1-0.4-0.1-0.4-0.1L159.3,64z"/>
						</g>
						<path class="st23" d="M156.6,68.5c0,0,1.2-0.7,2-0.7c0.8,0,1.1,0,1.3,0.1c0.1,0.1,0.4,0.3,0.6,0.3c0.2,0,0.7-0.4,1-0.4
							c0.3,0,1,0.2,1,0.2s1.8,0.3,1.5,0.3c-0.2,0-2.4,0.1-2.6,0.1c-0.2,0-0.6,0.4-1,0.4c-0.4,0-0.7-0.4-1-0.4
							c-0.3,0-1.6,0.2-1.8,0.2C157.4,68.5,156.6,68.5,156.6,68.5z"/>
					</g>
					<g>
						<path class="st6" d="M149.4,56.1c0,0,0.1-0.7,0.4-1.4c0.2-0.7,0.6-1.1,0.6-1.1s-0.5,1.5-0.2,2.2c0.3,0.6,1.2,1.3,1.2,1.3
							S149.6,56.8,149.4,56.1z"/>
						<path class="st6" d="M156.8,56.9c0,0-0.1-0.7-0.4-1.4c-0.2-0.7-0.6-1.1-0.6-1.1s0.5,1.5,0.2,2.2c-0.3,0.6-1.2,1.3-1.2,1.3
							S156.5,57.6,156.8,56.9z"/>
						<path class="st16" d="M152.4,58c3.8,0.4,4.4-1.1,4.4-1.1s-1.6,0.8-4.4,0.4c-1.7-0.3-3.1-1.2-3.1-1.2S150,57.7,152.4,58z"/>
					</g>
					<g>
						<path class="st6" d="M171.6,56.1c0,0-0.1-0.7-0.4-1.4c-0.2-0.7-0.6-1.1-0.6-1.1s0.5,1.5,0.2,2.1c-0.3,0.6-1.2,1.3-1.2,1.3
							S171.4,56.8,171.6,56.1z"/>
						<path class="st6" d="M164.3,56.9c0,0,0.1-0.7,0.4-1.4c0.2-0.7,0.6-1.1,0.6-1.1s-0.5,1.5-0.2,2.1c0.3,0.6,1.2,1.3,1.2,1.3
							S164.5,57.6,164.3,56.9z"/>
						<path class="st16" d="M168.7,58c-3.8,0.4-4.4-1.1-4.4-1.1s1.6,0.8,4.3,0.4c1.7-0.2,3.1-1.2,3.1-1.2S171.1,57.7,168.7,58z"/>
					</g>
				</g>
				<g>
					<path class="st16" d="M157.7,51.1c0,0-0.9,0.2-2,0c-1.1-0.2-4-0.7-4.7-0.6c-0.7,0.1-2.3,0.9-2.3,0.9s0.8-0.9,1.9-1.1
						c1.1-0.2,4.9-0.5,6.2-0.3C158.2,50.1,157.9,50.8,157.7,51.1z"/>
				</g>
				<g>
					<path class="st16" d="M163.7,51.1c0,0,0.9,0.2,2,0c1.1-0.2,4-0.7,4.7-0.6c0.7,0.1,2.3,0.9,2.3,0.9s-0.8-0.9-1.9-1.1
						c-1.1-0.2-4.9-0.5-6.2-0.3C163.3,50.1,163.5,50.8,163.7,51.1z"/>
				</g>
				<path class="st24" d="M148.7,36.6c0.3-0.2,4,1.4,4,1.4l-0.8-2.1l2.6,2l-1.2-4.4c0,0,3.3,4.7,3.7,4.3c0.4-0.4-0.9-4.3-0.9-4.3
					s2.5,4.4,3.2,4.1c0.7-0.2,1.2-5.7,1.2-5.7s0.8,5.8,1.6,5.3c0.8-0.5,1.9-4.6,1.9-4.6s-0.8,4.8,0.5,4.4c1.3-0.4,3.1-3.1,3.1-3.1
					s-1.5,3.3-0.8,3.3c0.6,0,4.4-2.3,4.4-2.3s-3.1,3.5-2.7,3.5c0.5,0,4.6-0.9,4.6-0.9l-4.6,2.3c0,0,0.8-0.8,0.1-0.9
					c-0.8-0.1-2.7,0.1-2.7,0.1s1.3-0.8,0.8-0.9c-0.4-0.1-2.1,0.8-2.7,0.7c-0.6-0.1-1-1.3-1-1.3s-0.6,1.7-1.4,1.4
					c-0.8-0.4-1.1-1.2-1.1-1.2s-0.2,1.3-1,1.2c-0.8-0.2-1.6-1.2-1.6-1.2s-0.2,1.2-0.8,1.1c-0.6-0.1-1.5-1-1.5-1s0,1.3-0.5,1.2
					c-0.4-0.1-1.9-0.7-1.9-0.7s0.2,1.1,0.1,1.1C153.2,39.3,148.4,36.8,148.7,36.6z"/>
				<path class="st24" d="M175.4,45.1c0-0.3,0.1-0.6,0.2-0.8c-0.1,0-0.2-0.1-0.3-0.1c0.1-0.5,0.5-1,0.8-1.4c-0.4,0.1-0.9,0.1-1.2,0
					c0-0.5,0.4-0.8,0.6-1.3c-0.6,0-1.8,0.4-1.7-0.3c0-0.5,0.7-1,1-1.4c-1,0.2-2.8,1.5-2.8,1.5s0.8,0,1.2,0c0.1,0.4-0.1,0.7-0.3,1
					c0.4,0,0.9,0,1.3,0c0,0.3-0.2,0.6-0.3,1c1.6-0.1,0.2,0.4,0.3,1c0,0,0.8,0.1,0.8,0.1c0,0.2-0.6,0.3-0.6,0.5
					c0.2,0,0.5-0.1,0.7-0.1c-0.1,0.2-0.3,0.6-0.3,0.8c0.5,0,0.5,0.4,0.4,0.7c0.4-0.2,0.5-0.8,0.8-1.2
					C175.8,45.2,175.6,45.1,175.4,45.1z"/>
				<path class="st24" d="M146.2,45.1c0-0.3-0.1-0.6-0.2-0.8c0.1,0,0.2-0.1,0.3-0.1c-0.1-0.5-0.5-1-0.8-1.4c0.4,0.1,0.9,0.1,1.2,0
					c0-0.5-0.4-0.8-0.6-1.3c0.6,0,1.8,0.4,1.7-0.3c0-0.5-0.7-1-1-1.4c1,0.2,2.8,1.5,2.8,1.5s-0.8,0-1.2,0c-0.1,0.4,0.1,0.7,0.3,1
					c-0.4,0-0.9,0-1.3,0c0,0.3,0.2,0.6,0.3,1c-1.6-0.1-0.2,0.4-0.3,1c0,0-0.8,0.1-0.8,0.1c0,0.2,0.6,0.3,0.6,0.5
					c-0.2,0-0.5-0.1-0.7-0.1c0.1,0.2,0.3,0.6,0.3,0.8c-0.5,0-0.5,0.4-0.4,0.7c-0.4-0.2-0.5-0.8-0.8-1.2
					C145.9,45.2,146,45.1,146.2,45.1z"/>
				<path class="st24" d="M165.7,29.1c-0.2,0-0.3,0-0.5,0c-0.2,0-0.5,0.1-0.8,0c0.2-0.4,0.7-0.4,1-0.7c-0.2,0-0.4,0.1-0.5,0.2
					c-0.4,0.2-0.9,0.3-1.3,0.4c0-0.2,0.2-0.6,0.3-0.8c0.1-0.3,0.3-0.5,0.5-0.7c-0.4,0.5-1.2,0.7-1.7,1c-0.1-0.1,0-0.5,0-0.7
					c0.1-0.4,0.2-0.8,0.4-1.1c-0.4,0.5-0.8,1.2-1.5,1.4c0-0.6-0.3-1.2-0.2-1.8c-0.2,0.6-0.5,1.1-0.9,1.6c-0.1-0.2-0.1-0.5-0.2-0.7
					c-0.1-0.3-0.1-0.7-0.1-1c-0.2,0.7-0.5,1.3-0.9,1.8c-0.3-0.5-0.5-1.1-0.6-1.7c-0.1,0.6,0.1,1.6-0.4,2c-0.2-0.1-0.3-0.3-0.5-0.5
					c-0.2-0.2-0.4-0.5-0.5-0.8c0,0.6,0.1,1.4-0.1,1.9c-0.5-0.1-0.8-0.6-1.2-0.9c0,0.5,0.2,1,0.1,1.5c-0.2-0.2-0.5-0.4-0.7-0.6
					c0.1,0.4,0.4,0.8,0.4,0.8s-0.5,0.1-0.8,0.1c0.2,0.3,0.5,0.5,0.7,0.8c0-0.1-0.2-0.5-0.1-0.6c0.1-0.1,0.5,0.1,0.6,0.2
					c0-0.2,0-0.4,0-0.5c0.1,0,0.3,0.1,0.4,0.1c0-0.2-0.2-0.5-0.1-0.7c0.2,0.1,1,0.2,1.1,0.1c0.2-0.1,0-0.7,0.1-0.8
					c0.3,0.1,0.7,0.2,0.9,0.4c0.2-0.2,0.3-0.6,0.3-0.8c0.1,0.2,0.3,0.5,0.4,0.8c0.2-0.3,0.3-0.7,0.6-0.9c0.1,0.2,0.2,0.6,0.3,0.8
					c0.3-0.3,0.5-0.6,0.8-0.9c0.1,0.3,0.4,0.6,0.5,1c0.2-0.1,0.4-0.3,0.7-0.5c0,0.2,0,0.4,0,0.7c0.2-0.1,0.4-0.2,0.6-0.1
					c0,0.1-0.1,0.3,0,0.4c0.2-0.1,0.7,0,0.9,0c0,0.1,0,0.1,0,0.2c0.2,0,0.4,0,0.6,0.1c0,0.1,0,0.2-0.1,0.2
					C164.9,29.5,165.4,29.3,165.7,29.1z"/>
			</g>
			<g>
				<path class="st2" d="M208.7,131.6c-2.8-10.8-5.8-22.4-5.8-22.4s-3.2-17.5-7.7-22c-4.5-4.6-18-7.5-18-7.5s0.7,6.3,1.5,14.5
					c0.6,5.5,5.2,14.7,8.6,19.3c0.1-0.1,0.3-4.9,0.3-4.9s2.9,13.6,3.4,15.4c0.5,1.8,1.1,4.2,1.1,4.2c-1.5-0.8-4.5-3.1-7.4-5.3
					c-1.3,2.3-3.3,4.7-6.4,6.6c1.6,1.8,3,3.3,3.7,4.2c2.7,3.5,10.1,13.1,14,14.8c3.9,1.7,9.3,3.5,9.3,3.5s3.9,0.1,4.5-1.7
					C210.4,148.5,211.4,142.5,208.7,131.6z"/>
			</g>
			<g>
				<path class="st6" d="M206.3,136.7c0,0-1-2.9-5.4-5.1c-4.4-2.2-6.2-4.6-7-5.7c-1.2-1.7-2.5-5.6-3.6-10.8c-0.8-4-1.8-7.3-2.3-9.3
					c-0.6-2.5-0.5,7.5-0.6,7.6c0,0,0.3-4.9,0.3-4.9s2.9,13.6,3.4,15.4c0.5,1.8,1.1,4.2,1.1,4.2c3.1,1.7,9.5,4.8,11.2,6
					C205,135.3,206.3,136.7,206.3,136.7z"/>
			</g>
			<path class="st47" d="M161.9,160.5c0,0-0.2-2.8,0-4.4c0.2-1.6,0.9,3.5,0.9,3.5S162.7,160.9,161.9,160.5z"/>
			<g>
				<linearGradient id="SVGID_25_" gradientUnits="userSpaceOnUse" x1="160.8276" y1="148.025" x2="160.8276" y2="139.7054">
					<stop  offset="0" style="stop-color:#FFDCAE"/>
					<stop  offset="1" style="stop-color:#FCBF8F"/>
				</linearGradient>
				<path class="st48" d="M161.9,147.5c0.7,0.4,0.9-10.8,0.9-10.8s0.2-2.3,4.9-2.5c-0.2,0-6.9-0.8-13.7-0.1c0,0.6,7.7,0.3,7.9,1.3
					C162.4,139.8,161.9,147.5,161.9,147.5z"/>
			</g>
			<g>
				<linearGradient id="SVGID_26_" gradientUnits="userSpaceOnUse" x1="139.3349" y1="160.9868" x2="184.3311" y2="160.9868">
					<stop  offset="0" style="stop-color:#FFDCAE"/>
					<stop  offset="1" style="stop-color:#FCBF8F"/>
				</linearGradient>
				<path class="st49" d="M162.3,163.1c-20.6,0-22.9-4.3-22.9-4.3c0-0.1,0-0.2,0-0.2c0,0.3,0,0.6,0,0.8c0,0,2,4,22.6,4
					c20.6,0,22.3-4,22.3-4s0-0.2-0.1-0.5C183.6,159.7,180.4,163.1,162.3,163.1z"/>
			</g>
			<g>
				
					<linearGradient id="SVGID_27_" gradientUnits="userSpaceOnUse" x1="-5813.7227" y1="266.8693" x2="-5798.4517" y2="266.8693" gradientTransform="matrix(-1 0 0 1 -5661.5146 0)">
					<stop  offset="0" style="stop-color:#361410"/>
					<stop  offset="1" style="stop-color:#401C18"/>
				</linearGradient>
				<path class="st50" d="M141,271.6c0.1-0.8-1.4-1.6-2.9-3.3c-1.6-1.7-1.1-6.1-1.1-6.1s3.7,3.4,8.6,3.3c4.9-0.1,6.6-6.5,6.6-6.6
					c-0.6,3.2-1.2,6.3-1.4,8.6c-0.2,2.2-0.3,4.3-0.5,6.9c-2.5,0.4-7.2,0.8-13.1-0.9C138.8,273,141,272.1,141,271.6z"/>
			</g>
			<g>
				<linearGradient id="SVGID_28_" gradientUnits="userSpaceOnUse" x1="163.8632" y1="190.4067" x2="169.7136" y2="217.1664">
					<stop  offset="0" style="stop-color:#361410"/>
					<stop  offset="1" style="stop-color:#401C18"/>
				</linearGradient>
				<path class="st51" d="M171.2,236.5c-0.1-4.2-4-30.8-4.2-35c-0.2-4.2,8.4-7.6,4.2-6.3c-4.2,1.3-8.3,4.2-8.3,4.2
					c2.4,13.7,5.4,41.7,5.8,45.5c0.2,1.5,0.5,3.4,0.9,5.7C170.1,245.8,171.3,239.4,171.2,236.5z"/>
			</g>
			<g>
				
					<linearGradient id="SVGID_29_" gradientUnits="userSpaceOnUse" x1="-6057.6929" y1="195.9179" x2="-6060.9429" y2="222.4603" gradientTransform="matrix(-1 0 0 1 -5903.9678 0)">
					<stop  offset="0" style="stop-color:#361410"/>
					<stop  offset="1" style="stop-color:#401C18"/>
				</linearGradient>
				<path class="st52" d="M152.3,236.5c0.1-4.2,4-30.8,4.2-35c0.2-4.2-8.4-7.6-4.2-6.3c4.2,1.3,8.3,4.2,8.3,4.2
					c-2.4,13.7-5.4,41.7-5.8,45.5c-0.2,1.5-0.5,3.4-0.9,5.7C153.5,245.8,152.3,239.4,152.3,236.5z"/>
			</g>
			<g>
				<path class="st12" d="M178.1,339.6c0,0-0.9,2.7,0,3.8c0.9,1,2.9,3.6,4,5.9c1.1,2.3,2.4,7.5,2.9,7.9c0.5,0.4-0.2-9-1.9-12
					C181.4,342.3,178.1,339.6,178.1,339.6z"/>
				<g>
					<path class="st2" d="M191.3,271.6c-8.3,3.7-15.1,3.3-18.2,2.8c0.3,4.2,0.7,9.7,1.8,18.9c1.4,11.9,4.2,30.1,4.9,37.7
						c0.2,1.8-0.5,5.6-0.5,5.6s2.7,0.3,5.4,0c2.7-0.3,5.7-2.6,5.7-2.6s-0.7-3.6-0.4-8.1c0.8-13.6,2.2-41.9,1.4-53.5
						C191.4,272.1,191.4,271.9,191.3,271.6z"/>
				</g>
				<g>
					
						<linearGradient id="SVGID_30_" gradientUnits="userSpaceOnUse" x1="-6028.0864" y1="299.5238" x2="-6028.0864" y2="273.1461" gradientTransform="matrix(-1 0 0 1 -5852.6982 0)">
						<stop  offset="0" style="stop-color:#FFDCAE"/>
						<stop  offset="1" style="stop-color:#FCBF8F"/>
					</linearGradient>
					<path class="st53" d="M176.3,292.8c0.1,5.5,0.8,11.1,0.7,16c-0.7-5.4-1.5-10.8-2-15.4c-1.1-9.2-1.5-14.7-1.8-18.9
						c1.1,0.2,2.6,0.4,4.5,0.4C174.9,278.2,176.1,284.1,176.3,292.8z"/>
					
						<linearGradient id="SVGID_31_" gradientUnits="userSpaceOnUse" x1="-6041.1436" y1="332.0406" x2="-6032.0527" y2="332.0406" gradientTransform="matrix(-1 0 0 1 -5852.6982 0)">
						<stop  offset="0" style="stop-color:#FFDCAE"/>
						<stop  offset="1" style="stop-color:#FCBF8F"/>
					</linearGradient>
					<path class="st54" d="M179.4,336.6c0,0,0.7-3.7,0.5-5.6c-0.1-1-0.2-2.3-0.4-3.7c1,3.2,2,6.3,1.9,6.7c-0.1,0.8,2.6-3.5,5.1-3
						c1.1,0.2,1.7,2.1,1.9,4.3c-1.1,0.6-2.4,1.2-3.7,1.3C182,336.9,179.4,336.6,179.4,336.6z"/>
				</g>
				<path class="st12" d="M199.9,349.4c3.3,5.9,0.6,10.2-3.6,10.8c-4.2,0.7-8.7,1.1-10.3-0.2c-3.2-2.4-1.5-8.6-1.5-8.6
					s1.9,5.1,8.1,4.3C198.6,355,199.9,349.4,199.9,349.4z"/>
				<path class="st13" d="M179.3,335.9c0,0-1.5,2-1.5,3.5c0,1.7,4.5,4.8,5.2,6.6c0.9,2.4,1.7,8.2,3.1,10.4c2.5,4,8.2,2.5,10.6,1.2
					c2.4-1.3,6.6-4.9,1-11.7c-4.2-5.1-5.4-7.8-6.1-10.1c-0.3-1-0.2-2.5-0.5-2.8c-3.1-3.2-7.7-2.7-8.8,1.8c-0.3,1.2-0.2,1.5-0.2,1.5
					S180.2,337.1,179.3,335.9z"/>
				<g>
					<path class="st33" d="M186.6,355.6c-0.5-2.2-0.6-10-2.2-13.5c-1.6-3.5-4.4-2.8-5.7-5.2c-0.4,0.7-0.8,1.7-0.9,2.4
						c0,1.7,4.5,4.8,5.2,6.6c0.9,2.4,1.7,8.2,3.1,10.4c1.5,2.3,4.1,2.8,6.5,2.5C192.4,358.9,187,357.8,186.6,355.6z"/>
				</g>
			</g>
		</g>
		<path class="st6" d="M136.5,113.1c0,0-1-3.2-1.3-6.3c-0.4-3.1,1.5-13.5,1.5-13.5s-2.5,7.1-2.6,9.9c-0.1,2.9-0.6,6.3-1,7.7
			c-0.4,1.5-1,4.2-1,4.2l1.4-0.4c0,0,0.7-6.3,1.3-6.5C134.9,109.4,134.9,109.4,136.5,113.1z"/>
		<path class="st6" d="M187.4,113.5c0,0-0.5-3.6-0.1-6.7c0.4-3.1-1.5-13.5-1.5-13.5s2.5,7.1,2.6,9.9c0.1,2.9,0.6,6.3,1,7.7
			c0.4,1.5,1,4.2,1,4.2h-1.2c0,0-0.9-6.7-1.5-6.9C187.5,109.4,188,109.9,187.4,113.5z"/>
	</g>
</g>
</svg>
