<?xml version="1.0" encoding="utf-8"?>
<!-- Generator: Adobe Illustrator 21.1.0, SVG Export Plug-In . SVG Version: 6.00 Build 0)  -->
<svg version="1.1" id="Layer_1" xmlns="http://www.w3.org/2000/svg" xmlns:xlink="http://www.w3.org/1999/xlink" x="0px" y="0px"
	 viewBox="0 0 505.4 339.1" style="enable-background:new 0 0 505.4 339.1;" xml:space="preserve">
<style type="text/css">
	.st0{fill:#FFFFFF;}
	.st1{fill:#8AC3EA;}
	.st2{fill:#76B4E3;}
	.st3{opacity:0.5;fill:#DCDDDE;}
	.st4{fill:#55392D;}
	.st5{fill:#4B2B22;}
	.st6{fill:#FFDCAE;}
	.st7{fill:url(#SVGID_1_);}
	.st8{fill:#4E9DD6;}
	.st9{fill:#6AB2E2;}
	.st10{fill:#FCC79E;}
	.st11{fill:#A97C50;}
	.st12{fill:#FCC59D;}
	.st13{fill:#FCBF91;}
	.st14{fill:#F69B95;}
	.st15{fill:#E8978E;}
	.st16{fill:#F1A97A;}
	.st17{fill:#FCBF93;}
	.st18{fill:#ECB48A;}
	.st19{fill:url(#SVGID_2_);}
	.st20{fill:#FDCBA0;}
	.st21{fill:#F7941D;}
	.st22{fill:#E2831B;}
	.st23{fill:url(#SVGID_3_);}
	.st24{fill:#CD5D5A;}
	.st25{fill:#C0BEB7;}
	.st26{fill:url(#SVGID_4_);}
	.st27{fill:#4B2723;}
	.st28{fill:#D8625E;}
	.st29{fill:#E5E1D8;}
	.st30{fill:#D5D2CA;}
	.st31{fill:url(#SVGID_5_);}
	.st32{fill:url(#SVGID_6_);}
	.st33{fill:url(#SVGID_7_);}
	.st34{fill:url(#SVGID_8_);}
	.st35{fill:url(#SVGID_9_);}
	.st36{fill:url(#SVGID_10_);}
	.st37{fill:url(#SVGID_11_);}
	.st38{fill:url(#SVGID_12_);}
	.st39{fill:url(#SVGID_13_);}
	.st40{fill:#D97263;}
	.st41{fill:#FCC99F;}
	.st42{fill:url(#SVGID_14_);}
</style>
<rect x="0" y="0" class="st0" width="505.4" height="339.1"/>
<g>
	<polygon class="st1" points="394.7,310.4 110.7,310.4 124.9,290.9 379.6,290.9 	"/>
	<path class="st2" d="M394.9,310.4l-2.5-2.3c0,0.6,0.2,1-4.1,1c-7.3,0-270.8,0-273,0c-2.2,0-2-1.3-2-1.3l-2.4,2.6H394.9z"/>
	<path class="st3" d="M292.1,296.2c-0.9-0.3-2.1-0.5-3.8-0.5c-7.6-0.2-18.6,0.5-28.3,0.9c-3.1,0.1-5.7,0.1-7.7,0.2
		c-0.7,0-1.5,0-2.2,0c-0.8,0-1.5,0-2.2,0c-2-0.1-4.6-0.1-7.7-0.2c-9.7-0.4-31.2-0.6-32.1-0.4c-34.2-0.1-62.9-2-62.9,2.9
		c0,4.8,4.6,7.1,11.6,7.1c2.3,0,9.1-0.1,38.8,0.1c8.5,0.7,20.7,0.1,23.3,0.1c6.5,0.1,17.7,0.1,31.2,0.1c13.5,0,24.7,0,31.2-0.1
		c2.6,0,25,0.9,33.5,0.3c29.7-0.2,45.5-0.8,47.8-0.8c1.9-0.1,4.1-1.7,4.4-4C367.6,297,326.2,296.1,292.1,296.2z"/>
</g>
<g>
	<polygon class="st1" points="394.7,150.2 110.7,150.2 124.9,130.7 379.6,130.7 	"/>
	<path class="st2" d="M394.9,150.2l-2.5-2.3c0,0.6,0.2,1-4.1,1c-7.3,0-270.8,0-273,0c-2.2,0-2-1.3-2-1.3l-2.4,2.6H394.9z"/>
	<path class="st3" d="M292.1,136c-0.9-0.3-2.1-0.5-3.8-0.5c-7.6-0.2-18.4-1.3-28.1-1c-3.1,0.1-40.1,0-47.7,0.2
		c-1.7,0-10.6-1.2-11.6-1c-3.4,1-2.5-1.6-6-1.6c-4.3,0-7.7,1.2-12,1.3c-4.9,0.1-17.8,0.5-20.4,5.8c-4,8,7.3,6.6,11.5,6.6
		c7.2,0,14.4,0.1,21.6,0.1c8.5,0.7,20.7,0.1,23.3,0.1c6.5,0.1,17.7,0.1,31.2,0.1c13.5,0,24.7,0,31.2-0.1c2.6,0,25,0.9,33.5,0.3
		c29.7-0.2,36.9-0.8,39.1-0.8c1.9-0.1,5-1.9,5.3-4.1C359.9,136.6,326.2,135.9,292.1,136z"/>
</g>
<g>
	<g>
		<g>
			<path class="st4" d="M196.1,49.2c-5.5-0.9-2.8-5-5.6-7c-8.6-6.4-14.2-11.7-14.2-11.7s0.3-10.6,9.6-8c6.4,1.8,6.4,11.6,8.4,17
				c4.1,10.8,8.5,9.3,8,9.9C201.8,50.3,201.7,50.2,196.1,49.2z"/>
			<path class="st5" d="M196.9,49.8c-5.5-0.9-7.5-2.3-10.3-4.3C178,39.2,174.3,31,174.3,31s1.3-7.9,9.5-6.6c5.7,0.9,5,9.5,7,14.9
				c4.1,10.8,12.5,9.8,12,10.4C202.1,50.5,202.4,50.8,196.9,49.8z"/>
		</g>
		<path class="st6" d="M173.1,44.2l8.7,11.5c0,0,5.3,0.3,7.8,2.1c1.6,1.2,6.2,5.6,7.7,9.1c1.5,3.5,0.8-0.8,0.7-2.2
			c0-1.4-1.3-14.8-0.4-16.3c1.7-2.5,5.3-3.8,5.3-3.8s-7.9,0.5-16.9-2.5c-4.4-1.4-8.5-4.2-8.5-4.2L173.1,44.2z"/>
		<g>
			
				<linearGradient id="SVGID_1_" gradientUnits="userSpaceOnUse" x1="4363.8726" y1="839.553" x2="4370.4985" y2="843.658" gradientTransform="matrix(-0.7874 -0.6165 -0.6165 0.7874 4144.1177 2079.3914)">
				<stop  offset="0" style="stop-color:#FFDCAE"/>
				<stop  offset="1" style="stop-color:#FCC89E"/>
			</linearGradient>
			<path class="st7" d="M178.2,38.4l14.4,20.8l0,2c-1.2-1.9-2.5-2.9-3.3-3.3c-3.4-1.7-7.6-2.1-7.6-2.1l-8.7-11.5l4.5-6.3
				C177.6,37.9,177.8,38.1,178.2,38.4z"/>
		</g>
		<g>
			<path class="st8" d="M175.1,25.8c0,0,2.4-3.2,6.4-0.2c8.6,5.9-4.5,7.4-4.5,7.4L175.1,25.8z"/>
			<g>
				<path class="st9" d="M179.8,24.6c-3-1.1-4.7,1.2-4.7,1.2l0.5,1.8C176.2,26.4,178.4,25.2,179.8,24.6z"/>
			</g>
			<g>
				<path class="st10" d="M170.9,42.4c-7-0.8-10.9,1.1-11.6,2.2c-0.9,1.4-0.9,2.3-1,2.1c0.8,1.6,2.4,3.6,3.9,5
					c0.8,0.7,1.3,1,1.6,1.3c0.8,0.4,1,0.3,1.7,2.1c1,2.6,1.2,4.3,1.7,4.6c0.5,0.3,1.8-0.7,1.8-0.7s0.5,0.4,1.4,0.9l0.2,0.4
					c0,0,0.4,0.5,0.6,0.8c0.2,0.2,0.6,0.2,0.6,0.2s1.5-1,2.2-1.3c0.8-0.5-1.5,1.5-1.5,1.9c0.1,0.3,0.1,0.5,0.7,0.4
					c0.6-0.1,1.5,0.2,1.7,0.2c0.2,0.1,2.6,1.8,2.9,2c2.1,1.5,6.4-6.7,6.7-11.3c-0.6-3.1-1.6-6.8-1.6-6.8c-1.2-0.3-1.4-1-2.5-1.9
					c-1.2-0.3-3.6-0.5-5-1C173.7,42.9,172.3,42.5,170.9,42.4z"/>
			</g>
			<g>
				<path class="st6" d="M170.9,42.4c-7-0.8-10.9,1.1-11.6,2.2c-0.9,1.4-0.9,2.3-1,2.1c0.8,1.6,2.4,3.6,3.9,5c0.8,0.7,1.3,1,1.6,1.3
					c0.8,0.4,1,0.3,1.7,2.1c1,2.6,1.2,4.3,1.7,4.6c0.5,0.3,1.8-0.7,1.8-0.7s0.5,0.4,1.4,0.9l0.2,0.4c0,0,0.4,0.5,0.6,0.8
					c0.2,0.2,0.6,0.2,0.6,0.2s1.5-1,2.2-1.3c0.8-0.5-1.5,1.5-1.5,1.9c0.1,0.3,0.1,0.5,0.7,0.4c0.6-0.1,1.5,0.2,1.7,0.2
					c0.2,0.1,2.6,1.8,2.9,2c2.1,1.5,6-6.9,6.2-11.4c-0.6-3.1-1.2-6.6-1.2-6.6c-1.2-0.3-1.4-1-2.5-1.9c-1.2-0.3-3.6-0.5-5-1
					C173.7,42.9,172.3,42.5,170.9,42.4z"/>
			</g>
			<path class="st4" d="M176.6,44.4c-1.3-0.3-2.9-0.3-4.5-0.8c-1.3-0.4-2.3-0.5-3.5-0.6c-5.8-0.4-8.9,2.2-9.4,3.1
				c-0.8,1.5-1.1,0.8-1.1,0.8s-3.6-8.3,2.3-15.6c5.5-6.8,11.8-7.5,17.8-5.5c5.2,1.7,9.1,5.9,10.6,10c1.3,3.8,1,7.2,1,7.2
				S182.8,45.6,176.6,44.4z"/>
			<path class="st11" d="M176.1,38.5c-0.5-0.6,0.1-1.5-0.3-2.2c-0.9,0.3-1.2,1.5-2,1.9c-0.2-0.5,0.2-1.2,0.4-1.8
				c0.1-0.4,0.2-0.8,0.3-1.2c0.1-0.2,0.3-0.5,0.2-0.8c-0.2,0.1-0.4,0.4-0.5,0.5c-0.4,0.5-0.7,1-1.1,1.5c-0.4,0.7-0.7,1.4-1,2.1
				c-0.3,0.6-0.6,1.5-1.1,2l0.1,0c-0.1,0.1-0.3,0.4-0.2,0.6c0.1,0.3,0.3,0.1,0.5,0c0.5-0.1,1-0.4,1.5-0.6c0.2,0.5-0.2,1.1-0.2,1.6
				c0.3-0.1,1.4-0.9,1.6-0.7c0.2,0.2-0.1,0.9,0.1,1.2c0.9-0.8,1.6-1.6,2.2-2.6c0.3-0.5,0.5-0.9,0.8-1.4c0.1-0.2,0.5-0.6,0.4-0.8
				C177.2,38,176.6,38.2,176.1,38.5z"/>
			<g>
				<path class="st11" d="M167.4,38c-0.3-0.6,0.2-1.3-0.2-1.8c-0.3,0.5-0.5,1.4-1.1,1.6c-0.9-1.3,1-3,0.3-4.2
					c-1.1,0.6-2.2,2.2-2.7,3.3c-0.4,0.9-0.2,3.7-1.2,4.1c-0.4-0.6-0.2-1.6-0.2-2.2c0-0.7,0.4-1.6,0.1-2.3c-0.5,0.2-0.3,1-0.8,0.3
					c-0.3-0.4-0.2-0.9-0.5-1.2c-0.4,0.3-0.8,1.6-1.2,1c-0.4-0.6,0.4-1.6,0.3-2.1c-1.2,1-1.9,2.5-2.1,4c-0.2,1.8-0.6,4.5,0.3,6.2
					c0.1-1,0-2.8,1-3.3c0.5,0.6-0.1,1.8,0.5,2.4c0.3-0.5,0.4-1.4,0.9-1.7c0.7-0.4,0.8,0.7,1.2,0.8c0.4,0,2.1-2.1,2.4-1.5
					c0.9-0.2,1.3-1.4,2.2-1.8c0.4,0.8,0.6,1.2,1.3,0.3c0.6-0.8,1.2-2.3,1.2-3.3C168.3,36.8,168,37.7,167.4,38z"/>
			</g>
			<g>
				<path class="st12" d="M171,60.9c-0.2-0.2-0.3-1.1-0.3-1.1l-1.1-1.2l-0.6,0.5c0,0,0.5,0.4,1.4,0.9l0.2,0.4c0,0,0.2,0.2,0.3,0.5
					C171,60.9,171,60.9,171,60.9z"/>
			</g>
			<path class="st12" d="M169.9,58.2c0,0-0.1-0.6-0.6-0.7c-0.6-0.1-1-0.1-1-0.1s1-0.9,1.4-0.4C170.1,57.5,169.9,58.2,169.9,58.2z"/>
			<g>
				<g>
					<path class="st13" d="M167.3,49.4c0.8-0.2,1.6,0,1.6,0s-0.1,2-1,2.8c-0.8,0.8-1.2,0.8-1.2,0.8s-0.7-0.6-1.5-0.9
						c0,0,0,0.1,0,0.1c0.3,0.3,1.4,1.3,1.4,1.3s0.4,0,1.5-1.1c1.1-1.1,0.6-3.6,0.6-3.6S168.3,48.7,167.3,49.4z"/>
				</g>
				<g>
					<g>
						<path class="st4" d="M167.2,53.7c-0.1,0-0.4-0.3-0.4-0.3c0.4-0.3,1-0.9,1.5-1.9c0.8-1.6,0.6-2.7,0.6-2.7s0.6,1.6-0.3,3.5
							C168.1,53.2,167.6,53.6,167.2,53.7z"/>
					</g>
				</g>
				<g>
					<path class="st4" d="M164.1,52.7c0,0,0.5-0.5,0.9-1.3c0.3-0.8,1.2-2.9,1.5-3.3c0.4-0.4,1.5-1.5,1.5-1.5s-0.9,0.4-1.5,1.1
						c-0.6,0.6-2.3,3-2.7,4C163.3,52.6,163.9,52.8,164.1,52.7z"/>
				</g>
			</g>
			<path class="st14" d="M171.4,61.3c0,0-0.1-0.4,0.2-0.6c0.3-0.2,2.6-0.8,2.6-0.8l-2.4,1.4C171.7,61.4,171.4,61.4,171.4,61.3z"/>
			<path class="st15" d="M172.7,62.2c0,0,0.5-0.6,0.8-1.1c0.3-0.4,0.6-1.2,0.6-1.2s-1.6,1.3-1.7,1.9C172.3,62,172.4,62.4,172.7,62.2
				z"/>
			<g>
				<path class="st6" d="M181.7,47.3c0,0,0.9-0.2,1-0.9c0.2-0.7,0.4-1.7-0.3-4.1c-0.7-2.4-2.8-2-3.2-1.9c-0.4,0.1-1.5,1.9,0.4,4.9"
					/>
				<path class="st16" d="M180.2,42.3c0,0,0.9,1.1,1.1,1.2c0.6,0.2,0.4,0.9,0.4,0.9s-0.4-0.2-0.5-0.4
					C181.1,43.9,180.2,42.3,180.2,42.3z"/>
				<path class="st16" d="M181.8,46.1c0.1-0.1,0.4-1.7,0-1.8c0,0-0.1,0-0.1,0c-0.2-0.1-0.3-0.1-0.5-0.5c-0.1-0.1-0.2-0.3-0.3-0.6
					c-0.3-0.6-0.8-1.4-0.7-1.6c0.1-0.1,0.2-0.1,0.3-0.1c0.3,0,0.8,0.2,1,0.6c0.4,0.6,0.2,0.9,0.2,1c0,0,0.3-0.4-0.1-1
					c-0.3-0.5-0.8-0.7-1.1-0.6c-0.2,0-0.3,0.1-0.4,0.2c-0.2,0.2-0.1,0.4,0.7,1.7c0.1,0.3,0.3,0.5,0.3,0.6c0.2,0.5,0.3,0.5,0.6,0.6
					c0,0,0.1,0,0.1,0c0.2,0.1,0,0.8-0.1,1.2L181.8,46.1z"/>
			</g>
		</g>
	</g>
	<g>
		<path class="st17" d="M201.9,134.4c4.2-1.5,5.4-4.7,5.7-7c0.4-2.7,2.5-17.6,2.5-29.9c1.4-5.8,2.3-17.7,2.3-17.7l-9.4,3.9
			c0,0-0.6,25-0.7,28.7c-0.1,3.7-1.1,15.7-1.1,15.7s-5.8,0.3-7,0.7c-0.8,0.2,0.6,3.4,0.6,3.4S200.5,134.9,201.9,134.4z"/>
		<path class="st17" d="M202.3,130c0,0-12.1,2.2-14.3,2.5c-5.5,0.7-6.8,1.9-6.7,2.3c0.1,0.4,19.1,0,19.1,0L202.3,130z"/>
		<g>
			<path class="st18" d="M181.4,134.7c0,0,0-0.1,0-0.2c0.2-0.1,0.5-0.1,0.6-0.2c0.3,0,7.6-0.1,7.9-0.1c0.2,0,4.1-0.2,5.4-0.6
				c1.2-0.4,3.4-1.2,3.4-1.2s-0.3,0.3-0.5,0.5c-0.2,0.2-1.9,0.7-2.5,1c-0.3,0.2-0.6,0.5-0.7,0.8C189.3,134.9,181.5,135,181.4,134.7z
				"/>
		</g>
		<g>
			<path class="st17" d="M181.6,132.8c2.9-0.8,13.7-3.7,13.7-3.7l3.1,0.7l0.6,0.9l0,0c-2.3,0.3-9.1,1.3-11,1.6
				c-5.5,0.7-6.8,1.9-6.7,2.3h-1.2C180.2,134.7,178.8,133.7,181.6,132.8z"/>
		</g>
		<g>
			<path class="st18" d="M183.2,130.8c2.1-0.6,8.3-1.5,11.3-2c-0.1,0.4-0.2,0.9-0.2,1.6c-1.9,0-3.6,0-4.5,0.1
				c-5.5,0.7-6.9,1.7-6.8,2.1h-1.5C181.5,132.5,180.3,131.6,183.2,130.8z"/>
		</g>
		<g>
			<path class="st18" d="M183.3,133.2c2.9-0.8,9-1,9-1l2,0c-3.7,0.7-4.6,0.5-6.1,0.5c-6.4,0.3-7,1.6-6.8,2h-0.7
				C180.6,134.4,181.5,133.7,183.3,133.2z"/>
		</g>
		<g>
			<path class="st17" d="M181.4,132c1.5-0.4,5.5-1.5,9-2c3.1-0.9,3.9-0.8,5.6-1.3l1.8,0.3l0.6,0.9h0c-2.3,0.3-8.6,1.5-10.4,1.8
				c-5.5,0.7-6.9,1.7-6.8,2.1h-1.5C179.7,133.8,178.5,132.8,181.4,132z"/>
		</g>
		<g>
			<path class="st18" d="M183,132.2c2.9-0.8,7.6-1.3,7.6-1.3h2.1c-3.7,0.3-4.6,0.6-6.1,0.8c-3.5,0.3-6.3,1.8-6.6,2.1l-0.3,0
				C179.9,133.6,181.1,132.7,183,132.2z"/>
		</g>
		<path class="st17" d="M204.8,132.1c0,0-1.9,2.8-6.4,3.4c-1.4,0.2-4,0.8-4.3,0.8c-0.7,0-0.2-1,0.6-1.7c0.8-0.6,2.8-1.1,3.5-1.5
			c0.6-0.4,0.9-0.7,0.9-0.7S203.9,130.9,204.8,132.1z"/>
	</g>
	<g>
		<path class="st6" d="M205.8,45c0,0,9.7,3.4,13,4.9c5.9,2.8,15.8,6.6,19.7,8.1c6.5,2.6,21.3-1.9,28.3-1.8c0.5,0,4.8,2.5,5.2,2.6
			c2.3,0.6,3,1,3,1l-10.5,25.2c0,0-30.3,3-38.1,0.1c-7.9-2.9-21.4-8.3-21.4-8.3s-15.6-11.4-15.2-20.5c0.2-5.8,4.9-9.6,8.5-10.9
			c0.4-0.1,1-0.5,1.3-0.6C203.2,44.1,205.8,45,205.8,45z"/>
		<linearGradient id="SVGID_2_" gradientUnits="userSpaceOnUse" x1="207.9358" y1="63.158" x2="211.6024" y2="67.8247">
			<stop  offset="0" style="stop-color:#FFDCAE"/>
			<stop  offset="1" style="stop-color:#FCC89E"/>
		</linearGradient>
		<path class="st19" d="M205.1,47.7c1.4,0.4,2.8,0.8,4.2,1.4c2.6,1,5.1,2.3,7.2,4.2c2.1,1.9,3.6,4.4,4,7.2c0.2,1.5,0,3-0.3,4.4
			c-0.3,1.4-0.8,2.7-1.7,3.8c-0.6,0.7-1.4,1.2-2.1,1.7c-1.3,0.8-2.7,1.6-4.2,1.9c-1.7,0.4-3.4,0.4-5.1,0.3c-1.7-0.1-3.5-0.3-5.2-0.6
			c-1.6-0.3-3.4-0.7-4.7-1.8c-1.3-1-2.3-2.8-3.3-4.1c-2.1-2.8-4.2-6.2-4.1-9.8c0.1-2.5,1.1-4.8,2.7-6.7c0.7-0.8,1.5-1.7,2.2-2.5
			c0.8-0.9,2-0.9,3.1-0.8C200.3,46.6,202.7,47,205.1,47.7z"/>
		<g>
			<path class="st20" d="M264.6,85.1c0,0,1.7-4,1.7-4c0.2-0.5-9.9-1.6-10.8-1.5c-1.8,0.1-3.3,0.1-4.8,0.9c-1.5,0.8-3.2,1.6-5,1.5
				c-1.8-0.1-3.4-1-5.1-1.6c-3.7-1.4-7.7-1.6-11.6-1.5c-1.6,0-2.8-0.1-4.1,0.9c-0.4,0.3-3.7,3.5-3.7,3.5c1.9,0.7,3.8,1.4,5.4,2
				C234.3,88.1,264.6,85.1,264.6,85.1z"/>
		</g>
		<path class="st21" d="M193.8,54.9c-1.3,3.9-3,10.5,4.8,20.9c0,0,1.1,7.7,7.9,9.3c6.8,1.6,12-1.5,14.2-1.4c2.2,0.1,6.5,2.3,6.5,2.3
			s4.3-9.1,6.7-16c2.4-6.9,2.6-12.8,2.6-12.8s-8.2-4-14.7-6.8c-11.3-4.9-14.8-5-14.8-5s1.1,1.6-0.9,2.8
			C202,50.1,195.7,49.1,193.8,54.9z M195,53.5c0.1-0.1,4.4-4.2,9.5-3.3c3.2,0.6,11.6,7.1,6.3,15.5c-2.9,4.6-9.6,8.3-13.5,5.9
			c-3.9-2.4-5.5-10.2-3.1-16.6C194.3,54.5,194.6,54,195,53.5z"/>
		<g>
			<path class="st22" d="M229.8,73.9c2-4.6,3.6-9.3,3.6-9.3s-1.8,4.7-4.5,9.6c-2.3,4.2-4.2,4.7-4.2,4.7s-2.6,2.6-4.3,1.9
				c-1.7-0.6-5.3,1.4-10.5-1.2c-3.2-1.6-3.9-6.8-3.7-9.4c-2.2,1.4-4.6,2.2-6.7,2c-0.5,0-1-0.1-1.4-0.3c0,0,0,0,0,0
				c-0.3-0.1-0.5-0.2-0.7-0.4c-0.2-0.1-0.4-0.2-0.5-0.4c-0.2-0.1-0.3-0.3-0.5-0.4c0,0-0.1-0.1-0.1-0.1c-0.1-0.1-0.2-0.2-0.3-0.3
				c-0.5-0.6-1-1.2-1.5-2c0,0-0.1,0.1-0.1,0.1c0.9,2.2,2.3,4.6,4.4,7.3c0,0,1.1,7.7,7.9,9.3c6.8,1.6,12-1.5,14.2-1.4
				c2.2,0.1,6.5,2.3,6.5,2.3s0.4-0.9,1.1-2.4c-1.3-0.8-2.8-1.7-2.8-1.7S228.9,75.9,229.8,73.9z"/>
		</g>
	</g>
	<g>
		<g>
			<path class="st6" d="M200.7,125.1c-1.1,5-3.5,17.2-3.5,17.2s-1.5,1.9-2.7,0.4c-1.2-1.5-1.8-3.8-1.8-3.8s0.6-10.8,0.4-14.4
				c-0.2-3.7-0.1-12.2-0.2-14.7c-0.1-2.5,0-9.4,1-15.2l11.7,3.6C205.8,98.8,202.6,116.5,200.7,125.1z"/>
			<path class="st6" d="M207.3,62.2c-0.2,8.8,0.4,19-0.1,25.7c-0.4,6.7-1.5,10.5-1.5,10.5L194.4,99c-0.5-2.1-0.1-16-0.8-20.1
				c-0.9-5.5-1.2-8.9-1.2-8.9s-2.9-6.1-1.7-10.8C193.6,47.6,207.6,52,207.3,62.2z"/>
		</g>
		<path class="st6" d="M187.8,143.8c0,0-1,0.1-2.2,0.5c-1.2,0.4-4.8,0.6-6.3,0.9c-1.5,0.4-3.9,0.9-3.9,0.9s0,0.5,0.8,0.6
			c0.7,0.1,5.1-0.1,7.2-0.3c2.1-0.1,5.2,0,8.4,0c3.2,0,5.5-4.2,5.5-4.2s0.2-2.8-0.1-2.9c-0.3-0.1-3.4-0.6-4.4-0.5
			c-5.4,0.6-14.1,2.3-15.6,2.6c-1.5,0.3-5.7,1.5-6.3,1.6c-0.6,0.2,0.2,0.5,1.4,0.6c1.2,0.1,3.5-0.2,3.5-0.2"/>
		<path class="st6" d="M184.4,141.5c0,0-1.3,0-3.3,0.4c-2,0.4-10,2.1-10.2,2.2c-0.2,0.1,0.5,0.7,1.9,0.7c1.4,0,2.8-0.3,5.3-0.4
			c2.4-0.1,5.9-0.8,5.9-0.8L184.4,141.5z"/>
		<g>
			<path class="st20" d="M170.9,144.1c0.5,0.3,1.5,0.5,3.8,0.1c1.8-0.3,6.9-1.3,7.5-1.4c0.3-0.1,1.5-0.2,2-0.2l-0.1,0.3
				c-1.5,0.3-3.7,0.8-3.8,0.9c-0.2,0.1-3.3,0.5-3.6,0.6c0,0,0,0,0,0c-1.7,0.1-2.8,0.3-4,0.3C171.4,144.8,170.7,144.2,170.9,144.1z"
				/>
		</g>
		<path class="st6" d="M177.2,145.7c0,0-3.5,0.3-4.1,0.2c-1.3-0.2-1.5-0.9-1.5-0.9s5-1,7.3-1.4c2.3-0.4,6.1-1.2,6.1-1.2
			s3.8-0.2,4,0.7c0.2,0.9-2.1,1.7-2.1,1.7L177.2,145.7"/>
		<path class="st20" d="M177.4,145.7c0,0,5.9-1,6.6-1.1c0.7-0.1,1.6-0.3,2.3-0.5c0.7-0.2,1.3-0.3,1.3-0.3s-2.5,0.2-3,0.2
			c-0.6,0.1-7.1,1.3-7.7,1.4c-1.6,0.1-4.1,0.3-3.8,0.5C173.3,146.1,176.9,145.8,177.4,145.7z"/>
		<path class="st20" d="M183.8,141.5c0,0-0.7-0.1-1.6,0c-0.9,0.1-7.8,1.6-8.9,1.8c-1.1,0.2-2.3,0.2-2.3,0.2s0.3,0.2,0.7,0.2
			c0.4,0,0.7,0.1,0.7,0.1s5.8-1.3,6.7-1.4C179.8,142.1,183.6,141.5,183.8,141.5z"/>
		<path class="st20" d="M194.7,139.8c0.5,0.1,2,0.7,2,0.7s-1.3-1-2.3-1.1c-0.4-0.1-1.2-0.3-1.1-0.8c-0.1,0.1-0.1,0.3-0.2,0.4
			c-0.2,0.2-0.8,0.2-1.1,0.3c-0.2,0-0.5,0.2-0.7,0.2c0,0,1.4,0.3,1.6,0.4c0.1,0.1,0.5,0.4,0.9,0.4c0.4,0,1.2,0.1,1.2,0.1
			s-1.1-0.5-1.3-0.6C193.7,139.5,194.3,139.7,194.7,139.8z"/>
	</g>
	<g>
		<g>
			<path class="st10" d="M282.7,125.1c-0.1-1.7-0.8-2.6-1.4-3.5c3-0.7,7.4-0.5,10.7-0.1c6.9,0.8,11.1,2,17.7,2.9
				c5,0.7,11.5,0.1,11.5,0.1s7.6,0.5,9.7,2.9c2.1,2.5-1,4.7-1,4.7s-6.3,1.3-8.9,1.5c-2.6,0.1-25.3,2-31.6,2.1c-2,0-5.4,0.3-9.3,0.4
				C281.4,134,283,130.1,282.7,125.1z"/>
			<g>
				
					<linearGradient id="SVGID_3_" gradientUnits="userSpaceOnUse" x1="2027.9491" y1="109.3846" x2="2025.0745" y2="142.2078" gradientTransform="matrix(-0.9999 1.170000e-02 1.170000e-02 0.9999 2295.8325 -24.2586)">
					<stop  offset="0" style="stop-color:#411613"/>
					<stop  offset="0.1592" style="stop-color:#411512"/>
					<stop  offset="1" style="stop-color:#4B2723"/>
				</linearGradient>
				<path class="st23" d="M280.1,64.3c3.1,9.5-0.8,18.3-1.5,22.5c-0.8,5-5.1,30.4-5.1,30.4l-0.3,3.7c0,0,6.9,0.1,10.4,0.2
					c0.6,0.9,1.1,1.7,1.3,3.4c0.6,5-1,8.5-2.1,10.7c-8.3,0.8-22.6,1.7-24.6-1c-2.8-4-3.2-8.4-3.2-18.1c0-6.7,3.1-23.9,4.7-32
					C266.5,79.7,273,75.6,280.1,64.3z"/>
			</g>
		</g>
		<g>
			<path class="st24" d="M328.2,130.2c0,0-1.8-3.6-3.5-4.6c-1.7-1-2.6-0.9-3.4-1.2c-0.9-0.4-0.7-2.5-0.2-3.6c0.5-1.1,2.5-4,2.5-4
				s7.1,1.8,10.4,5.6c3.3,3.8,3.8,5.3,3.8,5.3l-6,5.5C331.7,133.2,329.5,132.5,328.2,130.2z"/>
			<path class="st25" d="M338.5,122.9c0,0-3.7-4-6-5.8c-2.3-1.7-6.5-4.5-7.8-3.7c-0.5,0.3-1,1.7-1.2,3.4c-0.1,1.1,6.9,2.3,8.8,4.9
				c1.9,2.5,4.7,6,4.7,6L338.5,122.9z"/>
		</g>
	</g>
	<g>
		<path class="st6" d="M288.9,130.7c0-1.7-1-2.7-1.5-3.7c3.1-0.5,7.8-0.1,11.1,0.5c7,1.2,11.1,3.1,17.8,3.9
			c4.2,0.5,10.1-0.4,10.1-0.4s9.3,2,11.3,4.6c2,2.6-1.2,4.8-1.2,4.8s-6.5,1-9.1,1c-2.7,0-25.9,0.7-32.3,0.4c-2-0.1-5.5,0-9.5-0.1
			C287.2,139.7,289,135.9,288.9,130.7z"/>
		<g>
			
				<linearGradient id="SVGID_4_" gradientUnits="userSpaceOnUse" x1="2067.5115" y1="143.0678" x2="2046.9885" y2="137.1165" gradientTransform="matrix(-1 0 0 1 2375.835 0)">
				<stop  offset="0" style="stop-color:#FFDCAE"/>
				<stop  offset="1" style="stop-color:#FCC89E"/>
			</linearGradient>
			<path class="st26" d="M337.9,135.6c2,2.6-1.2,4.8-1.2,4.8s-6.5,1-9.1,1c-2.7,0-25.9,0.7-32.3,0.4c-0.4,0-0.8,0-1.2,0
				c6.1-1.2,32.1-1.1,35-1.5c3-0.3,3.8-1.4,4.2-3.4c0.4-2-5.2-5.1-5.2-5.1s4,1,8,2.4C336.8,134.6,337.5,135.1,337.9,135.6z"/>
		</g>
		<path class="st27" d="M262.3,119.6c0.5-9.8,3.6-31,3.6-34.8c0-3.8-0.7-18.2-3.7-28.3c0,0,14.8-4.9,24.3,3.4
			c9.2,8,3.2,27.5,2.1,32.5c-1.1,5-6.8,30.7-6.8,30.7l-0.5,3.7c0,0,2.8-0.2,6.3,0c0.5,1,0.9,2,1,3.8c0.4,5.1-1.2,9-2.5,11.2
			c-8.5,0.4-19,0.5-20.9-2.4C262.8,135.2,261.9,129.5,262.3,119.6z"/>
	</g>
	<path class="st28" d="M334.5,138.6c0,0,1-2.3-1.3-3.9c-2.3-1.6-4.9-2.2-4.9-2.2s-0.9-0.5-1.7-1.6c-0.7-1.1,1.1-6,2.3-7.2
		c1.2-1.3,3.3-1.4,3.3-1.4s2.2,4.1,5.8,6.4c6,3.9,22.7,11.3,22.7,11.3s-2.1,3.1-5.1,2.8c-3-0.2-8.2-1.7-11.8-2
		c-3.6-0.3-7,0.4-8.8,0.2c-1.8-0.2-2.1-0.3-2.3-0.9C332.5,139.6,334.3,139.3,334.5,138.6z"/>
	<path class="st29" d="M360.4,139.2c0,0-2.5-5.1-6.9-8.9c-4.5-3.8-6.8-4.9-6.8-4.9l-0.8,0c0,0-0.1-0.6-0.7-1c-0.5-0.4-7.1-4.6-9.8-5
		c-2.8-0.4-4.7,3.6,1.4,6.5c6.1,2.9,12,6.8,14.2,8.4C353.2,135.9,360.4,139.2,360.4,139.2z"/>
	<path class="st30" d="M332.1,119.7c-1,0.6-2.4,3.7-1.3,5.4c1,1.6,7.1,3.8,9.6,5.2c2.5,1.4,3.9,3.3,7.2,4.6c3.4,1.3,13,5.2,13,5.2
		s0.2-0.7-0.6-1.1c-0.7-0.4-2.1-0.9-3.9-2c-2.7-1.6-6.4-4.4-10.9-7.4c-4.5-3-10.8-5.4-11.7-7c-1.1-2.2,1.9-3.2,1.9-3.2
		S333.4,118.8,332.1,119.7z"/>
	<g>
		
			<linearGradient id="SVGID_5_" gradientUnits="userSpaceOnUse" x1="2094.1372" y1="129.1531" x2="2098.761" y2="135.6265" gradientTransform="matrix(-1 0 0 1 2375.835 0)">
			<stop  offset="0" style="stop-color:#3F110E"/>
			<stop  offset="1" style="stop-color:#4B2723"/>
		</linearGradient>
		<path class="st31" d="M277.1,136.9c0,0,1.8-4.3,2.7-6.3c0.9-2,1.6-3.8,1.6-3.8s1.4-0.2,4-0.1c0,0-1.8,0.3-3.2,1.5
			C280.8,129.4,277.1,136.9,277.1,136.9z"/>
	</g>
	
		<linearGradient id="SVGID_6_" gradientUnits="userSpaceOnUse" x1="3754.0239" y1="962.9322" x2="3752.3301" y2="949.717" gradientTransform="matrix(-0.8586 -0.5127 -0.5127 0.8586 3969.147 1182.8362)">
		<stop  offset="0" style="stop-color:#3F110E"/>
		<stop  offset="1" style="stop-color:#4B2723"/>
	</linearGradient>
	<path class="st32" d="M278.1,62.1c0,0-4.3-4.7-9.1-5.8c-3.1-0.7-9.7,0.8-9.7,0.8s5,9.5,3.1,15.5C258.9,83.3,254,86,254,86
		s7.7,1.4,10.3,1.1C267,86.8,280.6,67.1,278.1,62.1z"/>
</g>
<g>
	<g>
		
			<linearGradient id="SVGID_7_" gradientUnits="userSpaceOnUse" x1="215.6614" y1="265.2194" x2="247.7404" y2="271.5588" gradientTransform="matrix(0.9996 -2.720000e-02 2.720000e-02 0.9996 -89.9502 -54.486)">
			<stop  offset="0" style="stop-color:#FFDCAE"/>
			<stop  offset="1" style="stop-color:#FCC89E"/>
		</linearGradient>
		<path class="st33" d="M131.3,207.7c-4.5-1.4-15.5-4.6-15.5-4.6s-1.7-1.6-0.2-2.5c1.5-0.9,3.7-2.6,3.7-2.6s9.8,2,13.2,2.2
			c3.4,0.1,15.7,0.4,24.7,3.3l-1.7,11.2C155.1,214.6,139,210.2,131.3,207.7z"/>
		
			<linearGradient id="SVGID_8_" gradientUnits="userSpaceOnUse" x1="216.0753" y1="263.1231" x2="248.1542" y2="269.4626" gradientTransform="matrix(0.9996 -2.720000e-02 2.720000e-02 0.9996 -89.9502 -54.486)">
			<stop  offset="0" style="stop-color:#FFDCAE"/>
			<stop  offset="1" style="stop-color:#FCC89E"/>
		</linearGradient>
		<path class="st34" d="M189.6,217c-8.1-1-18.5,0.8-24.7-0.2c-6.2-1-9.5-2.3-9.5-2.3l-0.1-11.4c2-0.3,15.3,2.1,19.2,1.8
			c5.2-0.4,8.3-0.3,8.3-0.3s5.9-2.1,10.1-0.7C203.2,207.7,199,218.1,189.6,217z"/>
	</g>
	<g>
		<g>
			<g>
				<path class="st4" d="M191.5,209.2c-5.6-0.2-3.5-4.5-6.5-6.1c-9.4-5.1-15.7-9.6-15.7-9.6s-1.2-10.6,8.4-9.3
					c6.6,0.9,7.9,10.6,10.7,15.7c5.6,10.2,9.7,8.1,9.3,8.7C197.2,209.5,197.1,209.4,191.5,209.2z"/>
				<path class="st5" d="M192.3,209.7c-5.6-0.2-7.8-1.2-10.8-2.8c-9.4-5.1-14.2-12.7-14.2-12.7s0.2-8,8.5-7.9
					c5.7,0.1,6.2,8.7,9,13.8c5.6,10.2,13.7,8,13.3,8.7C197.6,209.7,198,209.9,192.3,209.7z"/>
			</g>
			<path class="st6" d="M167.4,206.4l9.5,10.9c0,0,5.3-0.1,7.9,1.6c1.7,1.1,6.6,5.2,8.3,8.6c1.8,3.4,0.7-0.9,0.6-2.3
				c-0.1-1.4-2.3-14.7-1.4-16.2c1.5-2.6,5.3-4.1,5.3-4.1s-1.8,0-4.4,0c-3.2,0-7.9-0.1-13-1.4c-4.5-1.1-8.8-3.6-8.8-3.6L167.4,206.4z
				"/>
			<g>
				
					<linearGradient id="SVGID_9_" gradientUnits="userSpaceOnUse" x1="4020.0728" y1="964.8927" x2="4026.699" y2="968.9978" gradientTransform="matrix(-0.8268 -0.5625 -0.5625 0.8268 4051.688 1674.6631)">
					<stop  offset="0" style="stop-color:#FFDCAE"/>
					<stop  offset="1" style="stop-color:#FCC89E"/>
				</linearGradient>
				<path class="st35" d="M172.2,200.2l15.8,19.8l0.1,2c-1.3-1.8-2.7-2.8-3.5-3.1c-3.5-1.5-7.7-1.6-7.7-1.6l-9.5-10.9l4.1-6.6
					C171.5,199.8,171.8,200,172.2,200.2z"/>
			</g>
			<g>
				<path class="st8" d="M168.2,187.9c0,0,2.1-3.3,6.4-0.7c8.9,5.3-4,7.7-4,7.7L168.2,187.9z"/>
				<g>
					<path class="st9" d="M172.8,186.4c-3.1-0.9-4.6,1.5-4.6,1.5l0.6,1.8C169.4,188.4,171.4,187.1,172.8,186.4z"/>
				</g>
				<g>
					<path class="st10" d="M165.1,204.7c-7.1-0.3-10.8,1.8-11.4,3c-0.8,1.4-0.7,2.3-0.8,2.2c0.9,1.5,2.7,3.5,4.2,4.8
						c0.8,0.7,1.3,1,1.7,1.1c0.8,0.4,1,0.3,1.8,2c1.1,2.6,1.5,4.2,2,4.4c0.5,0.3,1.7-0.8,1.7-0.8s0.5,0.4,1.5,0.8l0.2,0.4
						c0,0,0.4,0.5,0.6,0.7c0.2,0.2,0.6,0.2,0.6,0.2s1.5-1.1,2.1-1.5c0.8-0.5-1.4,1.6-1.3,1.9c0.1,0.3,0.1,0.5,0.7,0.4
						c0.6-0.2,1.5,0.1,1.7,0.1c0.2,0,2.7,1.6,3,1.8c2.2,1.4,5.9-7.1,5.9-11.7c-0.8-3.1-2.1-6.7-2.1-6.7c-1.2-0.2-1.5-0.9-2.7-1.8
						c-1.2-0.3-3.7-0.3-5.1-0.7C168,205.1,166.6,204.8,165.1,204.7z"/>
				</g>
				<g>
					<path class="st6" d="M165.1,204.7c-7.1-0.3-10.8,1.8-11.4,3c-0.8,1.4-0.7,2.3-0.8,2.2c0.9,1.5,2.7,3.5,4.2,4.8
						c0.8,0.7,1.3,1,1.7,1.1c0.8,0.4,1,0.3,1.8,2c1.1,2.6,1.5,4.2,2,4.4c0.5,0.3,1.7-0.8,1.7-0.8s0.5,0.4,1.5,0.8l0.2,0.4
						c0,0,0.4,0.5,0.6,0.7c0.2,0.2,0.6,0.2,0.6,0.2s1.5-1.1,2.1-1.5c0.8-0.5-1.4,1.6-1.3,1.9c0.1,0.3,0.1,0.5,0.7,0.4
						c0.6-0.2,1.5,0.1,1.7,0.1c0.2,0,2.7,1.6,3,1.8c2.2,1.4,5.5-7.3,5.5-11.8c-0.8-3.1-1.7-6.5-1.7-6.5c-1.2-0.2-1.5-0.9-2.7-1.8
						c-1.2-0.3-3.7-0.3-5.1-0.7C168,205.1,166.6,204.8,165.1,204.7z"/>
				</g>
				<path class="st4" d="M170.9,206.3c-1.3-0.2-2.9-0.1-4.6-0.5c-1.3-0.3-2.3-0.4-3.5-0.3c-5.9,0-8.7,2.8-9.2,3.7
					c-0.7,1.5-1.1,0.8-1.1,0.8s-4.2-8,1.3-15.7c5.1-7.2,11.2-8.3,17.4-6.7c5.3,1.4,9.5,5.3,11.2,9.3c1.6,3.7,1.5,7.1,1.5,7.1
					S177.2,207.1,170.9,206.3z"/>
				<path class="st11" d="M170.1,200.5c-0.5-0.5,0-1.5-0.4-2.1c-0.8,0.4-1.1,1.6-1.9,2c-0.3-0.5,0.1-1.3,0.2-1.8
					c0.1-0.4,0.1-0.8,0.2-1.3c0-0.2,0.3-0.5,0.1-0.8c-0.2,0.1-0.4,0.4-0.5,0.6c-0.4,0.5-0.7,1-1,1.6c-0.4,0.7-0.6,1.4-0.9,2.2
					c-0.3,0.6-0.5,1.5-1,2l0.1,0c-0.1,0.1-0.2,0.4-0.2,0.6c0.2,0.3,0.3,0.1,0.5,0c0.5-0.2,0.9-0.5,1.4-0.7c0.2,0.4-0.1,1.2-0.1,1.6
					c0.3-0.2,1.4-1,1.6-0.8c0.2,0.2,0,0.9,0.2,1.2c0.8-0.8,1.5-1.7,2.1-2.8c0.2-0.5,0.5-1,0.7-1.5c0.1-0.2,0.5-0.7,0.3-0.9
					C171.1,199.9,170.6,200.2,170.1,200.5z"/>
				<g>
					<path class="st11" d="M161.3,200.6c-0.3-0.5,0.1-1.3-0.3-1.7c-0.3,0.5-0.4,1.4-0.9,1.7c-0.9-1.2,0.8-3,0-4.2
						c-1.1,0.6-2.1,2.3-2.5,3.5c-0.3,1,0.1,3.7-0.9,4.1c-0.4-0.6-0.3-1.5-0.4-2.2c0-0.7,0.2-1.7,0-2.3c-0.5,0.3-0.3,1-0.8,0.4
						c-0.3-0.3-0.3-0.8-0.6-1.2c-0.4,0.3-0.7,1.6-1.1,1.1c-0.5-0.5,0.3-1.6,0.1-2.2c-1.1,1-1.8,2.6-1.8,4.2
						c-0.1,1.8-0.3,4.5,0.7,6.2c0.1-1-0.2-2.8,0.7-3.4c0.5,0.6,0,1.8,0.7,2.3c0.2-0.5,0.3-1.4,0.8-1.8c0.7-0.5,0.8,0.7,1.2,0.7
						c0.4,0,2-2.2,2.3-1.6c0.9-0.3,1.2-1.5,2.1-1.9c0.5,0.8,0.7,1.2,1.3,0.2c0.6-0.9,1.1-2.3,0.9-3.4
						C162.2,199.4,162,200.3,161.3,200.6z"/>
				</g>
				<g>
					<path class="st12" d="M166.4,223.2c-0.2-0.2-0.4-1-0.4-1l-1.2-1.2l-0.5,0.5c0,0,0.5,0.4,1.5,0.8l0.2,0.4c0,0,0.2,0.2,0.4,0.5
						C166.4,223.2,166.5,223.2,166.4,223.2z"/>
				</g>
				<path class="st12" d="M165.2,220.6c0,0-0.1-0.6-0.7-0.7c-0.6-0.1-1,0-1,0s0.9-1,1.4-0.5C165.3,219.8,165.2,220.6,165.2,220.6z"
					/>
				<g>
					<g>
						<path class="st13" d="M162,211.9c0.8-0.2,1.6-0.1,1.6-0.1s0,2-0.8,2.9c-0.8,0.9-1.2,0.8-1.2,0.8s-0.8-0.5-1.5-0.8
							c0,0,0,0.1,0,0.1c0.3,0.3,1.5,1.2,1.5,1.2s0.4,0,1.4-1.2c1-1.2,0.4-3.6,0.4-3.6S163,211.2,162,211.9z"/>
					</g>
					<g>
						<g>
							<path class="st4" d="M162.2,216.3c-0.1,0-0.4-0.3-0.4-0.3c0.4-0.3,0.9-1,1.4-2c0.7-1.6,0.4-2.8,0.4-2.8s0.7,1.5-0.1,3.5
								C163,215.8,162.6,216.2,162.2,216.3z"/>
						</g>
					</g>
					<g>
						<path class="st4" d="M159.1,215.5c0,0,0.5-0.6,0.8-1.4c0.3-0.8,1-3,1.3-3.4c0.3-0.4,1.4-1.6,1.4-1.6s-0.9,0.5-1.4,1.2
							c-0.5,0.6-2.1,3.2-2.5,4.2C158.2,215.4,158.8,215.5,159.1,215.5z"/>
					</g>
				</g>
				<path class="st14" d="M166.9,223.6c0,0-0.1-0.4,0.1-0.6c0.3-0.2,2.5-1,2.5-1l-2.3,1.6C167.2,223.6,166.9,223.7,166.9,223.6z"/>
				<path class="st15" d="M168.3,224.4c0,0,0.5-0.7,0.7-1.1c0.2-0.5,0.5-1.2,0.5-1.2s-1.5,1.4-1.6,2
					C167.9,224.2,168,224.5,168.3,224.4z"/>
				<g>
					<path class="st6" d="M176.3,208.9c0,0,0.8-0.3,1-0.9c0.2-0.7,0.3-1.7-0.6-4c-0.9-2.4-2.9-1.8-3.3-1.7c-0.4,0.2-1.4,1.9,0.7,4.9
						"/>
					<path class="st16" d="M174.4,204.1c0,0,0.9,1,1.2,1.1c0.6,0.2,0.5,0.9,0.5,0.9s-0.5-0.2-0.6-0.3
						C175.4,205.5,174.4,204.1,174.4,204.1z"/>
					<path class="st16" d="M176.2,207.7c0.1-0.1,0.2-1.7-0.1-1.8c0,0-0.1,0-0.1,0c-0.2-0.1-0.3-0.1-0.6-0.5
						c-0.1-0.1-0.2-0.3-0.4-0.6c-0.4-0.6-0.9-1.4-0.8-1.6c0-0.1,0.1-0.1,0.3-0.1c0.3,0,0.8,0.1,1.1,0.5c0.4,0.6,0.3,0.9,0.3,0.9
						c0,0,0.3-0.4-0.1-1c-0.3-0.4-0.8-0.6-1.2-0.6c-0.2,0-0.3,0.1-0.4,0.2c-0.2,0.2-0.1,0.4,0.8,1.7c0.2,0.2,0.3,0.4,0.4,0.6
						c0.3,0.4,0.3,0.5,0.6,0.6c0,0,0.1,0,0.1,0c0.2,0.1,0.1,0.8,0,1.2L176.2,207.7z"/>
				</g>
			</g>
		</g>
		<g>
			<path class="st6" d="M200.1,205.2c0,0,9.7,3.4,13,4.9c5.9,2.8,15.8,6.6,19.7,8.1c6.5,2.6,21.3-1.8,28.3-1.8
				c0.5,0,4.8,2.5,5.2,2.6c2.3,0.6,3,1,3,1l-10.5,25.2c0,0-30.3,3-38.1,0.1c-7.9-2.9-21.4-8.3-21.4-8.3s-15.6-11.4-15.2-20.5
				c0.2-5.8,4.9-9.6,8.5-10.9c0.4-0.1,1-0.5,1.3-0.6C197.5,204.3,200.1,205.2,200.1,205.2z"/>
			<linearGradient id="SVGID_10_" gradientUnits="userSpaceOnUse" x1="197.5648" y1="221.9707" x2="208.3148" y2="228.5957">
				<stop  offset="0" style="stop-color:#FFDCAE"/>
				<stop  offset="1" style="stop-color:#FCC89E"/>
			</linearGradient>
			<path class="st36" d="M198.3,209.6c2.7,1.1,5.4,2.5,7.9,4.1c2,1.3,4.1,2.8,5,5c1.1,2.7,0.3,5.9-1.1,8.5c-1.2,2.3-2.9,4.5-5.2,5.7
				c-1.5,0.8-3.1,1.2-4.7,1.5c-1.2,0.2-2.5,0.4-3.7,0.1c-1.9-0.4-2.6-2-3.9-3.3c-1.4-1.4-2.8-2.9-4.1-4.5c-2.2-2.8-4.5-6.4-4.4-10.1
				c0.1-2.1,0.8-4.1,1.9-5.8c0.9-1.3,1.9-3.5,3.5-3.7c0.8-0.1,1.7,0.1,2.5,0.3C194.1,208,196.2,208.8,198.3,209.6z"/>
			<g>
				<path class="st20" d="M258.8,245.3l1.7-4c-4.5-1.4-10.3-2.9-15-1.8c-4.4,1-8.6,3.7-13.3,3.2c-2.4-0.3-4.6-1.3-6.8-2.1
					c-4.3-1.5-7.3-0.7-10.1,2.8c1.9,0.7,3.8,1.4,5.4,2C228.5,248.3,258.8,245.3,258.8,245.3z"/>
			</g>
			<path class="st21" d="M188,215.1c-1.3,3.9-3,10.5,4.8,20.9c0,0,1.1,7.7,7.9,9.3c6.8,1.6,12-1.5,14.2-1.4c2.2,0.1,6.5,2.3,6.5,2.3
				s4.3-9.1,6.7-16c2.4-6.9,2.6-12.8,2.6-12.8s-8.2-4-14.7-6.8c-11.3-4.9-14.8-5-14.8-5s1.1,1.6-0.9,2.8
				C196.2,210.3,190,209.3,188,215.1z M189.2,213.7c0.1-0.1,4.4-4.2,9.5-3.3c3.2,0.6,11.6,7.1,6.3,15.5c-2.9,4.6-9.6,8.3-13.5,5.9
				c-3.9-2.4-5.5-10.2-3.1-16.6C188.6,214.8,188.9,214.2,189.2,213.7z"/>
			<g>
				<path class="st22" d="M224.1,234.1c2-4.6,3.6-9.3,3.6-9.3s-1.8,4.7-4.5,9.6c-2.3,4.2-4.2,4.7-4.2,4.7s-2.6,2.6-4.3,1.9
					c-1.7-0.6-5.3,1.4-10.5-1.2c-3.2-1.6-3.9-6.8-3.7-9.4c-2.2,1.4-4.6,2.2-6.7,2c-0.5,0-1-0.1-1.4-0.3c0,0,0,0,0,0
					c-0.3-0.1-0.5-0.2-0.7-0.4c-0.2-0.1-0.4-0.2-0.5-0.4c-0.2-0.1-0.3-0.3-0.5-0.4c0,0-0.1-0.1-0.1-0.1c-0.1-0.1-0.2-0.2-0.3-0.3
					c-0.5-0.6-1-1.2-1.5-2c0,0-0.1,0.1-0.1,0.1c0.9,2.2,2.3,4.6,4.4,7.3c0,0,1.1,7.7,7.9,9.3c6.8,1.6,12-1.5,14.2-1.4
					c2.2,0.1,6.5,2.3,6.5,2.3s0.4-0.9,1.1-2.4c-1.3-0.8-2.8-1.7-2.8-1.7S223.2,236.1,224.1,234.1z"/>
			</g>
		</g>
		<path class="st27" d="M272.4,222.3c0,0-4.3-4.7-9.1-5.8c-3.1-0.7-9.7,0.8-9.7,0.8s0.1,6.9,0.1,14.6c0,11.3-3.4,14.2-3.4,14.2
			s5.7,1.6,8.4,1.3C261.3,247.1,274.8,227.4,272.4,222.3z"/>
		<g>
			<g>
				<path class="st6" d="M195,285.3c-1.1,5-3.5,17.2-3.5,17.2s-1.5,1.9-2.7,0.4c-1.2-1.5-1.8-3.8-1.8-3.8s-0.2-10.7-0.3-14.4
					c-0.2-3.7-1.2-17,1.1-27l12.2,0.7C200.1,259,196.9,276.8,195,285.3z"/>
				<path class="st6" d="M201.8,222.8c-0.2,8.8,0.1,18.6-0.3,25.3c-0.4,6.7-1.5,10.5-1.5,10.5l-12.2,1.3c-0.5-2.1,0.7-16.7,0-20.9
					c-0.9-5.5-1.2-8.9-1.2-8.9s-2.9-6.1-1.7-10.8C187.8,207.8,202.1,212.6,201.8,222.8z"/>
			</g>
			<path class="st6" d="M182.1,304c0,0-1,0.1-2.2,0.5c-1.2,0.4-4.8,0.6-6.3,0.9c-1.5,0.4-3.9,0.9-3.9,0.9s0,0.5,0.8,0.6
				c0.7,0.1,5.1-0.1,7.2-0.3c2.1-0.1,5.2,0,8.4,0c3.2,0,5.5-4.2,5.5-4.2s0.2-2.8-0.1-2.9c-0.3-0.1-3.4-0.6-4.4-0.5
				c-5.4,0.6-14.1,2.3-15.6,2.6c-1.5,0.3-5.7,1.5-6.3,1.6c-0.6,0.2,0.2,0.5,1.4,0.6c1.2,0.1,3.5-0.2,3.5-0.2"/>
			<path class="st6" d="M178.7,301.7c0,0-1.3,0-3.3,0.4c-2,0.4-10,2.1-10.2,2.2c-0.2,0.1,0.5,0.7,1.9,0.7c1.4,0,2.8-0.3,5.3-0.4
				c2.4-0.1,5.9-0.8,5.9-0.8L178.7,301.7z"/>
			<g>
				<path class="st20" d="M165.1,304.3c0.5,0.3,1.5,0.5,3.8,0.1c1.8-0.3,6.9-1.3,7.5-1.4c0.3-0.1,1.5-0.2,2-0.2l-0.1,0.3
					c-1.5,0.3-3.7,0.8-3.8,0.9c-0.2,0.1-3.3,0.5-3.6,0.6c0,0,0,0,0,0c-1.7,0.1-2.8,0.3-4,0.3C165.7,305,165,304.5,165.1,304.3z"/>
			</g>
			<path class="st6" d="M171.5,305.9c0,0-3.5,0.3-4.1,0.2c-1.3-0.2-1.5-0.9-1.5-0.9s5-1,7.3-1.4c2.3-0.4,6.1-1.2,6.1-1.2
				s3.8-0.2,4,0.7c0.2,0.9-2.1,1.7-2.1,1.7L171.5,305.9"/>
			<path class="st20" d="M171.6,305.9c0,0,5.9-1,6.6-1.1c0.7-0.1,1.6-0.3,2.3-0.5c0.7-0.2,1.3-0.3,1.3-0.3s-2.5,0.2-3,0.2
				c-0.6,0.1-7.1,1.3-7.7,1.4c-1.6,0.1-4.1,0.3-3.8,0.5C167.5,306.3,171.2,306,171.6,305.9z"/>
			<path class="st20" d="M178,301.7c0,0-0.7-0.1-1.6,0c-0.9,0.1-7.8,1.6-8.9,1.8c-1.1,0.2-2.3,0.2-2.3,0.2s0.3,0.2,0.7,0.2
				c0.4,0,0.7,0.1,0.7,0.1s5.8-1.3,6.7-1.4C174.1,302.3,177.8,301.7,178,301.7z"/>
			<path class="st20" d="M189,300c0.5,0.1,2,0.7,2,0.7s-1.3-1-2.3-1.1c-0.4-0.1-1.2-0.3-1.1-0.8c-0.1,0.1-0.1,0.3-0.2,0.4
				c-0.2,0.2-0.8,0.2-1.1,0.3c-0.2,0-0.5,0.2-0.7,0.2c0,0,1.4,0.3,1.6,0.4c0.1,0.1,0.5,0.4,0.9,0.4c0.4,0,1.2,0.1,1.2,0.1
				s-1.1-0.5-1.3-0.6C187.9,299.7,188.5,299.9,189,300z"/>
		</g>
		<g>
			<path class="st6" d="M283.2,290.9c0-1.7-1-2.7-1.5-3.7c3.1-0.5,7.8-0.1,11.1,0.5c7,1.2,11.1,3.1,17.8,3.9
				c4.2,0.5,10.1-0.4,10.1-0.4s9.3,2,11.3,4.6c2,2.6-1.2,4.8-1.2,4.8s-6.5,1-9.1,1c-2.7,0-25.9,0.7-32.3,0.4c-2-0.1-5.5,0-9.5-0.1
				C281.4,299.9,283.3,296.1,283.2,290.9z"/>
			<g>
				
					<linearGradient id="SVGID_11_" gradientUnits="userSpaceOnUse" x1="2073.2468" y1="303.2947" x2="2052.7239" y2="297.3434" gradientTransform="matrix(-1 0 0 1 2375.835 0)">
					<stop  offset="0" style="stop-color:#FFDCAE"/>
					<stop  offset="1" style="stop-color:#FCC89E"/>
				</linearGradient>
				<path class="st37" d="M332.1,295.8c2,2.6-1.2,4.8-1.2,4.8s-6.5,1-9.1,1c-2.7,0-25.9,0.7-32.3,0.4c-0.4,0-0.8,0-1.2,0
					c6.1-1.2,32.1-1.1,35-1.5c3-0.3,3.8-1.4,4.2-3.4c0.4-2-5.2-5.1-5.2-5.1s4,1,8,2.4C331.1,294.9,331.8,295.3,332.1,295.8z"/>
			</g>
			<linearGradient id="SVGID_12_" gradientUnits="userSpaceOnUse" x1="282.6197" y1="245.4766" x2="274.4475" y2="259.9117">
				<stop  offset="0" style="stop-color:#3F110E"/>
				<stop  offset="1" style="stop-color:#4B2723"/>
			</linearGradient>
			<path class="st38" d="M255.2,279.5c-1.8-11.8-0.9-29.1-0.9-32.8c0-3.8,11.7-9.4,8.7-19.6c0,0,8.2-15.3,17.8-7
				c9.2,8-0.8,28.1-1.9,33.1c-1.1,5-2.8,30.1-2.8,30.1l-0.5,3.7c0,0,2.8-0.2,6.3,0c0.5,1,0.9,2,1,3.8c0.4,5.1-1.2,9-2.5,11.2
				c-8.5,0.4-19,0.5-20.9-2.4C257.1,295.5,256.7,289.2,255.2,279.5z"/>
		</g>
		<path class="st28" d="M328.8,298.9c0,0,1-2.3-1.3-3.9c-2.3-1.6-4.9-2.2-4.9-2.2s-0.9-0.5-1.7-1.6c-0.7-1.1,1.1-6,2.3-7.2
			c1.2-1.3,3.3-1.4,3.3-1.4s2.2,4.1,5.8,6.4c6,3.9,22.7,11.3,22.7,11.3s-2.1,3.1-5.1,2.8c-3-0.2-8.2-1.7-11.8-2
			c-3.6-0.3-7,0.4-8.8,0.2c-1.8-0.2-2.1-0.3-2.3-0.9C326.8,299.8,328.6,299.5,328.8,298.9z"/>
		<path class="st29" d="M354.7,299.4c0,0-2.5-5.1-6.9-8.9c-4.5-3.8-6.8-4.9-6.8-4.9l-0.8,0c0,0-0.1-0.6-0.7-1
			c-0.5-0.4-7.1-4.6-9.8-5c-2.8-0.4-4.7,3.6,1.4,6.5c6.1,2.9,12,6.8,14.2,8.4C347.5,296.1,354.7,299.4,354.7,299.4z"/>
		<path class="st30" d="M326.4,279.9c-1,0.6-2.4,3.7-1.3,5.4c1,1.6,7.1,3.8,9.6,5.2c2.5,1.4,3.9,3.3,7.2,4.6c3.4,1.3,13,5.2,13,5.2
			s0.2-0.7-0.6-1.1c-0.7-0.4-2.1-0.9-3.9-2c-2.7-1.6-6.4-4.4-10.9-7.4c-4.5-3-10.8-5.4-11.7-7c-1.1-2.2,1.9-3.2,1.9-3.2
			S327.7,279.1,326.4,279.9z"/>
		<g>
			
				<linearGradient id="SVGID_13_" gradientUnits="userSpaceOnUse" x1="2099.8728" y1="289.3801" x2="2104.4963" y2="295.8535" gradientTransform="matrix(-1 0 0 1 2375.835 0)">
				<stop  offset="0" style="stop-color:#3F110E"/>
				<stop  offset="1" style="stop-color:#4B2723"/>
			</linearGradient>
			<path class="st39" d="M271.4,297.2c0,0,1.8-4.3,2.7-6.3c0.9-2,1.6-3.8,1.6-3.8s1.4-0.2,4-0.1c0,0-1.8,0.3-3.2,1.5
				C275,289.6,271.4,297.2,271.4,297.2z"/>
		</g>
	</g>
	<path class="st6" d="M389.3,207c0,0-4.1,1.9-7.6,2c-3.5,0.2-16.3-1.4-26.2,0.4c-8.3,1.5-16.2,3.1-19.7,5.5
		c-2.7,1.9-1.5,7.7-1.5,7.7l6.6,5.8c0,0,30.9-10.9,36.2-11.9c5.3-1,6.8,0.5,6.8,0.5s6.4-1.1,7.2-3.7
		C391.9,210.6,389.3,207,389.3,207z"/>
	<path class="st27" d="M330.6,232.1c0,0-0.1,0-0.3,0.1c-2.6,1.2-24.8,11.5-33.5,12.7c-9.2,1.2-18.1,0-23.1,0.8
		c-15.3,2.5-20.1,1.1-20.1,1.1s4.3-9.2,5.8-18.3c0.6-3.6-4.4-11.5-4.4-11.5s2.8-2.1,7.2-2.9c12.2-2.1,25.4,6,32.7,6.1
		c7.3,0,15.5-1.4,20.3-1.6c4.8-0.2,13.4,0.3,13.4,0.3s3.8-2,5.7-3.1c1.9-1.1,2.4-1.6,2.4-1.6s0.1,5.1,1.4,7.7
		c1.3,2.7,3.7,6.8,3.7,6.8s-2.6,0-4.1,0.6C337.6,229.2,335.1,232,330.6,232.1z"/>
	<path class="st29" d="M392.9,203.7c0,0,1.7-2.1,3.6-1.9c0.7,0.1,3.2,5.1,3.8,7.2c0.7,2.1-1.2,5.2-1,5.9c0.2,0.6,2.5,2.8,3.4,5.5
		c0.9,2.7,2.5,10.4-0.3,14.3c-2.8,3.9-5.3,5.9-5.8,4.5c-0.5-1.4,6.7-6.1,3.8-14.3C397.3,216.8,392.9,203.7,392.9,203.7z"/>
	<path class="st40" d="M383.9,217c0,0,3.4,4.2,5.5,6.2c2.2,2,4.9,7.8,5.3,10.3c0.4,1.9,0.7,4.9,1.8,5.7c1.1,0.8,5.8-4.5,6-8.7
		c0.1-4.3-0.7-8.4-2-10.5c-1.3-2-1.6-4.6-1.8-6.3c-0.2-1.7-0.7-5.5-2.2-7.8c-1.5-2.3-2.2-2.3-3.6-2.2c-1.4,0.1-8.3,3.4-7.4,5.4
		C386.3,211.2,383.9,217,383.9,217z"/>
	<g>
		<path class="st6" d="M119.4,197.4c-1-2.1-3.1-4.8-4-5.3c-1.3-0.7-4.5-2.1-4.9-2.3c-1.1-0.5-1.6-1.1-2-0.9
			c-0.4,0.2-0.2,1.5,0.7,2.2c0.7,0.6,3.5,1.8,3.5,2.2c-0.6,0.1-2.6-0.7-3.6-0.9c-2-0.4-6.6-1.1-7.7-1.1c-1-0.1-2.9-0.2-3.3,0.4
			c-0.2,0.3,0.5,0.8,0.9,0.9c0.1,0,0.3,0.1,0.5,0.1c-1-0.1-2.3-0.1-2.6,0.3c-0.2,0.3,0.2,1,0.6,1c0.3,0.1,0.7,0.2,1.2,0.3
			c-0.2,0.2-1.1,0.4-0.8,0.8c0.4,0.6,4.1,2.2,4.1,2.2s-0.6,0-0.7,0.1c-0.2,0.1-0.2,0.9,0.5,1.3c0.7,0.4,7.4,3.5,8.5,4.3
			c1.1,0.7,4.5,1.2,6.3,1.1c1.4-0.1,2.3-0.3,2.3-0.3s1.5-2.1,1.5-3.4C120,198.4,119.4,197.4,119.4,197.4z"/>
		<path class="st41" d="M107.3,194.4c0,0-0.5-0.2-2.3-0.7c-1.8-0.5-5.1-0.6-5.5-1.2c0,0,3.8,0.4,5.6,0.9c1.8,0.5,2.3,0.7,2.3,0.7
			L107.3,194.4z"/>
		<path class="st41" d="M106.7,196.8c-0.2,0.1-0.7-0.2-0.9-0.3c-0.4-0.2-0.7-0.3-1.1-0.5c-0.7-0.3-1.4-0.6-2.1-0.7
			c-1.5-0.4-4-1.1-4-1.1c0,0,2.6,0.5,4.1,0.8c0.8,0.2,1.5,0.5,2.2,0.8c0.4,0.2,0.8,0.3,1.1,0.5C106.2,196.4,106.8,196.5,106.7,196.8
			C106.7,196.8,106.7,196.8,106.7,196.8z"/>
		<path class="st41" d="M106.9,199.4c0,0-1.4-0.6-2.2-0.9l-2.9-1.3l3,1c0.9,0.3,2.2,0.9,2.2,0.9L106.9,199.4z"/>
		<path class="st41" d="M107.1,200.1c-0.2-0.3-0.4-1.4-0.4-1.6c-0.2-0.9-0.3-1.8,0-2.6c0.4-1.7,1.3-2.4,1.3-2.4c0,0-0.5,0.8-1,2.4
			c-0.2,0.9-0.1,1.8,0.1,2.6c0,0.2,0.5,1.6,0.2,1.6C107.2,200.2,107.1,200.1,107.1,200.1z"/>
		
			<linearGradient id="SVGID_14_" gradientUnits="userSpaceOnUse" x1="857.3981" y1="943.4493" x2="862.4992" y2="943.4493" gradientTransform="matrix(0.961 -0.2764 0.2764 0.961 -976.003 -471.7646)">
			<stop  offset="0" style="stop-color:#FFDCAE"/>
			<stop  offset="1" style="stop-color:#FCC89E"/>
		</linearGradient>
		<path class="st42" d="M113.9,199.6c0,0-1-1.3-1.3-2.9c-0.3-1.6,0.1-3.4,0.1-3.4s-1.2,1.6-1.3,2.3s-0.7,2.1-1.3,3.4
			s-0.4,2.3-0.4,2.3s-0.2-0.2,0.8-0.9c1-0.8,2.6-1.2,2.6-1.2L113.9,199.6z"/>
	</g>
</g>
</svg>
