<svg id="Capa_1" enable-background="new 0 0 512 512" height="512" viewBox="0 0 512 512" width="512" xmlns="http://www.w3.org/2000/svg"><path d="m256 0c95.817 0 183.115 176.449 192.426 299.103 9.878 130.119-81.915 212.897-192.426 212.897s-202.304-82.778-192.426-212.897c9.312-122.654 96.609-299.103 192.426-299.103z" fill="#f4e9d3"/><path d="m256 493.419c-102.272 0-188.5-70.902-192.962-184.605-4.699 124.508 85.228 203.186 192.962 203.186s197.661-78.678 192.962-203.186c-4.462 113.704-90.69 184.605-192.962 184.605z" fill="#e5d6be"/><ellipse cx="256" cy="325.975" fill="#ffaa5c" rx="110.661" ry="110.661" transform="matrix(.707 -.707 .707 .707 -155.519 276.495)"/><path d="m256 418.056c-57.987 0-105.55-44.603-110.269-101.371-.255 3.063-.392 6.161-.392 9.29 0 61.116 49.545 110.661 110.661 110.661s110.661-49.545 110.661-110.661c0-3.13-.137-6.227-.392-9.29-4.719 56.768-52.282 101.371-110.269 101.371z" fill="#ff9838"/></svg>