<?xml version="1.0" encoding="utf-8"?>
<!-- Generator: Adobe Illustrator 21.1.0, SVG Export Plug-In . SVG Version: 6.00 Build 0)  -->
<svg version="1.1" xmlns="http://www.w3.org/2000/svg" xmlns:xlink="http://www.w3.org/1999/xlink" x="0px" y="0px"
	 viewBox="0 0 4169.5 2402.2" style="enable-background:new 0 0 4169.5 2402.2;" xml:space="preserve">
<style type="text/css">
	.st0{clip-path:url(#SVGID_2_);}
	.st1{fill:#FFFFFF;}
	.st2{fill:#D9BF8B;}
	.st3{fill:#CDDBD9;}
	.st4{fill:#BDA679;}
	.st5{fill-rule:evenodd;clip-rule:evenodd;fill:#BDA679;}
	.st6{fill-rule:evenodd;clip-rule:evenodd;fill:#F5FDFF;}
	.st7{fill-rule:evenodd;clip-rule:evenodd;fill:#EDEDED;}
	.st8{fill-rule:evenodd;clip-rule:evenodd;fill:#DCDCDC;}
	.st9{fill:#3F6D81;}
	.st10{fill:#375E71;}
	.st11{fill:#6AB1BF;}
	.st12{fill:#437484;}
	.st13{fill:#5386A7;}
	.st14{fill:#5F9FBA;}
	.st15{fill:#477E93;}
	.st16{fill:#9DCDDD;}
	.st17{fill:#86BBD8;}
	.st18{fill:#60A0AD;}
	.st19{opacity:0.54;fill:#2C4D6B;}
	.st20{fill:#639DAD;}
	.st21{fill:#BBE4EB;}
	.st22{fill:#548C94;}
	.st23{fill:#71B1C4;}
	.st24{fill:#5386A4;}
	.st25{fill:#B4DFE9;}
	.st26{fill:#406D83;}
	.st27{fill:#5284AC;}
	.st28{fill:#8CC2DE;}
	.st29{fill:#3F687C;}
	.st30{fill:#89C0D8;}
	.st31{fill:#9ABEDC;}
	.st32{opacity:0.6;fill:#3F687C;}
	.st33{fill:#AAB5C7;}
	.st34{fill:#EAEAEC;}
	.st35{fill:#67728A;}
	.st36{fill:#C0D4E2;}
	.st37{opacity:0.35;fill:#3F687C;}
	.st38{fill:#4F7E8E;}
	.st39{fill:#405968;}
	.st40{opacity:0.82;}
	.st41{fill:#F2FAFF;}
	.st42{opacity:0.28;fill:#BDF2E9;}
	.st43{opacity:0.5;}
	.st44{opacity:0.3;fill:#B6E1FA;}
	.st45{fill:#C9AD75;}
	.st46{fill:#235C5C;}
	.st47{fill:url(#SVGID_3_);}
	.st48{fill:#0E3333;}
	.st49{fill:url(#SVGID_4_);}
	.st50{opacity:0.15;fill:#4F5D66;}
	.st51{fill:url(#SVGID_5_);}
	.st52{fill:url(#SVGID_6_);}
	.st53{fill:url(#SVGID_7_);}
	.st54{fill:url(#SVGID_8_);}
	.st55{fill:url(#SVGID_9_);}
	.st56{fill:url(#SVGID_10_);}
	.st57{fill:url(#SVGID_11_);}
	.st58{fill:url(#SVGID_12_);}
	.st59{fill:url(#SVGID_13_);}
	.st60{fill:url(#SVGID_14_);}
	.st61{fill:url(#SVGID_15_);}
	.st62{fill:url(#SVGID_16_);}
	.st63{fill:url(#SVGID_17_);}
	.st64{fill:url(#SVGID_18_);}
	.st65{fill:url(#SVGID_19_);}
	.st66{fill:url(#SVGID_20_);}
	.st67{fill:url(#SVGID_21_);}
	.st68{fill:url(#SVGID_22_);}
	.st69{fill:url(#SVGID_23_);}
	.st70{fill:url(#SVGID_24_);}
	.st71{fill:url(#SVGID_25_);}
	.st72{fill:url(#SVGID_26_);}
	.st73{fill:url(#SVGID_27_);}
	.st74{fill:url(#SVGID_28_);}
	.st75{fill:url(#SVGID_29_);}
	.st76{fill:url(#SVGID_30_);}
	.st77{fill:url(#SVGID_31_);}
	.st78{fill:url(#SVGID_32_);}
	.st79{fill:url(#SVGID_33_);}
	.st80{fill:url(#SVGID_34_);}
	.st81{fill:url(#SVGID_35_);}
	.st82{fill:url(#SVGID_36_);}
	.st83{fill:url(#SVGID_37_);}
	.st84{fill:url(#SVGID_38_);}
	.st85{fill:url(#SVGID_39_);}
	.st86{opacity:0.3;fill:#4F5D66;}
	.st87{fill:url(#SVGID_40_);}
	.st88{fill:url(#SVGID_41_);}
	.st89{fill:url(#SVGID_42_);}
	.st90{fill:url(#SVGID_43_);}
	.st91{fill:url(#SVGID_44_);}
	.st92{fill:url(#SVGID_45_);}
	.st93{fill:url(#SVGID_46_);}
	.st94{fill:url(#SVGID_47_);}
	.st95{fill:url(#SVGID_48_);}
	.st96{fill:url(#SVGID_49_);}
	.st97{fill:url(#SVGID_50_);}
	.st98{fill:url(#SVGID_51_);}
	.st99{fill:url(#SVGID_52_);}
	.st100{fill:url(#SVGID_53_);}
	.st101{fill:url(#SVGID_54_);}
	.st102{fill:url(#SVGID_55_);}
	.st103{fill:url(#SVGID_56_);}
</style>
<g>
	<defs>
		<rect id="SVGID_1_" y="0" width="4169.5" height="2402.2"/>
	</defs>
	<clipPath id="SVGID_2_">
		<use xlink:href="#SVGID_1_"  style="overflow:visible;"/>
	</clipPath>
	<g class="st0">
		<rect y="0" class="st1" width="4169.5" height="2402.2"/>
		<rect y="667.1" class="st2" width="4169.5" height="1735.1"/>
		<polygon class="st3" points="0,1680.1 0,1735.5 1065.3,1735.5 1164.9,1735.5 1194.3,1735.5 1546.3,1735.5 1644.7,1735.5 
			2452.4,1735.5 2924.9,1735.5 3355,1735.5 3437.7,1735.5 3546.6,1735.5 3629.3,1735.5 3727.2,1735.5 3744.5,1735.5 3854,1735.5 
			3875.9,1735.5 4169.5,1735.5 4169.5,1680.1 4169.5,667.1 4169.5,0 2761.2,0 2739.3,0 2676.2,0 2654.7,0 2613.3,0 2591.6,0 
			1209.9,0 1120.7,0 1007.2,0 857.2,0 680.1,0 530.1,0 395.4,0 287.8,0 255.6,0 105.6,0 0,0 0,667.1 0,700.9 0,1033.3 0,1117.9 
			0,1130.4 		"/>
		<polygon class="st4" points="4169.5,1680.1 2929.4,1680.1 2771.3,1680.1 2489.2,1680.1 2447.9,1680.1 0,1680.1 0,1735.5 0,1757 
			2458.4,1757 2918.9,1757 4169.5,1757 		"/>
		<path class="st5" d="M2763.5,191.5h-597.1c-3.2,0-5.8,2.6-5.8,5.8v368.5c0,3.2,2.6,5.8,5.8,5.8h597.1c3.2,0,5.8-2.6,5.8-5.8V197.3
			C2769.3,194.1,2766.7,191.5,2763.5,191.5z"/>
		<rect x="2179.8" y="217.2" class="st6" width="566.4" height="326.2"/>
		<rect x="2242.7" y="266" class="st7" width="440.5" height="235"/>
		<path class="st8" d="M2416.8,351c12.2,0,22.2-10,22.2-22.2c0-12.2-10-22.2-22.2-22.2c-12.2,0-22.2,10-22.2,22.2
			C2394.6,341.1,2404.6,351,2416.8,351z"/>
		<polygon class="st8" points="2452.7,436.1 2506.7,360.4 2569.6,440.6 2599.1,420.1 2619.1,440.6 2651.2,413 2683.3,431.6 
			2683.3,501 2242.7,501 2242.7,398.9 2292.2,445.8 2333.3,397 2380.8,448.3 2418.1,407.2 		"/>
		<path class="st5" d="M3518,191.5h-597.1c-3.2,0-5.8,2.6-5.8,5.8v368.5c0,3.2,2.6,5.8,5.8,5.8H3518c3.2,0,5.8-2.6,5.8-5.8V197.3
			C3523.8,194.1,3521.2,191.5,3518,191.5z"/>
		<rect x="2934.3" y="217.2" class="st6" width="566.4" height="326.2"/>
		<rect x="2997.2" y="266" class="st7" width="440.5" height="235"/>
		<path class="st8" d="M3171.3,351c12.2,0,22.2-10,22.2-22.2c0-12.2-10-22.2-22.2-22.2c-12.2,0-22.2,10-22.2,22.2
			C3149.1,341.1,3159.1,351,3171.3,351z"/>
		<polygon class="st8" points="3207.2,436.1 3261.2,360.4 3324.1,440.6 3353.7,420.1 3373.6,440.6 3405.7,413 3437.8,431.6 
			3437.8,501 2997.2,501 2997.2,398.9 3046.7,445.8 3087.8,397 3135.3,448.3 3172.6,407.2 		"/>
		<g>
			<g>
				<g>
					<rect y="700.9" class="st9" width="130.1" height="417"/>
					<g>
						<g>
							<rect x="13.7" y="730.6" class="st10" width="18.8" height="29.8"/>
							<rect x="13.7" y="733.3" class="st11" width="15.6" height="27"/>
						</g>
						<g>
							<rect x="51" y="730.6" class="st10" width="18.8" height="29.8"/>
							<rect x="51" y="733.3" class="st11" width="15.6" height="27"/>
						</g>
						<g>
							<rect x="13.7" y="785" class="st10" width="18.8" height="29.8"/>
							<rect x="13.7" y="787.7" class="st11" width="15.6" height="27"/>
						</g>
						<g>
							<rect x="51" y="785" class="st10" width="18.8" height="29.8"/>
							<rect x="51" y="787.7" class="st11" width="15.6" height="27"/>
						</g>
						<g>
							<rect x="13.7" y="839.4" class="st10" width="18.8" height="29.8"/>
							<rect x="13.7" y="842.2" class="st11" width="15.6" height="27"/>
						</g>
						<g>
							<rect x="51" y="839.4" class="st10" width="18.8" height="29.8"/>
							<rect x="51" y="842.2" class="st11" width="15.6" height="27"/>
						</g>
						<g>
							<rect x="13.7" y="893.9" class="st10" width="18.8" height="29.8"/>
							<rect x="13.7" y="896.6" class="st11" width="15.6" height="27"/>
						</g>
						<g>
							<rect x="51" y="893.9" class="st12" width="18.8" height="29.8"/>
							<rect x="51" y="896.6" class="st11" width="15.6" height="27"/>
						</g>
						<g>
							<rect x="13.7" y="948.3" class="st10" width="18.8" height="29.8"/>
							<rect x="13.7" y="951" class="st11" width="15.6" height="27"/>
						</g>
						<g>
							<rect x="51" y="948.3" class="st12" width="18.8" height="29.8"/>
							<rect x="51" y="951" class="st11" width="15.6" height="27"/>
						</g>
						<g>
							<rect x="13.7" y="1002.7" class="st10" width="18.8" height="29.8"/>
							<rect x="13.7" y="1005.5" class="st11" width="15.6" height="27"/>
						</g>
						<g>
							<rect x="51" y="1002.7" class="st12" width="18.8" height="29.8"/>
							<rect x="51" y="1005.5" class="st11" width="15.6" height="27"/>
						</g>
						<g>
							<rect x="88.2" y="730.6" class="st12" width="18.8" height="29.8"/>
							<rect x="88.2" y="733.3" class="st11" width="15.6" height="27"/>
						</g>
						<g>
							<rect x="88.2" y="785" class="st12" width="18.8" height="29.8"/>
							<rect x="88.2" y="787.7" class="st11" width="15.6" height="27"/>
						</g>
						<g>
							<rect x="88.2" y="839.4" class="st12" width="18.8" height="29.8"/>
							<rect x="88.2" y="842.2" class="st11" width="15.6" height="27"/>
						</g>
						<g>
							<rect x="88.2" y="893.9" class="st12" width="18.8" height="29.8"/>
							<rect x="88.2" y="896.6" class="st11" width="15.6" height="27"/>
						</g>
						<g>
							<rect x="88.2" y="948.3" class="st12" width="18.8" height="29.8"/>
							<rect x="88.2" y="951" class="st11" width="15.6" height="27"/>
						</g>
						<g>
							<rect x="88.2" y="1002.7" class="st12" width="18.8" height="29.8"/>
							<rect x="88.2" y="1005.5" class="st11" width="15.6" height="27"/>
						</g>
						<g>
							<rect x="13.7" y="1054.4" class="st12" width="18.8" height="29.8"/>
							<rect x="13.7" y="1057.1" class="st11" width="15.6" height="27"/>
						</g>
						<g>
							<rect x="51" y="1054.4" class="st12" width="18.8" height="29.8"/>
							<rect x="51" y="1057.1" class="st11" width="15.6" height="27"/>
						</g>
						<g>
							<rect x="88.2" y="1054.4" class="st12" width="18.8" height="29.8"/>
							<rect x="88.2" y="1057.1" class="st11" width="15.6" height="27"/>
						</g>
					</g>
				</g>
				<g>
					<g>
						<polygon class="st13" points="733.1,272.2 639.9,272.2 639.9,295.8 639.9,308 639.9,350.6 639.9,362.8 639.9,405.4 
							639.9,417.6 639.9,460.2 639.9,472.4 639.9,515 639.9,527.1 639.9,569.7 639.9,581.9 639.9,624.5 639.9,636.7 639.9,679.3 
							639.9,691.5 639.9,734.1 639.9,746.3 639.9,788.9 639.9,801 639.9,843.6 639.9,855.8 639.9,898.4 639.9,910.6 639.9,953.2 
							639.9,965.4 639.9,1008 639.9,1020.2 639.9,1062.8 639.9,1074.9 639.9,1117.2 735.3,1117.2 735.3,1074.9 735.3,1062.8 
							735.3,1020.2 735.3,1008 735.3,965.4 735.3,953.2 735.3,910.6 735.3,898.4 735.3,855.8 735.3,843.6 735.3,801 735.3,788.9 
							735.3,746.3 735.3,734.1 735.3,691.5 735.3,679.3 735.3,636.7 735.3,624.5 735.3,581.9 735.3,569.7 735.3,527.1 735.3,515 
							735.3,472.4 735.3,460.2 735.3,417.6 735.3,405.4 735.3,362.8 735.3,350.6 						"/>
						<polygon class="st13" points="733.1,272.2 733.1,295.8 733.1,308 733.1,350.6 733.1,362.8 733.1,405.4 733.1,417.6 
							733.1,460.2 733.1,472.4 733.1,515 733.1,527.1 733.1,569.7 733.1,581.9 733.1,624.5 733.1,636.7 733.1,679.3 733.1,691.5 
							733.1,734.1 733.1,746.3 733.1,788.9 733.1,801 733.1,843.6 733.1,855.8 733.1,898.4 733.1,910.6 733.1,953.2 733.1,965.4 
							733.1,1008 733.1,1020.2 733.1,1062.8 733.1,1074.9 733.1,1117.2 906.6,1117.2 906.6,1074.9 906.6,1062.8 906.6,1020.2 
							906.6,1008 906.6,965.4 906.6,953.2 906.6,910.6 906.6,898.4 906.6,855.8 906.6,843.6 906.6,801 906.6,788.9 906.6,746.3 
							906.6,734.1 906.6,691.5 906.6,679.3 906.6,636.7 906.6,624.5 906.6,581.9 906.6,569.7 906.6,527.1 906.6,515 906.6,472.4 
							906.6,460.2 906.6,417.6 906.6,405.4 906.6,362.8 906.6,350.6 906.6,350.6 						"/>
					</g>
					<g>
						<rect x="639.9" y="867.3" class="st14" width="92.7" height="40.7"/>
						<rect x="639.9" y="762.5" class="st14" width="92.7" height="40.7"/>
						<rect x="639.9" y="710.1" class="st14" width="92.7" height="40.7"/>
						<rect x="639.9" y="657.7" class="st14" width="93.2" height="40.7"/>
						<rect x="639.9" y="1076.8" class="st14" width="92.7" height="40.4"/>
						<rect x="639.9" y="919.6" class="st14" width="92.7" height="40.7"/>
						<rect x="639.9" y="1024.4" class="st14" width="92.7" height="40.7"/>
						<rect x="639.9" y="605.3" class="st14" width="93.2" height="40.7"/>
						<rect x="639.9" y="972" class="st14" width="92.7" height="40.7"/>
						<rect x="639.9" y="814.9" class="st14" width="92.7" height="40.7"/>
						<rect x="639.9" y="309.2" class="st14" width="93.2" height="22.6"/>
						<rect x="639.9" y="500.6" class="st14" width="93.2" height="40.7"/>
						<rect x="639.9" y="448.2" class="st14" width="93.2" height="40.7"/>
						<rect x="639.9" y="395.8" class="st14" width="93.2" height="40.7"/>
						<rect x="639.9" y="553" class="st14" width="93.2" height="40.7"/>
						<rect x="639.9" y="343.4" class="st14" width="93.2" height="40.7"/>
						<rect x="639.9" y="331.8" class="st15" width="93.2" height="11.6"/>
						<rect x="639.9" y="384.2" class="st15" width="93.2" height="11.6"/>
						<rect x="639.9" y="436.6" class="st15" width="93.2" height="11.6"/>
						<rect x="639.9" y="488.9" class="st15" width="93.2" height="11.6"/>
						<rect x="639.9" y="541.3" class="st15" width="93.2" height="11.6"/>
						<rect x="639.9" y="593.7" class="st15" width="93.2" height="11.6"/>
						<rect x="639.9" y="646.1" class="st15" width="93.2" height="11.6"/>
						<rect x="639.9" y="698.5" class="st15" width="92.7" height="11.6"/>
						<rect x="639.9" y="750.9" class="st15" width="92.7" height="11.6"/>
						<rect x="639.9" y="803.2" class="st15" width="92.7" height="11.6"/>
						<rect x="639.9" y="855.6" class="st15" width="92.7" height="11.6"/>
						<rect x="639.9" y="908" class="st15" width="92.7" height="11.6"/>
						<rect x="639.9" y="960.4" class="st15" width="92.7" height="11.6"/>
						<rect x="639.9" y="1012.8" class="st15" width="92.7" height="11.6"/>
						<rect x="639.9" y="1065.1" class="st15" width="92.7" height="11.6"/>
						<rect x="733.1" y="1076.8" class="st16" width="149.2" height="40.4"/>
						<rect x="733.1" y="710.1" class="st17" width="149.2" height="40.7"/>
						<rect x="733.1" y="657.7" class="st17" width="149.2" height="40.7"/>
						<polygon class="st17" points="733.1,309.2 733.1,331.8 798.7,331.8 833.1,343.4 733.1,343.4 733.1,384.2 882.4,384.2 
							882.4,360.3 						"/>
						<rect x="733.1" y="553" class="st17" width="149.2" height="40.7"/>
						<rect x="733.1" y="500.6" class="st17" width="149.2" height="40.7"/>
						<rect x="733.1" y="814.9" class="st16" width="149.2" height="40.7"/>
						<rect x="733.1" y="762.5" class="st16" width="149.2" height="40.7"/>
						<rect x="733.1" y="867.3" class="st16" width="149.2" height="40.7"/>
						<rect x="733.1" y="919.6" class="st16" width="149.2" height="40.7"/>
						<rect x="733.1" y="1024.4" class="st16" width="149.2" height="40.7"/>
						<rect x="733.1" y="972" class="st16" width="149.2" height="40.7"/>
						<rect x="733.1" y="605.3" class="st17" width="149.2" height="40.7"/>
						<rect x="733.1" y="395.8" class="st17" width="149.2" height="40.7"/>
						<rect x="733.1" y="448.2" class="st17" width="149.2" height="40.7"/>
						<polygon class="st18" points="798.7,331.8 733.1,331.8 733.1,343.4 833.1,343.4 						"/>
						<rect x="733.1" y="384.2" class="st18" width="149.2" height="11.6"/>
						<rect x="733.1" y="436.6" class="st18" width="149.2" height="11.6"/>
						<rect x="733.1" y="488.9" class="st18" width="149.2" height="11.6"/>
						<rect x="733.1" y="541.3" class="st18" width="149.2" height="11.6"/>
						<rect x="733.1" y="593.7" class="st18" width="149.2" height="11.6"/>
						<rect x="733.1" y="646.1" class="st18" width="149.2" height="11.6"/>
						<rect x="733.1" y="698.5" class="st18" width="149.2" height="11.6"/>
						<rect x="733.1" y="750.9" class="st18" width="149.2" height="11.6"/>
						<rect x="733.1" y="803.2" class="st18" width="149.2" height="11.6"/>
						<rect x="733.1" y="855.6" class="st18" width="149.2" height="11.6"/>
						<rect x="733.1" y="908" class="st18" width="149.2" height="11.6"/>
						<rect x="733.1" y="960.4" class="st18" width="149.2" height="11.6"/>
						<rect x="733.1" y="1012.8" class="st18" width="149.2" height="11.6"/>
						<rect x="733.1" y="1065.1" class="st18" width="149.2" height="11.6"/>
					</g>
					<polygon class="st19" points="859.4,1116.8 753.8,1116.8 753.8,889.4 810.1,837.7 859.4,837.7 					"/>
				</g>
				<g>
					<g>
						<rect x="83.2" y="529.1" class="st20" width="238.8" height="582.2"/>
						<g>
							<g>
								<rect x="108" y="538.8" class="st12" width="27.9" height="41.3"/>
								<rect x="108" y="543.8" class="st21" width="22.6" height="36.3"/>
							</g>
							<g>
								<rect x="108" y="591.3" class="st12" width="27.9" height="41.3"/>
								<rect x="108" y="596.3" class="st21" width="22.6" height="36.3"/>
							</g>
							<g>
								<rect x="108" y="643.8" class="st12" width="27.9" height="41.3"/>
								<rect x="108" y="648.7" class="st21" width="22.6" height="36.3"/>
							</g>
							<g>
								<rect x="108" y="696.2" class="st12" width="27.9" height="41.3"/>
								<rect x="108" y="701.2" class="st21" width="22.6" height="36.3"/>
							</g>
							<g>
								<rect x="108" y="748.7" class="st12" width="27.9" height="41.3"/>
								<rect x="108" y="753.7" class="st21" width="22.6" height="36.3"/>
							</g>
							<g>
								<rect x="108" y="801.2" class="st12" width="27.9" height="41.3"/>
								<rect x="108" y="806.1" class="st21" width="22.6" height="36.3"/>
							</g>
							<g>
								<rect x="108" y="853.6" class="st22" width="27.9" height="41.3"/>
								<rect x="108" y="858.6" class="st21" width="22.6" height="36.3"/>
							</g>
							<g>
								<rect x="108" y="906.1" class="st22" width="27.9" height="41.3"/>
								<rect x="108" y="911.1" class="st21" width="22.6" height="36.3"/>
							</g>
							<g>
								<rect x="108" y="958.6" class="st22" width="27.9" height="41.3"/>
								<rect x="108" y="963.5" class="st21" width="22.6" height="36.3"/>
							</g>
							<g>
								<rect x="108" y="1011" class="st22" width="27.9" height="41.3"/>
								<rect x="108" y="1016" class="st21" width="22.6" height="36.3"/>
							</g>
						</g>
						<g>
							<g>
								<rect x="269" y="538.8" class="st12" width="27.9" height="41.3"/>
								<rect x="269" y="543.8" class="st21" width="22.6" height="36.3"/>
							</g>
							<g>
								<rect x="269" y="591.3" class="st12" width="27.9" height="41.3"/>
								<rect x="269" y="596.3" class="st21" width="22.6" height="36.3"/>
							</g>
							<g>
								<rect x="269" y="643.8" class="st12" width="27.9" height="41.3"/>
								<rect x="269" y="648.7" class="st21" width="22.6" height="36.3"/>
							</g>
							<g>
								<rect x="269" y="696.2" class="st12" width="27.9" height="41.3"/>
								<rect x="269" y="701.2" class="st21" width="22.6" height="36.3"/>
							</g>
							<g>
								<rect x="269" y="748.7" class="st12" width="27.9" height="41.3"/>
								<rect x="269" y="753.7" class="st21" width="22.6" height="36.3"/>
							</g>
							<g>
								<rect x="269" y="801.2" class="st12" width="27.9" height="41.3"/>
								<rect x="269" y="806.1" class="st21" width="22.6" height="36.3"/>
							</g>
							<g>
								<rect x="269" y="853.6" class="st12" width="27.9" height="41.3"/>
								<rect x="269" y="858.6" class="st21" width="22.6" height="36.3"/>
							</g>
							<g>
								<rect x="269" y="906.1" class="st12" width="27.9" height="41.3"/>
								<rect x="269" y="911.1" class="st21" width="22.6" height="36.3"/>
							</g>
							<g>
								<rect x="269" y="958.6" class="st12" width="27.9" height="41.3"/>
								<rect x="269" y="963.5" class="st21" width="22.6" height="36.3"/>
							</g>
							<g>
								<rect x="269" y="1011" class="st12" width="27.9" height="41.3"/>
								<rect x="269" y="1016" class="st21" width="22.6" height="36.3"/>
							</g>
						</g>
						<g>
							<g>
								<rect x="217.1" y="538.8" class="st12" width="27.9" height="41.3"/>
								<rect x="217.1" y="543.8" class="st21" width="22.6" height="36.3"/>
							</g>
							<g>
								<rect x="217.1" y="591.3" class="st12" width="27.9" height="41.3"/>
								<rect x="217.1" y="596.3" class="st21" width="22.6" height="36.3"/>
							</g>
							<g>
								<rect x="217.1" y="643.8" class="st12" width="27.9" height="41.3"/>
								<rect x="217.1" y="648.7" class="st21" width="22.6" height="36.3"/>
							</g>
							<g>
								<rect x="217.1" y="696.2" class="st12" width="27.9" height="41.3"/>
								<rect x="217.1" y="701.2" class="st21" width="22.6" height="36.3"/>
							</g>
							<g>
								<rect x="217.1" y="748.7" class="st12" width="27.9" height="41.3"/>
								<rect x="217.1" y="753.7" class="st21" width="22.6" height="36.3"/>
							</g>
							<g>
								<rect x="217.1" y="801.2" class="st12" width="27.9" height="41.3"/>
								<rect x="217.1" y="806.1" class="st21" width="22.6" height="36.3"/>
							</g>
							<g>
								<rect x="217.1" y="853.6" class="st12" width="27.9" height="41.3"/>
								<rect x="217.1" y="858.6" class="st21" width="22.6" height="36.3"/>
							</g>
							<g>
								<rect x="217.1" y="906.1" class="st22" width="27.9" height="41.3"/>
								<rect x="217.1" y="911.1" class="st21" width="22.6" height="36.3"/>
							</g>
							<g>
								<rect x="217.1" y="958.6" class="st22" width="27.9" height="41.3"/>
								<rect x="217.1" y="963.5" class="st21" width="22.6" height="36.3"/>
							</g>
							<g>
								<rect x="217.1" y="1011" class="st22" width="27.9" height="41.3"/>
								<rect x="217.1" y="1016" class="st21" width="22.6" height="36.3"/>
							</g>
						</g>
						<g>
							<g>
								<rect x="162.9" y="538.8" class="st12" width="27.9" height="41.3"/>
								<rect x="162.9" y="543.8" class="st21" width="22.6" height="36.3"/>
							</g>
							<g>
								<rect x="162.9" y="591.3" class="st12" width="27.9" height="41.3"/>
								<rect x="162.9" y="596.3" class="st21" width="22.6" height="36.3"/>
							</g>
							<g>
								<rect x="162.9" y="643.8" class="st12" width="27.9" height="41.3"/>
								<rect x="162.9" y="648.7" class="st21" width="22.6" height="36.3"/>
							</g>
							<g>
								<rect x="162.9" y="696.2" class="st12" width="27.9" height="41.3"/>
								<rect x="162.9" y="701.2" class="st21" width="22.6" height="36.3"/>
							</g>
							<g>
								<rect x="162.9" y="748.7" class="st12" width="27.9" height="41.3"/>
								<rect x="162.9" y="753.7" class="st21" width="22.6" height="36.3"/>
							</g>
							<g>
								<rect x="162.9" y="801.2" class="st12" width="27.9" height="41.3"/>
								<rect x="162.9" y="806.1" class="st21" width="22.6" height="36.3"/>
							</g>
							<g>
								<rect x="162.9" y="853.6" class="st22" width="27.9" height="41.3"/>
								<rect x="162.9" y="858.6" class="st21" width="22.6" height="36.3"/>
							</g>
							<g>
								<rect x="162.9" y="906.1" class="st22" width="27.9" height="41.3"/>
								<rect x="162.9" y="911.1" class="st21" width="22.6" height="36.3"/>
							</g>
							<g>
								<rect x="162.9" y="958.6" class="st22" width="27.9" height="41.3"/>
								<rect x="162.9" y="963.5" class="st21" width="22.6" height="36.3"/>
							</g>
							<g>
								<rect x="162.9" y="1011" class="st22" width="27.9" height="41.3"/>
								<rect x="162.9" y="1016" class="st21" width="22.6" height="36.3"/>
							</g>
						</g>
					</g>
					<rect x="99.8" y="497.9" class="st18" width="205.6" height="33.9"/>
					<rect x="132.1" y="478.5" class="st18" width="141" height="23.3"/>
				</g>
				<rect x="1097.1" y="406.6" class="st23" width="92.6" height="701.1"/>
				<polygon class="st24" points="1189.7,356.5 1189.7,406.6 1097.1,406.6 				"/>
				<g>
					<g>
						<rect x="1111" y="425.7" class="st12" width="33.6" height="49.7"/>
						<rect x="1111" y="431.7" class="st21" width="27.2" height="43.7"/>
					</g>
					<g>
						<rect x="1111" y="488.9" class="st12" width="33.6" height="49.7"/>
						<rect x="1111" y="494.9" class="st21" width="27.2" height="43.7"/>
					</g>
					<g>
						<rect x="1111" y="552.1" class="st12" width="33.6" height="49.7"/>
						<rect x="1111" y="558.1" class="st21" width="27.2" height="43.7"/>
					</g>
					<g>
						<rect x="1111" y="615.3" class="st12" width="33.6" height="49.7"/>
						<rect x="1111" y="621.3" class="st21" width="27.2" height="43.7"/>
					</g>
					<g>
						<rect x="1111" y="678.4" class="st12" width="33.6" height="49.7"/>
						<rect x="1111" y="684.4" class="st21" width="27.2" height="43.7"/>
					</g>
					<g>
						<rect x="1111" y="741.6" class="st12" width="33.6" height="49.7"/>
						<rect x="1111" y="747.6" class="st21" width="27.2" height="43.7"/>
					</g>
					<g>
						<rect x="1111" y="804.8" class="st12" width="33.6" height="49.7"/>
						<rect x="1111" y="810.8" class="st21" width="27.2" height="43.7"/>
					</g>
					<g>
						<rect x="1111" y="868" class="st12" width="33.6" height="49.7"/>
						<rect x="1111" y="874" class="st21" width="27.2" height="43.7"/>
					</g>
					<g>
						<rect x="1111" y="931.2" class="st12" width="33.6" height="49.7"/>
						<rect x="1111" y="937.2" class="st21" width="27.2" height="43.7"/>
					</g>
					<g>
						<rect x="1111" y="994.4" class="st12" width="33.6" height="49.7"/>
						<rect x="1111" y="1000.3" class="st21" width="27.2" height="43.7"/>
					</g>
				</g>
				<rect x="1169.8" y="425.7" class="st25" width="20" height="618.4"/>
				<g>
					<g>
						<rect x="352.9" y="305.4" class="st20" width="93.2" height="808"/>
					</g>
					<g>
						<polygon class="st21" points="595.4,1113.4 446.1,1113.4 446.1,305.4 595.4,217.8 						"/>
						<g>
							<rect x="446.1" y="328" class="st18" width="149.3" height="11.6"/>
							<rect x="446.1" y="380.4" class="st18" width="149.3" height="11.6"/>
							<rect x="446.1" y="432.8" class="st18" width="149.3" height="11.6"/>
							<rect x="446.1" y="485.2" class="st18" width="149.3" height="11.6"/>
							<rect x="446.1" y="537.6" class="st18" width="149.3" height="11.6"/>
							<rect x="446.1" y="589.9" class="st18" width="149.3" height="11.6"/>
							<rect x="446.1" y="642.3" class="st18" width="149.3" height="11.6"/>
							<rect x="446.1" y="694.7" class="st18" width="149.3" height="11.6"/>
							<rect x="446.1" y="747.1" class="st18" width="149.3" height="11.6"/>
							<rect x="446.1" y="799.5" class="st18" width="149.3" height="11.6"/>
							<rect x="446.1" y="851.8" class="st18" width="149.3" height="11.6"/>
							<rect x="446.1" y="904.2" class="st18" width="149.3" height="11.6"/>
							<rect x="446.1" y="956.6" class="st18" width="149.3" height="11.6"/>
							<rect x="446.1" y="1009" class="st18" width="149.3" height="11.6"/>
							<rect x="446.1" y="1061.4" class="st18" width="149.3" height="11.6"/>
						</g>
					</g>
					<polygon class="st20" points="446.1,305.4 352.9,305.4 498.8,218.7 595.4,217.8 					"/>
				</g>
				<g>
					<g>
						<polygon class="st26" points="828,470 828,1116.4 860.5,1116.4 893.6,1116.4 926.2,1116.4 926.2,470 						"/>
						<g>
							<rect x="828" y="470" class="st27" width="98.2" height="31.3"/>
							<rect x="828" y="523.8" class="st27" width="98.2" height="32.2"/>
							<rect x="828" y="578.9" class="st27" width="98.2" height="32.2"/>
							<rect x="828" y="634" class="st27" width="98.2" height="32.2"/>
							<rect x="828" y="689.1" class="st27" width="98.2" height="32.2"/>
							<rect x="828" y="744.3" class="st27" width="98.2" height="32.2"/>
							<rect x="828" y="799.4" class="st27" width="98.2" height="32.2"/>
							<rect x="828" y="854.5" class="st27" width="98.2" height="32.2"/>
							<rect x="828" y="909.6" class="st27" width="98.2" height="32.2"/>
							<rect x="828" y="964.7" class="st27" width="98.2" height="32.2"/>
							<rect x="828" y="1019.9" class="st27" width="98.2" height="32.2"/>
							<rect x="828" y="1075" class="st27" width="98.2" height="32.2"/>
						</g>
					</g>
					<g>
						<polygon class="st24" points="1055.3,470 990.2,468.7 926.2,468.7 926.2,1116.4 990.2,1116.4 1055.3,1116.4 1119.3,1116.4 
							1119.3,470 						"/>
						<g>
							<rect x="926.2" y="470" class="st28" width="193.2" height="31.3"/>
							<rect x="926.2" y="524.3" class="st28" width="193.2" height="32.2"/>
							<rect x="926.2" y="578.9" class="st28" width="193.2" height="32.2"/>
							<rect x="926.2" y="634" class="st28" width="193.2" height="32.2"/>
							<rect x="926.2" y="689.1" class="st28" width="193.2" height="32.2"/>
							<rect x="926.2" y="744.3" class="st28" width="193.2" height="32.2"/>
							<rect x="926.2" y="799.4" class="st28" width="193.2" height="32.2"/>
							<rect x="926.2" y="854.5" class="st28" width="193.2" height="32.2"/>
							<rect x="926.2" y="909.6" class="st28" width="193.2" height="32.2"/>
							<rect x="926.2" y="964.7" class="st28" width="193.2" height="32.2"/>
							<rect x="926.2" y="1019.9" class="st28" width="193.2" height="32.2"/>
							<rect x="926.2" y="1075" class="st28" width="193.2" height="32.2"/>
						</g>
					</g>
					<g>
						<rect x="858.6" y="435.8" class="st29" width="67.6" height="34.2"/>
						<polygon class="st30" points="858.6,435.8 926.2,435.8 1009.9,393.3 942.3,393.3 						"/>
						<polygon class="st13" points="926.2,470 1090.4,470 1090.4,439 1009.9,393.3 926.2,435.8 						"/>
					</g>
				</g>
				<g>
					<polygon class="st9" points="827.5,1114.2 728.1,1114.2 728.1,793.7 767.6,752.7 827.5,752.7 					"/>
					<rect x="823.3" y="808.8" class="st31" width="145.5" height="305.4"/>
					<polygon class="st25" points="968.8,808.8 823.3,808.8 767.6,752.7 913.1,752.7 					"/>
				</g>
				<g>
					<rect x="446.1" y="696.7" class="st32" width="137.8" height="414.5"/>
					<rect x="496.2" y="685.8" class="st33" width="168.1" height="425.4"/>
					<rect x="577.3" y="685.8" class="st34" width="168.1" height="425.4"/>
				</g>
				<g>
					<g>
						<rect x="598.9" y="725.1" class="st35" width="18.8" height="29.8"/>
						<rect x="598.9" y="727.8" class="st36" width="15.6" height="27"/>
					</g>
					<g>
						<rect x="636.2" y="725.1" class="st35" width="18.8" height="29.8"/>
						<rect x="636.2" y="727.8" class="st36" width="15.6" height="27"/>
					</g>
					<g>
						<rect x="673.5" y="725.1" class="st35" width="18.8" height="29.8"/>
						<rect x="673.5" y="727.8" class="st36" width="15.6" height="27"/>
					</g>
					<g>
						<rect x="710.8" y="725.1" class="st35" width="18.8" height="29.8"/>
						<rect x="710.8" y="727.8" class="st36" width="15.6" height="27"/>
					</g>
					<g>
						<rect x="598.9" y="779.5" class="st35" width="18.8" height="29.8"/>
						<rect x="598.9" y="782.3" class="st36" width="15.6" height="27"/>
					</g>
					<g>
						<rect x="636.2" y="779.5" class="st35" width="18.8" height="29.8"/>
						<rect x="636.2" y="782.3" class="st36" width="15.6" height="27"/>
					</g>
					<g>
						<rect x="673.5" y="779.5" class="st35" width="18.8" height="29.8"/>
						<rect x="673.5" y="782.3" class="st36" width="15.6" height="27"/>
					</g>
					<g>
						<rect x="710.8" y="779.5" class="st35" width="18.8" height="29.8"/>
						<rect x="710.8" y="782.3" class="st36" width="15.6" height="27"/>
					</g>
					<g>
						<rect x="598.9" y="834" class="st35" width="18.8" height="29.8"/>
						<rect x="598.9" y="836.7" class="st36" width="15.6" height="27"/>
					</g>
					<g>
						<rect x="636.2" y="834" class="st35" width="18.8" height="29.8"/>
						<rect x="636.2" y="836.7" class="st36" width="15.6" height="27"/>
					</g>
					<g>
						<rect x="673.5" y="834" class="st35" width="18.8" height="29.8"/>
						<rect x="673.5" y="836.7" class="st36" width="15.6" height="27"/>
					</g>
					<g>
						<rect x="710.8" y="834" class="st35" width="18.8" height="29.8"/>
						<rect x="710.8" y="836.7" class="st36" width="15.6" height="27"/>
					</g>
					<g>
						<rect x="598.9" y="888.4" class="st35" width="18.8" height="29.8"/>
						<rect x="598.9" y="891.1" class="st36" width="15.6" height="27"/>
					</g>
					<g>
						<rect x="636.2" y="888.4" class="st35" width="18.8" height="29.8"/>
						<rect x="636.2" y="891.1" class="st36" width="15.6" height="27"/>
					</g>
					<g>
						<rect x="673.5" y="888.4" class="st35" width="18.8" height="29.8"/>
						<rect x="673.5" y="891.1" class="st36" width="15.6" height="27"/>
					</g>
					<g>
						<rect x="710.8" y="888.4" class="st35" width="18.8" height="29.8"/>
						<rect x="710.8" y="891.1" class="st36" width="15.6" height="27"/>
					</g>
					<g>
						<rect x="598.9" y="942.8" class="st35" width="18.8" height="29.8"/>
						<rect x="598.9" y="945.6" class="st36" width="15.6" height="27"/>
					</g>
					<g>
						<rect x="636.2" y="942.8" class="st35" width="18.8" height="29.8"/>
						<rect x="636.2" y="945.6" class="st36" width="15.6" height="27"/>
					</g>
					<g>
						<rect x="673.5" y="942.8" class="st35" width="18.8" height="29.8"/>
						<rect x="673.5" y="945.6" class="st36" width="15.6" height="27"/>
					</g>
					<g>
						<rect x="710.8" y="942.8" class="st35" width="18.8" height="29.8"/>
						<rect x="710.8" y="945.6" class="st36" width="15.6" height="27"/>
					</g>
					<g>
						<rect x="598.9" y="997.3" class="st35" width="18.8" height="29.8"/>
						<rect x="598.9" y="1000" class="st36" width="15.6" height="27"/>
					</g>
					<g>
						<rect x="636.2" y="997.3" class="st35" width="18.8" height="29.8"/>
						<rect x="636.2" y="1000" class="st36" width="15.6" height="27"/>
					</g>
					<g>
						<rect x="673.5" y="997.3" class="st35" width="18.8" height="29.8"/>
						<rect x="673.5" y="1000" class="st36" width="15.6" height="27"/>
					</g>
					<g>
						<rect x="710.8" y="997.3" class="st35" width="18.8" height="29.8"/>
						<rect x="710.8" y="1000" class="st36" width="15.6" height="27"/>
					</g>
				</g>
				<rect x="1169.8" y="660.1" class="st37" width="20" height="448.2"/>
				<g>
					<g>
						<rect x="507.6" y="922.3" class="st31" width="83.4" height="190"/>
						<polygon class="st21" points="533.5,865.8 450,865.8 507.6,922.3 591.1,922.3 						"/>
						<polygon class="st15" points="450,865.8 392.4,922.3 392.4,1112.3 450,1112.3 507.6,1112.3 507.6,922.3 						"/>
					</g>
					<g>
						<g>
							<rect x="516" y="939.4" class="st12" width="28.3" height="34.2"/>
							<rect x="516" y="943.8" class="st18" width="22.5" height="29.8"/>
						</g>
						<g>
							<rect x="554.4" y="939.4" class="st12" width="28.3" height="34.2"/>
							<rect x="554.4" y="943.8" class="st18" width="22.5" height="29.8"/>
						</g>
						<g>
							<rect x="516" y="994.7" class="st12" width="28.3" height="34.2"/>
							<rect x="516" y="999.1" class="st18" width="22.5" height="29.8"/>
						</g>
						<g>
							<rect x="554.4" y="994.7" class="st12" width="28.3" height="34.2"/>
							<rect x="554.4" y="999.1" class="st18" width="22.5" height="29.8"/>
						</g>
						<g>
							<rect x="516" y="1050" class="st12" width="28.3" height="34.2"/>
							<rect x="516" y="1054.4" class="st18" width="22.5" height="29.8"/>
						</g>
						<g>
							<rect x="554.4" y="1050" class="st12" width="28.3" height="34.2"/>
							<rect x="554.4" y="1054.4" class="st18" width="22.5" height="29.8"/>
						</g>
					</g>
				</g>
				<g>
					<g>
						<g>
							<rect x="846.4" y="831.9" class="st38" width="28.3" height="34.2"/>
							<rect x="846.4" y="836.4" class="st21" width="22.5" height="29.8"/>
						</g>
						<g>
							<rect x="884.8" y="831.9" class="st38" width="28.3" height="34.2"/>
							<rect x="884.8" y="836.4" class="st21" width="22.5" height="29.8"/>
						</g>
						<g>
							<rect x="846.4" y="887.2" class="st38" width="28.3" height="34.2"/>
							<rect x="846.4" y="891.7" class="st21" width="22.5" height="29.8"/>
						</g>
						<g>
							<rect x="884.8" y="887.2" class="st38" width="28.3" height="34.2"/>
							<rect x="884.8" y="891.7" class="st21" width="22.5" height="29.8"/>
						</g>
						<g>
							<rect x="846.4" y="942.5" class="st39" width="28.3" height="34.2"/>
						</g>
						<g>
							<rect x="884.8" y="942.5" class="st39" width="28.3" height="34.2"/>
						</g>
						<g>
							<rect x="923.2" y="831.9" class="st38" width="28.3" height="34.2"/>
							<rect x="923.2" y="836.4" class="st21" width="22.5" height="29.8"/>
						</g>
						<g>
							<rect x="923.2" y="887.2" class="st38" width="28.3" height="34.2"/>
							<rect x="923.2" y="891.7" class="st21" width="22.5" height="29.8"/>
						</g>
						<g>
							<rect x="923.2" y="942.5" class="st39" width="28.3" height="34.2"/>
						</g>
					</g>
					<g>
						<g>
							<rect x="846.4" y="941.5" class="st38" width="28.3" height="34.2"/>
							<rect x="846.4" y="946.6" class="st21" width="22.5" height="30.1"/>
						</g>
						<g>
							<rect x="884.8" y="941.5" class="st38" width="28.3" height="34.2"/>
							<rect x="884.8" y="947.5" class="st21" width="22.5" height="29.4"/>
						</g>
						<g>
							<rect x="846.4" y="996.8" class="st38" width="28.3" height="34.2"/>
							<rect x="846.4" y="1001.2" class="st21" width="22.5" height="29.8"/>
						</g>
						<g>
							<rect x="884.8" y="996.8" class="st38" width="28.3" height="34.2"/>
							<rect x="884.8" y="1001.2" class="st21" width="22.5" height="29.8"/>
						</g>
						<g>
							<rect x="846.4" y="1052" class="st38" width="28.3" height="34.2"/>
							<rect x="846.4" y="1056.5" class="st21" width="22.5" height="29.8"/>
						</g>
						<g>
							<rect x="884.8" y="1052" class="st38" width="28.3" height="34.2"/>
							<rect x="884.8" y="1056.5" class="st21" width="22.5" height="29.8"/>
						</g>
						<g>
							<rect x="923.2" y="941.5" class="st38" width="28.3" height="34.2"/>
							<rect x="923.2" y="947.5" class="st21" width="22.5" height="29.4"/>
						</g>
						<g>
							<rect x="923.2" y="996.8" class="st38" width="28.3" height="34.2"/>
							<rect x="923.2" y="1001.2" class="st21" width="22.5" height="29.8"/>
						</g>
						<g>
							<rect x="923.2" y="1052" class="st38" width="28.3" height="34.2"/>
							<rect x="923.2" y="1056.5" class="st21" width="22.5" height="29.8"/>
						</g>
					</g>
				</g>
				<g>
					<g>
						<rect x="117.7" y="875.6" class="st34" width="127.8" height="232.6"/>
						<polygon class="st33" points="117.7,1108.3 28.5,1108.3 28.5,876.9 76.1,824.3 117.7,824.3 						"/>
						<polygon class="st36" points="245.5,875.6 117.7,875.6 76.1,824.3 203.9,824.3 						"/>
					</g>
					<g>
						<g>
							<g>
								<rect x="139.1" y="893.4" class="st35" width="23.9" height="26.7"/>
								<rect x="139.1" y="896.9" class="st36" width="19" height="23.3"/>
							</g>
							<g>
								<rect x="171.5" y="893.4" class="st35" width="23.9" height="26.7"/>
								<rect x="171.5" y="896.9" class="st36" width="19" height="23.3"/>
							</g>
							<g>
								<rect x="139.1" y="936.6" class="st35" width="23.9" height="26.7"/>
								<rect x="139.1" y="940.1" class="st36" width="19" height="23.3"/>
							</g>
							<g>
								<rect x="171.5" y="936.6" class="st35" width="23.9" height="26.7"/>
								<rect x="171.5" y="940.1" class="st36" width="19" height="23.3"/>
							</g>
							<g>
								<rect x="139.1" y="979.8" class="st39" width="23.9" height="26.7"/>
								<rect x="139.1" y="983.3" class="st12" width="19" height="23.3"/>
							</g>
							<g>
								<rect x="171.5" y="979.8" class="st39" width="23.9" height="26.7"/>
								<rect x="171.5" y="983.3" class="st12" width="19" height="23.3"/>
							</g>
							<g>
								<rect x="203.9" y="893.4" class="st35" width="23.9" height="26.7"/>
								<rect x="203.9" y="896.9" class="st36" width="19" height="23.3"/>
							</g>
							<g>
								<rect x="203.9" y="936.6" class="st35" width="23.9" height="26.7"/>
								<rect x="203.9" y="940.1" class="st36" width="19" height="23.3"/>
							</g>
							<g>
								<rect x="203.9" y="979.8" class="st39" width="23.9" height="26.7"/>
								<rect x="203.9" y="983.3" class="st12" width="19" height="23.3"/>
							</g>
						</g>
						<g>
							<g>
								<rect x="139.1" y="979.8" class="st35" width="23.9" height="26.7"/>
								<rect x="139.1" y="983.3" class="st36" width="19" height="23.3"/>
							</g>
							<g>
								<rect x="171.5" y="979.8" class="st35" width="23.9" height="26.7"/>
								<rect x="171.5" y="983.3" class="st36" width="19" height="23.3"/>
							</g>
							<g>
								<rect x="139.1" y="1022.2" class="st35" width="23.9" height="26.7"/>
								<rect x="139.1" y="1025.7" class="st36" width="19" height="23.3"/>
							</g>
							<g>
								<rect x="171.5" y="1022.2" class="st35" width="23.9" height="26.7"/>
								<rect x="171.5" y="1025.7" class="st36" width="19" height="23.3"/>
							</g>
							<g>
								<rect x="203.9" y="979.8" class="st35" width="23.9" height="26.7"/>
								<rect x="203.9" y="983.3" class="st36" width="19" height="23.3"/>
							</g>
							<g>
								<rect x="203.9" y="1022.2" class="st35" width="23.9" height="26.7"/>
								<rect x="203.9" y="1025.7" class="st36" width="19" height="23.3"/>
							</g>
						</g>
					</g>
				</g>
			</g>
			<g class="st40">
				<polygon class="st36" points="322,529.1 322,1111.3 130.1,1111.3 130.1,1117.9 0,1117.9 0,700.9 83.2,700.9 83.2,529.1 
					99.8,529.1 99.8,497.9 132.1,497.9 132.1,478.5 273.1,478.5 273.1,497.9 305.4,497.9 305.4,529.1 				"/>
				<polygon class="st36" points="1097.1,406.6 1097.1,470 1090.4,470 1090.4,439 1009.9,393.3 942.3,393.3 906.6,411.4 
					906.6,405.4 906.6,362.8 906.6,350.6 733.1,272.2 639.9,272.2 639.9,295.8 639.9,308 639.9,309.2 639.9,331.8 639.9,343.4 
					639.9,350.6 639.9,362.8 639.9,384.2 639.9,395.8 639.9,405.4 639.9,417.6 639.9,436.6 639.9,448.2 639.9,460.2 639.9,472.4 
					639.9,488.9 639.9,500.6 639.9,515 639.9,527.1 639.9,541.3 639.9,553 639.9,569.7 639.9,581.9 639.9,593.7 639.9,605.3 
					639.9,624.5 639.9,636.7 639.9,646.1 639.9,657.7 639.9,679.3 639.9,685.8 595.4,685.8 595.4,654 595.4,642.3 595.4,601.6 
					595.4,589.9 595.4,549.2 595.4,537.6 595.4,496.8 595.4,485.2 595.4,444.4 595.4,432.8 595.4,392 595.4,380.4 595.4,339.7 
					595.4,328 595.4,217.8 498.8,218.7 352.9,305.4 352.9,1113.4 446.1,1113.4 595.4,1113.4 595.4,1111.2 639.9,1111.2 
					639.9,1117.2 732.6,1117.2 733.1,1117.2 735.3,1117.2 882.4,1117.2 906.6,1117.2 906.6,1116.4 926.2,1116.4 990.2,1116.4 
					1055.3,1116.4 1119.3,1116.4 1119.3,1107.7 1169.8,1107.7 1169.8,1108.3 1189.7,1108.3 1189.7,1107.7 1189.7,1044.1 
					1189.7,660.1 1189.7,425.7 1189.7,406.6 1189.7,356.5 				"/>
			</g>
		</g>
		<polygon class="st41" points="1209.9,0 1209.9,1130.4 0,1130.4 0,1033.3 1120.7,1033.3 1120.7,0 		"/>
		<rect y="0" class="st42" width="1120.7" height="1033.3"/>
		<rect x="287.8" y="0" class="st41" width="107.6" height="1063.4"/>
		<g class="st43">
			<polygon class="st1" points="1426.2,2275.9 632,2275.9 0,1962.4 0,1829.4 526,1829.4 			"/>
			<polygon class="st1" points="2374.4,2275.9 1580.2,2275.9 680.1,1829.4 1474.3,1829.4 			"/>
		</g>
		<g id="_x2014_ëîé_x5F_6">
			<polygon class="st44" points="530.1,0 430.4,1035.6 576.9,1035.6 680.1,0 			"/>
			<polygon class="st44" points="857.2,0 757.5,1035.6 904,1035.6 1007.2,0 			"/>
			<polygon class="st44" points="105.6,0 5.8,1035.6 152.3,1035.6 255.6,0 			"/>
		</g>
		<ellipse class="st45" cx="668.1" cy="1856.5" rx="80.4" ry="10.4"/>
		<ellipse class="st45" cx="366.5" cy="1862.2" rx="98.9" ry="12.8"/>
		<g>
			<g>
				<path class="st46" d="M413.7,1702.4h-113l-3.5-1.4c-58.4-24.3-96.1-80.9-96.1-144.1c0-98.6,90.2-98.6,156.1-98.6
					s156.1,0,156.1,98.6c0,63.2-37.7,119.8-96.1,144.1L413.7,1702.4z M308.4,1664.8h97.7c42.4-19.2,69.6-61.2,69.6-108
					c0-51.8-31-61-118.5-61c-87.4,0-118.5,9.2-118.5,61C238.8,1603.6,266,1645.6,308.4,1664.8z"/>
			</g>
			<linearGradient id="SVGID_3_" gradientUnits="userSpaceOnUse" x1="368.0765" y1="1587.624" x2="354.9186" y2="1851.7253">
				<stop  offset="0" style="stop-color:#327C7C"/>
				<stop  offset="1" style="stop-color:#0E3333"/>
			</linearGradient>
			<path class="st47" d="M498.3,1729.8c0,57.1-34.9,106.1-84.5,126.8H308.3c-49.6-20.7-84.5-69.6-84.5-126.8
				c0-75.8,61.5-137.3,137.3-137.3C436.8,1592.5,498.3,1654,498.3,1729.8z"/>
			<circle class="st48" cx="361" cy="1729.8" r="54.7"/>
		</g>
		<g>
			<g>
				<path class="st46" d="M703.2,1760.6h-70.4l-2.2-0.9c-36.3-15.1-59.8-50.4-59.8-89.7c0-61.4,56.2-61.4,97.2-61.4
					s97.2,0,97.2,61.4c0,39.4-23.5,74.6-59.8,89.7L703.2,1760.6z M637.7,1737.2h60.8c26.4-11.9,43.3-38.1,43.3-67.2
					c0-32.3-19.3-38-73.8-38c-54.4,0-73.8,5.7-73.8,38C594.3,1699.1,611.3,1725.2,637.7,1737.2z"/>
			</g>
			<linearGradient id="SVGID_4_" gradientUnits="userSpaceOnUse" x1="674.8237" y1="1689.1136" x2="666.6318" y2="1853.5391">
				<stop  offset="0" style="stop-color:#327C7C"/>
				<stop  offset="1" style="stop-color:#0E3333"/>
			</linearGradient>
			<path class="st49" d="M755.9,1777.6c0,35.6-21.7,66.1-52.6,78.9h-65.7c-30.9-12.9-52.6-43.4-52.6-78.9
				c0-47.2,38.3-85.5,85.5-85.5C717.6,1692.2,755.9,1730.4,755.9,1777.6z"/>
			<circle class="st48" cx="670.4" cy="1777.6" r="34.1"/>
		</g>
		<ellipse class="st50" cx="1858.8" cy="2238.1" rx="610.6" ry="83.4"/>
		<g>
			
				<linearGradient id="SVGID_5_" gradientUnits="userSpaceOnUse" x1="1945.4467" y1="2336.3818" x2="2107.1145" y2="2082.957" gradientTransform="matrix(-1 0 0 1 3578.0688 0)">
				<stop  offset="0" style="stop-color:#327C7C"/>
				<stop  offset="1" style="stop-color:#0E3333"/>
			</linearGradient>
			<path class="st51" d="M1664.7,2219.4c0,0,6.3,17.1-3.1,28.6s-38.2,26.4-66,31.4c-15.7,2.9-59.7,2.9-78.5-2.9
				c-18.8-5.7-37.7-14.3-44-22.9c-6.3-8.6-6.3-37.1,0-37.1C1504.5,2216.5,1664.7,2219.4,1664.7,2219.4z"/>
			
				<linearGradient id="SVGID_6_" gradientUnits="userSpaceOnUse" x1="1916.676" y1="2332.6592" x2="2160.3552" y2="1950.6761" gradientTransform="matrix(-1 0 0 1 3578.0688 0)">
				<stop  offset="0" style="stop-color:#5BBFB4"/>
				<stop  offset="1" style="stop-color:#77E0D1"/>
			</linearGradient>
			<path class="st52" d="M1661.6,2230.8c0,0,6.3-8.6,0-17.1c-6.3-8.6-15.7-17.1-18.8-31.4c-3.1-14.3-9.4-74.3-11-84.3
				c-1.6-10-89.5-38.6-99-15.7c-9.4,22.9-31.4,102.8-44,117.1c-12.6,14.3-15.7,8.6-15.7,22.9c0,14.3,22,20,34.6,25.7
				c12.6,5.7,72.3,5.7,94.2,5.7C1623.9,2253.6,1661.6,2230.8,1661.6,2230.8z"/>
			
				<linearGradient id="SVGID_7_" gradientUnits="userSpaceOnUse" x1="1976.6995" y1="2037.3312" x2="2332.2119" y2="1872.1637" gradientTransform="matrix(-1 0 0 1 3578.0688 0)">
				<stop  offset="0" style="stop-color:#EFDBB4"/>
				<stop  offset="1" style="stop-color:#E2C791"/>
			</linearGradient>
			<path class="st53" d="M1517.1,1945.1c0,0,9.4,51.4,9.4,82.8c0,31.4-6.3,45.7,0,74.3c3.9,17.7,25.1,20,56.5,20
				c31.4,0,50.3-11.4,50.3-11.4s9.4-28.6,3.1-45.7c-6.3-17.1-9.4-25.7-12.6-57.1c-3.1-31.4,12.6-65.7,6.3-65.7
				C1623.9,1942.3,1517.1,1945.1,1517.1,1945.1z"/>
			
				<linearGradient id="SVGID_8_" gradientUnits="userSpaceOnUse" x1="1870.9442" y1="2010.1392" x2="1908.1874" y2="2008.0701" gradientTransform="matrix(-1 0 0 1 3578.0688 0)">
				<stop  offset="0" style="stop-color:#EFDBB4"/>
				<stop  offset="1" style="stop-color:#E2C791"/>
			</linearGradient>
			<path class="st54" d="M1630.2,1942.3c3.7,0-0.3,12.1-3.5,28.6c-4.9,0.5-57,6.9-75,31.4c-18.8,25.7-9.4,48.6-25.1,60
				c-0.7,0.5-1.4,0.9-2.2,1.3c0.8-10.3,2.2-21.1,2.2-35.6c0-31.4-9.4-82.8-9.4-82.8S1623.9,1942.3,1630.2,1942.3z"/>
			
				<linearGradient id="SVGID_9_" gradientUnits="userSpaceOnUse" x1="1312.6128" y1="2394.9717" x2="1689.1475" y2="1804.729" gradientTransform="matrix(-1 0 0 1 3578.0688 0)">
				<stop  offset="0" style="stop-color:#327C7C"/>
				<stop  offset="1" style="stop-color:#0E3333"/>
			</linearGradient>
			<path class="st55" d="M2278.2,2216.9c0,0,6.1,4.2,0,12.6c-6.1,8.4-132.1,2.8-144.3-5.6c-12.3-8.4-61.4-64.2-89.1-69.8
				c-27.6-5.6-64.5-25.1-82.9-39.1c-18.4-14-12.3-47.5,18.4-50.3c30.7-2.8,150.5,108.9,159.7,117.3
				C2149.2,2190.4,2278.2,2216.9,2278.2,2216.9z"/>
			
				<linearGradient id="SVGID_10_" gradientUnits="userSpaceOnUse" x1="1436.4833" y1="2013.2997" x2="1801.8979" y2="1971.0408" gradientTransform="matrix(-1 0 0 1 3578.0688 0)">
				<stop  offset="0" style="stop-color:#EFDBB4"/>
				<stop  offset="1" style="stop-color:#E2C791"/>
			</linearGradient>
			<path class="st56" d="M2001.8,2034c0,0,18.4-14,12.3-41.9c0-14-15.4-75.4-15.4-75.4H2117c0,0,13.8,69.8,16.9,92.2
				c3.1,22.3,27.6,69.8,36.9,92.2c9.2,22.3-73.7-5.6-101.4-30.7C2041.7,2045.1,2001.8,2034,2001.8,2034z"/>
			
				<linearGradient id="SVGID_11_" gradientUnits="userSpaceOnUse" x1="1564.8287" y1="1873.8077" x2="1555.0875" y2="1895.2383" gradientTransform="matrix(-1 0 0 1 3578.0688 0)">
				<stop  offset="0" style="stop-color:#EFDBB4"/>
				<stop  offset="1" style="stop-color:#E2C791"/>
			</linearGradient>
			<path class="st57" d="M1998.7,1916.7H2117c0,0,0.9,4.8,2.4,12.2c-9.7,4.6-48.1,23.4-56.1,38.1c-9.2,16.8,9.2,27.9,3.1,44.7
				c-6.1,16.8-15.4,27.9,0,47.5c5.2,6.6,8.2,12.2,10,16.7c-2.6-1.9-4.9-3.7-6.9-5.6c-27.6-25.1-67.6-36.3-67.6-36.3
				s18.4-14,12.3-41.9C2014.1,1978.1,1998.7,1916.7,1998.7,1916.7z"/>
			
				<linearGradient id="SVGID_12_" gradientUnits="userSpaceOnUse" x1="1859.1766" y1="430.649" x2="1653.4501" y2="445.888" gradientTransform="matrix(-1 0 0 1 3578.0688 0)">
				<stop  offset="0" style="stop-color:#EFDBB4"/>
				<stop  offset="1" style="stop-color:#E2C791"/>
			</linearGradient>
			<path class="st58" d="M1571.1,388.1c-3.8,10.4-3.8,27.7-7.6,45c-3.8,17.3-7.6,38-7.6,38s15.2,17.3,49.5,20.8
				c23.2,2.3,60.9,0,60.9,0s60.9-10.4,91.3-20.8c30.4-10.4,220.6-13.8,220.6-13.8l15.2-72.6c0,0-43.2-11.8-68.5-3.5
				c-41.8,13.8-106.5-6.9-136.9-6.9s-140.8-6.9-171.2,0C1586.3,381.2,1574.9,377.7,1571.1,388.1z"/>
			
				<linearGradient id="SVGID_13_" gradientUnits="userSpaceOnUse" x1="1303.3142" y1="2382.5686" x2="1684.8147" y2="1784.5416" gradientTransform="matrix(-1 0 0 1 3578.0688 0)">
				<stop  offset="0" style="stop-color:#5BBFB4"/>
				<stop  offset="1" style="stop-color:#77E0D1"/>
			</linearGradient>
			<path class="st59" d="M2278.2,2221.1c0,0,9.2-14,0-22.3c-9.2-8.4-49.1-8.4-70.6-19.5c-21.5-11.2-21.5-64.2-39.9-75.4
				c-18.4-11.2-144.3-81-162.8-72.6c-18.4,8.4-43,44.7-43,50.3s33.8,33.5,70.6,47.5c37.3,14.1,58.4,22.3,67.6,41.9
				s18.4,41.9,58.4,41.9C2198.4,2212.7,2278.2,2221.1,2278.2,2221.1z"/>
			
				<linearGradient id="SVGID_14_" gradientUnits="userSpaceOnUse" x1="1621.8907" y1="323.1809" x2="1735.7087" y2="610.2746" gradientTransform="matrix(-1 0 0 1 3578.0688 0)">
				<stop  offset="0" style="stop-color:#EFDBB4"/>
				<stop  offset="1" style="stop-color:#E2C791"/>
			</linearGradient>
			<path class="st60" d="M2079.1,509.6c0,0,20.7-55.7,24.5-66.1c3.8-10.4,19-31.1,15.2-34.6c-3.8-3.5-22.8-62.3-110.3-169.5
				c-14.5-17.8-64.7-69.2-79.9-83c-15.2-13.8-41.8-41.5-57.1-41.5c-15.2,0-57.1,72.6-60.9,83c-3.8,10.4-22.8,20.8,3.8,27.7
				c23.5,6.1,57.1-3.5,72.3,0c16.5,3.8,25.5,48.8,38,83c19,51.9,41.8,93.4,41.8,110.7c0,17.3-9.1,41.6-9.1,41.6s16.7,3.4,47.1,20.7
				C2035.2,498.8,2079.1,509.6,2079.1,509.6z"/>
			
				<linearGradient id="SVGID_15_" gradientUnits="userSpaceOnUse" x1="1517.4059" y1="1606.063" x2="2000.8348" y2="1065.7606" gradientTransform="matrix(-1 0 0 1 3578.0688 0)">
				<stop  offset="0" style="stop-color:#327C7C"/>
				<stop  offset="1" style="stop-color:#0E3333"/>
			</linearGradient>
			<path class="st61" d="M2092.3,1616c0,0,3.8-51.9-7.6-79.6c-11.4-27.7-26.6-169.5-87.5-370.1c-11.4-45-38-96.8-38-96.8
				s-216.8,13.8-220.6,17.3c-3.8,3.5-22.8,186.8,0,221.4c22.8,34.6,110.3,172.9,136.9,214.4c26.6,41.5,30.4,62.3,30.4,107.2
				c0,45,3.8,124.5,11.4,162.6c7.6,38,64.7,148.7,64.7,148.7s41.8,10.4,79.9,0c38-10.4,68.5-24.2,68.5-24.2s-30.4-228.3-34.2-238.7
				C2092.3,1667.9,2092.3,1616,2092.3,1616z"/>
			
				<linearGradient id="SVGID_16_" gradientUnits="userSpaceOnUse" x1="1355.7609" y1="1684.0906" x2="1872.8534" y2="1190.6089" gradientTransform="matrix(-1 0 0 1 3578.0688 0)">
				<stop  offset="0" style="stop-color:#327C7C"/>
				<stop  offset="1" style="stop-color:#0E3333"/>
			</linearGradient>
			<path class="st62" d="M1875.4,1522.6c-26.6-41.5-114.1-179.9-136.9-214.4c-22.8-34.6-3.8-217.9,0-221.4
				c1.3-1.2,27.3-3.6,61.1-6.2c9.1,32.6,18.8,71,18.8,85.7c0,27.7,60.9,200.6,76.1,252.5c15.2,51.9,30.4,79.6,26.6,124.5
				c-0.9,10.5-8.5,22.4-19.8,34.4C1897.2,1560.7,1889.5,1544.6,1875.4,1522.6z"/>
			<g>
				
					<linearGradient id="SVGID_17_" gradientUnits="userSpaceOnUse" x1="1454.215" y1="1921.7272" x2="1569.6935" y2="1351.2634" gradientTransform="matrix(-1 0 0 1 3578.0688 0)">
					<stop  offset="0" style="stop-color:#327C7C"/>
					<stop  offset="1" style="stop-color:#0E3333"/>
				</linearGradient>
				<path class="st63" d="M2069.4,1612.6c18.7-8.5,22.3-21.7,23.1-30.5c0.8,18.5-0.3,34-0.3,34s0,51.9,3.8,62.3
					c3.8,10.4,34.2,238.7,34.2,238.7s-2.9,1.3-7.9,3.4c0,0-11.2-72.6-30.2-145.2c-19-72.6-68.5-162.6-68.5-162.6
					S2054.2,1619.5,2069.4,1612.6z"/>
				
					<linearGradient id="SVGID_18_" gradientUnits="userSpaceOnUse" x1="1486.1494" y1="1571.8527" x2="1486.1672" y2="1571.8185" gradientTransform="matrix(-1 0 0 1 3578.0688 0)">
					<stop  offset="0" style="stop-color:#327C7C"/>
					<stop  offset="1" style="stop-color:#0E3333"/>
				</linearGradient>
				<polygon class="st64" points="2091.9,1571.8 2091.9,1571.8 2091.9,1571.9 				"/>
			</g>
			
				<linearGradient id="SVGID_19_" gradientUnits="userSpaceOnUse" x1="1996.4202" y1="1560.4211" x2="2141.6816" y2="2511.5408" gradientTransform="matrix(-1 0 0 1 3578.0688 0)">
				<stop  offset="0" style="stop-color:#327C7C"/>
				<stop  offset="1" style="stop-color:#0E3333"/>
			</linearGradient>
			<path class="st65" d="M1635.8,1968.8c0,0-45.6,3.5-83.7,3.5c-38,0-45.6-17.3-45.6-17.3s-38-131.4-34.2-176.4
				c3.8-45,19-128,19-145.3c0-17.3-34.2-159.1-34.2-238.7s9-100.9,3.8-131.4c-7.6-45,0-110.7,7.6-145.3
				c7.6-34.6,64.7-103.8,64.7-103.8l296.7,110.7c0,0-7.6,41.5-30.4,76.1c-22.8,34.6-34.2,45-53.3,138.4
				c-18,88.5-63.9,214.5-64.7,221.4c-3.8,34.6-7.6,76.1-22.8,117.6c-16.7,45.6,7.6,114.1,7.6,145.3S1635.8,1968.8,1635.8,1968.8z"/>
			
				<linearGradient id="SVGID_20_" gradientUnits="userSpaceOnUse" x1="1987.4579" y1="1379.8317" x2="2285.4651" y2="1824.2593" gradientTransform="matrix(-1 0 0 1 3578.0688 0)">
				<stop  offset="0" style="stop-color:#327C7C"/>
				<stop  offset="1" style="stop-color:#0E3333"/>
			</linearGradient>
			<path class="st66" d="M1510.2,1654.1c-11.5,29.9-23,55.8-32.3,77.1c5.8-41.1,13.3-85.7,13.3-97.9c0-17.2-33.9-157.7-34.2-237.5
				c13,35.5,25.7,70.3,34.2,92.2C1514,1546.8,1536.9,1584.9,1510.2,1654.1z"/>
			
				<linearGradient id="SVGID_21_" gradientUnits="userSpaceOnUse" x1="1951.4696" y1="1505.3269" x2="1951.4696" y2="1961.8911" gradientTransform="matrix(-1 0 0 1 3578.0688 0)">
				<stop  offset="0" style="stop-color:#327C7C"/>
				<stop  offset="1" style="stop-color:#0E3333"/>
			</linearGradient>
			<path class="st67" d="M1643.4,1654.1c8.7-7.9,20.2-22.9,31.1-38.5c-3.3,20.3-8.1,41.5-15.9,62.7c-12.2,33.4-2.5,79.1,3.6,113.5
				c-13.4-27.7-28.7-58.8-37.9-75.4c-19-34.6-45.6-45-45.6-45S1620.6,1674.8,1643.4,1654.1z"/>
			
				<linearGradient id="SVGID_22_" gradientUnits="userSpaceOnUse" x1="2003.8496" y1="1833.4886" x2="2178.4165" y2="1899.3628" gradientTransform="matrix(-1 0 0 1 3578.0688 0)">
				<stop  offset="0" style="stop-color:#327C7C"/>
				<stop  offset="1" style="stop-color:#0E3333"/>
			</linearGradient>
			<path class="st68" d="M1552.1,1972.3c-38,0-45.6-17.3-45.6-17.3s-38-131.4-34.2-176.4c1-11.9,2.8-26.5,4.9-41.8
				c2.6,15.3,16.4,92.1,36.9,138.7c22.8,51.8,46.3,55.7,46,96.8C1557.4,1972.3,1554.7,1972.3,1552.1,1972.3z"/>
			
				<linearGradient id="SVGID_23_" gradientUnits="userSpaceOnUse" x1="1884.3031" y1="1606.1827" x2="2000.2701" y2="492.19" gradientTransform="matrix(-1 0 0 1 3578.0688 0)">
				<stop  offset="0" style="stop-color:#327C7C"/>
				<stop  offset="1" style="stop-color:#0E3333"/>
			</linearGradient>
			<path class="st69" d="M1460.8,1166.4c0-83,72.3-155.6,72.3-155.6l296.7,103.8c0,0-0.8,14.6-2.6,21.6c-15.7,3.2-32.7,5.5-50.7,6.1
				c-98.9,3.5-126.1-2.7-216.8-38C1533.1,1093.7,1476,1142.1,1460.8,1166.4z"/>
			
				<linearGradient id="SVGID_24_" gradientUnits="userSpaceOnUse" x1="1433.5455" y1="197.0638" x2="1467.5793" y2="237.9044" gradientTransform="matrix(-1 0 0 1 3578.0688 0)">
				<stop  offset="0" style="stop-color:#EFDBB4"/>
				<stop  offset="1" style="stop-color:#E2C791"/>
			</linearGradient>
			<path class="st70" d="M1957.6,460.9c0,0,9.1-24.3,9.1-41.6c0-14.5-16.1-46.1-32.5-86.5c20.3,26.5,57.4,74.6,62.9,79.6
				c11.9,10.8,10.9,60.8,7.6,69.2C1974.3,464.2,1957.6,460.9,1957.6,460.9z"/>
			
				<linearGradient id="SVGID_25_" gradientUnits="userSpaceOnUse" x1="1482.2621" y1="1312.974" x2="1747.4294" y2="813.5751" gradientTransform="matrix(-1 0 0 1 3578.0688 0)">
				<stop  offset="0" style="stop-color:#5BBFB4"/>
				<stop  offset="1" style="stop-color:#77E0D1"/>
			</linearGradient>
			<path class="st71" d="M1978.1,1076.4c0,0-26.6-96.8-11.4-141.8c7.1-20.9,76.3-81.4,72.3-110.7c-3.8-27.7-40.8-84.5-49.5-100.3
				c-15.2-27.7,41.8-83,64.7-134.9c22.8-51.9,26.6-83,26.6-83s-87.5-51.9-114.1-51.9c-26.6,0-22.8,148.7-79.9,176.4
				c-57.1,27.7-178.8-17.3-178.8-17.3c0-20.8-15.2-69.2-19-76.1c-7-12.8-19-48.4-19-48.4s5.4,8.6-57.1,3.5
				c-41.8-3.5-57.1-20.8-57.1-20.8s-7.6,131.4,7.6,186.8c15.2,55.3,38,172.9,38,193.7c0,20.8,3.8,75-22.8,107.2
				c-22.8,27.7-49.5,48.4-49.5,48.4s-15.2,86.5,186.4,110.7C1833.5,1132.1,1978.1,1076.4,1978.1,1076.4z"/>
			
				<linearGradient id="SVGID_26_" gradientUnits="userSpaceOnUse" x1="1725.5576" y1="611.6217" x2="1507.0731" y2="510.6413" gradientTransform="matrix(-1 0 0 1 3578.0688 0)">
				<stop  offset="0" style="stop-color:#5BBFB4"/>
				<stop  offset="1" style="stop-color:#77E0D1"/>
			</linearGradient>
			<path class="st72" d="M2008.6,467.7c0,41.6-49.5,155.6-64.7,172.9c-15.2,17.3-38,10.4-38,27.7c0,17.3-3.8,27.7-7.6,27.7
				s-57.1-10.4-60.9-20.8c-0.9-2.5,0.2-16.4,2.3-36c17.6-0.1,34.1-2.6,47.1-9c57.1-27.7,53.3-176.4,79.9-176.4
				c1.1,0,2.4,0.1,3.7,0.3C1981.9,453.8,2008.6,464.2,2008.6,467.7z"/>
			<g>
				
					<linearGradient id="SVGID_27_" gradientUnits="userSpaceOnUse" x1="1974.3096" y1="632.7529" x2="1803.2697" y2="460.0197" gradientTransform="matrix(-1 0 0 1 3578.0688 0)">
					<stop  offset="0" style="stop-color:#5BBFB4"/>
					<stop  offset="1" style="stop-color:#77E0D1"/>
				</linearGradient>
				<path class="st73" d="M1689,536.9c3.8,6.9,19,55.3,19,76.1c0,0,6.6,2.4,17.5,5.8c-9.9,9.1-22.7,13.6-28.9,8
					c-11.4-10.4-15.2-69.2-26.6-96.8c-7.5-18.3-25-30.5-36-36.7c35,1.5,36.3-3.3,36.1-4.5C1671.2,492,1682.4,524.7,1689,536.9z"/>
				
					<linearGradient id="SVGID_28_" gradientUnits="userSpaceOnUse" x1="1907.8932" y1="488.8026" x2="1908.0015" y2="488.5988" gradientTransform="matrix(-1 0 0 1 3578.0688 0)">
					<stop  offset="0" style="stop-color:#5BBFB4"/>
					<stop  offset="1" style="stop-color:#77E0D1"/>
				</linearGradient>
				<path class="st74" d="M1670.1,488.7c-0.1-0.2-0.1-0.3-0.1-0.3S1670.1,488.5,1670.1,488.7z"/>
			</g>
			
				<linearGradient id="SVGID_29_" gradientUnits="userSpaceOnUse" x1="1770.8743" y1="721.8432" x2="1769.1454" y2="590.4387" gradientTransform="matrix(-1 0 0 1 3578.0688 0)">
				<stop  offset="0" style="stop-color:#EFDBB4"/>
				<stop  offset="1" style="stop-color:#E2C791"/>
			</linearGradient>
			<path class="st75" d="M1890.6,612.9c0,0-3.8,20.8-3.8,31.1c0,10.4,21.5,34.8,19,48.4c-3.8,20.8-26.6,34.6-76.1,24.2
				c-49.5-10.4-102.7-65.7-110.3-79.6c-7.6-13.8-14.6-24.2-3.8-24.2c11.4,0,34.2-13.8,41.8-34.6c3.6-9.8,0-31.1,3.8-45
				c3.8-13.8,72.3-13.8,76.1-10.4C1841.2,526.5,1890.6,612.9,1890.6,612.9z"/>
			
				<linearGradient id="SVGID_30_" gradientUnits="userSpaceOnUse" x1="1814.4139" y1="151.7872" x2="1790.207" y2="1372.5387" gradientTransform="matrix(-1 -7.600000e-03 -7.600000e-03 1 3582.113 16.0977)">
				<stop  offset="0" style="stop-color:#5BBFB4"/>
				<stop  offset="1" style="stop-color:#77E0D1"/>
			</linearGradient>
			<path class="st76" d="M1577.9,957.5c26.9-32.1,23.6-86.3,23.7-107.1c0-2.3-0.2-5.9-0.7-10.4c-3.2-23,4.6-25.7,8.2-36.8
				c15.6-48.3-18.8-79.4,1.5-118.8c13.7-26.5,38.7-8.8,51.7,18.5c25.2,52.7,28.9,85.7,38,110.7c11.4,31.1,45.7,48,102.7,51.9
				c52.7,3.6,91.5-16.5,106.6-6c15.1,10.5,22.7,10.5,60.7,14.3c15.6,1.5,35.6-4.5,53.9-12.1c-16,22.7-40.6,47.6-52.3,63.9
				c-4.5,0-9,0-13.5,0c-30.4-0.2-38.6-23.2-106.5-7.7c-87.7,20.1-98.9-4.1-148.5,19.7c-38.2,18.4-99.4,100-127.4,139.7
				c-55.2-33.2-48.1-71.7-48.1-71.7S1554.9,985,1577.9,957.5z"/>
			
				<linearGradient id="SVGID_31_" gradientUnits="userSpaceOnUse" x1="1598.9777" y1="758.353" x2="1539.7893" y2="549.453" gradientTransform="matrix(-1 0 0 1 3578.0688 0)">
				<stop  offset="0" style="stop-color:#5BBFB4"/>
				<stop  offset="1" style="stop-color:#77E0D1"/>
			</linearGradient>
			<path class="st77" d="M2080.8,505.7c-2.7,12.9-11.2,47.9-26.6,83c-22.8,51.9-79.9,107.2-64.7,134.9c3,5.5,9.4,15.8,16.6,28.2
				c-12.9-13-30.9-32.6-35.6-45.5c-7.6-20.8,3.8-45,30.4-72.6c26.6-27.7,73.8-131.5,73.8-131.5l0,0L2080.8,505.7z"/>
			
				<linearGradient id="SVGID_32_" gradientUnits="userSpaceOnUse" x1="1797.4869" y1="546.3514" x2="1847.47" y2="452.2166" gradientTransform="matrix(-1 0 0 1 3578.0688 0)">
				<stop  offset="0" style="stop-color:#EFDBB4"/>
				<stop  offset="1" style="stop-color:#E2C791"/>
			</linearGradient>
			<path class="st78" d="M1708,467.7c15.2-10.4,19-31.1,19-55.3c0-17.5-11.9-33.1-18.5-40.5c25.5,0.7,50.4,1.8,67,2.2l31.4,7.1
				c0,0,15.6,43.9,26.9,80.5c-35.2,2.6-65.8,5.8-76.4,9.4c-30.4,10.4-91.3,20.8-91.3,20.8s-11.8,0.7-26.2,1
				c-2.6-2.7-4.2-4.4-4.2-4.4l3.8-10.4C1639.6,478.1,1692.8,478.1,1708,467.7z"/>
			
				<linearGradient id="SVGID_33_" gradientUnits="userSpaceOnUse" x1="1522.1138" y1="87.2592" x2="1705.2454" y2="205.6471" gradientTransform="matrix(-1 0 0 1 3578.0688 0)">
				<stop  offset="0" style="stop-color:#EFDBB4"/>
				<stop  offset="1" style="stop-color:#E2C791"/>
			</linearGradient>
			<path class="st79" d="M1854,129c18.8,5,41.5,17.3,44.3,27.4c7.6,27.7-11.4,45-11.4,48.4c0,3.5,11.4,6.9,19,24.2
				c3.2,7.2,5,23.6,6.1,40.1c-7.2-22.3-14.7-41.2-25.1-43.6c-15.2-3.5-45,9.6-68.5,3.5c-26.6-6.9-26.6-41.5-22.8-51.9
				C1798.3,169.7,1836,150.7,1854,129z"/>
			
				<linearGradient id="SVGID_34_" gradientUnits="userSpaceOnUse" x1="1953.4258" y1="635.2099" x2="1822.3918" y2="492.4768" gradientTransform="matrix(-1 0 0 1 3578.0688 0)">
				<stop  offset="0" style="stop-color:#DD2641"/>
				<stop  offset="1" style="stop-color:#F64E5F"/>
			</linearGradient>
			<path class="st80" d="M1970.6,508c0,0,7.5-5.8,7.5-19.6c0-13.8-1-56.8-49.5-96.8c-41.8-34.6-76.1-72.6-76.1-96.8
				c0-17.3,0-55.3,3.8-76.1c3.8-20.8-34.2-48.4-34.2-48.4s-14.7,21.6-13.1,38.5s-20.8,89.7-47.8,144.9
				c-30.4,62.3-24.2,87.6-23.5,123.4c0.7,35.7,15.9,73.8,15.9,73.8s38-38,41.8-41.5c3.8-3.5,129.3-17.3,133.1-17.3
				C1932.5,491.9,1970.6,508,1970.6,508z"/>
			
				<linearGradient id="SVGID_35_" gradientUnits="userSpaceOnUse" x1="1600.564" y1="650.1497" x2="2022.1843" y2="-10.768" gradientTransform="matrix(-1 0 0 1 3578.0688 0)">
				<stop  offset="0" style="stop-color:#DD2641"/>
				<stop  offset="1" style="stop-color:#F64E5F"/>
			</linearGradient>
			<path class="st81" d="M1809.1,208.7c-1.6-16.9,13.1-38.5,13.1-38.5s38,27.7,34.2,48.4c-3.8,20.8-3.8,58.8-3.8,76.1
				c0,2.7,0.5,5.6,1.3,8.6c-6.9-6.6-14.2-12.7-20.3-15.5c-15.2-6.9-60.9,58.8-64.7,93.4s0,93.4,53.3,86.5s79.7-14.6,102.6-9
				c12.5,3,16.8,21.2,17.6,37.8c-6.7-2.6-12.3-4.6-13.7-4.6c-3.8,0-136.9,17.3-140.8,20.8c-3.8,3.5-30.4,45-30.4,45
				s-19-45-19.7-80.7c-0.7-35.7-6.9-61.1,23.5-123.4C1788.3,298.3,1810.8,225.6,1809.1,208.7z"/>
			
				<linearGradient id="SVGID_36_" gradientUnits="userSpaceOnUse" x1="1489.4592" y1="682.8555" x2="1385.965" y2="751.2357" gradientTransform="matrix(-1 0 0 1 3578.0688 0)">
				<stop  offset="0" style="stop-color:#EFDBB4"/>
				<stop  offset="1" style="stop-color:#E2C791"/>
			</linearGradient>
			<path class="st82" d="M1974.3,502.3c0,0-2.8,40.8-10.5,47.7c-7.6,6.9-16.1,8.8-16.1,22.6c0,13.8-35.3,74-58.1,77.5
				c-22.8,3.5-37-12.9-67.4-30.2s-34.2-38-38-48.4c-3.8-10.4,0-27.7,0-27.7s-15.2,0-15.2-10.4c0-10.4-7.6-34.6,7.6-48.4
				c9.7-8.8,30.4-6.9,30.4,10.4c0,17.3,34.2-34.6,110.3-20.8C1988.5,487.6,1974.3,502.3,1974.3,502.3z"/>
			
				<linearGradient id="SVGID_37_" gradientUnits="userSpaceOnUse" x1="1734.6368" y1="616.3008" x2="1745.5973" y2="517.6558" gradientTransform="matrix(-1 0 0 1 3578.0688 0)">
				<stop  offset="0" style="stop-color:#EFDBB4"/>
				<stop  offset="1" style="stop-color:#E2C791"/>
			</linearGradient>
			<path class="st83" d="M1784.1,571.4c-3.8-10.4,0-27.7,0-27.7s-15.2,0-15.2-10.4c0-10.4-7.6-34.6,7.6-48.4
				c9.7-8.8,30.4-6.9,30.4,10.4c0,15.3,26.9-23.6,85.8-23.1c-7,6.3-18.6,18.1-21.2,30c-3.8,17.3,4.4,23.7-7.6,34.6
				c-15.2,13.8-22.8,55.3-15.2,86.5c1.2,4.8,3.6,17.1,5.3,20.2c-9.2-3.6-20.2-17-31.9-23.7C1791.7,602.6,1787.9,581.8,1784.1,571.4z
				"/>
			
				<linearGradient id="SVGID_38_" gradientUnits="userSpaceOnUse" x1="1790.7638" y1="77.0613" x2="1790.7638" y2="17.2874" gradientTransform="matrix(-0.9813 -0.1926 -0.1926 0.9813 3598.5503 397.1882)">
				<stop  offset="0" style="stop-color:#DD2641"/>
				<stop  offset="1" style="stop-color:#F64E5F"/>
			</linearGradient>
			<path class="st84" d="M1881.2,156.8c0,0,15.9-19.3,10.5-48.5c-5.3-29.2-29-45.8-55.4-48.7c-49.3-5.3-69.2,33.5-69.2,33.5
				s25.3-9.6,61.2,3.9c35.9,13.4,19.5,35.2,19.5,35.2s6.1,25.8,9.1,29.8C1859.9,166.1,1881.2,156.8,1881.2,156.8z"/>
			
				<linearGradient id="SVGID_39_" gradientUnits="userSpaceOnUse" x1="1743.226" y1="250.4361" x2="1756.8104" y2="387.9803" gradientTransform="matrix(-1 0 0 1 3578.0688 0)">
				<stop  offset="0" style="stop-color:#EFDBB4"/>
				<stop  offset="1" style="stop-color:#E2C791"/>
			</linearGradient>
			<path class="st85" d="M1890.6,156.4c-7.6-10.4-30.9-20.5-34.2-27.7c-3.3-7.2-3.8-20.8-7.6-17.3c-14.5,13.2-60.9,48.4-57.1,69.2
				c3.8,20.8,22.8,38,41.8,34.6c19-3.5,42.8-22,49.5-31.1C1890.6,173.7,1898.3,166.8,1890.6,156.4z"/>
		</g>
		<g>
			<path class="st86" d="M2365.4,2137.1c0,12.6,301,22.9,672.2,22.9c371.2,0,672.2-10.3,672.2-22.9c0-12.6-301-22.9-672.2-22.9
				C2666.3,2114.2,2365.4,2124.4,2365.4,2137.1z"/>
			
				<linearGradient id="SVGID_40_" gradientUnits="userSpaceOnUse" x1="1163.5682" y1="912.8974" x2="1464.3843" y2="912.8974" gradientTransform="matrix(-1 0 0 1 4598.2246 0)">
				<stop  offset="0" style="stop-color:#327C7C"/>
				<stop  offset="1" style="stop-color:#0E3333"/>
			</linearGradient>
			<path class="st87" d="M3410.4,1044.5c-4.4,0.8,4.3-0.5,2.1-0.2c-1.2,0.1-2.3,0.3-3.5,0.4c-3.4,0.3-6.7,0.6-10.1,0.8
				c-9.1,0.6-18.2,0.9-27.4,1.2c-24.1,0.8-48.3,0.8-72.4,0.3c-12.4-0.3-24.8-0.8-37.2-1.6c-5.5-0.3-11-0.8-16.5-1.3
				c-2.6-0.2-5.1-0.5-7.7-0.8c-1.2-0.1-2.5-0.3-3.7-0.4c-5.6-0.7,2.6,0.4-0.8-0.1c-8-1.1-16-2.5-23.6-5c-0.7-0.2-1.4-0.5-2.1-0.7
				c-2.7-1,4.3,1.9,0,0c-2.5-1.1-4.9-2.4-7.3-3.7c-2.3-1.3-4.4-2.7-6.6-4.2c-3.6-2.6,3.4,2.7-0.1,0c-1.3-1-2.5-2.1-3.7-3.2
				c-1.8-1.6-3.4-3.4-4.9-5.2c-0.8-0.9-3.3-4.3,0.1,0.2c-0.7-0.9-1.4-1.9-2-2.9c-1.3-1.9-2.5-4-3.6-6c-0.5-1-1-2.1-1.5-3.2
				c-1.5-3.1,1.6,4.3-0.3-0.8c-1.7-4.5-2.9-9.2-3.8-13.9c-0.2-1.2-0.4-2.4-0.6-3.6c0.9,5.7,0.2,1.3,0,0.1c-0.3-3-0.5-6-0.6-9
				c-0.2-5.4,0-10.8,0.4-16.1c0.2-2.8,0.5-5.6,0.9-8.4c0.6-4.9-0.6,4.4,0.1-0.5c0.3-1.9,0.6-3.8,0.9-5.7c2.2-12.5,5.4-24.8,9.1-36.9
				c3.9-12.8,8.5-25.3,13.5-37.7c1.2-3,2.4-6,3.7-9c-1.8,4.2,0.3-0.8,0.6-1.4c0.6-1.5,1.3-3,1.9-4.5c2.8-6.4,5.6-12.7,8.6-19
				c10.2-22,21.3-43.6,32.4-65.1c1.5-2.9,3-5.8,4.5-8.7c4.8-9.3,2.5-20.8-6.9-26.3c-8.7-5.1-21.6-2.4-26.3,6.9
				c-23.3,45.6-47,91.1-64,139.4c-15.8,44.8-29.1,100.7-4.5,144.8c11.4,20.5,32.1,35.4,54.3,42.1c19.7,5.9,41.3,7,61.7,8.3
				c45.3,2.9,91.1,2.8,136.4-0.1c7-0.5,14-1,20.8-2.2c10.4-1.8,16-14.3,13.5-23.7C3431.1,1047.1,3420.7,1042.7,3410.4,1044.5
				L3410.4,1044.5z"/>
			
				<linearGradient id="SVGID_41_" gradientUnits="userSpaceOnUse" x1="1839.4342" y1="1374.0555" x2="1990.5249" y2="1374.0555" gradientTransform="matrix(-1 0 0 1 4598.2246 0)">
				<stop  offset="0" style="stop-color:#327C7C"/>
				<stop  offset="1" style="stop-color:#0E3333"/>
			</linearGradient>
			<polygon class="st88" points="2758.8,1660.2 2702.5,1648.3 2607.7,1097.4 2659.5,1087.9 			"/>
			
				<linearGradient id="SVGID_42_" gradientUnits="userSpaceOnUse" x1="1119.9894" y1="1379.5664" x2="1444.8853" y2="1379.5664" gradientTransform="matrix(-1 0 0 1 4598.2246 0)">
				<stop  offset="0" style="stop-color:#327C7C"/>
				<stop  offset="1" style="stop-color:#0E3333"/>
			</linearGradient>
			<polygon class="st89" points="3211.4,1823.9 3153.3,1806.1 3420.2,935.2 3478.2,953 			"/>
			
				<linearGradient id="SVGID_43_" gradientUnits="userSpaceOnUse" x1="1754.3344" y1="1979.4934" x2="1115.7672" y2="1572.7188" gradientTransform="matrix(-1 0 0 1 4598.2246 0)">
				<stop  offset="0" style="stop-color:#5BBFB4"/>
				<stop  offset="1" style="stop-color:#77E0D1"/>
			</linearGradient>
			<path class="st90" d="M2687.1,2045.8h750.6c76.5-24.2,176.9-84.3,66.8-208.8c-120.3-136.1-703.4-221.4-708.6-219.6
				c-11.2-1.9-22.8-2.8-34.5-2.8c-119.1,0-215.6,99.6-215.6,222.4C2545.8,1932.9,2604.7,2014.6,2687.1,2045.8z"/>
			
				<linearGradient id="SVGID_44_" gradientUnits="userSpaceOnUse" x1="1763.3019" y1="1087.8999" x2="2078.501" y2="1087.8999" gradientTransform="matrix(-1 0 0 1 4598.2246 0)">
				<stop  offset="0" style="stop-color:#327C7C"/>
				<stop  offset="1" style="stop-color:#0E3333"/>
			</linearGradient>
			<path class="st91" d="M2541.5,1047.1c-16,12.6-27.3,36.9-18.9,56.8c11.9,27.9,42.9,28.6,67.8,33.6c0,0,202.1-11.4,226.3-24.2
				C2916.4,1060.5,2576.2,1019.6,2541.5,1047.1z"/>
			<g>
				
					<linearGradient id="SVGID_45_" gradientUnits="userSpaceOnUse" x1="1560.6753" y1="2110.0569" x2="1560.6753" y2="2025.9747" gradientTransform="matrix(-1 0 0 1 4598.2246 0)">
					<stop  offset="0" style="stop-color:#327C7C"/>
					<stop  offset="1" style="stop-color:#0E3333"/>
				</linearGradient>
				<path class="st92" d="M3556.7,2068.5c0,12.6-10.7,22.8-23.9,22.8h-990.5c-13.2,0-23.9-10.2-23.9-22.8l0,0
					c0-12.5,10.7-22.7,23.9-22.7h990.5C3546,2045.8,3556.7,2056,3556.7,2068.5L3556.7,2068.5z"/>
				<g>
					
						<linearGradient id="SVGID_46_" gradientUnits="userSpaceOnUse" x1="2026.7982" y1="2086.8726" x2="2146.8474" y2="2086.8726" gradientTransform="matrix(-1 0 0 1 4598.2246 0)">
						<stop  offset="0" style="stop-color:#327C7C"/>
						<stop  offset="1" style="stop-color:#0E3333"/>
					</linearGradient>
					<path class="st93" d="M2571.4,2104.2c0,18.2-14.7,32.9-32.9,32.9h-54.2c-18.2,0-32.9-14.7-32.9-32.9v-34.6
						c0-18.2,14.7-32.9,32.9-32.9h54.2c18.2,0,32.9,14.7,32.9,32.9V2104.2z"/>
					
						<linearGradient id="SVGID_47_" gradientUnits="userSpaceOnUse" x1="974.5008" y1="2086.8726" x2="1094.55" y2="2086.8726" gradientTransform="matrix(-1 0 0 1 4598.2246 0)">
						<stop  offset="0" style="stop-color:#327C7C"/>
						<stop  offset="1" style="stop-color:#0E3333"/>
					</linearGradient>
					<path class="st94" d="M3623.7,2104.2c0,18.2-14.7,32.9-32.9,32.9h-54.2c-18.2,0-32.9-14.7-32.9-32.9v-34.6
						c0-18.2,14.7-32.9,32.9-32.9h54.2c18.2,0,32.9,14.7,32.9,32.9V2104.2z"/>
				</g>
			</g>
			<g>
				
					<linearGradient id="SVGID_48_" gradientUnits="userSpaceOnUse" x1="1671.2124" y1="1850.0342" x2="1976.6283" y2="1850.0342" gradientTransform="matrix(-1 0 0 1 4598.2246 0)">
					<stop  offset="0" style="stop-color:#327C7C"/>
					<stop  offset="1" style="stop-color:#0E3333"/>
				</linearGradient>
				<path class="st95" d="M2927,1850c0,84.3-68.4,152.7-152.7,152.7c-84.3,0-152.7-68.4-152.7-152.7s68.4-152.7,152.7-152.7
					C2858.7,1697.3,2927,1765.7,2927,1850z"/>
				
					<linearGradient id="SVGID_49_" gradientUnits="userSpaceOnUse" x1="1705.8604" y1="1850.0342" x2="1941.9801" y2="1850.0342" gradientTransform="matrix(-1 0 0 1 4598.2246 0)">
					<stop  offset="0" style="stop-color:#5BBFB4"/>
					<stop  offset="1" style="stop-color:#77E0D1"/>
				</linearGradient>
				<path class="st96" d="M2892.4,1850c0,65.2-52.9,118.1-118,118.1c-65.2,0-118.1-52.9-118.1-118.1c0-65.2,52.9-118.1,118.1-118.1
					C2839.5,1732,2892.4,1784.8,2892.4,1850z"/>
				<g>
					
						<linearGradient id="SVGID_50_" gradientUnits="userSpaceOnUse" x1="1773.2272" y1="1850.6569" x2="1873.3469" y2="1850.6569" gradientTransform="matrix(-1 0 0 1 4598.2246 0)">
						<stop  offset="0" style="stop-color:#327C7C"/>
						<stop  offset="1" style="stop-color:#0E3333"/>
					</linearGradient>
					<path class="st97" d="M2750.1,1807.2c24-13.7,54.6-5.3,68.3,18.7c13.7,24,5.3,54.6-18.7,68.3c-24,13.7-54.6,5.3-68.3-18.7
						C2717.8,1851.4,2726.1,1820.9,2750.1,1807.2z"/>
					<g>
						<g>
							
								<linearGradient id="SVGID_51_" gradientUnits="userSpaceOnUse" x1="1712.6891" y1="1771.0768" x2="1840.8339" y2="1771.0768" gradientTransform="matrix(-1 0 0 1 4598.2246 0)">
								<stop  offset="0" style="stop-color:#327C7C"/>
								<stop  offset="1" style="stop-color:#0E3333"/>
							</linearGradient>
							<path class="st98" d="M2848.2,1687.4c5.7-9.5,18.1-12.6,27.6-6.9l0,0c9.5,5.7,12.6,18.1,6.9,27.6l-87.9,146.8
								c-5.7,9.5-18.1,12.6-27.6,6.9l0,0c-9.5-5.7-12.6-18.1-6.9-27.6L2848.2,1687.4z"/>
							
								<linearGradient id="SVGID_52_" gradientUnits="userSpaceOnUse" x1="1671.377" y1="1689.7323" x2="1788.6196" y2="1689.7323" gradientTransform="matrix(-1 0 0 1 4598.2246 0)">
								<stop  offset="0" style="stop-color:#327C7C"/>
								<stop  offset="1" style="stop-color:#0E3333"/>
							</linearGradient>
							<path class="st99" d="M2812.1,1656.1c5-8.4,15.8-11.1,24.2-6.1l82,49.1c8.4,5,11.1,15.8,6.1,24.2l0,0
								c-5,8.4-15.8,11.1-24.2,6.1l-82-49.1C2809.8,1675.3,2807.1,1664.5,2812.1,1656.1L2812.1,1656.1z"/>
						</g>
					</g>
				</g>
			</g>
			
				<linearGradient id="SVGID_53_" gradientUnits="userSpaceOnUse" x1="1282.4355" y1="1552.6088" x2="1390.7404" y2="1552.6088" gradientTransform="matrix(-1 0 0 1 4598.2246 0)">
				<stop  offset="0" style="stop-color:#327C7C"/>
				<stop  offset="1" style="stop-color:#0E3333"/>
			</linearGradient>
			<path class="st100" d="M3312.3,1570.6c-5.4,19.8-25.9,31.4-45.7,26l-31.8-8.8c-19.8-5.4-31.5-25.9-26-45.7l2.1-7.6
				c5.4-19.8,25.9-31.4,45.7-26l31.8,8.7c19.8,5.4,31.5,25.9,26,45.7L3312.3,1570.6z"/>
			
				<linearGradient id="SVGID_54_" gradientUnits="userSpaceOnUse" x1="1839.5085" y1="1507.2333" x2="1947.6696" y2="1507.2333" gradientTransform="matrix(-1 0 0 1 4598.2246 0)">
				<stop  offset="0" style="stop-color:#327C7C"/>
				<stop  offset="1" style="stop-color:#0E3333"/>
			</linearGradient>
			<path class="st101" d="M2758.3,1503.6c2.9,20.3-11.2,39.2-31.5,42.1l-32.7,4.7c-20.3,2.9-39.1-11.2-42.1-31.5l-1.1-7.8
				c-2.9-20.3,11.2-39.1,31.6-42.1l32.7-4.7c20.3-2.9,39.1,11.2,42.1,31.5L2758.3,1503.6z"/>
			
				<linearGradient id="SVGID_55_" gradientUnits="userSpaceOnUse" x1="1153.4689" y1="1133.2692" x2="1261.7737" y2="1133.2692" gradientTransform="matrix(-1 0 0 1 4598.2246 0)">
				<stop  offset="0" style="stop-color:#327C7C"/>
				<stop  offset="1" style="stop-color:#0E3333"/>
			</linearGradient>
			<path class="st102" d="M3441.3,1151.3c-5.4,19.8-25.9,31.4-45.7,26l-31.8-8.7c-19.8-5.4-31.5-25.9-26-45.7l2.1-7.6
				c5.4-19.8,25.9-31.5,45.7-26l31.8,8.8c19.8,5.4,31.5,25.9,26,45.7L3441.3,1151.3z"/>
			
				<linearGradient id="SVGID_56_" gradientUnits="userSpaceOnUse" x1="1034.1265" y1="932.2609" x2="1329.6727" y2="932.2609" gradientTransform="matrix(-1 0 0 1 4598.2246 0)">
				<stop  offset="0" style="stop-color:#327C7C"/>
				<stop  offset="1" style="stop-color:#0E3333"/>
			</linearGradient>
			<path class="st103" d="M3561.7,878.7c7.8,21.3-4.1,45.2-26.6,53.5l-209.2,77.1c-22.5,8.3-47.1-2.2-54.9-23.5l0,0
				c-7.8-21.3,4.1-45.2,26.6-53.5l209.2-77C3529.3,847,3553.9,857.5,3561.7,878.7L3561.7,878.7z"/>
		</g>
	</g>
</g>
</svg>
