<?xml version="1.0" encoding="iso-8859-1"?>
<!-- Generator: Adobe Illustrator 19.0.0, SVG Export Plug-In . SVG Version: 6.00 Build 0)  -->
<svg xmlns="http://www.w3.org/2000/svg" xmlns:xlink="http://www.w3.org/1999/xlink" version="1.1" id="Capa_1" x="0px" y="0px" viewBox="0 0 455 455" style="enable-background:new 0 0 455 455;" xml:space="preserve" width="512" height="512">
<g>
	<path style="fill:#FFE3A1;" d="M440,216.25l-212.5,20l-212.5-20c0-11.12,6.05-20.81,15.04-26c-7.34-7.33-10.68-18.26-7.8-29   s11.23-18.54,21.25-21.22c-5.19-8.98-5.58-20.4-0.02-30.03s15.65-15,26.02-15c-2.69-10.01-0.11-21.15,7.75-29.01   s19-10.44,29.01-7.75c0-10.37,5.37-20.46,15-26.02s21.05-5.17,30.03,0.02c2.68-10.02,10.48-18.37,21.22-21.25s21.67,0.46,29,7.8   c5.19-8.99,14.88-15.04,26-15.04s20.81,6.05,26,15.04c7.33-7.34,18.26-10.68,29-7.8s18.54,11.23,21.22,21.25   c8.98-5.19,20.4-5.58,30.03-0.02s15,15.65,15,26.02c10.01-2.69,21.15-0.11,29.01,7.75c7.86,7.86,10.44,19,7.75,29.01   c10.37,0,20.46,5.37,26.02,15s5.17,21.05-0.02,30.03c10.02,2.68,18.37,10.48,21.25,21.22s-0.46,21.67-7.8,29   C433.95,195.44,440,205.13,440,216.25z"/>
	<path style="fill:#19ABBF;" d="M0,216.25c0,125.64,101.86,227.5,227.5,227.5S455,341.89,455,216.25H0z"/>
	<path style="fill:#19ABBF;" d="M295,451.25H160c-4.142,0-7.5-3.357-7.5-7.5s3.358-7.5,7.5-7.5h135c4.143,0,7.5,3.357,7.5,7.5   S299.143,451.25,295,451.25z"/>
	<circle style="fill:#0B7786;" cx="114.774" cy="358" r="7.5"/>
	<circle style="fill:#0B7786;" cx="84.774" cy="328" r="7.5"/>
	<circle style="fill:#FFB914;" cx="126.774" cy="170.75" r="7.5"/>
	<circle style="fill:#FFB914;" cx="96.774" cy="140.75" r="7.5"/>
	<circle style="fill:#FFB914;" cx="326.774" cy="140.75" r="7.5"/>
	<circle style="fill:#FFB914;" cx="126.774" cy="110.75" r="7.5"/>
</g>















</svg>
